<?xml version="1.0" encoding="utf-8" standalone="no"?>
<!DOCTYPE svg PUBLIC "-//W3C//DTD SVG 1.1//EN"
  "http://www.w3.org/Graphics/SVG/1.1/DTD/svg11.dtd">
<!-- Created with matplotlib (https://matplotlib.org/) -->
<svg height="345.6pt" version="1.1" viewBox="0 0 460.8 345.6" width="460.8pt" xmlns="http://www.w3.org/2000/svg" xmlns:xlink="http://www.w3.org/1999/xlink">
 <defs>
  <style type="text/css">
*{stroke-linecap:butt;stroke-linejoin:round;}
  </style>
 </defs>
 <g id="figure_1">
  <g id="patch_1">
   <path d="M 0 345.6 
L 460.8 345.6 
L 460.8 0 
L 0 0 
z
" style="fill:#ffffff;"/>
  </g>
  <g id="axes_1">
   <g id="patch_2">
    <path d="M 57.6 298.944 
L 338.688 298.944 
L 338.688 3.456 
L 57.6 3.456 
z
" style="fill:#ffffff;"/>
   </g>
   <g id="matplotlib.axis_1">
    <g id="xtick_1">
     <g id="line2d_1">
      <path clip-path="url(#p9baaf5ec1d)" d="M 57.6 298.944 
L 57.6 3.456 
" style="fill:none;stroke:#b0b0b0;stroke-linecap:square;stroke-width:0.8;"/>
     </g>
     <g id="line2d_2">
      <defs>
       <path d="M 0 0 
L 0 3.5 
" id="md560861bb3" style="stroke:#000000;stroke-width:0.8;"/>
      </defs>
      <g>
       <use style="stroke:#000000;stroke-width:0.8;" x="57.6" xlink:href="#md560861bb3" y="298.944"/>
      </g>
     </g>
     <g id="text_1">
      <!-- 0 -->
      <defs>
       <path d="M 31.78125 66.40625 
Q 24.171875 66.40625 20.328125 58.90625 
Q 16.5 51.421875 16.5 36.375 
Q 16.5 21.390625 20.328125 13.890625 
Q 24.171875 6.390625 31.78125 6.390625 
Q 39.453125 6.390625 43.28125 13.890625 
Q 47.125 21.390625 47.125 36.375 
Q 47.125 51.421875 43.28125 58.90625 
Q 39.453125 66.40625 31.78125 66.40625 
z
M 31.78125 74.21875 
Q 44.046875 74.21875 50.515625 64.515625 
Q 56.984375 54.828125 56.984375 36.375 
Q 56.984375 17.96875 50.515625 8.265625 
Q 44.046875 -1.421875 31.78125 -1.421875 
Q 19.53125 -1.421875 13.0625 8.265625 
Q 6.59375 17.96875 6.59375 36.375 
Q 6.59375 54.828125 13.0625 64.515625 
Q 19.53125 74.21875 31.78125 74.21875 
z
" id="DejaVuSans-48"/>
      </defs>
      <g transform="translate(51.2375 321.140875)scale(0.2 -0.2)">
       <use xlink:href="#DejaVuSans-48"/>
      </g>
     </g>
    </g>
    <g id="xtick_2">
     <g id="line2d_3">
      <path clip-path="url(#p9baaf5ec1d)" d="M 137.910857 298.944 
L 137.910857 3.456 
" style="fill:none;stroke:#b0b0b0;stroke-linecap:square;stroke-width:0.8;"/>
     </g>
     <g id="line2d_4">
      <g>
       <use style="stroke:#000000;stroke-width:0.8;" x="137.910857" xlink:href="#md560861bb3" y="298.944"/>
      </g>
     </g>
     <g id="text_2">
      <!-- 2 -->
      <defs>
       <path d="M 19.1875 8.296875 
L 53.609375 8.296875 
L 53.609375 0 
L 7.328125 0 
L 7.328125 8.296875 
Q 12.9375 14.109375 22.625 23.890625 
Q 32.328125 33.6875 34.8125 36.53125 
Q 39.546875 41.84375 41.421875 45.53125 
Q 43.3125 49.21875 43.3125 52.78125 
Q 43.3125 58.59375 39.234375 62.25 
Q 35.15625 65.921875 28.609375 65.921875 
Q 23.96875 65.921875 18.8125 64.3125 
Q 13.671875 62.703125 7.8125 59.421875 
L 7.8125 69.390625 
Q 13.765625 71.78125 18.9375 73 
Q 24.125 74.21875 28.421875 74.21875 
Q 39.75 74.21875 46.484375 68.546875 
Q 53.21875 62.890625 53.21875 53.421875 
Q 53.21875 48.921875 51.53125 44.890625 
Q 49.859375 40.875 45.40625 35.40625 
Q 44.1875 33.984375 37.640625 27.21875 
Q 31.109375 20.453125 19.1875 8.296875 
z
" id="DejaVuSans-50"/>
      </defs>
      <g transform="translate(131.548357 321.140875)scale(0.2 -0.2)">
       <use xlink:href="#DejaVuSans-50"/>
      </g>
     </g>
    </g>
    <g id="xtick_3">
     <g id="line2d_5">
      <path clip-path="url(#p9baaf5ec1d)" d="M 218.221714 298.944 
L 218.221714 3.456 
" style="fill:none;stroke:#b0b0b0;stroke-linecap:square;stroke-width:0.8;"/>
     </g>
     <g id="line2d_6">
      <g>
       <use style="stroke:#000000;stroke-width:0.8;" x="218.221714" xlink:href="#md560861bb3" y="298.944"/>
      </g>
     </g>
     <g id="text_3">
      <!-- 4 -->
      <defs>
       <path d="M 37.796875 64.3125 
L 12.890625 25.390625 
L 37.796875 25.390625 
z
M 35.203125 72.90625 
L 47.609375 72.90625 
L 47.609375 25.390625 
L 58.015625 25.390625 
L 58.015625 17.1875 
L 47.609375 17.1875 
L 47.609375 0 
L 37.796875 0 
L 37.796875 17.1875 
L 4.890625 17.1875 
L 4.890625 26.703125 
z
" id="DejaVuSans-52"/>
      </defs>
      <g transform="translate(211.859214 321.140875)scale(0.2 -0.2)">
       <use xlink:href="#DejaVuSans-52"/>
      </g>
     </g>
    </g>
    <g id="xtick_4">
     <g id="line2d_7">
      <path clip-path="url(#p9baaf5ec1d)" d="M 298.532571 298.944 
L 298.532571 3.456 
" style="fill:none;stroke:#b0b0b0;stroke-linecap:square;stroke-width:0.8;"/>
     </g>
     <g id="line2d_8">
      <g>
       <use style="stroke:#000000;stroke-width:0.8;" x="298.532571" xlink:href="#md560861bb3" y="298.944"/>
      </g>
     </g>
     <g id="text_4">
      <!-- 6 -->
      <defs>
       <path d="M 33.015625 40.375 
Q 26.375 40.375 22.484375 35.828125 
Q 18.609375 31.296875 18.609375 23.390625 
Q 18.609375 15.53125 22.484375 10.953125 
Q 26.375 6.390625 33.015625 6.390625 
Q 39.65625 6.390625 43.53125 10.953125 
Q 47.40625 15.53125 47.40625 23.390625 
Q 47.40625 31.296875 43.53125 35.828125 
Q 39.65625 40.375 33.015625 40.375 
z
M 52.59375 71.296875 
L 52.59375 62.3125 
Q 48.875 64.0625 45.09375 64.984375 
Q 41.3125 65.921875 37.59375 65.921875 
Q 27.828125 65.921875 22.671875 59.328125 
Q 17.53125 52.734375 16.796875 39.40625 
Q 19.671875 43.65625 24.015625 45.921875 
Q 28.375 48.1875 33.59375 48.1875 
Q 44.578125 48.1875 50.953125 41.515625 
Q 57.328125 34.859375 57.328125 23.390625 
Q 57.328125 12.15625 50.6875 5.359375 
Q 44.046875 -1.421875 33.015625 -1.421875 
Q 20.359375 -1.421875 13.671875 8.265625 
Q 6.984375 17.96875 6.984375 36.375 
Q 6.984375 53.65625 15.1875 63.9375 
Q 23.390625 74.21875 37.203125 74.21875 
Q 40.921875 74.21875 44.703125 73.484375 
Q 48.484375 72.75 52.59375 71.296875 
z
" id="DejaVuSans-54"/>
      </defs>
      <g transform="translate(292.170071 321.140875)scale(0.2 -0.2)">
       <use xlink:href="#DejaVuSans-54"/>
      </g>
     </g>
    </g>
    <g id="xtick_5">
     <g id="line2d_9">
      <path clip-path="url(#p9baaf5ec1d)" d="M 97.755429 298.944 
L 97.755429 3.456 
" style="fill:none;stroke:#b0b0b0;stroke-linecap:square;stroke-width:0.8;"/>
     </g>
     <g id="line2d_10">
      <defs>
       <path d="M 0 0 
L 0 2 
" id="m7d236c070b" style="stroke:#000000;stroke-width:0.6;"/>
      </defs>
      <g>
       <use style="stroke:#000000;stroke-width:0.6;" x="97.755429" xlink:href="#m7d236c070b" y="298.944"/>
      </g>
     </g>
    </g>
    <g id="xtick_6">
     <g id="line2d_11">
      <path clip-path="url(#p9baaf5ec1d)" d="M 178.066286 298.944 
L 178.066286 3.456 
" style="fill:none;stroke:#b0b0b0;stroke-linecap:square;stroke-width:0.8;"/>
     </g>
     <g id="line2d_12">
      <g>
       <use style="stroke:#000000;stroke-width:0.6;" x="178.066286" xlink:href="#m7d236c070b" y="298.944"/>
      </g>
     </g>
    </g>
    <g id="xtick_7">
     <g id="line2d_13">
      <path clip-path="url(#p9baaf5ec1d)" d="M 258.377143 298.944 
L 258.377143 3.456 
" style="fill:none;stroke:#b0b0b0;stroke-linecap:square;stroke-width:0.8;"/>
     </g>
     <g id="line2d_14">
      <g>
       <use style="stroke:#000000;stroke-width:0.6;" x="258.377143" xlink:href="#m7d236c070b" y="298.944"/>
      </g>
     </g>
    </g>
    <g id="xtick_8">
     <g id="line2d_15">
      <path clip-path="url(#p9baaf5ec1d)" d="M 338.688 298.944 
L 338.688 3.456 
" style="fill:none;stroke:#b0b0b0;stroke-linecap:square;stroke-width:0.8;"/>
     </g>
     <g id="line2d_16">
      <g>
       <use style="stroke:#000000;stroke-width:0.6;" x="338.688" xlink:href="#m7d236c070b" y="298.944"/>
      </g>
     </g>
    </g>
    <g id="text_5">
     <!-- log10(# f-evals / dimension) -->
     <defs>
      <path d="M 9.421875 75.984375 
L 18.40625 75.984375 
L 18.40625 0 
L 9.421875 0 
z
" id="DejaVuSans-108"/>
      <path d="M 30.609375 48.390625 
Q 23.390625 48.390625 19.1875 42.75 
Q 14.984375 37.109375 14.984375 27.296875 
Q 14.984375 17.484375 19.15625 11.84375 
Q 23.34375 6.203125 30.609375 6.203125 
Q 37.796875 6.203125 41.984375 11.859375 
Q 46.1875 17.53125 46.1875 27.296875 
Q 46.1875 37.015625 41.984375 42.703125 
Q 37.796875 48.390625 30.609375 48.390625 
z
M 30.609375 56 
Q 42.328125 56 49.015625 48.375 
Q 55.71875 40.765625 55.71875 27.296875 
Q 55.71875 13.875 49.015625 6.21875 
Q 42.328125 -1.421875 30.609375 -1.421875 
Q 18.84375 -1.421875 12.171875 6.21875 
Q 5.515625 13.875 5.515625 27.296875 
Q 5.515625 40.765625 12.171875 48.375 
Q 18.84375 56 30.609375 56 
z
" id="DejaVuSans-111"/>
      <path d="M 45.40625 27.984375 
Q 45.40625 37.75 41.375 43.109375 
Q 37.359375 48.484375 30.078125 48.484375 
Q 22.859375 48.484375 18.828125 43.109375 
Q 14.796875 37.75 14.796875 27.984375 
Q 14.796875 18.265625 18.828125 12.890625 
Q 22.859375 7.515625 30.078125 7.515625 
Q 37.359375 7.515625 41.375 12.890625 
Q 45.40625 18.265625 45.40625 27.984375 
z
M 54.390625 6.78125 
Q 54.390625 -7.171875 48.1875 -13.984375 
Q 42 -20.796875 29.203125 -20.796875 
Q 24.46875 -20.796875 20.265625 -20.09375 
Q 16.0625 -19.390625 12.109375 -17.921875 
L 12.109375 -9.1875 
Q 16.0625 -11.328125 19.921875 -12.34375 
Q 23.78125 -13.375 27.78125 -13.375 
Q 36.625 -13.375 41.015625 -8.765625 
Q 45.40625 -4.15625 45.40625 5.171875 
L 45.40625 9.625 
Q 42.625 4.78125 38.28125 2.390625 
Q 33.9375 0 27.875 0 
Q 17.828125 0 11.671875 7.65625 
Q 5.515625 15.328125 5.515625 27.984375 
Q 5.515625 40.671875 11.671875 48.328125 
Q 17.828125 56 27.875 56 
Q 33.9375 56 38.28125 53.609375 
Q 42.625 51.21875 45.40625 46.390625 
L 45.40625 54.6875 
L 54.390625 54.6875 
z
" id="DejaVuSans-103"/>
      <path d="M 12.40625 8.296875 
L 28.515625 8.296875 
L 28.515625 63.921875 
L 10.984375 60.40625 
L 10.984375 69.390625 
L 28.421875 72.90625 
L 38.28125 72.90625 
L 38.28125 8.296875 
L 54.390625 8.296875 
L 54.390625 0 
L 12.40625 0 
z
" id="DejaVuSans-49"/>
      <path d="M 31 75.875 
Q 24.46875 64.65625 21.28125 53.65625 
Q 18.109375 42.671875 18.109375 31.390625 
Q 18.109375 20.125 21.3125 9.0625 
Q 24.515625 -2 31 -13.1875 
L 23.1875 -13.1875 
Q 15.875 -1.703125 12.234375 9.375 
Q 8.59375 20.453125 8.59375 31.390625 
Q 8.59375 42.28125 12.203125 53.3125 
Q 15.828125 64.359375 23.1875 75.875 
z
" id="DejaVuSans-40"/>
      <path d="M 51.125 44 
L 36.921875 44 
L 32.8125 27.6875 
L 47.125 27.6875 
z
M 43.796875 71.78125 
L 38.71875 51.515625 
L 52.984375 51.515625 
L 58.109375 71.78125 
L 65.921875 71.78125 
L 60.890625 51.515625 
L 76.125 51.515625 
L 76.125 44 
L 58.984375 44 
L 54.984375 27.6875 
L 70.515625 27.6875 
L 70.515625 20.21875 
L 53.078125 20.21875 
L 48 0 
L 40.1875 0 
L 45.21875 20.21875 
L 30.90625 20.21875 
L 25.875 0 
L 18.015625 0 
L 23.09375 20.21875 
L 7.71875 20.21875 
L 7.71875 27.6875 
L 24.90625 27.6875 
L 29 44 
L 13.28125 44 
L 13.28125 51.515625 
L 30.90625 51.515625 
L 35.890625 71.78125 
z
" id="DejaVuSans-35"/>
      <path id="DejaVuSans-32"/>
      <path d="M 37.109375 75.984375 
L 37.109375 68.5 
L 28.515625 68.5 
Q 23.6875 68.5 21.796875 66.546875 
Q 19.921875 64.59375 19.921875 59.515625 
L 19.921875 54.6875 
L 34.71875 54.6875 
L 34.71875 47.703125 
L 19.921875 47.703125 
L 19.921875 0 
L 10.890625 0 
L 10.890625 47.703125 
L 2.296875 47.703125 
L 2.296875 54.6875 
L 10.890625 54.6875 
L 10.890625 58.5 
Q 10.890625 67.625 15.140625 71.796875 
Q 19.390625 75.984375 28.609375 75.984375 
z
" id="DejaVuSans-102"/>
      <path d="M 4.890625 31.390625 
L 31.203125 31.390625 
L 31.203125 23.390625 
L 4.890625 23.390625 
z
" id="DejaVuSans-45"/>
      <path d="M 56.203125 29.59375 
L 56.203125 25.203125 
L 14.890625 25.203125 
Q 15.484375 15.921875 20.484375 11.0625 
Q 25.484375 6.203125 34.421875 6.203125 
Q 39.59375 6.203125 44.453125 7.46875 
Q 49.3125 8.734375 54.109375 11.28125 
L 54.109375 2.78125 
Q 49.265625 0.734375 44.1875 -0.34375 
Q 39.109375 -1.421875 33.890625 -1.421875 
Q 20.796875 -1.421875 13.15625 6.1875 
Q 5.515625 13.8125 5.515625 26.8125 
Q 5.515625 40.234375 12.765625 48.109375 
Q 20.015625 56 32.328125 56 
Q 43.359375 56 49.78125 48.890625 
Q 56.203125 41.796875 56.203125 29.59375 
z
M 47.21875 32.234375 
Q 47.125 39.59375 43.09375 43.984375 
Q 39.0625 48.390625 32.421875 48.390625 
Q 24.90625 48.390625 20.390625 44.140625 
Q 15.875 39.890625 15.1875 32.171875 
z
" id="DejaVuSans-101"/>
      <path d="M 2.984375 54.6875 
L 12.5 54.6875 
L 29.59375 8.796875 
L 46.6875 54.6875 
L 56.203125 54.6875 
L 35.6875 0 
L 23.484375 0 
z
" id="DejaVuSans-118"/>
      <path d="M 34.28125 27.484375 
Q 23.390625 27.484375 19.1875 25 
Q 14.984375 22.515625 14.984375 16.5 
Q 14.984375 11.71875 18.140625 8.90625 
Q 21.296875 6.109375 26.703125 6.109375 
Q 34.1875 6.109375 38.703125 11.40625 
Q 43.21875 16.703125 43.21875 25.484375 
L 43.21875 27.484375 
z
M 52.203125 31.203125 
L 52.203125 0 
L 43.21875 0 
L 43.21875 8.296875 
Q 40.140625 3.328125 35.546875 0.953125 
Q 30.953125 -1.421875 24.3125 -1.421875 
Q 15.921875 -1.421875 10.953125 3.296875 
Q 6 8.015625 6 15.921875 
Q 6 25.140625 12.171875 29.828125 
Q 18.359375 34.515625 30.609375 34.515625 
L 43.21875 34.515625 
L 43.21875 35.40625 
Q 43.21875 41.609375 39.140625 45 
Q 35.0625 48.390625 27.6875 48.390625 
Q 23 48.390625 18.546875 47.265625 
Q 14.109375 46.140625 10.015625 43.890625 
L 10.015625 52.203125 
Q 14.9375 54.109375 19.578125 55.046875 
Q 24.21875 56 28.609375 56 
Q 40.484375 56 46.34375 49.84375 
Q 52.203125 43.703125 52.203125 31.203125 
z
" id="DejaVuSans-97"/>
      <path d="M 44.28125 53.078125 
L 44.28125 44.578125 
Q 40.484375 46.53125 36.375 47.5 
Q 32.28125 48.484375 27.875 48.484375 
Q 21.1875 48.484375 17.84375 46.4375 
Q 14.5 44.390625 14.5 40.28125 
Q 14.5 37.15625 16.890625 35.375 
Q 19.28125 33.59375 26.515625 31.984375 
L 29.59375 31.296875 
Q 39.15625 29.25 43.1875 25.515625 
Q 47.21875 21.78125 47.21875 15.09375 
Q 47.21875 7.46875 41.1875 3.015625 
Q 35.15625 -1.421875 24.609375 -1.421875 
Q 20.21875 -1.421875 15.453125 -0.5625 
Q 10.6875 0.296875 5.421875 2 
L 5.421875 11.28125 
Q 10.40625 8.6875 15.234375 7.390625 
Q 20.0625 6.109375 24.8125 6.109375 
Q 31.15625 6.109375 34.5625 8.28125 
Q 37.984375 10.453125 37.984375 14.40625 
Q 37.984375 18.0625 35.515625 20.015625 
Q 33.0625 21.96875 24.703125 23.78125 
L 21.578125 24.515625 
Q 13.234375 26.265625 9.515625 29.90625 
Q 5.8125 33.546875 5.8125 39.890625 
Q 5.8125 47.609375 11.28125 51.796875 
Q 16.75 56 26.8125 56 
Q 31.78125 56 36.171875 55.265625 
Q 40.578125 54.546875 44.28125 53.078125 
z
" id="DejaVuSans-115"/>
      <path d="M 25.390625 72.90625 
L 33.6875 72.90625 
L 8.296875 -9.28125 
L 0 -9.28125 
z
" id="DejaVuSans-47"/>
      <path d="M 45.40625 46.390625 
L 45.40625 75.984375 
L 54.390625 75.984375 
L 54.390625 0 
L 45.40625 0 
L 45.40625 8.203125 
Q 42.578125 3.328125 38.25 0.953125 
Q 33.9375 -1.421875 27.875 -1.421875 
Q 17.96875 -1.421875 11.734375 6.484375 
Q 5.515625 14.40625 5.515625 27.296875 
Q 5.515625 40.1875 11.734375 48.09375 
Q 17.96875 56 27.875 56 
Q 33.9375 56 38.25 53.625 
Q 42.578125 51.265625 45.40625 46.390625 
z
M 14.796875 27.296875 
Q 14.796875 17.390625 18.875 11.75 
Q 22.953125 6.109375 30.078125 6.109375 
Q 37.203125 6.109375 41.296875 11.75 
Q 45.40625 17.390625 45.40625 27.296875 
Q 45.40625 37.203125 41.296875 42.84375 
Q 37.203125 48.484375 30.078125 48.484375 
Q 22.953125 48.484375 18.875 42.84375 
Q 14.796875 37.203125 14.796875 27.296875 
z
" id="DejaVuSans-100"/>
      <path d="M 9.421875 54.6875 
L 18.40625 54.6875 
L 18.40625 0 
L 9.421875 0 
z
M 9.421875 75.984375 
L 18.40625 75.984375 
L 18.40625 64.59375 
L 9.421875 64.59375 
z
" id="DejaVuSans-105"/>
      <path d="M 52 44.1875 
Q 55.375 50.25 60.0625 53.125 
Q 64.75 56 71.09375 56 
Q 79.640625 56 84.28125 50.015625 
Q 88.921875 44.046875 88.921875 33.015625 
L 88.921875 0 
L 79.890625 0 
L 79.890625 32.71875 
Q 79.890625 40.578125 77.09375 44.375 
Q 74.3125 48.1875 68.609375 48.1875 
Q 61.625 48.1875 57.5625 43.546875 
Q 53.515625 38.921875 53.515625 30.90625 
L 53.515625 0 
L 44.484375 0 
L 44.484375 32.71875 
Q 44.484375 40.625 41.703125 44.40625 
Q 38.921875 48.1875 33.109375 48.1875 
Q 26.21875 48.1875 22.15625 43.53125 
Q 18.109375 38.875 18.109375 30.90625 
L 18.109375 0 
L 9.078125 0 
L 9.078125 54.6875 
L 18.109375 54.6875 
L 18.109375 46.1875 
Q 21.1875 51.21875 25.484375 53.609375 
Q 29.78125 56 35.6875 56 
Q 41.65625 56 45.828125 52.96875 
Q 50 49.953125 52 44.1875 
z
" id="DejaVuSans-109"/>
      <path d="M 54.890625 33.015625 
L 54.890625 0 
L 45.90625 0 
L 45.90625 32.71875 
Q 45.90625 40.484375 42.875 44.328125 
Q 39.84375 48.1875 33.796875 48.1875 
Q 26.515625 48.1875 22.3125 43.546875 
Q 18.109375 38.921875 18.109375 30.90625 
L 18.109375 0 
L 9.078125 0 
L 9.078125 54.6875 
L 18.109375 54.6875 
L 18.109375 46.1875 
Q 21.34375 51.125 25.703125 53.5625 
Q 30.078125 56 35.796875 56 
Q 45.21875 56 50.046875 50.171875 
Q 54.890625 44.34375 54.890625 33.015625 
z
" id="DejaVuSans-110"/>
      <path d="M 8.015625 75.875 
L 15.828125 75.875 
Q 23.140625 64.359375 26.78125 53.3125 
Q 30.421875 42.28125 30.421875 31.390625 
Q 30.421875 20.453125 26.78125 9.375 
Q 23.140625 -1.703125 15.828125 -13.1875 
L 8.015625 -13.1875 
Q 14.5 -2 17.703125 9.0625 
Q 20.90625 20.125 20.90625 31.390625 
Q 20.90625 42.671875 17.703125 53.65625 
Q 14.5 64.65625 8.015625 75.875 
z
" id="DejaVuSans-41"/>
     </defs>
     <g transform="translate(77.303219 342.217594)scale(0.17 -0.17)">
      <use xlink:href="#DejaVuSans-108"/>
      <use x="27.783203" xlink:href="#DejaVuSans-111"/>
      <use x="88.964844" xlink:href="#DejaVuSans-103"/>
      <use x="152.441406" xlink:href="#DejaVuSans-49"/>
      <use x="216.064453" xlink:href="#DejaVuSans-48"/>
      <use x="279.6875" xlink:href="#DejaVuSans-40"/>
      <use x="318.701172" xlink:href="#DejaVuSans-35"/>
      <use x="402.490234" xlink:href="#DejaVuSans-32"/>
      <use x="434.277344" xlink:href="#DejaVuSans-102"/>
      <use x="469.404297" xlink:href="#DejaVuSans-45"/>
      <use x="505.488281" xlink:href="#DejaVuSans-101"/>
      <use x="567.011719" xlink:href="#DejaVuSans-118"/>
      <use x="626.191406" xlink:href="#DejaVuSans-97"/>
      <use x="687.470703" xlink:href="#DejaVuSans-108"/>
      <use x="715.253906" xlink:href="#DejaVuSans-115"/>
      <use x="767.353516" xlink:href="#DejaVuSans-32"/>
      <use x="799.140625" xlink:href="#DejaVuSans-47"/>
      <use x="832.832031" xlink:href="#DejaVuSans-32"/>
      <use x="864.619141" xlink:href="#DejaVuSans-100"/>
      <use x="928.095703" xlink:href="#DejaVuSans-105"/>
      <use x="955.878906" xlink:href="#DejaVuSans-109"/>
      <use x="1053.291016" xlink:href="#DejaVuSans-101"/>
      <use x="1114.814453" xlink:href="#DejaVuSans-110"/>
      <use x="1178.193359" xlink:href="#DejaVuSans-115"/>
      <use x="1230.292969" xlink:href="#DejaVuSans-105"/>
      <use x="1258.076172" xlink:href="#DejaVuSans-111"/>
      <use x="1319.257812" xlink:href="#DejaVuSans-110"/>
      <use x="1382.636719" xlink:href="#DejaVuSans-41"/>
     </g>
    </g>
   </g>
   <g id="matplotlib.axis_2">
    <g id="ytick_1">
     <g id="line2d_17">
      <path clip-path="url(#p9baaf5ec1d)" d="M 57.6 298.944 
L 338.688 298.944 
" style="fill:none;stroke:#b0b0b0;stroke-linecap:square;stroke-width:0.8;"/>
     </g>
     <g id="line2d_18">
      <defs>
       <path d="M 0 0 
L -3.5 0 
" id="m3ea9ec3ba4" style="stroke:#000000;stroke-width:0.8;"/>
      </defs>
      <g>
       <use style="stroke:#000000;stroke-width:0.8;" x="57.6" xlink:href="#m3ea9ec3ba4" y="298.944"/>
      </g>
     </g>
     <g id="text_6">
      <!-- 0.0 -->
      <defs>
       <path d="M 10.6875 12.40625 
L 21 12.40625 
L 21 0 
L 10.6875 0 
z
" id="DejaVuSans-46"/>
      </defs>
      <g transform="translate(25.155 305.02275)scale(0.16 -0.16)">
       <use xlink:href="#DejaVuSans-48"/>
       <use x="63.623047" xlink:href="#DejaVuSans-46"/>
       <use x="95.410156" xlink:href="#DejaVuSans-48"/>
      </g>
     </g>
    </g>
    <g id="ytick_2">
     <g id="line2d_19">
      <path clip-path="url(#p9baaf5ec1d)" d="M 57.6 240.431525 
L 338.688 240.431525 
" style="fill:none;stroke:#b0b0b0;stroke-linecap:square;stroke-width:0.8;"/>
     </g>
     <g id="line2d_20">
      <g>
       <use style="stroke:#000000;stroke-width:0.8;" x="57.6" xlink:href="#m3ea9ec3ba4" y="240.431525"/>
      </g>
     </g>
     <g id="text_7">
      <!-- 0.2 -->
      <g transform="translate(25.155 246.510275)scale(0.16 -0.16)">
       <use xlink:href="#DejaVuSans-48"/>
       <use x="63.623047" xlink:href="#DejaVuSans-46"/>
       <use x="95.410156" xlink:href="#DejaVuSans-50"/>
      </g>
     </g>
    </g>
    <g id="ytick_3">
     <g id="line2d_21">
      <path clip-path="url(#p9baaf5ec1d)" d="M 57.6 181.91905 
L 338.688 181.91905 
" style="fill:none;stroke:#b0b0b0;stroke-linecap:square;stroke-width:0.8;"/>
     </g>
     <g id="line2d_22">
      <g>
       <use style="stroke:#000000;stroke-width:0.8;" x="57.6" xlink:href="#m3ea9ec3ba4" y="181.91905"/>
      </g>
     </g>
     <g id="text_8">
      <!-- 0.4 -->
      <g transform="translate(25.155 187.9978)scale(0.16 -0.16)">
       <use xlink:href="#DejaVuSans-48"/>
       <use x="63.623047" xlink:href="#DejaVuSans-46"/>
       <use x="95.410156" xlink:href="#DejaVuSans-52"/>
      </g>
     </g>
    </g>
    <g id="ytick_4">
     <g id="line2d_23">
      <path clip-path="url(#p9baaf5ec1d)" d="M 57.6 123.406574 
L 338.688 123.406574 
" style="fill:none;stroke:#b0b0b0;stroke-linecap:square;stroke-width:0.8;"/>
     </g>
     <g id="line2d_24">
      <g>
       <use style="stroke:#000000;stroke-width:0.8;" x="57.6" xlink:href="#m3ea9ec3ba4" y="123.406574"/>
      </g>
     </g>
     <g id="text_9">
      <!-- 0.6 -->
      <g transform="translate(25.155 129.485324)scale(0.16 -0.16)">
       <use xlink:href="#DejaVuSans-48"/>
       <use x="63.623047" xlink:href="#DejaVuSans-46"/>
       <use x="95.410156" xlink:href="#DejaVuSans-54"/>
      </g>
     </g>
    </g>
    <g id="ytick_5">
     <g id="line2d_25">
      <path clip-path="url(#p9baaf5ec1d)" d="M 57.6 64.894099 
L 338.688 64.894099 
" style="fill:none;stroke:#b0b0b0;stroke-linecap:square;stroke-width:0.8;"/>
     </g>
     <g id="line2d_26">
      <g>
       <use style="stroke:#000000;stroke-width:0.8;" x="57.6" xlink:href="#m3ea9ec3ba4" y="64.894099"/>
      </g>
     </g>
     <g id="text_10">
      <!-- 0.8 -->
      <defs>
       <path d="M 31.78125 34.625 
Q 24.75 34.625 20.71875 30.859375 
Q 16.703125 27.09375 16.703125 20.515625 
Q 16.703125 13.921875 20.71875 10.15625 
Q 24.75 6.390625 31.78125 6.390625 
Q 38.8125 6.390625 42.859375 10.171875 
Q 46.921875 13.96875 46.921875 20.515625 
Q 46.921875 27.09375 42.890625 30.859375 
Q 38.875 34.625 31.78125 34.625 
z
M 21.921875 38.8125 
Q 15.578125 40.375 12.03125 44.71875 
Q 8.5 49.078125 8.5 55.328125 
Q 8.5 64.0625 14.71875 69.140625 
Q 20.953125 74.21875 31.78125 74.21875 
Q 42.671875 74.21875 48.875 69.140625 
Q 55.078125 64.0625 55.078125 55.328125 
Q 55.078125 49.078125 51.53125 44.71875 
Q 48 40.375 41.703125 38.8125 
Q 48.828125 37.15625 52.796875 32.3125 
Q 56.78125 27.484375 56.78125 20.515625 
Q 56.78125 9.90625 50.3125 4.234375 
Q 43.84375 -1.421875 31.78125 -1.421875 
Q 19.734375 -1.421875 13.25 4.234375 
Q 6.78125 9.90625 6.78125 20.515625 
Q 6.78125 27.484375 10.78125 32.3125 
Q 14.796875 37.15625 21.921875 38.8125 
z
M 18.3125 54.390625 
Q 18.3125 48.734375 21.84375 45.5625 
Q 25.390625 42.390625 31.78125 42.390625 
Q 38.140625 42.390625 41.71875 45.5625 
Q 45.3125 48.734375 45.3125 54.390625 
Q 45.3125 60.0625 41.71875 63.234375 
Q 38.140625 66.40625 31.78125 66.40625 
Q 25.390625 66.40625 21.84375 63.234375 
Q 18.3125 60.0625 18.3125 54.390625 
z
" id="DejaVuSans-56"/>
      </defs>
      <g transform="translate(25.155 70.972849)scale(0.16 -0.16)">
       <use xlink:href="#DejaVuSans-48"/>
       <use x="63.623047" xlink:href="#DejaVuSans-46"/>
       <use x="95.410156" xlink:href="#DejaVuSans-56"/>
      </g>
     </g>
    </g>
    <g id="ytick_6">
     <g id="line2d_27">
      <path clip-path="url(#p9baaf5ec1d)" d="M 57.6 6.381624 
L 338.688 6.381624 
" style="fill:none;stroke:#b0b0b0;stroke-linecap:square;stroke-width:0.8;"/>
     </g>
     <g id="line2d_28">
      <g>
       <use style="stroke:#000000;stroke-width:0.8;" x="57.6" xlink:href="#m3ea9ec3ba4" y="6.381624"/>
      </g>
     </g>
     <g id="text_11">
      <!-- 1.0 -->
      <g transform="translate(25.155 12.460374)scale(0.16 -0.16)">
       <use xlink:href="#DejaVuSans-49"/>
       <use x="63.623047" xlink:href="#DejaVuSans-46"/>
       <use x="95.410156" xlink:href="#DejaVuSans-48"/>
      </g>
     </g>
    </g>
    <g id="text_12">
     <!-- Fraction of function,target pairs -->
     <defs>
      <path d="M 9.8125 72.90625 
L 51.703125 72.90625 
L 51.703125 64.59375 
L 19.671875 64.59375 
L 19.671875 43.109375 
L 48.578125 43.109375 
L 48.578125 34.8125 
L 19.671875 34.8125 
L 19.671875 0 
L 9.8125 0 
z
" id="DejaVuSans-70"/>
      <path d="M 41.109375 46.296875 
Q 39.59375 47.171875 37.8125 47.578125 
Q 36.03125 48 33.890625 48 
Q 26.265625 48 22.1875 43.046875 
Q 18.109375 38.09375 18.109375 28.8125 
L 18.109375 0 
L 9.078125 0 
L 9.078125 54.6875 
L 18.109375 54.6875 
L 18.109375 46.1875 
Q 20.953125 51.171875 25.484375 53.578125 
Q 30.03125 56 36.53125 56 
Q 37.453125 56 38.578125 55.875 
Q 39.703125 55.765625 41.0625 55.515625 
z
" id="DejaVuSans-114"/>
      <path d="M 48.78125 52.59375 
L 48.78125 44.1875 
Q 44.96875 46.296875 41.140625 47.34375 
Q 37.3125 48.390625 33.40625 48.390625 
Q 24.65625 48.390625 19.8125 42.84375 
Q 14.984375 37.3125 14.984375 27.296875 
Q 14.984375 17.28125 19.8125 11.734375 
Q 24.65625 6.203125 33.40625 6.203125 
Q 37.3125 6.203125 41.140625 7.25 
Q 44.96875 8.296875 48.78125 10.40625 
L 48.78125 2.09375 
Q 45.015625 0.34375 40.984375 -0.53125 
Q 36.96875 -1.421875 32.421875 -1.421875 
Q 20.0625 -1.421875 12.78125 6.34375 
Q 5.515625 14.109375 5.515625 27.296875 
Q 5.515625 40.671875 12.859375 48.328125 
Q 20.21875 56 33.015625 56 
Q 37.15625 56 41.109375 55.140625 
Q 45.0625 54.296875 48.78125 52.59375 
z
" id="DejaVuSans-99"/>
      <path d="M 18.3125 70.21875 
L 18.3125 54.6875 
L 36.8125 54.6875 
L 36.8125 47.703125 
L 18.3125 47.703125 
L 18.3125 18.015625 
Q 18.3125 11.328125 20.140625 9.421875 
Q 21.96875 7.515625 27.59375 7.515625 
L 36.8125 7.515625 
L 36.8125 0 
L 27.59375 0 
Q 17.1875 0 13.234375 3.875 
Q 9.28125 7.765625 9.28125 18.015625 
L 9.28125 47.703125 
L 2.6875 47.703125 
L 2.6875 54.6875 
L 9.28125 54.6875 
L 9.28125 70.21875 
z
" id="DejaVuSans-116"/>
      <path d="M 8.5 21.578125 
L 8.5 54.6875 
L 17.484375 54.6875 
L 17.484375 21.921875 
Q 17.484375 14.15625 20.5 10.265625 
Q 23.53125 6.390625 29.59375 6.390625 
Q 36.859375 6.390625 41.078125 11.03125 
Q 45.3125 15.671875 45.3125 23.6875 
L 45.3125 54.6875 
L 54.296875 54.6875 
L 54.296875 0 
L 45.3125 0 
L 45.3125 8.40625 
Q 42.046875 3.421875 37.71875 1 
Q 33.40625 -1.421875 27.6875 -1.421875 
Q 18.265625 -1.421875 13.375 4.4375 
Q 8.5 10.296875 8.5 21.578125 
z
M 31.109375 56 
z
" id="DejaVuSans-117"/>
      <path d="M 11.71875 12.40625 
L 22.015625 12.40625 
L 22.015625 4 
L 14.015625 -11.625 
L 7.71875 -11.625 
L 11.71875 4 
z
" id="DejaVuSans-44"/>
      <path d="M 18.109375 8.203125 
L 18.109375 -20.796875 
L 9.078125 -20.796875 
L 9.078125 54.6875 
L 18.109375 54.6875 
L 18.109375 46.390625 
Q 20.953125 51.265625 25.265625 53.625 
Q 29.59375 56 35.59375 56 
Q 45.5625 56 51.78125 48.09375 
Q 58.015625 40.1875 58.015625 27.296875 
Q 58.015625 14.40625 51.78125 6.484375 
Q 45.5625 -1.421875 35.59375 -1.421875 
Q 29.59375 -1.421875 25.265625 0.953125 
Q 20.953125 3.328125 18.109375 8.203125 
z
M 48.6875 27.296875 
Q 48.6875 37.203125 44.609375 42.84375 
Q 40.53125 48.484375 33.40625 48.484375 
Q 26.265625 48.484375 22.1875 42.84375 
Q 18.109375 37.203125 18.109375 27.296875 
Q 18.109375 17.390625 22.1875 11.75 
Q 26.265625 6.109375 33.40625 6.109375 
Q 40.53125 6.109375 44.609375 11.75 
Q 48.6875 17.390625 48.6875 27.296875 
z
" id="DejaVuSans-112"/>
     </defs>
     <g transform="translate(17.619531 286.339375)rotate(-90)scale(0.17 -0.17)">
      <use xlink:href="#DejaVuSans-70"/>
      <use x="57.410156" xlink:href="#DejaVuSans-114"/>
      <use x="98.523438" xlink:href="#DejaVuSans-97"/>
      <use x="159.802734" xlink:href="#DejaVuSans-99"/>
      <use x="214.783203" xlink:href="#DejaVuSans-116"/>
      <use x="253.992188" xlink:href="#DejaVuSans-105"/>
      <use x="281.775391" xlink:href="#DejaVuSans-111"/>
      <use x="342.957031" xlink:href="#DejaVuSans-110"/>
      <use x="406.335938" xlink:href="#DejaVuSans-32"/>
      <use x="438.123047" xlink:href="#DejaVuSans-111"/>
      <use x="499.304688" xlink:href="#DejaVuSans-102"/>
      <use x="534.509766" xlink:href="#DejaVuSans-32"/>
      <use x="566.296875" xlink:href="#DejaVuSans-102"/>
      <use x="601.501953" xlink:href="#DejaVuSans-117"/>
      <use x="664.880859" xlink:href="#DejaVuSans-110"/>
      <use x="728.259766" xlink:href="#DejaVuSans-99"/>
      <use x="783.240234" xlink:href="#DejaVuSans-116"/>
      <use x="822.449219" xlink:href="#DejaVuSans-105"/>
      <use x="850.232422" xlink:href="#DejaVuSans-111"/>
      <use x="911.414062" xlink:href="#DejaVuSans-110"/>
      <use x="974.792969" xlink:href="#DejaVuSans-44"/>
      <use x="1006.580078" xlink:href="#DejaVuSans-116"/>
      <use x="1045.789062" xlink:href="#DejaVuSans-97"/>
      <use x="1107.068359" xlink:href="#DejaVuSans-114"/>
      <use x="1148.166016" xlink:href="#DejaVuSans-103"/>
      <use x="1211.642578" xlink:href="#DejaVuSans-101"/>
      <use x="1273.166016" xlink:href="#DejaVuSans-116"/>
      <use x="1312.375" xlink:href="#DejaVuSans-32"/>
      <use x="1344.162109" xlink:href="#DejaVuSans-112"/>
      <use x="1407.638672" xlink:href="#DejaVuSans-97"/>
      <use x="1468.917969" xlink:href="#DejaVuSans-105"/>
      <use x="1496.701172" xlink:href="#DejaVuSans-114"/>
      <use x="1537.814453" xlink:href="#DejaVuSans-115"/>
     </g>
    </g>
   </g>
   <g id="line2d_29">
    <defs>
     <path d="M 0 1.5 
C 0.397805 1.5 0.77937 1.341951 1.06066 1.06066 
C 1.341951 0.77937 1.5 0.397805 1.5 0 
C 1.5 -0.397805 1.341951 -0.77937 1.06066 -1.06066 
C 0.77937 -1.341951 0.397805 -1.5 0 -1.5 
C -0.397805 -1.5 -0.77937 -1.341951 -1.06066 -1.06066 
C -1.341951 -0.77937 -1.5 -0.397805 -1.5 0 
C -1.5 0.397805 -1.341951 0.77937 -1.06066 1.06066 
C -0.77937 1.341951 -0.397805 1.5 0 1.5 
z
" id="m519ce06c6e" style="stroke:#00bfbf;"/>
    </defs>
    <g>
     <use style="fill:#00bfbf;stroke:#00bfbf;" x="217.9156" xlink:href="#m519ce06c6e" y="207.159725"/>
     <use style="fill:#00bfbf;stroke:#00bfbf;" x="217.9156" xlink:href="#m519ce06c6e" y="207.159725"/>
    </g>
   </g>
   <g id="line2d_30">
    <path d="M 45.512012 298.944 
L 45.512012 286.180249 
L 57.6 286.180249 
L 57.6 284.029055 
L 64.67102 284.029055 
L 64.67102 282.3081 
L 69.687988 282.3081 
L 69.687988 280.873971 
L 73.579452 280.873971 
L 73.579452 279.583255 
L 76.759008 279.583255 
L 76.759008 278.149125 
L 79.447285 278.149125 
L 79.447285 276.858409 
L 81.775977 276.858409 
L 81.775977 274.563802 
L 83.830028 274.563802 
L 83.830028 271.408718 
L 85.66744 271.408718 
L 85.66744 270.54824 
L 87.329581 270.54824 
L 87.329581 269.257524 
L 88.846997 269.257524 
L 88.846997 268.827285 
L 90.242884 268.827285 
L 90.242884 267.679981 
L 91.535274 267.679981 
L 91.535274 265.815613 
L 92.73846 265.815613 
L 92.73846 264.811723 
L 93.863965 264.811723 
L 93.863965 263.664419 
L 94.921215 263.664419 
L 94.921215 263.377593 
L 95.918017 263.377593 
L 95.918017 262.803942 
L 96.86091 262.803942 
L 96.86091 262.517116 
L 97.755429 262.517116 
L 97.755429 261.656638 
L 98.606294 261.656638 
L 98.606294 261.369812 
L 99.41757 261.369812 
L 99.41757 260.939574 
L 100.934985 260.939574 
L 100.934985 260.509335 
L 101.646892 260.509335 
L 101.646892 259.648857 
L 102.989037 259.648857 
L 102.989037 259.505444 
L 104.23523 259.505444 
L 104.23523 259.362031 
L 105.398279 259.362031 
L 105.398279 258.358141 
L 105.951954 258.358141 
L 105.951954 257.35425 
L 107.009204 257.35425 
L 107.009204 256.924012 
L 110.694282 256.924012 
L 110.694282 256.206947 
L 111.104637 256.206947 
L 111.104637 255.920121 
L 114.418861 255.920121 
L 114.418861 253.338688 
L 114.751048 253.338688 
L 114.751048 253.051863 
L 115.077025 253.051863 
L 115.077025 252.334798 
L 115.397021 252.334798 
L 115.397021 252.191385 
L 116.019919 252.191385 
L 116.019919 252.047972 
L 116.914437 252.047972 
L 116.914437 251.617733 
L 117.202696 251.617733 
L 117.202696 251.044082 
L 117.486268 251.044082 
L 117.486268 250.900669 
L 118.039942 250.900669 
L 118.039942 250.327017 
L 126.50685 250.327017 
L 126.50685 250.183604 
L 127.002787 250.183604 
L 127.002787 250.040191 
L 127.48501 250.040191 
L 127.48501 249.609952 
L 127.954256 249.609952 
L 127.954256 248.892888 
L 128.107907 248.892888 
L 128.107907 248.606062 
L 133.352844 248.606062 
L 133.352844 248.462649 
L 133.46572 248.462649 
L 133.46572 248.03241 
L 133.57787 248.03241 
L 133.57787 247.315345 
L 133.689303 247.315345 
L 133.800029 246.598281 
L 133.910056 246.598281 
L 134.019394 245.450977 
L 134.236034 245.450977 
L 134.236034 244.877326 
L 134.450015 244.877326 
L 134.450015 244.447087 
L 137.997836 244.447087 
L 137.997836 244.303674 
L 138.341479 244.303674 
L 138.426341 243.730022 
L 138.594838 243.730022 
L 138.67848 242.582719 
L 138.84457 242.582719 
L 138.84457 242.295893 
L 139.009092 242.295893 
L 139.090775 241.722241 
L 139.333553 241.722241 
L 139.413734 241.435415 
L 139.572998 241.435415 
L 139.572998 240.861764 
L 139.730821 240.861764 
L 139.730821 240.718351 
L 139.964909 240.718351 
L 139.964909 240.574938 
L 140.272217 240.574938 
L 140.272217 240.431525 
L 140.423864 240.431525 
L 140.499195 239.71446 
L 140.574203 239.71446 
L 140.64889 239.427634 
L 141.941279 239.427634 
L 142.010346 237.563266 
L 142.07914 237.563266 
L 142.07914 237.419853 
L 142.283909 237.419853 
L 142.283909 237.27644 
L 142.553247 237.27644 
L 142.553247 236.846202 
L 145.384119 236.846202 
L 145.384119 236.702789 
L 147.86833 236.702789 
L 147.96658 235.842311 
L 148.064279 235.842311 
L 148.064279 235.698898 
L 148.209809 235.698898 
L 148.209809 235.555485 
L 148.354135 235.555485 
L 148.354135 235.412072 
L 150.042389 235.412072 
L 150.042389 235.125246 
L 150.172372 235.125246 
L 150.215485 234.695008 
L 150.344189 234.695008 
L 150.38688 233.691117 
L 150.682827 233.691117 
L 150.682827 233.547704 
L 150.932558 233.547704 
L 150.932558 233.404291 
L 151.340991 233.404291 
L 151.340991 233.117465 
L 152.130233 233.117465 
L 152.207228 231.970162 
L 154.337936 231.970162 
L 154.337936 231.683336 
L 155.678822 231.683336 
L 155.741666 230.966271 
L 155.804285 230.966271 
L 155.804285 230.822858 
L 155.928852 230.822858 
L 155.928852 230.679446 
L 157.214591 230.679446 
L 157.300853 230.105794 
L 157.329512 230.105794 
L 157.38669 229.388729 
L 157.94839 229.388729 
L 157.94839 229.245316 
L 158.51933 229.245316 
L 158.51933 228.098013 
L 161.100288 228.098013 
L 161.146363 227.524361 
L 162.173813 227.524361 
L 162.260361 226.807296 
L 162.324991 226.807296 
L 162.324991 226.663884 
L 162.559939 226.663884 
L 162.559939 226.520471 
L 162.770815 226.520471 
L 162.770815 226.377058 
L 163.185069 226.377058 
L 163.185069 226.090232 
L 165.157053 226.090232 
L 165.193576 225.659993 
L 166.117256 225.659993 
L 166.117256 225.229754 
L 166.862349 225.229754 
L 166.862349 224.799515 
L 167.010909 224.799515 
L 167.010909 224.656103 
L 167.84533 224.656103 
L 167.84533 224.51269 
L 168.476198 224.51269 
L 168.536542 223.508799 
L 169.230367 223.508799 
L 169.27373 222.935147 
L 169.474679 222.935147 
L 169.474679 222.791734 
L 169.897641 222.791734 
L 169.939378 222.218083 
L 170.022555 222.218083 
L 170.022555 222.07467 
L 170.727268 222.07467 
L 170.727268 221.931257 
L 171.263501 221.931257 
L 171.302098 221.357605 
L 171.945501 221.357605 
L 172.019658 221.070779 
L 172.482136 221.070779 
L 172.482136 220.783953 
L 173.199806 220.783953 
L 173.199806 220.64054 
L 173.688525 220.64054 
L 173.688525 220.353715 
L 174.520166 220.353715 
L 174.520166 220.210302 
L 174.732584 220.210302 
L 174.732584 219.780063 
L 175.797284 219.780063 
L 175.797284 219.493237 
L 176.30621 219.493237 
L 176.30621 219.349824 
L 176.725536 219.349824 
L 176.725536 218.919585 
L 177.678338 218.919585 
L 177.678338 218.489347 
L 178.513913 218.489347 
L 178.513913 217.915695 
L 179.024776 217.915695 
L 179.024776 217.772282 
L 179.376106 217.772282 
L 179.376106 217.485456 
L 179.791727 217.485456 
L 179.791727 217.342043 
L 180.135832 217.342043 
L 180.135832 217.055217 
L 180.923155 217.055217 
L 180.923155 216.768391 
L 181.619658 216.768391 
L 181.619658 216.19474 
L 182.344078 216.19474 
L 182.344078 216.051327 
L 182.987073 216.051327 
L 182.987073 215.764501 
L 183.657898 215.764501 
L 183.657898 215.477675 
L 183.983875 215.477675 
L 183.983875 215.334262 
L 184.255021 215.334262 
L 184.255021 215.190849 
L 184.879635 215.190849 
L 184.879635 214.76061 
L 186.021357 214.76061 
L 186.032405 214.473785 
L 186.543922 214.473785 
L 186.543922 214.186959 
L 187.092903 214.186959 
L 187.092903 214.043546 
L 187.58476 214.043546 
L 187.58476 213.75672 
L 188.102403 213.75672 
L 188.102403 213.469894 
L 188.355574 213.469894 
L 188.355574 213.326481 
L 188.566961 213.326481 
L 188.566961 212.896242 
L 189.056649 212.896242 
L 189.056649 212.752829 
L 189.296432 212.752829 
L 189.296432 212.609416 
L 189.961379 212.609416 
L 189.961379 212.466003 
L 190.379524 212.466003 
L 190.379524 212.179178 
L 190.821479 212.179178 
L 190.821479 212.035765 
L 191.219729 212.035765 
L 191.219729 211.605526 
L 191.468138 211.605526 
L 191.468138 211.462113 
L 191.848094 211.462113 
L 191.848094 211.175287 
L 192.424009 211.175287 
L 192.424009 211.031874 
L 192.621925 211.031874 
L 192.621925 210.888461 
L 192.787656 210.888461 
L 192.787656 210.745048 
L 193.362872 210.745048 
L 193.362872 210.601635 
L 194.073618 210.601635 
L 194.073618 210.458222 
L 194.226169 210.458222 
L 194.226169 210.31481 
L 194.581527 210.31481 
L 194.581527 210.027984 
L 195.74905 210.027984 
L 195.74905 209.884571 
L 195.884544 209.884571 
L 195.884544 209.741158 
L 196.183297 209.741158 
L 196.183297 209.597745 
L 196.501273 209.597745 
L 196.501273 209.454332 
L 197.375783 209.454332 
L 197.375783 209.310919 
L 199.803607 209.310919 
L 199.803607 209.167506 
L 199.93349 209.167506 
L 199.93349 209.024093 
L 200.530349 209.024093 
L 200.530349 208.88068 
L 202.146082 208.88068 
L 202.146082 208.737267 
L 202.259693 208.737267 
L 202.259693 208.593854 
L 203.41403 208.593854 
L 203.41403 208.450441 
L 204.210846 208.450441 
L 204.210846 208.307029 
L 204.596005 208.307029 
L 204.596005 208.163616 
L 205.98134 208.163616 
L 205.98134 208.020203 
L 209.096861 208.020203 
L 209.186387 207.733377 
L 209.823122 207.733377 
L 209.823122 207.589964 
L 213.897668 207.589964 
L 213.897668 207.446551 
L 217.517073 207.446551 
L 217.517073 207.303138 
L 217.9156 207.303138 
L 217.9156 207.159725 
L 338.688 207.159725 
L 338.688 207.159725 
" style="fill:none;stroke:#00bfbf;stroke-linecap:square;stroke-width:1.5;"/>
   </g>
   <g id="line2d_31">
    <defs>
     <path d="M -6 0 
L 6 0 
M 0 6 
L 0 -6 
" id="m687627bbb3" style="stroke:#00bfbf;stroke-width:1.5;"/>
    </defs>
    <g>
     <use style="fill-opacity:0;stroke:#00bfbf;stroke-width:1.5;" x="114.751048" xlink:href="#m687627bbb3" y="253.051863"/>
     <use style="fill-opacity:0;stroke:#00bfbf;stroke-width:1.5;" x="154.337936" xlink:href="#m687627bbb3" y="231.970162"/>
     <use style="fill-opacity:0;stroke:#00bfbf;stroke-width:1.5;" x="209.823122" xlink:href="#m687627bbb3" y="207.589964"/>
     <use style="fill-opacity:0;stroke:#00bfbf;stroke-width:1.5;" x="217.9156" xlink:href="#m687627bbb3" y="207.159725"/>
     <use style="fill-opacity:0;stroke:#00bfbf;stroke-width:1.5;" x="217.9156" xlink:href="#m687627bbb3" y="207.159725"/>
     <use style="fill-opacity:0;stroke:#00bfbf;stroke-width:1.5;" x="338.688" xlink:href="#m687627bbb3" y="207.159725"/>
    </g>
   </g>
   <g id="line2d_32">
    <path style="fill:none;stroke:#00bfbf;stroke-linecap:square;stroke-width:1.5;"/>
    <g/>
   </g>
   <g id="line2d_33">
    <path clip-path="url(#p9baaf5ec1d)" d="M 137.910857 244.447087 
" style="fill:none;stroke:#00bfbf;stroke-linecap:square;stroke-width:1.5;"/>
    <defs>
     <path d="M -12 12 
L 12 -12 
M -12 -12 
L 12 12 
" id="m85220ac87d" style="stroke:#00bfbf;"/>
    </defs>
    <g clip-path="url(#p9baaf5ec1d)">
     <use style="fill:#00bfbf;stroke:#00bfbf;" x="137.910857" xlink:href="#m85220ac87d" y="244.447087"/>
    </g>
   </g>
   <g id="line2d_34">
    <defs>
     <path d="M 0 1.5 
C 0.397805 1.5 0.77937 1.341951 1.06066 1.06066 
C 1.341951 0.77937 1.5 0.397805 1.5 0 
C 1.5 -0.397805 1.341951 -0.77937 1.06066 -1.06066 
C 0.77937 -1.341951 0.397805 -1.5 0 -1.5 
C -0.397805 -1.5 -0.77937 -1.341951 -1.06066 -1.06066 
C -1.341951 -0.77937 -1.5 -0.397805 -1.5 0 
C -1.5 0.397805 -1.341951 0.77937 -1.06066 1.06066 
C -0.77937 1.341951 -0.397805 1.5 0 1.5 
z
" id="m7438803db5" style="stroke:#008000;"/>
    </defs>
    <g>
     <use style="fill:#008000;stroke:#008000;" x="208.380989" xlink:href="#m7438803db5" y="250.183604"/>
     <use style="fill:#008000;stroke:#008000;" x="208.380989" xlink:href="#m7438803db5" y="250.183604"/>
    </g>
   </g>
   <g id="line2d_35">
    <path d="M 38.440992 298.944 
L 38.440992 295.50209 
L 50.52898 295.50209 
L 50.52898 295.215264 
L 57.6 295.215264 
L 57.6 294.641612 
L 62.616969 294.641612 
L 62.616969 293.494309 
L 66.508432 293.494309 
L 66.508432 293.06407 
L 69.687988 293.06407 
L 69.687988 290.769463 
L 72.376266 290.769463 
L 72.376266 290.339224 
L 74.704957 290.339224 
L 74.704957 289.62216 
L 76.759008 289.62216 
L 76.759008 289.335334 
L 78.59642 289.335334 
L 78.59642 289.191921 
L 80.258561 289.191921 
L 80.258561 288.618269 
L 81.775977 288.618269 
L 81.775977 288.474856 
L 84.464254 288.474856 
L 84.464254 288.044617 
L 85.66744 288.044617 
L 85.66744 287.757791 
L 86.792945 287.757791 
L 86.792945 287.614379 
L 87.850195 287.614379 
L 87.850195 287.470966 
L 89.78989 287.470966 
L 89.78989 287.040727 
L 90.684409 287.040727 
L 90.684409 286.753901 
L 93.863965 286.753901 
L 93.863965 286.467075 
L 94.575872 286.467075 
L 94.575872 286.323662 
L 95.918017 286.323662 
L 95.918017 286.180249 
L 96.552242 286.180249 
L 96.552242 285.893423 
L 97.755429 285.893423 
L 97.755429 285.75001 
L 99.41757 285.75001 
L 99.41757 285.606598 
L 100.443706 285.606598 
L 100.443706 285.463185 
L 100.934985 285.463185 
L 100.934985 284.889533 
L 101.877879 284.889533 
L 101.877879 284.602707 
L 103.623262 284.602707 
L 103.623262 284.315881 
L 107.680028 284.315881 
L 107.680028 284.172468 
L 108.326001 284.172468 
L 108.326001 283.742229 
L 108.948899 283.742229 
L 108.948899 283.455404 
L 109.550313 283.455404 
L 109.550313 283.025165 
L 109.843417 283.025165 
L 109.843417 282.738339 
L 110.131676 282.738339 
L 110.131676 282.451513 
L 119.267333 282.451513 
L 119.267333 282.3081 
L 119.602714 282.3081 
L 119.602714 282.164687 
L 119.931767 282.164687 
L 119.931767 282.021274 
L 120.254726 282.021274 
L 120.254726 281.30421 
L 120.883236 281.30421 
L 120.883236 281.017384 
L 126.168212 281.017384 
L 126.168212 280.873971 
L 126.281824 280.873971 
L 126.281824 280.730558 
L 126.50685 280.730558 
L 126.50685 280.443732 
L 126.729009 280.443732 
L 126.729009 279.726667 
L 127.165014 279.726667 
L 127.272333 279.439842 
L 131.099484 279.439842 
L 131.099484 279.296429 
L 131.270459 279.296429 
L 131.355321 278.86619 
L 131.523818 278.86619 
L 131.523818 278.435951 
L 131.938072 278.435951 
L 131.938072 278.149125 
L 135.00812 278.149125 
L 135.076644 277.288648 
L 135.144899 277.288648 
L 135.144899 276.42817 
L 135.615352 276.42817 
L 135.615352 275.567692 
L 137.968891 275.567692 
L 137.968891 274.850628 
L 138.141844 274.850628 
L 138.199116 274.563802 
L 138.256201 274.563802 
L 138.313099 274.133563 
L 138.706272 274.133563 
L 138.706272 273.99015 
L 138.981779 273.99015 
L 139.036363 273.559911 
L 139.253002 273.559911 
L 139.253002 273.273086 
L 139.466984 273.273086 
L 139.572998 272.98626 
L 139.835248 272.98626 
L 139.887228 272.269195 
L 141.041904 272.269195 
L 141.138789 271.695543 
L 141.187031 271.695543 
L 141.187031 271.55213 
L 143.31586 271.55213 
L 143.31586 271.408718 
L 143.485587 271.408718 
L 143.485587 271.265305 
L 145.212864 271.265305 
L 145.212864 271.121892 
L 145.365173 271.121892 
L 145.365173 270.978479 
L 147.027314 270.978479 
L 147.096109 270.54824 
L 148.607802 270.54824 
L 148.670646 269.687762 
L 148.888835 269.687762 
L 148.888835 269.400937 
L 150.027887 269.400937 
L 150.027887 269.114111 
L 150.143571 269.114111 
L 150.201126 267.966807 
L 150.51433 267.966807 
L 150.542526 267.536568 
L 150.710752 267.536568 
L 150.710752 267.249743 
L 151.015013 267.249743 
L 151.015013 267.10633 
L 151.634543 267.10633 
L 151.713753 266.389265 
L 152.860649 266.389265 
L 152.909913 266.102439 
L 153.959927 266.102439 
L 153.959927 265.959026 
L 155.102793 265.959026 
L 155.189341 264.955136 
L 156.337763 264.955136 
L 156.337763 264.66831 
L 157.089232 264.66831 
L 157.185742 263.951245 
L 157.339055 263.951245 
L 157.434196 263.521006 
L 157.453162 263.521006 
L 157.453162 263.234181 
L 157.641697 263.234181 
L 157.641697 263.090768 
L 157.753847 263.090768 
L 157.753847 262.947355 
L 158.177196 262.947355 
L 158.177196 262.803942 
L 159.028927 262.803942 
L 159.063529 262.373703 
L 159.807898 262.373703 
L 159.807898 262.23029 
L 159.923445 262.23029 
L 159.923445 262.086877 
L 160.664283 262.086877 
L 160.69579 261.656638 
L 161.435376 261.656638 
L 161.435376 261.513225 
L 162.173813 261.513225 
L 162.20271 260.939574 
L 162.289115 260.939574 
L 162.289115 260.796161 
L 162.489076 260.796161 
L 162.489076 260.652748 
L 162.602318 260.652748 
L 162.602318 260.222509 
L 162.965359 260.222509 
L 162.965359 260.079096 
L 163.576373 260.079096 
L 163.576373 259.935683 
L 164.849691 259.935683 
L 164.9363 259.648857 
L 165.542734 259.648857 
L 165.542734 259.505444 
L 166.02474 259.505444 
L 166.059491 258.931793 
L 166.391896 258.931793 
L 166.391896 258.78838 
L 167.201624 258.78838 
L 167.201624 258.644967 
L 167.682664 258.644967 
L 167.682664 258.501554 
L 168.795644 258.501554 
L 168.795644 258.071315 
L 169.215888 258.071315 
L 169.23519 257.784489 
L 169.340971 257.784489 
L 169.340971 257.641076 
L 169.503198 257.641076 
L 169.503198 257.35425 
L 169.739058 257.35425 
L 169.739058 257.210838 
L 171.047505 257.210838 
L 171.108254 256.924012 
L 171.879317 256.924012 
L 171.879317 256.780599 
L 172.728604 256.780599 
L 172.728604 256.637186 
L 174.203864 256.637186 
L 174.203864 256.493773 
L 174.434469 256.493773 
L 174.434469 256.35036 
L 174.949398 256.35036 
L 174.949398 256.206947 
L 175.252577 256.206947 
L 175.252577 255.920121 
L 175.916053 255.920121 
L 175.916053 255.776708 
L 176.267585 255.776708 
L 176.267585 255.489882 
L 176.459861 255.489882 
L 176.459861 255.346469 
L 176.618488 255.346469 
L 176.618488 255.203056 
L 177.511111 255.203056 
L 177.511111 255.059644 
L 177.849864 255.059644 
L 177.849864 254.916231 
L 178.095327 254.916231 
L 178.095327 254.772818 
L 178.688673 254.772818 
L 178.688673 254.629405 
L 179.224459 254.629405 
L 179.235335 254.342579 
L 179.531791 254.342579 
L 179.531791 253.91234 
L 179.917643 253.91234 
L 179.917643 253.768927 
L 180.047846 253.768927 
L 180.047846 253.482101 
L 180.784433 253.482101 
L 180.784433 253.338688 
L 181.419369 253.338688 
L 181.419369 253.195275 
L 182.225412 253.195275 
L 182.225412 253.051863 
L 182.47549 253.051863 
L 182.47549 252.90845 
L 182.664074 252.90845 
L 182.668539 252.621624 
L 182.801969 252.621624 
L 182.801969 252.478211 
L 185.160543 252.478211 
L 185.160543 252.334798 
L 186.127863 252.334798 
L 186.127863 252.191385 
L 186.284597 252.191385 
L 186.284597 252.047972 
L 188.432739 252.047972 
L 188.432739 251.904559 
L 189.369552 251.904559 
L 189.369552 251.761146 
L 190.468244 251.761146 
L 190.468244 251.617733 
L 191.304286 251.617733 
L 191.304286 251.47432 
L 191.91128 251.47432 
L 191.91128 251.330907 
L 194.297364 251.330907 
L 194.297364 251.187494 
L 195.465219 251.187494 
L 195.465219 251.044082 
L 195.825854 251.044082 
L 195.825854 250.900669 
L 196.85121 250.900669 
L 196.85121 250.757256 
L 199.344674 250.757256 
L 199.344674 250.613843 
L 201.402729 250.613843 
L 201.402729 250.47043 
L 205.465363 250.47043 
L 205.465363 250.327017 
L 208.380989 250.327017 
L 208.380989 250.183604 
L 338.688 250.183604 
L 338.688 250.183604 
" style="fill:none;stroke:#008000;stroke-linecap:square;stroke-width:1.5;"/>
   </g>
   <g id="line2d_36">
    <defs>
     <path d="M -0 6 
L 6 -6 
L -6 -6 
z
" id="m4800474550" style="stroke:#008000;stroke-linejoin:miter;stroke-width:1.5;"/>
    </defs>
    <g>
     <use style="fill-opacity:0;stroke:#008000;stroke-linejoin:miter;stroke-width:1.5;" x="110.131676" xlink:href="#m4800474550" y="282.738339"/>
     <use style="fill-opacity:0;stroke:#008000;stroke-linejoin:miter;stroke-width:1.5;" x="162.965359" xlink:href="#m4800474550" y="260.222509"/>
     <use style="fill-opacity:0;stroke:#008000;stroke-linejoin:miter;stroke-width:1.5;" x="208.380989" xlink:href="#m4800474550" y="250.327017"/>
     <use style="fill-opacity:0;stroke:#008000;stroke-linejoin:miter;stroke-width:1.5;" x="208.380989" xlink:href="#m4800474550" y="250.183604"/>
     <use style="fill-opacity:0;stroke:#008000;stroke-linejoin:miter;stroke-width:1.5;" x="208.380989" xlink:href="#m4800474550" y="250.183604"/>
     <use style="fill-opacity:0;stroke:#008000;stroke-linejoin:miter;stroke-width:1.5;" x="338.688" xlink:href="#m4800474550" y="250.183604"/>
    </g>
   </g>
   <g id="line2d_37">
    <path style="fill:none;stroke:#008000;stroke-linecap:square;stroke-width:1.5;"/>
    <g/>
   </g>
   <g id="line2d_38">
    <path clip-path="url(#p9baaf5ec1d)" d="M 137.910857 275.567692 
" style="fill:none;stroke:#008000;stroke-linecap:square;stroke-width:1.5;"/>
    <defs>
     <path d="M -12 12 
L 12 -12 
M -12 -12 
L 12 12 
" id="m294b1262ff" style="stroke:#008000;"/>
    </defs>
    <g clip-path="url(#p9baaf5ec1d)">
     <use style="fill:#008000;stroke:#008000;" x="137.910857" xlink:href="#m294b1262ff" y="275.567692"/>
    </g>
   </g>
   <g id="line2d_39">
    <defs>
     <path d="M 0 1.5 
C 0.397805 1.5 0.77937 1.341951 1.06066 1.06066 
C 1.341951 0.77937 1.5 0.397805 1.5 0 
C 1.5 -0.397805 1.341951 -0.77937 1.06066 -1.06066 
C 0.77937 -1.341951 0.397805 -1.5 0 -1.5 
C -0.397805 -1.5 -0.77937 -1.341951 -1.06066 -1.06066 
C -1.341951 -0.77937 -1.5 -0.397805 -1.5 0 
C -1.5 0.397805 -1.341951 0.77937 -1.06066 1.06066 
C -0.77937 1.341951 -0.397805 1.5 0 1.5 
z
" id="m1b01e0ac5d" style="stroke:#0000ff;"/>
    </defs>
    <g>
     <use style="fill:#0000ff;stroke:#0000ff;" x="206.212374" xlink:href="#m1b01e0ac5d" y="275.997931"/>
     <use style="fill:#0000ff;stroke:#0000ff;" x="206.212374" xlink:href="#m1b01e0ac5d" y="275.997931"/>
    </g>
   </g>
   <g id="line2d_40">
    <path d="M 29.53256 298.944 
L 29.53256 298.226935 
L 41.620548 298.226935 
L 41.620548 298.083522 
L 53.708537 298.083522 
L 53.708537 297.940109 
L 60.779557 297.940109 
L 60.779557 297.366458 
L 63.467834 297.366458 
L 63.467834 296.649393 
L 67.850577 296.649393 
L 67.850577 296.362567 
L 71.35013 296.362567 
L 71.35013 296.219154 
L 77.884514 296.219154 
L 77.884514 296.075741 
L 81.775977 296.075741 
L 81.775977 295.932328 
L 84.955534 295.932328 
L 84.955534 295.645503 
L 89.972502 295.645503 
L 89.972502 295.358677 
L 90.509138 295.358677 
L 90.509138 295.215264 
L 92.969447 295.215264 
L 92.969447 295.071851 
L 96.676366 295.071851 
L 96.676366 294.928438 
L 97.755429 294.928438 
L 97.755429 294.785025 
L 98.43941 294.785025 
L 98.43941 294.498199 
L 98.771596 294.498199 
L 98.771596 294.211373 
L 100.343767 294.211373 
L 100.343767 294.06796 
L 100.641881 294.06796 
L 100.641881 293.924547 
L 111.185562 293.924547 
L 111.185562 293.781135 
L 111.663381 293.781135 
L 111.663381 293.637722 
L 111.819788 293.637722 
L 111.819788 293.350896 
L 111.974805 293.350896 
L 111.974805 292.920657 
L 117.709852 292.920657 
L 117.709852 292.633831 
L 117.930605 292.633831 
L 117.930605 292.490418 
L 122.531342 292.490418 
L 122.531342 292.060179 
L 122.782271 292.060179 
L 122.865118 291.486528 
L 126.168212 291.486528 
L 126.168212 291.343115 
L 126.50685 291.343115 
L 126.50685 291.199702 
L 129.79784 291.199702 
L 129.79784 291.056289 
L 132.036046 291.056289 
L 132.036046 290.912876 
L 134.407429 290.912876 
L 134.407429 290.769463 
L 134.61933 290.769463 
L 134.61933 290.62605 
L 136.607732 290.62605 
L 136.607732 290.482637 
L 137.945701 290.482637 
L 137.945701 290.195811 
L 138.118883 290.195811 
L 138.221972 289.62216 
L 138.290362 289.62216 
L 138.290362 289.478747 
L 139.02546 289.478747 
L 139.02546 289.335334 
L 139.667863 289.335334 
L 139.667863 289.048508 
L 143.952218 289.048508 
L 144.050606 288.18803 
L 145.212864 288.18803 
L 145.212864 288.044617 
L 146.40993 288.044617 
L 146.40993 287.901204 
L 147.246507 287.901204 
L 147.307662 287.614379 
L 148.334961 287.614379 
L 148.430623 287.327553 
L 149.232356 287.327553 
L 149.232356 287.040727 
L 150.016276 287.040727 
L 150.016276 286.897314 
L 150.155097 286.897314 
L 150.155097 286.753901 
L 151.834513 286.753901 
L 151.865879 286.467075 
L 152.542024 286.467075 
L 152.542024 286.323662 
L 153.323128 286.323662 
L 153.323128 286.180249 
L 155.28405 286.180249 
L 155.28405 286.036836 
L 157.15106 286.036836 
L 157.174189 285.463185 
L 157.742664 285.463185 
L 157.742664 285.319772 
L 158.805835 285.319772 
L 158.826871 284.889533 
L 159.354904 284.889533 
L 159.3651 284.602707 
L 160.793103 284.602707 
L 160.793103 284.459294 
L 162.095552 284.459294 
L 162.095552 284.172468 
L 162.29486 284.172468 
L 162.346481 283.885642 
L 162.517456 283.885642 
L 162.517456 283.742229 
L 163.045324 283.742229 
L 163.045324 283.598817 
L 163.820172 283.598817 
L 163.828065 283.168578 
L 165.367825 283.168578 
L 165.367825 282.881752 
L 166.027059 282.881752 
L 166.027059 282.738339 
L 166.749257 282.738339 
L 166.749257 282.594926 
L 167.365597 282.594926 
L 167.365597 282.451513 
L 168.31222 282.451513 
L 168.31222 282.3081 
L 169.802665 282.3081 
L 169.802665 282.164687 
L 170.04743 282.164687 
L 170.04743 282.021274 
L 170.343204 282.021274 
L 170.343204 281.877861 
L 171.118647 281.877861 
L 171.118647 281.734448 
L 171.880975 281.734448 
L 171.900854 281.447623 
L 172.866999 281.447623 
L 172.866999 281.30421 
L 175.067161 281.30421 
L 175.071303 281.017384 
L 175.892364 281.017384 
L 175.892364 280.873971 
L 176.255981 280.873971 
L 176.263718 280.443732 
L 176.661386 280.443732 
L 176.661386 280.156906 
L 177.76372 280.156906 
L 177.76372 280.013493 
L 178.090684 280.013493 
L 178.090684 279.87008 
L 178.605458 279.87008 
L 178.605458 279.726667 
L 178.787119 279.726667 
L 178.787119 279.439842 
L 179.750608 279.439842 
L 179.75694 279.153016 
L 180.381893 279.153016 
L 180.384947 278.722777 
L 183.188444 278.722777 
L 183.188444 278.579364 
L 183.95155 278.579364 
L 183.95155 278.435951 
L 184.447185 278.435951 
L 184.449604 278.005712 
L 185.153575 278.005712 
L 185.153575 277.862299 
L 186.278064 277.862299 
L 186.278064 277.718886 
L 186.708313 277.718886 
L 186.708313 277.575474 
L 189.272601 277.575474 
L 189.272601 277.432061 
L 191.016762 277.432061 
L 191.016762 277.288648 
L 191.352111 277.288648 
L 191.352111 277.145235 
L 192.602234 277.145235 
L 192.602234 277.001822 
L 192.762145 277.001822 
L 192.762145 276.858409 
L 193.344001 276.858409 
L 193.344001 276.714996 
L 195.658344 276.714996 
L 195.658344 276.571583 
L 198.473532 276.571583 
L 198.473532 276.42817 
L 200.122582 276.42817 
L 200.122582 276.284757 
L 203.670584 276.284757 
L 203.670584 276.141344 
L 206.212374 276.141344 
L 206.212374 275.997931 
L 338.688 275.997931 
L 338.688 275.997931 
" style="fill:none;stroke:#0000ff;stroke-linecap:square;stroke-width:1.5;"/>
   </g>
   <g id="line2d_41">
    <defs>
     <path d="M 0 -6 
L -1.347084 -1.854102 
L -5.706339 -1.854102 
L -2.179628 0.708204 
L -3.526712 4.854102 
L -0 2.291796 
L 3.526712 4.854102 
L 2.179628 0.708204 
L 5.706339 -1.854102 
L 1.347084 -1.854102 
z
" id="me9f0efccfb" style="stroke:#0000ff;stroke-linejoin:bevel;stroke-width:1.5;"/>
    </defs>
    <g>
     <use style="fill-opacity:0;stroke:#0000ff;stroke-linejoin:bevel;stroke-width:1.5;" x="111.974805" xlink:href="#me9f0efccfb" y="293.350896"/>
     <use style="fill-opacity:0;stroke:#0000ff;stroke-linejoin:bevel;stroke-width:1.5;" x="180.384947" xlink:href="#me9f0efccfb" y="278.722777"/>
     <use style="fill-opacity:0;stroke:#0000ff;stroke-linejoin:bevel;stroke-width:1.5;" x="206.212374" xlink:href="#me9f0efccfb" y="276.141344"/>
     <use style="fill-opacity:0;stroke:#0000ff;stroke-linejoin:bevel;stroke-width:1.5;" x="206.212374" xlink:href="#me9f0efccfb" y="275.997931"/>
     <use style="fill-opacity:0;stroke:#0000ff;stroke-linejoin:bevel;stroke-width:1.5;" x="206.212374" xlink:href="#me9f0efccfb" y="275.997931"/>
     <use style="fill-opacity:0;stroke:#0000ff;stroke-linejoin:bevel;stroke-width:1.5;" x="338.688" xlink:href="#me9f0efccfb" y="275.997931"/>
    </g>
   </g>
   <g id="line2d_42">
    <path style="fill:none;stroke:#0000ff;stroke-linecap:square;stroke-width:1.5;"/>
    <g/>
   </g>
   <g id="line2d_43">
    <path clip-path="url(#p9baaf5ec1d)" d="M 137.910857 290.482637 
" style="fill:none;stroke:#0000ff;stroke-linecap:square;stroke-width:1.5;"/>
    <defs>
     <path d="M -12 12 
L 12 -12 
M -12 -12 
L 12 12 
" id="m449ffd851d" style="stroke:#0000ff;"/>
    </defs>
    <g clip-path="url(#p9baaf5ec1d)">
     <use style="fill:#0000ff;stroke:#0000ff;" x="137.910857" xlink:href="#m449ffd851d" y="290.482637"/>
    </g>
   </g>
   <g id="line2d_44">
    <defs>
     <path d="M 0 1.5 
C 0.397805 1.5 0.77937 1.341951 1.06066 1.06066 
C 1.341951 0.77937 1.5 0.397805 1.5 0 
C 1.5 -0.397805 1.341951 -0.77937 1.06066 -1.06066 
C 0.77937 -1.341951 0.397805 -1.5 0 -1.5 
C -0.397805 -1.5 -0.77937 -1.341951 -1.06066 -1.06066 
C -1.341951 -0.77937 -1.5 -0.397805 -1.5 0 
C -1.5 0.397805 -1.341951 0.77937 -1.06066 1.06066 
C -0.77937 1.341951 -0.397805 1.5 0 1.5 
z
" id="mc50d882a4c" style="stroke:#000000;"/>
    </defs>
    <g>
     <use style="stroke:#000000;" x="184.006219" xlink:href="#mc50d882a4c" y="296.075741"/>
     <use style="stroke:#000000;" x="184.006219" xlink:href="#mc50d882a4c" y="296.075741"/>
    </g>
   </g>
   <g id="line2d_45">
    <path d="M 45.512012 298.944 
L 45.512012 298.800587 
L 88.255778 298.800587 
L 88.255778 298.657174 
L 133.147807 298.657174 
L 133.147807 298.513761 
L 138.89409 298.513761 
L 138.89409 298.226935 
L 147.779429 298.226935 
L 147.779429 298.083522 
L 157.403807 298.083522 
L 157.403807 297.940109 
L 165.124118 297.940109 
L 165.124118 297.796697 
L 166.179429 297.796697 
L 166.179429 297.653284 
L 168.448975 297.653284 
L 168.448975 297.509871 
L 171.240302 297.509871 
L 171.240302 297.223045 
L 171.858583 297.223045 
L 171.858583 297.079632 
L 172.223198 297.079632 
L 172.223198 296.936219 
L 176.3409 296.936219 
L 176.3409 296.649393 
L 176.52285 296.649393 
L 176.52285 296.50598 
L 178.167141 296.50598 
L 178.167141 296.362567 
L 179.820138 296.362567 
L 179.820138 296.219154 
L 184.006219 296.219154 
L 184.006219 296.075741 
L 338.688 296.075741 
" style="fill:none;stroke:#000000;stroke-linecap:square;stroke-width:1.5;"/>
   </g>
   <g id="line2d_46">
    <defs>
     <path d="M 0 6 
C 1.591219 6 3.117479 5.367802 4.242641 4.242641 
C 5.367802 3.117479 6 1.591219 6 0 
C 6 -1.591219 5.367802 -3.117479 4.242641 -4.242641 
C 3.117479 -5.367802 1.591219 -6 0 -6 
C -1.591219 -6 -3.117479 -5.367802 -4.242641 -4.242641 
C -5.367802 -3.117479 -6 -1.591219 -6 0 
C -6 1.591219 -5.367802 3.117479 -4.242641 4.242641 
C -3.117479 5.367802 -1.591219 6 0 6 
z
" id="mf92284f698" style="stroke:#000000;stroke-width:1.5;"/>
    </defs>
    <g>
     <use style="fill-opacity:0;stroke:#000000;stroke-width:1.5;" x="88.255778" xlink:href="#mf92284f698" y="298.800587"/>
     <use style="fill-opacity:0;stroke:#000000;stroke-width:1.5;" x="172.223198" xlink:href="#mf92284f698" y="297.079632"/>
     <use style="fill-opacity:0;stroke:#000000;stroke-width:1.5;" x="184.006219" xlink:href="#mf92284f698" y="296.219154"/>
     <use style="fill-opacity:0;stroke:#000000;stroke-width:1.5;" x="184.006219" xlink:href="#mf92284f698" y="296.075741"/>
     <use style="fill-opacity:0;stroke:#000000;stroke-width:1.5;" x="184.006219" xlink:href="#mf92284f698" y="296.075741"/>
     <use style="fill-opacity:0;stroke:#000000;stroke-width:1.5;" x="338.688" xlink:href="#mf92284f698" y="296.075741"/>
    </g>
   </g>
   <g id="line2d_47">
    <path style="fill:none;stroke:#000000;stroke-linecap:square;stroke-width:1.5;"/>
    <g/>
   </g>
   <g id="line2d_48">
    <path clip-path="url(#p9baaf5ec1d)" d="M 137.910857 298.513761 
" style="fill:none;stroke:#000000;stroke-linecap:square;stroke-width:1.5;"/>
    <defs>
     <path d="M -12 12 
L 12 -12 
M -12 -12 
L 12 12 
" id="m874cecf876" style="stroke:#000000;"/>
    </defs>
    <g clip-path="url(#p9baaf5ec1d)">
     <use style="stroke:#000000;" x="137.910857" xlink:href="#m874cecf876" y="298.513761"/>
    </g>
   </g>
   <g id="line2d_49">
    <path clip-path="url(#p9baaf5ec1d)" d="M 57.6 298.944 
L 57.6 298.944 
L 57.6 298.944 
L 57.6 298.944 
L 338.688 298.944 
" style="fill:none;stroke:#ff0000;stroke-linecap:square;stroke-width:1.5;"/>
   </g>
   <g id="line2d_50">
    <defs>
     <path d="M -6 6 
L 6 6 
L 6 -6 
L -6 -6 
z
" id="mab1ce11213" style="stroke:#ff0000;stroke-linejoin:miter;stroke-width:1.5;"/>
    </defs>
    <g clip-path="url(#p9baaf5ec1d)">
     <use style="fill-opacity:0;stroke:#ff0000;stroke-linejoin:miter;stroke-width:1.5;" x="57.6" xlink:href="#mab1ce11213" y="298.944"/>
    </g>
   </g>
   <g id="line2d_51">
    <path clip-path="url(#p9baaf5ec1d)" style="fill:none;stroke:#ff0000;stroke-linecap:square;stroke-width:1.5;"/>
    <g clip-path="url(#p9baaf5ec1d)">
     <use style="fill-opacity:0;stroke:#ff0000;stroke-linejoin:miter;stroke-width:1.5;" x="-1" xlink:href="#mab1ce11213" y="591.506376"/>
     <use style="fill-opacity:0;stroke:#ff0000;stroke-linejoin:miter;stroke-width:1.5;" x="338.688" xlink:href="#mab1ce11213" y="591.506376"/>
    </g>
   </g>
   <g id="line2d_52">
    <path clip-path="url(#p9baaf5ec1d)" d="M 57.6 298.944 
L 57.6 298.944 
L 57.6 298.944 
L 57.6 298.944 
L 338.688 298.944 
" style="fill:none;stroke:#bf00bf;stroke-linecap:square;stroke-width:1.5;"/>
   </g>
   <g id="line2d_53">
    <defs>
     <path d="M -0 8.485281 
L 8.485281 0 
L 0 -8.485281 
L -8.485281 -0 
z
" id="m470fd42c84" style="stroke:#bf00bf;stroke-linejoin:miter;stroke-width:1.5;"/>
    </defs>
    <g clip-path="url(#p9baaf5ec1d)">
     <use style="fill-opacity:0;stroke:#bf00bf;stroke-linejoin:miter;stroke-width:1.5;" x="57.6" xlink:href="#m470fd42c84" y="298.944"/>
    </g>
   </g>
   <g id="line2d_54">
    <path clip-path="url(#p9baaf5ec1d)" style="fill:none;stroke:#bf00bf;stroke-linecap:square;stroke-width:1.5;"/>
    <g clip-path="url(#p9baaf5ec1d)">
     <use style="fill-opacity:0;stroke:#bf00bf;stroke-linejoin:miter;stroke-width:1.5;" x="-1" xlink:href="#m470fd42c84" y="591.506376"/>
     <use style="fill-opacity:0;stroke:#bf00bf;stroke-linejoin:miter;stroke-width:1.5;" x="338.688" xlink:href="#m470fd42c84" y="591.506376"/>
    </g>
   </g>
   <g id="line2d_55">
    <path d="M 338.688 298.944 
L 369.60768 293.092752 
" style="fill:none;stroke:#bf00bf;stroke-linecap:square;stroke-width:1.5;"/>
    <g>
     <use style="fill-opacity:0;stroke:#bf00bf;stroke-linejoin:miter;stroke-width:1.5;" x="338.688" xlink:href="#m470fd42c84" y="298.944"/>
     <use style="fill-opacity:0;stroke:#bf00bf;stroke-linejoin:miter;stroke-width:1.5;" x="369.60768" xlink:href="#m470fd42c84" y="293.092752"/>
    </g>
   </g>
   <g id="line2d_56">
    <path d="M 338.688 298.944 
L 369.60768 236.920776 
" style="fill:none;stroke:#ff0000;stroke-linecap:square;stroke-width:1.5;"/>
    <g>
     <use style="fill-opacity:0;stroke:#ff0000;stroke-linejoin:miter;stroke-width:1.5;" x="338.688" xlink:href="#mab1ce11213" y="298.944"/>
     <use style="fill-opacity:0;stroke:#ff0000;stroke-linejoin:miter;stroke-width:1.5;" x="369.60768" xlink:href="#mab1ce11213" y="236.920776"/>
    </g>
   </g>
   <g id="line2d_57">
    <path d="M 338.688 296.075741 
L 369.60768 180.7488 
" style="fill:none;stroke:#000000;stroke-linecap:square;stroke-width:1.5;"/>
    <g>
     <use style="fill-opacity:0;stroke:#000000;stroke-width:1.5;" x="338.688" xlink:href="#mf92284f698" y="296.075741"/>
     <use style="fill-opacity:0;stroke:#000000;stroke-width:1.5;" x="369.60768" xlink:href="#mf92284f698" y="180.7488"/>
    </g>
   </g>
   <g id="line2d_58">
    <path d="M 338.688 275.997931 
L 369.60768 124.576824 
" style="fill:none;stroke:#0000ff;stroke-linecap:square;stroke-width:1.5;"/>
    <g>
     <use style="fill-opacity:0;stroke:#0000ff;stroke-linejoin:bevel;stroke-width:1.5;" x="338.688" xlink:href="#me9f0efccfb" y="275.997931"/>
     <use style="fill-opacity:0;stroke:#0000ff;stroke-linejoin:bevel;stroke-width:1.5;" x="369.60768" xlink:href="#me9f0efccfb" y="124.576824"/>
    </g>
   </g>
   <g id="line2d_59">
    <path d="M 338.688 250.183604 
L 369.60768 68.404848 
" style="fill:none;stroke:#008000;stroke-linecap:square;stroke-width:1.5;"/>
    <g>
     <use style="fill-opacity:0;stroke:#008000;stroke-linejoin:miter;stroke-width:1.5;" x="338.688" xlink:href="#m4800474550" y="250.183604"/>
     <use style="fill-opacity:0;stroke:#008000;stroke-linejoin:miter;stroke-width:1.5;" x="369.60768" xlink:href="#m4800474550" y="68.404848"/>
    </g>
   </g>
   <g id="line2d_60">
    <path d="M 338.688 207.159725 
L 369.60768 12.232871 
" style="fill:none;stroke:#00bfbf;stroke-linecap:square;stroke-width:1.5;"/>
    <g>
     <use style="fill-opacity:0;stroke:#00bfbf;stroke-width:1.5;" x="338.688" xlink:href="#m687627bbb3" y="207.159725"/>
     <use style="fill-opacity:0;stroke:#00bfbf;stroke-width:1.5;" x="369.60768" xlink:href="#m687627bbb3" y="12.232871"/>
    </g>
   </g>
   <g id="line2d_61">
    <path d="M 338.688 298.944 
L 338.688 6.381624 
" style="fill:none;stroke:#000000;stroke-linecap:square;stroke-width:1.5;"/>
   </g>
   <g id="patch_3">
    <path d="M 57.6 298.944 
L 57.6 3.456 
" style="fill:none;stroke:#000000;stroke-linecap:square;stroke-linejoin:miter;stroke-width:0.8;"/>
   </g>
   <g id="patch_4">
    <path d="M 338.688 298.944 
L 338.688 3.456 
" style="fill:none;stroke:#000000;stroke-linecap:square;stroke-linejoin:miter;stroke-width:0.8;"/>
   </g>
   <g id="patch_5">
    <path d="M 57.6 298.944 
L 338.688 298.944 
" style="fill:none;stroke:#000000;stroke-linecap:square;stroke-linejoin:miter;stroke-width:0.8;"/>
   </g>
   <g id="patch_6">
    <path d="M 57.6 3.456 
L 338.688 3.456 
" style="fill:none;stroke:#000000;stroke-linecap:square;stroke-linejoin:miter;stroke-width:0.8;"/>
   </g>
   <g id="text_13">
    <!-- 40-D -->
    <defs>
     <path d="M 19.671875 64.796875 
L 19.671875 8.109375 
L 31.59375 8.109375 
Q 46.6875 8.109375 53.6875 14.9375 
Q 60.6875 21.78125 60.6875 36.53125 
Q 60.6875 51.171875 53.6875 57.984375 
Q 46.6875 64.796875 31.59375 64.796875 
z
M 9.8125 72.90625 
L 30.078125 72.90625 
Q 51.265625 72.90625 61.171875 64.09375 
Q 71.09375 55.28125 71.09375 36.53125 
Q 71.09375 17.671875 61.125 8.828125 
Q 51.171875 0 30.078125 0 
L 9.8125 0 
z
" id="DejaVuSans-68"/>
    </defs>
    <g transform="translate(375.22944 297.78369)scale(0.17 -0.17)">
     <use xlink:href="#DejaVuSans-52"/>
     <use x="63.623047" xlink:href="#DejaVuSans-48"/>
     <use x="127.246094" xlink:href="#DejaVuSans-45"/>
     <use x="163.330078" xlink:href="#DejaVuSans-68"/>
    </g>
   </g>
   <g id="text_14">
    <!-- 20-D -->
    <g transform="translate(375.22944 241.611714)scale(0.17 -0.17)">
     <use xlink:href="#DejaVuSans-50"/>
     <use x="63.623047" xlink:href="#DejaVuSans-48"/>
     <use x="127.246094" xlink:href="#DejaVuSans-45"/>
     <use x="163.330078" xlink:href="#DejaVuSans-68"/>
    </g>
   </g>
   <g id="text_15">
    <!-- 10-D -->
    <g transform="translate(375.22944 185.439737)scale(0.17 -0.17)">
     <use xlink:href="#DejaVuSans-49"/>
     <use x="63.623047" xlink:href="#DejaVuSans-48"/>
     <use x="127.246094" xlink:href="#DejaVuSans-45"/>
     <use x="163.330078" xlink:href="#DejaVuSans-68"/>
    </g>
   </g>
   <g id="text_16">
    <!-- 5-D -->
    <defs>
     <path d="M 10.796875 72.90625 
L 49.515625 72.90625 
L 49.515625 64.59375 
L 19.828125 64.59375 
L 19.828125 46.734375 
Q 21.96875 47.46875 24.109375 47.828125 
Q 26.265625 48.1875 28.421875 48.1875 
Q 40.625 48.1875 47.75 41.5 
Q 54.890625 34.8125 54.890625 23.390625 
Q 54.890625 11.625 47.5625 5.09375 
Q 40.234375 -1.421875 26.90625 -1.421875 
Q 22.3125 -1.421875 17.546875 -0.640625 
Q 12.796875 0.140625 7.71875 1.703125 
L 7.71875 11.625 
Q 12.109375 9.234375 16.796875 8.0625 
Q 21.484375 6.890625 26.703125 6.890625 
Q 35.15625 6.890625 40.078125 11.328125 
Q 45.015625 15.765625 45.015625 23.390625 
Q 45.015625 31 40.078125 35.4375 
Q 35.15625 39.890625 26.703125 39.890625 
Q 22.75 39.890625 18.8125 39.015625 
Q 14.890625 38.140625 10.796875 36.28125 
z
" id="DejaVuSans-53"/>
    </defs>
    <g transform="translate(375.22944 129.267761)scale(0.17 -0.17)">
     <use xlink:href="#DejaVuSans-53"/>
     <use x="63.623047" xlink:href="#DejaVuSans-45"/>
     <use x="99.707031" xlink:href="#DejaVuSans-68"/>
    </g>
   </g>
   <g id="text_17">
    <!-- 3-D -->
    <defs>
     <path d="M 40.578125 39.3125 
Q 47.65625 37.796875 51.625 33 
Q 55.609375 28.21875 55.609375 21.1875 
Q 55.609375 10.40625 48.1875 4.484375 
Q 40.765625 -1.421875 27.09375 -1.421875 
Q 22.515625 -1.421875 17.65625 -0.515625 
Q 12.796875 0.390625 7.625 2.203125 
L 7.625 11.71875 
Q 11.71875 9.328125 16.59375 8.109375 
Q 21.484375 6.890625 26.8125 6.890625 
Q 36.078125 6.890625 40.9375 10.546875 
Q 45.796875 14.203125 45.796875 21.1875 
Q 45.796875 27.640625 41.28125 31.265625 
Q 36.765625 34.90625 28.71875 34.90625 
L 20.21875 34.90625 
L 20.21875 43.015625 
L 29.109375 43.015625 
Q 36.375 43.015625 40.234375 45.921875 
Q 44.09375 48.828125 44.09375 54.296875 
Q 44.09375 59.90625 40.109375 62.90625 
Q 36.140625 65.921875 28.71875 65.921875 
Q 24.65625 65.921875 20.015625 65.03125 
Q 15.375 64.15625 9.8125 62.3125 
L 9.8125 71.09375 
Q 15.4375 72.65625 20.34375 73.4375 
Q 25.25 74.21875 29.59375 74.21875 
Q 40.828125 74.21875 47.359375 69.109375 
Q 53.90625 64.015625 53.90625 55.328125 
Q 53.90625 49.265625 50.4375 45.09375 
Q 46.96875 40.921875 40.578125 39.3125 
z
" id="DejaVuSans-51"/>
    </defs>
    <g transform="translate(375.22944 73.095785)scale(0.17 -0.17)">
     <use xlink:href="#DejaVuSans-51"/>
     <use x="63.623047" xlink:href="#DejaVuSans-45"/>
     <use x="99.707031" xlink:href="#DejaVuSans-68"/>
    </g>
   </g>
   <g id="text_18">
    <!-- 2-D -->
    <g transform="translate(375.22944 16.923809)scale(0.17 -0.17)">
     <use xlink:href="#DejaVuSans-50"/>
     <use x="63.623047" xlink:href="#DejaVuSans-45"/>
     <use x="99.707031" xlink:href="#DejaVuSans-68"/>
    </g>
   </g>
   <g id="text_19">
    <!-- bbob f6-f9 -->
    <defs>
     <path d="M 48.6875 27.296875 
Q 48.6875 37.203125 44.609375 42.84375 
Q 40.53125 48.484375 33.40625 48.484375 
Q 26.265625 48.484375 22.1875 42.84375 
Q 18.109375 37.203125 18.109375 27.296875 
Q 18.109375 17.390625 22.1875 11.75 
Q 26.265625 6.109375 33.40625 6.109375 
Q 40.53125 6.109375 44.609375 11.75 
Q 48.6875 17.390625 48.6875 27.296875 
z
M 18.109375 46.390625 
Q 20.953125 51.265625 25.265625 53.625 
Q 29.59375 56 35.59375 56 
Q 45.5625 56 51.78125 48.09375 
Q 58.015625 40.1875 58.015625 27.296875 
Q 58.015625 14.40625 51.78125 6.484375 
Q 45.5625 -1.421875 35.59375 -1.421875 
Q 29.59375 -1.421875 25.265625 0.953125 
Q 20.953125 3.328125 18.109375 8.203125 
L 18.109375 0 
L 9.078125 0 
L 9.078125 75.984375 
L 18.109375 75.984375 
z
" id="DejaVuSans-98"/>
     <path d="M 10.984375 1.515625 
L 10.984375 10.5 
Q 14.703125 8.734375 18.5 7.8125 
Q 22.3125 6.890625 25.984375 6.890625 
Q 35.75 6.890625 40.890625 13.453125 
Q 46.046875 20.015625 46.78125 33.40625 
Q 43.953125 29.203125 39.59375 26.953125 
Q 35.25 24.703125 29.984375 24.703125 
Q 19.046875 24.703125 12.671875 31.3125 
Q 6.296875 37.9375 6.296875 49.421875 
Q 6.296875 60.640625 12.9375 67.421875 
Q 19.578125 74.21875 30.609375 74.21875 
Q 43.265625 74.21875 49.921875 64.515625 
Q 56.59375 54.828125 56.59375 36.375 
Q 56.59375 19.140625 48.40625 8.859375 
Q 40.234375 -1.421875 26.421875 -1.421875 
Q 22.703125 -1.421875 18.890625 -0.6875 
Q 15.09375 0.046875 10.984375 1.515625 
z
M 30.609375 32.421875 
Q 37.25 32.421875 41.125 36.953125 
Q 45.015625 41.5 45.015625 49.421875 
Q 45.015625 57.28125 41.125 61.84375 
Q 37.25 66.40625 30.609375 66.40625 
Q 23.96875 66.40625 20.09375 61.84375 
Q 16.21875 57.28125 16.21875 49.421875 
Q 16.21875 41.5 20.09375 36.953125 
Q 23.96875 32.421875 30.609375 32.421875 
z
" id="DejaVuSans-57"/>
    </defs>
    <g transform="translate(60.41088 14.161286)scale(0.102 -0.102)">
     <use xlink:href="#DejaVuSans-98"/>
     <use x="63.476562" xlink:href="#DejaVuSans-98"/>
     <use x="126.953125" xlink:href="#DejaVuSans-111"/>
     <use x="188.134766" xlink:href="#DejaVuSans-98"/>
     <use x="251.611328" xlink:href="#DejaVuSans-32"/>
     <use x="283.398438" xlink:href="#DejaVuSans-102"/>
     <use x="318.603516" xlink:href="#DejaVuSans-54"/>
     <use x="382.226562" xlink:href="#DejaVuSans-45"/>
     <use x="418.310547" xlink:href="#DejaVuSans-102"/>
     <use x="453.515625" xlink:href="#DejaVuSans-57"/>
    </g>
    <!-- 51 targets: 100..1e-08 -->
    <defs>
     <path d="M 11.71875 12.40625 
L 22.015625 12.40625 
L 22.015625 0 
L 11.71875 0 
z
M 11.71875 51.703125 
L 22.015625 51.703125 
L 22.015625 39.3125 
L 11.71875 39.3125 
z
" id="DejaVuSans-58"/>
    </defs>
    <g transform="translate(60.41088 25.583055)scale(0.102 -0.102)">
     <use xlink:href="#DejaVuSans-53"/>
     <use x="63.623047" xlink:href="#DejaVuSans-49"/>
     <use x="127.246094" xlink:href="#DejaVuSans-32"/>
     <use x="159.033203" xlink:href="#DejaVuSans-116"/>
     <use x="198.242188" xlink:href="#DejaVuSans-97"/>
     <use x="259.521484" xlink:href="#DejaVuSans-114"/>
     <use x="300.619141" xlink:href="#DejaVuSans-103"/>
     <use x="364.095703" xlink:href="#DejaVuSans-101"/>
     <use x="425.619141" xlink:href="#DejaVuSans-116"/>
     <use x="464.828125" xlink:href="#DejaVuSans-115"/>
     <use x="516.927734" xlink:href="#DejaVuSans-58"/>
     <use x="550.619141" xlink:href="#DejaVuSans-32"/>
     <use x="582.40625" xlink:href="#DejaVuSans-49"/>
     <use x="646.029297" xlink:href="#DejaVuSans-48"/>
     <use x="709.652344" xlink:href="#DejaVuSans-48"/>
     <use x="773.275391" xlink:href="#DejaVuSans-46"/>
     <use x="805.0625" xlink:href="#DejaVuSans-46"/>
     <use x="836.849609" xlink:href="#DejaVuSans-49"/>
     <use x="900.472656" xlink:href="#DejaVuSans-101"/>
     <use x="961.996094" xlink:href="#DejaVuSans-45"/>
     <use x="998.080078" xlink:href="#DejaVuSans-48"/>
     <use x="1061.703125" xlink:href="#DejaVuSans-56"/>
    </g>
    <!-- 15 instances -->
    <g transform="translate(60.41088 37.004824)scale(0.102 -0.102)">
     <use xlink:href="#DejaVuSans-49"/>
     <use x="63.623047" xlink:href="#DejaVuSans-53"/>
     <use x="127.246094" xlink:href="#DejaVuSans-32"/>
     <use x="159.033203" xlink:href="#DejaVuSans-105"/>
     <use x="186.816406" xlink:href="#DejaVuSans-110"/>
     <use x="250.195312" xlink:href="#DejaVuSans-115"/>
     <use x="302.294922" xlink:href="#DejaVuSans-116"/>
     <use x="341.503906" xlink:href="#DejaVuSans-97"/>
     <use x="402.783203" xlink:href="#DejaVuSans-110"/>
     <use x="466.162109" xlink:href="#DejaVuSans-99"/>
     <use x="521.142578" xlink:href="#DejaVuSans-101"/>
     <use x="582.666016" xlink:href="#DejaVuSans-115"/>
    </g>
   </g>
   <g id="text_20">
    <!-- v2.4 -->
    <g style="fill:#808080;" transform="translate(187.233062 293.909432)scale(0.1 -0.1)">
     <use xlink:href="#DejaVuSans-118"/>
     <use x="59.179688" xlink:href="#DejaVuSans-50"/>
     <use x="122.802734" xlink:href="#DejaVuSans-46"/>
     <use x="154.589844" xlink:href="#DejaVuSans-52"/>
    </g>
   </g>
  </g>
 </g>
 <defs>
  <clipPath id="p9baaf5ec1d">
   <rect height="295.488" width="281.088" x="57.6" y="3.456"/>
  </clipPath>
 </defs>
</svg>
