<?xml version="1.0" encoding="utf-8" standalone="no"?>
<!DOCTYPE svg PUBLIC "-//W3C//DTD SVG 1.1//EN"
  "http://www.w3.org/Graphics/SVG/1.1/DTD/svg11.dtd">
<!-- Created with matplotlib (https://matplotlib.org/) -->
<svg height="345.6pt" version="1.1" viewBox="0 0 460.8 345.6" width="460.8pt" xmlns="http://www.w3.org/2000/svg" xmlns:xlink="http://www.w3.org/1999/xlink">
 <defs>
  <style type="text/css">
*{stroke-linecap:butt;stroke-linejoin:round;}
  </style>
 </defs>
 <g id="figure_1">
  <g id="patch_1">
   <path d="M 0 345.6 
L 460.8 345.6 
L 460.8 0 
L 0 0 
z
" style="fill:#ffffff;"/>
  </g>
  <g id="axes_1">
   <g id="patch_2">
    <path d="M 57.6 298.944 
L 338.688 298.944 
L 338.688 3.456 
L 57.6 3.456 
z
" style="fill:#ffffff;"/>
   </g>
   <g id="matplotlib.axis_1">
    <g id="xtick_1">
     <g id="line2d_1">
      <path clip-path="url(#p4a3079982a)" d="M 57.6 298.944 
L 57.6 3.456 
" style="fill:none;stroke:#b0b0b0;stroke-linecap:square;stroke-width:0.8;"/>
     </g>
     <g id="line2d_2">
      <defs>
       <path d="M 0 0 
L 0 3.5 
" id="m9f24df77a3" style="stroke:#000000;stroke-width:0.8;"/>
      </defs>
      <g>
       <use style="stroke:#000000;stroke-width:0.8;" x="57.6" xlink:href="#m9f24df77a3" y="298.944"/>
      </g>
     </g>
     <g id="text_1">
      <!-- 0 -->
      <defs>
       <path d="M 31.78125 66.40625 
Q 24.171875 66.40625 20.328125 58.90625 
Q 16.5 51.421875 16.5 36.375 
Q 16.5 21.390625 20.328125 13.890625 
Q 24.171875 6.390625 31.78125 6.390625 
Q 39.453125 6.390625 43.28125 13.890625 
Q 47.125 21.390625 47.125 36.375 
Q 47.125 51.421875 43.28125 58.90625 
Q 39.453125 66.40625 31.78125 66.40625 
z
M 31.78125 74.21875 
Q 44.046875 74.21875 50.515625 64.515625 
Q 56.984375 54.828125 56.984375 36.375 
Q 56.984375 17.96875 50.515625 8.265625 
Q 44.046875 -1.421875 31.78125 -1.421875 
Q 19.53125 -1.421875 13.0625 8.265625 
Q 6.59375 17.96875 6.59375 36.375 
Q 6.59375 54.828125 13.0625 64.515625 
Q 19.53125 74.21875 31.78125 74.21875 
z
" id="DejaVuSans-48"/>
      </defs>
      <g transform="translate(51.2375 321.140875)scale(0.2 -0.2)">
       <use xlink:href="#DejaVuSans-48"/>
      </g>
     </g>
    </g>
    <g id="xtick_2">
     <g id="line2d_3">
      <path clip-path="url(#p4a3079982a)" d="M 137.910857 298.944 
L 137.910857 3.456 
" style="fill:none;stroke:#b0b0b0;stroke-linecap:square;stroke-width:0.8;"/>
     </g>
     <g id="line2d_4">
      <g>
       <use style="stroke:#000000;stroke-width:0.8;" x="137.910857" xlink:href="#m9f24df77a3" y="298.944"/>
      </g>
     </g>
     <g id="text_2">
      <!-- 2 -->
      <defs>
       <path d="M 19.1875 8.296875 
L 53.609375 8.296875 
L 53.609375 0 
L 7.328125 0 
L 7.328125 8.296875 
Q 12.9375 14.109375 22.625 23.890625 
Q 32.328125 33.6875 34.8125 36.53125 
Q 39.546875 41.84375 41.421875 45.53125 
Q 43.3125 49.21875 43.3125 52.78125 
Q 43.3125 58.59375 39.234375 62.25 
Q 35.15625 65.921875 28.609375 65.921875 
Q 23.96875 65.921875 18.8125 64.3125 
Q 13.671875 62.703125 7.8125 59.421875 
L 7.8125 69.390625 
Q 13.765625 71.78125 18.9375 73 
Q 24.125 74.21875 28.421875 74.21875 
Q 39.75 74.21875 46.484375 68.546875 
Q 53.21875 62.890625 53.21875 53.421875 
Q 53.21875 48.921875 51.53125 44.890625 
Q 49.859375 40.875 45.40625 35.40625 
Q 44.1875 33.984375 37.640625 27.21875 
Q 31.109375 20.453125 19.1875 8.296875 
z
" id="DejaVuSans-50"/>
      </defs>
      <g transform="translate(131.548357 321.140875)scale(0.2 -0.2)">
       <use xlink:href="#DejaVuSans-50"/>
      </g>
     </g>
    </g>
    <g id="xtick_3">
     <g id="line2d_5">
      <path clip-path="url(#p4a3079982a)" d="M 218.221714 298.944 
L 218.221714 3.456 
" style="fill:none;stroke:#b0b0b0;stroke-linecap:square;stroke-width:0.8;"/>
     </g>
     <g id="line2d_6">
      <g>
       <use style="stroke:#000000;stroke-width:0.8;" x="218.221714" xlink:href="#m9f24df77a3" y="298.944"/>
      </g>
     </g>
     <g id="text_3">
      <!-- 4 -->
      <defs>
       <path d="M 37.796875 64.3125 
L 12.890625 25.390625 
L 37.796875 25.390625 
z
M 35.203125 72.90625 
L 47.609375 72.90625 
L 47.609375 25.390625 
L 58.015625 25.390625 
L 58.015625 17.1875 
L 47.609375 17.1875 
L 47.609375 0 
L 37.796875 0 
L 37.796875 17.1875 
L 4.890625 17.1875 
L 4.890625 26.703125 
z
" id="DejaVuSans-52"/>
      </defs>
      <g transform="translate(211.859214 321.140875)scale(0.2 -0.2)">
       <use xlink:href="#DejaVuSans-52"/>
      </g>
     </g>
    </g>
    <g id="xtick_4">
     <g id="line2d_7">
      <path clip-path="url(#p4a3079982a)" d="M 298.532571 298.944 
L 298.532571 3.456 
" style="fill:none;stroke:#b0b0b0;stroke-linecap:square;stroke-width:0.8;"/>
     </g>
     <g id="line2d_8">
      <g>
       <use style="stroke:#000000;stroke-width:0.8;" x="298.532571" xlink:href="#m9f24df77a3" y="298.944"/>
      </g>
     </g>
     <g id="text_4">
      <!-- 6 -->
      <defs>
       <path d="M 33.015625 40.375 
Q 26.375 40.375 22.484375 35.828125 
Q 18.609375 31.296875 18.609375 23.390625 
Q 18.609375 15.53125 22.484375 10.953125 
Q 26.375 6.390625 33.015625 6.390625 
Q 39.65625 6.390625 43.53125 10.953125 
Q 47.40625 15.53125 47.40625 23.390625 
Q 47.40625 31.296875 43.53125 35.828125 
Q 39.65625 40.375 33.015625 40.375 
z
M 52.59375 71.296875 
L 52.59375 62.3125 
Q 48.875 64.0625 45.09375 64.984375 
Q 41.3125 65.921875 37.59375 65.921875 
Q 27.828125 65.921875 22.671875 59.328125 
Q 17.53125 52.734375 16.796875 39.40625 
Q 19.671875 43.65625 24.015625 45.921875 
Q 28.375 48.1875 33.59375 48.1875 
Q 44.578125 48.1875 50.953125 41.515625 
Q 57.328125 34.859375 57.328125 23.390625 
Q 57.328125 12.15625 50.6875 5.359375 
Q 44.046875 -1.421875 33.015625 -1.421875 
Q 20.359375 -1.421875 13.671875 8.265625 
Q 6.984375 17.96875 6.984375 36.375 
Q 6.984375 53.65625 15.1875 63.9375 
Q 23.390625 74.21875 37.203125 74.21875 
Q 40.921875 74.21875 44.703125 73.484375 
Q 48.484375 72.75 52.59375 71.296875 
z
" id="DejaVuSans-54"/>
      </defs>
      <g transform="translate(292.170071 321.140875)scale(0.2 -0.2)">
       <use xlink:href="#DejaVuSans-54"/>
      </g>
     </g>
    </g>
    <g id="xtick_5">
     <g id="line2d_9">
      <path clip-path="url(#p4a3079982a)" d="M 97.755429 298.944 
L 97.755429 3.456 
" style="fill:none;stroke:#b0b0b0;stroke-linecap:square;stroke-width:0.8;"/>
     </g>
     <g id="line2d_10">
      <defs>
       <path d="M 0 0 
L 0 2 
" id="m1a15615522" style="stroke:#000000;stroke-width:0.6;"/>
      </defs>
      <g>
       <use style="stroke:#000000;stroke-width:0.6;" x="97.755429" xlink:href="#m1a15615522" y="298.944"/>
      </g>
     </g>
    </g>
    <g id="xtick_6">
     <g id="line2d_11">
      <path clip-path="url(#p4a3079982a)" d="M 178.066286 298.944 
L 178.066286 3.456 
" style="fill:none;stroke:#b0b0b0;stroke-linecap:square;stroke-width:0.8;"/>
     </g>
     <g id="line2d_12">
      <g>
       <use style="stroke:#000000;stroke-width:0.6;" x="178.066286" xlink:href="#m1a15615522" y="298.944"/>
      </g>
     </g>
    </g>
    <g id="xtick_7">
     <g id="line2d_13">
      <path clip-path="url(#p4a3079982a)" d="M 258.377143 298.944 
L 258.377143 3.456 
" style="fill:none;stroke:#b0b0b0;stroke-linecap:square;stroke-width:0.8;"/>
     </g>
     <g id="line2d_14">
      <g>
       <use style="stroke:#000000;stroke-width:0.6;" x="258.377143" xlink:href="#m1a15615522" y="298.944"/>
      </g>
     </g>
    </g>
    <g id="xtick_8">
     <g id="line2d_15">
      <path clip-path="url(#p4a3079982a)" d="M 338.688 298.944 
L 338.688 3.456 
" style="fill:none;stroke:#b0b0b0;stroke-linecap:square;stroke-width:0.8;"/>
     </g>
     <g id="line2d_16">
      <g>
       <use style="stroke:#000000;stroke-width:0.6;" x="338.688" xlink:href="#m1a15615522" y="298.944"/>
      </g>
     </g>
    </g>
    <g id="text_5">
     <!-- log10(# f-evals / dimension) -->
     <defs>
      <path d="M 9.421875 75.984375 
L 18.40625 75.984375 
L 18.40625 0 
L 9.421875 0 
z
" id="DejaVuSans-108"/>
      <path d="M 30.609375 48.390625 
Q 23.390625 48.390625 19.1875 42.75 
Q 14.984375 37.109375 14.984375 27.296875 
Q 14.984375 17.484375 19.15625 11.84375 
Q 23.34375 6.203125 30.609375 6.203125 
Q 37.796875 6.203125 41.984375 11.859375 
Q 46.1875 17.53125 46.1875 27.296875 
Q 46.1875 37.015625 41.984375 42.703125 
Q 37.796875 48.390625 30.609375 48.390625 
z
M 30.609375 56 
Q 42.328125 56 49.015625 48.375 
Q 55.71875 40.765625 55.71875 27.296875 
Q 55.71875 13.875 49.015625 6.21875 
Q 42.328125 -1.421875 30.609375 -1.421875 
Q 18.84375 -1.421875 12.171875 6.21875 
Q 5.515625 13.875 5.515625 27.296875 
Q 5.515625 40.765625 12.171875 48.375 
Q 18.84375 56 30.609375 56 
z
" id="DejaVuSans-111"/>
      <path d="M 45.40625 27.984375 
Q 45.40625 37.75 41.375 43.109375 
Q 37.359375 48.484375 30.078125 48.484375 
Q 22.859375 48.484375 18.828125 43.109375 
Q 14.796875 37.75 14.796875 27.984375 
Q 14.796875 18.265625 18.828125 12.890625 
Q 22.859375 7.515625 30.078125 7.515625 
Q 37.359375 7.515625 41.375 12.890625 
Q 45.40625 18.265625 45.40625 27.984375 
z
M 54.390625 6.78125 
Q 54.390625 -7.171875 48.1875 -13.984375 
Q 42 -20.796875 29.203125 -20.796875 
Q 24.46875 -20.796875 20.265625 -20.09375 
Q 16.0625 -19.390625 12.109375 -17.921875 
L 12.109375 -9.1875 
Q 16.0625 -11.328125 19.921875 -12.34375 
Q 23.78125 -13.375 27.78125 -13.375 
Q 36.625 -13.375 41.015625 -8.765625 
Q 45.40625 -4.15625 45.40625 5.171875 
L 45.40625 9.625 
Q 42.625 4.78125 38.28125 2.390625 
Q 33.9375 0 27.875 0 
Q 17.828125 0 11.671875 7.65625 
Q 5.515625 15.328125 5.515625 27.984375 
Q 5.515625 40.671875 11.671875 48.328125 
Q 17.828125 56 27.875 56 
Q 33.9375 56 38.28125 53.609375 
Q 42.625 51.21875 45.40625 46.390625 
L 45.40625 54.6875 
L 54.390625 54.6875 
z
" id="DejaVuSans-103"/>
      <path d="M 12.40625 8.296875 
L 28.515625 8.296875 
L 28.515625 63.921875 
L 10.984375 60.40625 
L 10.984375 69.390625 
L 28.421875 72.90625 
L 38.28125 72.90625 
L 38.28125 8.296875 
L 54.390625 8.296875 
L 54.390625 0 
L 12.40625 0 
z
" id="DejaVuSans-49"/>
      <path d="M 31 75.875 
Q 24.46875 64.65625 21.28125 53.65625 
Q 18.109375 42.671875 18.109375 31.390625 
Q 18.109375 20.125 21.3125 9.0625 
Q 24.515625 -2 31 -13.1875 
L 23.1875 -13.1875 
Q 15.875 -1.703125 12.234375 9.375 
Q 8.59375 20.453125 8.59375 31.390625 
Q 8.59375 42.28125 12.203125 53.3125 
Q 15.828125 64.359375 23.1875 75.875 
z
" id="DejaVuSans-40"/>
      <path d="M 51.125 44 
L 36.921875 44 
L 32.8125 27.6875 
L 47.125 27.6875 
z
M 43.796875 71.78125 
L 38.71875 51.515625 
L 52.984375 51.515625 
L 58.109375 71.78125 
L 65.921875 71.78125 
L 60.890625 51.515625 
L 76.125 51.515625 
L 76.125 44 
L 58.984375 44 
L 54.984375 27.6875 
L 70.515625 27.6875 
L 70.515625 20.21875 
L 53.078125 20.21875 
L 48 0 
L 40.1875 0 
L 45.21875 20.21875 
L 30.90625 20.21875 
L 25.875 0 
L 18.015625 0 
L 23.09375 20.21875 
L 7.71875 20.21875 
L 7.71875 27.6875 
L 24.90625 27.6875 
L 29 44 
L 13.28125 44 
L 13.28125 51.515625 
L 30.90625 51.515625 
L 35.890625 71.78125 
z
" id="DejaVuSans-35"/>
      <path id="DejaVuSans-32"/>
      <path d="M 37.109375 75.984375 
L 37.109375 68.5 
L 28.515625 68.5 
Q 23.6875 68.5 21.796875 66.546875 
Q 19.921875 64.59375 19.921875 59.515625 
L 19.921875 54.6875 
L 34.71875 54.6875 
L 34.71875 47.703125 
L 19.921875 47.703125 
L 19.921875 0 
L 10.890625 0 
L 10.890625 47.703125 
L 2.296875 47.703125 
L 2.296875 54.6875 
L 10.890625 54.6875 
L 10.890625 58.5 
Q 10.890625 67.625 15.140625 71.796875 
Q 19.390625 75.984375 28.609375 75.984375 
z
" id="DejaVuSans-102"/>
      <path d="M 4.890625 31.390625 
L 31.203125 31.390625 
L 31.203125 23.390625 
L 4.890625 23.390625 
z
" id="DejaVuSans-45"/>
      <path d="M 56.203125 29.59375 
L 56.203125 25.203125 
L 14.890625 25.203125 
Q 15.484375 15.921875 20.484375 11.0625 
Q 25.484375 6.203125 34.421875 6.203125 
Q 39.59375 6.203125 44.453125 7.46875 
Q 49.3125 8.734375 54.109375 11.28125 
L 54.109375 2.78125 
Q 49.265625 0.734375 44.1875 -0.34375 
Q 39.109375 -1.421875 33.890625 -1.421875 
Q 20.796875 -1.421875 13.15625 6.1875 
Q 5.515625 13.8125 5.515625 26.8125 
Q 5.515625 40.234375 12.765625 48.109375 
Q 20.015625 56 32.328125 56 
Q 43.359375 56 49.78125 48.890625 
Q 56.203125 41.796875 56.203125 29.59375 
z
M 47.21875 32.234375 
Q 47.125 39.59375 43.09375 43.984375 
Q 39.0625 48.390625 32.421875 48.390625 
Q 24.90625 48.390625 20.390625 44.140625 
Q 15.875 39.890625 15.1875 32.171875 
z
" id="DejaVuSans-101"/>
      <path d="M 2.984375 54.6875 
L 12.5 54.6875 
L 29.59375 8.796875 
L 46.6875 54.6875 
L 56.203125 54.6875 
L 35.6875 0 
L 23.484375 0 
z
" id="DejaVuSans-118"/>
      <path d="M 34.28125 27.484375 
Q 23.390625 27.484375 19.1875 25 
Q 14.984375 22.515625 14.984375 16.5 
Q 14.984375 11.71875 18.140625 8.90625 
Q 21.296875 6.109375 26.703125 6.109375 
Q 34.1875 6.109375 38.703125 11.40625 
Q 43.21875 16.703125 43.21875 25.484375 
L 43.21875 27.484375 
z
M 52.203125 31.203125 
L 52.203125 0 
L 43.21875 0 
L 43.21875 8.296875 
Q 40.140625 3.328125 35.546875 0.953125 
Q 30.953125 -1.421875 24.3125 -1.421875 
Q 15.921875 -1.421875 10.953125 3.296875 
Q 6 8.015625 6 15.921875 
Q 6 25.140625 12.171875 29.828125 
Q 18.359375 34.515625 30.609375 34.515625 
L 43.21875 34.515625 
L 43.21875 35.40625 
Q 43.21875 41.609375 39.140625 45 
Q 35.0625 48.390625 27.6875 48.390625 
Q 23 48.390625 18.546875 47.265625 
Q 14.109375 46.140625 10.015625 43.890625 
L 10.015625 52.203125 
Q 14.9375 54.109375 19.578125 55.046875 
Q 24.21875 56 28.609375 56 
Q 40.484375 56 46.34375 49.84375 
Q 52.203125 43.703125 52.203125 31.203125 
z
" id="DejaVuSans-97"/>
      <path d="M 44.28125 53.078125 
L 44.28125 44.578125 
Q 40.484375 46.53125 36.375 47.5 
Q 32.28125 48.484375 27.875 48.484375 
Q 21.1875 48.484375 17.84375 46.4375 
Q 14.5 44.390625 14.5 40.28125 
Q 14.5 37.15625 16.890625 35.375 
Q 19.28125 33.59375 26.515625 31.984375 
L 29.59375 31.296875 
Q 39.15625 29.25 43.1875 25.515625 
Q 47.21875 21.78125 47.21875 15.09375 
Q 47.21875 7.46875 41.1875 3.015625 
Q 35.15625 -1.421875 24.609375 -1.421875 
Q 20.21875 -1.421875 15.453125 -0.5625 
Q 10.6875 0.296875 5.421875 2 
L 5.421875 11.28125 
Q 10.40625 8.6875 15.234375 7.390625 
Q 20.0625 6.109375 24.8125 6.109375 
Q 31.15625 6.109375 34.5625 8.28125 
Q 37.984375 10.453125 37.984375 14.40625 
Q 37.984375 18.0625 35.515625 20.015625 
Q 33.0625 21.96875 24.703125 23.78125 
L 21.578125 24.515625 
Q 13.234375 26.265625 9.515625 29.90625 
Q 5.8125 33.546875 5.8125 39.890625 
Q 5.8125 47.609375 11.28125 51.796875 
Q 16.75 56 26.8125 56 
Q 31.78125 56 36.171875 55.265625 
Q 40.578125 54.546875 44.28125 53.078125 
z
" id="DejaVuSans-115"/>
      <path d="M 25.390625 72.90625 
L 33.6875 72.90625 
L 8.296875 -9.28125 
L 0 -9.28125 
z
" id="DejaVuSans-47"/>
      <path d="M 45.40625 46.390625 
L 45.40625 75.984375 
L 54.390625 75.984375 
L 54.390625 0 
L 45.40625 0 
L 45.40625 8.203125 
Q 42.578125 3.328125 38.25 0.953125 
Q 33.9375 -1.421875 27.875 -1.421875 
Q 17.96875 -1.421875 11.734375 6.484375 
Q 5.515625 14.40625 5.515625 27.296875 
Q 5.515625 40.1875 11.734375 48.09375 
Q 17.96875 56 27.875 56 
Q 33.9375 56 38.25 53.625 
Q 42.578125 51.265625 45.40625 46.390625 
z
M 14.796875 27.296875 
Q 14.796875 17.390625 18.875 11.75 
Q 22.953125 6.109375 30.078125 6.109375 
Q 37.203125 6.109375 41.296875 11.75 
Q 45.40625 17.390625 45.40625 27.296875 
Q 45.40625 37.203125 41.296875 42.84375 
Q 37.203125 48.484375 30.078125 48.484375 
Q 22.953125 48.484375 18.875 42.84375 
Q 14.796875 37.203125 14.796875 27.296875 
z
" id="DejaVuSans-100"/>
      <path d="M 9.421875 54.6875 
L 18.40625 54.6875 
L 18.40625 0 
L 9.421875 0 
z
M 9.421875 75.984375 
L 18.40625 75.984375 
L 18.40625 64.59375 
L 9.421875 64.59375 
z
" id="DejaVuSans-105"/>
      <path d="M 52 44.1875 
Q 55.375 50.25 60.0625 53.125 
Q 64.75 56 71.09375 56 
Q 79.640625 56 84.28125 50.015625 
Q 88.921875 44.046875 88.921875 33.015625 
L 88.921875 0 
L 79.890625 0 
L 79.890625 32.71875 
Q 79.890625 40.578125 77.09375 44.375 
Q 74.3125 48.1875 68.609375 48.1875 
Q 61.625 48.1875 57.5625 43.546875 
Q 53.515625 38.921875 53.515625 30.90625 
L 53.515625 0 
L 44.484375 0 
L 44.484375 32.71875 
Q 44.484375 40.625 41.703125 44.40625 
Q 38.921875 48.1875 33.109375 48.1875 
Q 26.21875 48.1875 22.15625 43.53125 
Q 18.109375 38.875 18.109375 30.90625 
L 18.109375 0 
L 9.078125 0 
L 9.078125 54.6875 
L 18.109375 54.6875 
L 18.109375 46.1875 
Q 21.1875 51.21875 25.484375 53.609375 
Q 29.78125 56 35.6875 56 
Q 41.65625 56 45.828125 52.96875 
Q 50 49.953125 52 44.1875 
z
" id="DejaVuSans-109"/>
      <path d="M 54.890625 33.015625 
L 54.890625 0 
L 45.90625 0 
L 45.90625 32.71875 
Q 45.90625 40.484375 42.875 44.328125 
Q 39.84375 48.1875 33.796875 48.1875 
Q 26.515625 48.1875 22.3125 43.546875 
Q 18.109375 38.921875 18.109375 30.90625 
L 18.109375 0 
L 9.078125 0 
L 9.078125 54.6875 
L 18.109375 54.6875 
L 18.109375 46.1875 
Q 21.34375 51.125 25.703125 53.5625 
Q 30.078125 56 35.796875 56 
Q 45.21875 56 50.046875 50.171875 
Q 54.890625 44.34375 54.890625 33.015625 
z
" id="DejaVuSans-110"/>
      <path d="M 8.015625 75.875 
L 15.828125 75.875 
Q 23.140625 64.359375 26.78125 53.3125 
Q 30.421875 42.28125 30.421875 31.390625 
Q 30.421875 20.453125 26.78125 9.375 
Q 23.140625 -1.703125 15.828125 -13.1875 
L 8.015625 -13.1875 
Q 14.5 -2 17.703125 9.0625 
Q 20.90625 20.125 20.90625 31.390625 
Q 20.90625 42.671875 17.703125 53.65625 
Q 14.5 64.65625 8.015625 75.875 
z
" id="DejaVuSans-41"/>
     </defs>
     <g transform="translate(77.303219 342.217594)scale(0.17 -0.17)">
      <use xlink:href="#DejaVuSans-108"/>
      <use x="27.783203" xlink:href="#DejaVuSans-111"/>
      <use x="88.964844" xlink:href="#DejaVuSans-103"/>
      <use x="152.441406" xlink:href="#DejaVuSans-49"/>
      <use x="216.064453" xlink:href="#DejaVuSans-48"/>
      <use x="279.6875" xlink:href="#DejaVuSans-40"/>
      <use x="318.701172" xlink:href="#DejaVuSans-35"/>
      <use x="402.490234" xlink:href="#DejaVuSans-32"/>
      <use x="434.277344" xlink:href="#DejaVuSans-102"/>
      <use x="469.404297" xlink:href="#DejaVuSans-45"/>
      <use x="505.488281" xlink:href="#DejaVuSans-101"/>
      <use x="567.011719" xlink:href="#DejaVuSans-118"/>
      <use x="626.191406" xlink:href="#DejaVuSans-97"/>
      <use x="687.470703" xlink:href="#DejaVuSans-108"/>
      <use x="715.253906" xlink:href="#DejaVuSans-115"/>
      <use x="767.353516" xlink:href="#DejaVuSans-32"/>
      <use x="799.140625" xlink:href="#DejaVuSans-47"/>
      <use x="832.832031" xlink:href="#DejaVuSans-32"/>
      <use x="864.619141" xlink:href="#DejaVuSans-100"/>
      <use x="928.095703" xlink:href="#DejaVuSans-105"/>
      <use x="955.878906" xlink:href="#DejaVuSans-109"/>
      <use x="1053.291016" xlink:href="#DejaVuSans-101"/>
      <use x="1114.814453" xlink:href="#DejaVuSans-110"/>
      <use x="1178.193359" xlink:href="#DejaVuSans-115"/>
      <use x="1230.292969" xlink:href="#DejaVuSans-105"/>
      <use x="1258.076172" xlink:href="#DejaVuSans-111"/>
      <use x="1319.257812" xlink:href="#DejaVuSans-110"/>
      <use x="1382.636719" xlink:href="#DejaVuSans-41"/>
     </g>
    </g>
   </g>
   <g id="matplotlib.axis_2">
    <g id="ytick_1">
     <g id="line2d_17">
      <path clip-path="url(#p4a3079982a)" d="M 57.6 298.944 
L 338.688 298.944 
" style="fill:none;stroke:#b0b0b0;stroke-linecap:square;stroke-width:0.8;"/>
     </g>
     <g id="line2d_18">
      <defs>
       <path d="M 0 0 
L -3.5 0 
" id="m53cff082f3" style="stroke:#000000;stroke-width:0.8;"/>
      </defs>
      <g>
       <use style="stroke:#000000;stroke-width:0.8;" x="57.6" xlink:href="#m53cff082f3" y="298.944"/>
      </g>
     </g>
     <g id="text_6">
      <!-- 0.0 -->
      <defs>
       <path d="M 10.6875 12.40625 
L 21 12.40625 
L 21 0 
L 10.6875 0 
z
" id="DejaVuSans-46"/>
      </defs>
      <g transform="translate(25.155 305.02275)scale(0.16 -0.16)">
       <use xlink:href="#DejaVuSans-48"/>
       <use x="63.623047" xlink:href="#DejaVuSans-46"/>
       <use x="95.410156" xlink:href="#DejaVuSans-48"/>
      </g>
     </g>
    </g>
    <g id="ytick_2">
     <g id="line2d_19">
      <path clip-path="url(#p4a3079982a)" d="M 57.6 240.431525 
L 338.688 240.431525 
" style="fill:none;stroke:#b0b0b0;stroke-linecap:square;stroke-width:0.8;"/>
     </g>
     <g id="line2d_20">
      <g>
       <use style="stroke:#000000;stroke-width:0.8;" x="57.6" xlink:href="#m53cff082f3" y="240.431525"/>
      </g>
     </g>
     <g id="text_7">
      <!-- 0.2 -->
      <g transform="translate(25.155 246.510275)scale(0.16 -0.16)">
       <use xlink:href="#DejaVuSans-48"/>
       <use x="63.623047" xlink:href="#DejaVuSans-46"/>
       <use x="95.410156" xlink:href="#DejaVuSans-50"/>
      </g>
     </g>
    </g>
    <g id="ytick_3">
     <g id="line2d_21">
      <path clip-path="url(#p4a3079982a)" d="M 57.6 181.91905 
L 338.688 181.91905 
" style="fill:none;stroke:#b0b0b0;stroke-linecap:square;stroke-width:0.8;"/>
     </g>
     <g id="line2d_22">
      <g>
       <use style="stroke:#000000;stroke-width:0.8;" x="57.6" xlink:href="#m53cff082f3" y="181.91905"/>
      </g>
     </g>
     <g id="text_8">
      <!-- 0.4 -->
      <g transform="translate(25.155 187.9978)scale(0.16 -0.16)">
       <use xlink:href="#DejaVuSans-48"/>
       <use x="63.623047" xlink:href="#DejaVuSans-46"/>
       <use x="95.410156" xlink:href="#DejaVuSans-52"/>
      </g>
     </g>
    </g>
    <g id="ytick_4">
     <g id="line2d_23">
      <path clip-path="url(#p4a3079982a)" d="M 57.6 123.406574 
L 338.688 123.406574 
" style="fill:none;stroke:#b0b0b0;stroke-linecap:square;stroke-width:0.8;"/>
     </g>
     <g id="line2d_24">
      <g>
       <use style="stroke:#000000;stroke-width:0.8;" x="57.6" xlink:href="#m53cff082f3" y="123.406574"/>
      </g>
     </g>
     <g id="text_9">
      <!-- 0.6 -->
      <g transform="translate(25.155 129.485324)scale(0.16 -0.16)">
       <use xlink:href="#DejaVuSans-48"/>
       <use x="63.623047" xlink:href="#DejaVuSans-46"/>
       <use x="95.410156" xlink:href="#DejaVuSans-54"/>
      </g>
     </g>
    </g>
    <g id="ytick_5">
     <g id="line2d_25">
      <path clip-path="url(#p4a3079982a)" d="M 57.6 64.894099 
L 338.688 64.894099 
" style="fill:none;stroke:#b0b0b0;stroke-linecap:square;stroke-width:0.8;"/>
     </g>
     <g id="line2d_26">
      <g>
       <use style="stroke:#000000;stroke-width:0.8;" x="57.6" xlink:href="#m53cff082f3" y="64.894099"/>
      </g>
     </g>
     <g id="text_10">
      <!-- 0.8 -->
      <defs>
       <path d="M 31.78125 34.625 
Q 24.75 34.625 20.71875 30.859375 
Q 16.703125 27.09375 16.703125 20.515625 
Q 16.703125 13.921875 20.71875 10.15625 
Q 24.75 6.390625 31.78125 6.390625 
Q 38.8125 6.390625 42.859375 10.171875 
Q 46.921875 13.96875 46.921875 20.515625 
Q 46.921875 27.09375 42.890625 30.859375 
Q 38.875 34.625 31.78125 34.625 
z
M 21.921875 38.8125 
Q 15.578125 40.375 12.03125 44.71875 
Q 8.5 49.078125 8.5 55.328125 
Q 8.5 64.0625 14.71875 69.140625 
Q 20.953125 74.21875 31.78125 74.21875 
Q 42.671875 74.21875 48.875 69.140625 
Q 55.078125 64.0625 55.078125 55.328125 
Q 55.078125 49.078125 51.53125 44.71875 
Q 48 40.375 41.703125 38.8125 
Q 48.828125 37.15625 52.796875 32.3125 
Q 56.78125 27.484375 56.78125 20.515625 
Q 56.78125 9.90625 50.3125 4.234375 
Q 43.84375 -1.421875 31.78125 -1.421875 
Q 19.734375 -1.421875 13.25 4.234375 
Q 6.78125 9.90625 6.78125 20.515625 
Q 6.78125 27.484375 10.78125 32.3125 
Q 14.796875 37.15625 21.921875 38.8125 
z
M 18.3125 54.390625 
Q 18.3125 48.734375 21.84375 45.5625 
Q 25.390625 42.390625 31.78125 42.390625 
Q 38.140625 42.390625 41.71875 45.5625 
Q 45.3125 48.734375 45.3125 54.390625 
Q 45.3125 60.0625 41.71875 63.234375 
Q 38.140625 66.40625 31.78125 66.40625 
Q 25.390625 66.40625 21.84375 63.234375 
Q 18.3125 60.0625 18.3125 54.390625 
z
" id="DejaVuSans-56"/>
      </defs>
      <g transform="translate(25.155 70.972849)scale(0.16 -0.16)">
       <use xlink:href="#DejaVuSans-48"/>
       <use x="63.623047" xlink:href="#DejaVuSans-46"/>
       <use x="95.410156" xlink:href="#DejaVuSans-56"/>
      </g>
     </g>
    </g>
    <g id="ytick_6">
     <g id="line2d_27">
      <path clip-path="url(#p4a3079982a)" d="M 57.6 6.381624 
L 338.688 6.381624 
" style="fill:none;stroke:#b0b0b0;stroke-linecap:square;stroke-width:0.8;"/>
     </g>
     <g id="line2d_28">
      <g>
       <use style="stroke:#000000;stroke-width:0.8;" x="57.6" xlink:href="#m53cff082f3" y="6.381624"/>
      </g>
     </g>
     <g id="text_11">
      <!-- 1.0 -->
      <g transform="translate(25.155 12.460374)scale(0.16 -0.16)">
       <use xlink:href="#DejaVuSans-49"/>
       <use x="63.623047" xlink:href="#DejaVuSans-46"/>
       <use x="95.410156" xlink:href="#DejaVuSans-48"/>
      </g>
     </g>
    </g>
    <g id="text_12">
     <!-- Fraction of function,target pairs -->
     <defs>
      <path d="M 9.8125 72.90625 
L 51.703125 72.90625 
L 51.703125 64.59375 
L 19.671875 64.59375 
L 19.671875 43.109375 
L 48.578125 43.109375 
L 48.578125 34.8125 
L 19.671875 34.8125 
L 19.671875 0 
L 9.8125 0 
z
" id="DejaVuSans-70"/>
      <path d="M 41.109375 46.296875 
Q 39.59375 47.171875 37.8125 47.578125 
Q 36.03125 48 33.890625 48 
Q 26.265625 48 22.1875 43.046875 
Q 18.109375 38.09375 18.109375 28.8125 
L 18.109375 0 
L 9.078125 0 
L 9.078125 54.6875 
L 18.109375 54.6875 
L 18.109375 46.1875 
Q 20.953125 51.171875 25.484375 53.578125 
Q 30.03125 56 36.53125 56 
Q 37.453125 56 38.578125 55.875 
Q 39.703125 55.765625 41.0625 55.515625 
z
" id="DejaVuSans-114"/>
      <path d="M 48.78125 52.59375 
L 48.78125 44.1875 
Q 44.96875 46.296875 41.140625 47.34375 
Q 37.3125 48.390625 33.40625 48.390625 
Q 24.65625 48.390625 19.8125 42.84375 
Q 14.984375 37.3125 14.984375 27.296875 
Q 14.984375 17.28125 19.8125 11.734375 
Q 24.65625 6.203125 33.40625 6.203125 
Q 37.3125 6.203125 41.140625 7.25 
Q 44.96875 8.296875 48.78125 10.40625 
L 48.78125 2.09375 
Q 45.015625 0.34375 40.984375 -0.53125 
Q 36.96875 -1.421875 32.421875 -1.421875 
Q 20.0625 -1.421875 12.78125 6.34375 
Q 5.515625 14.109375 5.515625 27.296875 
Q 5.515625 40.671875 12.859375 48.328125 
Q 20.21875 56 33.015625 56 
Q 37.15625 56 41.109375 55.140625 
Q 45.0625 54.296875 48.78125 52.59375 
z
" id="DejaVuSans-99"/>
      <path d="M 18.3125 70.21875 
L 18.3125 54.6875 
L 36.8125 54.6875 
L 36.8125 47.703125 
L 18.3125 47.703125 
L 18.3125 18.015625 
Q 18.3125 11.328125 20.140625 9.421875 
Q 21.96875 7.515625 27.59375 7.515625 
L 36.8125 7.515625 
L 36.8125 0 
L 27.59375 0 
Q 17.1875 0 13.234375 3.875 
Q 9.28125 7.765625 9.28125 18.015625 
L 9.28125 47.703125 
L 2.6875 47.703125 
L 2.6875 54.6875 
L 9.28125 54.6875 
L 9.28125 70.21875 
z
" id="DejaVuSans-116"/>
      <path d="M 8.5 21.578125 
L 8.5 54.6875 
L 17.484375 54.6875 
L 17.484375 21.921875 
Q 17.484375 14.15625 20.5 10.265625 
Q 23.53125 6.390625 29.59375 6.390625 
Q 36.859375 6.390625 41.078125 11.03125 
Q 45.3125 15.671875 45.3125 23.6875 
L 45.3125 54.6875 
L 54.296875 54.6875 
L 54.296875 0 
L 45.3125 0 
L 45.3125 8.40625 
Q 42.046875 3.421875 37.71875 1 
Q 33.40625 -1.421875 27.6875 -1.421875 
Q 18.265625 -1.421875 13.375 4.4375 
Q 8.5 10.296875 8.5 21.578125 
z
M 31.109375 56 
z
" id="DejaVuSans-117"/>
      <path d="M 11.71875 12.40625 
L 22.015625 12.40625 
L 22.015625 4 
L 14.015625 -11.625 
L 7.71875 -11.625 
L 11.71875 4 
z
" id="DejaVuSans-44"/>
      <path d="M 18.109375 8.203125 
L 18.109375 -20.796875 
L 9.078125 -20.796875 
L 9.078125 54.6875 
L 18.109375 54.6875 
L 18.109375 46.390625 
Q 20.953125 51.265625 25.265625 53.625 
Q 29.59375 56 35.59375 56 
Q 45.5625 56 51.78125 48.09375 
Q 58.015625 40.1875 58.015625 27.296875 
Q 58.015625 14.40625 51.78125 6.484375 
Q 45.5625 -1.421875 35.59375 -1.421875 
Q 29.59375 -1.421875 25.265625 0.953125 
Q 20.953125 3.328125 18.109375 8.203125 
z
M 48.6875 27.296875 
Q 48.6875 37.203125 44.609375 42.84375 
Q 40.53125 48.484375 33.40625 48.484375 
Q 26.265625 48.484375 22.1875 42.84375 
Q 18.109375 37.203125 18.109375 27.296875 
Q 18.109375 17.390625 22.1875 11.75 
Q 26.265625 6.109375 33.40625 6.109375 
Q 40.53125 6.109375 44.609375 11.75 
Q 48.6875 17.390625 48.6875 27.296875 
z
" id="DejaVuSans-112"/>
     </defs>
     <g transform="translate(17.619531 286.339375)rotate(-90)scale(0.17 -0.17)">
      <use xlink:href="#DejaVuSans-70"/>
      <use x="57.410156" xlink:href="#DejaVuSans-114"/>
      <use x="98.523438" xlink:href="#DejaVuSans-97"/>
      <use x="159.802734" xlink:href="#DejaVuSans-99"/>
      <use x="214.783203" xlink:href="#DejaVuSans-116"/>
      <use x="253.992188" xlink:href="#DejaVuSans-105"/>
      <use x="281.775391" xlink:href="#DejaVuSans-111"/>
      <use x="342.957031" xlink:href="#DejaVuSans-110"/>
      <use x="406.335938" xlink:href="#DejaVuSans-32"/>
      <use x="438.123047" xlink:href="#DejaVuSans-111"/>
      <use x="499.304688" xlink:href="#DejaVuSans-102"/>
      <use x="534.509766" xlink:href="#DejaVuSans-32"/>
      <use x="566.296875" xlink:href="#DejaVuSans-102"/>
      <use x="601.501953" xlink:href="#DejaVuSans-117"/>
      <use x="664.880859" xlink:href="#DejaVuSans-110"/>
      <use x="728.259766" xlink:href="#DejaVuSans-99"/>
      <use x="783.240234" xlink:href="#DejaVuSans-116"/>
      <use x="822.449219" xlink:href="#DejaVuSans-105"/>
      <use x="850.232422" xlink:href="#DejaVuSans-111"/>
      <use x="911.414062" xlink:href="#DejaVuSans-110"/>
      <use x="974.792969" xlink:href="#DejaVuSans-44"/>
      <use x="1006.580078" xlink:href="#DejaVuSans-116"/>
      <use x="1045.789062" xlink:href="#DejaVuSans-97"/>
      <use x="1107.068359" xlink:href="#DejaVuSans-114"/>
      <use x="1148.166016" xlink:href="#DejaVuSans-103"/>
      <use x="1211.642578" xlink:href="#DejaVuSans-101"/>
      <use x="1273.166016" xlink:href="#DejaVuSans-116"/>
      <use x="1312.375" xlink:href="#DejaVuSans-32"/>
      <use x="1344.162109" xlink:href="#DejaVuSans-112"/>
      <use x="1407.638672" xlink:href="#DejaVuSans-97"/>
      <use x="1468.917969" xlink:href="#DejaVuSans-105"/>
      <use x="1496.701172" xlink:href="#DejaVuSans-114"/>
      <use x="1537.814453" xlink:href="#DejaVuSans-115"/>
     </g>
    </g>
   </g>
   <g id="line2d_29">
    <defs>
     <path d="M 0 1.5 
C 0.397805 1.5 0.77937 1.341951 1.06066 1.06066 
C 1.341951 0.77937 1.5 0.397805 1.5 0 
C 1.5 -0.397805 1.341951 -0.77937 1.06066 -1.06066 
C 0.77937 -1.341951 0.397805 -1.5 0 -1.5 
C -0.397805 -1.5 -0.77937 -1.341951 -1.06066 -1.06066 
C -1.341951 -0.77937 -1.5 -0.397805 -1.5 0 
C -1.5 0.397805 -1.341951 0.77937 -1.06066 1.06066 
C -0.77937 1.341951 -0.397805 1.5 0 1.5 
z
" id="m53ce6b2d59" style="stroke:#00bfbf;"/>
    </defs>
    <g>
     <use style="fill:#00bfbf;stroke:#00bfbf;" x="210.5217" xlink:href="#m53ce6b2d59" y="214.043546"/>
     <use style="fill:#00bfbf;stroke:#00bfbf;" x="210.5217" xlink:href="#m53ce6b2d59" y="214.043546"/>
    </g>
   </g>
   <g id="line2d_30">
    <path d="M 45.512012 298.944 
L 45.512012 283.340673 
L 57.6 283.340673 
L 57.6 278.636729 
L 64.67102 278.636729 
L 64.67102 277.489426 
L 69.687988 277.489426 
L 69.687988 273.359133 
L 73.579452 273.359133 
L 73.579452 270.949796 
L 76.759008 270.949796 
L 76.759008 269.343571 
L 79.447285 269.343571 
L 79.447285 267.737347 
L 81.775977 267.737347 
L 81.775977 267.163695 
L 83.830028 267.163695 
L 83.830028 266.475313 
L 85.66744 266.475313 
L 85.66744 265.44274 
L 87.329581 265.44274 
L 87.329581 264.524897 
L 88.846997 264.524897 
L 88.846997 264.180706 
L 90.242884 264.180706 
L 90.242884 263.951245 
L 91.535274 263.951245 
L 91.535274 263.148133 
L 92.73846 263.148133 
L 92.73846 262.689211 
L 94.921215 262.689211 
L 94.921215 262.000829 
L 95.918017 262.000829 
L 95.918017 261.541908 
L 96.86091 261.541908 
L 96.86091 261.197717 
L 97.755429 261.197717 
L 97.755429 260.394605 
L 98.606294 260.394605 
L 98.606294 259.476762 
L 99.41757 259.476762 
L 99.41757 258.673649 
L 100.192776 258.673649 
L 100.192776 258.214728 
L 100.934985 258.214728 
L 100.934985 258.099998 
L 101.646892 258.099998 
L 101.646892 257.641076 
L 102.330873 257.641076 
L 102.330873 256.149582 
L 104.23523 256.149582 
L 104.23523 255.805391 
L 104.826449 255.805391 
L 104.826449 255.69066 
L 106.48859 255.69066 
L 106.48859 255.4612 
L 107.009204 255.4612 
L 107.009204 255.346469 
L 107.514726 255.346469 
L 107.514726 255.117009 
L 108.006005 255.117009 
L 108.006005 255.002278 
L 108.483824 255.002278 
L 108.483824 254.887548 
L 109.401893 254.887548 
L 109.401893 254.658087 
L 110.274038 254.658087 
L 110.274038 254.543357 
L 111.104637 254.543357 
L 111.104637 254.428627 
L 112.280765 254.428627 
L 112.280765 254.313896 
L 113.382559 254.313896 
L 113.382559 253.625514 
L 114.418861 253.625514 
L 114.418861 252.707672 
L 114.751048 252.707672 
L 114.751048 251.789829 
L 115.711251 251.789829 
L 115.711251 251.560368 
L 116.019919 251.560368 
L 116.019919 251.330907 
L 116.323218 251.330907 
L 116.323218 251.216177 
L 116.621333 251.216177 
L 116.621333 251.101447 
L 116.914437 251.101447 
L 116.914437 250.986716 
L 117.202696 250.986716 
L 117.202696 250.527795 
L 117.486268 250.527795 
L 117.486268 250.183604 
L 117.765302 250.183604 
L 117.765302 249.151031 
L 118.039942 249.151031 
L 118.039942 249.036301 
L 126.168212 249.036301 
L 126.168212 248.92157 
L 126.338353 248.92157 
L 126.338353 248.80684 
L 127.002787 248.80684 
L 127.002787 248.462649 
L 127.642832 248.462649 
L 127.642832 248.347918 
L 127.799239 248.347918 
L 127.799239 247.888997 
L 133.352844 247.888997 
L 133.352844 247.774267 
L 133.46572 247.774267 
L 133.46572 247.430076 
L 133.57787 247.430076 
L 133.57787 247.315345 
L 133.910056 247.315345 
L 134.019394 247.085885 
L 134.12805 247.085885 
L 134.236034 246.168042 
L 134.343353 246.168042 
L 134.450015 245.938581 
L 137.997836 245.938581 
L 138.084384 244.676547 
L 138.256201 244.676547 
L 138.341479 244.217626 
L 138.510793 244.217626 
L 138.510793 244.102896 
L 138.84457 244.102896 
L 138.84457 243.988165 
L 139.009092 243.988165 
L 139.090775 243.758705 
L 139.572998 243.758705 
L 139.652088 242.840862 
L 139.730821 242.840862 
L 139.8092 242.15248 
L 139.964909 242.15248 
L 140.042245 241.808289 
L 140.348205 241.808289 
L 140.348205 241.693559 
L 141.017599 241.693559 
L 141.017599 241.578828 
L 141.307054 241.578828 
L 141.307054 241.349368 
L 141.941279 241.349368 
L 141.941279 241.005176 
L 142.486301 241.005176 
L 142.553247 240.431525 
L 142.619936 240.431525 
L 142.686372 239.972603 
L 142.752555 239.972603 
L 142.752555 239.857873 
L 145.155404 239.857873 
L 145.155404 239.628412 
L 145.440832 239.628412 
L 145.440832 239.398952 
L 145.609873 239.398952 
L 145.665858 238.94003 
L 148.209809 238.94003 
L 148.306159 238.481109 
L 148.354135 238.481109 
L 148.354135 238.366379 
L 150.085825 238.366379 
L 150.085825 237.792727 
L 150.47195 237.792727 
L 150.556607 237.563266 
L 150.766468 237.563266 
L 150.849711 237.219075 
L 150.891184 237.219075 
L 150.932558 236.989614 
L 151.097081 236.989614 
L 151.097081 236.645423 
L 151.260066 236.645423 
L 151.260066 236.530693 
L 152.0141 236.530693 
L 152.0141 236.186502 
L 152.130233 236.186502 
L 152.168773 235.957041 
L 152.322086 235.957041 
L 152.322086 235.842311 
L 152.474064 235.842311 
L 152.549559 235.153929 
L 154.303908 235.153929 
L 154.303908 234.465547 
L 155.710272 234.465547 
L 155.710272 234.350817 
L 155.897793 234.350817 
L 155.897793 234.236086 
L 157.1279 234.236086 
L 157.1279 233.777165 
L 157.38669 233.777165 
L 157.38669 233.662434 
L 157.641697 233.662434 
L 157.641697 232.629861 
L 157.809652 232.629861 
L 157.809652 232.515131 
L 158.276927 232.515131 
L 158.276927 232.400401 
L 158.51933 232.400401 
L 158.51933 232.17094 
L 158.75841 232.17094 
L 158.811096 231.367828 
L 159.832723 231.367828 
L 159.832723 231.253097 
L 159.956318 231.253097 
L 159.956318 231.023637 
L 161.238149 231.023637 
L 161.238149 230.908906 
L 162.130378 230.908906 
L 162.130378 230.564715 
L 162.367945 230.564715 
L 162.367945 230.449985 
L 162.517456 230.449985 
L 162.559939 229.876333 
L 162.644595 229.876333 
L 162.644595 229.761603 
L 163.123555 229.761603 
L 163.123555 229.646872 
L 163.368321 229.646872 
L 163.428979 228.95849 
L 164.371873 228.95849 
L 164.371873 228.72903 
L 165.175324 228.72903 
L 165.284547 228.499569 
L 166.013141 228.499569 
L 166.013141 228.040648 
L 166.289413 228.040648 
L 166.357802 227.352266 
L 166.945039 227.352266 
L 167.043752 226.778614 
L 167.76681 226.778614 
L 167.76681 226.663884 
L 169.186895 226.663884 
L 169.186895 226.204962 
L 169.446113 226.204962 
L 169.446113 225.860771 
L 170.050192 225.860771 
L 170.050192 225.40185 
L 171.871027 225.40185 
L 171.871027 225.172389 
L 172.093501 225.172389 
L 172.093501 225.057659 
L 172.589897 225.057659 
L 172.613754 224.713468 
L 173.677313 224.713468 
L 173.677313 224.598737 
L 174.196608 224.598737 
L 174.196608 224.139816 
L 174.391462 224.139816 
L 174.391462 224.025086 
L 174.84832 224.025086 
L 174.84832 223.795625 
L 176.24824 223.795625 
L 176.24824 223.680895 
L 176.421575 223.680895 
L 176.421575 223.566164 
L 176.810078 223.566164 
L 176.82881 223.221973 
L 177.66942 223.221973 
L 177.66942 223.107243 
L 178.083716 223.107243 
L 178.083716 222.763052 
L 179.744273 222.763052 
L 179.744273 222.30413 
L 179.886249 222.30413 
L 179.886249 221.959939 
L 180.220807 221.959939 
L 180.228512 221.271557 
L 180.564187 221.271557 
L 180.564187 221.156827 
L 181.260369 221.156827 
L 181.260369 221.042097 
L 181.390568 221.042097 
L 181.433752 220.697906 
L 182.65514 220.697906 
L 182.65514 220.353715 
L 182.775365 220.353715 
L 182.815256 220.009524 
L 183.059259 220.009524 
L 183.059259 219.894793 
L 183.37723 219.894793 
L 183.37723 219.780063 
L 183.946572 219.780063 
L 183.946572 219.550602 
L 184.322154 219.550602 
L 184.322154 219.435872 
L 185.148928 219.435872 
L 185.148928 219.091681 
L 186.273707 219.091681 
L 186.273707 218.86222 
L 187.330316 218.86222 
L 187.422344 218.403299 
L 188.097498 218.403299 
L 188.097498 218.288568 
L 188.326548 218.288568 
L 188.326548 218.173838 
L 189.268932 218.173838 
L 189.351301 217.829647 
L 190.162992 217.829647 
L 190.162992 217.600186 
L 191.013442 217.600186 
L 191.087987 217.255995 
L 191.256603 217.255995 
L 191.256603 217.141265 
L 191.82434 217.141265 
L 191.82434 217.026535 
L 192.599203 217.026535 
L 192.599203 216.682344 
L 192.821362 216.682344 
L 192.821362 216.567613 
L 193.406344 216.567613 
L 193.406344 216.452883 
L 193.736073 216.452883 
L 193.736073 216.338153 
L 194.257209 216.338153 
L 194.257209 216.223422 
L 196.028335 216.223422 
L 196.028335 216.108692 
L 196.211045 216.108692 
L 196.211045 215.993962 
L 196.816531 215.993962 
L 196.816531 215.879231 
L 197.231106 215.879231 
L 197.231106 215.764501 
L 197.80275 215.764501 
L 197.80275 215.53504 
L 198.940202 215.53504 
L 198.940202 215.42031 
L 199.459266 215.42031 
L 199.459266 215.305579 
L 201.352333 215.305579 
L 201.352333 215.190849 
L 202.049368 215.190849 
L 202.049368 215.076119 
L 202.246622 215.076119 
L 202.285806 214.846658 
L 202.909467 214.846658 
L 202.909467 214.731928 
L 203.507538 214.731928 
L 203.507538 214.617197 
L 204.417964 214.617197 
L 204.417964 214.502467 
L 206.82106 214.502467 
L 206.82106 214.273006 
L 207.577305 214.273006 
L 207.577305 214.158276 
L 210.5217 214.158276 
L 210.5217 214.043546 
L 338.688 214.043546 
L 338.688 214.043546 
" style="fill:none;stroke:#00bfbf;stroke-linecap:square;stroke-width:1.5;"/>
   </g>
   <g id="line2d_31">
    <defs>
     <path d="M -6 0 
L 6 0 
M 0 6 
L 0 -6 
" id="m0dc71b367e" style="stroke:#00bfbf;stroke-width:1.5;"/>
    </defs>
    <g>
     <use style="fill-opacity:0;stroke:#00bfbf;stroke-width:1.5;" x="64.67102" xlink:href="#m0dc71b367e" y="277.489426"/>
     <use style="fill-opacity:0;stroke:#00bfbf;stroke-width:1.5;" x="118.039942" xlink:href="#m0dc71b367e" y="249.036301"/>
     <use style="fill-opacity:0;stroke:#00bfbf;stroke-width:1.5;" x="179.744273" xlink:href="#m0dc71b367e" y="222.30413"/>
     <use style="fill-opacity:0;stroke:#00bfbf;stroke-width:1.5;" x="210.5217" xlink:href="#m0dc71b367e" y="214.158276"/>
     <use style="fill-opacity:0;stroke:#00bfbf;stroke-width:1.5;" x="210.5217" xlink:href="#m0dc71b367e" y="214.043546"/>
     <use style="fill-opacity:0;stroke:#00bfbf;stroke-width:1.5;" x="338.688" xlink:href="#m0dc71b367e" y="214.043546"/>
    </g>
   </g>
   <g id="line2d_32">
    <path style="fill:none;stroke:#00bfbf;stroke-linecap:square;stroke-width:1.5;"/>
    <g/>
   </g>
   <g id="line2d_33">
    <path clip-path="url(#p4a3079982a)" d="M 137.910857 245.938581 
" style="fill:none;stroke:#00bfbf;stroke-linecap:square;stroke-width:1.5;"/>
    <defs>
     <path d="M -12 12 
L 12 -12 
M -12 -12 
L 12 12 
" id="m8f75f6fe5b" style="stroke:#00bfbf;"/>
    </defs>
    <g clip-path="url(#p4a3079982a)">
     <use style="fill:#00bfbf;stroke:#00bfbf;" x="137.910857" xlink:href="#m8f75f6fe5b" y="245.938581"/>
    </g>
   </g>
   <g id="line2d_34">
    <defs>
     <path d="M 0 1.5 
C 0.397805 1.5 0.77937 1.341951 1.06066 1.06066 
C 1.341951 0.77937 1.5 0.397805 1.5 0 
C 1.5 -0.397805 1.341951 -0.77937 1.06066 -1.06066 
C 0.77937 -1.341951 0.397805 -1.5 0 -1.5 
C -0.397805 -1.5 -0.77937 -1.341951 -1.06066 -1.06066 
C -1.341951 -0.77937 -1.5 -0.397805 -1.5 0 
C -1.5 0.397805 -1.341951 0.77937 -1.06066 1.06066 
C -0.77937 1.341951 -0.397805 1.5 0 1.5 
z
" id="m6bfbfa78e6" style="stroke:#008000;"/>
    </defs>
    <g>
     <use style="fill:#008000;stroke:#008000;" x="209.317158" xlink:href="#m6bfbfa78e6" y="243.873435"/>
     <use style="fill:#008000;stroke:#008000;" x="209.317158" xlink:href="#m6bfbfa78e6" y="243.873435"/>
    </g>
   </g>
   <g id="line2d_35">
    <path d="M 38.440992 298.944 
L 38.440992 282.767022 
L 50.52898 282.767022 
L 50.52898 280.357684 
L 57.6 280.357684 
L 57.6 278.407268 
L 62.616969 278.407268 
L 62.616969 276.456853 
L 66.508432 276.456853 
L 66.508432 275.42428 
L 69.687988 275.42428 
L 69.687988 274.047515 
L 72.376266 274.047515 
L 72.376266 273.473864 
L 74.704957 273.473864 
L 74.704957 273.014942 
L 76.759008 273.014942 
L 76.759008 271.982369 
L 78.59642 271.982369 
L 78.59642 271.523448 
L 80.258561 271.523448 
L 80.258561 271.179257 
L 81.775977 271.179257 
L 81.775977 271.064526 
L 83.171864 271.064526 
L 83.171864 270.490875 
L 84.464254 270.490875 
L 84.464254 270.261414 
L 85.66744 270.261414 
L 85.66744 269.458302 
L 87.850195 269.458302 
L 87.850195 268.655189 
L 88.846997 268.655189 
L 88.846997 268.540459 
L 89.78989 268.540459 
L 89.78989 267.737347 
L 91.535274 267.737347 
L 91.535274 267.622616 
L 92.34655 267.622616 
L 92.34655 267.163695 
L 98.32726 267.163695 
L 98.32726 267.048964 
L 98.880934 267.048964 
L 98.880934 266.819504 
L 99.938184 266.819504 
L 99.938184 266.704773 
L 100.934985 266.704773 
L 100.934985 266.590043 
L 101.412804 266.590043 
L 101.412804 266.245852 
L 102.772397 266.245852 
L 102.772397 266.131122 
L 103.623262 266.131122 
L 103.623262 265.901661 
L 104.434538 265.901661 
L 104.434538 265.786931 
L 105.951954 265.786931 
L 105.951954 265.44274 
L 107.347841 265.44274 
L 107.347841 265.328009 
L 107.680028 265.328009 
L 107.680028 264.983818 
L 109.252198 264.983818 
L 109.252198 264.754358 
L 109.550313 264.754358 
L 109.550313 264.180706 
L 110.131676 264.180706 
L 110.131676 264.065976 
L 110.415248 264.065976 
L 110.415248 263.951245 
L 119.097192 263.951245 
L 119.097192 263.721785 
L 119.43583 263.721785 
L 119.43583 263.607054 
L 119.602714 263.607054 
L 119.602714 263.262863 
L 120.093994 263.262863 
L 120.093994 263.148133 
L 120.41399 263.148133 
L 120.41399 262.689211 
L 120.571812 262.689211 
L 120.571812 262.574481 
L 126.053856 262.574481 
L 126.053856 262.459751 
L 126.948374 262.459751 
L 127.05703 262.000829 
L 127.165014 262.000829 
L 127.165014 261.771369 
L 127.378995 261.771369 
L 127.378995 261.656638 
L 131.099484 261.656638 
L 131.185181 260.968256 
L 131.270459 260.968256 
L 131.355321 260.624065 
L 131.938072 260.624065 
L 132.019755 260.165144 
L 134.870259 260.165144 
L 134.870259 260.050414 
L 135.415281 260.050414 
L 135.415281 259.935683 
L 135.548916 259.935683 
L 135.548916 259.706222 
L 137.968891 259.706222 
L 137.968891 259.476762 
L 138.084384 259.476762 
L 138.141844 259.132571 
L 138.199116 259.132571 
L 138.199116 259.01784 
L 138.426341 259.01784 
L 138.426341 258.78838 
L 138.538853 258.78838 
L 138.538853 258.444189 
L 138.872098 258.444189 
L 138.981779 258.214728 
L 139.145019 258.214728 
L 139.253002 257.870537 
L 139.678372 257.870537 
L 139.678372 257.641076 
L 139.939053 257.641076 
L 139.939053 257.526346 
L 140.195896 257.526346 
L 140.195896 257.411616 
L 140.846504 257.411616 
L 140.846504 257.296885 
L 140.993259 257.296885 
L 141.041904 256.952694 
L 145.251067 256.952694 
L 145.251067 256.837964 
L 145.403044 256.837964 
L 145.440832 256.379043 
L 145.516164 256.379043 
L 145.516164 256.264312 
L 146.923612 256.264312 
L 147.027314 255.4612 
L 148.54473 255.4612 
L 148.54473 255.346469 
L 148.76449 255.346469 
L 148.857832 254.887548 
L 150.085825 254.887548 
L 150.114722 254.543357 
L 150.258492 254.543357 
L 150.31567 254.313896 
L 150.542526 254.313896 
L 150.542526 254.199166 
L 151.178764 254.199166 
L 151.178764 254.084436 
L 151.634543 254.084436 
L 151.634543 253.969705 
L 152.736878 253.969705 
L 152.736878 253.854975 
L 152.885298 253.854975 
L 152.885298 253.740245 
L 154.05232 253.740245 
L 154.05232 253.625514 
L 154.167129 253.625514 
L 154.167129 253.510784 
L 155.102793 253.510784 
L 155.146121 252.937132 
L 155.296925 252.937132 
L 155.296925 252.707672 
L 156.277034 252.707672 
L 156.317544 252.478211 
L 157.147202 252.478211 
L 157.147202 252.24875 
L 157.434196 252.24875 
L 157.434196 252.13402 
L 157.883783 252.13402 
L 157.883783 252.019289 
L 159.791329 252.019289 
L 159.791329 251.904559 
L 159.956318 251.904559 
L 159.956318 251.675098 
L 160.664283 251.675098 
L 160.664283 251.560368 
L 161.525657 251.560368 
L 161.525657 251.330907 
L 162.144868 251.330907 
L 162.144868 251.101447 
L 162.616422 251.101447 
L 162.700806 250.871986 
L 162.923853 250.871986 
L 162.923853 250.757256 
L 165.53081 250.757256 
L 165.53081 250.642525 
L 166.013141 250.642525 
L 166.013141 250.527795 
L 166.197807 250.527795 
L 166.197807 250.413065 
L 166.471192 250.413065 
L 166.471192 250.183604 
L 166.651096 250.183604 
L 166.651096 250.068874 
L 167.190782 250.068874 
L 167.212459 249.839413 
L 167.76681 249.839413 
L 167.76681 249.495222 
L 168.202038 249.495222 
L 168.222494 248.92157 
L 169.340971 248.92157 
L 169.340971 248.80684 
L 170.192293 248.80684 
L 170.192293 248.692109 
L 171.030109 248.692109 
L 171.030109 248.577379 
L 171.527673 248.577379 
L 171.527673 248.347918 
L 171.879317 248.347918 
L 171.879317 248.233188 
L 172.003206 248.233188 
L 172.003206 248.118458 
L 172.720707 248.118458 
L 172.720707 248.003727 
L 173.462916 248.003727 
L 173.478048 247.774267 
L 173.896491 247.774267 
L 173.896491 247.659536 
L 175.981689 247.659536 
L 175.981689 247.544806 
L 176.254691 247.544806 
L 176.351165 247.315345 
L 176.925272 247.315345 
L 176.925272 247.200615 
L 178.083716 247.200615 
L 178.176386 246.971154 
L 178.405929 246.971154 
L 178.405929 246.856424 
L 179.828547 246.856424 
L 179.828547 246.626963 
L 181.337641 246.626963 
L 181.337641 246.512233 
L 181.770731 246.512233 
L 181.770731 246.282772 
L 182.726484 246.282772 
L 182.726484 246.168042 
L 184.012834 246.168042 
L 184.012834 246.053312 
L 184.761242 246.053312 
L 184.761242 245.938581 
L 186.277338 245.938581 
L 186.277338 245.47966 
L 186.4615 245.47966 
L 186.4615 245.36493 
L 187.38491 245.36493 
L 187.38491 245.250199 
L 188.493586 245.250199 
L 188.493586 245.135469 
L 188.96354 245.135469 
L 188.96354 245.020738 
L 191.016209 245.020738 
L 191.016209 244.906008 
L 194.738659 244.906008 
L 194.738659 244.791278 
L 196.67212 244.791278 
L 196.67212 244.676547 
L 198.175529 244.676547 
L 198.175529 244.561817 
L 198.920872 244.561817 
L 198.920872 244.447087 
L 199.440504 244.447087 
L 199.440504 244.332356 
L 201.376786 244.332356 
L 201.376786 244.217626 
L 202.678554 244.217626 
L 202.678554 244.102896 
L 208.114248 244.102896 
L 208.114248 243.988165 
L 209.317158 243.988165 
L 209.317158 243.873435 
L 338.688 243.873435 
L 338.688 243.873435 
" style="fill:none;stroke:#008000;stroke-linecap:square;stroke-width:1.5;"/>
   </g>
   <g id="line2d_36">
    <defs>
     <path d="M -0 6 
L 6 -6 
L -6 -6 
z
" id="m02057d7249" style="stroke:#008000;stroke-linejoin:miter;stroke-width:1.5;"/>
    </defs>
    <g>
     <use style="fill-opacity:0;stroke:#008000;stroke-linejoin:miter;stroke-width:1.5;" x="98.880934" xlink:href="#m02057d7249" y="266.819504"/>
     <use style="fill-opacity:0;stroke:#008000;stroke-linejoin:miter;stroke-width:1.5;" x="157.883783" xlink:href="#m02057d7249" y="252.13402"/>
     <use style="fill-opacity:0;stroke:#008000;stroke-linejoin:miter;stroke-width:1.5;" x="209.317158" xlink:href="#m02057d7249" y="243.988165"/>
     <use style="fill-opacity:0;stroke:#008000;stroke-linejoin:miter;stroke-width:1.5;" x="209.317158" xlink:href="#m02057d7249" y="243.873435"/>
     <use style="fill-opacity:0;stroke:#008000;stroke-linejoin:miter;stroke-width:1.5;" x="209.317158" xlink:href="#m02057d7249" y="243.873435"/>
     <use style="fill-opacity:0;stroke:#008000;stroke-linejoin:miter;stroke-width:1.5;" x="338.688" xlink:href="#m02057d7249" y="243.873435"/>
    </g>
   </g>
   <g id="line2d_37">
    <path style="fill:none;stroke:#008000;stroke-linecap:square;stroke-width:1.5;"/>
    <g/>
   </g>
   <g id="line2d_38">
    <path clip-path="url(#p4a3079982a)" d="M 137.910857 259.706222 
" style="fill:none;stroke:#008000;stroke-linecap:square;stroke-width:1.5;"/>
    <defs>
     <path d="M -12 12 
L 12 -12 
M -12 -12 
L 12 12 
" id="mbe2ce12ad8" style="stroke:#008000;"/>
    </defs>
    <g clip-path="url(#p4a3079982a)">
     <use style="fill:#008000;stroke:#008000;" x="137.910857" xlink:href="#mbe2ce12ad8" y="259.706222"/>
    </g>
   </g>
   <g id="line2d_39">
    <defs>
     <path d="M 0 1.5 
C 0.397805 1.5 0.77937 1.341951 1.06066 1.06066 
C 1.341951 0.77937 1.5 0.397805 1.5 0 
C 1.5 -0.397805 1.341951 -0.77937 1.06066 -1.06066 
C 0.77937 -1.341951 0.397805 -1.5 0 -1.5 
C -0.397805 -1.5 -0.77937 -1.341951 -1.06066 -1.06066 
C -1.341951 -0.77937 -1.5 -0.397805 -1.5 0 
C -1.5 0.397805 -1.341951 0.77937 -1.06066 1.06066 
C -0.77937 1.341951 -0.397805 1.5 0 1.5 
z
" id="md65eed36a1" style="stroke:#0000ff;"/>
    </defs>
    <g>
     <use style="fill:#0000ff;stroke:#0000ff;" x="209.775635" xlink:href="#md65eed36a1" y="256.493773"/>
     <use style="fill:#0000ff;stroke:#0000ff;" x="209.775635" xlink:href="#md65eed36a1" y="256.493773"/>
    </g>
   </g>
   <g id="line2d_40">
    <path d="M 29.53256 298.944 
L 29.53256 286.667853 
L 41.620548 286.667853 
L 41.620548 283.684864 
L 48.691568 283.684864 
L 48.691568 282.19337 
L 53.708537 282.19337 
L 53.708537 280.587145 
L 57.6 280.587145 
L 57.6 279.898763 
L 60.779557 279.898763 
L 60.779557 279.325111 
L 63.467834 279.325111 
L 63.467834 279.210381 
L 65.796525 279.210381 
L 65.796525 278.98092 
L 67.850577 278.98092 
L 67.850577 278.86619 
L 69.687988 278.86619 
L 69.687988 278.063077 
L 71.35013 278.063077 
L 71.35013 277.718886 
L 74.263433 277.718886 
L 74.263433 277.489426 
L 75.555822 277.489426 
L 75.555822 277.374695 
L 76.759008 277.374695 
L 76.759008 277.259965 
L 78.941764 277.259965 
L 78.941764 277.145235 
L 80.881459 277.145235 
L 80.881459 276.915774 
L 81.775977 276.915774 
L 81.775977 276.686313 
L 82.626842 276.686313 
L 82.626842 276.571583 
L 83.438118 276.571583 
L 83.438118 276.456853 
L 84.955534 276.456853 
L 84.955534 276.112662 
L 85.66744 276.112662 
L 85.66744 275.65374 
L 86.351421 275.65374 
L 86.351421 275.53901 
L 88.255778 275.53901 
L 88.255778 275.42428 
L 88.846997 275.42428 
L 88.846997 275.309549 
L 89.418828 275.309549 
L 89.418828 275.194819 
L 90.509138 275.194819 
L 90.509138 275.080089 
L 91.535274 275.080089 
L 91.535274 274.965358 
L 92.504372 274.965358 
L 92.504372 274.850628 
L 94.294587 274.850628 
L 94.294587 274.621167 
L 96.676366 274.621167 
L 96.676366 274.506437 
L 98.771596 274.506437 
L 98.771596 274.391706 
L 99.097574 274.391706 
L 99.097574 274.276976 
L 99.41757 274.276976 
L 99.41757 274.047515 
L 99.731799 274.047515 
L 99.731799 273.703324 
L 100.040467 273.703324 
L 100.040467 273.588594 
L 100.641881 273.588594 
L 100.641881 273.473864 
L 100.934985 273.473864 
L 100.934985 273.359133 
L 101.506816 273.359133 
L 101.506816 272.900212 
L 101.785851 272.900212 
L 101.785851 272.785482 
L 110.188761 272.785482 
L 110.188761 272.670751 
L 110.859585 272.670751 
L 110.859585 272.556021 
L 111.185562 272.556021 
L 111.185562 272.32656 
L 111.974805 272.32656 
L 111.974805 272.21183 
L 117.259781 272.21183 
L 117.259781 271.982369 
L 117.709852 271.982369 
L 117.820578 271.752909 
L 122.104932 271.752909 
L 122.191052 271.293987 
L 122.276749 271.293987 
L 122.276749 271.179257 
L 122.699028 271.179257 
L 122.782271 270.835066 
L 122.865118 270.835066 
L 122.947573 270.605605 
L 125.961828 270.605605 
L 125.961828 270.490875 
L 126.099688 270.490875 
L 126.099688 270.146684 
L 126.304457 270.146684 
L 126.304457 270.031953 
L 129.118302 270.031953 
L 129.118302 269.802493 
L 129.347769 269.802493 
L 129.347769 269.458302 
L 129.51791 269.458302 
L 129.574256 269.114111 
L 129.742212 269.114111 
L 129.742212 268.99938 
L 132.326708 268.99938 
L 132.374684 268.655189 
L 134.450015 268.655189 
L 134.450015 268.425729 
L 138.01518 268.425729 
L 138.049816 267.966807 
L 138.728473 267.966807 
L 138.761723 267.622616 
L 138.89409 267.622616 
L 138.89409 267.507886 
L 139.090775 267.507886 
L 139.090775 267.393156 
L 139.762215 267.393156 
L 139.793552 267.048964 
L 139.9494 267.048964 
L 139.9494 266.819504 
L 142.699628 266.819504 
L 142.699628 266.704773 
L 143.87806 266.704773 
L 143.87806 266.590043 
L 144.001481 266.590043 
L 144.001481 266.475313 
L 145.02832 266.475313 
L 145.074639 266.245852 
L 146.194362 266.245852 
L 146.194362 266.016391 
L 146.324022 266.016391 
L 146.324022 265.786931 
L 147.449528 265.786931 
L 147.449528 265.328009 
L 149.232356 265.328009 
L 149.232356 265.213279 
L 150.051085 265.213279 
L 150.051085 265.098549 
L 150.799813 265.098549 
L 150.799813 264.983818 
L 153.221946 264.983818 
L 153.308709 264.754358 
L 153.946025 264.754358 
L 153.946025 264.524897 
L 154.627867 264.524897 
L 154.654594 263.607054 
L 155.412374 263.607054 
L 155.412374 263.377593 
L 156.562634 263.377593 
L 156.562634 263.262863 
L 157.358125 263.262863 
L 157.358125 263.148133 
L 157.77619 263.148133 
L 157.77619 262.918672 
L 158.816356 262.918672 
L 158.816356 262.803942 
L 159.283369 262.803942 
L 159.283369 262.689211 
L 159.778062 262.689211 
L 159.797958 262.34502 
L 160.858717 262.34502 
L 160.858717 262.23029 
L 162.112973 262.23029 
L 162.112973 262.11556 
L 163.820172 262.11556 
L 163.828065 261.886099 
L 164.569616 261.886099 
L 164.569616 261.771369 
L 165.00282 261.771369 
L 165.00282 261.656638 
L 166.020101 261.656638 
L 166.020101 261.541908 
L 166.405516 261.541908 
L 166.405516 261.427178 
L 167.04047 261.427178 
L 167.04047 261.312447 
L 167.339809 261.312447 
L 167.378477 261.082987 
L 167.991998 261.082987 
L 167.991998 260.853526 
L 170.299701 260.853526 
L 170.299701 260.738796 
L 170.575192 260.738796 
L 170.575192 260.509335 
L 171.63055 260.509335 
L 171.63055 260.394605 
L 171.970255 260.394605 
L 171.970255 260.279874 
L 172.61137 260.279874 
L 172.61137 260.165144 
L 173.571573 260.165144 
L 173.571573 260.050414 
L 175.693692 260.050414 
L 175.693692 259.820953 
L 176.826938 259.820953 
L 176.826938 259.706222 
L 177.179109 259.706222 
L 177.186447 259.362031 
L 177.390674 259.362031 
L 177.390674 259.247301 
L 177.915659 259.247301 
L 177.915659 259.132571 
L 178.605458 259.132571 
L 178.605458 258.90311 
L 179.09561 258.90311 
L 179.09561 258.78838 
L 180.219266 258.78838 
L 180.219266 258.558919 
L 180.360501 258.558919 
L 180.378838 258.214728 
L 180.666647 258.214728 
L 180.666647 258.099998 
L 180.846003 258.099998 
L 180.846003 257.985267 
L 183.057949 257.985267 
L 183.057949 257.870537 
L 188.802221 257.870537 
L 188.802221 257.641076 
L 193.135057 257.641076 
L 193.135057 257.526346 
L 194.396551 257.526346 
L 194.396551 257.411616 
L 196.216589 257.411616 
L 196.216589 257.296885 
L 198.138056 257.296885 
L 198.138056 257.182155 
L 200.753994 257.182155 
L 200.753994 257.067425 
L 201.168765 257.067425 
L 201.168765 256.952694 
L 201.940585 256.952694 
L 201.940585 256.837964 
L 207.350114 256.837964 
L 207.387807 256.608503 
L 209.775635 256.608503 
L 209.775635 256.493773 
L 338.688 256.493773 
L 338.688 256.493773 
" style="fill:none;stroke:#0000ff;stroke-linecap:square;stroke-width:1.5;"/>
   </g>
   <g id="line2d_41">
    <defs>
     <path d="M 0 -6 
L -1.347084 -1.854102 
L -5.706339 -1.854102 
L -2.179628 0.708204 
L -3.526712 4.854102 
L -0 2.291796 
L 3.526712 4.854102 
L 2.179628 0.708204 
L 5.706339 -1.854102 
L 1.347084 -1.854102 
z
" id="m80325c8330" style="stroke:#0000ff;stroke-linejoin:bevel;stroke-width:1.5;"/>
    </defs>
    <g>
     <use style="fill-opacity:0;stroke:#0000ff;stroke-linejoin:bevel;stroke-width:1.5;" x="83.438118" xlink:href="#m80325c8330" y="276.571583"/>
     <use style="fill-opacity:0;stroke:#0000ff;stroke-linejoin:bevel;stroke-width:1.5;" x="147.449528" xlink:href="#m80325c8330" y="265.786931"/>
     <use style="fill-opacity:0;stroke:#0000ff;stroke-linejoin:bevel;stroke-width:1.5;" x="201.940585" xlink:href="#m80325c8330" y="256.952694"/>
     <use style="fill-opacity:0;stroke:#0000ff;stroke-linejoin:bevel;stroke-width:1.5;" x="209.775635" xlink:href="#m80325c8330" y="256.493773"/>
     <use style="fill-opacity:0;stroke:#0000ff;stroke-linejoin:bevel;stroke-width:1.5;" x="209.775635" xlink:href="#m80325c8330" y="256.493773"/>
     <use style="fill-opacity:0;stroke:#0000ff;stroke-linejoin:bevel;stroke-width:1.5;" x="338.688" xlink:href="#m80325c8330" y="256.493773"/>
    </g>
   </g>
   <g id="line2d_42">
    <path style="fill:none;stroke:#0000ff;stroke-linecap:square;stroke-width:1.5;"/>
    <g/>
   </g>
   <g id="line2d_43">
    <path clip-path="url(#p4a3079982a)" d="M 137.910857 268.425729 
" style="fill:none;stroke:#0000ff;stroke-linecap:square;stroke-width:1.5;"/>
    <defs>
     <path d="M -12 12 
L 12 -12 
M -12 -12 
L 12 12 
" id="m0f5fa22bff" style="stroke:#0000ff;"/>
    </defs>
    <g clip-path="url(#p4a3079982a)">
     <use style="fill:#0000ff;stroke:#0000ff;" x="137.910857" xlink:href="#m0f5fa22bff" y="268.425729"/>
    </g>
   </g>
   <g id="line2d_44">
    <defs>
     <path d="M 0 1.5 
C 0.397805 1.5 0.77937 1.341951 1.06066 1.06066 
C 1.341951 0.77937 1.5 0.397805 1.5 0 
C 1.5 -0.397805 1.341951 -0.77937 1.06066 -1.06066 
C 0.77937 -1.341951 0.397805 -1.5 0 -1.5 
C -0.397805 -1.5 -0.77937 -1.341951 -1.06066 -1.06066 
C -1.341951 -0.77937 -1.5 -0.397805 -1.5 0 
C -1.5 0.397805 -1.341951 0.77937 -1.06066 1.06066 
C -0.77937 1.341951 -0.397805 1.5 0 1.5 
z
" id="mf8ed19df7d" style="stroke:#000000;"/>
    </defs>
    <g>
     <use style="stroke:#000000;" x="195.933441" xlink:href="#mf8ed19df7d" y="271.408718"/>
     <use style="stroke:#000000;" x="195.933441" xlink:href="#mf8ed19df7d" y="271.408718"/>
    </g>
   </g>
   <g id="line2d_45">
    <path d="M 17.444571 298.944 
L 17.444571 289.07719 
L 29.53256 289.07719 
L 29.53256 287.012044 
L 36.60358 287.012044 
L 36.60358 286.323662 
L 41.620548 286.323662 
L 41.620548 285.291089 
L 45.512012 285.291089 
L 45.512012 284.946898 
L 48.691568 284.946898 
L 48.691568 284.258516 
L 51.379845 284.258516 
L 51.379845 283.684864 
L 53.708537 283.684864 
L 53.708537 282.881752 
L 55.762588 282.881752 
L 55.762588 282.422831 
L 57.6 282.422831 
L 57.6 282.078639 
L 60.779557 282.078639 
L 60.779557 281.963909 
L 62.175444 281.963909 
L 62.175444 281.734448 
L 70.538854 281.734448 
L 70.538854 281.504988 
L 71.35013 281.504988 
L 71.35013 281.390257 
L 72.125336 281.390257 
L 72.125336 281.275527 
L 72.867545 281.275527 
L 72.867545 281.160797 
L 74.263433 281.160797 
L 74.263433 280.931336 
L 75.555822 280.931336 
L 75.555822 280.816606 
L 77.330839 280.816606 
L 77.330839 280.701875 
L 79.938565 280.701875 
L 79.938565 280.587145 
L 81.334453 280.587145 
L 81.334453 280.472415 
L 82.626842 280.472415 
L 82.626842 280.357684 
L 86.351421 280.357684 
L 86.351421 280.242954 
L 86.683608 280.242954 
L 86.683608 280.013493 
L 87.009585 280.013493 
L 87.009585 279.898763 
L 87.329581 279.898763 
L 87.329581 279.784033 
L 87.643811 279.784033 
L 87.643811 279.669302 
L 87.952479 279.669302 
L 87.952479 279.554572 
L 88.553893 279.554572 
L 88.553893 279.325111 
L 89.418828 279.325111 
L 89.418828 279.210381 
L 99.575392 279.210381 
L 99.575392 279.095651 
L 105.057436 279.095651 
L 105.057436 278.98092 
L 105.171792 278.98092 
L 105.171792 278.86619 
L 105.285403 278.86619 
L 105.285403 278.75146 
L 110.274038 278.75146 
L 110.274038 278.636729 
L 110.527398 278.636729 
L 110.527398 278.521999 
L 114.080224 278.521999 
L 114.080224 278.407268 
L 117.429921 278.407268 
L 117.429921 278.292538 
L 117.654224 278.292538 
L 117.654224 278.177808 
L 119.751557 278.177808 
L 119.751557 278.063077 
L 119.996839 278.063077 
L 119.996839 277.948347 
L 120.286695 277.948347 
L 120.286695 277.833617 
L 122.148045 277.833617 
L 122.148045 277.604156 
L 122.276749 277.604156 
L 122.276749 277.489426 
L 122.531342 277.489426 
L 122.531342 277.374695 
L 124.254646 277.374695 
L 124.254646 277.259965 
L 126.168212 277.259965 
L 126.168212 277.145235 
L 130.743656 277.145235 
L 130.743656 277.030504 
L 134.171324 277.030504 
L 134.236034 276.801044 
L 135.240011 276.801044 
L 135.240011 276.686313 
L 137.053015 276.686313 
L 137.053015 276.571583 
L 137.945701 276.571583 
L 137.945701 276.456853 
L 138.27329 276.456853 
L 138.290362 276.227392 
L 138.628343 276.227392 
L 138.628343 276.112662 
L 138.811478 276.112662 
L 138.811478 275.997931 
L 141.871938 275.997931 
L 141.871938 275.883201 
L 143.183176 275.883201 
L 143.247504 275.65374 
L 143.324386 275.65374 
L 143.324386 275.53901 
L 143.840863 275.53901 
L 143.840863 275.42428 
L 145.097753 275.42428 
L 145.097753 275.309549 
L 146.150926 275.309549 
L 146.237689 274.965358 
L 149.575199 274.965358 
L 149.575199 274.735897 
L 150.016276 274.735897 
L 150.016276 274.621167 
L 150.454969 274.621167 
L 150.454969 274.506437 
L 152.833495 274.506437 
L 152.833495 274.276976 
L 153.279836 274.276976 
L 153.279836 274.162246 
L 153.959927 274.162246 
L 153.959927 274.047515 
L 155.628383 274.047515 
L 155.628383 273.932785 
L 157.11051 273.932785 
L 157.11051 273.818055 
L 159.009867 273.818055 
L 159.009867 273.703324 
L 159.324282 273.703324 
L 159.324282 273.473864 
L 159.542562 273.473864 
L 159.542562 273.359133 
L 160.55197 273.359133 
L 160.55197 273.244403 
L 162.320689 273.244403 
L 162.320689 273.129673 
L 163.804376 273.129673 
L 163.804376 273.014942 
L 165.475853 273.014942 
L 165.475853 272.785482 
L 166.058334 272.785482 
L 166.058334 272.670751 
L 167.365597 272.670751 
L 167.365597 272.556021 
L 171.488725 272.556021 
L 171.488725 272.441291 
L 171.980146 272.441291 
L 171.980146 272.32656 
L 174.835732 272.32656 
L 174.835732 272.21183 
L 175.054729 272.21183 
L 175.054729 272.0971 
L 176.135616 272.0971 
L 176.135616 271.982369 
L 183.108958 271.982369 
L 183.108958 271.867639 
L 187.73967 271.867639 
L 187.835545 271.638178 
L 193.298918 271.638178 
L 193.298918 271.523448 
L 195.933441 271.523448 
L 195.933441 271.408718 
L 338.688 271.408718 
L 338.688 271.408718 
" style="fill:none;stroke:#000000;stroke-linecap:square;stroke-width:1.5;"/>
   </g>
   <g id="line2d_46">
    <defs>
     <path d="M 0 6 
C 1.591219 6 3.117479 5.367802 4.242641 4.242641 
C 5.367802 3.117479 6 1.591219 6 0 
C 6 -1.591219 5.367802 -3.117479 4.242641 -4.242641 
C 3.117479 -5.367802 1.591219 -6 0 -6 
C -1.591219 -6 -3.117479 -5.367802 -4.242641 -4.242641 
C -5.367802 -3.117479 -6 -1.591219 -6 0 
C -6 1.591219 -5.367802 3.117479 -4.242641 4.242641 
C -3.117479 5.367802 -1.591219 6 0 6 
z
" id="m2ee306aeaf" style="stroke:#000000;stroke-width:1.5;"/>
    </defs>
    <g>
     <use style="fill-opacity:0;stroke:#000000;stroke-width:1.5;" x="72.867545" xlink:href="#m2ee306aeaf" y="281.160797"/>
     <use style="fill-opacity:0;stroke:#000000;stroke-width:1.5;" x="141.871938" xlink:href="#m2ee306aeaf" y="275.883201"/>
     <use style="fill-opacity:0;stroke:#000000;stroke-width:1.5;" x="195.933441" xlink:href="#m2ee306aeaf" y="271.523448"/>
     <use style="fill-opacity:0;stroke:#000000;stroke-width:1.5;" x="195.933441" xlink:href="#m2ee306aeaf" y="271.408718"/>
     <use style="fill-opacity:0;stroke:#000000;stroke-width:1.5;" x="195.933441" xlink:href="#m2ee306aeaf" y="271.408718"/>
     <use style="fill-opacity:0;stroke:#000000;stroke-width:1.5;" x="338.688" xlink:href="#m2ee306aeaf" y="271.408718"/>
    </g>
   </g>
   <g id="line2d_47">
    <path style="fill:none;stroke:#000000;stroke-linecap:square;stroke-width:1.5;"/>
    <g/>
   </g>
   <g id="line2d_48">
    <path clip-path="url(#p4a3079982a)" d="M 137.910857 276.571583 
" style="fill:none;stroke:#000000;stroke-linecap:square;stroke-width:1.5;"/>
    <defs>
     <path d="M -12 12 
L 12 -12 
M -12 -12 
L 12 12 
" id="m4567840b5d" style="stroke:#000000;"/>
    </defs>
    <g clip-path="url(#p4a3079982a)">
     <use style="stroke:#000000;" x="137.910857" xlink:href="#m4567840b5d" y="276.571583"/>
    </g>
   </g>
   <g id="line2d_49">
    <defs>
     <path d="M 0 1.5 
C 0.397805 1.5 0.77937 1.341951 1.06066 1.06066 
C 1.341951 0.77937 1.5 0.397805 1.5 0 
C 1.5 -0.397805 1.341951 -0.77937 1.06066 -1.06066 
C 0.77937 -1.341951 0.397805 -1.5 0 -1.5 
C -0.397805 -1.5 -0.77937 -1.341951 -1.06066 -1.06066 
C -1.341951 -0.77937 -1.5 -0.397805 -1.5 0 
C -1.5 0.397805 -1.341951 0.77937 -1.06066 1.06066 
C -0.77937 1.341951 -0.397805 1.5 0 1.5 
z
" id="m7834008f4d" style="stroke:#ff0000;"/>
    </defs>
    <g>
     <use style="fill:#ff0000;stroke:#ff0000;" x="191.072276" xlink:href="#m7834008f4d" y="275.997931"/>
     <use style="fill:#ff0000;stroke:#ff0000;" x="191.072276" xlink:href="#m7834008f4d" y="275.997931"/>
    </g>
   </g>
   <g id="line2d_50">
    <path d="M 5.356583 298.944 
L 5.356583 289.765573 
L 17.444571 289.765573 
L 17.444571 287.815157 
L 24.515591 287.815157 
L 24.515591 287.585696 
L 29.53256 287.585696 
L 29.53256 286.782584 
L 33.424023 286.782584 
L 33.424023 286.553123 
L 36.60358 286.553123 
L 36.60358 285.979471 
L 39.291857 285.979471 
L 39.291857 285.291089 
L 41.620548 285.291089 
L 41.620548 284.832168 
L 47.174153 284.832168 
L 47.174153 284.717437 
L 50.087456 284.717437 
L 50.087456 284.602707 
L 53.708537 284.602707 
L 53.708537 284.487977 
L 55.762588 284.487977 
L 55.762588 284.373246 
L 56.705482 284.373246 
L 56.705482 284.143786 
L 64.67102 284.143786 
L 64.67102 284.029055 
L 70.949209 284.029055 
L 70.949209 283.914325 
L 74.595619 283.914325 
L 74.595619 283.799595 
L 74.921597 283.799595 
L 74.921597 283.455404 
L 86.012784 283.455404 
L 86.012784 283.225943 
L 86.182924 283.225943 
L 86.182924 283.111213 
L 86.518305 283.111213 
L 86.518305 282.996482 
L 86.847358 282.996482 
L 86.847358 282.881752 
L 87.009585 282.881752 
L 87.009585 282.767022 
L 87.170317 282.767022 
L 87.170317 282.652291 
L 93.972622 282.652291 
L 93.972622 282.537561 
L 97.928955 282.537561 
L 97.928955 282.3081 
L 98.18605 282.3081 
L 98.18605 282.19337 
L 98.355365 282.19337 
L 98.355365 282.078639 
L 101.923711 282.078639 
L 101.923711 281.849179 
L 102.330873 281.849179 
L 102.330873 281.734448 
L 105.22869 281.734448 
L 105.22869 281.619718 
L 105.621863 281.619718 
L 105.621863 281.504988 
L 107.762095 281.504988 
L 107.762095 281.390257 
L 108.054381 281.390257 
L 108.102622 281.160797 
L 109.973724 281.160797 
L 109.973724 281.046066 
L 118.470564 281.046066 
L 118.550135 280.701875 
L 121.036887 280.701875 
L 121.036887 280.587145 
L 125.092787 280.587145 
L 125.092787 280.472415 
L 126.030894 280.472415 
L 126.048118 280.242954 
L 134.160516 280.242954 
L 134.160516 280.128224 
L 136.198943 280.128224 
L 136.198943 280.013493 
L 137.928288 280.013493 
L 137.928288 279.898763 
L 138.786618 279.898763 
L 138.786618 279.784033 
L 139.269142 279.784033 
L 139.269142 279.669302 
L 139.588845 279.669302 
L 139.588845 279.439842 
L 140.042245 279.439842 
L 140.042245 279.325111 
L 140.804698 279.325111 
L 140.804698 279.210381 
L 141.885829 279.210381 
L 141.885829 279.095651 
L 142.243147 279.095651 
L 142.243147 278.86619 
L 143.527762 278.86619 
L 143.527762 278.75146 
L 144.741897 278.75146 
L 144.741897 278.636729 
L 145.051495 278.636729 
L 145.051495 278.521999 
L 150.055431 278.521999 
L 150.055431 278.407268 
L 150.691209 278.407268 
L 150.691209 278.292538 
L 150.858013 278.292538 
L 150.858013 278.177808 
L 151.097081 278.177808 
L 151.097081 278.063077 
L 151.869796 278.063077 
L 151.869796 277.948347 
L 152.299175 277.948347 
L 152.299175 277.833617 
L 153.746717 277.833617 
L 153.746717 277.718886 
L 153.932113 277.718886 
L 153.935592 277.489426 
L 157.534482 277.489426 
L 157.534482 277.374695 
L 159.655698 277.374695 
L 159.655698 277.259965 
L 161.674351 277.259965 
L 161.674351 277.145235 
L 162.436452 277.145235 
L 162.436452 276.915774 
L 166.158729 276.915774 
L 166.25855 276.686313 
L 171.973965 276.686313 
L 171.973965 276.571583 
L 173.969801 276.571583 
L 173.969801 276.456853 
L 174.350507 276.456853 
L 174.350507 276.342122 
L 177.183696 276.342122 
L 177.183696 276.227392 
L 180.51273 276.227392 
L 180.51273 276.112662 
L 191.072276 276.112662 
L 191.072276 275.997931 
L 338.688 275.997931 
L 338.688 275.997931 
" style="fill:none;stroke:#ff0000;stroke-linecap:square;stroke-width:1.5;"/>
   </g>
   <g id="line2d_51">
    <defs>
     <path d="M -6 6 
L 6 6 
L 6 -6 
L -6 -6 
z
" id="m5c69298f48" style="stroke:#ff0000;stroke-linejoin:miter;stroke-width:1.5;"/>
    </defs>
    <g>
     <use style="fill-opacity:0;stroke:#ff0000;stroke-linejoin:miter;stroke-width:1.5;" x="87.170317" xlink:href="#m5c69298f48" y="282.652291"/>
     <use style="fill-opacity:0;stroke:#ff0000;stroke-linejoin:miter;stroke-width:1.5;" x="151.869796" xlink:href="#m5c69298f48" y="278.063077"/>
     <use style="fill-opacity:0;stroke:#ff0000;stroke-linejoin:miter;stroke-width:1.5;" x="191.072276" xlink:href="#m5c69298f48" y="276.112662"/>
     <use style="fill-opacity:0;stroke:#ff0000;stroke-linejoin:miter;stroke-width:1.5;" x="191.072276" xlink:href="#m5c69298f48" y="275.997931"/>
     <use style="fill-opacity:0;stroke:#ff0000;stroke-linejoin:miter;stroke-width:1.5;" x="191.072276" xlink:href="#m5c69298f48" y="275.997931"/>
     <use style="fill-opacity:0;stroke:#ff0000;stroke-linejoin:miter;stroke-width:1.5;" x="338.688" xlink:href="#m5c69298f48" y="275.997931"/>
    </g>
   </g>
   <g id="line2d_52">
    <path style="fill:none;stroke:#ff0000;stroke-linecap:square;stroke-width:1.5;"/>
    <g/>
   </g>
   <g id="line2d_53">
    <path clip-path="url(#p4a3079982a)" d="M 137.910857 280.013493 
" style="fill:none;stroke:#ff0000;stroke-linecap:square;stroke-width:1.5;"/>
    <defs>
     <path d="M -12 12 
L 12 -12 
M -12 -12 
L 12 12 
" id="mcc169ef05a" style="stroke:#ff0000;"/>
    </defs>
    <g clip-path="url(#p4a3079982a)">
     <use style="fill:#ff0000;stroke:#ff0000;" x="137.910857" xlink:href="#mcc169ef05a" y="280.013493"/>
    </g>
   </g>
   <g id="line2d_54">
    <defs>
     <path d="M 0 1.5 
C 0.397805 1.5 0.77937 1.341951 1.06066 1.06066 
C 1.341951 0.77937 1.5 0.397805 1.5 0 
C 1.5 -0.397805 1.341951 -0.77937 1.06066 -1.06066 
C 0.77937 -1.341951 0.397805 -1.5 0 -1.5 
C -0.397805 -1.5 -0.77937 -1.341951 -1.06066 -1.06066 
C -1.341951 -0.77937 -1.5 -0.397805 -1.5 0 
C -1.5 0.397805 -1.341951 0.77937 -1.06066 1.06066 
C -0.77937 1.341951 -0.397805 1.5 0 1.5 
z
" id="m9f667a79a8" style="stroke:#bf00bf;"/>
    </defs>
    <g>
     <use style="fill:#bf00bf;stroke:#bf00bf;" x="198.934537" xlink:href="#m9f667a79a8" y="278.292538"/>
     <use style="fill:#bf00bf;stroke:#bf00bf;" x="198.934537" xlink:href="#m9f667a79a8" y="278.292538"/>
    </g>
   </g>
   <g id="line2d_55">
    <path d="M -1 291.601258 
L 5.356583 291.601258 
L 5.356583 289.306651 
L 12.427603 289.306651 
L 12.427603 288.84773 
L 17.444571 288.84773 
L 17.444571 288.503539 
L 21.336035 288.503539 
L 21.336035 288.274078 
L 24.515591 288.274078 
L 24.515591 287.815157 
L 27.203868 287.815157 
L 27.203868 287.470966 
L 29.53256 287.470966 
L 29.53256 287.241505 
L 31.586611 287.241505 
L 31.586611 286.897314 
L 36.60358 286.897314 
L 36.60358 286.782584 
L 40.495043 286.782584 
L 40.495043 286.553123 
L 43.6746 286.553123 
L 43.6746 286.438393 
L 54.245172 286.438393 
L 54.245172 286.323662 
L 56.705482 286.323662 
L 56.705482 286.208932 
L 62.175444 286.208932 
L 62.175444 285.864741 
L 62.507631 285.864741 
L 62.507631 285.63528 
L 62.833608 285.63528 
L 62.833608 285.291089 
L 63.467834 285.291089 
L 63.467834 285.176359 
L 63.776502 285.176359 
L 63.776502 285.061628 
L 64.079801 285.061628 
L 64.079801 284.832168 
L 74.094936 284.832168 
L 74.094936 284.717437 
L 74.430317 284.717437 
L 74.430317 284.602707 
L 74.75937 284.602707 
L 74.75937 284.487977 
L 75.082329 284.487977 
L 75.082329 284.258516 
L 81.109427 284.258516 
L 81.109427 284.143786 
L 81.334453 284.143786 
L 81.334453 284.029055 
L 95.772081 284.029055 
L 95.869507 283.684864 
L 98.143463 283.684864 
L 98.143463 283.570134 
L 100.306142 283.570134 
L 100.306142 283.455404 
L 103.435405 283.455404 
L 103.435405 283.225943 
L 104.913428 283.225943 
L 104.999975 282.996482 
L 105.086095 282.996482 
L 105.086095 282.881752 
L 107.589306 282.881752 
L 107.589306 282.767022 
L 108.810674 282.767022 
L 108.810674 282.652291 
L 108.925937 282.652291 
L 108.925937 282.537561 
L 110.016944 282.537561 
L 110.016944 282.422831 
L 112.950158 282.422831 
L 112.950158 282.3081 
L 120.829137 282.3081 
L 120.829137 282.19337 
L 133.800029 282.19337 
L 133.800029 282.078639 
L 137.919575 282.078639 
L 137.919575 281.963909 
L 138.153314 281.963909 
L 138.153314 281.734448 
L 138.379718 281.734448 
L 138.379718 281.619718 
L 139.401731 281.619718 
L 139.401731 281.390257 
L 140.734386 281.390257 
L 140.734386 281.275527 
L 140.922482 281.275527 
L 140.922482 281.160797 
L 141.119455 281.160797 
L 141.119455 281.046066 
L 141.648175 281.046066 
L 141.648175 280.931336 
L 143.470802 280.931336 
L 143.470802 280.816606 
L 148.064279 280.816606 
L 148.064279 280.701875 
L 150.120495 280.701875 
L 150.120495 280.472415 
L 150.764382 280.472415 
L 150.764382 280.357684 
L 157.15106 280.357684 
L 157.15106 280.242954 
L 157.581117 280.242954 
L 157.581117 280.128224 
L 162.738296 280.128224 
L 162.738296 280.013493 
L 165.629535 280.013493 
L 165.629535 279.898763 
L 165.995728 279.898763 
L 166.074818 279.669302 
L 168.536542 279.669302 
L 168.536542 279.554572 
L 168.867706 279.554572 
L 168.867706 279.439842 
L 169.198498 279.439842 
L 169.198498 279.325111 
L 174.205315 279.325111 
L 174.23521 279.095651 
L 174.368302 279.095651 
L 174.368302 278.98092 
L 181.375067 278.98092 
L 181.375067 278.86619 
L 188.330421 278.86619 
L 188.403119 278.636729 
L 191.079099 278.636729 
L 191.079099 278.521999 
L 192.659163 278.521999 
L 192.659163 278.407268 
L 198.934537 278.407268 
L 198.934537 278.292538 
L 338.688 278.292538 
L 338.688 278.292538 
" style="fill:none;stroke:#bf00bf;stroke-linecap:square;stroke-width:1.5;"/>
   </g>
   <g id="line2d_56">
    <defs>
     <path d="M -0 8.485281 
L 8.485281 0 
L 0 -8.485281 
L -8.485281 -0 
z
" id="mb1823255a5" style="stroke:#bf00bf;stroke-linejoin:miter;stroke-width:1.5;"/>
    </defs>
    <g>
     <use style="fill-opacity:0;stroke:#bf00bf;stroke-linejoin:miter;stroke-width:1.5;" x="64.079801" xlink:href="#mb1823255a5" y="285.061628"/>
     <use style="fill-opacity:0;stroke:#bf00bf;stroke-linejoin:miter;stroke-width:1.5;" x="150.764382" xlink:href="#mb1823255a5" y="280.472415"/>
     <use style="fill-opacity:0;stroke:#bf00bf;stroke-linejoin:miter;stroke-width:1.5;" x="198.934537" xlink:href="#mb1823255a5" y="278.407268"/>
     <use style="fill-opacity:0;stroke:#bf00bf;stroke-linejoin:miter;stroke-width:1.5;" x="198.934537" xlink:href="#mb1823255a5" y="278.292538"/>
     <use style="fill-opacity:0;stroke:#bf00bf;stroke-linejoin:miter;stroke-width:1.5;" x="198.934537" xlink:href="#mb1823255a5" y="278.292538"/>
     <use style="fill-opacity:0;stroke:#bf00bf;stroke-linejoin:miter;stroke-width:1.5;" x="338.688" xlink:href="#mb1823255a5" y="278.292538"/>
    </g>
   </g>
   <g id="line2d_57">
    <path style="fill:none;stroke:#bf00bf;stroke-linecap:square;stroke-width:1.5;"/>
    <g/>
   </g>
   <g id="line2d_58">
    <path clip-path="url(#p4a3079982a)" d="M 137.910857 282.078639 
" style="fill:none;stroke:#bf00bf;stroke-linecap:square;stroke-width:1.5;"/>
    <defs>
     <path d="M -12 12 
L 12 -12 
M -12 -12 
L 12 12 
" id="mfce65b2196" style="stroke:#bf00bf;"/>
    </defs>
    <g clip-path="url(#p4a3079982a)">
     <use style="fill:#bf00bf;stroke:#bf00bf;" x="137.910857" xlink:href="#mfce65b2196" y="282.078639"/>
    </g>
   </g>
   <g id="line2d_59">
    <path d="M 338.688 278.292538 
L 369.60768 293.092752 
" style="fill:none;stroke:#bf00bf;stroke-linecap:square;stroke-width:1.5;"/>
    <g>
     <use style="fill-opacity:0;stroke:#bf00bf;stroke-linejoin:miter;stroke-width:1.5;" x="338.688" xlink:href="#mb1823255a5" y="278.292538"/>
     <use style="fill-opacity:0;stroke:#bf00bf;stroke-linejoin:miter;stroke-width:1.5;" x="369.60768" xlink:href="#mb1823255a5" y="293.092752"/>
    </g>
   </g>
   <g id="line2d_60">
    <path d="M 338.688 275.997931 
L 369.60768 236.920776 
" style="fill:none;stroke:#ff0000;stroke-linecap:square;stroke-width:1.5;"/>
    <g>
     <use style="fill-opacity:0;stroke:#ff0000;stroke-linejoin:miter;stroke-width:1.5;" x="338.688" xlink:href="#m5c69298f48" y="275.997931"/>
     <use style="fill-opacity:0;stroke:#ff0000;stroke-linejoin:miter;stroke-width:1.5;" x="369.60768" xlink:href="#m5c69298f48" y="236.920776"/>
    </g>
   </g>
   <g id="line2d_61">
    <path d="M 338.688 271.408718 
L 369.60768 180.7488 
" style="fill:none;stroke:#000000;stroke-linecap:square;stroke-width:1.5;"/>
    <g>
     <use style="fill-opacity:0;stroke:#000000;stroke-width:1.5;" x="338.688" xlink:href="#m2ee306aeaf" y="271.408718"/>
     <use style="fill-opacity:0;stroke:#000000;stroke-width:1.5;" x="369.60768" xlink:href="#m2ee306aeaf" y="180.7488"/>
    </g>
   </g>
   <g id="line2d_62">
    <path d="M 338.688 256.493773 
L 369.60768 124.576824 
" style="fill:none;stroke:#0000ff;stroke-linecap:square;stroke-width:1.5;"/>
    <g>
     <use style="fill-opacity:0;stroke:#0000ff;stroke-linejoin:bevel;stroke-width:1.5;" x="338.688" xlink:href="#m80325c8330" y="256.493773"/>
     <use style="fill-opacity:0;stroke:#0000ff;stroke-linejoin:bevel;stroke-width:1.5;" x="369.60768" xlink:href="#m80325c8330" y="124.576824"/>
    </g>
   </g>
   <g id="line2d_63">
    <path d="M 338.688 243.873435 
L 369.60768 68.404848 
" style="fill:none;stroke:#008000;stroke-linecap:square;stroke-width:1.5;"/>
    <g>
     <use style="fill-opacity:0;stroke:#008000;stroke-linejoin:miter;stroke-width:1.5;" x="338.688" xlink:href="#m02057d7249" y="243.873435"/>
     <use style="fill-opacity:0;stroke:#008000;stroke-linejoin:miter;stroke-width:1.5;" x="369.60768" xlink:href="#m02057d7249" y="68.404848"/>
    </g>
   </g>
   <g id="line2d_64">
    <path d="M 338.688 214.043546 
L 369.60768 12.232871 
" style="fill:none;stroke:#00bfbf;stroke-linecap:square;stroke-width:1.5;"/>
    <g>
     <use style="fill-opacity:0;stroke:#00bfbf;stroke-width:1.5;" x="338.688" xlink:href="#m0dc71b367e" y="214.043546"/>
     <use style="fill-opacity:0;stroke:#00bfbf;stroke-width:1.5;" x="369.60768" xlink:href="#m0dc71b367e" y="12.232871"/>
    </g>
   </g>
   <g id="line2d_65">
    <path d="M 338.688 298.944 
L 338.688 6.381624 
" style="fill:none;stroke:#000000;stroke-linecap:square;stroke-width:1.5;"/>
   </g>
   <g id="patch_3">
    <path d="M 57.6 298.944 
L 57.6 3.456 
" style="fill:none;stroke:#000000;stroke-linecap:square;stroke-linejoin:miter;stroke-width:0.8;"/>
   </g>
   <g id="patch_4">
    <path d="M 338.688 298.944 
L 338.688 3.456 
" style="fill:none;stroke:#000000;stroke-linecap:square;stroke-linejoin:miter;stroke-width:0.8;"/>
   </g>
   <g id="patch_5">
    <path d="M 57.6 298.944 
L 338.688 298.944 
" style="fill:none;stroke:#000000;stroke-linecap:square;stroke-linejoin:miter;stroke-width:0.8;"/>
   </g>
   <g id="patch_6">
    <path d="M 57.6 3.456 
L 338.688 3.456 
" style="fill:none;stroke:#000000;stroke-linecap:square;stroke-linejoin:miter;stroke-width:0.8;"/>
   </g>
   <g id="text_13">
    <!-- 40-D -->
    <defs>
     <path d="M 19.671875 64.796875 
L 19.671875 8.109375 
L 31.59375 8.109375 
Q 46.6875 8.109375 53.6875 14.9375 
Q 60.6875 21.78125 60.6875 36.53125 
Q 60.6875 51.171875 53.6875 57.984375 
Q 46.6875 64.796875 31.59375 64.796875 
z
M 9.8125 72.90625 
L 30.078125 72.90625 
Q 51.265625 72.90625 61.171875 64.09375 
Q 71.09375 55.28125 71.09375 36.53125 
Q 71.09375 17.671875 61.125 8.828125 
Q 51.171875 0 30.078125 0 
L 9.8125 0 
z
" id="DejaVuSans-68"/>
    </defs>
    <g transform="translate(375.22944 297.78369)scale(0.17 -0.17)">
     <use xlink:href="#DejaVuSans-52"/>
     <use x="63.623047" xlink:href="#DejaVuSans-48"/>
     <use x="127.246094" xlink:href="#DejaVuSans-45"/>
     <use x="163.330078" xlink:href="#DejaVuSans-68"/>
    </g>
   </g>
   <g id="text_14">
    <!-- 20-D -->
    <g transform="translate(375.22944 241.611714)scale(0.17 -0.17)">
     <use xlink:href="#DejaVuSans-50"/>
     <use x="63.623047" xlink:href="#DejaVuSans-48"/>
     <use x="127.246094" xlink:href="#DejaVuSans-45"/>
     <use x="163.330078" xlink:href="#DejaVuSans-68"/>
    </g>
   </g>
   <g id="text_15">
    <!-- 10-D -->
    <g transform="translate(375.22944 185.439737)scale(0.17 -0.17)">
     <use xlink:href="#DejaVuSans-49"/>
     <use x="63.623047" xlink:href="#DejaVuSans-48"/>
     <use x="127.246094" xlink:href="#DejaVuSans-45"/>
     <use x="163.330078" xlink:href="#DejaVuSans-68"/>
    </g>
   </g>
   <g id="text_16">
    <!-- 5-D -->
    <defs>
     <path d="M 10.796875 72.90625 
L 49.515625 72.90625 
L 49.515625 64.59375 
L 19.828125 64.59375 
L 19.828125 46.734375 
Q 21.96875 47.46875 24.109375 47.828125 
Q 26.265625 48.1875 28.421875 48.1875 
Q 40.625 48.1875 47.75 41.5 
Q 54.890625 34.8125 54.890625 23.390625 
Q 54.890625 11.625 47.5625 5.09375 
Q 40.234375 -1.421875 26.90625 -1.421875 
Q 22.3125 -1.421875 17.546875 -0.640625 
Q 12.796875 0.140625 7.71875 1.703125 
L 7.71875 11.625 
Q 12.109375 9.234375 16.796875 8.0625 
Q 21.484375 6.890625 26.703125 6.890625 
Q 35.15625 6.890625 40.078125 11.328125 
Q 45.015625 15.765625 45.015625 23.390625 
Q 45.015625 31 40.078125 35.4375 
Q 35.15625 39.890625 26.703125 39.890625 
Q 22.75 39.890625 18.8125 39.015625 
Q 14.890625 38.140625 10.796875 36.28125 
z
" id="DejaVuSans-53"/>
    </defs>
    <g transform="translate(375.22944 129.267761)scale(0.17 -0.17)">
     <use xlink:href="#DejaVuSans-53"/>
     <use x="63.623047" xlink:href="#DejaVuSans-45"/>
     <use x="99.707031" xlink:href="#DejaVuSans-68"/>
    </g>
   </g>
   <g id="text_17">
    <!-- 3-D -->
    <defs>
     <path d="M 40.578125 39.3125 
Q 47.65625 37.796875 51.625 33 
Q 55.609375 28.21875 55.609375 21.1875 
Q 55.609375 10.40625 48.1875 4.484375 
Q 40.765625 -1.421875 27.09375 -1.421875 
Q 22.515625 -1.421875 17.65625 -0.515625 
Q 12.796875 0.390625 7.625 2.203125 
L 7.625 11.71875 
Q 11.71875 9.328125 16.59375 8.109375 
Q 21.484375 6.890625 26.8125 6.890625 
Q 36.078125 6.890625 40.9375 10.546875 
Q 45.796875 14.203125 45.796875 21.1875 
Q 45.796875 27.640625 41.28125 31.265625 
Q 36.765625 34.90625 28.71875 34.90625 
L 20.21875 34.90625 
L 20.21875 43.015625 
L 29.109375 43.015625 
Q 36.375 43.015625 40.234375 45.921875 
Q 44.09375 48.828125 44.09375 54.296875 
Q 44.09375 59.90625 40.109375 62.90625 
Q 36.140625 65.921875 28.71875 65.921875 
Q 24.65625 65.921875 20.015625 65.03125 
Q 15.375 64.15625 9.8125 62.3125 
L 9.8125 71.09375 
Q 15.4375 72.65625 20.34375 73.4375 
Q 25.25 74.21875 29.59375 74.21875 
Q 40.828125 74.21875 47.359375 69.109375 
Q 53.90625 64.015625 53.90625 55.328125 
Q 53.90625 49.265625 50.4375 45.09375 
Q 46.96875 40.921875 40.578125 39.3125 
z
" id="DejaVuSans-51"/>
    </defs>
    <g transform="translate(375.22944 73.095785)scale(0.17 -0.17)">
     <use xlink:href="#DejaVuSans-51"/>
     <use x="63.623047" xlink:href="#DejaVuSans-45"/>
     <use x="99.707031" xlink:href="#DejaVuSans-68"/>
    </g>
   </g>
   <g id="text_18">
    <!-- 2-D -->
    <g transform="translate(375.22944 16.923809)scale(0.17 -0.17)">
     <use xlink:href="#DejaVuSans-50"/>
     <use x="63.623047" xlink:href="#DejaVuSans-45"/>
     <use x="99.707031" xlink:href="#DejaVuSans-68"/>
    </g>
   </g>
   <g id="text_19">
    <!-- bbob f15-f19 -->
    <defs>
     <path d="M 48.6875 27.296875 
Q 48.6875 37.203125 44.609375 42.84375 
Q 40.53125 48.484375 33.40625 48.484375 
Q 26.265625 48.484375 22.1875 42.84375 
Q 18.109375 37.203125 18.109375 27.296875 
Q 18.109375 17.390625 22.1875 11.75 
Q 26.265625 6.109375 33.40625 6.109375 
Q 40.53125 6.109375 44.609375 11.75 
Q 48.6875 17.390625 48.6875 27.296875 
z
M 18.109375 46.390625 
Q 20.953125 51.265625 25.265625 53.625 
Q 29.59375 56 35.59375 56 
Q 45.5625 56 51.78125 48.09375 
Q 58.015625 40.1875 58.015625 27.296875 
Q 58.015625 14.40625 51.78125 6.484375 
Q 45.5625 -1.421875 35.59375 -1.421875 
Q 29.59375 -1.421875 25.265625 0.953125 
Q 20.953125 3.328125 18.109375 8.203125 
L 18.109375 0 
L 9.078125 0 
L 9.078125 75.984375 
L 18.109375 75.984375 
z
" id="DejaVuSans-98"/>
     <path d="M 10.984375 1.515625 
L 10.984375 10.5 
Q 14.703125 8.734375 18.5 7.8125 
Q 22.3125 6.890625 25.984375 6.890625 
Q 35.75 6.890625 40.890625 13.453125 
Q 46.046875 20.015625 46.78125 33.40625 
Q 43.953125 29.203125 39.59375 26.953125 
Q 35.25 24.703125 29.984375 24.703125 
Q 19.046875 24.703125 12.671875 31.3125 
Q 6.296875 37.9375 6.296875 49.421875 
Q 6.296875 60.640625 12.9375 67.421875 
Q 19.578125 74.21875 30.609375 74.21875 
Q 43.265625 74.21875 49.921875 64.515625 
Q 56.59375 54.828125 56.59375 36.375 
Q 56.59375 19.140625 48.40625 8.859375 
Q 40.234375 -1.421875 26.421875 -1.421875 
Q 22.703125 -1.421875 18.890625 -0.6875 
Q 15.09375 0.046875 10.984375 1.515625 
z
M 30.609375 32.421875 
Q 37.25 32.421875 41.125 36.953125 
Q 45.015625 41.5 45.015625 49.421875 
Q 45.015625 57.28125 41.125 61.84375 
Q 37.25 66.40625 30.609375 66.40625 
Q 23.96875 66.40625 20.09375 61.84375 
Q 16.21875 57.28125 16.21875 49.421875 
Q 16.21875 41.5 20.09375 36.953125 
Q 23.96875 32.421875 30.609375 32.421875 
z
" id="DejaVuSans-57"/>
    </defs>
    <g transform="translate(60.41088 14.161286)scale(0.102 -0.102)">
     <use xlink:href="#DejaVuSans-98"/>
     <use x="63.476562" xlink:href="#DejaVuSans-98"/>
     <use x="126.953125" xlink:href="#DejaVuSans-111"/>
     <use x="188.134766" xlink:href="#DejaVuSans-98"/>
     <use x="251.611328" xlink:href="#DejaVuSans-32"/>
     <use x="283.398438" xlink:href="#DejaVuSans-102"/>
     <use x="318.603516" xlink:href="#DejaVuSans-49"/>
     <use x="382.226562" xlink:href="#DejaVuSans-53"/>
     <use x="445.849609" xlink:href="#DejaVuSans-45"/>
     <use x="481.933594" xlink:href="#DejaVuSans-102"/>
     <use x="517.138672" xlink:href="#DejaVuSans-49"/>
     <use x="580.761719" xlink:href="#DejaVuSans-57"/>
    </g>
    <!-- 51 targets: 100..1e-08 -->
    <defs>
     <path d="M 11.71875 12.40625 
L 22.015625 12.40625 
L 22.015625 0 
L 11.71875 0 
z
M 11.71875 51.703125 
L 22.015625 51.703125 
L 22.015625 39.3125 
L 11.71875 39.3125 
z
" id="DejaVuSans-58"/>
    </defs>
    <g transform="translate(60.41088 25.583055)scale(0.102 -0.102)">
     <use xlink:href="#DejaVuSans-53"/>
     <use x="63.623047" xlink:href="#DejaVuSans-49"/>
     <use x="127.246094" xlink:href="#DejaVuSans-32"/>
     <use x="159.033203" xlink:href="#DejaVuSans-116"/>
     <use x="198.242188" xlink:href="#DejaVuSans-97"/>
     <use x="259.521484" xlink:href="#DejaVuSans-114"/>
     <use x="300.619141" xlink:href="#DejaVuSans-103"/>
     <use x="364.095703" xlink:href="#DejaVuSans-101"/>
     <use x="425.619141" xlink:href="#DejaVuSans-116"/>
     <use x="464.828125" xlink:href="#DejaVuSans-115"/>
     <use x="516.927734" xlink:href="#DejaVuSans-58"/>
     <use x="550.619141" xlink:href="#DejaVuSans-32"/>
     <use x="582.40625" xlink:href="#DejaVuSans-49"/>
     <use x="646.029297" xlink:href="#DejaVuSans-48"/>
     <use x="709.652344" xlink:href="#DejaVuSans-48"/>
     <use x="773.275391" xlink:href="#DejaVuSans-46"/>
     <use x="805.0625" xlink:href="#DejaVuSans-46"/>
     <use x="836.849609" xlink:href="#DejaVuSans-49"/>
     <use x="900.472656" xlink:href="#DejaVuSans-101"/>
     <use x="961.996094" xlink:href="#DejaVuSans-45"/>
     <use x="998.080078" xlink:href="#DejaVuSans-48"/>
     <use x="1061.703125" xlink:href="#DejaVuSans-56"/>
    </g>
    <!-- 15 instances -->
    <g transform="translate(60.41088 37.004824)scale(0.102 -0.102)">
     <use xlink:href="#DejaVuSans-49"/>
     <use x="63.623047" xlink:href="#DejaVuSans-53"/>
     <use x="127.246094" xlink:href="#DejaVuSans-32"/>
     <use x="159.033203" xlink:href="#DejaVuSans-105"/>
     <use x="186.816406" xlink:href="#DejaVuSans-110"/>
     <use x="250.195312" xlink:href="#DejaVuSans-115"/>
     <use x="302.294922" xlink:href="#DejaVuSans-116"/>
     <use x="341.503906" xlink:href="#DejaVuSans-97"/>
     <use x="402.783203" xlink:href="#DejaVuSans-110"/>
     <use x="466.162109" xlink:href="#DejaVuSans-99"/>
     <use x="521.142578" xlink:href="#DejaVuSans-101"/>
     <use x="582.666016" xlink:href="#DejaVuSans-115"/>
    </g>
   </g>
   <g id="text_20">
    <!-- v2.4 -->
    <g style="fill:#808080;" transform="translate(187.233062 293.909432)scale(0.1 -0.1)">
     <use xlink:href="#DejaVuSans-118"/>
     <use x="59.179688" xlink:href="#DejaVuSans-50"/>
     <use x="122.802734" xlink:href="#DejaVuSans-46"/>
     <use x="154.589844" xlink:href="#DejaVuSans-52"/>
    </g>
   </g>
  </g>
 </g>
 <defs>
  <clipPath id="p4a3079982a">
   <rect height="295.488" width="281.088" x="57.6" y="3.456"/>
  </clipPath>
 </defs>
</svg>
