<?xml version="1.0" encoding="utf-8" standalone="no"?>
<!DOCTYPE svg PUBLIC "-//W3C//DTD SVG 1.1//EN"
  "http://www.w3.org/Graphics/SVG/1.1/DTD/svg11.dtd">
<!-- Created with matplotlib (https://matplotlib.org/) -->
<svg height="345.6pt" version="1.1" viewBox="0 0 460.8 345.6" width="460.8pt" xmlns="http://www.w3.org/2000/svg" xmlns:xlink="http://www.w3.org/1999/xlink">
 <defs>
  <style type="text/css">
*{stroke-linecap:butt;stroke-linejoin:round;}
  </style>
 </defs>
 <g id="figure_1">
  <g id="patch_1">
   <path d="M 0 345.6 
L 460.8 345.6 
L 460.8 0 
L 0 0 
z
" style="fill:#ffffff;"/>
  </g>
  <g id="axes_1">
   <g id="patch_2">
    <path d="M 0 293.76 
L 460.8 293.76 
L 460.8 3.456 
L 0 3.456 
z
" style="fill:#ffffff;"/>
   </g>
   <g id="matplotlib.axis_1">
    <g id="xtick_1">
     <g id="line2d_1">
      <path clip-path="url(#pcd5c4af216)" d="M 105.044861 293.76 
L 105.044861 3.456 
" style="fill:none;stroke:#b0b0b0;stroke-linecap:square;stroke-width:0.8;"/>
     </g>
     <g id="line2d_2">
      <defs>
       <path d="M 0 0 
L 0 3.5 
" id="m4615c4ad4e" style="stroke:#000000;stroke-width:0.8;"/>
      </defs>
      <g>
       <use style="stroke:#000000;stroke-width:0.8;" x="105.044861" xlink:href="#m4615c4ad4e" y="293.76"/>
      </g>
     </g>
     <g id="text_1">
      <!-- -4 -->
      <defs>
       <path d="M 4.890625 31.390625 
L 31.203125 31.390625 
L 31.203125 23.390625 
L 4.890625 23.390625 
z
" id="DejaVuSans-45"/>
       <path d="M 37.796875 64.3125 
L 12.890625 25.390625 
L 37.796875 25.390625 
z
M 35.203125 72.90625 
L 47.609375 72.90625 
L 47.609375 25.390625 
L 58.015625 25.390625 
L 58.015625 17.1875 
L 47.609375 17.1875 
L 47.609375 0 
L 37.796875 0 
L 37.796875 17.1875 
L 4.890625 17.1875 
L 4.890625 26.703125 
z
" id="DejaVuSans-52"/>
      </defs>
      <g transform="translate(95.074549 315.956875)scale(0.2 -0.2)">
       <use xlink:href="#DejaVuSans-45"/>
       <use x="36.083984" xlink:href="#DejaVuSans-52"/>
      </g>
     </g>
    </g>
    <g id="xtick_2">
     <g id="line2d_3">
      <path clip-path="url(#pcd5c4af216)" d="M 210.203329 293.76 
L 210.203329 3.456 
" style="fill:none;stroke:#b0b0b0;stroke-linecap:square;stroke-width:0.8;"/>
     </g>
     <g id="line2d_4">
      <g>
       <use style="stroke:#000000;stroke-width:0.8;" x="210.203329" xlink:href="#m4615c4ad4e" y="293.76"/>
      </g>
     </g>
     <g id="text_2">
      <!-- 0 -->
      <defs>
       <path d="M 31.78125 66.40625 
Q 24.171875 66.40625 20.328125 58.90625 
Q 16.5 51.421875 16.5 36.375 
Q 16.5 21.390625 20.328125 13.890625 
Q 24.171875 6.390625 31.78125 6.390625 
Q 39.453125 6.390625 43.28125 13.890625 
Q 47.125 21.390625 47.125 36.375 
Q 47.125 51.421875 43.28125 58.90625 
Q 39.453125 66.40625 31.78125 66.40625 
z
M 31.78125 74.21875 
Q 44.046875 74.21875 50.515625 64.515625 
Q 56.984375 54.828125 56.984375 36.375 
Q 56.984375 17.96875 50.515625 8.265625 
Q 44.046875 -1.421875 31.78125 -1.421875 
Q 19.53125 -1.421875 13.0625 8.265625 
Q 6.59375 17.96875 6.59375 36.375 
Q 6.59375 54.828125 13.0625 64.515625 
Q 19.53125 74.21875 31.78125 74.21875 
z
" id="DejaVuSans-48"/>
      </defs>
      <g transform="translate(203.840829 315.956875)scale(0.2 -0.2)">
       <use xlink:href="#DejaVuSans-48"/>
      </g>
     </g>
    </g>
    <g id="xtick_3">
     <g id="line2d_5">
      <path clip-path="url(#pcd5c4af216)" d="M 315.361798 293.76 
L 315.361798 3.456 
" style="fill:none;stroke:#b0b0b0;stroke-linecap:square;stroke-width:0.8;"/>
     </g>
     <g id="line2d_6">
      <g>
       <use style="stroke:#000000;stroke-width:0.8;" x="315.361798" xlink:href="#m4615c4ad4e" y="293.76"/>
      </g>
     </g>
     <g id="text_3">
      <!-- 4 -->
      <g transform="translate(308.999298 315.956875)scale(0.2 -0.2)">
       <use xlink:href="#DejaVuSans-52"/>
      </g>
     </g>
    </g>
    <g id="xtick_4">
     <g id="line2d_7">
      <path clip-path="url(#pcd5c4af216)" d="M 420.520266 293.76 
L 420.520266 3.456 
" style="fill:none;stroke:#b0b0b0;stroke-linecap:square;stroke-width:0.8;"/>
     </g>
     <g id="line2d_8">
      <g>
       <use style="stroke:#000000;stroke-width:0.8;" x="420.520266" xlink:href="#m4615c4ad4e" y="293.76"/>
      </g>
     </g>
     <g id="text_4">
      <!-- 8 -->
      <defs>
       <path d="M 31.78125 34.625 
Q 24.75 34.625 20.71875 30.859375 
Q 16.703125 27.09375 16.703125 20.515625 
Q 16.703125 13.921875 20.71875 10.15625 
Q 24.75 6.390625 31.78125 6.390625 
Q 38.8125 6.390625 42.859375 10.171875 
Q 46.921875 13.96875 46.921875 20.515625 
Q 46.921875 27.09375 42.890625 30.859375 
Q 38.875 34.625 31.78125 34.625 
z
M 21.921875 38.8125 
Q 15.578125 40.375 12.03125 44.71875 
Q 8.5 49.078125 8.5 55.328125 
Q 8.5 64.0625 14.71875 69.140625 
Q 20.953125 74.21875 31.78125 74.21875 
Q 42.671875 74.21875 48.875 69.140625 
Q 55.078125 64.0625 55.078125 55.328125 
Q 55.078125 49.078125 51.53125 44.71875 
Q 48 40.375 41.703125 38.8125 
Q 48.828125 37.15625 52.796875 32.3125 
Q 56.78125 27.484375 56.78125 20.515625 
Q 56.78125 9.90625 50.3125 4.234375 
Q 43.84375 -1.421875 31.78125 -1.421875 
Q 19.734375 -1.421875 13.25 4.234375 
Q 6.78125 9.90625 6.78125 20.515625 
Q 6.78125 27.484375 10.78125 32.3125 
Q 14.796875 37.15625 21.921875 38.8125 
z
M 18.3125 54.390625 
Q 18.3125 48.734375 21.84375 45.5625 
Q 25.390625 42.390625 31.78125 42.390625 
Q 38.140625 42.390625 41.71875 45.5625 
Q 45.3125 48.734375 45.3125 54.390625 
Q 45.3125 60.0625 41.71875 63.234375 
Q 38.140625 66.40625 31.78125 66.40625 
Q 25.390625 66.40625 21.84375 63.234375 
Q 18.3125 60.0625 18.3125 54.390625 
z
" id="DejaVuSans-56"/>
      </defs>
      <g transform="translate(414.157766 315.956875)scale(0.2 -0.2)">
       <use xlink:href="#DejaVuSans-56"/>
      </g>
     </g>
    </g>
    <g id="text_5">
     <!-- log10 of Df -->
     <defs>
      <path d="M 9.421875 75.984375 
L 18.40625 75.984375 
L 18.40625 0 
L 9.421875 0 
z
" id="DejaVuSans-108"/>
      <path d="M 30.609375 48.390625 
Q 23.390625 48.390625 19.1875 42.75 
Q 14.984375 37.109375 14.984375 27.296875 
Q 14.984375 17.484375 19.15625 11.84375 
Q 23.34375 6.203125 30.609375 6.203125 
Q 37.796875 6.203125 41.984375 11.859375 
Q 46.1875 17.53125 46.1875 27.296875 
Q 46.1875 37.015625 41.984375 42.703125 
Q 37.796875 48.390625 30.609375 48.390625 
z
M 30.609375 56 
Q 42.328125 56 49.015625 48.375 
Q 55.71875 40.765625 55.71875 27.296875 
Q 55.71875 13.875 49.015625 6.21875 
Q 42.328125 -1.421875 30.609375 -1.421875 
Q 18.84375 -1.421875 12.171875 6.21875 
Q 5.515625 13.875 5.515625 27.296875 
Q 5.515625 40.765625 12.171875 48.375 
Q 18.84375 56 30.609375 56 
z
" id="DejaVuSans-111"/>
      <path d="M 45.40625 27.984375 
Q 45.40625 37.75 41.375 43.109375 
Q 37.359375 48.484375 30.078125 48.484375 
Q 22.859375 48.484375 18.828125 43.109375 
Q 14.796875 37.75 14.796875 27.984375 
Q 14.796875 18.265625 18.828125 12.890625 
Q 22.859375 7.515625 30.078125 7.515625 
Q 37.359375 7.515625 41.375 12.890625 
Q 45.40625 18.265625 45.40625 27.984375 
z
M 54.390625 6.78125 
Q 54.390625 -7.171875 48.1875 -13.984375 
Q 42 -20.796875 29.203125 -20.796875 
Q 24.46875 -20.796875 20.265625 -20.09375 
Q 16.0625 -19.390625 12.109375 -17.921875 
L 12.109375 -9.1875 
Q 16.0625 -11.328125 19.921875 -12.34375 
Q 23.78125 -13.375 27.78125 -13.375 
Q 36.625 -13.375 41.015625 -8.765625 
Q 45.40625 -4.15625 45.40625 5.171875 
L 45.40625 9.625 
Q 42.625 4.78125 38.28125 2.390625 
Q 33.9375 0 27.875 0 
Q 17.828125 0 11.671875 7.65625 
Q 5.515625 15.328125 5.515625 27.984375 
Q 5.515625 40.671875 11.671875 48.328125 
Q 17.828125 56 27.875 56 
Q 33.9375 56 38.28125 53.609375 
Q 42.625 51.21875 45.40625 46.390625 
L 45.40625 54.6875 
L 54.390625 54.6875 
z
" id="DejaVuSans-103"/>
      <path d="M 12.40625 8.296875 
L 28.515625 8.296875 
L 28.515625 63.921875 
L 10.984375 60.40625 
L 10.984375 69.390625 
L 28.421875 72.90625 
L 38.28125 72.90625 
L 38.28125 8.296875 
L 54.390625 8.296875 
L 54.390625 0 
L 12.40625 0 
z
" id="DejaVuSans-49"/>
      <path id="DejaVuSans-32"/>
      <path d="M 37.109375 75.984375 
L 37.109375 68.5 
L 28.515625 68.5 
Q 23.6875 68.5 21.796875 66.546875 
Q 19.921875 64.59375 19.921875 59.515625 
L 19.921875 54.6875 
L 34.71875 54.6875 
L 34.71875 47.703125 
L 19.921875 47.703125 
L 19.921875 0 
L 10.890625 0 
L 10.890625 47.703125 
L 2.296875 47.703125 
L 2.296875 54.6875 
L 10.890625 54.6875 
L 10.890625 58.5 
Q 10.890625 67.625 15.140625 71.796875 
Q 19.390625 75.984375 28.609375 75.984375 
z
" id="DejaVuSans-102"/>
      <path d="M 19.671875 64.796875 
L 19.671875 8.109375 
L 31.59375 8.109375 
Q 46.6875 8.109375 53.6875 14.9375 
Q 60.6875 21.78125 60.6875 36.53125 
Q 60.6875 51.171875 53.6875 57.984375 
Q 46.6875 64.796875 31.59375 64.796875 
z
M 9.8125 72.90625 
L 30.078125 72.90625 
Q 51.265625 72.90625 61.171875 64.09375 
Q 71.09375 55.28125 71.09375 36.53125 
Q 71.09375 17.671875 61.125 8.828125 
Q 51.171875 0 30.078125 0 
L 9.8125 0 
z
" id="DejaVuSans-68"/>
     </defs>
     <g transform="translate(175.214063 339.313125)scale(0.2 -0.2)">
      <use xlink:href="#DejaVuSans-108"/>
      <use x="27.783203" xlink:href="#DejaVuSans-111"/>
      <use x="88.964844" xlink:href="#DejaVuSans-103"/>
      <use x="152.441406" xlink:href="#DejaVuSans-49"/>
      <use x="216.064453" xlink:href="#DejaVuSans-48"/>
      <use x="279.6875" xlink:href="#DejaVuSans-32"/>
      <use x="311.474609" xlink:href="#DejaVuSans-111"/>
      <use x="372.65625" xlink:href="#DejaVuSans-102"/>
      <use x="407.861328" xlink:href="#DejaVuSans-32"/>
      <use x="439.648438" xlink:href="#DejaVuSans-68"/>
      <use x="516.650391" xlink:href="#DejaVuSans-102"/>
     </g>
    </g>
   </g>
   <g id="matplotlib.axis_2">
    <g id="ytick_1">
     <g id="line2d_9">
      <path clip-path="url(#pcd5c4af216)" d="M 0 293.76 
L 460.8 293.76 
" style="fill:none;stroke:#b0b0b0;stroke-linecap:square;stroke-width:0.8;"/>
     </g>
     <g id="line2d_10">
      <defs>
       <path d="M 0 0 
L -3.5 0 
" id="m155ab80bdf" style="stroke:#000000;stroke-width:0.8;"/>
      </defs>
      <g>
       <use style="stroke:#000000;stroke-width:0.8;" x="0" xlink:href="#m155ab80bdf" y="293.76"/>
      </g>
     </g>
    </g>
    <g id="ytick_2">
     <g id="line2d_11">
      <path clip-path="url(#pcd5c4af216)" d="M 0 236.274059 
L 460.8 236.274059 
" style="fill:none;stroke:#b0b0b0;stroke-linecap:square;stroke-width:0.8;"/>
     </g>
     <g id="line2d_12">
      <g>
       <use style="stroke:#000000;stroke-width:0.8;" x="0" xlink:href="#m155ab80bdf" y="236.274059"/>
      </g>
     </g>
    </g>
    <g id="ytick_3">
     <g id="line2d_13">
      <path clip-path="url(#pcd5c4af216)" d="M 0 178.788119 
L 460.8 178.788119 
" style="fill:none;stroke:#b0b0b0;stroke-linecap:square;stroke-width:0.8;"/>
     </g>
     <g id="line2d_14">
      <g>
       <use style="stroke:#000000;stroke-width:0.8;" x="0" xlink:href="#m155ab80bdf" y="178.788119"/>
      </g>
     </g>
    </g>
    <g id="ytick_4">
     <g id="line2d_15">
      <path clip-path="url(#pcd5c4af216)" d="M 0 121.302178 
L 460.8 121.302178 
" style="fill:none;stroke:#b0b0b0;stroke-linecap:square;stroke-width:0.8;"/>
     </g>
     <g id="line2d_16">
      <g>
       <use style="stroke:#000000;stroke-width:0.8;" x="0" xlink:href="#m155ab80bdf" y="121.302178"/>
      </g>
     </g>
    </g>
    <g id="ytick_5">
     <g id="line2d_17">
      <path clip-path="url(#pcd5c4af216)" d="M 0 63.816238 
L 460.8 63.816238 
" style="fill:none;stroke:#b0b0b0;stroke-linecap:square;stroke-width:0.8;"/>
     </g>
     <g id="line2d_18">
      <g>
       <use style="stroke:#000000;stroke-width:0.8;" x="0" xlink:href="#m155ab80bdf" y="63.816238"/>
      </g>
     </g>
    </g>
    <g id="ytick_6">
     <g id="line2d_19">
      <path clip-path="url(#pcd5c4af216)" d="M 0 6.330297 
L 460.8 6.330297 
" style="fill:none;stroke:#b0b0b0;stroke-linecap:square;stroke-width:0.8;"/>
     </g>
     <g id="line2d_20">
      <g>
       <use style="stroke:#000000;stroke-width:0.8;" x="0" xlink:href="#m155ab80bdf" y="6.330297"/>
      </g>
     </g>
    </g>
   </g>
   <g id="line2d_21">
    <path clip-path="url(#pcd5c4af216)" d="M 272.540939 293.76 
L 272.540939 288.969505 
L 276.972722 288.969505 
L 276.972722 284.17901 
L 279.14495 284.17901 
L 279.14495 279.388515 
L 280.148446 279.388515 
L 280.148446 274.59802 
L 281.222608 274.59802 
L 281.222608 269.807525 
L 281.489279 269.807525 
L 281.489279 265.01703 
L 282.300267 265.01703 
L 282.300267 260.226535 
L 282.716754 260.226535 
L 282.716754 255.43604 
L 284.253987 255.43604 
L 284.253987 250.645545 
L 285.169193 250.645545 
L 285.169193 245.85505 
L 286.152171 245.85505 
L 286.152171 241.064554 
L 288.167425 241.064554 
L 288.167425 236.274059 
L 290.595198 236.274059 
L 290.595198 231.483564 
L 291.572387 231.483564 
L 291.572387 226.693069 
L 292.603442 226.693069 
L 292.603442 221.902574 
L 295.769249 221.902574 
L 295.769249 217.112079 
L 299.542892 217.112079 
L 299.542892 212.321584 
L 301.188076 212.321584 
L 301.188076 207.531089 
L 301.736927 207.531089 
L 301.736927 202.740594 
L 303.403219 202.740594 
L 303.403219 197.950099 
L 303.567906 197.950099 
L 303.567906 193.159604 
L 304.039049 193.159604 
L 304.039049 188.369109 
L 307.87233 188.369109 
L 307.87233 183.578614 
L 308.607904 183.578614 
L 308.607904 178.788119 
L 310.744927 178.788119 
L 310.744927 173.997624 
L 313.605616 173.997624 
L 313.605616 169.207129 
L 314.589268 169.207129 
L 314.589268 164.416634 
L 314.703458 164.416634 
L 314.703458 159.626139 
L 315.066935 159.626139 
L 315.066935 154.835644 
L 322.955904 154.835644 
L 322.955904 150.045149 
L 323.053012 150.045149 
L 323.053012 145.254653 
L 327.609772 145.254653 
L 327.609772 140.464158 
L 329.541332 140.464158 
L 329.541332 135.673663 
L 330.334532 135.673663 
L 330.334532 130.883168 
L 330.599569 130.883168 
L 330.599569 126.092673 
L 332.192491 126.092673 
L 332.192491 121.302178 
L 332.418839 121.302178 
L 332.418839 116.511683 
L 332.761941 116.511683 
L 332.761941 111.721188 
L 334.588487 111.721188 
L 334.588487 106.930693 
L 335.878386 106.930693 
L 335.878386 102.140198 
L 337.434976 102.140198 
L 337.434976 97.349703 
L 337.476668 97.349703 
L 337.476668 92.559208 
L 338.183937 92.559208 
L 338.183937 87.768713 
L 343.124238 87.768713 
L 343.124238 82.978218 
L 343.738162 82.978218 
L 343.738162 78.187723 
L 344.056999 78.187723 
L 344.056999 73.397228 
L 344.586868 73.397228 
L 344.586868 68.606733 
L 344.924139 68.606733 
L 344.924139 63.816238 
L 345.603677 63.816238 
L 345.603677 59.025743 
L 350.654902 59.025743 
L 350.654902 54.235248 
L 353.201156 54.235248 
L 353.201156 49.444752 
L 356.047912 49.444752 
L 356.047912 44.654257 
L 356.220803 44.654257 
L 356.220803 39.863762 
L 356.671617 39.863762 
L 356.671617 35.073267 
L 357.578305 35.073267 
L 357.578305 30.282772 
L 359.805742 30.282772 
L 359.805742 25.492277 
L 360.870544 25.492277 
L 360.870544 20.701782 
L 364.151804 20.701782 
L 364.151804 15.911287 
L 364.929336 15.911287 
L 364.929336 11.120792 
L 366.235909 11.120792 
L 366.235909 6.330297 
L 366.235909 6.330297 
L 366.235909 6.330297 
L 460.8 6.330297 
" style="fill:none;stroke:#ff0000;stroke-linecap:square;stroke-width:3;"/>
   </g>
   <g id="line2d_22">
    <path clip-path="url(#pcd5c4af216)" d="M 280.563178 293.76 
L 280.563178 288.969505 
L 281.307051 288.969505 
L 281.307051 284.17901 
L 282.665191 284.17901 
L 282.665191 279.388515 
L 284.355279 279.388515 
L 284.355279 274.59802 
L 285.407973 274.59802 
L 285.407973 269.807525 
L 286.470559 269.807525 
L 286.470559 265.01703 
L 286.779832 265.01703 
L 286.779832 260.226535 
L 287.161286 260.226535 
L 287.161286 255.43604 
L 287.67761 255.43604 
L 287.67761 250.645545 
L 288.167425 250.645545 
L 288.167425 245.85505 
L 288.421473 245.85505 
L 288.421473 241.064554 
L 293.200013 241.064554 
L 293.200013 236.274059 
L 293.445605 236.274059 
L 293.445605 231.483564 
L 295.371335 231.483564 
L 295.371335 226.693069 
L 295.573428 226.693069 
L 295.573428 221.902574 
L 321.766039 221.902574 
L 321.766039 217.112079 
L 321.953745 217.112079 
L 321.953745 212.321584 
L 325.989779 212.321584 
L 325.989779 207.531089 
L 328.409092 207.531089 
L 328.409092 202.740594 
L 329.305556 202.740594 
L 329.305556 197.950099 
L 329.863184 197.950099 
L 329.863184 193.159604 
L 331.576039 193.159604 
L 331.576039 188.369109 
L 331.869596 188.369109 
L 331.869596 183.578614 
L 332.373288 183.578614 
L 332.373288 178.788119 
L 332.648796 178.788119 
L 332.648796 173.997624 
L 333.474029 173.997624 
L 333.474029 169.207129 
L 334.588487 169.207129 
L 334.588487 164.416634 
L 334.880144 164.416634 
L 334.880144 159.626139 
L 335.601392 159.626139 
L 335.601392 154.835644 
L 335.729815 154.835644 
L 335.729815 150.045149 
L 336.713879 150.045149 
L 336.713879 145.254653 
L 337.261101 145.254653 
L 337.261101 140.464158 
L 340.731207 140.464158 
L 340.731207 135.673663 
L 340.940249 135.673663 
L 340.940249 130.883168 
L 343.630047 130.883168 
L 343.630047 126.092673 
L 344.39563 126.092673 
L 344.39563 121.302178 
L 346.643949 121.302178 
L 346.643949 116.511683 
L 347.627924 116.511683 
L 347.627924 111.721188 
L 347.847034 111.721188 
L 347.847034 106.930693 
L 348.123528 106.930693 
L 348.123528 102.140198 
L 348.41225 102.140198 
L 348.41225 97.349703 
L 348.837993 97.349703 
L 348.837993 92.559208 
L 348.949055 92.559208 
L 348.949055 87.768713 
L 349.09401 87.768713 
L 349.09401 82.978218 
L 350.336798 82.978218 
L 350.336798 78.187723 
L 350.606496 78.187723 
L 350.606496 73.397228 
L 351.217525 73.397228 
L 351.217525 68.606733 
L 353.155702 68.606733 
L 353.155702 63.816238 
L 354.332243 63.816238 
L 354.332243 59.025743 
L 355.516408 59.025743 
L 355.516408 54.235248 
L 356.373781 54.235248 
L 356.373781 49.444752 
L 361.313848 49.444752 
L 361.313848 44.654257 
L 361.346268 44.654257 
L 361.346268 39.863762 
L 361.35874 39.863762 
L 361.35874 35.073267 
L 361.715965 35.073267 
L 361.715965 30.282772 
L 362.502899 30.282772 
L 362.502899 25.492277 
L 362.613205 25.492277 
L 362.613205 20.701782 
L 365.747689 20.701782 
L 365.747689 15.911287 
L 368.009742 15.911287 
L 368.009742 11.120792 
L 368.103101 11.120792 
L 368.103101 6.330297 
L 368.103101 6.330297 
L 368.103101 6.330297 
L 460.8 6.330297 
" style="fill:none;stroke:#00bfbf;stroke-linecap:square;stroke-width:1.5;"/>
   </g>
   <g id="line2d_23">
    <path clip-path="url(#pcd5c4af216)" d="M 280.563178 293.76 
L 280.563178 288.969505 
L 281.307051 288.969505 
L 281.307051 284.17901 
L 281.789554 284.17901 
L 281.789554 279.388515 
L 282.665191 279.388515 
L 282.665191 274.59802 
L 284.355279 274.59802 
L 284.355279 269.807525 
L 285.407973 269.807525 
L 285.407973 265.01703 
L 286.470559 265.01703 
L 286.470559 260.226535 
L 286.779832 260.226535 
L 286.779832 255.43604 
L 287.67761 255.43604 
L 287.67761 250.645545 
L 288.167425 250.645545 
L 288.167425 245.85505 
L 288.421473 245.85505 
L 288.421473 241.064554 
L 291.203468 241.064554 
L 291.203468 236.274059 
L 292.738526 236.274059 
L 292.738526 231.483564 
L 293.445605 231.483564 
L 293.445605 226.693069 
L 295.573428 226.693069 
L 295.573428 221.902574 
L 321.766039 221.902574 
L 321.766039 217.112079 
L 321.953745 217.112079 
L 321.953745 212.321584 
L 325.989779 212.321584 
L 325.989779 207.531089 
L 328.409092 207.531089 
L 328.409092 202.740594 
L 329.305556 202.740594 
L 329.305556 197.950099 
L 329.863184 197.950099 
L 329.863184 193.159604 
L 331.576039 193.159604 
L 331.576039 188.369109 
L 331.869596 188.369109 
L 331.869596 183.578614 
L 332.373288 183.578614 
L 332.373288 178.788119 
L 332.648796 178.788119 
L 332.648796 173.997624 
L 333.474029 173.997624 
L 333.474029 169.207129 
L 334.588487 169.207129 
L 334.588487 164.416634 
L 334.880144 164.416634 
L 334.880144 159.626139 
L 335.601392 159.626139 
L 335.601392 154.835644 
L 335.729815 154.835644 
L 335.729815 150.045149 
L 336.713879 150.045149 
L 336.713879 145.254653 
L 337.261101 145.254653 
L 337.261101 140.464158 
L 340.731207 140.464158 
L 340.731207 135.673663 
L 340.940249 135.673663 
L 340.940249 130.883168 
L 343.630047 130.883168 
L 343.630047 126.092673 
L 344.39563 126.092673 
L 344.39563 121.302178 
L 345.303789 121.302178 
L 345.303789 116.511683 
L 347.627924 116.511683 
L 347.627924 111.721188 
L 347.847034 111.721188 
L 347.847034 106.930693 
L 348.123528 106.930693 
L 348.123528 102.140198 
L 348.313843 102.140198 
L 348.313843 97.349703 
L 348.41225 97.349703 
L 348.41225 92.559208 
L 348.837993 92.559208 
L 348.837993 87.768713 
L 349.09401 87.768713 
L 349.09401 82.978218 
L 350.336798 82.978218 
L 350.336798 78.187723 
L 350.606496 78.187723 
L 350.606496 73.397228 
L 351.217525 73.397228 
L 351.217525 68.606733 
L 353.155702 68.606733 
L 353.155702 63.816238 
L 354.332243 63.816238 
L 354.332243 59.025743 
L 355.516408 59.025743 
L 355.516408 54.235248 
L 356.242327 54.235248 
L 356.242327 49.444752 
L 356.373781 49.444752 
L 356.373781 44.654257 
L 358.738681 44.654257 
L 358.738681 39.863762 
L 359.106516 39.863762 
L 359.106516 35.073267 
L 360.392455 35.073267 
L 360.392455 30.282772 
L 360.870544 30.282772 
L 360.870544 25.492277 
L 361.346268 25.492277 
L 361.346268 20.701782 
L 365.747689 20.701782 
L 365.747689 15.911287 
L 368.009742 15.911287 
L 368.009742 11.120792 
L 368.103101 11.120792 
L 368.103101 6.330297 
L 368.103101 6.330297 
L 368.103101 6.330297 
L 460.8 6.330297 
" style="fill:none;stroke:#bf00bf;stroke-linecap:square;stroke-width:1.5;"/>
   </g>
   <g id="line2d_24">
    <path clip-path="url(#pcd5c4af216)" d="M 278.062616 293.76 
L 278.062616 288.969505 
L 281.307051 288.969505 
L 281.307051 284.17901 
L 281.789554 284.17901 
L 281.789554 279.388515 
L 282.526618 279.388515 
L 282.526618 274.59802 
L 282.665191 274.59802 
L 282.665191 269.807525 
L 284.253987 269.807525 
L 284.253987 265.01703 
L 286.470559 265.01703 
L 286.470559 260.226535 
L 286.779832 260.226535 
L 286.779832 255.43604 
L 287.67761 255.43604 
L 287.67761 250.645545 
L 288.167425 250.645545 
L 288.167425 245.85505 
L 288.172309 245.85505 
L 288.172309 241.064554 
L 288.661145 241.064554 
L 288.661145 236.274059 
L 290.595198 236.274059 
L 290.595198 231.483564 
L 292.738526 231.483564 
L 292.738526 226.693069 
L 293.445605 226.693069 
L 293.445605 221.902574 
L 310.793612 221.902574 
L 310.793612 217.112079 
L 321.766039 217.112079 
L 321.766039 212.321584 
L 322.525303 212.321584 
L 322.525303 207.531089 
L 325.989779 207.531089 
L 325.989779 202.740594 
L 328.343455 202.740594 
L 328.343455 197.950099 
L 328.409092 197.950099 
L 328.409092 193.159604 
L 329.109938 193.159604 
L 329.109938 188.369109 
L 329.863184 188.369109 
L 329.863184 183.578614 
L 331.122394 183.578614 
L 331.122394 178.788119 
L 331.869596 178.788119 
L 331.869596 173.997624 
L 331.984205 173.997624 
L 331.984205 169.207129 
L 332.648796 169.207129 
L 332.648796 164.416634 
L 333.439417 164.416634 
L 333.439417 159.626139 
L 333.474029 159.626139 
L 333.474029 154.835644 
L 334.089838 154.835644 
L 334.089838 150.045149 
L 334.588487 150.045149 
L 334.588487 145.254653 
L 334.880144 145.254653 
L 334.880144 140.464158 
L 336.873326 140.464158 
L 336.873326 135.673663 
L 337.261101 135.673663 
L 337.261101 130.883168 
L 340.544409 130.883168 
L 340.544409 126.092673 
L 340.731207 126.092673 
L 340.731207 121.302178 
L 342.287487 121.302178 
L 342.287487 116.511683 
L 343.630047 116.511683 
L 343.630047 111.721188 
L 344.056999 111.721188 
L 344.056999 106.930693 
L 344.39563 106.930693 
L 344.39563 102.140198 
L 345.303789 102.140198 
L 345.303789 97.349703 
L 347.847034 97.349703 
L 347.847034 92.559208 
L 348.123528 92.559208 
L 348.123528 87.768713 
L 348.41225 87.768713 
L 348.41225 82.978218 
L 348.837993 82.978218 
L 348.837993 78.187723 
L 349.09401 78.187723 
L 349.09401 73.397228 
L 349.970965 73.397228 
L 349.970965 68.606733 
L 353.053324 68.606733 
L 353.053324 63.816238 
L 353.155702 63.816238 
L 353.155702 59.025743 
L 353.789337 59.025743 
L 353.789337 54.235248 
L 355.516408 54.235248 
L 355.516408 49.444752 
L 356.242327 49.444752 
L 356.242327 44.654257 
L 356.373781 44.654257 
L 356.373781 39.863762 
L 358.738681 39.863762 
L 358.738681 35.073267 
L 360.392455 35.073267 
L 360.392455 30.282772 
L 360.870544 30.282772 
L 360.870544 25.492277 
L 361.346268 25.492277 
L 361.346268 20.701782 
L 365.747689 20.701782 
L 365.747689 15.911287 
L 365.932635 15.911287 
L 365.932635 11.120792 
L 367.95828 11.120792 
L 367.95828 6.330297 
L 367.95828 6.330297 
L 367.95828 6.330297 
L 460.8 6.330297 
" style="fill:none;stroke:#000000;stroke-linecap:square;stroke-width:1.5;"/>
   </g>
   <g id="line2d_25">
    <path clip-path="url(#pcd5c4af216)" d="M 276.972722 293.76 
L 276.972722 288.969505 
L 278.081697 288.969505 
L 278.081697 284.17901 
L 281.082187 284.17901 
L 281.082187 279.388515 
L 281.222608 279.388515 
L 281.222608 274.59802 
L 282.154892 274.59802 
L 282.154892 269.807525 
L 282.892928 269.807525 
L 282.892928 265.01703 
L 283.010103 265.01703 
L 283.010103 260.226535 
L 284.253987 260.226535 
L 284.253987 255.43604 
L 285.169193 255.43604 
L 285.169193 250.645545 
L 286.470559 250.645545 
L 286.470559 245.85505 
L 288.165938 245.85505 
L 288.165938 241.064554 
L 288.167425 241.064554 
L 288.167425 236.274059 
L 290.595198 236.274059 
L 290.595198 231.483564 
L 292.725927 231.483564 
L 292.725927 226.693069 
L 292.738526 226.693069 
L 292.738526 221.902574 
L 310.793612 221.902574 
L 310.793612 217.112079 
L 311.421023 217.112079 
L 311.421023 212.321584 
L 313.889435 212.321584 
L 313.889435 207.531089 
L 314.542372 207.531089 
L 314.542372 202.740594 
L 316.609113 202.740594 
L 316.609113 197.950099 
L 316.664772 197.950099 
L 316.664772 193.159604 
L 320.741281 193.159604 
L 320.741281 188.369109 
L 321.135659 188.369109 
L 321.135659 183.578614 
L 321.385964 183.578614 
L 321.385964 178.788119 
L 321.933224 178.788119 
L 321.933224 173.997624 
L 323.053012 173.997624 
L 323.053012 169.207129 
L 323.244406 169.207129 
L 323.244406 164.416634 
L 326.725856 164.416634 
L 326.725856 159.626139 
L 327.877121 159.626139 
L 327.877121 154.835644 
L 328.343455 154.835644 
L 328.343455 150.045149 
L 331.956162 150.045149 
L 331.956162 145.254653 
L 331.984205 145.254653 
L 331.984205 140.464158 
L 332.992063 140.464158 
L 332.992063 135.673663 
L 333.31307 135.673663 
L 333.31307 130.883168 
L 333.513471 130.883168 
L 333.513471 126.092673 
L 334.588487 126.092673 
L 334.588487 121.302178 
L 336.873326 121.302178 
L 336.873326 116.511683 
L 338.71805 116.511683 
L 338.71805 111.721188 
L 340.544409 111.721188 
L 340.544409 106.930693 
L 340.940148 106.930693 
L 340.940148 102.140198 
L 343.857442 102.140198 
L 343.857442 97.349703 
L 344.056999 97.349703 
L 344.056999 92.559208 
L 347.0314 92.559208 
L 347.0314 87.768713 
L 347.5241 87.768713 
L 347.5241 82.978218 
L 347.627636 82.978218 
L 347.627636 78.187723 
L 347.690053 78.187723 
L 347.690053 73.397228 
L 347.784976 73.397228 
L 347.784976 68.606733 
L 348.872576 68.606733 
L 348.872576 63.816238 
L 350.278052 63.816238 
L 350.278052 59.025743 
L 353.789337 59.025743 
L 353.789337 54.235248 
L 355.516408 54.235248 
L 355.516408 49.444752 
L 356.047912 49.444752 
L 356.047912 44.654257 
L 356.220803 44.654257 
L 356.220803 39.863762 
L 358.738681 39.863762 
L 358.738681 35.073267 
L 360.392455 35.073267 
L 360.392455 30.282772 
L 360.870544 30.282772 
L 360.870544 25.492277 
L 361.345503 25.492277 
L 361.345503 20.701782 
L 364.929336 20.701782 
L 364.929336 15.911287 
L 365.747689 15.911287 
L 365.747689 11.120792 
L 367.95828 11.120792 
L 367.95828 6.330297 
L 367.95828 6.330297 
L 367.95828 6.330297 
L 460.8 6.330297 
" style="fill:none;stroke:#00bfbf;stroke-linecap:square;stroke-width:1.5;"/>
   </g>
   <g id="line2d_26">
    <path clip-path="url(#pcd5c4af216)" d="M 272.540939 293.76 
L 272.540939 288.969505 
L 276.972722 288.969505 
L 276.972722 284.17901 
L 279.14495 284.17901 
L 279.14495 279.388515 
L 280.148446 279.388515 
L 280.148446 274.59802 
L 281.222608 274.59802 
L 281.222608 269.807525 
L 281.489279 269.807525 
L 281.489279 265.01703 
L 282.300267 265.01703 
L 282.300267 260.226535 
L 282.716754 260.226535 
L 282.716754 255.43604 
L 284.253987 255.43604 
L 284.253987 250.645545 
L 285.169193 250.645545 
L 285.169193 245.85505 
L 286.152171 245.85505 
L 286.152171 241.064554 
L 288.167425 241.064554 
L 288.167425 236.274059 
L 290.595198 236.274059 
L 290.595198 231.483564 
L 291.572387 231.483564 
L 291.572387 226.693069 
L 292.603442 226.693069 
L 292.603442 221.902574 
L 295.769249 221.902574 
L 295.769249 217.112079 
L 299.542892 217.112079 
L 299.542892 212.321584 
L 301.188076 212.321584 
L 301.188076 207.531089 
L 301.736927 207.531089 
L 301.736927 202.740594 
L 303.403219 202.740594 
L 303.403219 197.950099 
L 303.567906 197.950099 
L 303.567906 193.159604 
L 304.039049 193.159604 
L 304.039049 188.369109 
L 307.87233 188.369109 
L 307.87233 183.578614 
L 308.607904 183.578614 
L 308.607904 178.788119 
L 310.744927 178.788119 
L 310.744927 173.997624 
L 313.605616 173.997624 
L 313.605616 169.207129 
L 314.589268 169.207129 
L 314.589268 164.416634 
L 314.703458 164.416634 
L 314.703458 159.626139 
L 315.066935 159.626139 
L 315.066935 154.835644 
L 322.955904 154.835644 
L 322.955904 150.045149 
L 323.053012 150.045149 
L 323.053012 145.254653 
L 327.609772 145.254653 
L 327.609772 140.464158 
L 329.541332 140.464158 
L 329.541332 135.673663 
L 330.334532 135.673663 
L 330.334532 130.883168 
L 330.599569 130.883168 
L 330.599569 126.092673 
L 332.192491 126.092673 
L 332.192491 121.302178 
L 332.418839 121.302178 
L 332.418839 116.511683 
L 332.761941 116.511683 
L 332.761941 111.721188 
L 334.588487 111.721188 
L 334.588487 106.930693 
L 335.878386 106.930693 
L 335.878386 102.140198 
L 337.434976 102.140198 
L 337.434976 97.349703 
L 337.476668 97.349703 
L 337.476668 92.559208 
L 338.183937 92.559208 
L 338.183937 87.768713 
L 343.124238 87.768713 
L 343.124238 82.978218 
L 343.738162 82.978218 
L 343.738162 78.187723 
L 344.056999 78.187723 
L 344.056999 73.397228 
L 344.586868 73.397228 
L 344.586868 68.606733 
L 344.924139 68.606733 
L 344.924139 63.816238 
L 345.603677 63.816238 
L 345.603677 59.025743 
L 350.654902 59.025743 
L 350.654902 54.235248 
L 353.201156 54.235248 
L 353.201156 49.444752 
L 356.047912 49.444752 
L 356.047912 44.654257 
L 356.220803 44.654257 
L 356.220803 39.863762 
L 356.671617 39.863762 
L 356.671617 35.073267 
L 357.578305 35.073267 
L 357.578305 30.282772 
L 359.805742 30.282772 
L 359.805742 25.492277 
L 360.870544 25.492277 
L 360.870544 20.701782 
L 364.151804 20.701782 
L 364.151804 15.911287 
L 364.929336 15.911287 
L 364.929336 11.120792 
L 366.235909 11.120792 
L 366.235909 6.330297 
L 366.235909 6.330297 
L 366.235909 6.330297 
L 460.8 6.330297 
" style="fill:none;stroke:#bf00bf;stroke-linecap:square;stroke-width:1.5;"/>
   </g>
   <g id="patch_3">
    <path d="M 0 293.76 
L 0 3.456 
" style="fill:none;stroke:#000000;stroke-linecap:square;stroke-linejoin:miter;stroke-width:0.8;"/>
   </g>
   <g id="patch_4">
    <path d="M 460.8 293.76 
L 460.8 3.456 
" style="fill:none;stroke:#000000;stroke-linecap:square;stroke-linejoin:miter;stroke-width:0.8;"/>
   </g>
   <g id="patch_5">
    <path d="M 0 293.76 
L 460.8 293.76 
" style="fill:none;stroke:#000000;stroke-linecap:square;stroke-linejoin:miter;stroke-width:0.8;"/>
   </g>
   <g id="patch_6">
    <path d="M 0 3.456 
L 460.8 3.456 
" style="fill:none;stroke:#000000;stroke-linecap:square;stroke-linejoin:miter;stroke-width:0.8;"/>
   </g>
   <g id="text_6">
    <!-- {f6-f9}, 20-D -->
    <defs>
     <path d="M 51.125 -9.28125 
L 51.125 -16.3125 
L 48.09375 -16.3125 
Q 35.9375 -16.3125 31.8125 -12.6875 
Q 27.6875 -9.078125 27.6875 1.703125 
L 27.6875 13.375 
Q 27.6875 20.75 25.046875 23.578125 
Q 22.40625 26.421875 15.484375 26.421875 
L 12.5 26.421875 
L 12.5 33.40625 
L 15.484375 33.40625 
Q 22.46875 33.40625 25.078125 36.203125 
Q 27.6875 39.015625 27.6875 46.296875 
L 27.6875 58.015625 
Q 27.6875 68.796875 31.8125 72.390625 
Q 35.9375 75.984375 48.09375 75.984375 
L 51.125 75.984375 
L 51.125 69 
L 47.796875 69 
Q 40.921875 69 38.8125 66.84375 
Q 36.71875 64.703125 36.71875 57.8125 
L 36.71875 45.703125 
Q 36.71875 38.03125 34.5 34.5625 
Q 32.28125 31.109375 26.90625 29.890625 
Q 32.328125 28.5625 34.515625 25.09375 
Q 36.71875 21.625 36.71875 14.015625 
L 36.71875 1.90625 
Q 36.71875 -4.984375 38.8125 -7.125 
Q 40.921875 -9.28125 47.796875 -9.28125 
z
" id="DejaVuSans-123"/>
     <path d="M 33.015625 40.375 
Q 26.375 40.375 22.484375 35.828125 
Q 18.609375 31.296875 18.609375 23.390625 
Q 18.609375 15.53125 22.484375 10.953125 
Q 26.375 6.390625 33.015625 6.390625 
Q 39.65625 6.390625 43.53125 10.953125 
Q 47.40625 15.53125 47.40625 23.390625 
Q 47.40625 31.296875 43.53125 35.828125 
Q 39.65625 40.375 33.015625 40.375 
z
M 52.59375 71.296875 
L 52.59375 62.3125 
Q 48.875 64.0625 45.09375 64.984375 
Q 41.3125 65.921875 37.59375 65.921875 
Q 27.828125 65.921875 22.671875 59.328125 
Q 17.53125 52.734375 16.796875 39.40625 
Q 19.671875 43.65625 24.015625 45.921875 
Q 28.375 48.1875 33.59375 48.1875 
Q 44.578125 48.1875 50.953125 41.515625 
Q 57.328125 34.859375 57.328125 23.390625 
Q 57.328125 12.15625 50.6875 5.359375 
Q 44.046875 -1.421875 33.015625 -1.421875 
Q 20.359375 -1.421875 13.671875 8.265625 
Q 6.984375 17.96875 6.984375 36.375 
Q 6.984375 53.65625 15.1875 63.9375 
Q 23.390625 74.21875 37.203125 74.21875 
Q 40.921875 74.21875 44.703125 73.484375 
Q 48.484375 72.75 52.59375 71.296875 
z
" id="DejaVuSans-54"/>
     <path d="M 10.984375 1.515625 
L 10.984375 10.5 
Q 14.703125 8.734375 18.5 7.8125 
Q 22.3125 6.890625 25.984375 6.890625 
Q 35.75 6.890625 40.890625 13.453125 
Q 46.046875 20.015625 46.78125 33.40625 
Q 43.953125 29.203125 39.59375 26.953125 
Q 35.25 24.703125 29.984375 24.703125 
Q 19.046875 24.703125 12.671875 31.3125 
Q 6.296875 37.9375 6.296875 49.421875 
Q 6.296875 60.640625 12.9375 67.421875 
Q 19.578125 74.21875 30.609375 74.21875 
Q 43.265625 74.21875 49.921875 64.515625 
Q 56.59375 54.828125 56.59375 36.375 
Q 56.59375 19.140625 48.40625 8.859375 
Q 40.234375 -1.421875 26.421875 -1.421875 
Q 22.703125 -1.421875 18.890625 -0.6875 
Q 15.09375 0.046875 10.984375 1.515625 
z
M 30.609375 32.421875 
Q 37.25 32.421875 41.125 36.953125 
Q 45.015625 41.5 45.015625 49.421875 
Q 45.015625 57.28125 41.125 61.84375 
Q 37.25 66.40625 30.609375 66.40625 
Q 23.96875 66.40625 20.09375 61.84375 
Q 16.21875 57.28125 16.21875 49.421875 
Q 16.21875 41.5 20.09375 36.953125 
Q 23.96875 32.421875 30.609375 32.421875 
z
" id="DejaVuSans-57"/>
     <path d="M 12.5 -9.28125 
L 15.921875 -9.28125 
Q 22.75 -9.28125 24.828125 -7.171875 
Q 26.90625 -5.078125 26.90625 1.90625 
L 26.90625 14.015625 
Q 26.90625 21.625 29.09375 25.09375 
Q 31.296875 28.5625 36.71875 29.890625 
Q 31.296875 31.109375 29.09375 34.5625 
Q 26.90625 38.03125 26.90625 45.703125 
L 26.90625 57.8125 
Q 26.90625 64.75 24.828125 66.875 
Q 22.75 69 15.921875 69 
L 12.5 69 
L 12.5 75.984375 
L 15.578125 75.984375 
Q 27.734375 75.984375 31.8125 72.390625 
Q 35.890625 68.796875 35.890625 58.015625 
L 35.890625 46.296875 
Q 35.890625 39.015625 38.515625 36.203125 
Q 41.15625 33.40625 48.09375 33.40625 
L 51.125 33.40625 
L 51.125 26.421875 
L 48.09375 26.421875 
Q 41.15625 26.421875 38.515625 23.578125 
Q 35.890625 20.75 35.890625 13.375 
L 35.890625 1.703125 
Q 35.890625 -9.078125 31.8125 -12.6875 
Q 27.734375 -16.3125 15.578125 -16.3125 
L 12.5 -16.3125 
z
" id="DejaVuSans-125"/>
     <path d="M 11.71875 12.40625 
L 22.015625 12.40625 
L 22.015625 4 
L 14.015625 -11.625 
L 7.71875 -11.625 
L 11.71875 4 
z
" id="DejaVuSans-44"/>
     <path d="M 19.1875 8.296875 
L 53.609375 8.296875 
L 53.609375 0 
L 7.328125 0 
L 7.328125 8.296875 
Q 12.9375 14.109375 22.625 23.890625 
Q 32.328125 33.6875 34.8125 36.53125 
Q 39.546875 41.84375 41.421875 45.53125 
Q 43.3125 49.21875 43.3125 52.78125 
Q 43.3125 58.59375 39.234375 62.25 
Q 35.15625 65.921875 28.609375 65.921875 
Q 23.96875 65.921875 18.8125 64.3125 
Q 13.671875 62.703125 7.8125 59.421875 
L 7.8125 69.390625 
Q 13.765625 71.78125 18.9375 73 
Q 24.125 74.21875 28.421875 74.21875 
Q 39.75 74.21875 46.484375 68.546875 
Q 53.21875 62.890625 53.21875 53.421875 
Q 53.21875 48.921875 51.53125 44.890625 
Q 49.859375 40.875 45.40625 35.40625 
Q 44.1875 33.984375 37.640625 27.21875 
Q 31.109375 20.453125 19.1875 8.296875 
z
" id="DejaVuSans-50"/>
    </defs>
    <g transform="translate(318.609 287.95392)scale(0.2 -0.2)">
     <use xlink:href="#DejaVuSans-123"/>
     <use x="63.623047" xlink:href="#DejaVuSans-102"/>
     <use x="98.828125" xlink:href="#DejaVuSans-54"/>
     <use x="162.451172" xlink:href="#DejaVuSans-45"/>
     <use x="198.535156" xlink:href="#DejaVuSans-102"/>
     <use x="233.740234" xlink:href="#DejaVuSans-57"/>
     <use x="297.363281" xlink:href="#DejaVuSans-125"/>
     <use x="360.986328" xlink:href="#DejaVuSans-44"/>
     <use x="392.773438" xlink:href="#DejaVuSans-32"/>
     <use x="424.560547" xlink:href="#DejaVuSans-50"/>
     <use x="488.183594" xlink:href="#DejaVuSans-48"/>
     <use x="551.806641" xlink:href="#DejaVuSans-45"/>
     <use x="587.890625" xlink:href="#DejaVuSans-68"/>
    </g>
   </g>
   <g id="text_7">
    <!-- v2.4 -->
    <defs>
     <path d="M 2.984375 54.6875 
L 12.5 54.6875 
L 29.59375 8.796875 
L 46.6875 54.6875 
L 56.203125 54.6875 
L 35.6875 0 
L 23.484375 0 
z
" id="DejaVuSans-118"/>
     <path d="M 10.6875 12.40625 
L 21 12.40625 
L 21 0 
L 10.6875 0 
z
" id="DejaVuSans-46"/>
    </defs>
    <g style="fill:#808080;" transform="translate(219.489063 288.777272)scale(0.1 -0.1)">
     <use xlink:href="#DejaVuSans-118"/>
     <use x="59.179688" xlink:href="#DejaVuSans-50"/>
     <use x="122.802734" xlink:href="#DejaVuSans-46"/>
     <use x="154.589844" xlink:href="#DejaVuSans-52"/>
    </g>
   </g>
  </g>
 </g>
 <defs>
  <clipPath id="pcd5c4af216">
   <rect height="290.304" width="460.8" x="0" y="3.456"/>
  </clipPath>
 </defs>
</svg>
