<?xml version="1.0" encoding="utf-8" standalone="no"?>
<!DOCTYPE svg PUBLIC "-//W3C//DTD SVG 1.1//EN"
  "http://www.w3.org/Graphics/SVG/1.1/DTD/svg11.dtd">
<!-- Created with matplotlib (https://matplotlib.org/) -->
<svg height="345.6pt" version="1.1" viewBox="0 0 460.8 345.6" width="460.8pt" xmlns="http://www.w3.org/2000/svg" xmlns:xlink="http://www.w3.org/1999/xlink">
 <defs>
  <style type="text/css">
*{stroke-linecap:butt;stroke-linejoin:round;}
  </style>
 </defs>
 <g id="figure_1">
  <g id="patch_1">
   <path d="M 0 345.6 
L 460.8 345.6 
L 460.8 0 
L 0 0 
z
" style="fill:#ffffff;"/>
  </g>
  <g id="axes_1">
   <g id="patch_2">
    <path d="M 0 293.76 
L 460.8 293.76 
L 460.8 3.456 
L 0 3.456 
z
" style="fill:#ffffff;"/>
   </g>
   <g id="matplotlib.axis_1">
    <g id="xtick_1">
     <g id="line2d_1">
      <path clip-path="url(#pb6654d462e)" d="M 107.893076 293.76 
L 107.893076 3.456 
" style="fill:none;stroke:#b0b0b0;stroke-linecap:square;stroke-width:0.8;"/>
     </g>
     <g id="line2d_2">
      <defs>
       <path d="M 0 0 
L 0 3.5 
" id="m141ca274c3" style="stroke:#000000;stroke-width:0.8;"/>
      </defs>
      <g>
       <use style="stroke:#000000;stroke-width:0.8;" x="107.893076" xlink:href="#m141ca274c3" y="293.76"/>
      </g>
     </g>
     <g id="text_1">
      <!-- -4 -->
      <defs>
       <path d="M 4.890625 31.390625 
L 31.203125 31.390625 
L 31.203125 23.390625 
L 4.890625 23.390625 
z
" id="DejaVuSans-45"/>
       <path d="M 37.796875 64.3125 
L 12.890625 25.390625 
L 37.796875 25.390625 
z
M 35.203125 72.90625 
L 47.609375 72.90625 
L 47.609375 25.390625 
L 58.015625 25.390625 
L 58.015625 17.1875 
L 47.609375 17.1875 
L 47.609375 0 
L 37.796875 0 
L 37.796875 17.1875 
L 4.890625 17.1875 
L 4.890625 26.703125 
z
" id="DejaVuSans-52"/>
      </defs>
      <g transform="translate(97.922764 315.956875)scale(0.2 -0.2)">
       <use xlink:href="#DejaVuSans-45"/>
       <use x="36.083984" xlink:href="#DejaVuSans-52"/>
      </g>
     </g>
    </g>
    <g id="xtick_2">
     <g id="line2d_3">
      <path clip-path="url(#pb6654d462e)" d="M 215.90284 293.76 
L 215.90284 3.456 
" style="fill:none;stroke:#b0b0b0;stroke-linecap:square;stroke-width:0.8;"/>
     </g>
     <g id="line2d_4">
      <g>
       <use style="stroke:#000000;stroke-width:0.8;" x="215.90284" xlink:href="#m141ca274c3" y="293.76"/>
      </g>
     </g>
     <g id="text_2">
      <!-- 0 -->
      <defs>
       <path d="M 31.78125 66.40625 
Q 24.171875 66.40625 20.328125 58.90625 
Q 16.5 51.421875 16.5 36.375 
Q 16.5 21.390625 20.328125 13.890625 
Q 24.171875 6.390625 31.78125 6.390625 
Q 39.453125 6.390625 43.28125 13.890625 
Q 47.125 21.390625 47.125 36.375 
Q 47.125 51.421875 43.28125 58.90625 
Q 39.453125 66.40625 31.78125 66.40625 
z
M 31.78125 74.21875 
Q 44.046875 74.21875 50.515625 64.515625 
Q 56.984375 54.828125 56.984375 36.375 
Q 56.984375 17.96875 50.515625 8.265625 
Q 44.046875 -1.421875 31.78125 -1.421875 
Q 19.53125 -1.421875 13.0625 8.265625 
Q 6.59375 17.96875 6.59375 36.375 
Q 6.59375 54.828125 13.0625 64.515625 
Q 19.53125 74.21875 31.78125 74.21875 
z
" id="DejaVuSans-48"/>
      </defs>
      <g transform="translate(209.54034 315.956875)scale(0.2 -0.2)">
       <use xlink:href="#DejaVuSans-48"/>
      </g>
     </g>
    </g>
    <g id="xtick_3">
     <g id="line2d_5">
      <path clip-path="url(#pb6654d462e)" d="M 323.912604 293.76 
L 323.912604 3.456 
" style="fill:none;stroke:#b0b0b0;stroke-linecap:square;stroke-width:0.8;"/>
     </g>
     <g id="line2d_6">
      <g>
       <use style="stroke:#000000;stroke-width:0.8;" x="323.912604" xlink:href="#m141ca274c3" y="293.76"/>
      </g>
     </g>
     <g id="text_3">
      <!-- 4 -->
      <g transform="translate(317.550104 315.956875)scale(0.2 -0.2)">
       <use xlink:href="#DejaVuSans-52"/>
      </g>
     </g>
    </g>
    <g id="xtick_4">
     <g id="line2d_7">
      <path clip-path="url(#pb6654d462e)" d="M 431.922368 293.76 
L 431.922368 3.456 
" style="fill:none;stroke:#b0b0b0;stroke-linecap:square;stroke-width:0.8;"/>
     </g>
     <g id="line2d_8">
      <g>
       <use style="stroke:#000000;stroke-width:0.8;" x="431.922368" xlink:href="#m141ca274c3" y="293.76"/>
      </g>
     </g>
     <g id="text_4">
      <!-- 8 -->
      <defs>
       <path d="M 31.78125 34.625 
Q 24.75 34.625 20.71875 30.859375 
Q 16.703125 27.09375 16.703125 20.515625 
Q 16.703125 13.921875 20.71875 10.15625 
Q 24.75 6.390625 31.78125 6.390625 
Q 38.8125 6.390625 42.859375 10.171875 
Q 46.921875 13.96875 46.921875 20.515625 
Q 46.921875 27.09375 42.890625 30.859375 
Q 38.875 34.625 31.78125 34.625 
z
M 21.921875 38.8125 
Q 15.578125 40.375 12.03125 44.71875 
Q 8.5 49.078125 8.5 55.328125 
Q 8.5 64.0625 14.71875 69.140625 
Q 20.953125 74.21875 31.78125 74.21875 
Q 42.671875 74.21875 48.875 69.140625 
Q 55.078125 64.0625 55.078125 55.328125 
Q 55.078125 49.078125 51.53125 44.71875 
Q 48 40.375 41.703125 38.8125 
Q 48.828125 37.15625 52.796875 32.3125 
Q 56.78125 27.484375 56.78125 20.515625 
Q 56.78125 9.90625 50.3125 4.234375 
Q 43.84375 -1.421875 31.78125 -1.421875 
Q 19.734375 -1.421875 13.25 4.234375 
Q 6.78125 9.90625 6.78125 20.515625 
Q 6.78125 27.484375 10.78125 32.3125 
Q 14.796875 37.15625 21.921875 38.8125 
z
M 18.3125 54.390625 
Q 18.3125 48.734375 21.84375 45.5625 
Q 25.390625 42.390625 31.78125 42.390625 
Q 38.140625 42.390625 41.71875 45.5625 
Q 45.3125 48.734375 45.3125 54.390625 
Q 45.3125 60.0625 41.71875 63.234375 
Q 38.140625 66.40625 31.78125 66.40625 
Q 25.390625 66.40625 21.84375 63.234375 
Q 18.3125 60.0625 18.3125 54.390625 
z
" id="DejaVuSans-56"/>
      </defs>
      <g transform="translate(425.559868 315.956875)scale(0.2 -0.2)">
       <use xlink:href="#DejaVuSans-56"/>
      </g>
     </g>
    </g>
    <g id="text_5">
     <!-- log10 of Df -->
     <defs>
      <path d="M 9.421875 75.984375 
L 18.40625 75.984375 
L 18.40625 0 
L 9.421875 0 
z
" id="DejaVuSans-108"/>
      <path d="M 30.609375 48.390625 
Q 23.390625 48.390625 19.1875 42.75 
Q 14.984375 37.109375 14.984375 27.296875 
Q 14.984375 17.484375 19.15625 11.84375 
Q 23.34375 6.203125 30.609375 6.203125 
Q 37.796875 6.203125 41.984375 11.859375 
Q 46.1875 17.53125 46.1875 27.296875 
Q 46.1875 37.015625 41.984375 42.703125 
Q 37.796875 48.390625 30.609375 48.390625 
z
M 30.609375 56 
Q 42.328125 56 49.015625 48.375 
Q 55.71875 40.765625 55.71875 27.296875 
Q 55.71875 13.875 49.015625 6.21875 
Q 42.328125 -1.421875 30.609375 -1.421875 
Q 18.84375 -1.421875 12.171875 6.21875 
Q 5.515625 13.875 5.515625 27.296875 
Q 5.515625 40.765625 12.171875 48.375 
Q 18.84375 56 30.609375 56 
z
" id="DejaVuSans-111"/>
      <path d="M 45.40625 27.984375 
Q 45.40625 37.75 41.375 43.109375 
Q 37.359375 48.484375 30.078125 48.484375 
Q 22.859375 48.484375 18.828125 43.109375 
Q 14.796875 37.75 14.796875 27.984375 
Q 14.796875 18.265625 18.828125 12.890625 
Q 22.859375 7.515625 30.078125 7.515625 
Q 37.359375 7.515625 41.375 12.890625 
Q 45.40625 18.265625 45.40625 27.984375 
z
M 54.390625 6.78125 
Q 54.390625 -7.171875 48.1875 -13.984375 
Q 42 -20.796875 29.203125 -20.796875 
Q 24.46875 -20.796875 20.265625 -20.09375 
Q 16.0625 -19.390625 12.109375 -17.921875 
L 12.109375 -9.1875 
Q 16.0625 -11.328125 19.921875 -12.34375 
Q 23.78125 -13.375 27.78125 -13.375 
Q 36.625 -13.375 41.015625 -8.765625 
Q 45.40625 -4.15625 45.40625 5.171875 
L 45.40625 9.625 
Q 42.625 4.78125 38.28125 2.390625 
Q 33.9375 0 27.875 0 
Q 17.828125 0 11.671875 7.65625 
Q 5.515625 15.328125 5.515625 27.984375 
Q 5.515625 40.671875 11.671875 48.328125 
Q 17.828125 56 27.875 56 
Q 33.9375 56 38.28125 53.609375 
Q 42.625 51.21875 45.40625 46.390625 
L 45.40625 54.6875 
L 54.390625 54.6875 
z
" id="DejaVuSans-103"/>
      <path d="M 12.40625 8.296875 
L 28.515625 8.296875 
L 28.515625 63.921875 
L 10.984375 60.40625 
L 10.984375 69.390625 
L 28.421875 72.90625 
L 38.28125 72.90625 
L 38.28125 8.296875 
L 54.390625 8.296875 
L 54.390625 0 
L 12.40625 0 
z
" id="DejaVuSans-49"/>
      <path id="DejaVuSans-32"/>
      <path d="M 37.109375 75.984375 
L 37.109375 68.5 
L 28.515625 68.5 
Q 23.6875 68.5 21.796875 66.546875 
Q 19.921875 64.59375 19.921875 59.515625 
L 19.921875 54.6875 
L 34.71875 54.6875 
L 34.71875 47.703125 
L 19.921875 47.703125 
L 19.921875 0 
L 10.890625 0 
L 10.890625 47.703125 
L 2.296875 47.703125 
L 2.296875 54.6875 
L 10.890625 54.6875 
L 10.890625 58.5 
Q 10.890625 67.625 15.140625 71.796875 
Q 19.390625 75.984375 28.609375 75.984375 
z
" id="DejaVuSans-102"/>
      <path d="M 19.671875 64.796875 
L 19.671875 8.109375 
L 31.59375 8.109375 
Q 46.6875 8.109375 53.6875 14.9375 
Q 60.6875 21.78125 60.6875 36.53125 
Q 60.6875 51.171875 53.6875 57.984375 
Q 46.6875 64.796875 31.59375 64.796875 
z
M 9.8125 72.90625 
L 30.078125 72.90625 
Q 51.265625 72.90625 61.171875 64.09375 
Q 71.09375 55.28125 71.09375 36.53125 
Q 71.09375 17.671875 61.125 8.828125 
Q 51.171875 0 30.078125 0 
L 9.8125 0 
z
" id="DejaVuSans-68"/>
     </defs>
     <g transform="translate(175.214063 339.313125)scale(0.2 -0.2)">
      <use xlink:href="#DejaVuSans-108"/>
      <use x="27.783203" xlink:href="#DejaVuSans-111"/>
      <use x="88.964844" xlink:href="#DejaVuSans-103"/>
      <use x="152.441406" xlink:href="#DejaVuSans-49"/>
      <use x="216.064453" xlink:href="#DejaVuSans-48"/>
      <use x="279.6875" xlink:href="#DejaVuSans-32"/>
      <use x="311.474609" xlink:href="#DejaVuSans-111"/>
      <use x="372.65625" xlink:href="#DejaVuSans-102"/>
      <use x="407.861328" xlink:href="#DejaVuSans-32"/>
      <use x="439.648438" xlink:href="#DejaVuSans-68"/>
      <use x="516.650391" xlink:href="#DejaVuSans-102"/>
     </g>
    </g>
   </g>
   <g id="matplotlib.axis_2">
    <g id="ytick_1">
     <g id="line2d_9">
      <path clip-path="url(#pb6654d462e)" d="M 0 293.76 
L 460.8 293.76 
" style="fill:none;stroke:#b0b0b0;stroke-linecap:square;stroke-width:0.8;"/>
     </g>
     <g id="line2d_10">
      <defs>
       <path d="M 0 0 
L -3.5 0 
" id="mecb03389ac" style="stroke:#000000;stroke-width:0.8;"/>
      </defs>
      <g>
       <use style="stroke:#000000;stroke-width:0.8;" x="0" xlink:href="#mecb03389ac" y="293.76"/>
      </g>
     </g>
    </g>
    <g id="ytick_2">
     <g id="line2d_11">
      <path clip-path="url(#pb6654d462e)" d="M 0 236.274059 
L 460.8 236.274059 
" style="fill:none;stroke:#b0b0b0;stroke-linecap:square;stroke-width:0.8;"/>
     </g>
     <g id="line2d_12">
      <g>
       <use style="stroke:#000000;stroke-width:0.8;" x="0" xlink:href="#mecb03389ac" y="236.274059"/>
      </g>
     </g>
    </g>
    <g id="ytick_3">
     <g id="line2d_13">
      <path clip-path="url(#pb6654d462e)" d="M 0 178.788119 
L 460.8 178.788119 
" style="fill:none;stroke:#b0b0b0;stroke-linecap:square;stroke-width:0.8;"/>
     </g>
     <g id="line2d_14">
      <g>
       <use style="stroke:#000000;stroke-width:0.8;" x="0" xlink:href="#mecb03389ac" y="178.788119"/>
      </g>
     </g>
    </g>
    <g id="ytick_4">
     <g id="line2d_15">
      <path clip-path="url(#pb6654d462e)" d="M 0 121.302178 
L 460.8 121.302178 
" style="fill:none;stroke:#b0b0b0;stroke-linecap:square;stroke-width:0.8;"/>
     </g>
     <g id="line2d_16">
      <g>
       <use style="stroke:#000000;stroke-width:0.8;" x="0" xlink:href="#mecb03389ac" y="121.302178"/>
      </g>
     </g>
    </g>
    <g id="ytick_5">
     <g id="line2d_17">
      <path clip-path="url(#pb6654d462e)" d="M 0 63.816238 
L 460.8 63.816238 
" style="fill:none;stroke:#b0b0b0;stroke-linecap:square;stroke-width:0.8;"/>
     </g>
     <g id="line2d_18">
      <g>
       <use style="stroke:#000000;stroke-width:0.8;" x="0" xlink:href="#mecb03389ac" y="63.816238"/>
      </g>
     </g>
    </g>
    <g id="ytick_6">
     <g id="line2d_19">
      <path clip-path="url(#pb6654d462e)" d="M 0 6.330297 
L 460.8 6.330297 
" style="fill:none;stroke:#b0b0b0;stroke-linecap:square;stroke-width:0.8;"/>
     </g>
     <g id="line2d_20">
      <g>
       <use style="stroke:#000000;stroke-width:0.8;" x="0" xlink:href="#mecb03389ac" y="6.330297"/>
      </g>
     </g>
    </g>
   </g>
   <g id="line2d_21">
    <path clip-path="url(#pb6654d462e)" d="M 230.124216 293.76 
L 230.124216 289.927604 
L 232.905272 289.927604 
L 232.905272 286.095208 
L 235.624854 286.095208 
L 235.624854 282.262812 
L 236.87822 282.262812 
L 236.87822 278.430416 
L 237.994535 278.430416 
L 237.994535 274.59802 
L 240.280036 274.59802 
L 240.31863 266.933228 
L 242.971442 266.933228 
L 242.971442 263.100832 
L 243.459654 263.100832 
L 243.459654 259.268436 
L 245.046299 259.268436 
L 245.046299 255.43604 
L 245.731027 255.43604 
L 245.731027 251.603644 
L 246.112994 251.603644 
L 246.112994 247.771248 
L 246.921941 247.771248 
L 246.921941 243.938851 
L 249.157636 243.938851 
L 249.157636 240.106455 
L 250.76277 240.106455 
L 250.76277 236.274059 
L 252.02069 236.274059 
L 252.02069 232.441663 
L 255.506437 232.441663 
L 255.506437 228.609267 
L 256.675099 228.609267 
L 256.675099 224.776871 
L 257.722298 224.776871 
L 257.722298 220.944475 
L 258.218956 220.944475 
L 258.23263 209.447287 
L 258.575449 209.447287 
L 258.575449 205.614891 
L 258.787926 205.614891 
L 258.787926 201.782495 
L 258.909233 201.782495 
L 258.909233 197.950099 
L 259.125862 197.950099 
L 259.125862 194.117703 
L 259.563234 194.117703 
L 259.563234 190.285307 
L 260.447819 190.285307 
L 260.447819 186.452911 
L 260.599361 186.452911 
L 260.599361 182.620515 
L 260.842252 182.620515 
L 260.855349 174.955723 
L 261.128815 174.955723 
L 261.128815 171.123327 
L 261.322994 171.123327 
L 261.322994 167.290931 
L 261.99807 167.290931 
L 262.065313 159.626139 
L 262.464573 159.626139 
L 262.484522 151.961347 
L 262.755875 151.961347 
L 262.801008 144.296554 
L 263.071543 144.296554 
L 263.071543 140.464158 
L 263.829886 140.464158 
L 263.829886 136.631762 
L 264.127767 136.631762 
L 264.127767 132.799366 
L 265.667115 132.799366 
L 265.676159 125.134574 
L 266.203879 125.134574 
L 266.203879 121.302178 
L 267.273967 121.302178 
L 267.273967 117.469782 
L 267.634928 117.469782 
L 267.649796 109.80499 
L 268.369376 109.80499 
L 268.369376 105.972594 
L 268.63439 105.972594 
L 268.63439 102.140198 
L 268.831735 102.140198 
L 268.831735 98.307802 
L 269.409503 98.307802 
L 269.409503 94.475406 
L 270.063111 94.475406 
L 270.063111 90.64301 
L 270.36531 90.64301 
L 270.36531 86.810614 
L 271.399524 86.810614 
L 271.399524 82.978218 
L 272.097334 82.978218 
L 272.097334 79.145822 
L 272.336919 79.145822 
L 272.336919 75.313426 
L 272.842793 75.313426 
L 272.842793 71.48103 
L 273.702767 71.48103 
L 273.702767 67.648634 
L 275.659789 67.648634 
L 275.659789 63.816238 
L 319.918746 63.816238 
L 319.918746 59.983842 
L 327.194759 59.983842 
L 327.194759 56.151446 
L 331.733846 56.151446 
L 331.733846 52.31905 
L 332.213966 52.31905 
L 332.213966 48.486653 
L 332.620169 48.486653 
L 332.620169 44.654257 
L 338.868958 44.654257 
L 338.868958 40.821861 
L 341.178288 40.821861 
L 341.178288 36.989465 
L 342.585614 36.989465 
L 342.630924 29.324673 
L 343.565637 29.324673 
L 343.565637 25.492277 
L 352.553832 25.492277 
L 352.553832 21.659881 
L 357.608809 21.659881 
L 357.608809 17.827485 
L 359.861747 17.827485 
L 359.861747 13.995089 
L 362.303397 13.995089 
L 362.303397 10.162693 
L 375.021617 10.162693 
L 375.021617 6.330297 
L 375.021617 6.330297 
L 460.8 6.330297 
L 460.8 6.330297 
" style="fill:none;stroke:#ff0000;stroke-linecap:square;stroke-width:3;"/>
   </g>
   <g id="line2d_22">
    <path clip-path="url(#pb6654d462e)" d="M 242.203423 293.76 
L 242.203423 289.927604 
L 243.709169 289.927604 
L 243.709169 286.095208 
L 244.135446 286.095208 
L 244.135446 282.262812 
L 247.028523 282.262812 
L 247.028523 278.430416 
L 247.873095 278.430416 
L 247.873095 274.59802 
L 249.536127 274.59802 
L 249.536127 270.765624 
L 254.445656 270.765624 
L 254.529806 263.100832 
L 255.18107 263.100832 
L 255.251799 255.43604 
L 255.577182 255.43604 
L 255.577182 251.603644 
L 257.657853 251.603644 
L 257.657853 247.771248 
L 258.20966 247.771248 
L 258.20966 243.938851 
L 258.542868 243.938851 
L 258.542868 240.106455 
L 264.132873 240.106455 
L 264.132873 236.274059 
L 266.030211 236.274059 
L 266.030211 232.441663 
L 267.335082 232.441663 
L 267.335082 228.609267 
L 267.518969 228.609267 
L 267.518969 224.776871 
L 267.669045 224.776871 
L 267.669045 220.944475 
L 267.992199 220.944475 
L 267.998056 213.279683 
L 269.683525 213.279683 
L 269.683525 209.447287 
L 269.850569 209.447287 
L 269.931356 201.782495 
L 270.206717 201.782495 
L 270.206717 197.950099 
L 270.638045 197.950099 
L 270.638045 194.117703 
L 270.850781 194.117703 
L 270.925863 186.452911 
L 271.052763 186.452911 
L 271.052763 182.620515 
L 271.238263 182.620515 
L 271.238263 178.788119 
L 271.366469 178.788119 
L 271.366469 174.955723 
L 271.751414 174.955723 
L 271.751414 171.123327 
L 272.737567 171.123327 
L 272.737567 167.290931 
L 272.893178 167.290931 
L 272.916121 159.626139 
L 273.025533 159.626139 
L 273.025533 155.793743 
L 273.445857 155.793743 
L 273.445857 151.961347 
L 273.937912 151.961347 
L 273.937912 148.12895 
L 274.843018 148.12895 
L 274.843018 144.296554 
L 275.038629 144.296554 
L 275.141199 136.631762 
L 275.946771 136.631762 
L 275.946771 132.799366 
L 276.322559 132.799366 
L 276.322559 128.96697 
L 276.964552 128.96697 
L 276.964552 125.134574 
L 277.138337 125.134574 
L 277.138337 121.302178 
L 277.383334 121.302178 
L 277.383334 117.469782 
L 278.242468 117.469782 
L 278.242468 113.637386 
L 278.769119 113.637386 
L 278.769119 109.80499 
L 279.183273 109.80499 
L 279.183273 105.972594 
L 280.044879 105.972594 
L 280.044879 102.140198 
L 280.198823 102.140198 
L 280.198823 98.307802 
L 281.010899 98.307802 
L 281.010899 94.475406 
L 281.149709 94.475406 
L 281.149709 90.64301 
L 281.431628 90.64301 
L 281.431628 86.810614 
L 282.019139 86.810614 
L 282.019139 82.978218 
L 282.690138 82.978218 
L 282.690138 79.145822 
L 282.904678 79.145822 
L 282.904678 75.313426 
L 284.461666 75.313426 
L 284.461666 71.48103 
L 285.381708 71.48103 
L 285.381708 67.648634 
L 294.002545 67.648634 
L 294.002545 63.816238 
L 367.282274 63.816238 
L 367.282274 59.983842 
L 372.443947 59.983842 
L 372.443947 56.151446 
L 373.110957 56.151446 
L 373.110957 52.31905 
L 375.928418 52.31905 
L 375.928418 48.486653 
L 376.597791 48.486653 
L 376.597791 44.654257 
L 386.172214 44.654257 
L 386.172214 40.821861 
L 386.488332 40.821861 
L 386.488332 36.989465 
L 386.849182 36.989465 
L 386.849182 33.157069 
L 387.710844 33.157069 
L 387.710844 29.324673 
L 398.136295 29.324673 
L 398.136295 25.492277 
L 400.676603 25.492277 
L 400.676603 21.659881 
L 405.732546 21.659881 
L 405.732546 17.827485 
L 409.207374 17.827485 
L 409.207374 13.995089 
L 409.3255 13.995089 
L 409.3255 10.162693 
L 414.20372 10.162693 
L 414.20372 6.330297 
L 414.20372 6.330297 
L 460.8 6.330297 
L 460.8 6.330297 
" style="fill:none;stroke:#00bfbf;stroke-linecap:square;stroke-width:1.5;"/>
   </g>
   <g id="line2d_23">
    <path clip-path="url(#pb6654d462e)" d="M 237.587141 293.76 
L 237.587141 289.927604 
L 243.709169 289.927604 
L 243.709169 286.095208 
L 243.953457 286.095208 
L 243.953457 282.262812 
L 245.731027 282.262812 
L 245.731027 278.430416 
L 246.224643 278.430416 
L 246.224643 274.59802 
L 247.873095 274.59802 
L 247.873095 270.765624 
L 249.536127 270.765624 
L 249.536127 266.933228 
L 252.937591 266.933228 
L 252.937591 263.100832 
L 253.205245 263.100832 
L 253.205245 259.268436 
L 254.351923 259.268436 
L 254.351923 255.43604 
L 255.251799 255.43604 
L 255.251799 251.603644 
L 256.457156 251.603644 
L 256.457156 247.771248 
L 257.657853 247.771248 
L 257.657853 243.938851 
L 258.283983 243.938851 
L 258.283983 240.106455 
L 258.542868 240.106455 
L 258.542868 236.274059 
L 262.517078 236.274059 
L 262.517078 232.441663 
L 265.676159 232.441663 
L 265.676159 228.609267 
L 266.030211 228.609267 
L 266.030211 224.776871 
L 266.59461 224.776871 
L 266.625701 217.112079 
L 266.718906 217.112079 
L 266.7877 205.614891 
L 267.224563 205.614891 
L 267.327139 197.950099 
L 267.669045 197.950099 
L 267.669045 194.117703 
L 267.875993 194.117703 
L 267.875993 190.285307 
L 268.511773 190.285307 
L 268.511773 186.452911 
L 268.928903 186.452911 
L 268.928903 182.620515 
L 269.073799 182.620515 
L 269.073799 178.788119 
L 269.558933 178.788119 
L 269.558933 174.955723 
L 269.850569 174.955723 
L 269.931356 167.290931 
L 269.991641 167.290931 
L 269.991641 163.458535 
L 270.326129 163.458535 
L 270.326129 159.626139 
L 270.850781 159.626139 
L 270.850781 155.793743 
L 271.099652 155.793743 
L 271.099652 151.961347 
L 271.465383 151.961347 
L 271.465383 148.12895 
L 271.887296 148.12895 
L 271.887296 144.296554 
L 272.488561 144.296554 
L 272.571622 136.631762 
L 272.73385 136.631762 
L 272.795604 128.96697 
L 273.266545 128.96697 
L 273.266545 125.134574 
L 273.445857 125.134574 
L 273.445857 121.302178 
L 273.937912 121.302178 
L 273.937912 117.469782 
L 275.141199 117.469782 
L 275.141199 113.637386 
L 275.31633 113.637386 
L 275.31633 109.80499 
L 275.624906 109.80499 
L 275.624906 105.972594 
L 276.308043 105.972594 
L 276.308043 102.140198 
L 277.138337 102.140198 
L 277.237572 94.475406 
L 277.383334 94.475406 
L 277.383334 90.64301 
L 278.325262 90.64301 
L 278.325262 86.810614 
L 280.05335 86.810614 
L 280.05335 82.978218 
L 280.198823 82.978218 
L 280.198823 79.145822 
L 280.340829 79.145822 
L 280.444779 71.48103 
L 281.246669 71.48103 
L 281.308568 63.816238 
L 342.850094 63.816238 
L 342.850094 59.983842 
L 367.282274 59.983842 
L 367.282274 56.151446 
L 370.611793 56.151446 
L 370.611793 52.31905 
L 372.443947 52.31905 
L 372.443947 48.486653 
L 373.110957 48.486653 
L 373.110957 44.654257 
L 374.389627 44.654257 
L 374.389627 40.821861 
L 375.928418 40.821861 
L 375.928418 36.989465 
L 376.553636 36.989465 
L 376.597791 29.324673 
L 385.800379 29.324673 
L 385.800379 25.492277 
L 386.799417 25.492277 
L 386.799417 21.659881 
L 386.937182 21.659881 
L 386.937182 17.827485 
L 405.732546 17.827485 
L 405.732546 13.995089 
L 407.389131 13.995089 
L 407.389131 10.162693 
L 409.630488 10.162693 
L 409.630488 6.330297 
L 409.630488 6.330297 
L 460.8 6.330297 
L 460.8 6.330297 
" style="fill:none;stroke:#bf00bf;stroke-linecap:square;stroke-width:1.5;"/>
   </g>
   <g id="line2d_24">
    <path clip-path="url(#pb6654d462e)" d="M 237.485419 293.76 
L 237.587141 286.095208 
L 241.977217 286.095208 
L 241.977217 282.262812 
L 243.709169 282.262812 
L 243.709169 278.430416 
L 243.953457 278.430416 
L 243.953457 274.59802 
L 245.731027 274.59802 
L 245.731027 270.765624 
L 246.112994 270.765624 
L 246.112994 266.933228 
L 247.825256 266.933228 
L 247.825256 263.100832 
L 248.191285 263.100832 
L 248.191285 259.268436 
L 252.6072 259.268436 
L 252.6072 255.43604 
L 254.351923 255.43604 
L 254.351923 251.603644 
L 256.2265 251.603644 
L 256.300872 243.938851 
L 257.336582 243.938851 
L 257.336582 240.106455 
L 258.066093 240.106455 
L 258.066093 236.274059 
L 258.283983 236.274059 
L 258.283983 232.441663 
L 259.427302 232.441663 
L 259.427302 228.609267 
L 260.447819 228.609267 
L 260.447819 224.776871 
L 260.768935 224.776871 
L 260.768935 220.944475 
L 260.922769 220.944475 
L 260.922769 217.112079 
L 261.293998 217.112079 
L 261.293998 213.279683 
L 262.011046 213.279683 
L 262.011046 209.447287 
L 262.787587 209.447287 
L 262.787587 205.614891 
L 263.805423 205.614891 
L 263.805423 201.782495 
L 264.302513 201.782495 
L 264.335441 194.117703 
L 264.566101 194.117703 
L 264.566101 190.285307 
L 264.72431 190.285307 
L 264.72431 186.452911 
L 265.676159 186.452911 
L 265.676159 182.620515 
L 266.472553 182.620515 
L 266.472553 178.788119 
L 266.718906 178.788119 
L 266.7877 171.123327 
L 267.669045 171.123327 
L 267.669045 167.290931 
L 268.831735 167.290931 
L 268.831735 163.458535 
L 269.750923 163.458535 
L 269.850569 155.793743 
L 270.000986 155.793743 
L 270.000986 151.961347 
L 270.640559 151.961347 
L 270.640559 148.12895 
L 270.827215 148.12895 
L 270.827215 144.296554 
L 271.32861 144.296554 
L 271.32861 140.464158 
L 271.580457 140.464158 
L 271.580457 136.631762 
L 271.887296 136.631762 
L 271.887296 132.799366 
L 272.488561 132.799366 
L 272.571622 125.134574 
L 272.73385 125.134574 
L 272.795604 117.469782 
L 273.445857 117.469782 
L 273.485712 109.80499 
L 273.702767 109.80499 
L 273.702767 105.972594 
L 273.937912 105.972594 
L 273.937912 102.140198 
L 274.327758 102.140198 
L 274.413995 94.475406 
L 274.796646 94.475406 
L 274.796646 90.64301 
L 275.56767 90.64301 
L 275.56767 86.810614 
L 276.308043 86.810614 
L 276.308043 82.978218 
L 276.76605 82.978218 
L 276.76605 79.145822 
L 277.707139 79.145822 
L 277.707139 75.313426 
L 278.325262 75.313426 
L 278.325262 71.48103 
L 280.05335 71.48103 
L 280.05335 67.648634 
L 281.246669 67.648634 
L 281.246669 63.816238 
L 342.850094 63.816238 
L 342.850094 59.983842 
L 343.565637 59.983842 
L 343.565637 56.151446 
L 353.827245 56.151446 
L 353.827245 52.31905 
L 359.861747 52.31905 
L 359.861747 48.486653 
L 366.071417 48.486653 
L 366.071417 44.654257 
L 369.263458 44.654257 
L 369.263458 40.821861 
L 370.611793 40.821861 
L 370.611793 36.989465 
L 373.110957 36.989465 
L 373.110957 33.157069 
L 374.389627 33.157069 
L 374.389627 29.324673 
L 375.928418 29.324673 
L 375.928418 25.492277 
L 376.597791 25.492277 
L 376.597791 21.659881 
L 377.666003 21.659881 
L 377.666003 17.827485 
L 381.931013 17.827485 
L 381.931013 13.995089 
L 382.394084 13.995089 
L 382.394084 10.162693 
L 385.828537 10.162693 
L 385.828537 6.330297 
L 385.828537 6.330297 
L 460.8 6.330297 
L 460.8 6.330297 
" style="fill:none;stroke:#000000;stroke-linecap:square;stroke-width:1.5;"/>
   </g>
   <g id="line2d_25">
    <path clip-path="url(#pb6654d462e)" d="M 232.905272 293.76 
L 232.905272 289.927604 
L 235.624854 289.927604 
L 235.624854 286.095208 
L 237.485419 286.095208 
L 237.485419 282.262812 
L 240.280036 282.262812 
L 240.31863 274.59802 
L 241.797596 274.59802 
L 241.797596 270.765624 
L 242.971442 270.765624 
L 242.971442 266.933228 
L 243.459654 266.933228 
L 243.459654 263.100832 
L 245.731027 263.100832 
L 245.731027 259.268436 
L 246.112994 259.268436 
L 246.112994 255.43604 
L 246.666639 255.43604 
L 246.666639 251.603644 
L 247.817915 251.603644 
L 247.817915 247.771248 
L 248.191285 247.771248 
L 248.191285 243.938851 
L 249.157636 243.938851 
L 249.157636 240.106455 
L 250.76277 240.106455 
L 250.76277 236.274059 
L 252.02069 236.274059 
L 252.02069 232.441663 
L 255.506437 232.441663 
L 255.506437 228.609267 
L 256.675099 228.609267 
L 256.675099 224.776871 
L 258.218956 224.776871 
L 258.218956 220.944475 
L 258.909233 220.944475 
L 258.909233 217.112079 
L 259.240488 217.112079 
L 259.240488 213.279683 
L 259.377441 213.279683 
L 259.377441 209.447287 
L 259.563234 209.447287 
L 259.563234 205.614891 
L 260.447819 205.614891 
L 260.447819 201.782495 
L 260.842252 201.782495 
L 260.855349 194.117703 
L 262.060072 194.117703 
L 262.065313 186.452911 
L 262.484522 186.452911 
L 262.484522 182.620515 
L 262.755875 182.620515 
L 262.755875 178.788119 
L 263.805423 178.788119 
L 263.878923 167.290931 
L 264.937163 167.290931 
L 264.937163 163.458535 
L 265.667115 163.458535 
L 265.676159 155.793743 
L 266.203879 155.793743 
L 266.203879 151.961347 
L 267.273967 151.961347 
L 267.273967 148.12895 
L 267.634928 148.12895 
L 267.634928 144.296554 
L 267.806576 144.296554 
L 267.806576 140.464158 
L 268.245273 140.464158 
L 268.245273 136.631762 
L 268.369376 136.631762 
L 268.369376 132.799366 
L 268.831735 132.799366 
L 268.831735 128.96697 
L 269.072046 128.96697 
L 269.072046 125.134574 
L 269.488889 125.134574 
L 269.488889 121.302178 
L 269.750923 121.302178 
L 269.750923 117.469782 
L 270.36531 117.469782 
L 270.36531 113.637386 
L 270.827215 113.637386 
L 270.827215 109.80499 
L 271.32861 109.80499 
L 271.32861 105.972594 
L 271.580457 105.972594 
L 271.580457 102.140198 
L 271.887296 102.140198 
L 271.887296 98.307802 
L 272.097334 98.307802 
L 272.132791 90.64301 
L 272.488561 90.64301 
L 272.571622 82.978218 
L 273.702767 82.978218 
L 273.702767 79.145822 
L 273.937912 79.145822 
L 273.937912 75.313426 
L 274.327758 75.313426 
L 274.327758 71.48103 
L 275.019901 71.48103 
L 275.019901 67.648634 
L 280.05335 67.648634 
L 280.05335 63.816238 
L 335.884111 63.816238 
L 335.884111 59.983842 
L 338.868958 59.983842 
L 338.868958 56.151446 
L 341.178288 56.151446 
L 341.178288 52.31905 
L 342.585614 52.31905 
L 342.585614 48.486653 
L 342.850094 48.486653 
L 342.850094 44.654257 
L 343.565637 44.654257 
L 343.565637 40.821861 
L 345.344407 40.821861 
L 345.344407 36.989465 
L 347.313703 36.989465 
L 347.313703 33.157069 
L 352.553832 33.157069 
L 352.553832 29.324673 
L 353.827245 29.324673 
L 353.827245 25.492277 
L 359.861747 25.492277 
L 359.861747 21.659881 
L 362.303397 21.659881 
L 362.303397 17.827485 
L 364.097664 17.827485 
L 364.097664 13.995089 
L 369.263458 13.995089 
L 369.263458 10.162693 
L 375.028522 10.162693 
L 375.028522 6.330297 
L 375.028522 6.330297 
L 460.8 6.330297 
L 460.8 6.330297 
" style="fill:none;stroke:#00bfbf;stroke-linecap:square;stroke-width:1.5;"/>
   </g>
   <g id="line2d_26">
    <path clip-path="url(#pb6654d462e)" d="M 230.124216 293.76 
L 230.124216 289.927604 
L 232.905272 289.927604 
L 232.905272 286.095208 
L 235.624854 286.095208 
L 235.624854 282.262812 
L 236.87822 282.262812 
L 236.87822 278.430416 
L 237.994535 278.430416 
L 237.994535 274.59802 
L 240.280036 274.59802 
L 240.31863 266.933228 
L 242.971442 266.933228 
L 242.971442 263.100832 
L 243.459654 263.100832 
L 243.459654 259.268436 
L 245.046299 259.268436 
L 245.046299 255.43604 
L 245.731027 255.43604 
L 245.731027 251.603644 
L 246.112994 251.603644 
L 246.112994 247.771248 
L 246.921941 247.771248 
L 246.921941 243.938851 
L 249.157636 243.938851 
L 249.157636 240.106455 
L 250.76277 240.106455 
L 250.76277 236.274059 
L 252.02069 236.274059 
L 252.02069 232.441663 
L 255.506437 232.441663 
L 255.506437 228.609267 
L 256.675099 228.609267 
L 256.675099 224.776871 
L 257.722298 224.776871 
L 257.722298 220.944475 
L 258.218956 220.944475 
L 258.23263 209.447287 
L 258.575449 209.447287 
L 258.575449 205.614891 
L 258.787926 205.614891 
L 258.787926 201.782495 
L 258.909233 201.782495 
L 258.909233 197.950099 
L 259.125862 197.950099 
L 259.125862 194.117703 
L 259.563234 194.117703 
L 259.563234 190.285307 
L 260.447819 190.285307 
L 260.447819 186.452911 
L 260.599361 186.452911 
L 260.599361 182.620515 
L 260.842252 182.620515 
L 260.855349 174.955723 
L 261.128815 174.955723 
L 261.128815 171.123327 
L 261.322994 171.123327 
L 261.322994 167.290931 
L 261.99807 167.290931 
L 262.065313 159.626139 
L 262.464573 159.626139 
L 262.484522 151.961347 
L 262.755875 151.961347 
L 262.801008 144.296554 
L 263.071543 144.296554 
L 263.071543 140.464158 
L 263.829886 140.464158 
L 263.829886 136.631762 
L 264.127767 136.631762 
L 264.127767 132.799366 
L 265.667115 132.799366 
L 265.676159 125.134574 
L 266.203879 125.134574 
L 266.203879 121.302178 
L 267.273967 121.302178 
L 267.273967 117.469782 
L 267.634928 117.469782 
L 267.649796 109.80499 
L 268.369376 109.80499 
L 268.369376 105.972594 
L 268.63439 105.972594 
L 268.63439 102.140198 
L 268.831735 102.140198 
L 268.831735 98.307802 
L 269.409503 98.307802 
L 269.409503 94.475406 
L 270.063111 94.475406 
L 270.063111 90.64301 
L 270.36531 90.64301 
L 270.36531 86.810614 
L 271.399524 86.810614 
L 271.399524 82.978218 
L 272.097334 82.978218 
L 272.097334 79.145822 
L 272.336919 79.145822 
L 272.336919 75.313426 
L 272.842793 75.313426 
L 272.842793 71.48103 
L 273.702767 71.48103 
L 273.702767 67.648634 
L 275.659789 67.648634 
L 275.659789 63.816238 
L 319.918746 63.816238 
L 319.918746 59.983842 
L 327.194759 59.983842 
L 327.194759 56.151446 
L 331.733846 56.151446 
L 331.733846 52.31905 
L 332.213966 52.31905 
L 332.213966 48.486653 
L 332.620169 48.486653 
L 332.620169 44.654257 
L 338.868958 44.654257 
L 338.868958 40.821861 
L 341.178288 40.821861 
L 341.178288 36.989465 
L 342.585614 36.989465 
L 342.630924 29.324673 
L 343.565637 29.324673 
L 343.565637 25.492277 
L 352.553832 25.492277 
L 352.553832 21.659881 
L 357.608809 21.659881 
L 357.608809 17.827485 
L 359.861747 17.827485 
L 359.861747 13.995089 
L 362.303397 13.995089 
L 362.303397 10.162693 
L 375.021617 10.162693 
L 375.021617 6.330297 
L 375.021617 6.330297 
L 460.8 6.330297 
L 460.8 6.330297 
" style="fill:none;stroke:#bf00bf;stroke-linecap:square;stroke-width:1.5;"/>
   </g>
   <g id="patch_3">
    <path d="M 0 293.76 
L 0 3.456 
" style="fill:none;stroke:#000000;stroke-linecap:square;stroke-linejoin:miter;stroke-width:0.8;"/>
   </g>
   <g id="patch_4">
    <path d="M 460.8 293.76 
L 460.8 3.456 
" style="fill:none;stroke:#000000;stroke-linecap:square;stroke-linejoin:miter;stroke-width:0.8;"/>
   </g>
   <g id="patch_5">
    <path d="M -0 293.76 
L 460.8 293.76 
" style="fill:none;stroke:#000000;stroke-linecap:square;stroke-linejoin:miter;stroke-width:0.8;"/>
   </g>
   <g id="patch_6">
    <path d="M -0 3.456 
L 460.8 3.456 
" style="fill:none;stroke:#000000;stroke-linecap:square;stroke-linejoin:miter;stroke-width:0.8;"/>
   </g>
   <g id="text_6">
    <!-- {f1-f5}, 5-D -->
    <defs>
     <path d="M 51.125 -9.28125 
L 51.125 -16.3125 
L 48.09375 -16.3125 
Q 35.9375 -16.3125 31.8125 -12.6875 
Q 27.6875 -9.078125 27.6875 1.703125 
L 27.6875 13.375 
Q 27.6875 20.75 25.046875 23.578125 
Q 22.40625 26.421875 15.484375 26.421875 
L 12.5 26.421875 
L 12.5 33.40625 
L 15.484375 33.40625 
Q 22.46875 33.40625 25.078125 36.203125 
Q 27.6875 39.015625 27.6875 46.296875 
L 27.6875 58.015625 
Q 27.6875 68.796875 31.8125 72.390625 
Q 35.9375 75.984375 48.09375 75.984375 
L 51.125 75.984375 
L 51.125 69 
L 47.796875 69 
Q 40.921875 69 38.8125 66.84375 
Q 36.71875 64.703125 36.71875 57.8125 
L 36.71875 45.703125 
Q 36.71875 38.03125 34.5 34.5625 
Q 32.28125 31.109375 26.90625 29.890625 
Q 32.328125 28.5625 34.515625 25.09375 
Q 36.71875 21.625 36.71875 14.015625 
L 36.71875 1.90625 
Q 36.71875 -4.984375 38.8125 -7.125 
Q 40.921875 -9.28125 47.796875 -9.28125 
z
" id="DejaVuSans-123"/>
     <path d="M 10.796875 72.90625 
L 49.515625 72.90625 
L 49.515625 64.59375 
L 19.828125 64.59375 
L 19.828125 46.734375 
Q 21.96875 47.46875 24.109375 47.828125 
Q 26.265625 48.1875 28.421875 48.1875 
Q 40.625 48.1875 47.75 41.5 
Q 54.890625 34.8125 54.890625 23.390625 
Q 54.890625 11.625 47.5625 5.09375 
Q 40.234375 -1.421875 26.90625 -1.421875 
Q 22.3125 -1.421875 17.546875 -0.640625 
Q 12.796875 0.140625 7.71875 1.703125 
L 7.71875 11.625 
Q 12.109375 9.234375 16.796875 8.0625 
Q 21.484375 6.890625 26.703125 6.890625 
Q 35.15625 6.890625 40.078125 11.328125 
Q 45.015625 15.765625 45.015625 23.390625 
Q 45.015625 31 40.078125 35.4375 
Q 35.15625 39.890625 26.703125 39.890625 
Q 22.75 39.890625 18.8125 39.015625 
Q 14.890625 38.140625 10.796875 36.28125 
z
" id="DejaVuSans-53"/>
     <path d="M 12.5 -9.28125 
L 15.921875 -9.28125 
Q 22.75 -9.28125 24.828125 -7.171875 
Q 26.90625 -5.078125 26.90625 1.90625 
L 26.90625 14.015625 
Q 26.90625 21.625 29.09375 25.09375 
Q 31.296875 28.5625 36.71875 29.890625 
Q 31.296875 31.109375 29.09375 34.5625 
Q 26.90625 38.03125 26.90625 45.703125 
L 26.90625 57.8125 
Q 26.90625 64.75 24.828125 66.875 
Q 22.75 69 15.921875 69 
L 12.5 69 
L 12.5 75.984375 
L 15.578125 75.984375 
Q 27.734375 75.984375 31.8125 72.390625 
Q 35.890625 68.796875 35.890625 58.015625 
L 35.890625 46.296875 
Q 35.890625 39.015625 38.515625 36.203125 
Q 41.15625 33.40625 48.09375 33.40625 
L 51.125 33.40625 
L 51.125 26.421875 
L 48.09375 26.421875 
Q 41.15625 26.421875 38.515625 23.578125 
Q 35.890625 20.75 35.890625 13.375 
L 35.890625 1.703125 
Q 35.890625 -9.078125 31.8125 -12.6875 
Q 27.734375 -16.3125 15.578125 -16.3125 
L 12.5 -16.3125 
z
" id="DejaVuSans-125"/>
     <path d="M 11.71875 12.40625 
L 22.015625 12.40625 
L 22.015625 4 
L 14.015625 -11.625 
L 7.71875 -11.625 
L 11.71875 4 
z
" id="DejaVuSans-44"/>
    </defs>
    <g transform="translate(331.334 287.95392)scale(0.2 -0.2)">
     <use xlink:href="#DejaVuSans-123"/>
     <use x="63.623047" xlink:href="#DejaVuSans-102"/>
     <use x="98.828125" xlink:href="#DejaVuSans-49"/>
     <use x="162.451172" xlink:href="#DejaVuSans-45"/>
     <use x="198.535156" xlink:href="#DejaVuSans-102"/>
     <use x="233.740234" xlink:href="#DejaVuSans-53"/>
     <use x="297.363281" xlink:href="#DejaVuSans-125"/>
     <use x="360.986328" xlink:href="#DejaVuSans-44"/>
     <use x="392.773438" xlink:href="#DejaVuSans-32"/>
     <use x="424.560547" xlink:href="#DejaVuSans-53"/>
     <use x="488.183594" xlink:href="#DejaVuSans-45"/>
     <use x="524.267578" xlink:href="#DejaVuSans-68"/>
    </g>
   </g>
   <g id="text_7">
    <!-- v2.4 -->
    <defs>
     <path d="M 2.984375 54.6875 
L 12.5 54.6875 
L 29.59375 8.796875 
L 46.6875 54.6875 
L 56.203125 54.6875 
L 35.6875 0 
L 23.484375 0 
z
" id="DejaVuSans-118"/>
     <path d="M 19.1875 8.296875 
L 53.609375 8.296875 
L 53.609375 0 
L 7.328125 0 
L 7.328125 8.296875 
Q 12.9375 14.109375 22.625 23.890625 
Q 32.328125 33.6875 34.8125 36.53125 
Q 39.546875 41.84375 41.421875 45.53125 
Q 43.3125 49.21875 43.3125 52.78125 
Q 43.3125 58.59375 39.234375 62.25 
Q 35.15625 65.921875 28.609375 65.921875 
Q 23.96875 65.921875 18.8125 64.3125 
Q 13.671875 62.703125 7.8125 59.421875 
L 7.8125 69.390625 
Q 13.765625 71.78125 18.9375 73 
Q 24.125 74.21875 28.421875 74.21875 
Q 39.75 74.21875 46.484375 68.546875 
Q 53.21875 62.890625 53.21875 53.421875 
Q 53.21875 48.921875 51.53125 44.890625 
Q 49.859375 40.875 45.40625 35.40625 
Q 44.1875 33.984375 37.640625 27.21875 
Q 31.109375 20.453125 19.1875 8.296875 
z
" id="DejaVuSans-50"/>
     <path d="M 10.6875 12.40625 
L 21 12.40625 
L 21 0 
L 10.6875 0 
z
" id="DejaVuSans-46"/>
    </defs>
    <g style="fill:#808080;" transform="translate(219.489063 288.777272)scale(0.1 -0.1)">
     <use xlink:href="#DejaVuSans-118"/>
     <use x="59.179688" xlink:href="#DejaVuSans-50"/>
     <use x="122.802734" xlink:href="#DejaVuSans-46"/>
     <use x="154.589844" xlink:href="#DejaVuSans-52"/>
    </g>
   </g>
  </g>
 </g>
 <defs>
  <clipPath id="pb6654d462e">
   <rect height="290.304" width="460.8" x="0" y="3.456"/>
  </clipPath>
 </defs>
</svg>
