<?xml version="1.0" encoding="utf-8" standalone="no"?>
<!DOCTYPE svg PUBLIC "-//W3C//DTD SVG 1.1//EN"
  "http://www.w3.org/Graphics/SVG/1.1/DTD/svg11.dtd">
<!-- Created with matplotlib (https://matplotlib.org/) -->
<svg height="345.6pt" version="1.1" viewBox="0 0 460.8 345.6" width="460.8pt" xmlns="http://www.w3.org/2000/svg" xmlns:xlink="http://www.w3.org/1999/xlink">
 <defs>
  <style type="text/css">
*{stroke-linecap:butt;stroke-linejoin:round;}
  </style>
 </defs>
 <g id="figure_1">
  <g id="patch_1">
   <path d="M 0 345.6 
L 460.8 345.6 
L 460.8 0 
L 0 0 
z
" style="fill:#ffffff;"/>
  </g>
  <g id="axes_1">
   <g id="patch_2">
    <path d="M 0 293.76 
L 460.8 293.76 
L 460.8 3.456 
L 0 3.456 
z
" style="fill:#ffffff;"/>
   </g>
   <g id="matplotlib.axis_1">
    <g id="xtick_1">
     <g id="line2d_1">
      <path clip-path="url(#p3542f9df98)" d="M 107.893076 293.76 
L 107.893076 3.456 
" style="fill:none;stroke:#b0b0b0;stroke-linecap:square;stroke-width:0.8;"/>
     </g>
     <g id="line2d_2">
      <defs>
       <path d="M 0 0 
L 0 3.5 
" id="m786d83f759" style="stroke:#000000;stroke-width:0.8;"/>
      </defs>
      <g>
       <use style="stroke:#000000;stroke-width:0.8;" x="107.893076" xlink:href="#m786d83f759" y="293.76"/>
      </g>
     </g>
     <g id="text_1">
      <!-- -4 -->
      <defs>
       <path d="M 4.890625 31.390625 
L 31.203125 31.390625 
L 31.203125 23.390625 
L 4.890625 23.390625 
z
" id="DejaVuSans-45"/>
       <path d="M 37.796875 64.3125 
L 12.890625 25.390625 
L 37.796875 25.390625 
z
M 35.203125 72.90625 
L 47.609375 72.90625 
L 47.609375 25.390625 
L 58.015625 25.390625 
L 58.015625 17.1875 
L 47.609375 17.1875 
L 47.609375 0 
L 37.796875 0 
L 37.796875 17.1875 
L 4.890625 17.1875 
L 4.890625 26.703125 
z
" id="DejaVuSans-52"/>
      </defs>
      <g transform="translate(97.922764 315.956875)scale(0.2 -0.2)">
       <use xlink:href="#DejaVuSans-45"/>
       <use x="36.083984" xlink:href="#DejaVuSans-52"/>
      </g>
     </g>
    </g>
    <g id="xtick_2">
     <g id="line2d_3">
      <path clip-path="url(#p3542f9df98)" d="M 215.90284 293.76 
L 215.90284 3.456 
" style="fill:none;stroke:#b0b0b0;stroke-linecap:square;stroke-width:0.8;"/>
     </g>
     <g id="line2d_4">
      <g>
       <use style="stroke:#000000;stroke-width:0.8;" x="215.90284" xlink:href="#m786d83f759" y="293.76"/>
      </g>
     </g>
     <g id="text_2">
      <!-- 0 -->
      <defs>
       <path d="M 31.78125 66.40625 
Q 24.171875 66.40625 20.328125 58.90625 
Q 16.5 51.421875 16.5 36.375 
Q 16.5 21.390625 20.328125 13.890625 
Q 24.171875 6.390625 31.78125 6.390625 
Q 39.453125 6.390625 43.28125 13.890625 
Q 47.125 21.390625 47.125 36.375 
Q 47.125 51.421875 43.28125 58.90625 
Q 39.453125 66.40625 31.78125 66.40625 
z
M 31.78125 74.21875 
Q 44.046875 74.21875 50.515625 64.515625 
Q 56.984375 54.828125 56.984375 36.375 
Q 56.984375 17.96875 50.515625 8.265625 
Q 44.046875 -1.421875 31.78125 -1.421875 
Q 19.53125 -1.421875 13.0625 8.265625 
Q 6.59375 17.96875 6.59375 36.375 
Q 6.59375 54.828125 13.0625 64.515625 
Q 19.53125 74.21875 31.78125 74.21875 
z
" id="DejaVuSans-48"/>
      </defs>
      <g transform="translate(209.54034 315.956875)scale(0.2 -0.2)">
       <use xlink:href="#DejaVuSans-48"/>
      </g>
     </g>
    </g>
    <g id="xtick_3">
     <g id="line2d_5">
      <path clip-path="url(#p3542f9df98)" d="M 323.912604 293.76 
L 323.912604 3.456 
" style="fill:none;stroke:#b0b0b0;stroke-linecap:square;stroke-width:0.8;"/>
     </g>
     <g id="line2d_6">
      <g>
       <use style="stroke:#000000;stroke-width:0.8;" x="323.912604" xlink:href="#m786d83f759" y="293.76"/>
      </g>
     </g>
     <g id="text_3">
      <!-- 4 -->
      <g transform="translate(317.550104 315.956875)scale(0.2 -0.2)">
       <use xlink:href="#DejaVuSans-52"/>
      </g>
     </g>
    </g>
    <g id="xtick_4">
     <g id="line2d_7">
      <path clip-path="url(#p3542f9df98)" d="M 431.922368 293.76 
L 431.922368 3.456 
" style="fill:none;stroke:#b0b0b0;stroke-linecap:square;stroke-width:0.8;"/>
     </g>
     <g id="line2d_8">
      <g>
       <use style="stroke:#000000;stroke-width:0.8;" x="431.922368" xlink:href="#m786d83f759" y="293.76"/>
      </g>
     </g>
     <g id="text_4">
      <!-- 8 -->
      <defs>
       <path d="M 31.78125 34.625 
Q 24.75 34.625 20.71875 30.859375 
Q 16.703125 27.09375 16.703125 20.515625 
Q 16.703125 13.921875 20.71875 10.15625 
Q 24.75 6.390625 31.78125 6.390625 
Q 38.8125 6.390625 42.859375 10.171875 
Q 46.921875 13.96875 46.921875 20.515625 
Q 46.921875 27.09375 42.890625 30.859375 
Q 38.875 34.625 31.78125 34.625 
z
M 21.921875 38.8125 
Q 15.578125 40.375 12.03125 44.71875 
Q 8.5 49.078125 8.5 55.328125 
Q 8.5 64.0625 14.71875 69.140625 
Q 20.953125 74.21875 31.78125 74.21875 
Q 42.671875 74.21875 48.875 69.140625 
Q 55.078125 64.0625 55.078125 55.328125 
Q 55.078125 49.078125 51.53125 44.71875 
Q 48 40.375 41.703125 38.8125 
Q 48.828125 37.15625 52.796875 32.3125 
Q 56.78125 27.484375 56.78125 20.515625 
Q 56.78125 9.90625 50.3125 4.234375 
Q 43.84375 -1.421875 31.78125 -1.421875 
Q 19.734375 -1.421875 13.25 4.234375 
Q 6.78125 9.90625 6.78125 20.515625 
Q 6.78125 27.484375 10.78125 32.3125 
Q 14.796875 37.15625 21.921875 38.8125 
z
M 18.3125 54.390625 
Q 18.3125 48.734375 21.84375 45.5625 
Q 25.390625 42.390625 31.78125 42.390625 
Q 38.140625 42.390625 41.71875 45.5625 
Q 45.3125 48.734375 45.3125 54.390625 
Q 45.3125 60.0625 41.71875 63.234375 
Q 38.140625 66.40625 31.78125 66.40625 
Q 25.390625 66.40625 21.84375 63.234375 
Q 18.3125 60.0625 18.3125 54.390625 
z
" id="DejaVuSans-56"/>
      </defs>
      <g transform="translate(425.559868 315.956875)scale(0.2 -0.2)">
       <use xlink:href="#DejaVuSans-56"/>
      </g>
     </g>
    </g>
    <g id="text_5">
     <!-- log10 of Df -->
     <defs>
      <path d="M 9.421875 75.984375 
L 18.40625 75.984375 
L 18.40625 0 
L 9.421875 0 
z
" id="DejaVuSans-108"/>
      <path d="M 30.609375 48.390625 
Q 23.390625 48.390625 19.1875 42.75 
Q 14.984375 37.109375 14.984375 27.296875 
Q 14.984375 17.484375 19.15625 11.84375 
Q 23.34375 6.203125 30.609375 6.203125 
Q 37.796875 6.203125 41.984375 11.859375 
Q 46.1875 17.53125 46.1875 27.296875 
Q 46.1875 37.015625 41.984375 42.703125 
Q 37.796875 48.390625 30.609375 48.390625 
z
M 30.609375 56 
Q 42.328125 56 49.015625 48.375 
Q 55.71875 40.765625 55.71875 27.296875 
Q 55.71875 13.875 49.015625 6.21875 
Q 42.328125 -1.421875 30.609375 -1.421875 
Q 18.84375 -1.421875 12.171875 6.21875 
Q 5.515625 13.875 5.515625 27.296875 
Q 5.515625 40.765625 12.171875 48.375 
Q 18.84375 56 30.609375 56 
z
" id="DejaVuSans-111"/>
      <path d="M 45.40625 27.984375 
Q 45.40625 37.75 41.375 43.109375 
Q 37.359375 48.484375 30.078125 48.484375 
Q 22.859375 48.484375 18.828125 43.109375 
Q 14.796875 37.75 14.796875 27.984375 
Q 14.796875 18.265625 18.828125 12.890625 
Q 22.859375 7.515625 30.078125 7.515625 
Q 37.359375 7.515625 41.375 12.890625 
Q 45.40625 18.265625 45.40625 27.984375 
z
M 54.390625 6.78125 
Q 54.390625 -7.171875 48.1875 -13.984375 
Q 42 -20.796875 29.203125 -20.796875 
Q 24.46875 -20.796875 20.265625 -20.09375 
Q 16.0625 -19.390625 12.109375 -17.921875 
L 12.109375 -9.1875 
Q 16.0625 -11.328125 19.921875 -12.34375 
Q 23.78125 -13.375 27.78125 -13.375 
Q 36.625 -13.375 41.015625 -8.765625 
Q 45.40625 -4.15625 45.40625 5.171875 
L 45.40625 9.625 
Q 42.625 4.78125 38.28125 2.390625 
Q 33.9375 0 27.875 0 
Q 17.828125 0 11.671875 7.65625 
Q 5.515625 15.328125 5.515625 27.984375 
Q 5.515625 40.671875 11.671875 48.328125 
Q 17.828125 56 27.875 56 
Q 33.9375 56 38.28125 53.609375 
Q 42.625 51.21875 45.40625 46.390625 
L 45.40625 54.6875 
L 54.390625 54.6875 
z
" id="DejaVuSans-103"/>
      <path d="M 12.40625 8.296875 
L 28.515625 8.296875 
L 28.515625 63.921875 
L 10.984375 60.40625 
L 10.984375 69.390625 
L 28.421875 72.90625 
L 38.28125 72.90625 
L 38.28125 8.296875 
L 54.390625 8.296875 
L 54.390625 0 
L 12.40625 0 
z
" id="DejaVuSans-49"/>
      <path id="DejaVuSans-32"/>
      <path d="M 37.109375 75.984375 
L 37.109375 68.5 
L 28.515625 68.5 
Q 23.6875 68.5 21.796875 66.546875 
Q 19.921875 64.59375 19.921875 59.515625 
L 19.921875 54.6875 
L 34.71875 54.6875 
L 34.71875 47.703125 
L 19.921875 47.703125 
L 19.921875 0 
L 10.890625 0 
L 10.890625 47.703125 
L 2.296875 47.703125 
L 2.296875 54.6875 
L 10.890625 54.6875 
L 10.890625 58.5 
Q 10.890625 67.625 15.140625 71.796875 
Q 19.390625 75.984375 28.609375 75.984375 
z
" id="DejaVuSans-102"/>
      <path d="M 19.671875 64.796875 
L 19.671875 8.109375 
L 31.59375 8.109375 
Q 46.6875 8.109375 53.6875 14.9375 
Q 60.6875 21.78125 60.6875 36.53125 
Q 60.6875 51.171875 53.6875 57.984375 
Q 46.6875 64.796875 31.59375 64.796875 
z
M 9.8125 72.90625 
L 30.078125 72.90625 
Q 51.265625 72.90625 61.171875 64.09375 
Q 71.09375 55.28125 71.09375 36.53125 
Q 71.09375 17.671875 61.125 8.828125 
Q 51.171875 0 30.078125 0 
L 9.8125 0 
z
" id="DejaVuSans-68"/>
     </defs>
     <g transform="translate(175.214063 339.313125)scale(0.2 -0.2)">
      <use xlink:href="#DejaVuSans-108"/>
      <use x="27.783203" xlink:href="#DejaVuSans-111"/>
      <use x="88.964844" xlink:href="#DejaVuSans-103"/>
      <use x="152.441406" xlink:href="#DejaVuSans-49"/>
      <use x="216.064453" xlink:href="#DejaVuSans-48"/>
      <use x="279.6875" xlink:href="#DejaVuSans-32"/>
      <use x="311.474609" xlink:href="#DejaVuSans-111"/>
      <use x="372.65625" xlink:href="#DejaVuSans-102"/>
      <use x="407.861328" xlink:href="#DejaVuSans-32"/>
      <use x="439.648438" xlink:href="#DejaVuSans-68"/>
      <use x="516.650391" xlink:href="#DejaVuSans-102"/>
     </g>
    </g>
   </g>
   <g id="matplotlib.axis_2">
    <g id="ytick_1">
     <g id="line2d_9">
      <path clip-path="url(#p3542f9df98)" d="M 0 293.76 
L 460.8 293.76 
" style="fill:none;stroke:#b0b0b0;stroke-linecap:square;stroke-width:0.8;"/>
     </g>
     <g id="line2d_10">
      <defs>
       <path d="M 0 0 
L -3.5 0 
" id="md40b2dce65" style="stroke:#000000;stroke-width:0.8;"/>
      </defs>
      <g>
       <use style="stroke:#000000;stroke-width:0.8;" x="0" xlink:href="#md40b2dce65" y="293.76"/>
      </g>
     </g>
    </g>
    <g id="ytick_2">
     <g id="line2d_11">
      <path clip-path="url(#p3542f9df98)" d="M 0 236.274059 
L 460.8 236.274059 
" style="fill:none;stroke:#b0b0b0;stroke-linecap:square;stroke-width:0.8;"/>
     </g>
     <g id="line2d_12">
      <g>
       <use style="stroke:#000000;stroke-width:0.8;" x="0" xlink:href="#md40b2dce65" y="236.274059"/>
      </g>
     </g>
    </g>
    <g id="ytick_3">
     <g id="line2d_13">
      <path clip-path="url(#p3542f9df98)" d="M 0 178.788119 
L 460.8 178.788119 
" style="fill:none;stroke:#b0b0b0;stroke-linecap:square;stroke-width:0.8;"/>
     </g>
     <g id="line2d_14">
      <g>
       <use style="stroke:#000000;stroke-width:0.8;" x="0" xlink:href="#md40b2dce65" y="178.788119"/>
      </g>
     </g>
    </g>
    <g id="ytick_4">
     <g id="line2d_15">
      <path clip-path="url(#p3542f9df98)" d="M 0 121.302178 
L 460.8 121.302178 
" style="fill:none;stroke:#b0b0b0;stroke-linecap:square;stroke-width:0.8;"/>
     </g>
     <g id="line2d_16">
      <g>
       <use style="stroke:#000000;stroke-width:0.8;" x="0" xlink:href="#md40b2dce65" y="121.302178"/>
      </g>
     </g>
    </g>
    <g id="ytick_5">
     <g id="line2d_17">
      <path clip-path="url(#p3542f9df98)" d="M 0 63.816238 
L 460.8 63.816238 
" style="fill:none;stroke:#b0b0b0;stroke-linecap:square;stroke-width:0.8;"/>
     </g>
     <g id="line2d_18">
      <g>
       <use style="stroke:#000000;stroke-width:0.8;" x="0" xlink:href="#md40b2dce65" y="63.816238"/>
      </g>
     </g>
    </g>
    <g id="ytick_6">
     <g id="line2d_19">
      <path clip-path="url(#p3542f9df98)" d="M 0 6.330297 
L 460.8 6.330297 
" style="fill:none;stroke:#b0b0b0;stroke-linecap:square;stroke-width:0.8;"/>
     </g>
     <g id="line2d_20">
      <g>
       <use style="stroke:#000000;stroke-width:0.8;" x="0" xlink:href="#md40b2dce65" y="6.330297"/>
      </g>
     </g>
    </g>
   </g>
   <g id="line2d_21">
    <path clip-path="url(#p3542f9df98)" d="M 221.290265 293.76 
L 221.290265 289.927604 
L 225.173182 289.927604 
L 225.173182 286.095208 
L 227.692855 286.095208 
L 227.692855 282.262812 
L 228.897032 282.262812 
L 228.897032 278.430416 
L 230.909761 278.430416 
L 230.963602 270.765624 
L 231.384765 270.765624 
L 231.384765 266.933228 
L 231.625765 266.933228 
L 231.625765 263.100832 
L 231.833684 263.100832 
L 231.833684 259.268436 
L 234.544675 259.268436 
L 234.544675 255.43604 
L 234.878303 255.43604 
L 234.878303 251.603644 
L 235.805139 251.603644 
L 235.805139 247.771248 
L 238.165048 247.771248 
L 238.165048 243.938851 
L 242.292397 243.938851 
L 242.354634 236.274059 
L 250.230392 236.274059 
L 250.230392 232.441663 
L 261.034043 232.441663 
L 261.034043 228.609267 
L 265.031888 228.609267 
L 265.031888 224.776871 
L 266.462888 224.776871 
L 266.462888 220.944475 
L 272.303327 220.944475 
L 272.303327 217.112079 
L 281.066395 217.112079 
L 281.066395 213.279683 
L 283.016302 213.279683 
L 283.016302 209.447287 
L 283.803688 209.447287 
L 283.803688 205.614891 
L 285.252665 205.614891 
L 285.318387 197.950099 
L 286.934823 197.950099 
L 286.935363 190.285307 
L 287.387665 190.285307 
L 287.387665 186.452911 
L 287.647178 186.452911 
L 287.647178 182.620515 
L 288.118708 182.620515 
L 288.118708 178.788119 
L 288.304758 178.788119 
L 288.304758 174.955723 
L 289.090987 174.955723 
L 289.090987 171.123327 
L 292.381331 171.123327 
L 292.381331 167.290931 
L 292.61943 167.290931 
L 292.61943 163.458535 
L 294.735059 163.458535 
L 294.735059 159.626139 
L 297.929293 159.626139 
L 297.929293 155.793743 
L 299.464184 155.793743 
L 299.464184 151.961347 
L 300.319458 151.961347 
L 300.319458 148.12895 
L 306.029934 148.12895 
L 306.029934 144.296554 
L 307.509155 144.296554 
L 307.509155 140.464158 
L 311.361955 140.464158 
L 311.361955 136.631762 
L 311.893575 136.631762 
L 311.893575 132.799366 
L 312.174726 132.799366 
L 312.174726 128.96697 
L 313.730847 128.96697 
L 313.730847 125.134574 
L 319.729352 125.134574 
L 319.729352 121.302178 
L 321.192214 121.302178 
L 321.192214 117.469782 
L 325.422399 117.469782 
L 325.422399 113.637386 
L 328.405281 113.637386 
L 328.405281 109.80499 
L 330.281501 109.80499 
L 330.281501 105.972594 
L 331.936893 105.972594 
L 331.936893 102.140198 
L 332.886726 102.140198 
L 332.886726 98.307802 
L 335.698195 98.307802 
L 335.698195 94.475406 
L 339.21359 94.475406 
L 339.21359 90.64301 
L 350.917624 90.64301 
L 350.917624 86.810614 
L 351.385764 86.810614 
L 351.385764 82.978218 
L 351.600048 82.978218 
L 351.600048 79.145822 
L 352.239022 79.145822 
L 352.239022 75.313426 
L 353.724255 75.313426 
L 353.724255 71.48103 
L 360.984814 71.48103 
L 360.984814 67.648634 
L 366.680418 67.648634 
L 366.680418 63.816238 
L 387.674244 63.816238 
L 387.674244 59.983842 
L 388.708711 59.983842 
L 388.708711 56.151446 
L 389.39905 56.151446 
L 389.39905 52.31905 
L 393.163387 52.31905 
L 393.163387 48.486653 
L 393.675635 48.486653 
L 393.675635 44.654257 
L 393.974485 44.654257 
L 393.974485 40.821861 
L 398.325487 40.821861 
L 398.325487 36.989465 
L 399.378503 36.989465 
L 399.378503 33.157069 
L 401.871734 33.157069 
L 401.871734 29.324673 
L 402.12592 29.324673 
L 402.12592 25.492277 
L 403.946462 25.492277 
L 403.946462 21.659881 
L 407.761049 21.659881 
L 407.761049 17.827485 
L 413.069952 17.827485 
L 413.069952 13.995089 
L 414.694203 13.995089 
L 414.694203 10.162693 
L 415.120265 10.162693 
L 415.120265 6.330297 
L 415.120265 6.330297 
L 460.8 6.330297 
L 460.8 6.330297 
" style="fill:none;stroke:#ff0000;stroke-linecap:square;stroke-width:3;"/>
   </g>
   <g id="line2d_22">
    <path clip-path="url(#p3542f9df98)" d="M 230.171462 293.76 
L 230.171462 289.927604 
L 231.056063 289.927604 
L 231.056063 286.095208 
L 242.751419 286.095208 
L 242.751419 282.262812 
L 243.760163 282.262812 
L 243.760163 278.430416 
L 243.871422 278.430416 
L 243.871422 274.59802 
L 246.36651 274.59802 
L 246.36651 270.765624 
L 246.790951 270.765624 
L 246.790951 266.933228 
L 247.60615 266.933228 
L 247.60615 263.100832 
L 249.656873 263.100832 
L 249.748899 255.43604 
L 251.998465 255.43604 
L 251.998465 251.603644 
L 253.415865 251.603644 
L 253.415865 247.771248 
L 254.413997 247.771248 
L 254.413997 243.938851 
L 255.733688 243.938851 
L 255.733688 240.106455 
L 261.884552 240.106455 
L 261.884552 236.274059 
L 291.709162 236.274059 
L 291.709162 232.441663 
L 291.89267 232.441663 
L 291.89267 228.609267 
L 293.562854 228.609267 
L 293.562854 224.776871 
L 294.244797 224.776871 
L 294.244797 220.944475 
L 294.651289 220.944475 
L 294.651289 217.112079 
L 296.038009 217.112079 
L 296.038009 213.279683 
L 296.157912 213.279683 
L 296.171058 205.614891 
L 296.358729 205.614891 
L 296.358729 201.782495 
L 296.849534 201.782495 
L 296.849534 197.950099 
L 298.491608 197.950099 
L 298.491608 194.117703 
L 299.281726 194.117703 
L 299.281726 190.285307 
L 300.088119 190.285307 
L 300.088119 186.452911 
L 300.795685 186.452911 
L 300.795685 182.620515 
L 304.381259 182.620515 
L 304.381259 178.788119 
L 330.964423 178.788119 
L 330.964423 174.955723 
L 352.542838 174.955723 
L 352.542838 171.123327 
L 361.666149 171.123327 
L 361.666149 167.290931 
L 368.081429 167.290931 
L 368.081429 163.458535 
L 370.362769 163.458535 
L 370.362769 159.626139 
L 372.869494 159.626139 
L 372.869494 155.793743 
L 378.109824 155.793743 
L 378.109824 151.961347 
L 378.466449 151.961347 
L 378.466449 148.12895 
L 378.726724 148.12895 
L 378.726724 144.296554 
L 379.15876 144.296554 
L 379.15876 140.464158 
L 379.738175 140.464158 
L 379.738175 136.631762 
L 383.219547 136.631762 
L 383.219547 132.799366 
L 385.016608 132.799366 
L 385.016608 128.96697 
L 385.783951 128.96697 
L 385.783951 125.134574 
L 386.285923 125.134574 
L 386.285923 121.302178 
L 386.944888 121.302178 
L 386.944888 117.469782 
L 389.601405 117.469782 
L 389.601405 113.637386 
L 389.714282 113.637386 
L 389.714282 109.80499 
L 390.89551 109.80499 
L 390.89551 105.972594 
L 393.917865 105.972594 
L 393.97885 98.307802 
L 395.838491 98.307802 
L 395.838491 94.475406 
L 396.14704 94.475406 
L 396.14704 90.64301 
L 397.624173 90.64301 
L 397.624173 86.810614 
L 399.063584 86.810614 
L 399.063584 82.978218 
L 402.331062 82.978218 
L 402.406946 75.313426 
L 403.047828 75.313426 
L 403.047828 71.48103 
L 404.897527 71.48103 
L 404.897527 67.648634 
L 406.859937 67.648634 
L 406.859937 63.816238 
L 410.083156 63.816238 
L 410.083156 59.983842 
L 411.312849 59.983842 
L 411.312849 56.151446 
L 412.587205 56.151446 
L 412.587205 52.31905 
L 412.745417 52.31905 
L 412.745417 48.486653 
L 413.007807 48.486653 
L 413.007807 44.654257 
L 413.973833 44.654257 
L 413.973833 40.821861 
L 418.443311 40.821861 
L 418.443311 36.989465 
L 420.23347 36.989465 
L 420.23347 33.157069 
L 421.51346 33.157069 
L 421.51346 29.324673 
L 425.10461 29.324673 
L 425.10461 25.492277 
L 425.276983 25.492277 
L 425.276983 21.659881 
L 426.516529 21.659881 
L 426.516529 17.827485 
L 431.22541 17.827485 
L 431.22541 13.995089 
L 436.79791 13.995089 
L 436.79791 10.162693 
L 449.082845 10.162693 
L 449.082845 6.330297 
L 449.082845 6.330297 
L 460.8 6.330297 
L 460.8 6.330297 
" style="fill:none;stroke:#00bfbf;stroke-linecap:square;stroke-width:1.5;"/>
   </g>
   <g id="line2d_23">
    <path clip-path="url(#p3542f9df98)" d="M 225.615987 293.76 
L 225.615987 289.927604 
L 231.056063 289.927604 
L 231.056063 286.095208 
L 238.341726 286.095208 
L 238.341726 282.262812 
L 241.016555 282.262812 
L 241.016555 278.430416 
L 242.751419 278.430416 
L 242.751419 274.59802 
L 243.240483 274.59802 
L 243.240483 270.765624 
L 243.444434 270.765624 
L 243.444434 266.933228 
L 243.871422 266.933228 
L 243.871422 263.100832 
L 246.331407 263.100832 
L 246.331407 259.268436 
L 246.723066 259.268436 
L 246.790951 251.603644 
L 247.60615 251.603644 
L 247.60615 247.771248 
L 253.597396 247.771248 
L 253.597396 243.938851 
L 254.413997 243.938851 
L 254.413997 240.106455 
L 258.217516 240.106455 
L 258.217516 236.274059 
L 287.690685 236.274059 
L 287.690685 232.441663 
L 288.033912 232.441663 
L 288.033912 228.609267 
L 289.980371 228.609267 
L 289.980371 224.776871 
L 291.339759 224.776871 
L 291.339759 220.944475 
L 291.709162 220.944475 
L 291.709162 217.112079 
L 292.339361 217.112079 
L 292.339361 213.279683 
L 293.562854 213.279683 
L 293.562854 209.447287 
L 294.651289 209.447287 
L 294.651289 205.614891 
L 295.212131 205.614891 
L 295.212131 201.782495 
L 295.371884 201.782495 
L 295.371884 197.950099 
L 295.637421 197.950099 
L 295.637421 194.117703 
L 296.038009 194.117703 
L 296.038009 190.285307 
L 296.490501 190.285307 
L 296.490501 186.452911 
L 298.491608 186.452911 
L 298.491608 182.620515 
L 300.795685 182.620515 
L 300.795685 178.788119 
L 303.934863 178.788119 
L 303.934863 174.955723 
L 330.964423 174.955723 
L 330.964423 171.123327 
L 339.90706 171.123327 
L 339.90706 167.290931 
L 341.694309 167.290931 
L 341.694309 163.458535 
L 345.19574 163.458535 
L 345.19574 159.626139 
L 354.956315 159.626139 
L 354.956315 155.793743 
L 355.585821 155.793743 
L 355.585821 151.961347 
L 359.950516 151.961347 
L 359.950516 148.12895 
L 360.818354 148.12895 
L 360.818354 144.296554 
L 361.666149 144.296554 
L 361.666149 140.464158 
L 366.522839 140.464158 
L 366.522839 136.631762 
L 368.534884 136.631762 
L 368.534884 132.799366 
L 369.348769 132.799366 
L 369.348769 128.96697 
L 369.639728 128.96697 
L 369.639728 125.134574 
L 369.765522 125.134574 
L 369.765522 121.302178 
L 372.869494 121.302178 
L 372.869494 117.469782 
L 374.00551 117.469782 
L 374.00551 113.637386 
L 375.784985 113.637386 
L 375.784985 109.80499 
L 376.386946 109.80499 
L 376.386946 105.972594 
L 377.185213 105.972594 
L 377.185213 102.140198 
L 378.368157 102.140198 
L 378.368157 98.307802 
L 382.34659 98.307802 
L 382.34659 94.475406 
L 384.098892 94.475406 
L 384.098892 90.64301 
L 385.820841 90.64301 
L 385.820841 86.810614 
L 389.39905 86.810614 
L 389.483629 79.145822 
L 389.601405 79.145822 
L 389.601405 75.313426 
L 393.917865 75.313426 
L 393.917865 71.48103 
L 400.267619 71.48103 
L 400.267619 67.648634 
L 402.331062 67.648634 
L 402.406946 59.983842 
L 402.662129 59.983842 
L 402.662129 56.151446 
L 404.897527 56.151446 
L 404.897527 52.31905 
L 405.826155 52.31905 
L 405.826155 48.486653 
L 406.441909 48.486653 
L 406.441909 44.654257 
L 408.56714 44.654257 
L 408.56714 40.821861 
L 413.007807 40.821861 
L 413.007807 36.989465 
L 414.099874 36.989465 
L 414.099874 33.157069 
L 417.69205 33.157069 
L 417.69205 29.324673 
L 418.443311 29.324673 
L 418.443311 25.492277 
L 418.970976 25.492277 
L 418.970976 21.659881 
L 422.917272 21.659881 
L 422.917272 17.827485 
L 425.10461 17.827485 
L 425.10461 13.995089 
L 429.967485 13.995089 
L 429.967485 10.162693 
L 436.79791 10.162693 
L 436.79791 6.330297 
L 436.79791 6.330297 
L 460.8 6.330297 
L 460.8 6.330297 
" style="fill:none;stroke:#bf00bf;stroke-linecap:square;stroke-width:1.5;"/>
   </g>
   <g id="line2d_24">
    <path clip-path="url(#p3542f9df98)" d="M 225.173182 293.76 
L 225.173182 289.927604 
L 225.615987 289.927604 
L 225.615987 286.095208 
L 231.056063 286.095208 
L 231.129604 278.430416 
L 235.027168 278.430416 
L 235.027168 274.59802 
L 235.805139 274.59802 
L 235.805139 270.765624 
L 236.351505 270.765624 
L 236.351505 266.933228 
L 238.235094 266.933228 
L 238.235094 263.100832 
L 240.349016 263.100832 
L 240.349016 259.268436 
L 243.174723 259.268436 
L 243.240483 251.603644 
L 246.331407 251.603644 
L 246.331407 247.771248 
L 246.445354 247.771248 
L 246.445354 243.938851 
L 246.723066 243.938851 
L 246.723066 240.106455 
L 247.60615 240.106455 
L 247.60615 236.274059 
L 286.935363 236.274059 
L 286.935363 232.441663 
L 287.078671 232.441663 
L 287.078671 228.609267 
L 287.387665 228.609267 
L 287.387665 224.776871 
L 287.690685 224.776871 
L 287.748388 217.112079 
L 288.033912 217.112079 
L 288.033912 213.279683 
L 288.166659 213.279683 
L 288.166659 209.447287 
L 288.304758 209.447287 
L 288.304758 205.614891 
L 289.090987 205.614891 
L 289.090987 201.782495 
L 289.780927 201.782495 
L 289.780927 197.950099 
L 292.339361 197.950099 
L 292.339361 194.117703 
L 293.17176 194.117703 
L 293.17176 190.285307 
L 294.539359 190.285307 
L 294.539359 186.452911 
L 294.793102 186.452911 
L 294.793102 182.620515 
L 295.637421 182.620515 
L 295.637421 178.788119 
L 300.795685 178.788119 
L 300.795685 174.955723 
L 311.361955 174.955723 
L 311.361955 171.123327 
L 319.796466 171.123327 
L 319.796466 167.290931 
L 323.045525 167.290931 
L 323.045525 163.458535 
L 330.964423 163.458535 
L 330.964423 159.626139 
L 331.936893 159.626139 
L 331.936893 155.793743 
L 339.062477 155.793743 
L 339.062477 151.961347 
L 340.733815 151.961347 
L 340.733815 148.12895 
L 345.19574 148.12895 
L 345.19574 144.296554 
L 346.321223 144.296554 
L 346.321223 140.464158 
L 346.53151 140.464158 
L 346.53151 136.631762 
L 351.385764 136.631762 
L 351.385764 132.799366 
L 353.060922 132.799366 
L 353.060922 128.96697 
L 353.784754 128.96697 
L 353.784754 125.134574 
L 354.956315 125.134574 
L 354.956315 121.302178 
L 358.639815 121.302178 
L 358.639815 117.469782 
L 360.431336 117.469782 
L 360.431336 113.637386 
L 361.589261 113.637386 
L 361.666149 105.972594 
L 361.759053 105.972594 
L 361.759053 102.140198 
L 366.522839 102.140198 
L 366.522839 98.307802 
L 366.985518 98.307802 
L 366.985518 94.475406 
L 368.603724 94.475406 
L 368.603724 90.64301 
L 370.781455 90.64301 
L 370.781455 86.810614 
L 373.665014 86.810614 
L 373.665014 82.978218 
L 376.386946 82.978218 
L 376.386946 79.145822 
L 378.368157 79.145822 
L 378.368157 75.313426 
L 382.34659 75.313426 
L 382.34659 71.48103 
L 388.708711 71.48103 
L 388.708711 67.648634 
L 389.39905 67.648634 
L 389.483629 59.983842 
L 397.650793 59.983842 
L 397.650793 56.151446 
L 402.662129 56.151446 
L 402.662129 52.31905 
L 403.068067 52.31905 
L 403.068067 48.486653 
L 404.897527 48.486653 
L 404.897527 44.654257 
L 405.826155 44.654257 
L 405.826155 40.821861 
L 406.441909 40.821861 
L 406.441909 36.989465 
L 407.761049 36.989465 
L 407.761049 33.157069 
L 413.007807 33.157069 
L 413.069952 25.492277 
L 414.099874 25.492277 
L 414.099874 21.659881 
L 414.694203 21.659881 
L 414.694203 17.827485 
L 417.667661 17.827485 
L 417.728576 6.330297 
L 417.728576 6.330297 
L 460.8 6.330297 
L 460.8 6.330297 
" style="fill:none;stroke:#000000;stroke-linecap:square;stroke-width:1.5;"/>
   </g>
   <g id="line2d_25">
    <path clip-path="url(#p3542f9df98)" d="M 225.173182 293.76 
L 225.173182 289.927604 
L 225.615987 289.927604 
L 225.615987 286.095208 
L 230.867576 286.095208 
L 230.909761 278.430416 
L 231.056063 278.430416 
L 231.129604 270.765624 
L 231.625765 270.765624 
L 231.625765 266.933228 
L 231.833684 266.933228 
L 231.833684 263.100832 
L 232.946943 263.100832 
L 232.946943 259.268436 
L 234.544675 259.268436 
L 234.544675 255.43604 
L 235.805139 255.43604 
L 235.805139 251.603644 
L 238.165048 251.603644 
L 238.165048 247.771248 
L 242.292397 247.771248 
L 242.292397 243.938851 
L 242.95409 243.938851 
L 242.95409 240.106455 
L 243.174723 240.106455 
L 243.174723 236.274059 
L 280.52557 236.274059 
L 280.52557 232.441663 
L 281.066395 232.441663 
L 281.066395 228.609267 
L 283.803688 228.609267 
L 283.803688 224.776871 
L 286.935363 224.776871 
L 286.935363 220.944475 
L 287.078671 220.944475 
L 287.078671 217.112079 
L 287.336771 217.112079 
L 287.387665 209.447287 
L 287.647178 209.447287 
L 287.748388 197.950099 
L 288.166659 197.950099 
L 288.166659 194.117703 
L 288.304758 194.117703 
L 288.304758 190.285307 
L 289.090987 190.285307 
L 289.090987 186.452911 
L 289.780927 186.452911 
L 289.780927 182.620515 
L 292.339361 182.620515 
L 292.381331 174.955723 
L 292.818702 174.955723 
L 292.818702 171.123327 
L 297.929293 171.123327 
L 297.929293 167.290931 
L 300.319458 167.290931 
L 300.319458 163.458535 
L 300.795685 163.458535 
L 300.795685 159.626139 
L 304.230793 159.626139 
L 304.230793 155.793743 
L 311.361955 155.793743 
L 311.361955 151.961347 
L 311.893575 151.961347 
L 311.893575 148.12895 
L 313.730847 148.12895 
L 313.730847 144.296554 
L 319.796466 144.296554 
L 319.796466 140.464158 
L 323.045525 140.464158 
L 323.045525 136.631762 
L 330.281501 136.631762 
L 330.281501 132.799366 
L 331.936893 132.799366 
L 331.936893 128.96697 
L 343.970073 128.96697 
L 343.970073 125.134574 
L 344.874059 125.134574 
L 344.874059 121.302178 
L 345.19574 121.302178 
L 345.19574 117.469782 
L 346.321223 117.469782 
L 346.321223 113.637386 
L 346.53151 113.637386 
L 346.53151 109.80499 
L 351.385764 109.80499 
L 351.385764 105.972594 
L 352.336482 105.972594 
L 352.336482 102.140198 
L 352.753663 102.140198 
L 352.753663 98.307802 
L 353.724255 98.307802 
L 353.784754 90.64301 
L 356.265386 90.64301 
L 356.265386 86.810614 
L 357.274389 86.810614 
L 357.274389 82.978218 
L 358.564249 82.978218 
L 358.564249 79.145822 
L 361.579127 79.145822 
L 361.579127 75.313426 
L 362.540469 75.313426 
L 362.540469 71.48103 
L 364.11678 71.48103 
L 364.11678 67.648634 
L 366.680418 67.648634 
L 366.680418 63.816238 
L 387.674244 63.816238 
L 387.674244 59.983842 
L 388.708711 59.983842 
L 388.708711 56.151446 
L 389.39905 56.151446 
L 389.39905 52.31905 
L 402.662129 52.31905 
L 402.662129 48.486653 
L 402.811215 48.486653 
L 402.811215 44.654257 
L 403.05826 44.654257 
L 403.068067 36.989465 
L 403.946462 36.989465 
L 403.946462 33.157069 
L 404.897527 33.157069 
L 404.897527 29.324673 
L 407.761049 29.324673 
L 407.761049 25.492277 
L 413.007807 25.492277 
L 413.069952 17.827485 
L 414.099874 17.827485 
L 414.099874 13.995089 
L 414.694203 13.995089 
L 414.694203 10.162693 
L 417.69205 10.162693 
L 417.69205 6.330297 
L 417.69205 6.330297 
L 460.8 6.330297 
L 460.8 6.330297 
" style="fill:none;stroke:#00bfbf;stroke-linecap:square;stroke-width:1.5;"/>
   </g>
   <g id="line2d_26">
    <path clip-path="url(#p3542f9df98)" d="M 221.290265 293.76 
L 221.290265 289.927604 
L 225.173182 289.927604 
L 225.173182 286.095208 
L 227.692855 286.095208 
L 227.692855 282.262812 
L 228.897032 282.262812 
L 228.897032 278.430416 
L 230.909761 278.430416 
L 230.963602 270.765624 
L 231.384765 270.765624 
L 231.384765 266.933228 
L 231.625765 266.933228 
L 231.625765 263.100832 
L 231.833684 263.100832 
L 231.833684 259.268436 
L 234.544675 259.268436 
L 234.544675 255.43604 
L 234.878303 255.43604 
L 234.878303 251.603644 
L 235.805139 251.603644 
L 235.805139 247.771248 
L 238.165048 247.771248 
L 238.165048 243.938851 
L 242.292397 243.938851 
L 242.354634 236.274059 
L 250.230392 236.274059 
L 250.230392 232.441663 
L 261.034043 232.441663 
L 261.034043 228.609267 
L 265.031888 228.609267 
L 265.031888 224.776871 
L 266.462888 224.776871 
L 266.462888 220.944475 
L 272.303327 220.944475 
L 272.303327 217.112079 
L 281.066395 217.112079 
L 281.066395 213.279683 
L 283.016302 213.279683 
L 283.016302 209.447287 
L 283.803688 209.447287 
L 283.803688 205.614891 
L 285.252665 205.614891 
L 285.318387 197.950099 
L 286.934823 197.950099 
L 286.935363 190.285307 
L 287.387665 190.285307 
L 287.387665 186.452911 
L 287.647178 186.452911 
L 287.647178 182.620515 
L 288.118708 182.620515 
L 288.118708 178.788119 
L 288.304758 178.788119 
L 288.304758 174.955723 
L 289.090987 174.955723 
L 289.090987 171.123327 
L 292.381331 171.123327 
L 292.381331 167.290931 
L 292.61943 167.290931 
L 292.61943 163.458535 
L 294.735059 163.458535 
L 294.735059 159.626139 
L 297.929293 159.626139 
L 297.929293 155.793743 
L 299.464184 155.793743 
L 299.464184 151.961347 
L 300.319458 151.961347 
L 300.319458 148.12895 
L 306.029934 148.12895 
L 306.029934 144.296554 
L 307.509155 144.296554 
L 307.509155 140.464158 
L 311.361955 140.464158 
L 311.361955 136.631762 
L 311.893575 136.631762 
L 311.893575 132.799366 
L 312.174726 132.799366 
L 312.174726 128.96697 
L 313.730847 128.96697 
L 313.730847 125.134574 
L 319.729352 125.134574 
L 319.729352 121.302178 
L 321.192214 121.302178 
L 321.192214 117.469782 
L 325.422399 117.469782 
L 325.422399 113.637386 
L 328.405281 113.637386 
L 328.405281 109.80499 
L 330.281501 109.80499 
L 330.281501 105.972594 
L 331.936893 105.972594 
L 331.936893 102.140198 
L 332.886726 102.140198 
L 332.886726 98.307802 
L 335.698195 98.307802 
L 335.698195 94.475406 
L 339.21359 94.475406 
L 339.21359 90.64301 
L 350.917624 90.64301 
L 350.917624 86.810614 
L 351.385764 86.810614 
L 351.385764 82.978218 
L 351.600048 82.978218 
L 351.600048 79.145822 
L 352.239022 79.145822 
L 352.239022 75.313426 
L 353.724255 75.313426 
L 353.724255 71.48103 
L 360.984814 71.48103 
L 360.984814 67.648634 
L 366.680418 67.648634 
L 366.680418 63.816238 
L 387.674244 63.816238 
L 387.674244 59.983842 
L 388.708711 59.983842 
L 388.708711 56.151446 
L 389.39905 56.151446 
L 389.39905 52.31905 
L 393.163387 52.31905 
L 393.163387 48.486653 
L 393.675635 48.486653 
L 393.675635 44.654257 
L 393.974485 44.654257 
L 393.974485 40.821861 
L 398.325487 40.821861 
L 398.325487 36.989465 
L 399.378503 36.989465 
L 399.378503 33.157069 
L 401.871734 33.157069 
L 401.871734 29.324673 
L 402.12592 29.324673 
L 402.12592 25.492277 
L 403.946462 25.492277 
L 403.946462 21.659881 
L 407.761049 21.659881 
L 407.761049 17.827485 
L 413.069952 17.827485 
L 413.069952 13.995089 
L 414.694203 13.995089 
L 414.694203 10.162693 
L 415.120265 10.162693 
L 415.120265 6.330297 
L 415.120265 6.330297 
L 460.8 6.330297 
L 460.8 6.330297 
" style="fill:none;stroke:#bf00bf;stroke-linecap:square;stroke-width:1.5;"/>
   </g>
   <g id="patch_3">
    <path d="M 0 293.76 
L 0 3.456 
" style="fill:none;stroke:#000000;stroke-linecap:square;stroke-linejoin:miter;stroke-width:0.8;"/>
   </g>
   <g id="patch_4">
    <path d="M 460.8 293.76 
L 460.8 3.456 
" style="fill:none;stroke:#000000;stroke-linecap:square;stroke-linejoin:miter;stroke-width:0.8;"/>
   </g>
   <g id="patch_5">
    <path d="M -0 293.76 
L 460.8 293.76 
" style="fill:none;stroke:#000000;stroke-linecap:square;stroke-linejoin:miter;stroke-width:0.8;"/>
   </g>
   <g id="patch_6">
    <path d="M -0 3.456 
L 460.8 3.456 
" style="fill:none;stroke:#000000;stroke-linecap:square;stroke-linejoin:miter;stroke-width:0.8;"/>
   </g>
   <g id="text_6">
    <!-- {f10-f14}, 5-D -->
    <defs>
     <path d="M 51.125 -9.28125 
L 51.125 -16.3125 
L 48.09375 -16.3125 
Q 35.9375 -16.3125 31.8125 -12.6875 
Q 27.6875 -9.078125 27.6875 1.703125 
L 27.6875 13.375 
Q 27.6875 20.75 25.046875 23.578125 
Q 22.40625 26.421875 15.484375 26.421875 
L 12.5 26.421875 
L 12.5 33.40625 
L 15.484375 33.40625 
Q 22.46875 33.40625 25.078125 36.203125 
Q 27.6875 39.015625 27.6875 46.296875 
L 27.6875 58.015625 
Q 27.6875 68.796875 31.8125 72.390625 
Q 35.9375 75.984375 48.09375 75.984375 
L 51.125 75.984375 
L 51.125 69 
L 47.796875 69 
Q 40.921875 69 38.8125 66.84375 
Q 36.71875 64.703125 36.71875 57.8125 
L 36.71875 45.703125 
Q 36.71875 38.03125 34.5 34.5625 
Q 32.28125 31.109375 26.90625 29.890625 
Q 32.328125 28.5625 34.515625 25.09375 
Q 36.71875 21.625 36.71875 14.015625 
L 36.71875 1.90625 
Q 36.71875 -4.984375 38.8125 -7.125 
Q 40.921875 -9.28125 47.796875 -9.28125 
z
" id="DejaVuSans-123"/>
     <path d="M 12.5 -9.28125 
L 15.921875 -9.28125 
Q 22.75 -9.28125 24.828125 -7.171875 
Q 26.90625 -5.078125 26.90625 1.90625 
L 26.90625 14.015625 
Q 26.90625 21.625 29.09375 25.09375 
Q 31.296875 28.5625 36.71875 29.890625 
Q 31.296875 31.109375 29.09375 34.5625 
Q 26.90625 38.03125 26.90625 45.703125 
L 26.90625 57.8125 
Q 26.90625 64.75 24.828125 66.875 
Q 22.75 69 15.921875 69 
L 12.5 69 
L 12.5 75.984375 
L 15.578125 75.984375 
Q 27.734375 75.984375 31.8125 72.390625 
Q 35.890625 68.796875 35.890625 58.015625 
L 35.890625 46.296875 
Q 35.890625 39.015625 38.515625 36.203125 
Q 41.15625 33.40625 48.09375 33.40625 
L 51.125 33.40625 
L 51.125 26.421875 
L 48.09375 26.421875 
Q 41.15625 26.421875 38.515625 23.578125 
Q 35.890625 20.75 35.890625 13.375 
L 35.890625 1.703125 
Q 35.890625 -9.078125 31.8125 -12.6875 
Q 27.734375 -16.3125 15.578125 -16.3125 
L 12.5 -16.3125 
z
" id="DejaVuSans-125"/>
     <path d="M 11.71875 12.40625 
L 22.015625 12.40625 
L 22.015625 4 
L 14.015625 -11.625 
L 7.71875 -11.625 
L 11.71875 4 
z
" id="DejaVuSans-44"/>
     <path d="M 10.796875 72.90625 
L 49.515625 72.90625 
L 49.515625 64.59375 
L 19.828125 64.59375 
L 19.828125 46.734375 
Q 21.96875 47.46875 24.109375 47.828125 
Q 26.265625 48.1875 28.421875 48.1875 
Q 40.625 48.1875 47.75 41.5 
Q 54.890625 34.8125 54.890625 23.390625 
Q 54.890625 11.625 47.5625 5.09375 
Q 40.234375 -1.421875 26.90625 -1.421875 
Q 22.3125 -1.421875 17.546875 -0.640625 
Q 12.796875 0.140625 7.71875 1.703125 
L 7.71875 11.625 
Q 12.109375 9.234375 16.796875 8.0625 
Q 21.484375 6.890625 26.703125 6.890625 
Q 35.15625 6.890625 40.078125 11.328125 
Q 45.015625 15.765625 45.015625 23.390625 
Q 45.015625 31 40.078125 35.4375 
Q 35.15625 39.890625 26.703125 39.890625 
Q 22.75 39.890625 18.8125 39.015625 
Q 14.890625 38.140625 10.796875 36.28125 
z
" id="DejaVuSans-53"/>
    </defs>
    <g transform="translate(305.884 287.95392)scale(0.2 -0.2)">
     <use xlink:href="#DejaVuSans-123"/>
     <use x="63.623047" xlink:href="#DejaVuSans-102"/>
     <use x="98.828125" xlink:href="#DejaVuSans-49"/>
     <use x="162.451172" xlink:href="#DejaVuSans-48"/>
     <use x="226.074219" xlink:href="#DejaVuSans-45"/>
     <use x="262.158203" xlink:href="#DejaVuSans-102"/>
     <use x="297.363281" xlink:href="#DejaVuSans-49"/>
     <use x="360.986328" xlink:href="#DejaVuSans-52"/>
     <use x="424.609375" xlink:href="#DejaVuSans-125"/>
     <use x="488.232422" xlink:href="#DejaVuSans-44"/>
     <use x="520.019531" xlink:href="#DejaVuSans-32"/>
     <use x="551.806641" xlink:href="#DejaVuSans-53"/>
     <use x="615.429688" xlink:href="#DejaVuSans-45"/>
     <use x="651.513672" xlink:href="#DejaVuSans-68"/>
    </g>
   </g>
   <g id="text_7">
    <!-- v2.4 -->
    <defs>
     <path d="M 2.984375 54.6875 
L 12.5 54.6875 
L 29.59375 8.796875 
L 46.6875 54.6875 
L 56.203125 54.6875 
L 35.6875 0 
L 23.484375 0 
z
" id="DejaVuSans-118"/>
     <path d="M 19.1875 8.296875 
L 53.609375 8.296875 
L 53.609375 0 
L 7.328125 0 
L 7.328125 8.296875 
Q 12.9375 14.109375 22.625 23.890625 
Q 32.328125 33.6875 34.8125 36.53125 
Q 39.546875 41.84375 41.421875 45.53125 
Q 43.3125 49.21875 43.3125 52.78125 
Q 43.3125 58.59375 39.234375 62.25 
Q 35.15625 65.921875 28.609375 65.921875 
Q 23.96875 65.921875 18.8125 64.3125 
Q 13.671875 62.703125 7.8125 59.421875 
L 7.8125 69.390625 
Q 13.765625 71.78125 18.9375 73 
Q 24.125 74.21875 28.421875 74.21875 
Q 39.75 74.21875 46.484375 68.546875 
Q 53.21875 62.890625 53.21875 53.421875 
Q 53.21875 48.921875 51.53125 44.890625 
Q 49.859375 40.875 45.40625 35.40625 
Q 44.1875 33.984375 37.640625 27.21875 
Q 31.109375 20.453125 19.1875 8.296875 
z
" id="DejaVuSans-50"/>
     <path d="M 10.6875 12.40625 
L 21 12.40625 
L 21 0 
L 10.6875 0 
z
" id="DejaVuSans-46"/>
    </defs>
    <g style="fill:#808080;" transform="translate(219.489063 288.777272)scale(0.1 -0.1)">
     <use xlink:href="#DejaVuSans-118"/>
     <use x="59.179688" xlink:href="#DejaVuSans-50"/>
     <use x="122.802734" xlink:href="#DejaVuSans-46"/>
     <use x="154.589844" xlink:href="#DejaVuSans-52"/>
    </g>
   </g>
  </g>
 </g>
 <defs>
  <clipPath id="p3542f9df98">
   <rect height="290.304" width="460.8" x="0" y="3.456"/>
  </clipPath>
 </defs>
</svg>
