<?xml version="1.0" encoding="utf-8" standalone="no"?>
<!DOCTYPE svg PUBLIC "-//W3C//DTD SVG 1.1//EN"
  "http://www.w3.org/Graphics/SVG/1.1/DTD/svg11.dtd">
<!-- Created with matplotlib (https://matplotlib.org/) -->
<svg height="345.6pt" version="1.1" viewBox="0 0 460.8 345.6" width="460.8pt" xmlns="http://www.w3.org/2000/svg" xmlns:xlink="http://www.w3.org/1999/xlink">
 <defs>
  <style type="text/css">
*{stroke-linecap:butt;stroke-linejoin:round;}
  </style>
 </defs>
 <g id="figure_1">
  <g id="patch_1">
   <path d="M 0 345.6 
L 460.8 345.6 
L 460.8 0 
L 0 0 
z
" style="fill:#ffffff;"/>
  </g>
  <g id="axes_1">
   <g id="patch_2">
    <path d="M 0 293.76 
L 460.8 293.76 
L 460.8 3.456 
L 0 3.456 
z
" style="fill:#ffffff;"/>
   </g>
   <g id="matplotlib.axis_1">
    <g id="xtick_1">
     <g id="line2d_1">
      <path clip-path="url(#p56606d0c85)" d="M 105.044861 293.76 
L 105.044861 3.456 
" style="fill:none;stroke:#b0b0b0;stroke-linecap:square;stroke-width:0.8;"/>
     </g>
     <g id="line2d_2">
      <defs>
       <path d="M 0 0 
L 0 3.5 
" id="m639e526e2f" style="stroke:#000000;stroke-width:0.8;"/>
      </defs>
      <g>
       <use style="stroke:#000000;stroke-width:0.8;" x="105.044861" xlink:href="#m639e526e2f" y="293.76"/>
      </g>
     </g>
     <g id="text_1">
      <!-- -4 -->
      <defs>
       <path d="M 4.890625 31.390625 
L 31.203125 31.390625 
L 31.203125 23.390625 
L 4.890625 23.390625 
z
" id="DejaVuSans-45"/>
       <path d="M 37.796875 64.3125 
L 12.890625 25.390625 
L 37.796875 25.390625 
z
M 35.203125 72.90625 
L 47.609375 72.90625 
L 47.609375 25.390625 
L 58.015625 25.390625 
L 58.015625 17.1875 
L 47.609375 17.1875 
L 47.609375 0 
L 37.796875 0 
L 37.796875 17.1875 
L 4.890625 17.1875 
L 4.890625 26.703125 
z
" id="DejaVuSans-52"/>
      </defs>
      <g transform="translate(95.074549 315.956875)scale(0.2 -0.2)">
       <use xlink:href="#DejaVuSans-45"/>
       <use x="36.083984" xlink:href="#DejaVuSans-52"/>
      </g>
     </g>
    </g>
    <g id="xtick_2">
     <g id="line2d_3">
      <path clip-path="url(#p56606d0c85)" d="M 210.203329 293.76 
L 210.203329 3.456 
" style="fill:none;stroke:#b0b0b0;stroke-linecap:square;stroke-width:0.8;"/>
     </g>
     <g id="line2d_4">
      <g>
       <use style="stroke:#000000;stroke-width:0.8;" x="210.203329" xlink:href="#m639e526e2f" y="293.76"/>
      </g>
     </g>
     <g id="text_2">
      <!-- 0 -->
      <defs>
       <path d="M 31.78125 66.40625 
Q 24.171875 66.40625 20.328125 58.90625 
Q 16.5 51.421875 16.5 36.375 
Q 16.5 21.390625 20.328125 13.890625 
Q 24.171875 6.390625 31.78125 6.390625 
Q 39.453125 6.390625 43.28125 13.890625 
Q 47.125 21.390625 47.125 36.375 
Q 47.125 51.421875 43.28125 58.90625 
Q 39.453125 66.40625 31.78125 66.40625 
z
M 31.78125 74.21875 
Q 44.046875 74.21875 50.515625 64.515625 
Q 56.984375 54.828125 56.984375 36.375 
Q 56.984375 17.96875 50.515625 8.265625 
Q 44.046875 -1.421875 31.78125 -1.421875 
Q 19.53125 -1.421875 13.0625 8.265625 
Q 6.59375 17.96875 6.59375 36.375 
Q 6.59375 54.828125 13.0625 64.515625 
Q 19.53125 74.21875 31.78125 74.21875 
z
" id="DejaVuSans-48"/>
      </defs>
      <g transform="translate(203.840829 315.956875)scale(0.2 -0.2)">
       <use xlink:href="#DejaVuSans-48"/>
      </g>
     </g>
    </g>
    <g id="xtick_3">
     <g id="line2d_5">
      <path clip-path="url(#p56606d0c85)" d="M 315.361798 293.76 
L 315.361798 3.456 
" style="fill:none;stroke:#b0b0b0;stroke-linecap:square;stroke-width:0.8;"/>
     </g>
     <g id="line2d_6">
      <g>
       <use style="stroke:#000000;stroke-width:0.8;" x="315.361798" xlink:href="#m639e526e2f" y="293.76"/>
      </g>
     </g>
     <g id="text_3">
      <!-- 4 -->
      <g transform="translate(308.999298 315.956875)scale(0.2 -0.2)">
       <use xlink:href="#DejaVuSans-52"/>
      </g>
     </g>
    </g>
    <g id="xtick_4">
     <g id="line2d_7">
      <path clip-path="url(#p56606d0c85)" d="M 420.520266 293.76 
L 420.520266 3.456 
" style="fill:none;stroke:#b0b0b0;stroke-linecap:square;stroke-width:0.8;"/>
     </g>
     <g id="line2d_8">
      <g>
       <use style="stroke:#000000;stroke-width:0.8;" x="420.520266" xlink:href="#m639e526e2f" y="293.76"/>
      </g>
     </g>
     <g id="text_4">
      <!-- 8 -->
      <defs>
       <path d="M 31.78125 34.625 
Q 24.75 34.625 20.71875 30.859375 
Q 16.703125 27.09375 16.703125 20.515625 
Q 16.703125 13.921875 20.71875 10.15625 
Q 24.75 6.390625 31.78125 6.390625 
Q 38.8125 6.390625 42.859375 10.171875 
Q 46.921875 13.96875 46.921875 20.515625 
Q 46.921875 27.09375 42.890625 30.859375 
Q 38.875 34.625 31.78125 34.625 
z
M 21.921875 38.8125 
Q 15.578125 40.375 12.03125 44.71875 
Q 8.5 49.078125 8.5 55.328125 
Q 8.5 64.0625 14.71875 69.140625 
Q 20.953125 74.21875 31.78125 74.21875 
Q 42.671875 74.21875 48.875 69.140625 
Q 55.078125 64.0625 55.078125 55.328125 
Q 55.078125 49.078125 51.53125 44.71875 
Q 48 40.375 41.703125 38.8125 
Q 48.828125 37.15625 52.796875 32.3125 
Q 56.78125 27.484375 56.78125 20.515625 
Q 56.78125 9.90625 50.3125 4.234375 
Q 43.84375 -1.421875 31.78125 -1.421875 
Q 19.734375 -1.421875 13.25 4.234375 
Q 6.78125 9.90625 6.78125 20.515625 
Q 6.78125 27.484375 10.78125 32.3125 
Q 14.796875 37.15625 21.921875 38.8125 
z
M 18.3125 54.390625 
Q 18.3125 48.734375 21.84375 45.5625 
Q 25.390625 42.390625 31.78125 42.390625 
Q 38.140625 42.390625 41.71875 45.5625 
Q 45.3125 48.734375 45.3125 54.390625 
Q 45.3125 60.0625 41.71875 63.234375 
Q 38.140625 66.40625 31.78125 66.40625 
Q 25.390625 66.40625 21.84375 63.234375 
Q 18.3125 60.0625 18.3125 54.390625 
z
" id="DejaVuSans-56"/>
      </defs>
      <g transform="translate(414.157766 315.956875)scale(0.2 -0.2)">
       <use xlink:href="#DejaVuSans-56"/>
      </g>
     </g>
    </g>
    <g id="text_5">
     <!-- log10 of Df -->
     <defs>
      <path d="M 9.421875 75.984375 
L 18.40625 75.984375 
L 18.40625 0 
L 9.421875 0 
z
" id="DejaVuSans-108"/>
      <path d="M 30.609375 48.390625 
Q 23.390625 48.390625 19.1875 42.75 
Q 14.984375 37.109375 14.984375 27.296875 
Q 14.984375 17.484375 19.15625 11.84375 
Q 23.34375 6.203125 30.609375 6.203125 
Q 37.796875 6.203125 41.984375 11.859375 
Q 46.1875 17.53125 46.1875 27.296875 
Q 46.1875 37.015625 41.984375 42.703125 
Q 37.796875 48.390625 30.609375 48.390625 
z
M 30.609375 56 
Q 42.328125 56 49.015625 48.375 
Q 55.71875 40.765625 55.71875 27.296875 
Q 55.71875 13.875 49.015625 6.21875 
Q 42.328125 -1.421875 30.609375 -1.421875 
Q 18.84375 -1.421875 12.171875 6.21875 
Q 5.515625 13.875 5.515625 27.296875 
Q 5.515625 40.765625 12.171875 48.375 
Q 18.84375 56 30.609375 56 
z
" id="DejaVuSans-111"/>
      <path d="M 45.40625 27.984375 
Q 45.40625 37.75 41.375 43.109375 
Q 37.359375 48.484375 30.078125 48.484375 
Q 22.859375 48.484375 18.828125 43.109375 
Q 14.796875 37.75 14.796875 27.984375 
Q 14.796875 18.265625 18.828125 12.890625 
Q 22.859375 7.515625 30.078125 7.515625 
Q 37.359375 7.515625 41.375 12.890625 
Q 45.40625 18.265625 45.40625 27.984375 
z
M 54.390625 6.78125 
Q 54.390625 -7.171875 48.1875 -13.984375 
Q 42 -20.796875 29.203125 -20.796875 
Q 24.46875 -20.796875 20.265625 -20.09375 
Q 16.0625 -19.390625 12.109375 -17.921875 
L 12.109375 -9.1875 
Q 16.0625 -11.328125 19.921875 -12.34375 
Q 23.78125 -13.375 27.78125 -13.375 
Q 36.625 -13.375 41.015625 -8.765625 
Q 45.40625 -4.15625 45.40625 5.171875 
L 45.40625 9.625 
Q 42.625 4.78125 38.28125 2.390625 
Q 33.9375 0 27.875 0 
Q 17.828125 0 11.671875 7.65625 
Q 5.515625 15.328125 5.515625 27.984375 
Q 5.515625 40.671875 11.671875 48.328125 
Q 17.828125 56 27.875 56 
Q 33.9375 56 38.28125 53.609375 
Q 42.625 51.21875 45.40625 46.390625 
L 45.40625 54.6875 
L 54.390625 54.6875 
z
" id="DejaVuSans-103"/>
      <path d="M 12.40625 8.296875 
L 28.515625 8.296875 
L 28.515625 63.921875 
L 10.984375 60.40625 
L 10.984375 69.390625 
L 28.421875 72.90625 
L 38.28125 72.90625 
L 38.28125 8.296875 
L 54.390625 8.296875 
L 54.390625 0 
L 12.40625 0 
z
" id="DejaVuSans-49"/>
      <path id="DejaVuSans-32"/>
      <path d="M 37.109375 75.984375 
L 37.109375 68.5 
L 28.515625 68.5 
Q 23.6875 68.5 21.796875 66.546875 
Q 19.921875 64.59375 19.921875 59.515625 
L 19.921875 54.6875 
L 34.71875 54.6875 
L 34.71875 47.703125 
L 19.921875 47.703125 
L 19.921875 0 
L 10.890625 0 
L 10.890625 47.703125 
L 2.296875 47.703125 
L 2.296875 54.6875 
L 10.890625 54.6875 
L 10.890625 58.5 
Q 10.890625 67.625 15.140625 71.796875 
Q 19.390625 75.984375 28.609375 75.984375 
z
" id="DejaVuSans-102"/>
      <path d="M 19.671875 64.796875 
L 19.671875 8.109375 
L 31.59375 8.109375 
Q 46.6875 8.109375 53.6875 14.9375 
Q 60.6875 21.78125 60.6875 36.53125 
Q 60.6875 51.171875 53.6875 57.984375 
Q 46.6875 64.796875 31.59375 64.796875 
z
M 9.8125 72.90625 
L 30.078125 72.90625 
Q 51.265625 72.90625 61.171875 64.09375 
Q 71.09375 55.28125 71.09375 36.53125 
Q 71.09375 17.671875 61.125 8.828125 
Q 51.171875 0 30.078125 0 
L 9.8125 0 
z
" id="DejaVuSans-68"/>
     </defs>
     <g transform="translate(175.214063 339.313125)scale(0.2 -0.2)">
      <use xlink:href="#DejaVuSans-108"/>
      <use x="27.783203" xlink:href="#DejaVuSans-111"/>
      <use x="88.964844" xlink:href="#DejaVuSans-103"/>
      <use x="152.441406" xlink:href="#DejaVuSans-49"/>
      <use x="216.064453" xlink:href="#DejaVuSans-48"/>
      <use x="279.6875" xlink:href="#DejaVuSans-32"/>
      <use x="311.474609" xlink:href="#DejaVuSans-111"/>
      <use x="372.65625" xlink:href="#DejaVuSans-102"/>
      <use x="407.861328" xlink:href="#DejaVuSans-32"/>
      <use x="439.648438" xlink:href="#DejaVuSans-68"/>
      <use x="516.650391" xlink:href="#DejaVuSans-102"/>
     </g>
    </g>
   </g>
   <g id="matplotlib.axis_2">
    <g id="ytick_1">
     <g id="line2d_9">
      <path clip-path="url(#p56606d0c85)" d="M 0 293.76 
L 460.8 293.76 
" style="fill:none;stroke:#b0b0b0;stroke-linecap:square;stroke-width:0.8;"/>
     </g>
     <g id="line2d_10">
      <defs>
       <path d="M 0 0 
L -3.5 0 
" id="m5597fb9ccf" style="stroke:#000000;stroke-width:0.8;"/>
      </defs>
      <g>
       <use style="stroke:#000000;stroke-width:0.8;" x="0" xlink:href="#m5597fb9ccf" y="293.76"/>
      </g>
     </g>
    </g>
    <g id="ytick_2">
     <g id="line2d_11">
      <path clip-path="url(#p56606d0c85)" d="M 0 236.274059 
L 460.8 236.274059 
" style="fill:none;stroke:#b0b0b0;stroke-linecap:square;stroke-width:0.8;"/>
     </g>
     <g id="line2d_12">
      <g>
       <use style="stroke:#000000;stroke-width:0.8;" x="0" xlink:href="#m5597fb9ccf" y="236.274059"/>
      </g>
     </g>
    </g>
    <g id="ytick_3">
     <g id="line2d_13">
      <path clip-path="url(#p56606d0c85)" d="M 0 178.788119 
L 460.8 178.788119 
" style="fill:none;stroke:#b0b0b0;stroke-linecap:square;stroke-width:0.8;"/>
     </g>
     <g id="line2d_14">
      <g>
       <use style="stroke:#000000;stroke-width:0.8;" x="0" xlink:href="#m5597fb9ccf" y="178.788119"/>
      </g>
     </g>
    </g>
    <g id="ytick_4">
     <g id="line2d_15">
      <path clip-path="url(#p56606d0c85)" d="M 0 121.302178 
L 460.8 121.302178 
" style="fill:none;stroke:#b0b0b0;stroke-linecap:square;stroke-width:0.8;"/>
     </g>
     <g id="line2d_16">
      <g>
       <use style="stroke:#000000;stroke-width:0.8;" x="0" xlink:href="#m5597fb9ccf" y="121.302178"/>
      </g>
     </g>
    </g>
    <g id="ytick_5">
     <g id="line2d_17">
      <path clip-path="url(#p56606d0c85)" d="M 0 63.816238 
L 460.8 63.816238 
" style="fill:none;stroke:#b0b0b0;stroke-linecap:square;stroke-width:0.8;"/>
     </g>
     <g id="line2d_18">
      <g>
       <use style="stroke:#000000;stroke-width:0.8;" x="0" xlink:href="#m5597fb9ccf" y="63.816238"/>
      </g>
     </g>
    </g>
    <g id="ytick_6">
     <g id="line2d_19">
      <path clip-path="url(#p56606d0c85)" d="M 0 6.330297 
L 460.8 6.330297 
" style="fill:none;stroke:#b0b0b0;stroke-linecap:square;stroke-width:0.8;"/>
     </g>
     <g id="line2d_20">
      <g>
       <use style="stroke:#000000;stroke-width:0.8;" x="0" xlink:href="#m5597fb9ccf" y="6.330297"/>
      </g>
     </g>
    </g>
   </g>
   <g id="line2d_21">
    <path clip-path="url(#p56606d0c85)" d="M 258.09484 293.76 
L 258.09484 289.927604 
L 258.931258 289.927604 
L 258.931258 286.095208 
L 259.922999 286.095208 
L 259.922999 282.262812 
L 261.106399 282.262812 
L 261.106399 278.430416 
L 261.23552 278.430416 
L 261.23552 274.59802 
L 261.357989 274.59802 
L 261.357989 270.765624 
L 262.2858 270.765624 
L 262.2858 266.933228 
L 262.533202 266.933228 
L 262.533202 263.100832 
L 264.296744 263.100832 
L 264.373903 255.43604 
L 264.872877 255.43604 
L 264.872877 251.603644 
L 265.156635 251.603644 
L 265.211685 243.938851 
L 267.483256 243.938851 
L 267.483256 240.106455 
L 267.876773 240.106455 
L 267.876773 236.274059 
L 273.418822 236.274059 
L 273.504485 228.609267 
L 273.730515 228.609267 
L 273.794363 220.944475 
L 273.951335 220.944475 
L 273.951335 217.112079 
L 274.122559 217.112079 
L 274.189514 205.614891 
L 274.39849 205.614891 
L 274.39849 201.782495 
L 274.729838 201.782495 
L 274.799337 194.117703 
L 274.851832 194.117703 
L 274.851832 190.285307 
L 275.000261 190.285307 
L 275.00544 182.620515 
L 275.17579 182.620515 
L 275.17579 178.788119 
L 278.684143 178.788119 
L 278.684143 174.955723 
L 279.659509 174.955723 
L 279.659509 171.123327 
L 280.24828 171.123327 
L 280.24828 167.290931 
L 280.509483 167.290931 
L 280.509483 163.458535 
L 280.986077 163.458535 
L 280.986077 159.626139 
L 281.168614 159.626139 
L 281.168614 155.793743 
L 281.526348 155.793743 
L 281.526348 151.961347 
L 281.930037 151.961347 
L 281.930037 148.12895 
L 282.283701 148.12895 
L 282.283701 144.296554 
L 282.647093 144.296554 
L 282.647093 140.464158 
L 282.854067 140.464158 
L 282.896965 132.799366 
L 283.21636 132.799366 
L 283.30746 125.134574 
L 283.442484 125.134574 
L 283.526369 113.637386 
L 284.505588 113.637386 
L 284.587607 105.972594 
L 284.758985 105.972594 
L 284.758985 102.140198 
L 285.442291 102.140198 
L 285.442291 98.307802 
L 285.626627 98.307802 
L 285.673994 90.64301 
L 286.0727 90.64301 
L 286.073019 82.978218 
L 286.221432 82.978218 
L 286.221432 79.145822 
L 286.670631 79.145822 
L 286.670631 75.313426 
L 286.794336 75.313426 
L 286.794336 71.48103 
L 287.882781 71.48103 
L 287.882781 67.648634 
L 288.344667 67.648634 
L 288.344667 63.816238 
L 369.575082 63.816238 
L 369.575082 59.983842 
L 371.612629 59.983842 
L 371.612629 56.151446 
L 372.423352 56.151446 
L 372.423352 52.31905 
L 374.244658 52.31905 
L 374.244658 48.486653 
L 375.716151 48.486653 
L 375.716151 44.654257 
L 376.348561 44.654257 
L 376.348561 40.821861 
L 377.964322 40.821861 
L 377.964322 36.989465 
L 378.949152 36.989465 
L 378.949152 33.157069 
L 380.368171 33.157069 
L 380.368171 29.324673 
L 381.127142 29.324673 
L 381.234003 21.659881 
L 381.553879 21.659881 
L 381.553879 17.827485 
L 384.688896 17.827485 
L 384.688896 13.995089 
L 385.101534 13.995089 
L 385.101534 10.162693 
L 389.266036 10.162693 
L 389.266036 6.330297 
L 389.266036 6.330297 
L 460.8 6.330297 
L 460.8 6.330297 
" style="fill:none;stroke:#ff0000;stroke-linecap:square;stroke-width:3;"/>
   </g>
   <g id="line2d_22">
    <path clip-path="url(#p56606d0c85)" d="M 264.540758 293.76 
L 264.626278 286.095208 
L 265.508285 286.095208 
L 265.508285 282.262812 
L 265.83935 282.262812 
L 265.83935 278.430416 
L 266.534613 278.430416 
L 266.534613 274.59802 
L 267.249171 274.59802 
L 267.249171 270.765624 
L 267.614768 270.765624 
L 267.614768 266.933228 
L 268.037826 266.933228 
L 268.037826 263.100832 
L 268.162261 263.100832 
L 268.162261 259.268436 
L 268.422391 259.268436 
L 268.422391 255.43604 
L 268.698713 255.43604 
L 268.698713 251.603644 
L 269.269954 251.603644 
L 269.269954 247.771248 
L 269.751947 247.771248 
L 269.751947 243.938851 
L 271.429378 243.938851 
L 271.429378 240.106455 
L 272.143952 240.106455 
L 272.143952 236.274059 
L 274.636506 236.274059 
L 274.636506 232.441663 
L 275.033838 232.441663 
L 275.033838 228.609267 
L 275.162309 228.609267 
L 275.162309 224.776871 
L 275.340712 224.776871 
L 275.340712 220.944475 
L 275.578861 220.944475 
L 275.61738 213.279683 
L 275.797081 213.279683 
L 275.797081 209.447287 
L 276.238652 209.447287 
L 276.238652 205.614891 
L 276.378622 205.614891 
L 276.378622 201.782495 
L 277.046103 201.782495 
L 277.058644 194.117703 
L 277.23376 194.117703 
L 277.23376 190.285307 
L 277.359974 190.285307 
L 277.422886 182.620515 
L 277.480411 182.620515 
L 277.480411 178.788119 
L 283.73595 178.788119 
L 283.756573 171.123327 
L 284.678766 171.123327 
L 284.678766 167.290931 
L 285.074611 167.290931 
L 285.074611 163.458535 
L 285.799198 163.458535 
L 285.854402 151.961347 
L 285.93491 151.961347 
L 285.93491 148.12895 
L 286.221432 148.12895 
L 286.221432 144.296554 
L 286.829643 144.296554 
L 286.829643 140.464158 
L 287.579455 140.464158 
L 287.579455 136.631762 
L 287.748361 136.631762 
L 287.772477 128.96697 
L 288.24036 128.96697 
L 288.344667 121.302178 
L 288.621759 121.302178 
L 288.621759 117.469782 
L 289.199683 117.469782 
L 289.199683 113.637386 
L 289.776145 113.637386 
L 289.858012 105.972594 
L 289.925636 105.972594 
L 289.925636 102.140198 
L 290.400178 102.140198 
L 290.405627 94.475406 
L 290.526657 94.475406 
L 290.526657 90.64301 
L 291.802423 90.64301 
L 291.802423 86.810614 
L 292.281924 86.810614 
L 292.281924 82.978218 
L 293.322528 82.978218 
L 293.322528 79.145822 
L 294.585201 79.145822 
L 294.638887 71.48103 
L 295.20732 71.48103 
L 295.20732 67.648634 
L 299.229075 67.648634 
L 299.229075 63.816238 
L 371.612629 63.816238 
L 371.612629 59.983842 
L 375.716151 59.983842 
L 375.716151 56.151446 
L 378.949152 56.151446 
L 378.949152 52.31905 
L 383.410441 52.31905 
L 383.410441 48.486653 
L 384.725484 48.486653 
L 384.725484 44.654257 
L 384.943783 44.654257 
L 384.943783 40.821861 
L 385.260708 40.821861 
L 385.260708 36.989465 
L 390.227564 36.989465 
L 390.227564 33.157069 
L 391.197241 33.157069 
L 391.197241 29.324673 
L 391.841988 29.324673 
L 391.841988 25.492277 
L 392.571718 25.492277 
L 392.6463 17.827485 
L 393.061307 17.827485 
L 393.061307 13.995089 
L 393.276405 13.995089 
L 393.276405 10.162693 
L 399.303032 10.162693 
L 399.303032 6.330297 
L 399.303032 6.330297 
L 460.8 6.330297 
L 460.8 6.330297 
" style="fill:none;stroke:#00bfbf;stroke-linecap:square;stroke-width:1.5;"/>
   </g>
   <g id="line2d_23">
    <path clip-path="url(#p56606d0c85)" d="M 258.931258 293.76 
L 258.931258 289.927604 
L 262.467494 289.927604 
L 262.467494 286.095208 
L 264.540758 286.095208 
L 264.647372 278.430416 
L 265.508285 278.430416 
L 265.508285 274.59802 
L 266.534613 274.59802 
L 266.534613 270.765624 
L 267.614768 270.765624 
L 267.708711 263.100832 
L 268.037826 263.100832 
L 268.037826 259.268436 
L 268.162261 259.268436 
L 268.162261 255.43604 
L 268.422391 255.43604 
L 268.422391 251.603644 
L 268.641582 251.603644 
L 268.641582 247.771248 
L 269.269954 247.771248 
L 269.269954 243.938851 
L 271.323091 243.938851 
L 271.429378 236.274059 
L 273.418822 236.274059 
L 273.504485 228.609267 
L 273.951335 228.609267 
L 273.951335 224.776871 
L 274.636506 224.776871 
L 274.729838 217.112079 
L 274.799337 217.112079 
L 274.799337 213.279683 
L 275.162309 213.279683 
L 275.17579 205.614891 
L 275.289184 205.614891 
L 275.377111 194.117703 
L 275.61738 194.117703 
L 275.61738 190.285307 
L 276.42561 190.285307 
L 276.42561 186.452911 
L 276.594522 186.452911 
L 276.594522 182.620515 
L 276.898014 182.620515 
L 276.898014 178.788119 
L 282.814815 178.788119 
L 282.814815 174.955723 
L 283.30746 174.955723 
L 283.30746 171.123327 
L 283.73595 171.123327 
L 283.73595 167.290931 
L 284.678766 167.290931 
L 284.678766 163.458535 
L 285.074611 163.458535 
L 285.074611 159.626139 
L 285.426016 159.626139 
L 285.426016 155.793743 
L 285.799198 155.793743 
L 285.854402 144.296554 
L 285.93491 144.296554 
L 285.93491 140.464158 
L 286.221432 140.464158 
L 286.221432 136.631762 
L 286.829643 136.631762 
L 286.829643 132.799366 
L 287.579455 132.799366 
L 287.579455 128.96697 
L 287.748361 128.96697 
L 287.772477 121.302178 
L 288.24036 121.302178 
L 288.344667 113.637386 
L 288.621759 113.637386 
L 288.621759 109.80499 
L 289.199683 109.80499 
L 289.199683 105.972594 
L 289.776145 105.972594 
L 289.800369 98.307802 
L 289.925636 98.307802 
L 289.925636 94.475406 
L 290.400178 94.475406 
L 290.400178 90.64301 
L 290.526657 90.64301 
L 290.526657 86.810614 
L 291.095802 86.810614 
L 291.095802 82.978218 
L 291.802423 82.978218 
L 291.802423 79.145822 
L 292.281924 79.145822 
L 292.281924 75.313426 
L 293.322528 75.313426 
L 293.328454 67.648634 
L 297.428579 67.648634 
L 297.428579 63.816238 
L 371.612629 63.816238 
L 371.612629 59.983842 
L 375.716151 59.983842 
L 375.716151 56.151446 
L 376.348561 56.151446 
L 376.348561 52.31905 
L 377.102831 52.31905 
L 377.102831 48.486653 
L 378.735553 48.486653 
L 378.735553 44.654257 
L 378.949152 44.654257 
L 378.949152 40.821861 
L 381.234003 40.821861 
L 381.234003 36.989465 
L 383.410441 36.989465 
L 383.410441 33.157069 
L 384.725484 33.157069 
L 384.725484 29.324673 
L 384.943783 29.324673 
L 384.943783 25.492277 
L 385.260708 25.492277 
L 385.260708 21.659881 
L 389.464713 21.659881 
L 389.464713 17.827485 
L 391.197241 17.827485 
L 391.197241 13.995089 
L 391.935561 13.995089 
L 391.935561 10.162693 
L 392.147721 10.162693 
L 392.147721 6.330297 
L 392.147721 6.330297 
L 460.8 6.330297 
L 460.8 6.330297 
" style="fill:none;stroke:#bf00bf;stroke-linecap:square;stroke-width:1.5;"/>
   </g>
   <g id="line2d_24">
    <path clip-path="url(#p56606d0c85)" d="M 258.931258 293.76 
L 258.931258 289.927604 
L 262.467494 289.927604 
L 262.467494 286.095208 
L 264.540758 286.095208 
L 264.647372 278.430416 
L 264.856864 278.430416 
L 264.856864 274.59802 
L 265.094246 274.59802 
L 265.094246 270.765624 
L 266.302292 270.765624 
L 266.302292 266.933228 
L 266.534613 266.933228 
L 266.534613 263.100832 
L 266.711979 263.100832 
L 266.711979 259.268436 
L 266.839887 259.268436 
L 266.839887 255.43604 
L 267.614768 255.43604 
L 267.614768 251.603644 
L 268.162261 251.603644 
L 268.162261 247.771248 
L 268.422391 247.771248 
L 268.422391 243.938851 
L 270.084934 243.938851 
L 270.084934 240.106455 
L 270.544575 240.106455 
L 270.544575 236.274059 
L 273.418822 236.274059 
L 273.504485 228.609267 
L 273.730515 228.609267 
L 273.794363 220.944475 
L 273.951335 220.944475 
L 273.951335 217.112079 
L 274.189514 217.112079 
L 274.189514 213.279683 
L 274.39849 213.279683 
L 274.412287 205.614891 
L 274.636506 205.614891 
L 274.729838 197.950099 
L 274.799337 197.950099 
L 274.851832 190.285307 
L 275.000261 190.285307 
L 275.000261 186.452911 
L 275.17579 186.452911 
L 275.17579 182.620515 
L 275.323286 182.620515 
L 275.323286 178.788119 
L 280.986077 178.788119 
L 280.986077 174.955723 
L 282.814815 174.955723 
L 282.896965 167.290931 
L 283.30746 167.290931 
L 283.334301 159.626139 
L 283.582104 159.626139 
L 283.582104 155.793743 
L 283.73595 155.793743 
L 283.73595 151.961347 
L 284.271957 151.961347 
L 284.271957 148.12895 
L 285.18903 148.12895 
L 285.18903 144.296554 
L 285.426016 144.296554 
L 285.426016 140.464158 
L 285.82777 140.464158 
L 285.93491 132.799366 
L 286.156017 132.799366 
L 286.221432 125.134574 
L 286.562219 125.134574 
L 286.562219 121.302178 
L 286.829643 121.302178 
L 286.829643 117.469782 
L 286.974315 117.469782 
L 286.974315 113.637386 
L 287.427014 113.637386 
L 287.427014 109.80499 
L 288.118325 109.80499 
L 288.118325 105.972594 
L 288.24036 105.972594 
L 288.344667 98.307802 
L 288.579118 98.307802 
L 288.579118 94.475406 
L 289.277227 94.475406 
L 289.277227 90.64301 
L 289.438806 90.64301 
L 289.438806 86.810614 
L 289.925636 86.810614 
L 289.925636 82.978218 
L 290.289866 82.978218 
L 290.289866 79.145822 
L 290.635672 79.145822 
L 290.635672 75.313426 
L 290.805752 75.313426 
L 290.805752 71.48103 
L 291.286935 71.48103 
L 291.286935 67.648634 
L 291.802423 67.648634 
L 291.802423 63.816238 
L 371.612629 63.816238 
L 371.612629 59.983842 
L 372.423352 59.983842 
L 372.423352 56.151446 
L 375.716151 56.151446 
L 375.716151 52.31905 
L 376.348561 52.31905 
L 376.348561 48.486653 
L 377.102831 48.486653 
L 377.102831 44.654257 
L 377.964322 44.654257 
L 377.964322 40.821861 
L 378.735553 40.821861 
L 378.735553 36.989465 
L 378.949152 36.989465 
L 378.949152 33.157069 
L 381.234003 33.157069 
L 381.234003 29.324673 
L 383.410441 29.324673 
L 383.410441 25.492277 
L 384.688896 25.492277 
L 384.688896 21.659881 
L 384.943783 21.659881 
L 384.943783 17.827485 
L 385.260708 17.827485 
L 385.260708 13.995089 
L 385.620864 13.995089 
L 385.620864 10.162693 
L 389.266036 10.162693 
L 389.266036 6.330297 
L 389.266036 6.330297 
L 460.8 6.330297 
L 460.8 6.330297 
" style="fill:none;stroke:#000000;stroke-linecap:square;stroke-width:1.5;"/>
   </g>
   <g id="line2d_25">
    <path clip-path="url(#p56606d0c85)" d="M 258.931258 293.76 
L 258.931258 289.927604 
L 261.529932 289.927604 
L 261.615369 282.262812 
L 263.314242 282.262812 
L 263.314242 278.430416 
L 263.894727 278.430416 
L 263.894727 274.59802 
L 264.318112 274.59802 
L 264.373903 266.933228 
L 264.557553 266.933228 
L 264.557553 263.100832 
L 265.230944 263.100832 
L 265.230944 259.268436 
L 265.486944 259.268436 
L 265.486944 255.43604 
L 265.616864 255.43604 
L 265.616864 251.603644 
L 266.839887 251.603644 
L 266.839887 247.771248 
L 267.171755 247.771248 
L 267.171755 243.938851 
L 267.946734 243.938851 
L 268.008888 236.274059 
L 273.418822 236.274059 
L 273.504485 228.609267 
L 273.730515 228.609267 
L 273.794363 220.944475 
L 273.951335 220.944475 
L 273.951335 217.112079 
L 274.187829 217.112079 
L 274.189514 209.447287 
L 274.39849 209.447287 
L 274.39849 205.614891 
L 274.636506 205.614891 
L 274.729838 197.950099 
L 274.799337 197.950099 
L 274.851832 190.285307 
L 275.000261 190.285307 
L 275.000261 186.452911 
L 275.17579 186.452911 
L 275.17579 182.620515 
L 275.323286 182.620515 
L 275.323286 178.788119 
L 278.684143 178.788119 
L 278.684143 174.955723 
L 280.256076 174.955723 
L 280.256076 171.123327 
L 280.986077 171.123327 
L 280.986077 167.290931 
L 281.734375 167.290931 
L 281.734375 163.458535 
L 282.874243 163.458535 
L 282.896965 155.793743 
L 283.30746 155.793743 
L 283.30746 151.961347 
L 283.528917 151.961347 
L 283.528917 148.12895 
L 284.271957 148.12895 
L 284.271957 144.296554 
L 284.677689 144.296554 
L 284.677689 140.464158 
L 284.802925 140.464158 
L 284.802925 136.631762 
L 285.316931 136.631762 
L 285.364567 128.96697 
L 286.14484 128.96697 
L 286.221432 117.469782 
L 286.562219 117.469782 
L 286.609923 109.80499 
L 286.809459 109.80499 
L 286.829643 102.140198 
L 286.974315 102.140198 
L 286.974315 98.307802 
L 287.798998 98.307802 
L 287.798998 94.475406 
L 288.089214 94.475406 
L 288.089214 90.64301 
L 288.344667 90.64301 
L 288.365257 82.978218 
L 288.579118 82.978218 
L 288.579118 79.145822 
L 289.030924 79.145822 
L 289.030924 75.313426 
L 289.772782 75.313426 
L 289.772782 71.48103 
L 290.635672 71.48103 
L 290.635672 67.648634 
L 291.179111 67.648634 
L 291.179111 63.816238 
L 371.612629 63.816238 
L 371.612629 59.983842 
L 372.423352 59.983842 
L 372.423352 56.151446 
L 375.716151 56.151446 
L 375.716151 52.31905 
L 376.348561 52.31905 
L 376.348561 48.486653 
L 377.102831 48.486653 
L 377.102831 44.654257 
L 377.964322 44.654257 
L 377.964322 40.821861 
L 378.735553 40.821861 
L 378.735553 36.989465 
L 378.949152 36.989465 
L 378.949152 33.157069 
L 381.127142 33.157069 
L 381.234003 25.492277 
L 384.688896 25.492277 
L 384.688896 21.659881 
L 384.943783 21.659881 
L 384.943783 17.827485 
L 385.260708 17.827485 
L 385.260708 13.995089 
L 385.620864 13.995089 
L 385.620864 10.162693 
L 389.266036 10.162693 
L 389.266036 6.330297 
L 389.266036 6.330297 
L 460.8 6.330297 
L 460.8 6.330297 
" style="fill:none;stroke:#00bfbf;stroke-linecap:square;stroke-width:1.5;"/>
   </g>
   <g id="line2d_26">
    <path clip-path="url(#p56606d0c85)" d="M 258.09484 293.76 
L 258.09484 289.927604 
L 258.931258 289.927604 
L 258.931258 286.095208 
L 259.922999 286.095208 
L 259.922999 282.262812 
L 261.106399 282.262812 
L 261.106399 278.430416 
L 261.23552 278.430416 
L 261.23552 274.59802 
L 261.357989 274.59802 
L 261.357989 270.765624 
L 262.2858 270.765624 
L 262.2858 266.933228 
L 262.533202 266.933228 
L 262.533202 263.100832 
L 264.296744 263.100832 
L 264.373903 255.43604 
L 264.872877 255.43604 
L 264.872877 251.603644 
L 265.156635 251.603644 
L 265.211685 243.938851 
L 267.483256 243.938851 
L 267.483256 240.106455 
L 267.876773 240.106455 
L 267.876773 236.274059 
L 273.418822 236.274059 
L 273.504485 228.609267 
L 273.730515 228.609267 
L 273.794363 220.944475 
L 273.951335 220.944475 
L 273.951335 217.112079 
L 274.122559 217.112079 
L 274.189514 205.614891 
L 274.39849 205.614891 
L 274.39849 201.782495 
L 274.729838 201.782495 
L 274.799337 194.117703 
L 274.851832 194.117703 
L 274.851832 190.285307 
L 275.000261 190.285307 
L 275.00544 182.620515 
L 275.17579 182.620515 
L 275.17579 178.788119 
L 278.684143 178.788119 
L 278.684143 174.955723 
L 279.659509 174.955723 
L 279.659509 171.123327 
L 280.24828 171.123327 
L 280.24828 167.290931 
L 280.509483 167.290931 
L 280.509483 163.458535 
L 280.986077 163.458535 
L 280.986077 159.626139 
L 281.168614 159.626139 
L 281.168614 155.793743 
L 281.526348 155.793743 
L 281.526348 151.961347 
L 281.930037 151.961347 
L 281.930037 148.12895 
L 282.283701 148.12895 
L 282.283701 144.296554 
L 282.647093 144.296554 
L 282.647093 140.464158 
L 282.854067 140.464158 
L 282.896965 132.799366 
L 283.21636 132.799366 
L 283.30746 125.134574 
L 283.442484 125.134574 
L 283.526369 113.637386 
L 284.505588 113.637386 
L 284.587607 105.972594 
L 284.758985 105.972594 
L 284.758985 102.140198 
L 285.442291 102.140198 
L 285.442291 98.307802 
L 285.626627 98.307802 
L 285.673994 90.64301 
L 286.0727 90.64301 
L 286.073019 82.978218 
L 286.221432 82.978218 
L 286.221432 79.145822 
L 286.670631 79.145822 
L 286.670631 75.313426 
L 286.794336 75.313426 
L 286.794336 71.48103 
L 287.882781 71.48103 
L 287.882781 67.648634 
L 288.344667 67.648634 
L 288.344667 63.816238 
L 369.575082 63.816238 
L 369.575082 59.983842 
L 371.612629 59.983842 
L 371.612629 56.151446 
L 372.423352 56.151446 
L 372.423352 52.31905 
L 374.244658 52.31905 
L 374.244658 48.486653 
L 375.716151 48.486653 
L 375.716151 44.654257 
L 376.348561 44.654257 
L 376.348561 40.821861 
L 377.964322 40.821861 
L 377.964322 36.989465 
L 378.949152 36.989465 
L 378.949152 33.157069 
L 380.368171 33.157069 
L 380.368171 29.324673 
L 381.127142 29.324673 
L 381.234003 21.659881 
L 381.553879 21.659881 
L 381.553879 17.827485 
L 384.688896 17.827485 
L 384.688896 13.995089 
L 385.101534 13.995089 
L 385.101534 10.162693 
L 389.266036 10.162693 
L 389.266036 6.330297 
L 389.266036 6.330297 
L 460.8 6.330297 
L 460.8 6.330297 
" style="fill:none;stroke:#bf00bf;stroke-linecap:square;stroke-width:1.5;"/>
   </g>
   <g id="patch_3">
    <path d="M 0 293.76 
L 0 3.456 
" style="fill:none;stroke:#000000;stroke-linecap:square;stroke-linejoin:miter;stroke-width:0.8;"/>
   </g>
   <g id="patch_4">
    <path d="M 460.8 293.76 
L 460.8 3.456 
" style="fill:none;stroke:#000000;stroke-linecap:square;stroke-linejoin:miter;stroke-width:0.8;"/>
   </g>
   <g id="patch_5">
    <path d="M 0 293.76 
L 460.8 293.76 
" style="fill:none;stroke:#000000;stroke-linecap:square;stroke-linejoin:miter;stroke-width:0.8;"/>
   </g>
   <g id="patch_6">
    <path d="M 0 3.456 
L 460.8 3.456 
" style="fill:none;stroke:#000000;stroke-linecap:square;stroke-linejoin:miter;stroke-width:0.8;"/>
   </g>
   <g id="text_6">
    <!-- {f1-f5}, 20-D -->
    <defs>
     <path d="M 51.125 -9.28125 
L 51.125 -16.3125 
L 48.09375 -16.3125 
Q 35.9375 -16.3125 31.8125 -12.6875 
Q 27.6875 -9.078125 27.6875 1.703125 
L 27.6875 13.375 
Q 27.6875 20.75 25.046875 23.578125 
Q 22.40625 26.421875 15.484375 26.421875 
L 12.5 26.421875 
L 12.5 33.40625 
L 15.484375 33.40625 
Q 22.46875 33.40625 25.078125 36.203125 
Q 27.6875 39.015625 27.6875 46.296875 
L 27.6875 58.015625 
Q 27.6875 68.796875 31.8125 72.390625 
Q 35.9375 75.984375 48.09375 75.984375 
L 51.125 75.984375 
L 51.125 69 
L 47.796875 69 
Q 40.921875 69 38.8125 66.84375 
Q 36.71875 64.703125 36.71875 57.8125 
L 36.71875 45.703125 
Q 36.71875 38.03125 34.5 34.5625 
Q 32.28125 31.109375 26.90625 29.890625 
Q 32.328125 28.5625 34.515625 25.09375 
Q 36.71875 21.625 36.71875 14.015625 
L 36.71875 1.90625 
Q 36.71875 -4.984375 38.8125 -7.125 
Q 40.921875 -9.28125 47.796875 -9.28125 
z
" id="DejaVuSans-123"/>
     <path d="M 10.796875 72.90625 
L 49.515625 72.90625 
L 49.515625 64.59375 
L 19.828125 64.59375 
L 19.828125 46.734375 
Q 21.96875 47.46875 24.109375 47.828125 
Q 26.265625 48.1875 28.421875 48.1875 
Q 40.625 48.1875 47.75 41.5 
Q 54.890625 34.8125 54.890625 23.390625 
Q 54.890625 11.625 47.5625 5.09375 
Q 40.234375 -1.421875 26.90625 -1.421875 
Q 22.3125 -1.421875 17.546875 -0.640625 
Q 12.796875 0.140625 7.71875 1.703125 
L 7.71875 11.625 
Q 12.109375 9.234375 16.796875 8.0625 
Q 21.484375 6.890625 26.703125 6.890625 
Q 35.15625 6.890625 40.078125 11.328125 
Q 45.015625 15.765625 45.015625 23.390625 
Q 45.015625 31 40.078125 35.4375 
Q 35.15625 39.890625 26.703125 39.890625 
Q 22.75 39.890625 18.8125 39.015625 
Q 14.890625 38.140625 10.796875 36.28125 
z
" id="DejaVuSans-53"/>
     <path d="M 12.5 -9.28125 
L 15.921875 -9.28125 
Q 22.75 -9.28125 24.828125 -7.171875 
Q 26.90625 -5.078125 26.90625 1.90625 
L 26.90625 14.015625 
Q 26.90625 21.625 29.09375 25.09375 
Q 31.296875 28.5625 36.71875 29.890625 
Q 31.296875 31.109375 29.09375 34.5625 
Q 26.90625 38.03125 26.90625 45.703125 
L 26.90625 57.8125 
Q 26.90625 64.75 24.828125 66.875 
Q 22.75 69 15.921875 69 
L 12.5 69 
L 12.5 75.984375 
L 15.578125 75.984375 
Q 27.734375 75.984375 31.8125 72.390625 
Q 35.890625 68.796875 35.890625 58.015625 
L 35.890625 46.296875 
Q 35.890625 39.015625 38.515625 36.203125 
Q 41.15625 33.40625 48.09375 33.40625 
L 51.125 33.40625 
L 51.125 26.421875 
L 48.09375 26.421875 
Q 41.15625 26.421875 38.515625 23.578125 
Q 35.890625 20.75 35.890625 13.375 
L 35.890625 1.703125 
Q 35.890625 -9.078125 31.8125 -12.6875 
Q 27.734375 -16.3125 15.578125 -16.3125 
L 12.5 -16.3125 
z
" id="DejaVuSans-125"/>
     <path d="M 11.71875 12.40625 
L 22.015625 12.40625 
L 22.015625 4 
L 14.015625 -11.625 
L 7.71875 -11.625 
L 11.71875 4 
z
" id="DejaVuSans-44"/>
     <path d="M 19.1875 8.296875 
L 53.609375 8.296875 
L 53.609375 0 
L 7.328125 0 
L 7.328125 8.296875 
Q 12.9375 14.109375 22.625 23.890625 
Q 32.328125 33.6875 34.8125 36.53125 
Q 39.546875 41.84375 41.421875 45.53125 
Q 43.3125 49.21875 43.3125 52.78125 
Q 43.3125 58.59375 39.234375 62.25 
Q 35.15625 65.921875 28.609375 65.921875 
Q 23.96875 65.921875 18.8125 64.3125 
Q 13.671875 62.703125 7.8125 59.421875 
L 7.8125 69.390625 
Q 13.765625 71.78125 18.9375 73 
Q 24.125 74.21875 28.421875 74.21875 
Q 39.75 74.21875 46.484375 68.546875 
Q 53.21875 62.890625 53.21875 53.421875 
Q 53.21875 48.921875 51.53125 44.890625 
Q 49.859375 40.875 45.40625 35.40625 
Q 44.1875 33.984375 37.640625 27.21875 
Q 31.109375 20.453125 19.1875 8.296875 
z
" id="DejaVuSans-50"/>
    </defs>
    <g transform="translate(318.609 287.95392)scale(0.2 -0.2)">
     <use xlink:href="#DejaVuSans-123"/>
     <use x="63.623047" xlink:href="#DejaVuSans-102"/>
     <use x="98.828125" xlink:href="#DejaVuSans-49"/>
     <use x="162.451172" xlink:href="#DejaVuSans-45"/>
     <use x="198.535156" xlink:href="#DejaVuSans-102"/>
     <use x="233.740234" xlink:href="#DejaVuSans-53"/>
     <use x="297.363281" xlink:href="#DejaVuSans-125"/>
     <use x="360.986328" xlink:href="#DejaVuSans-44"/>
     <use x="392.773438" xlink:href="#DejaVuSans-32"/>
     <use x="424.560547" xlink:href="#DejaVuSans-50"/>
     <use x="488.183594" xlink:href="#DejaVuSans-48"/>
     <use x="551.806641" xlink:href="#DejaVuSans-45"/>
     <use x="587.890625" xlink:href="#DejaVuSans-68"/>
    </g>
   </g>
   <g id="text_7">
    <!-- v2.4 -->
    <defs>
     <path d="M 2.984375 54.6875 
L 12.5 54.6875 
L 29.59375 8.796875 
L 46.6875 54.6875 
L 56.203125 54.6875 
L 35.6875 0 
L 23.484375 0 
z
" id="DejaVuSans-118"/>
     <path d="M 10.6875 12.40625 
L 21 12.40625 
L 21 0 
L 10.6875 0 
z
" id="DejaVuSans-46"/>
    </defs>
    <g style="fill:#808080;" transform="translate(219.489063 288.777272)scale(0.1 -0.1)">
     <use xlink:href="#DejaVuSans-118"/>
     <use x="59.179688" xlink:href="#DejaVuSans-50"/>
     <use x="122.802734" xlink:href="#DejaVuSans-46"/>
     <use x="154.589844" xlink:href="#DejaVuSans-52"/>
    </g>
   </g>
  </g>
 </g>
 <defs>
  <clipPath id="p56606d0c85">
   <rect height="290.304" width="460.8" x="0" y="3.456"/>
  </clipPath>
 </defs>
</svg>
