<?xml version="1.0" encoding="utf-8" standalone="no"?>
<!DOCTYPE svg PUBLIC "-//W3C//DTD SVG 1.1//EN"
  "http://www.w3.org/Graphics/SVG/1.1/DTD/svg11.dtd">
<!-- Created with matplotlib (https://matplotlib.org/) -->
<svg height="345.6pt" version="1.1" viewBox="0 0 460.8 345.6" width="460.8pt" xmlns="http://www.w3.org/2000/svg" xmlns:xlink="http://www.w3.org/1999/xlink">
 <defs>
  <style type="text/css">
*{stroke-linecap:butt;stroke-linejoin:round;}
  </style>
 </defs>
 <g id="figure_1">
  <g id="patch_1">
   <path d="M 0 345.6 
L 460.8 345.6 
L 460.8 0 
L 0 0 
z
" style="fill:#ffffff;"/>
  </g>
  <g id="axes_1">
   <g id="patch_2">
    <path d="M 62.208 293.76 
L 460.8 293.76 
L 460.8 3.456 
L 62.208 3.456 
z
" style="fill:#ffffff;"/>
   </g>
   <g id="line2d_1">
    <path clip-path="url(#p3d2e24126b)" d="M 422.711718 293.76 
L 422.711718 289.927604 
L 422.711718 289.927604 
L 422.711718 286.095208 
L 423.247652 286.095208 
L 423.247652 282.262812 
L 423.247652 282.262812 
L 423.247652 278.430416 
L 423.247652 278.430416 
L 423.247652 274.59802 
L 423.51438 274.59802 
L 423.51438 270.765624 
L 423.51438 270.765624 
L 423.51438 266.933228 
L 424.309668 266.933228 
L 424.309668 263.100832 
L 426.652603 263.100832 
L 426.652603 259.268436 
L 426.652603 259.268436 
L 426.652603 255.43604 
L 428.180051 255.43604 
L 428.180051 251.603644 
L 428.933784 251.603644 
L 428.933784 247.771248 
L 431.642639 247.771248 
L 431.642639 243.938851 
L 434.738405 243.938851 
L 434.738405 240.106455 
L 437.274098 240.106455 
L 437.274098 236.274059 
L 456.542429 236.274059 
L 456.542429 232.441663 
L 458.519846 232.441663 
L 458.519846 228.609267 
L 459.051392 228.609267 
L 459.051392 224.776871 
L 459.051392 224.776871 
L 459.051392 220.944475 
L 459.403951 220.944475 
L 459.403951 217.112079 
L 460.279117 217.112079 
L 460.279117 213.279683 
L 460.453093 213.279683 
L 460.453093 209.447287 
L 461.48967 209.447287 
L 461.48967 205.614891 
L 461.48967 205.614891 
L 461.48967 201.782495 
L 461.8 201.782495 
" style="fill:none;stroke:#f5deb3;stroke-linecap:square;stroke-width:1.5;"/>
   </g>
   <g id="line2d_2">
    <path clip-path="url(#p3d2e24126b)" d="M 345.527976 293.76 
L 345.527976 282.262812 
L 345.527976 282.262812 
L 345.527976 270.765624 
L 346.181211 270.765624 
L 346.181211 259.268436 
L 346.181211 259.268436 
L 346.181211 247.771248 
L 346.181211 247.771248 
L 346.181211 236.274059 
L 461.8 236.274059 
" style="fill:none;stroke:#f5deb3;stroke-linecap:square;stroke-width:1.5;"/>
   </g>
   <g id="line2d_3">
    <path clip-path="url(#p3d2e24126b)" d="M 190.445545 293.76 
L 190.445545 289.927604 
L 190.445545 289.927604 
L 190.445545 286.095208 
L 190.445545 286.095208 
L 190.445545 282.262812 
L 190.445545 282.262812 
L 190.445545 278.430416 
L 190.445545 278.430416 
L 190.445545 274.59802 
L 190.445545 274.59802 
L 190.445545 270.765624 
L 190.445545 270.765624 
L 190.445545 266.933228 
L 190.445545 266.933228 
L 190.445545 263.100832 
L 190.445545 263.100832 
L 190.445545 259.268436 
L 190.445545 259.268436 
L 190.445545 255.43604 
L 190.445545 255.43604 
L 190.445545 251.603644 
L 190.445545 251.603644 
L 190.445545 247.771248 
L 190.445545 247.771248 
L 190.445545 243.938851 
L 190.445545 243.938851 
L 190.445545 240.106455 
L 190.445545 240.106455 
L 190.445545 236.274059 
L 190.445545 236.274059 
L 190.445545 232.441663 
L 190.445545 232.441663 
L 190.445545 228.609267 
L 190.445545 228.609267 
L 190.445545 224.776871 
L 190.445545 224.776871 
L 190.445545 220.944475 
L 194.292985 220.944475 
L 194.292985 217.112079 
L 194.292985 217.112079 
L 194.292985 213.279683 
L 194.292985 213.279683 
L 194.292985 209.447287 
L 197.976654 209.447287 
L 197.976654 205.614891 
L 197.976654 205.614891 
L 197.976654 201.782495 
L 201.509926 201.782495 
L 201.509926 197.950099 
L 201.509926 197.950099 
L 201.509926 194.117703 
L 201.509926 194.117703 
L 201.509926 190.285307 
L 204.904602 190.285307 
L 204.904602 186.452911 
L 208.171147 186.452911 
L 208.171147 182.620515 
L 222.876444 182.620515 
L 222.876444 178.788119 
L 461.8 178.788119 
" style="fill:none;stroke:#f5deb3;stroke-linecap:square;stroke-width:1.5;"/>
   </g>
   <g id="line2d_4">
    <path clip-path="url(#p3d2e24126b)" d="M 137.98258 293.76 
L 137.98258 289.927604 
L 173.076863 289.927604 
L 173.076863 286.095208 
L 194.292985 286.095208 
L 194.292985 282.262812 
L 197.976654 282.262812 
L 197.976654 278.430416 
L 208.171147 278.430416 
L 208.171147 274.59802 
L 217.290432 274.59802 
L 217.290432 270.765624 
L 222.876444 270.765624 
L 222.876444 266.933228 
L 225.539828 266.933228 
L 225.539828 263.100832 
L 225.539828 263.100832 
L 225.539828 259.268436 
L 225.539828 259.268436 
L 225.539828 255.43604 
L 233.070937 255.43604 
L 233.070937 251.603644 
L 239.998886 251.603644 
L 239.998886 247.771248 
L 242.190222 247.771248 
L 242.190222 243.938851 
L 248.449803 243.938851 
L 248.449803 240.106455 
L 261.504 240.106455 
L 261.504 236.274059 
L 437.500974 236.274059 
L 437.500974 232.441663 
L 442.347455 232.441663 
L 442.347455 228.609267 
L 445.296022 228.609267 
L 445.296022 224.776871 
L 446.325204 224.776871 
L 446.325204 220.944475 
L 446.52958 220.944475 
L 446.52958 217.112079 
L 447.139828 217.112079 
L 447.139828 213.279683 
L 447.544283 213.279683 
L 447.544283 209.447287 
L 448.746429 209.447287 
L 448.746429 205.614891 
L 449.143462 205.614891 
L 449.143462 201.782495 
L 449.932107 201.782495 
L 449.932107 197.950099 
L 451.872842 197.950099 
L 451.872842 194.117703 
L 456.177994 194.117703 
L 456.177994 190.285307 
L 456.542429 190.285307 
L 456.542429 186.452911 
L 457.985015 186.452911 
L 457.985015 182.620515 
L 461.8 182.620515 
" style="fill:none;stroke:#f5deb3;stroke-linecap:square;stroke-width:1.5;"/>
   </g>
   <g id="line2d_5">
    <path clip-path="url(#p3d2e24126b)" d="M 447.745803 293.76 
L 447.745803 289.927604 
L 461.8 289.927604 
" style="fill:none;stroke:#f5deb3;stroke-linecap:square;stroke-width:1.5;"/>
   </g>
   <g id="line2d_6"/>
   <g id="line2d_7">
    <path clip-path="url(#p3d2e24126b)" d="M 339.415803 293.76 
L 339.415803 289.927604 
L 342.18574 289.927604 
L 342.18574 286.095208 
L 348.745936 286.095208 
L 348.745936 282.262812 
L 351.848532 282.262812 
L 351.848532 278.430416 
L 353.658071 278.430416 
L 353.658071 274.59802 
L 357.738774 274.59802 
L 357.738774 266.933228 
L 358.870204 266.933228 
L 358.870204 263.100832 
L 359.43042 263.100832 
L 359.43042 259.268436 
L 360.540091 259.268436 
L 360.540091 255.43604 
L 363.786215 255.43604 
L 363.786215 251.603644 
L 365.884576 251.603644 
L 365.884576 247.771248 
L 366.401313 247.771248 
L 366.401313 243.938851 
L 367.933267 243.938851 
L 367.933267 240.106455 
L 373.803526 240.106455 
L 373.803526 236.274059 
L 461.8 236.274059 
L 461.8 236.274059 
" style="fill:none;stroke:#f5deb3;stroke-linecap:square;stroke-width:1.5;"/>
   </g>
   <g id="line2d_8">
    <path clip-path="url(#p3d2e24126b)" d="M 0 0 
" style="fill:none;stroke:#f5deb3;stroke-linecap:square;stroke-width:1.5;"/>
   </g>
   <g id="line2d_9">
    <path clip-path="url(#p3d2e24126b)" d="M 230.632659 293.76 
L 230.632659 289.927604 
L 239.998886 289.927604 
L 239.998886 286.095208 
L 246.413165 286.095208 
L 246.413165 282.262812 
L 256.148489 282.262812 
L 256.148489 278.430416 
L 257.970728 278.430416 
L 257.970728 274.59802 
L 278.715169 274.59802 
L 278.715169 270.765624 
L 284.212454 270.765624 
L 284.212454 266.933228 
L 296.598284 266.933228 
L 296.598284 263.100832 
L 296.598284 263.100832 
L 296.598284 259.268436 
L 302.184296 259.268436 
L 302.184296 255.43604 
L 302.184296 255.43604 
L 302.184296 251.603644 
L 307.431548 251.603644 
L 307.431548 247.771248 
L 308.443877 247.771248 
L 308.443877 243.938851 
L 309.444503 243.938851 
L 309.444503 240.106455 
L 310.433693 240.106455 
L 310.433693 236.274059 
L 461.8 236.274059 
" style="fill:none;stroke:#f5deb3;stroke-linecap:square;stroke-width:1.5;"/>
   </g>
   <g id="line2d_10">
    <path clip-path="url(#p3d2e24126b)" d="M 322.359307 293.76 
L 322.359307 289.927604 
L 337.996867 289.927604 
L 337.996867 286.095208 
L 338.709243 286.095208 
L 338.709243 274.59802 
L 341.501522 274.59802 
L 341.501522 270.765624 
L 343.538161 270.765624 
L 343.538161 266.933228 
L 352.455925 266.933228 
L 352.455925 263.100832 
L 353.658071 263.100832 
L 353.658071 259.268436 
L 365.364736 259.268436 
L 365.364736 255.43604 
L 371.405779 255.43604 
L 371.405779 251.603644 
L 385.715091 251.603644 
L 385.715091 247.771248 
L 386.12627 247.771248 
L 386.12627 243.938851 
L 400.459019 243.938851 
L 400.459019 240.106455 
L 402.179814 240.106455 
L 402.179814 236.274059 
L 461.8 236.274059 
L 461.8 236.274059 
" style="fill:none;stroke:#f5deb3;stroke-linecap:square;stroke-width:1.5;"/>
   </g>
   <g id="line2d_11">
    <path clip-path="url(#p3d2e24126b)" d="M 157.296358 293.76 
L 157.296358 289.927604 
L 182.196148 289.927604 
L 182.196148 286.095208 
L 186.419091 286.095208 
L 186.419091 282.262812 
L 186.419091 282.262812 
L 186.419091 278.430416 
L 186.419091 278.430416 
L 186.419091 274.59802 
L 190.445545 274.59802 
L 190.445545 270.765624 
L 190.445545 270.765624 
L 190.445545 266.933228 
L 194.292985 266.933228 
L 194.292985 263.100832 
L 194.292985 263.100832 
L 194.292985 259.268436 
L 208.171147 259.268436 
L 208.171147 255.43604 
L 208.171147 255.43604 
L 208.171147 251.603644 
L 225.539828 251.603644 
L 225.539828 247.771248 
L 225.539828 247.771248 
L 225.539828 243.938851 
L 235.442405 243.938851 
L 235.442405 240.106455 
L 237.750626 240.106455 
L 237.750626 236.274059 
L 424.573148 236.274059 
L 424.573148 232.441663 
L 431.399853 232.441663 
L 431.399853 228.609267 
L 431.399853 228.609267 
L 431.399853 224.776871 
L 432.126177 224.776871 
L 432.126177 220.944475 
L 433.7976 220.944475 
L 433.7976 217.112079 
L 435.205 217.112079 
L 435.205 213.279683 
L 435.437357 213.279683 
L 435.437357 209.447287 
L 437.046626 209.447287 
L 437.046626 205.614891 
L 437.500974 205.614891 
L 437.500974 201.782495 
L 441.702335 201.782495 
L 441.702335 197.950099 
L 441.702335 197.950099 
L 441.702335 194.117703 
L 443.412082 194.117703 
L 443.412082 190.285307 
L 443.834294 190.285307 
L 443.834294 186.452911 
L 447.544283 186.452911 
L 447.544283 182.620515 
L 448.147443 182.620515 
L 448.147443 178.788119 
L 461.8 178.788119 
" style="fill:none;stroke:#f5deb3;stroke-linecap:square;stroke-width:1.5;"/>
   </g>
   <g id="line2d_12">
    <path clip-path="url(#p3d2e24126b)" d="M 144.910528 293.76 
L 144.910528 289.927604 
L 144.910528 289.927604 
L 144.910528 286.095208 
L 144.910528 286.095208 
L 144.910528 282.262812 
L 144.910528 282.262812 
L 144.910528 278.430416 
L 144.910528 278.430416 
L 144.910528 274.59802 
L 144.910528 274.59802 
L 144.910528 270.765624 
L 144.910528 270.765624 
L 144.910528 266.933228 
L 144.910528 266.933228 
L 144.910528 263.100832 
L 144.910528 263.100832 
L 144.910528 259.268436 
L 144.910528 259.268436 
L 144.910528 255.43604 
L 144.910528 255.43604 
L 144.910528 251.603644 
L 144.910528 251.603644 
L 144.910528 247.771248 
L 144.910528 247.771248 
L 144.910528 243.938851 
L 144.910528 243.938851 
L 144.910528 240.106455 
L 144.910528 240.106455 
L 144.910528 236.274059 
L 177.756552 236.274059 
L 177.756552 232.441663 
L 177.756552 232.441663 
L 177.756552 228.609267 
L 201.509926 228.609267 
L 201.509926 224.776871 
L 220.128494 224.776871 
L 220.128494 220.944475 
L 220.128494 220.944475 
L 220.128494 217.112079 
L 220.128494 217.112079 
L 220.128494 213.279683 
L 220.128494 213.279683 
L 220.128494 209.447287 
L 220.128494 209.447287 
L 220.128494 205.614891 
L 220.128494 205.614891 
L 220.128494 201.782495 
L 220.128494 201.782495 
L 220.128494 197.950099 
L 220.128494 197.950099 
L 220.128494 194.117703 
L 235.442405 194.117703 
L 235.442405 190.285307 
L 235.442405 190.285307 
L 235.442405 186.452911 
L 235.442405 186.452911 
L 235.442405 182.620515 
L 248.449803 182.620515 
L 248.449803 178.788119 
L 461.8 178.788119 
" style="fill:none;stroke:#f5deb3;stroke-linecap:square;stroke-width:1.5;"/>
   </g>
   <g id="line2d_13">
    <path clip-path="url(#p3d2e24126b)" d="M 427.419696 293.76 
L 427.419696 289.927604 
L 427.419696 289.927604 
L 427.419696 286.095208 
L 427.419696 286.095208 
L 427.419696 282.262812 
L 434.738405 282.262812 
L 434.738405 278.430416 
L 434.738405 278.430416 
L 434.738405 274.59802 
L 434.738405 274.59802 
L 434.738405 270.765624 
L 435.437357 270.765624 
L 435.437357 266.933228 
L 435.437357 266.933228 
L 435.437357 263.100832 
L 435.437357 263.100832 
L 435.437357 259.268436 
L 450.907914 259.268436 
L 450.907914 255.43604 
L 450.907914 255.43604 
L 450.907914 251.603644 
L 450.907914 251.603644 
L 450.907914 247.771248 
L 460.62672 247.771248 
L 460.62672 243.938851 
L 460.62672 243.938851 
L 460.62672 240.106455 
L 460.62672 240.106455 
L 460.62672 236.274059 
L 461.8 236.274059 
" style="fill:none;stroke:#f5deb3;stroke-linecap:square;stroke-width:1.5;"/>
   </g>
   <g id="line2d_14">
    <path clip-path="url(#p3d2e24126b)" d="M 230.632659 293.76 
L 230.632659 289.927604 
L 230.632659 289.927604 
L 230.632659 286.095208 
L 233.070937 286.095208 
L 233.070937 282.262812 
L 237.750626 282.262812 
L 237.750626 278.430416 
L 244.327446 278.430416 
L 244.327446 274.59802 
L 244.327446 274.59802 
L 244.327446 270.765624 
L 244.327446 270.765624 
L 244.327446 266.933228 
L 250.439619 266.933228 
L 250.439619 263.100832 
L 254.287059 263.100832 
L 254.287059 259.268436 
L 254.287059 259.268436 
L 254.287059 255.43604 
L 254.287059 255.43604 
L 254.287059 251.603644 
L 254.287059 251.603644 
L 254.287059 247.771248 
L 254.287059 247.771248 
L 254.287059 243.938851 
L 254.287059 243.938851 
L 254.287059 240.106455 
L 254.287059 240.106455 
L 254.287059 236.274059 
L 359.987034 236.274059 
L 359.987034 232.441663 
L 365.884576 232.441663 
L 365.884576 228.609267 
L 370.918154 228.609267 
L 370.918154 224.776871 
L 373.803526 224.776871 
L 373.803526 220.944475 
L 373.803526 220.944475 
L 373.803526 217.112079 
L 375.675019 217.112079 
L 375.675019 213.279683 
L 376.595806 213.279683 
L 376.595806 209.447287 
L 377.5069 209.447287 
L 377.5069 205.614891 
L 381.058297 205.614891 
L 381.058297 201.782495 
L 382.780804 201.782495 
L 382.780804 197.950099 
L 386.535506 197.950099 
L 386.535506 194.117703 
L 387.751729 194.117703 
L 387.751729 190.285307 
L 390.524836 190.285307 
L 390.524836 186.452911 
L 390.524836 186.452911 
L 390.524836 182.620515 
L 404.200602 182.620515 
L 404.200602 178.788119 
L 461.8 178.788119 
" style="fill:none;stroke:#f5deb3;stroke-linecap:square;stroke-width:1.5;"/>
   </g>
   <g id="line2d_15">
    <path clip-path="url(#p3d2e24126b)" style="fill:none;stroke:#f5deb3;stroke-linecap:square;stroke-width:1.5;"/>
   </g>
   <g id="line2d_16">
    <path clip-path="url(#p3d2e24126b)" d="M 0 0 
" style="fill:none;stroke:#f5deb3;stroke-linecap:square;stroke-width:1.5;"/>
   </g>
   <g id="line2d_17">
    <path clip-path="url(#p3d2e24126b)" d="M 338.709243 293.76 
L 338.709243 289.927604 
L 348.111844 289.927604 
L 348.111844 286.095208 
L 368.437951 286.095208 
L 368.437951 282.262812 
L 386.535506 282.262812 
L 386.535506 278.430416 
L 389.347224 278.430416 
L 389.347224 274.59802 
L 413.652145 274.59802 
L 413.652145 270.765624 
L 421.083711 270.765624 
L 421.083711 266.933228 
L 421.357181 266.933228 
L 421.357181 263.100832 
L 426.395387 263.100832 
L 426.395387 259.268436 
L 449.932107 259.268436 
L 449.932107 255.43604 
L 461.8 255.43604 
" style="fill:none;stroke:#f5deb3;stroke-linecap:square;stroke-width:1.5;"/>
   </g>
   <g id="line2d_18">
    <path clip-path="url(#p3d2e24126b)" d="M 137.98258 293.76 
L 137.98258 289.927604 
L 137.98258 289.927604 
L 137.98258 286.095208 
L 137.98258 286.095208 
L 137.98258 282.262812 
L 137.98258 282.262812 
L 137.98258 278.430416 
L 137.98258 278.430416 
L 137.98258 274.59802 
L 137.98258 274.59802 
L 137.98258 270.765624 
L 137.98258 270.765624 
L 137.98258 266.933228 
L 137.98258 266.933228 
L 137.98258 263.100832 
L 137.98258 263.100832 
L 137.98258 259.268436 
L 137.98258 259.268436 
L 137.98258 255.43604 
L 137.98258 255.43604 
L 137.98258 251.603644 
L 137.98258 251.603644 
L 137.98258 247.771248 
L 137.98258 247.771248 
L 137.98258 243.938851 
L 137.98258 243.938851 
L 137.98258 240.106455 
L 137.98258 240.106455 
L 137.98258 236.274059 
L 144.910528 236.274059 
L 144.910528 232.441663 
L 144.910528 232.441663 
L 144.910528 228.609267 
L 144.910528 228.609267 
L 144.910528 224.776871 
L 144.910528 224.776871 
L 144.910528 220.944475 
L 144.910528 220.944475 
L 144.910528 217.112079 
L 151.324807 217.112079 
L 151.324807 213.279683 
L 157.296358 213.279683 
L 157.296358 209.447287 
L 162.88237 209.447287 
L 162.88237 205.614891 
L 162.88237 205.614891 
L 162.88237 201.782495 
L 168.129622 201.782495 
L 168.129622 197.950099 
L 168.129622 197.950099 
L 168.129622 194.117703 
L 168.129622 194.117703 
L 168.129622 190.285307 
L 168.129622 190.285307 
L 168.129622 186.452911 
L 173.076863 186.452911 
L 173.076863 182.620515 
L 186.419091 182.620515 
L 186.419091 178.788119 
L 461.8 178.788119 
" style="fill:none;stroke:#f5deb3;stroke-linecap:square;stroke-width:1.5;"/>
   </g>
   <g id="line2d_19">
    <path clip-path="url(#p3d2e24126b)" d="M 0 0 
" style="fill:none;stroke:#f5deb3;stroke-linecap:square;stroke-width:1.5;"/>
   </g>
   <g id="line2d_20">
    <path clip-path="url(#p3d2e24126b)" d="M 157.296358 293.76 
L 157.296358 289.927604 
L 168.129622 289.927604 
L 168.129622 286.095208 
L 173.076863 286.095208 
L 173.076863 282.262812 
L 173.076863 282.262812 
L 173.076863 278.430416 
L 186.419091 278.430416 
L 186.419091 274.59802 
L 194.292985 274.59802 
L 194.292985 270.765624 
L 197.976654 270.765624 
L 197.976654 266.933228 
L 204.904602 266.933228 
L 204.904602 263.100832 
L 208.171147 263.100832 
L 208.171147 259.268436 
L 208.171147 259.268436 
L 208.171147 255.43604 
L 211.318881 255.43604 
L 211.318881 251.603644 
L 217.290432 251.603644 
L 217.290432 247.771248 
L 222.876444 247.771248 
L 222.876444 243.938851 
L 225.539828 243.938851 
L 225.539828 240.106455 
L 233.070937 240.106455 
L 233.070937 236.274059 
L 377.958876 236.274059 
L 377.958876 232.441663 
L 385.715091 232.441663 
L 385.715091 228.609267 
L 386.12627 228.609267 
L 386.12627 224.776871 
L 387.348217 224.776871 
L 387.348217 220.944475 
L 388.951099 220.944475 
L 388.951099 217.112079 
L 390.91384 217.112079 
L 390.91384 213.279683 
L 392.452603 213.279683 
L 392.452603 209.447287 
L 393.588985 209.447287 
L 393.588985 205.614891 
L 396.911262 205.614891 
L 396.911262 201.782495 
L 397.632543 201.782495 
L 397.632543 197.950099 
L 401.495596 197.950099 
L 401.495596 194.117703 
L 403.532235 194.117703 
L 403.532235 190.285307 
L 407.145984 190.285307 
L 407.145984 186.452911 
L 411.842606 186.452911 
L 411.842606 182.620515 
L 412.146835 182.620515 
L 412.146835 178.788119 
L 447.139828 178.788119 
L 447.139828 174.955723 
L 461.8 174.955723 
" style="fill:none;stroke:#f5deb3;stroke-linecap:square;stroke-width:1.5;"/>
   </g>
   <g id="line2d_21">
    <path clip-path="url(#p3d2e24126b)" d="M 0 0 
" style="fill:none;stroke:#f5deb3;stroke-linecap:square;stroke-width:1.5;"/>
   </g>
   <g id="line2d_22">
    <path clip-path="url(#p3d2e24126b)" d="M 173.076863 293.76 
L 173.076863 289.927604 
L 173.076863 289.927604 
L 173.076863 286.095208 
L 186.419091 286.095208 
L 186.419091 282.262812 
L 190.445545 282.262812 
L 190.445545 278.430416 
L 201.509926 278.430416 
L 201.509926 274.59802 
L 201.509926 274.59802 
L 201.509926 270.765624 
L 201.509926 270.765624 
L 201.509926 266.933228 
L 211.318881 266.933228 
L 211.318881 263.100832 
L 233.070937 263.100832 
L 233.070937 259.268436 
L 244.327446 259.268436 
L 244.327446 255.43604 
L 246.413165 255.43604 
L 246.413165 251.603644 
L 256.148489 251.603644 
L 256.148489 247.771248 
L 259.755392 247.771248 
L 259.755392 243.938851 
L 329.747471 243.938851 
L 329.747471 240.106455 
L 344.206528 240.106455 
L 344.206528 236.274059 
L 384.4697 236.274059 
L 384.4697 232.441663 
L 386.12627 232.441663 
L 386.12627 228.609267 
L 387.348217 228.609267 
L 387.348217 224.776871 
L 389.741545 224.776871 
L 389.741545 220.944475 
L 391.686641 220.944475 
L 391.686641 217.112079 
L 393.211846 217.112079 
L 393.211846 213.279683 
L 393.588985 213.279683 
L 393.588985 209.447287 
L 394.338367 209.447287 
L 394.338367 205.614891 
L 394.71064 205.614891 
L 394.71064 201.782495 
L 398.347862 201.782495 
L 398.347862 197.950099 
L 399.057318 197.950099 
L 399.057318 194.117703 
L 401.495596 194.117703 
L 401.495596 190.285307 
L 401.838381 190.285307 
L 401.838381 186.452911 
L 404.532861 186.452911 
L 404.532861 182.620515 
L 409.994426 182.620515 
L 409.994426 178.788119 
L 461.8 178.788119 
" style="fill:none;stroke:#f5deb3;stroke-linecap:square;stroke-width:1.5;"/>
   </g>
   <g id="line2d_23">
    <path clip-path="url(#p3d2e24126b)" d="M 303.259504 293.76 
L 303.259504 289.927604 
L 334.344293 289.927604 
L 334.344293 286.095208 
L 337.996867 286.095208 
L 337.996867 282.262812 
L 340.116642 282.262812 
L 340.116642 278.430416 
L 351.236846 278.430416 
L 351.236846 274.59802 
L 351.236846 274.59802 
L 351.236846 270.765624 
L 360.540091 270.765624 
L 360.540091 266.933228 
L 361.089637 266.933228 
L 361.089637 263.100832 
L 363.253578 263.100832 
L 363.253578 259.268436 
L 363.786215 259.268436 
L 363.786215 255.43604 
L 364.315594 255.43604 
L 364.315594 251.603644 
L 378.855808 251.603644 
L 378.855808 247.771248 
L 388.553153 247.771248 
L 388.553153 243.938851 
L 395.081318 243.938851 
L 395.081318 240.106455 
L 410.923449 240.106455 
L 410.923449 236.274059 
L 461.8 236.274059 
" style="fill:none;stroke:#f5deb3;stroke-linecap:square;stroke-width:1.5;"/>
   </g>
   <g id="line2d_24">
    <path clip-path="url(#p3d2e24126b)" d="M 382.780804 293.76 
L 382.780804 289.927604 
L 382.780804 289.927604 
L 382.780804 286.095208 
L 383.206128 286.095208 
L 383.206128 282.262812 
L 399.761006 282.262812 
L 399.761006 278.430416 
L 399.761006 278.430416 
L 399.761006 274.59802 
L 400.110716 274.59802 
L 400.110716 270.765624 
L 415.424627 270.765624 
L 415.424627 266.933228 
L 415.424627 266.933228 
L 415.424627 263.100832 
L 415.716543 263.100832 
L 415.716543 259.268436 
L 416.007479 259.268436 
L 416.007479 255.43604 
L 428.683268 255.43604 
L 428.683268 251.603644 
L 428.683268 251.603644 
L 428.683268 247.771248 
L 428.933784 247.771248 
L 428.933784 243.938851 
L 429.183577 243.938851 
L 429.183577 240.106455 
L 450.323751 240.106455 
L 450.323751 236.274059 
L 461.8 236.274059 
" style="fill:none;stroke:#f5deb3;stroke-linecap:square;stroke-width:1.5;"/>
   </g>
   <g id="line2d_25">
    <path clip-path="url(#p3d2e24126b)" d="M 324.056482 293.76 
L 324.056482 289.927604 
L 338.709243 289.927604 
L 338.709243 286.095208 
L 342.18574 286.095208 
L 342.18574 282.262812 
L 350.620807 282.262812 
L 350.620807 278.430416 
L 352.455925 278.430416 
L 352.455925 274.59802 
L 363.253578 274.59802 
L 363.253578 270.765624 
L 363.786215 270.765624 
L 363.786215 266.933228 
L 364.841754 266.933228 
L 364.841754 263.100832 
L 364.841754 263.100832 
L 364.841754 259.268436 
L 366.401313 259.268436 
L 366.401313 255.43604 
L 369.934585 255.43604 
L 369.934585 251.603644 
L 371.890672 251.603644 
L 371.890672 247.771248 
L 391.301103 247.771248 
L 391.301103 243.938851 
L 392.452603 243.938851 
L 392.452603 240.106455 
L 393.964487 240.106455 
L 393.964487 236.274059 
L 461.8 236.274059 
" style="fill:none;stroke:#f5deb3;stroke-linecap:square;stroke-width:1.5;"/>
   </g>
   <g id="line2d_26">
    <path clip-path="url(#p3d2e24126b)" d="M 0 0 
" style="fill:none;stroke:#f5deb3;stroke-linecap:square;stroke-width:1.5;"/>
   </g>
   <g id="line2d_27">
    <path clip-path="url(#p3d2e24126b)" d="M 356.013405 293.76 
L 356.013405 289.927604 
L 374.744331 289.927604 
L 374.744331 286.095208 
L 375.675019 286.095208 
L 375.675019 282.262812 
L 378.855808 282.262812 
L 378.855808 278.430416 
L 388.553153 278.430416 
L 388.553153 274.59802 
L 388.553153 274.59802 
L 388.553153 270.765624 
L 389.741545 270.765624 
L 389.741545 266.933228 
L 395.817945 266.933228 
L 395.817945 263.100832 
L 410.923449 263.100832 
L 410.923449 259.268436 
L 415.424627 259.268436 
L 415.424627 255.43604 
L 422.442501 255.43604 
L 422.442501 251.603644 
L 426.652603 251.603644 
L 426.652603 247.771248 
L 429.183577 247.771248 
L 429.183577 243.938851 
L 444.04463 243.938851 
L 444.04463 240.106455 
L 461.8 240.106455 
" style="fill:none;stroke:#f5deb3;stroke-linecap:square;stroke-width:1.5;"/>
   </g>
   <g id="line2d_28">
    <path clip-path="url(#p3d2e24126b)" d="M 252.384715 293.76 
L 252.384715 289.927604 
L 285.533902 289.927604 
L 285.533902 286.095208 
L 308.443877 286.095208 
L 308.443877 282.262812 
L 308.443877 282.262812 
L 308.443877 278.430416 
L 310.433693 278.430416 
L 310.433693 274.59802 
L 319.749466 274.59802 
L 319.749466 270.765624 
L 327.354143 270.765624 
L 327.354143 266.933228 
L 327.354143 266.933228 
L 327.354143 263.100832 
L 328.159295 263.100832 
L 328.159295 259.268436 
L 342.864592 259.268436 
L 342.864592 255.43604 
L 343.538161 255.43604 
L 343.538161 251.603644 
L 343.538161 251.603644 
L 343.538161 247.771248 
L 356.592358 247.771248 
L 356.592358 243.938851 
L 376.136637 243.938851 
L 376.136637 240.106455 
L 386.942815 240.106455 
L 386.942815 236.274059 
L 461.8 236.274059 
" style="fill:none;stroke:#f5deb3;stroke-linecap:square;stroke-width:1.5;"/>
   </g>
   <g id="line2d_29">
    <path clip-path="url(#p3d2e24126b)" d="M 122.202074 293.76 
L 122.202074 289.927604 
L 122.202074 289.927604 
L 122.202074 286.095208 
L 122.202074 286.095208 
L 122.202074 282.262812 
L 122.202074 282.262812 
L 122.202074 278.430416 
L 122.202074 278.430416 
L 122.202074 274.59802 
L 122.202074 274.59802 
L 122.202074 270.765624 
L 122.202074 270.765624 
L 122.202074 266.933228 
L 122.202074 266.933228 
L 122.202074 263.100832 
L 122.202074 263.100832 
L 122.202074 259.268436 
L 122.202074 259.268436 
L 122.202074 255.43604 
L 122.202074 255.43604 
L 122.202074 251.603644 
L 122.202074 251.603644 
L 122.202074 247.771248 
L 122.202074 247.771248 
L 122.202074 243.938851 
L 122.202074 243.938851 
L 122.202074 240.106455 
L 122.202074 240.106455 
L 122.202074 236.274059 
L 162.88237 236.274059 
L 162.88237 232.441663 
L 162.88237 232.441663 
L 162.88237 228.609267 
L 162.88237 228.609267 
L 162.88237 224.776871 
L 168.129622 224.776871 
L 168.129622 220.944475 
L 168.129622 220.944475 
L 168.129622 217.112079 
L 168.129622 217.112079 
L 168.129622 213.279683 
L 168.129622 213.279683 
L 168.129622 209.447287 
L 168.129622 209.447287 
L 168.129622 205.614891 
L 168.129622 205.614891 
L 168.129622 201.782495 
L 268.165221 201.782495 
L 268.165221 197.950099 
L 268.165221 197.950099 
L 268.165221 194.117703 
L 268.165221 194.117703 
L 268.165221 190.285307 
L 269.753397 190.285307 
L 269.753397 186.452911 
L 269.753397 186.452911 
L 269.753397 182.620515 
L 269.753397 182.620515 
L 269.753397 178.788119 
L 461.8 178.788119 
" style="fill:none;stroke:#f5deb3;stroke-linecap:square;stroke-width:1.5;"/>
   </g>
   <g id="line2d_30">
    <path clip-path="url(#p3d2e24126b)" d="M 244.327446 293.76 
L 244.327446 289.927604 
L 252.384715 289.927604 
L 252.384715 286.095208 
L 290.626733 286.095208 
L 290.626733 282.262812 
L 291.854458 282.262812 
L 291.854458 278.430416 
L 298.87613 278.430416 
L 298.87613 274.59802 
L 303.259504 274.59802 
L 303.259504 270.765624 
L 305.370662 270.765624 
L 305.370662 266.933228 
L 305.370662 266.933228 
L 305.370662 263.100832 
L 306.407239 263.100832 
L 306.407239 259.268436 
L 306.407239 259.268436 
L 306.407239 255.43604 
L 306.407239 255.43604 
L 306.407239 251.603644 
L 310.433693 251.603644 
L 310.433693 247.771248 
L 311.411705 247.771248 
L 311.411705 243.938851 
L 312.378789 243.938851 
L 312.378789 240.106455 
L 312.378789 240.106455 
L 312.378789 236.274059 
L 312.378789 236.274059 
L 312.378789 232.441663 
L 313.335187 232.441663 
L 313.335187 228.609267 
L 314.281133 228.609267 
L 314.281133 224.776871 
L 314.281133 224.776871 
L 314.281133 220.944475 
L 315.216852 220.944475 
L 315.216852 217.112079 
L 317.058478 217.112079 
L 317.058478 213.279683 
L 317.964802 213.279683 
L 317.964802 209.447287 
L 318.861734 209.447287 
L 318.861734 205.614891 
L 323.212054 205.614891 
L 323.212054 201.782495 
L 324.89275 201.782495 
L 324.89275 197.950099 
L 326.541432 197.950099 
L 326.541432 194.117703 
L 326.541432 194.117703 
L 326.541432 190.285307 
L 328.159295 190.285307 
L 328.159295 186.452911 
L 328.957025 186.452911 
L 328.957025 182.620515 
L 336.554281 182.620515 
L 336.554281 178.788119 
L 351.848532 178.788119 
L 351.848532 174.955723 
L 351.848532 174.955723 
L 351.848532 171.123327 
L 351.848532 171.123327 
L 351.848532 167.290931 
L 351.848532 167.290931 
L 351.848532 163.458535 
L 351.848532 163.458535 
L 351.848532 159.626139 
L 351.848532 159.626139 
L 351.848532 155.793743 
L 351.848532 155.793743 
L 351.848532 151.961347 
L 351.848532 151.961347 
L 351.848532 148.12895 
L 351.848532 148.12895 
L 351.848532 144.296554 
L 351.848532 144.296554 
L 351.848532 140.464158 
L 351.848532 140.464158 
L 351.848532 136.631762 
L 351.848532 136.631762 
L 351.848532 132.799366 
L 351.848532 132.799366 
L 351.848532 128.96697 
L 351.848532 128.96697 
L 351.848532 125.134574 
L 351.848532 125.134574 
L 351.848532 121.302178 
L 351.848532 121.302178 
L 351.848532 121.302178 
L 460.8 121.302178 
" style="fill:none;stroke:#f5deb3;stroke-linecap:square;stroke-width:1.5;"/>
   </g>
   <g id="matplotlib.axis_1">
    <g id="xtick_1">
     <g id="line2d_31">
      <path clip-path="url(#p3d2e24126b)" d="M 261.504 293.76 
L 261.504 3.456 
" style="fill:none;stroke:#b0b0b0;stroke-linecap:square;stroke-width:0.8;"/>
     </g>
     <g id="line2d_32">
      <defs>
       <path d="M 0 0 
L 0 3.5 
" id="m6fcc50e91a" style="stroke:#000000;stroke-width:0.8;"/>
      </defs>
      <g>
       <use style="stroke:#000000;stroke-width:0.8;" x="261.504" xlink:href="#m6fcc50e91a" y="293.76"/>
      </g>
     </g>
     <g id="text_1">
      <!-- 1 -->
      <defs>
       <path d="M 12.40625 8.296875 
L 28.515625 8.296875 
L 28.515625 63.921875 
L 10.984375 60.40625 
L 10.984375 69.390625 
L 28.421875 72.90625 
L 38.28125 72.90625 
L 38.28125 8.296875 
L 54.390625 8.296875 
L 54.390625 0 
L 12.40625 0 
z
" id="DejaVuSans-49"/>
      </defs>
      <g transform="translate(255.1415 315.956875)scale(0.2 -0.2)">
       <use xlink:href="#DejaVuSans-49"/>
      </g>
     </g>
    </g>
    <g id="xtick_2">
     <g id="line2d_33">
      <path clip-path="url(#p3d2e24126b)" d="M 122.202074 293.76 
L 122.202074 3.456 
" style="fill:none;stroke:#b0b0b0;stroke-linecap:square;stroke-width:0.8;"/>
     </g>
     <g id="line2d_34">
      <defs>
       <path d="M 0 0 
L 0 2 
" id="m736da3f20e" style="stroke:#000000;stroke-width:0.6;"/>
      </defs>
      <g>
       <use style="stroke:#000000;stroke-width:0.6;" x="122.202074" xlink:href="#m736da3f20e" y="293.76"/>
      </g>
     </g>
    </g>
    <g id="xtick_3">
     <g id="line2d_35">
      <path clip-path="url(#p3d2e24126b)" d="M 157.296358 293.76 
L 157.296358 3.456 
" style="fill:none;stroke:#b0b0b0;stroke-linecap:square;stroke-width:0.8;"/>
     </g>
     <g id="line2d_36">
      <g>
       <use style="stroke:#000000;stroke-width:0.6;" x="157.296358" xlink:href="#m736da3f20e" y="293.76"/>
      </g>
     </g>
    </g>
    <g id="xtick_4">
     <g id="line2d_37">
      <path clip-path="url(#p3d2e24126b)" d="M 182.196148 293.76 
L 182.196148 3.456 
" style="fill:none;stroke:#b0b0b0;stroke-linecap:square;stroke-width:0.8;"/>
     </g>
     <g id="line2d_38">
      <g>
       <use style="stroke:#000000;stroke-width:0.6;" x="182.196148" xlink:href="#m736da3f20e" y="293.76"/>
      </g>
     </g>
    </g>
    <g id="xtick_5">
     <g id="line2d_39">
      <path clip-path="url(#p3d2e24126b)" d="M 201.509926 293.76 
L 201.509926 3.456 
" style="fill:none;stroke:#b0b0b0;stroke-linecap:square;stroke-width:0.8;"/>
     </g>
     <g id="line2d_40">
      <g>
       <use style="stroke:#000000;stroke-width:0.6;" x="201.509926" xlink:href="#m736da3f20e" y="293.76"/>
      </g>
     </g>
    </g>
    <g id="xtick_6">
     <g id="line2d_41">
      <path clip-path="url(#p3d2e24126b)" d="M 217.290432 293.76 
L 217.290432 3.456 
" style="fill:none;stroke:#b0b0b0;stroke-linecap:square;stroke-width:0.8;"/>
     </g>
     <g id="line2d_42">
      <g>
       <use style="stroke:#000000;stroke-width:0.6;" x="217.290432" xlink:href="#m736da3f20e" y="293.76"/>
      </g>
     </g>
    </g>
    <g id="xtick_7">
     <g id="line2d_43">
      <path clip-path="url(#p3d2e24126b)" d="M 230.632659 293.76 
L 230.632659 3.456 
" style="fill:none;stroke:#b0b0b0;stroke-linecap:square;stroke-width:0.8;"/>
     </g>
     <g id="line2d_44">
      <g>
       <use style="stroke:#000000;stroke-width:0.6;" x="230.632659" xlink:href="#m736da3f20e" y="293.76"/>
      </g>
     </g>
    </g>
    <g id="xtick_8">
     <g id="line2d_45">
      <path clip-path="url(#p3d2e24126b)" d="M 242.190222 293.76 
L 242.190222 3.456 
" style="fill:none;stroke:#b0b0b0;stroke-linecap:square;stroke-width:0.8;"/>
     </g>
     <g id="line2d_46">
      <g>
       <use style="stroke:#000000;stroke-width:0.6;" x="242.190222" xlink:href="#m736da3f20e" y="293.76"/>
      </g>
     </g>
    </g>
    <g id="xtick_9">
     <g id="line2d_47">
      <path clip-path="url(#p3d2e24126b)" d="M 252.384715 293.76 
L 252.384715 3.456 
" style="fill:none;stroke:#b0b0b0;stroke-linecap:square;stroke-width:0.8;"/>
     </g>
     <g id="line2d_48">
      <g>
       <use style="stroke:#000000;stroke-width:0.6;" x="252.384715" xlink:href="#m736da3f20e" y="293.76"/>
      </g>
     </g>
    </g>
    <g id="xtick_10">
     <g id="line2d_49">
      <path clip-path="url(#p3d2e24126b)" d="M 321.498074 293.76 
L 321.498074 3.456 
" style="fill:none;stroke:#b0b0b0;stroke-linecap:square;stroke-width:0.8;"/>
     </g>
     <g id="line2d_50">
      <g>
       <use style="stroke:#000000;stroke-width:0.6;" x="321.498074" xlink:href="#m736da3f20e" y="293.76"/>
      </g>
     </g>
    </g>
    <g id="xtick_11">
     <g id="line2d_51">
      <path clip-path="url(#p3d2e24126b)" d="M 356.592358 293.76 
L 356.592358 3.456 
" style="fill:none;stroke:#b0b0b0;stroke-linecap:square;stroke-width:0.8;"/>
     </g>
     <g id="line2d_52">
      <g>
       <use style="stroke:#000000;stroke-width:0.6;" x="356.592358" xlink:href="#m736da3f20e" y="293.76"/>
      </g>
     </g>
    </g>
    <g id="xtick_12">
     <g id="line2d_53">
      <path clip-path="url(#p3d2e24126b)" d="M 381.492148 293.76 
L 381.492148 3.456 
" style="fill:none;stroke:#b0b0b0;stroke-linecap:square;stroke-width:0.8;"/>
     </g>
     <g id="line2d_54">
      <g>
       <use style="stroke:#000000;stroke-width:0.6;" x="381.492148" xlink:href="#m736da3f20e" y="293.76"/>
      </g>
     </g>
    </g>
    <g id="xtick_13">
     <g id="line2d_55">
      <path clip-path="url(#p3d2e24126b)" d="M 400.805926 293.76 
L 400.805926 3.456 
" style="fill:none;stroke:#b0b0b0;stroke-linecap:square;stroke-width:0.8;"/>
     </g>
     <g id="line2d_56">
      <g>
       <use style="stroke:#000000;stroke-width:0.6;" x="400.805926" xlink:href="#m736da3f20e" y="293.76"/>
      </g>
     </g>
    </g>
    <g id="xtick_14">
     <g id="line2d_57">
      <path clip-path="url(#p3d2e24126b)" d="M 416.586432 293.76 
L 416.586432 3.456 
" style="fill:none;stroke:#b0b0b0;stroke-linecap:square;stroke-width:0.8;"/>
     </g>
     <g id="line2d_58">
      <g>
       <use style="stroke:#000000;stroke-width:0.6;" x="416.586432" xlink:href="#m736da3f20e" y="293.76"/>
      </g>
     </g>
    </g>
    <g id="xtick_15">
     <g id="line2d_59">
      <path clip-path="url(#p3d2e24126b)" d="M 429.928659 293.76 
L 429.928659 3.456 
" style="fill:none;stroke:#b0b0b0;stroke-linecap:square;stroke-width:0.8;"/>
     </g>
     <g id="line2d_60">
      <g>
       <use style="stroke:#000000;stroke-width:0.6;" x="429.928659" xlink:href="#m736da3f20e" y="293.76"/>
      </g>
     </g>
    </g>
    <g id="xtick_16">
     <g id="line2d_61">
      <path clip-path="url(#p3d2e24126b)" d="M 441.486222 293.76 
L 441.486222 3.456 
" style="fill:none;stroke:#b0b0b0;stroke-linecap:square;stroke-width:0.8;"/>
     </g>
     <g id="line2d_62">
      <g>
       <use style="stroke:#000000;stroke-width:0.6;" x="441.486222" xlink:href="#m736da3f20e" y="293.76"/>
      </g>
     </g>
    </g>
    <g id="xtick_17">
     <g id="line2d_63">
      <path clip-path="url(#p3d2e24126b)" d="M 451.680715 293.76 
L 451.680715 3.456 
" style="fill:none;stroke:#b0b0b0;stroke-linecap:square;stroke-width:0.8;"/>
     </g>
     <g id="line2d_64">
      <g>
       <use style="stroke:#000000;stroke-width:0.6;" x="451.680715" xlink:href="#m736da3f20e" y="293.76"/>
      </g>
     </g>
    </g>
    <g id="text_2">
     <!-- log10 of FEvals / DIM -->
     <defs>
      <path d="M 9.421875 75.984375 
L 18.40625 75.984375 
L 18.40625 0 
L 9.421875 0 
z
" id="DejaVuSans-108"/>
      <path d="M 30.609375 48.390625 
Q 23.390625 48.390625 19.1875 42.75 
Q 14.984375 37.109375 14.984375 27.296875 
Q 14.984375 17.484375 19.15625 11.84375 
Q 23.34375 6.203125 30.609375 6.203125 
Q 37.796875 6.203125 41.984375 11.859375 
Q 46.1875 17.53125 46.1875 27.296875 
Q 46.1875 37.015625 41.984375 42.703125 
Q 37.796875 48.390625 30.609375 48.390625 
z
M 30.609375 56 
Q 42.328125 56 49.015625 48.375 
Q 55.71875 40.765625 55.71875 27.296875 
Q 55.71875 13.875 49.015625 6.21875 
Q 42.328125 -1.421875 30.609375 -1.421875 
Q 18.84375 -1.421875 12.171875 6.21875 
Q 5.515625 13.875 5.515625 27.296875 
Q 5.515625 40.765625 12.171875 48.375 
Q 18.84375 56 30.609375 56 
z
" id="DejaVuSans-111"/>
      <path d="M 45.40625 27.984375 
Q 45.40625 37.75 41.375 43.109375 
Q 37.359375 48.484375 30.078125 48.484375 
Q 22.859375 48.484375 18.828125 43.109375 
Q 14.796875 37.75 14.796875 27.984375 
Q 14.796875 18.265625 18.828125 12.890625 
Q 22.859375 7.515625 30.078125 7.515625 
Q 37.359375 7.515625 41.375 12.890625 
Q 45.40625 18.265625 45.40625 27.984375 
z
M 54.390625 6.78125 
Q 54.390625 -7.171875 48.1875 -13.984375 
Q 42 -20.796875 29.203125 -20.796875 
Q 24.46875 -20.796875 20.265625 -20.09375 
Q 16.0625 -19.390625 12.109375 -17.921875 
L 12.109375 -9.1875 
Q 16.0625 -11.328125 19.921875 -12.34375 
Q 23.78125 -13.375 27.78125 -13.375 
Q 36.625 -13.375 41.015625 -8.765625 
Q 45.40625 -4.15625 45.40625 5.171875 
L 45.40625 9.625 
Q 42.625 4.78125 38.28125 2.390625 
Q 33.9375 0 27.875 0 
Q 17.828125 0 11.671875 7.65625 
Q 5.515625 15.328125 5.515625 27.984375 
Q 5.515625 40.671875 11.671875 48.328125 
Q 17.828125 56 27.875 56 
Q 33.9375 56 38.28125 53.609375 
Q 42.625 51.21875 45.40625 46.390625 
L 45.40625 54.6875 
L 54.390625 54.6875 
z
" id="DejaVuSans-103"/>
      <path d="M 31.78125 66.40625 
Q 24.171875 66.40625 20.328125 58.90625 
Q 16.5 51.421875 16.5 36.375 
Q 16.5 21.390625 20.328125 13.890625 
Q 24.171875 6.390625 31.78125 6.390625 
Q 39.453125 6.390625 43.28125 13.890625 
Q 47.125 21.390625 47.125 36.375 
Q 47.125 51.421875 43.28125 58.90625 
Q 39.453125 66.40625 31.78125 66.40625 
z
M 31.78125 74.21875 
Q 44.046875 74.21875 50.515625 64.515625 
Q 56.984375 54.828125 56.984375 36.375 
Q 56.984375 17.96875 50.515625 8.265625 
Q 44.046875 -1.421875 31.78125 -1.421875 
Q 19.53125 -1.421875 13.0625 8.265625 
Q 6.59375 17.96875 6.59375 36.375 
Q 6.59375 54.828125 13.0625 64.515625 
Q 19.53125 74.21875 31.78125 74.21875 
z
" id="DejaVuSans-48"/>
      <path id="DejaVuSans-32"/>
      <path d="M 37.109375 75.984375 
L 37.109375 68.5 
L 28.515625 68.5 
Q 23.6875 68.5 21.796875 66.546875 
Q 19.921875 64.59375 19.921875 59.515625 
L 19.921875 54.6875 
L 34.71875 54.6875 
L 34.71875 47.703125 
L 19.921875 47.703125 
L 19.921875 0 
L 10.890625 0 
L 10.890625 47.703125 
L 2.296875 47.703125 
L 2.296875 54.6875 
L 10.890625 54.6875 
L 10.890625 58.5 
Q 10.890625 67.625 15.140625 71.796875 
Q 19.390625 75.984375 28.609375 75.984375 
z
" id="DejaVuSans-102"/>
      <path d="M 9.8125 72.90625 
L 51.703125 72.90625 
L 51.703125 64.59375 
L 19.671875 64.59375 
L 19.671875 43.109375 
L 48.578125 43.109375 
L 48.578125 34.8125 
L 19.671875 34.8125 
L 19.671875 0 
L 9.8125 0 
z
" id="DejaVuSans-70"/>
      <path d="M 9.8125 72.90625 
L 55.90625 72.90625 
L 55.90625 64.59375 
L 19.671875 64.59375 
L 19.671875 43.015625 
L 54.390625 43.015625 
L 54.390625 34.71875 
L 19.671875 34.71875 
L 19.671875 8.296875 
L 56.78125 8.296875 
L 56.78125 0 
L 9.8125 0 
z
" id="DejaVuSans-69"/>
      <path d="M 2.984375 54.6875 
L 12.5 54.6875 
L 29.59375 8.796875 
L 46.6875 54.6875 
L 56.203125 54.6875 
L 35.6875 0 
L 23.484375 0 
z
" id="DejaVuSans-118"/>
      <path d="M 34.28125 27.484375 
Q 23.390625 27.484375 19.1875 25 
Q 14.984375 22.515625 14.984375 16.5 
Q 14.984375 11.71875 18.140625 8.90625 
Q 21.296875 6.109375 26.703125 6.109375 
Q 34.1875 6.109375 38.703125 11.40625 
Q 43.21875 16.703125 43.21875 25.484375 
L 43.21875 27.484375 
z
M 52.203125 31.203125 
L 52.203125 0 
L 43.21875 0 
L 43.21875 8.296875 
Q 40.140625 3.328125 35.546875 0.953125 
Q 30.953125 -1.421875 24.3125 -1.421875 
Q 15.921875 -1.421875 10.953125 3.296875 
Q 6 8.015625 6 15.921875 
Q 6 25.140625 12.171875 29.828125 
Q 18.359375 34.515625 30.609375 34.515625 
L 43.21875 34.515625 
L 43.21875 35.40625 
Q 43.21875 41.609375 39.140625 45 
Q 35.0625 48.390625 27.6875 48.390625 
Q 23 48.390625 18.546875 47.265625 
Q 14.109375 46.140625 10.015625 43.890625 
L 10.015625 52.203125 
Q 14.9375 54.109375 19.578125 55.046875 
Q 24.21875 56 28.609375 56 
Q 40.484375 56 46.34375 49.84375 
Q 52.203125 43.703125 52.203125 31.203125 
z
" id="DejaVuSans-97"/>
      <path d="M 44.28125 53.078125 
L 44.28125 44.578125 
Q 40.484375 46.53125 36.375 47.5 
Q 32.28125 48.484375 27.875 48.484375 
Q 21.1875 48.484375 17.84375 46.4375 
Q 14.5 44.390625 14.5 40.28125 
Q 14.5 37.15625 16.890625 35.375 
Q 19.28125 33.59375 26.515625 31.984375 
L 29.59375 31.296875 
Q 39.15625 29.25 43.1875 25.515625 
Q 47.21875 21.78125 47.21875 15.09375 
Q 47.21875 7.46875 41.1875 3.015625 
Q 35.15625 -1.421875 24.609375 -1.421875 
Q 20.21875 -1.421875 15.453125 -0.5625 
Q 10.6875 0.296875 5.421875 2 
L 5.421875 11.28125 
Q 10.40625 8.6875 15.234375 7.390625 
Q 20.0625 6.109375 24.8125 6.109375 
Q 31.15625 6.109375 34.5625 8.28125 
Q 37.984375 10.453125 37.984375 14.40625 
Q 37.984375 18.0625 35.515625 20.015625 
Q 33.0625 21.96875 24.703125 23.78125 
L 21.578125 24.515625 
Q 13.234375 26.265625 9.515625 29.90625 
Q 5.8125 33.546875 5.8125 39.890625 
Q 5.8125 47.609375 11.28125 51.796875 
Q 16.75 56 26.8125 56 
Q 31.78125 56 36.171875 55.265625 
Q 40.578125 54.546875 44.28125 53.078125 
z
" id="DejaVuSans-115"/>
      <path d="M 25.390625 72.90625 
L 33.6875 72.90625 
L 8.296875 -9.28125 
L 0 -9.28125 
z
" id="DejaVuSans-47"/>
      <path d="M 19.671875 64.796875 
L 19.671875 8.109375 
L 31.59375 8.109375 
Q 46.6875 8.109375 53.6875 14.9375 
Q 60.6875 21.78125 60.6875 36.53125 
Q 60.6875 51.171875 53.6875 57.984375 
Q 46.6875 64.796875 31.59375 64.796875 
z
M 9.8125 72.90625 
L 30.078125 72.90625 
Q 51.265625 72.90625 61.171875 64.09375 
Q 71.09375 55.28125 71.09375 36.53125 
Q 71.09375 17.671875 61.125 8.828125 
Q 51.171875 0 30.078125 0 
L 9.8125 0 
z
" id="DejaVuSans-68"/>
      <path d="M 9.8125 72.90625 
L 19.671875 72.90625 
L 19.671875 0 
L 9.8125 0 
z
" id="DejaVuSans-73"/>
      <path d="M 9.8125 72.90625 
L 24.515625 72.90625 
L 43.109375 23.296875 
L 61.8125 72.90625 
L 76.515625 72.90625 
L 76.515625 0 
L 66.890625 0 
L 66.890625 64.015625 
L 48.09375 14.015625 
L 38.1875 14.015625 
L 19.390625 64.015625 
L 19.390625 0 
L 9.8125 0 
z
" id="DejaVuSans-77"/>
     </defs>
     <g transform="translate(156.430563 339.313125)scale(0.2 -0.2)">
      <use xlink:href="#DejaVuSans-108"/>
      <use x="27.783203" xlink:href="#DejaVuSans-111"/>
      <use x="88.964844" xlink:href="#DejaVuSans-103"/>
      <use x="152.441406" xlink:href="#DejaVuSans-49"/>
      <use x="216.064453" xlink:href="#DejaVuSans-48"/>
      <use x="279.6875" xlink:href="#DejaVuSans-32"/>
      <use x="311.474609" xlink:href="#DejaVuSans-111"/>
      <use x="372.65625" xlink:href="#DejaVuSans-102"/>
      <use x="407.861328" xlink:href="#DejaVuSans-32"/>
      <use x="439.648438" xlink:href="#DejaVuSans-70"/>
      <use x="497.167969" xlink:href="#DejaVuSans-69"/>
      <use x="560.351562" xlink:href="#DejaVuSans-118"/>
      <use x="619.53125" xlink:href="#DejaVuSans-97"/>
      <use x="680.810547" xlink:href="#DejaVuSans-108"/>
      <use x="708.59375" xlink:href="#DejaVuSans-115"/>
      <use x="760.693359" xlink:href="#DejaVuSans-32"/>
      <use x="792.480469" xlink:href="#DejaVuSans-47"/>
      <use x="826.171875" xlink:href="#DejaVuSans-32"/>
      <use x="857.958984" xlink:href="#DejaVuSans-68"/>
      <use x="934.960938" xlink:href="#DejaVuSans-73"/>
      <use x="964.453125" xlink:href="#DejaVuSans-77"/>
     </g>
    </g>
   </g>
   <g id="matplotlib.axis_2">
    <g id="ytick_1">
     <g id="line2d_65">
      <path clip-path="url(#p3d2e24126b)" d="M 62.208 293.76 
L 460.8 293.76 
" style="fill:none;stroke:#b0b0b0;stroke-linecap:square;stroke-width:0.8;"/>
     </g>
     <g id="line2d_66">
      <defs>
       <path d="M 0 0 
L -3.5 0 
" id="mbd1580bd45" style="stroke:#000000;stroke-width:0.8;"/>
      </defs>
      <g>
       <use style="stroke:#000000;stroke-width:0.8;" x="62.208" xlink:href="#mbd1580bd45" y="293.76"/>
      </g>
     </g>
     <g id="text_3">
      <!-- 0.0 -->
      <defs>
       <path d="M 10.6875 12.40625 
L 21 12.40625 
L 21 0 
L 10.6875 0 
z
" id="DejaVuSans-46"/>
      </defs>
      <g transform="translate(29.763 299.83875)scale(0.16 -0.16)">
       <use xlink:href="#DejaVuSans-48"/>
       <use x="63.623047" xlink:href="#DejaVuSans-46"/>
       <use x="95.410156" xlink:href="#DejaVuSans-48"/>
      </g>
     </g>
    </g>
    <g id="ytick_2">
     <g id="line2d_67">
      <path clip-path="url(#p3d2e24126b)" d="M 62.208 236.274059 
L 460.8 236.274059 
" style="fill:none;stroke:#b0b0b0;stroke-linecap:square;stroke-width:0.8;"/>
     </g>
     <g id="line2d_68">
      <g>
       <use style="stroke:#000000;stroke-width:0.8;" x="62.208" xlink:href="#mbd1580bd45" y="236.274059"/>
      </g>
     </g>
     <g id="text_4">
      <!-- 0.2 -->
      <defs>
       <path d="M 19.1875 8.296875 
L 53.609375 8.296875 
L 53.609375 0 
L 7.328125 0 
L 7.328125 8.296875 
Q 12.9375 14.109375 22.625 23.890625 
Q 32.328125 33.6875 34.8125 36.53125 
Q 39.546875 41.84375 41.421875 45.53125 
Q 43.3125 49.21875 43.3125 52.78125 
Q 43.3125 58.59375 39.234375 62.25 
Q 35.15625 65.921875 28.609375 65.921875 
Q 23.96875 65.921875 18.8125 64.3125 
Q 13.671875 62.703125 7.8125 59.421875 
L 7.8125 69.390625 
Q 13.765625 71.78125 18.9375 73 
Q 24.125 74.21875 28.421875 74.21875 
Q 39.75 74.21875 46.484375 68.546875 
Q 53.21875 62.890625 53.21875 53.421875 
Q 53.21875 48.921875 51.53125 44.890625 
Q 49.859375 40.875 45.40625 35.40625 
Q 44.1875 33.984375 37.640625 27.21875 
Q 31.109375 20.453125 19.1875 8.296875 
z
" id="DejaVuSans-50"/>
      </defs>
      <g transform="translate(29.763 242.352809)scale(0.16 -0.16)">
       <use xlink:href="#DejaVuSans-48"/>
       <use x="63.623047" xlink:href="#DejaVuSans-46"/>
       <use x="95.410156" xlink:href="#DejaVuSans-50"/>
      </g>
     </g>
    </g>
    <g id="ytick_3">
     <g id="line2d_69">
      <path clip-path="url(#p3d2e24126b)" d="M 62.208 178.788119 
L 460.8 178.788119 
" style="fill:none;stroke:#b0b0b0;stroke-linecap:square;stroke-width:0.8;"/>
     </g>
     <g id="line2d_70">
      <g>
       <use style="stroke:#000000;stroke-width:0.8;" x="62.208" xlink:href="#mbd1580bd45" y="178.788119"/>
      </g>
     </g>
     <g id="text_5">
      <!-- 0.4 -->
      <defs>
       <path d="M 37.796875 64.3125 
L 12.890625 25.390625 
L 37.796875 25.390625 
z
M 35.203125 72.90625 
L 47.609375 72.90625 
L 47.609375 25.390625 
L 58.015625 25.390625 
L 58.015625 17.1875 
L 47.609375 17.1875 
L 47.609375 0 
L 37.796875 0 
L 37.796875 17.1875 
L 4.890625 17.1875 
L 4.890625 26.703125 
z
" id="DejaVuSans-52"/>
      </defs>
      <g transform="translate(29.763 184.866869)scale(0.16 -0.16)">
       <use xlink:href="#DejaVuSans-48"/>
       <use x="63.623047" xlink:href="#DejaVuSans-46"/>
       <use x="95.410156" xlink:href="#DejaVuSans-52"/>
      </g>
     </g>
    </g>
    <g id="ytick_4">
     <g id="line2d_71">
      <path clip-path="url(#p3d2e24126b)" d="M 62.208 121.302178 
L 460.8 121.302178 
" style="fill:none;stroke:#b0b0b0;stroke-linecap:square;stroke-width:0.8;"/>
     </g>
     <g id="line2d_72">
      <g>
       <use style="stroke:#000000;stroke-width:0.8;" x="62.208" xlink:href="#mbd1580bd45" y="121.302178"/>
      </g>
     </g>
     <g id="text_6">
      <!-- 0.6 -->
      <defs>
       <path d="M 33.015625 40.375 
Q 26.375 40.375 22.484375 35.828125 
Q 18.609375 31.296875 18.609375 23.390625 
Q 18.609375 15.53125 22.484375 10.953125 
Q 26.375 6.390625 33.015625 6.390625 
Q 39.65625 6.390625 43.53125 10.953125 
Q 47.40625 15.53125 47.40625 23.390625 
Q 47.40625 31.296875 43.53125 35.828125 
Q 39.65625 40.375 33.015625 40.375 
z
M 52.59375 71.296875 
L 52.59375 62.3125 
Q 48.875 64.0625 45.09375 64.984375 
Q 41.3125 65.921875 37.59375 65.921875 
Q 27.828125 65.921875 22.671875 59.328125 
Q 17.53125 52.734375 16.796875 39.40625 
Q 19.671875 43.65625 24.015625 45.921875 
Q 28.375 48.1875 33.59375 48.1875 
Q 44.578125 48.1875 50.953125 41.515625 
Q 57.328125 34.859375 57.328125 23.390625 
Q 57.328125 12.15625 50.6875 5.359375 
Q 44.046875 -1.421875 33.015625 -1.421875 
Q 20.359375 -1.421875 13.671875 8.265625 
Q 6.984375 17.96875 6.984375 36.375 
Q 6.984375 53.65625 15.1875 63.9375 
Q 23.390625 74.21875 37.203125 74.21875 
Q 40.921875 74.21875 44.703125 73.484375 
Q 48.484375 72.75 52.59375 71.296875 
z
" id="DejaVuSans-54"/>
      </defs>
      <g transform="translate(29.763 127.380928)scale(0.16 -0.16)">
       <use xlink:href="#DejaVuSans-48"/>
       <use x="63.623047" xlink:href="#DejaVuSans-46"/>
       <use x="95.410156" xlink:href="#DejaVuSans-54"/>
      </g>
     </g>
    </g>
    <g id="ytick_5">
     <g id="line2d_73">
      <path clip-path="url(#p3d2e24126b)" d="M 62.208 63.816238 
L 460.8 63.816238 
" style="fill:none;stroke:#b0b0b0;stroke-linecap:square;stroke-width:0.8;"/>
     </g>
     <g id="line2d_74">
      <g>
       <use style="stroke:#000000;stroke-width:0.8;" x="62.208" xlink:href="#mbd1580bd45" y="63.816238"/>
      </g>
     </g>
     <g id="text_7">
      <!-- 0.8 -->
      <defs>
       <path d="M 31.78125 34.625 
Q 24.75 34.625 20.71875 30.859375 
Q 16.703125 27.09375 16.703125 20.515625 
Q 16.703125 13.921875 20.71875 10.15625 
Q 24.75 6.390625 31.78125 6.390625 
Q 38.8125 6.390625 42.859375 10.171875 
Q 46.921875 13.96875 46.921875 20.515625 
Q 46.921875 27.09375 42.890625 30.859375 
Q 38.875 34.625 31.78125 34.625 
z
M 21.921875 38.8125 
Q 15.578125 40.375 12.03125 44.71875 
Q 8.5 49.078125 8.5 55.328125 
Q 8.5 64.0625 14.71875 69.140625 
Q 20.953125 74.21875 31.78125 74.21875 
Q 42.671875 74.21875 48.875 69.140625 
Q 55.078125 64.0625 55.078125 55.328125 
Q 55.078125 49.078125 51.53125 44.71875 
Q 48 40.375 41.703125 38.8125 
Q 48.828125 37.15625 52.796875 32.3125 
Q 56.78125 27.484375 56.78125 20.515625 
Q 56.78125 9.90625 50.3125 4.234375 
Q 43.84375 -1.421875 31.78125 -1.421875 
Q 19.734375 -1.421875 13.25 4.234375 
Q 6.78125 9.90625 6.78125 20.515625 
Q 6.78125 27.484375 10.78125 32.3125 
Q 14.796875 37.15625 21.921875 38.8125 
z
M 18.3125 54.390625 
Q 18.3125 48.734375 21.84375 45.5625 
Q 25.390625 42.390625 31.78125 42.390625 
Q 38.140625 42.390625 41.71875 45.5625 
Q 45.3125 48.734375 45.3125 54.390625 
Q 45.3125 60.0625 41.71875 63.234375 
Q 38.140625 66.40625 31.78125 66.40625 
Q 25.390625 66.40625 21.84375 63.234375 
Q 18.3125 60.0625 18.3125 54.390625 
z
" id="DejaVuSans-56"/>
      </defs>
      <g transform="translate(29.763 69.894988)scale(0.16 -0.16)">
       <use xlink:href="#DejaVuSans-48"/>
       <use x="63.623047" xlink:href="#DejaVuSans-46"/>
       <use x="95.410156" xlink:href="#DejaVuSans-56"/>
      </g>
     </g>
    </g>
    <g id="ytick_6">
     <g id="line2d_75">
      <path clip-path="url(#p3d2e24126b)" d="M 62.208 6.330297 
L 460.8 6.330297 
" style="fill:none;stroke:#b0b0b0;stroke-linecap:square;stroke-width:0.8;"/>
     </g>
     <g id="line2d_76">
      <g>
       <use style="stroke:#000000;stroke-width:0.8;" x="62.208" xlink:href="#mbd1580bd45" y="6.330297"/>
      </g>
     </g>
     <g id="text_8">
      <!-- 1.0 -->
      <g transform="translate(29.763 12.409047)scale(0.16 -0.16)">
       <use xlink:href="#DejaVuSans-49"/>
       <use x="63.623047" xlink:href="#DejaVuSans-46"/>
       <use x="95.410156" xlink:href="#DejaVuSans-48"/>
      </g>
     </g>
    </g>
    <g id="text_9">
     <!-- proportion of trials -->
     <defs>
      <path d="M 18.109375 8.203125 
L 18.109375 -20.796875 
L 9.078125 -20.796875 
L 9.078125 54.6875 
L 18.109375 54.6875 
L 18.109375 46.390625 
Q 20.953125 51.265625 25.265625 53.625 
Q 29.59375 56 35.59375 56 
Q 45.5625 56 51.78125 48.09375 
Q 58.015625 40.1875 58.015625 27.296875 
Q 58.015625 14.40625 51.78125 6.484375 
Q 45.5625 -1.421875 35.59375 -1.421875 
Q 29.59375 -1.421875 25.265625 0.953125 
Q 20.953125 3.328125 18.109375 8.203125 
z
M 48.6875 27.296875 
Q 48.6875 37.203125 44.609375 42.84375 
Q 40.53125 48.484375 33.40625 48.484375 
Q 26.265625 48.484375 22.1875 42.84375 
Q 18.109375 37.203125 18.109375 27.296875 
Q 18.109375 17.390625 22.1875 11.75 
Q 26.265625 6.109375 33.40625 6.109375 
Q 40.53125 6.109375 44.609375 11.75 
Q 48.6875 17.390625 48.6875 27.296875 
z
" id="DejaVuSans-112"/>
      <path d="M 41.109375 46.296875 
Q 39.59375 47.171875 37.8125 47.578125 
Q 36.03125 48 33.890625 48 
Q 26.265625 48 22.1875 43.046875 
Q 18.109375 38.09375 18.109375 28.8125 
L 18.109375 0 
L 9.078125 0 
L 9.078125 54.6875 
L 18.109375 54.6875 
L 18.109375 46.1875 
Q 20.953125 51.171875 25.484375 53.578125 
Q 30.03125 56 36.53125 56 
Q 37.453125 56 38.578125 55.875 
Q 39.703125 55.765625 41.0625 55.515625 
z
" id="DejaVuSans-114"/>
      <path d="M 18.3125 70.21875 
L 18.3125 54.6875 
L 36.8125 54.6875 
L 36.8125 47.703125 
L 18.3125 47.703125 
L 18.3125 18.015625 
Q 18.3125 11.328125 20.140625 9.421875 
Q 21.96875 7.515625 27.59375 7.515625 
L 36.8125 7.515625 
L 36.8125 0 
L 27.59375 0 
Q 17.1875 0 13.234375 3.875 
Q 9.28125 7.765625 9.28125 18.015625 
L 9.28125 47.703125 
L 2.6875 47.703125 
L 2.6875 54.6875 
L 9.28125 54.6875 
L 9.28125 70.21875 
z
" id="DejaVuSans-116"/>
      <path d="M 9.421875 54.6875 
L 18.40625 54.6875 
L 18.40625 0 
L 9.421875 0 
z
M 9.421875 75.984375 
L 18.40625 75.984375 
L 18.40625 64.59375 
L 9.421875 64.59375 
z
" id="DejaVuSans-105"/>
      <path d="M 54.890625 33.015625 
L 54.890625 0 
L 45.90625 0 
L 45.90625 32.71875 
Q 45.90625 40.484375 42.875 44.328125 
Q 39.84375 48.1875 33.796875 48.1875 
Q 26.515625 48.1875 22.3125 43.546875 
Q 18.109375 38.921875 18.109375 30.90625 
L 18.109375 0 
L 9.078125 0 
L 9.078125 54.6875 
L 18.109375 54.6875 
L 18.109375 46.1875 
Q 21.34375 51.125 25.703125 53.5625 
Q 30.078125 56 35.796875 56 
Q 45.21875 56 50.046875 50.171875 
Q 54.890625 44.34375 54.890625 33.015625 
z
" id="DejaVuSans-110"/>
     </defs>
     <g transform="translate(21.603625 241.836125)rotate(-90)scale(0.2 -0.2)">
      <use xlink:href="#DejaVuSans-112"/>
      <use x="63.476562" xlink:href="#DejaVuSans-114"/>
      <use x="104.558594" xlink:href="#DejaVuSans-111"/>
      <use x="165.740234" xlink:href="#DejaVuSans-112"/>
      <use x="229.216797" xlink:href="#DejaVuSans-111"/>
      <use x="290.398438" xlink:href="#DejaVuSans-114"/>
      <use x="331.511719" xlink:href="#DejaVuSans-116"/>
      <use x="370.720703" xlink:href="#DejaVuSans-105"/>
      <use x="398.503906" xlink:href="#DejaVuSans-111"/>
      <use x="459.685547" xlink:href="#DejaVuSans-110"/>
      <use x="523.064453" xlink:href="#DejaVuSans-32"/>
      <use x="554.851562" xlink:href="#DejaVuSans-111"/>
      <use x="616.033203" xlink:href="#DejaVuSans-102"/>
      <use x="651.238281" xlink:href="#DejaVuSans-32"/>
      <use x="683.025391" xlink:href="#DejaVuSans-116"/>
      <use x="722.234375" xlink:href="#DejaVuSans-114"/>
      <use x="763.347656" xlink:href="#DejaVuSans-105"/>
      <use x="791.130859" xlink:href="#DejaVuSans-97"/>
      <use x="852.410156" xlink:href="#DejaVuSans-108"/>
      <use x="880.193359" xlink:href="#DejaVuSans-115"/>
     </g>
    </g>
   </g>
   <g id="line2d_77">
    <path clip-path="url(#p3d2e24126b)" d="M -1 289.927604 
L 113.082789 289.927604 
L 113.082789 286.095208 
L 144.910528 286.095208 
L 144.910528 282.262812 
L 211.318881 282.262812 
L 211.318881 278.430416 
L 242.190222 278.430416 
L 242.190222 274.59802 
L 259.755392 274.59802 
L 259.755392 270.765624 
L 326.541432 270.765624 
L 326.541432 266.933228 
L 326.541432 266.933228 
L 326.541432 266.933228 
L 460.8 266.933228 
" style="fill:none;stroke:#000000;stroke-linecap:square;stroke-width:1.5;"/>
   </g>
   <g id="line2d_78">
    <path clip-path="url(#p3d2e24126b)" style="fill:none;stroke:#000000;stroke-linecap:square;stroke-width:1.5;"/>
   </g>
   <g id="line2d_79"/>
   <g id="line2d_80"/>
   <g id="line2d_81"/>
   <g id="line2d_82">
    <path clip-path="url(#p3d2e24126b)" d="M 460.8 293.76 
L 460.8 3.456 
" style="fill:none;stroke:#000000;stroke-linecap:square;stroke-width:1.5;"/>
   </g>
   <g id="patch_3">
    <path d="M 62.208 293.76 
L 62.208 3.456 
" style="fill:none;stroke:#000000;stroke-linecap:square;stroke-linejoin:miter;stroke-width:0.8;"/>
   </g>
   <g id="patch_4">
    <path d="M 460.8 293.76 
L 460.8 3.456 
" style="fill:none;stroke:#000000;stroke-linecap:square;stroke-linejoin:miter;stroke-width:0.8;"/>
   </g>
   <g id="patch_5">
    <path d="M 62.208 293.76 
L 460.8 293.76 
" style="fill:none;stroke:#000000;stroke-linecap:square;stroke-linejoin:miter;stroke-width:0.8;"/>
   </g>
   <g id="patch_6">
    <path d="M 62.208 3.456 
L 460.8 3.456 
" style="fill:none;stroke:#000000;stroke-linecap:square;stroke-linejoin:miter;stroke-width:0.8;"/>
   </g>
   <g id="text_10">
    <!-- {f1-f5}, 5-D -->
    <defs>
     <path d="M 51.125 -9.28125 
L 51.125 -16.3125 
L 48.09375 -16.3125 
Q 35.9375 -16.3125 31.8125 -12.6875 
Q 27.6875 -9.078125 27.6875 1.703125 
L 27.6875 13.375 
Q 27.6875 20.75 25.046875 23.578125 
Q 22.40625 26.421875 15.484375 26.421875 
L 12.5 26.421875 
L 12.5 33.40625 
L 15.484375 33.40625 
Q 22.46875 33.40625 25.078125 36.203125 
Q 27.6875 39.015625 27.6875 46.296875 
L 27.6875 58.015625 
Q 27.6875 68.796875 31.8125 72.390625 
Q 35.9375 75.984375 48.09375 75.984375 
L 51.125 75.984375 
L 51.125 69 
L 47.796875 69 
Q 40.921875 69 38.8125 66.84375 
Q 36.71875 64.703125 36.71875 57.8125 
L 36.71875 45.703125 
Q 36.71875 38.03125 34.5 34.5625 
Q 32.28125 31.109375 26.90625 29.890625 
Q 32.328125 28.5625 34.515625 25.09375 
Q 36.71875 21.625 36.71875 14.015625 
L 36.71875 1.90625 
Q 36.71875 -4.984375 38.8125 -7.125 
Q 40.921875 -9.28125 47.796875 -9.28125 
z
" id="DejaVuSans-123"/>
     <path d="M 4.890625 31.390625 
L 31.203125 31.390625 
L 31.203125 23.390625 
L 4.890625 23.390625 
z
" id="DejaVuSans-45"/>
     <path d="M 10.796875 72.90625 
L 49.515625 72.90625 
L 49.515625 64.59375 
L 19.828125 64.59375 
L 19.828125 46.734375 
Q 21.96875 47.46875 24.109375 47.828125 
Q 26.265625 48.1875 28.421875 48.1875 
Q 40.625 48.1875 47.75 41.5 
Q 54.890625 34.8125 54.890625 23.390625 
Q 54.890625 11.625 47.5625 5.09375 
Q 40.234375 -1.421875 26.90625 -1.421875 
Q 22.3125 -1.421875 17.546875 -0.640625 
Q 12.796875 0.140625 7.71875 1.703125 
L 7.71875 11.625 
Q 12.109375 9.234375 16.796875 8.0625 
Q 21.484375 6.890625 26.703125 6.890625 
Q 35.15625 6.890625 40.078125 11.328125 
Q 45.015625 15.765625 45.015625 23.390625 
Q 45.015625 31 40.078125 35.4375 
Q 35.15625 39.890625 26.703125 39.890625 
Q 22.75 39.890625 18.8125 39.015625 
Q 14.890625 38.140625 10.796875 36.28125 
z
" id="DejaVuSans-53"/>
     <path d="M 12.5 -9.28125 
L 15.921875 -9.28125 
Q 22.75 -9.28125 24.828125 -7.171875 
Q 26.90625 -5.078125 26.90625 1.90625 
L 26.90625 14.015625 
Q 26.90625 21.625 29.09375 25.09375 
Q 31.296875 28.5625 36.71875 29.890625 
Q 31.296875 31.109375 29.09375 34.5625 
Q 26.90625 38.03125 26.90625 45.703125 
L 26.90625 57.8125 
Q 26.90625 64.75 24.828125 66.875 
Q 22.75 69 15.921875 69 
L 12.5 69 
L 12.5 75.984375 
L 15.578125 75.984375 
Q 27.734375 75.984375 31.8125 72.390625 
Q 35.890625 68.796875 35.890625 58.015625 
L 35.890625 46.296875 
Q 35.890625 39.015625 38.515625 36.203125 
Q 41.15625 33.40625 48.09375 33.40625 
L 51.125 33.40625 
L 51.125 26.421875 
L 48.09375 26.421875 
Q 41.15625 26.421875 38.515625 23.578125 
Q 35.890625 20.75 35.890625 13.375 
L 35.890625 1.703125 
Q 35.890625 -9.078125 31.8125 -12.6875 
Q 27.734375 -16.3125 15.578125 -16.3125 
L 12.5 -16.3125 
z
" id="DejaVuSans-125"/>
     <path d="M 11.71875 12.40625 
L 22.015625 12.40625 
L 22.015625 4 
L 14.015625 -11.625 
L 7.71875 -11.625 
L 11.71875 4 
z
" id="DejaVuSans-44"/>
    </defs>
    <g transform="translate(201.379 24.458955)scale(0.2 -0.2)">
     <use xlink:href="#DejaVuSans-123"/>
     <use x="63.623047" xlink:href="#DejaVuSans-102"/>
     <use x="98.828125" xlink:href="#DejaVuSans-49"/>
     <use x="162.451172" xlink:href="#DejaVuSans-45"/>
     <use x="198.535156" xlink:href="#DejaVuSans-102"/>
     <use x="233.740234" xlink:href="#DejaVuSans-53"/>
     <use x="297.363281" xlink:href="#DejaVuSans-125"/>
     <use x="360.986328" xlink:href="#DejaVuSans-44"/>
     <use x="392.773438" xlink:href="#DejaVuSans-32"/>
     <use x="424.560547" xlink:href="#DejaVuSans-53"/>
     <use x="488.183594" xlink:href="#DejaVuSans-45"/>
     <use x="524.267578" xlink:href="#DejaVuSans-68"/>
    </g>
   </g>
   <g id="text_11">
    <!-- absolute targets -->
    <defs>
     <path d="M 48.6875 27.296875 
Q 48.6875 37.203125 44.609375 42.84375 
Q 40.53125 48.484375 33.40625 48.484375 
Q 26.265625 48.484375 22.1875 42.84375 
Q 18.109375 37.203125 18.109375 27.296875 
Q 18.109375 17.390625 22.1875 11.75 
Q 26.265625 6.109375 33.40625 6.109375 
Q 40.53125 6.109375 44.609375 11.75 
Q 48.6875 17.390625 48.6875 27.296875 
z
M 18.109375 46.390625 
Q 20.953125 51.265625 25.265625 53.625 
Q 29.59375 56 35.59375 56 
Q 45.5625 56 51.78125 48.09375 
Q 58.015625 40.1875 58.015625 27.296875 
Q 58.015625 14.40625 51.78125 6.484375 
Q 45.5625 -1.421875 35.59375 -1.421875 
Q 29.59375 -1.421875 25.265625 0.953125 
Q 20.953125 3.328125 18.109375 8.203125 
L 18.109375 0 
L 9.078125 0 
L 9.078125 75.984375 
L 18.109375 75.984375 
z
" id="DejaVuSans-98"/>
     <path d="M 8.5 21.578125 
L 8.5 54.6875 
L 17.484375 54.6875 
L 17.484375 21.921875 
Q 17.484375 14.15625 20.5 10.265625 
Q 23.53125 6.390625 29.59375 6.390625 
Q 36.859375 6.390625 41.078125 11.03125 
Q 45.3125 15.671875 45.3125 23.6875 
L 45.3125 54.6875 
L 54.296875 54.6875 
L 54.296875 0 
L 45.3125 0 
L 45.3125 8.40625 
Q 42.046875 3.421875 37.71875 1 
Q 33.40625 -1.421875 27.6875 -1.421875 
Q 18.265625 -1.421875 13.375 4.4375 
Q 8.5 10.296875 8.5 21.578125 
z
M 31.109375 56 
z
" id="DejaVuSans-117"/>
     <path d="M 56.203125 29.59375 
L 56.203125 25.203125 
L 14.890625 25.203125 
Q 15.484375 15.921875 20.484375 11.0625 
Q 25.484375 6.203125 34.421875 6.203125 
Q 39.59375 6.203125 44.453125 7.46875 
Q 49.3125 8.734375 54.109375 11.28125 
L 54.109375 2.78125 
Q 49.265625 0.734375 44.1875 -0.34375 
Q 39.109375 -1.421875 33.890625 -1.421875 
Q 20.796875 -1.421875 13.15625 6.1875 
Q 5.515625 13.8125 5.515625 26.8125 
Q 5.515625 40.234375 12.765625 48.109375 
Q 20.015625 56 32.328125 56 
Q 43.359375 56 49.78125 48.890625 
Q 56.203125 41.796875 56.203125 29.59375 
z
M 47.21875 32.234375 
Q 47.125 39.59375 43.09375 43.984375 
Q 39.0625 48.390625 32.421875 48.390625 
Q 24.90625 48.390625 20.390625 44.140625 
Q 15.875 39.890625 15.1875 32.171875 
z
" id="DejaVuSans-101"/>
    </defs>
    <g transform="translate(62.208 609.932673)scale(0.14 -0.14)">
     <use xlink:href="#DejaVuSans-97"/>
     <use x="61.279297" xlink:href="#DejaVuSans-98"/>
     <use x="124.755859" xlink:href="#DejaVuSans-115"/>
     <use x="176.855469" xlink:href="#DejaVuSans-111"/>
     <use x="238.037109" xlink:href="#DejaVuSans-108"/>
     <use x="265.820312" xlink:href="#DejaVuSans-117"/>
     <use x="329.199219" xlink:href="#DejaVuSans-116"/>
     <use x="368.408203" xlink:href="#DejaVuSans-101"/>
     <use x="429.931641" xlink:href="#DejaVuSans-32"/>
     <use x="461.71875" xlink:href="#DejaVuSans-116"/>
     <use x="500.927734" xlink:href="#DejaVuSans-97"/>
     <use x="562.207031" xlink:href="#DejaVuSans-114"/>
     <use x="603.304688" xlink:href="#DejaVuSans-103"/>
     <use x="666.78125" xlink:href="#DejaVuSans-101"/>
     <use x="728.304688" xlink:href="#DejaVuSans-116"/>
     <use x="767.513672" xlink:href="#DejaVuSans-115"/>
    </g>
   </g>
   <g id="text_12">
    <!-- v2.4 -->
    <g style="fill:#808080;" transform="translate(250.593063 288.777272)scale(0.1 -0.1)">
     <use xlink:href="#DejaVuSans-118"/>
     <use x="59.179688" xlink:href="#DejaVuSans-50"/>
     <use x="122.802734" xlink:href="#DejaVuSans-46"/>
     <use x="154.589844" xlink:href="#DejaVuSans-52"/>
    </g>
   </g>
   <g id="legend_1">
    <g id="patch_7">
     <path d="M 76.208 136.881 
L 205.429875 136.881 
Q 209.429875 136.881 209.429875 132.881 
L 209.429875 17.456 
Q 209.429875 13.456 205.429875 13.456 
L 76.208 13.456 
Q 72.208 13.456 72.208 17.456 
L 72.208 132.881 
Q 72.208 136.881 76.208 136.881 
z
" style="fill:#ffffff;opacity:0.2;stroke:#cccccc;stroke-linejoin:miter;"/>
    </g>
    <g id="line2d_83">
     <path d="M 80.208 29.652875 
L 120.208 29.652875 
" style="fill:none;stroke:#000000;stroke-linecap:square;stroke-width:1.5;"/>
    </g>
    <g id="line2d_84"/>
    <g id="text_13">
     <!-- 1: 1/5 -->
     <defs>
      <path d="M 11.71875 12.40625 
L 22.015625 12.40625 
L 22.015625 0 
L 11.71875 0 
z
M 11.71875 51.703125 
L 22.015625 51.703125 
L 22.015625 39.3125 
L 11.71875 39.3125 
z
" id="DejaVuSans-58"/>
     </defs>
     <g transform="translate(136.208 36.652875)scale(0.2 -0.2)">
      <use xlink:href="#DejaVuSans-49"/>
      <use x="63.623047" xlink:href="#DejaVuSans-58"/>
      <use x="97.314453" xlink:href="#DejaVuSans-32"/>
      <use x="129.101562" xlink:href="#DejaVuSans-49"/>
      <use x="192.724609" xlink:href="#DejaVuSans-47"/>
      <use x="226.416016" xlink:href="#DejaVuSans-53"/>
     </g>
    </g>
    <g id="line2d_85">
     <path d="M 80.208 59.009125 
L 120.208 59.009125 
" style="fill:none;stroke:#00bfbf;stroke-linecap:square;stroke-width:1.5;"/>
    </g>
    <g id="line2d_86"/>
    <g id="text_14">
     <!-- -1: 0/5 -->
     <g transform="translate(136.208 66.009125)scale(0.2 -0.2)">
      <use xlink:href="#DejaVuSans-45"/>
      <use x="36.083984" xlink:href="#DejaVuSans-49"/>
      <use x="99.707031" xlink:href="#DejaVuSans-58"/>
      <use x="133.398438" xlink:href="#DejaVuSans-32"/>
      <use x="165.185547" xlink:href="#DejaVuSans-48"/>
      <use x="228.808594" xlink:href="#DejaVuSans-47"/>
      <use x="262.5" xlink:href="#DejaVuSans-53"/>
     </g>
    </g>
    <g id="line2d_87">
     <path d="M 80.208 88.365375 
L 120.208 88.365375 
" style="fill:none;stroke:#bf00bf;stroke-linecap:square;stroke-width:1.5;"/>
    </g>
    <g id="line2d_88"/>
    <g id="text_15">
     <!-- -4: 0/5 -->
     <g transform="translate(136.208 95.365375)scale(0.2 -0.2)">
      <use xlink:href="#DejaVuSans-45"/>
      <use x="36.083984" xlink:href="#DejaVuSans-52"/>
      <use x="99.707031" xlink:href="#DejaVuSans-58"/>
      <use x="133.398438" xlink:href="#DejaVuSans-32"/>
      <use x="165.185547" xlink:href="#DejaVuSans-48"/>
      <use x="228.808594" xlink:href="#DejaVuSans-47"/>
      <use x="262.5" xlink:href="#DejaVuSans-53"/>
     </g>
    </g>
    <g id="line2d_89">
     <path d="M 80.208 117.721625 
L 120.208 117.721625 
" style="fill:none;stroke:#ff0000;stroke-linecap:square;stroke-width:3;"/>
    </g>
    <g id="line2d_90"/>
    <g id="text_16">
     <!-- -8: 0/5 -->
     <g transform="translate(136.208 124.721625)scale(0.2 -0.2)">
      <use xlink:href="#DejaVuSans-45"/>
      <use x="36.083984" xlink:href="#DejaVuSans-56"/>
      <use x="99.707031" xlink:href="#DejaVuSans-58"/>
      <use x="133.398438" xlink:href="#DejaVuSans-32"/>
      <use x="165.185547" xlink:href="#DejaVuSans-48"/>
      <use x="228.808594" xlink:href="#DejaVuSans-47"/>
      <use x="262.5" xlink:href="#DejaVuSans-53"/>
     </g>
    </g>
   </g>
  </g>
 </g>
 <defs>
  <clipPath id="p3d2e24126b">
   <rect height="290.304" width="398.592" x="62.208" y="3.456"/>
  </clipPath>
 </defs>
</svg>
