<?xml version="1.0" encoding="utf-8" standalone="no"?>
<!DOCTYPE svg PUBLIC "-//W3C//DTD SVG 1.1//EN"
  "http://www.w3.org/Graphics/SVG/1.1/DTD/svg11.dtd">
<!-- Created with matplotlib (https://matplotlib.org/) -->
<svg height="345.6pt" version="1.1" viewBox="0 0 460.8 345.6" width="460.8pt" xmlns="http://www.w3.org/2000/svg" xmlns:xlink="http://www.w3.org/1999/xlink">
 <defs>
  <style type="text/css">
*{stroke-linecap:butt;stroke-linejoin:round;}
  </style>
 </defs>
 <g id="figure_1">
  <g id="patch_1">
   <path d="M 0 345.6 
L 460.8 345.6 
L 460.8 0 
L 0 0 
z
" style="fill:#ffffff;"/>
  </g>
  <g id="axes_1">
   <g id="patch_2">
    <path d="M 62.208 293.76 
L 460.8 293.76 
L 460.8 3.456 
L 62.208 3.456 
z
" style="fill:#ffffff;"/>
   </g>
   <g id="line2d_1">
    <path clip-path="url(#pd071fb19e7)" d="M 422.711718 293.76 
L 422.711718 292.163168 
L 423.247652 292.163168 
L 423.247652 289.767921 
L 423.51438 289.767921 
L 423.51438 288.171089 
L 424.309668 288.171089 
L 424.309668 287.372673 
L 426.652603 287.372673 
L 426.652603 285.775842 
L 428.180051 285.775842 
L 428.180051 284.977426 
L 428.933784 284.977426 
L 428.933784 284.17901 
L 431.642639 284.17901 
L 431.642639 283.380594 
L 434.738405 283.380594 
L 434.738405 282.582178 
L 437.274098 282.582178 
L 437.274098 281.783762 
L 441.486222 281.783762 
L 441.486222 280.985347 
L 449.538683 280.985347 
L 449.538683 280.186931 
L 452.064544 280.186931 
L 452.064544 279.388515 
L 455.075392 279.388515 
L 455.075392 278.590099 
L 455.444489 278.590099 
L 455.444489 277.791683 
L 456.177994 277.791683 
L 456.177994 276.993267 
L 456.542429 276.993267 
L 456.542429 276.194851 
L 458.519846 276.194851 
L 458.519846 275.396436 
L 459.051392 275.396436 
L 459.051392 273.799604 
L 459.403951 273.799604 
L 459.403951 273.001188 
L 460.279117 273.001188 
L 460.279117 272.202772 
L 460.453093 272.202772 
L 460.453093 271.404356 
L 461.48967 271.404356 
L 461.48967 269.807525 
L 461.8 269.807525 
L 461.8 269.807525 
" style="fill:none;stroke:#f5deb3;stroke-linecap:square;stroke-width:1.5;"/>
   </g>
   <g id="line2d_2">
    <path clip-path="url(#pd071fb19e7)" d="M 345.527976 293.76 
L 345.527976 291.364752 
L 345.527976 291.364752 
L 345.527976 288.969505 
L 346.181211 288.969505 
L 346.181211 286.574257 
L 346.181211 286.574257 
L 346.181211 284.17901 
L 346.181211 284.17901 
L 346.181211 281.783762 
L 461.8 281.783762 
" style="fill:none;stroke:#f5deb3;stroke-linecap:square;stroke-width:1.5;"/>
   </g>
   <g id="line2d_3">
    <path clip-path="url(#pd071fb19e7)" d="M 190.445545 293.76 
L 190.445545 278.590099 
L 194.292985 278.590099 
L 194.292985 276.194851 
L 197.976654 276.194851 
L 197.976654 274.59802 
L 201.509926 274.59802 
L 201.509926 272.202772 
L 204.904602 272.202772 
L 204.904602 271.404356 
L 208.171147 271.404356 
L 208.171147 270.605941 
L 222.876444 270.605941 
L 222.876444 269.807525 
L 290.626733 269.807525 
L 290.626733 269.009109 
L 293.065011 269.009109 
L 293.065011 268.210693 
L 315.216852 268.210693 
L 315.216852 267.412277 
L 316.142563 267.412277 
L 316.142563 266.613861 
L 356.013405 266.613861 
L 356.013405 265.815446 
L 366.401313 265.815446 
L 366.401313 265.01703 
L 397.990941 265.01703 
L 397.990941 264.218614 
L 398.347862 264.218614 
L 398.347862 263.420198 
L 400.110716 263.420198 
L 400.110716 262.621782 
L 404.532861 262.621782 
L 404.532861 261.823366 
L 407.467147 261.823366 
L 407.467147 261.02495 
L 410.614881 261.02495 
L 410.614881 260.226535 
L 414.247015 260.226535 
L 414.247015 259.428119 
L 416.297439 259.428119 
L 416.297439 258.629703 
L 416.874462 258.629703 
L 416.874462 257.831287 
L 417.447664 257.831287 
L 417.447664 257.032871 
L 419.703249 257.032871 
L 419.703249 256.234455 
L 421.083711 256.234455 
L 421.083711 255.43604 
L 424.309668 255.43604 
L 424.309668 254.637624 
L 427.164753 254.637624 
L 427.164753 253.040792 
L 434.269281 253.040792 
L 434.269281 252.242376 
L 434.738405 252.242376 
L 434.738405 251.44396 
L 437.046626 251.44396 
L 437.046626 250.645545 
L 440.397489 250.645545 
L 440.397489 249.847129 
L 443.834294 249.847129 
L 443.834294 249.048713 
L 448.147443 249.048713 
L 448.147443 248.250297 
L 451.488161 248.250297 
L 451.488161 247.451881 
L 453.394695 247.451881 
L 453.394695 246.653465 
L 453.958561 246.653465 
L 453.958561 245.85505 
L 454.332441 245.85505 
L 454.332441 244.258218 
L 455.444489 244.258218 
L 455.444489 243.459802 
L 456.542429 243.459802 
L 456.542429 242.661386 
L 458.697391 242.661386 
L 458.697391 241.86297 
L 461.8 241.86297 
L 461.8 241.86297 
" style="fill:none;stroke:#f5deb3;stroke-linecap:square;stroke-width:1.5;"/>
   </g>
   <g id="line2d_4">
    <path clip-path="url(#pd071fb19e7)" d="M 137.98258 293.76 
L 137.98258 292.961584 
L 173.076863 292.961584 
L 173.076863 292.163168 
L 194.292985 292.163168 
L 194.292985 291.364752 
L 197.976654 291.364752 
L 197.976654 290.566337 
L 208.171147 290.566337 
L 208.171147 289.767921 
L 217.290432 289.767921 
L 217.290432 288.969505 
L 222.876444 288.969505 
L 222.876444 288.171089 
L 225.539828 288.171089 
L 225.539828 285.775842 
L 233.070937 285.775842 
L 233.070937 284.977426 
L 239.998886 284.977426 
L 239.998886 284.17901 
L 242.190222 284.17901 
L 242.190222 283.380594 
L 248.449803 283.380594 
L 248.449803 282.582178 
L 261.504 282.582178 
L 261.504 281.783762 
L 421.083711 281.783762 
L 421.083711 280.985347 
L 422.9801 280.985347 
L 422.9801 280.186931 
L 437.500974 280.186931 
L 437.500974 279.388515 
L 442.347455 279.388515 
L 442.347455 278.590099 
L 445.296022 278.590099 
L 445.296022 277.791683 
L 446.325204 277.791683 
L 446.325204 276.993267 
L 446.52958 276.993267 
L 446.52958 276.194851 
L 447.139828 276.194851 
L 447.139828 275.396436 
L 447.544283 275.396436 
L 447.544283 274.59802 
L 448.746429 274.59802 
L 448.746429 273.799604 
L 449.143462 273.799604 
L 449.143462 273.001188 
L 449.932107 273.001188 
L 449.932107 272.202772 
L 451.872842 272.202772 
L 451.872842 271.404356 
L 456.177994 271.404356 
L 456.177994 270.605941 
L 456.542429 270.605941 
L 456.542429 269.807525 
L 457.985015 269.807525 
L 457.985015 269.009109 
L 461.8 269.009109 
L 461.8 269.009109 
" style="fill:none;stroke:#f5deb3;stroke-linecap:square;stroke-width:1.5;"/>
   </g>
   <g id="line2d_5">
    <path clip-path="url(#pd071fb19e7)" d="M 447.745803 293.76 
L 447.745803 292.961584 
L 461.8 292.961584 
" style="fill:none;stroke:#f5deb3;stroke-linecap:square;stroke-width:1.5;"/>
   </g>
   <g id="line2d_6"/>
   <g id="line2d_7">
    <path clip-path="url(#pd071fb19e7)" d="M 339.415803 293.76 
L 339.415803 292.961584 
L 342.18574 292.961584 
L 342.18574 292.163168 
L 348.745936 292.163168 
L 348.745936 291.364752 
L 351.848532 291.364752 
L 351.848532 290.566337 
L 353.658071 290.566337 
L 353.658071 289.767921 
L 357.738774 289.767921 
L 357.738774 288.171089 
L 358.870204 288.171089 
L 358.870204 287.372673 
L 359.43042 287.372673 
L 359.43042 286.574257 
L 360.540091 286.574257 
L 360.540091 285.775842 
L 363.786215 285.775842 
L 363.786215 284.977426 
L 365.884576 284.977426 
L 365.884576 284.17901 
L 366.401313 284.17901 
L 366.401313 283.380594 
L 367.933267 283.380594 
L 367.933267 282.582178 
L 373.803526 282.582178 
L 373.803526 281.783762 
L 461.8 281.783762 
L 461.8 281.783762 
" style="fill:none;stroke:#f5deb3;stroke-linecap:square;stroke-width:1.5;"/>
   </g>
   <g id="line2d_8">
    <path clip-path="url(#pd071fb19e7)" d="M 0 0 
" style="fill:none;stroke:#f5deb3;stroke-linecap:square;stroke-width:1.5;"/>
   </g>
   <g id="line2d_9">
    <path clip-path="url(#pd071fb19e7)" d="M 230.632659 293.76 
L 230.632659 292.961584 
L 239.998886 292.961584 
L 239.998886 292.163168 
L 246.413165 292.163168 
L 246.413165 291.364752 
L 256.148489 291.364752 
L 256.148489 290.566337 
L 257.970728 290.566337 
L 257.970728 289.767921 
L 278.715169 289.767921 
L 278.715169 288.969505 
L 284.212454 288.969505 
L 284.212454 288.171089 
L 296.598284 288.171089 
L 296.598284 286.574257 
L 302.184296 286.574257 
L 302.184296 284.977426 
L 307.431548 284.977426 
L 307.431548 284.17901 
L 308.443877 284.17901 
L 308.443877 283.380594 
L 309.444503 283.380594 
L 309.444503 282.582178 
L 310.433693 282.582178 
L 310.433693 281.783762 
L 437.500974 281.783762 
L 437.500974 280.985347 
L 454.890251 280.985347 
L 454.890251 280.186931 
L 461.8 280.186931 
L 461.8 280.186931 
" style="fill:none;stroke:#f5deb3;stroke-linecap:square;stroke-width:1.5;"/>
   </g>
   <g id="line2d_10">
    <path clip-path="url(#pd071fb19e7)" d="M 322.359307 293.76 
L 322.359307 292.961584 
L 337.996867 292.961584 
L 337.996867 292.163168 
L 338.709243 292.163168 
L 338.709243 289.767921 
L 341.501522 289.767921 
L 341.501522 288.969505 
L 343.538161 288.969505 
L 343.538161 288.171089 
L 352.455925 288.171089 
L 352.455925 287.372673 
L 353.658071 287.372673 
L 353.658071 286.574257 
L 365.364736 286.574257 
L 365.364736 285.775842 
L 371.405779 285.775842 
L 371.405779 284.977426 
L 385.715091 284.977426 
L 385.715091 284.17901 
L 386.12627 284.17901 
L 386.12627 283.380594 
L 400.459019 283.380594 
L 400.459019 282.582178 
L 402.179814 282.582178 
L 402.179814 281.783762 
L 461.8 281.783762 
L 461.8 281.783762 
" style="fill:none;stroke:#f5deb3;stroke-linecap:square;stroke-width:1.5;"/>
   </g>
   <g id="line2d_11">
    <path clip-path="url(#pd071fb19e7)" d="M 157.296358 293.76 
L 157.296358 292.961584 
L 182.196148 292.961584 
L 182.196148 292.163168 
L 186.419091 292.163168 
L 186.419091 289.767921 
L 190.445545 289.767921 
L 190.445545 288.171089 
L 194.292985 288.171089 
L 194.292985 286.574257 
L 208.171147 286.574257 
L 208.171147 284.977426 
L 225.539828 284.977426 
L 225.539828 283.380594 
L 235.442405 283.380594 
L 235.442405 282.582178 
L 237.750626 282.582178 
L 237.750626 281.783762 
L 424.573148 281.783762 
L 424.573148 280.985347 
L 431.399853 280.985347 
L 431.399853 279.388515 
L 432.126177 279.388515 
L 432.126177 278.590099 
L 433.7976 278.590099 
L 433.7976 277.791683 
L 435.205 277.791683 
L 435.205 276.993267 
L 435.437357 276.993267 
L 435.437357 276.194851 
L 437.046626 276.194851 
L 437.046626 275.396436 
L 437.500974 275.396436 
L 437.500974 274.59802 
L 440.397489 274.59802 
L 440.397489 273.799604 
L 441.702335 273.799604 
L 441.702335 272.202772 
L 443.412082 272.202772 
L 443.412082 271.404356 
L 443.834294 271.404356 
L 443.834294 270.605941 
L 447.544283 270.605941 
L 447.544283 269.807525 
L 448.147443 269.807525 
L 448.147443 269.009109 
L 461.8 269.009109 
L 461.8 269.009109 
" style="fill:none;stroke:#f5deb3;stroke-linecap:square;stroke-width:1.5;"/>
   </g>
   <g id="line2d_12">
    <path clip-path="url(#pd071fb19e7)" d="M 144.910528 293.76 
L 144.910528 281.783762 
L 177.756552 281.783762 
L 177.756552 280.186931 
L 201.509926 280.186931 
L 201.509926 279.388515 
L 220.128494 279.388515 
L 220.128494 273.001188 
L 235.442405 273.001188 
L 235.442405 270.605941 
L 248.449803 270.605941 
L 248.449803 269.807525 
L 411.537303 269.807525 
L 411.537303 269.009109 
L 421.901542 269.009109 
L 421.901542 268.210693 
L 425.097714 268.210693 
L 425.097714 267.412277 
L 426.652603 267.412277 
L 426.652603 265.815446 
L 432.607029 265.815446 
L 432.607029 265.01703 
L 435.437357 265.01703 
L 435.437357 263.420198 
L 436.818554 263.420198 
L 436.818554 262.621782 
L 440.834627 262.621782 
L 440.834627 261.823366 
L 442.132948 261.823366 
L 442.132948 261.02495 
L 444.672587 261.02495 
L 444.672587 259.428119 
L 456.360404 259.428119 
L 456.360404 258.629703 
L 457.446859 258.629703 
L 457.446859 257.032871 
L 458.519846 257.032871 
L 458.519846 256.234455 
L 461.8 256.234455 
L 461.8 256.234455 
" style="fill:none;stroke:#f5deb3;stroke-linecap:square;stroke-width:1.5;"/>
   </g>
   <g id="line2d_13">
    <path clip-path="url(#pd071fb19e7)" d="M 427.419696 293.76 
L 427.419696 291.364752 
L 434.738405 291.364752 
L 434.738405 288.969505 
L 435.437357 288.969505 
L 435.437357 286.574257 
L 450.907914 286.574257 
L 450.907914 284.17901 
L 460.62672 284.17901 
L 460.62672 281.783762 
L 461.8 281.783762 
L 461.8 281.783762 
" style="fill:none;stroke:#f5deb3;stroke-linecap:square;stroke-width:1.5;"/>
   </g>
   <g id="line2d_14">
    <path clip-path="url(#pd071fb19e7)" d="M 230.632659 293.76 
L 230.632659 292.163168 
L 233.070937 292.163168 
L 233.070937 291.364752 
L 237.750626 291.364752 
L 237.750626 290.566337 
L 244.327446 290.566337 
L 244.327446 288.171089 
L 250.439619 288.171089 
L 250.439619 287.372673 
L 254.287059 287.372673 
L 254.287059 281.783762 
L 359.987034 281.783762 
L 359.987034 280.985347 
L 365.884576 280.985347 
L 365.884576 280.186931 
L 370.918154 280.186931 
L 370.918154 279.388515 
L 373.803526 279.388515 
L 373.803526 277.791683 
L 375.675019 277.791683 
L 375.675019 276.993267 
L 376.595806 276.993267 
L 376.595806 276.194851 
L 377.5069 276.194851 
L 377.5069 275.396436 
L 381.058297 275.396436 
L 381.058297 274.59802 
L 382.780804 274.59802 
L 382.780804 273.799604 
L 384.050556 273.799604 
L 384.050556 273.001188 
L 386.535506 273.001188 
L 386.535506 272.202772 
L 387.751729 272.202772 
L 387.751729 271.404356 
L 390.524836 271.404356 
L 390.524836 269.807525 
L 404.200602 269.807525 
L 404.200602 269.009109 
L 408.423545 269.009109 
L 408.423545 268.210693 
L 461.8 268.210693 
L 461.8 268.210693 
" style="fill:none;stroke:#f5deb3;stroke-linecap:square;stroke-width:1.5;"/>
   </g>
   <g id="line2d_15">
    <path clip-path="url(#pd071fb19e7)" d="M 0 0 
" style="fill:none;stroke:#f5deb3;stroke-linecap:square;stroke-width:1.5;"/>
   </g>
   <g id="line2d_16">
    <path clip-path="url(#pd071fb19e7)" d="M 0 0 
" style="fill:none;stroke:#f5deb3;stroke-linecap:square;stroke-width:1.5;"/>
   </g>
   <g id="line2d_17">
    <path clip-path="url(#pd071fb19e7)" d="M 338.709243 293.76 
L 338.709243 292.961584 
L 348.111844 292.961584 
L 348.111844 292.163168 
L 368.437951 292.163168 
L 368.437951 291.364752 
L 386.535506 291.364752 
L 386.535506 290.566337 
L 389.347224 290.566337 
L 389.347224 289.767921 
L 413.652145 289.767921 
L 413.652145 288.969505 
L 421.083711 288.969505 
L 421.083711 288.171089 
L 421.357181 288.171089 
L 421.357181 287.372673 
L 426.395387 287.372673 
L 426.395387 286.574257 
L 449.932107 286.574257 
L 449.932107 285.775842 
L 461.8 285.775842 
L 461.8 285.775842 
" style="fill:none;stroke:#f5deb3;stroke-linecap:square;stroke-width:1.5;"/>
   </g>
   <g id="line2d_18">
    <path clip-path="url(#pd071fb19e7)" d="M 137.98258 293.76 
L 137.98258 281.783762 
L 144.910528 281.783762 
L 144.910528 277.791683 
L 151.324807 277.791683 
L 151.324807 276.993267 
L 157.296358 276.993267 
L 157.296358 276.194851 
L 162.88237 276.194851 
L 162.88237 274.59802 
L 168.129622 274.59802 
L 168.129622 271.404356 
L 173.076863 271.404356 
L 173.076863 270.605941 
L 186.419091 270.605941 
L 186.419091 269.807525 
L 406.175285 269.807525 
L 406.175285 269.009109 
L 419.144839 269.009109 
L 419.144839 268.210693 
L 421.083711 268.210693 
L 421.083711 267.412277 
L 421.357181 267.412277 
L 421.357181 266.613861 
L 424.309668 266.613861 
L 424.309668 265.815446 
L 428.683268 265.815446 
L 428.683268 265.01703 
L 433.323335 265.01703 
L 433.323335 264.218614 
L 434.269281 264.218614 
L 434.269281 263.420198 
L 435.437357 263.420198 
L 435.437357 262.621782 
L 437.500974 262.621782 
L 437.500974 261.823366 
L 439.737614 261.823366 
L 439.737614 261.02495 
L 441.702335 261.02495 
L 441.702335 260.226535 
L 444.254456 260.226535 
L 444.254456 259.428119 
L 444.672587 259.428119 
L 444.672587 258.629703 
L 447.139828 258.629703 
L 447.139828 257.831287 
L 448.945173 257.831287 
L 448.945173 257.032871 
L 450.128151 257.032871 
L 450.128151 256.234455 
L 450.51891 256.234455 
L 450.51891 255.43604 
L 454.332441 255.43604 
L 454.332441 253.839208 
L 456.542429 253.839208 
L 456.542429 253.040792 
L 458.697391 253.040792 
L 458.697391 252.242376 
L 461.8 252.242376 
L 461.8 252.242376 
" style="fill:none;stroke:#f5deb3;stroke-linecap:square;stroke-width:1.5;"/>
   </g>
   <g id="line2d_19">
    <path clip-path="url(#pd071fb19e7)" d="M 0 0 
" style="fill:none;stroke:#f5deb3;stroke-linecap:square;stroke-width:1.5;"/>
   </g>
   <g id="line2d_20">
    <path clip-path="url(#pd071fb19e7)" d="M 157.296358 293.76 
L 157.296358 292.961584 
L 168.129622 292.961584 
L 168.129622 292.163168 
L 173.076863 292.163168 
L 173.076863 290.566337 
L 186.419091 290.566337 
L 186.419091 289.767921 
L 194.292985 289.767921 
L 194.292985 288.969505 
L 197.976654 288.969505 
L 197.976654 288.171089 
L 204.904602 288.171089 
L 204.904602 287.372673 
L 208.171147 287.372673 
L 208.171147 285.775842 
L 211.318881 285.775842 
L 211.318881 284.977426 
L 217.290432 284.977426 
L 217.290432 284.17901 
L 222.876444 284.17901 
L 222.876444 283.380594 
L 225.539828 283.380594 
L 225.539828 282.582178 
L 233.070937 282.582178 
L 233.070937 281.783762 
L 377.958876 281.783762 
L 377.958876 280.985347 
L 385.715091 280.985347 
L 385.715091 280.186931 
L 386.12627 280.186931 
L 386.12627 279.388515 
L 387.348217 279.388515 
L 387.348217 278.590099 
L 388.951099 278.590099 
L 388.951099 277.791683 
L 390.91384 277.791683 
L 390.91384 276.993267 
L 392.452603 276.993267 
L 392.452603 276.194851 
L 393.588985 276.194851 
L 393.588985 275.396436 
L 395.817945 275.396436 
L 395.817945 273.799604 
L 396.911262 273.799604 
L 396.911262 273.001188 
L 397.632543 273.001188 
L 397.632543 272.202772 
L 401.495596 272.202772 
L 401.495596 271.404356 
L 403.532235 271.404356 
L 403.532235 270.605941 
L 404.863848 270.605941 
L 404.863848 269.807525 
L 407.145984 269.807525 
L 407.145984 269.009109 
L 409.682522 269.009109 
L 409.682522 268.210693 
L 411.842606 268.210693 
L 411.842606 267.412277 
L 412.146835 267.412277 
L 412.146835 266.613861 
L 438.178056 266.613861 
L 438.178056 265.815446 
L 447.139828 265.815446 
L 447.139828 265.01703 
L 450.907914 265.01703 
L 450.907914 264.218614 
L 456.724073 264.218614 
L 456.724073 263.420198 
L 460.453093 263.420198 
L 460.453093 262.621782 
L 461.8 262.621782 
L 461.8 262.621782 
" style="fill:none;stroke:#f5deb3;stroke-linecap:square;stroke-width:1.5;"/>
   </g>
   <g id="line2d_21">
    <path clip-path="url(#pd071fb19e7)" d="M 0 0 
" style="fill:none;stroke:#f5deb3;stroke-linecap:square;stroke-width:1.5;"/>
   </g>
   <g id="line2d_22">
    <path clip-path="url(#pd071fb19e7)" d="M 173.076863 293.76 
L 173.076863 292.163168 
L 186.419091 292.163168 
L 186.419091 291.364752 
L 190.445545 291.364752 
L 190.445545 290.566337 
L 201.509926 290.566337 
L 201.509926 288.171089 
L 211.318881 288.171089 
L 211.318881 287.372673 
L 233.070937 287.372673 
L 233.070937 286.574257 
L 244.327446 286.574257 
L 244.327446 285.775842 
L 246.413165 285.775842 
L 246.413165 284.977426 
L 256.148489 284.977426 
L 256.148489 284.17901 
L 259.755392 284.17901 
L 259.755392 283.380594 
L 329.747471 283.380594 
L 329.747471 282.582178 
L 344.206528 282.582178 
L 344.206528 281.783762 
L 363.786215 281.783762 
L 363.786215 280.985347 
L 377.052552 280.985347 
L 377.052552 280.186931 
L 384.4697 280.186931 
L 384.4697 279.388515 
L 386.12627 279.388515 
L 386.12627 278.590099 
L 387.348217 278.590099 
L 387.348217 277.791683 
L 389.741545 277.791683 
L 389.741545 276.993267 
L 391.686641 276.993267 
L 391.686641 276.194851 
L 393.211846 276.194851 
L 393.211846 275.396436 
L 393.588985 275.396436 
L 393.588985 274.59802 
L 394.338367 274.59802 
L 394.338367 273.001188 
L 394.71064 273.001188 
L 394.71064 272.202772 
L 396.548355 272.202772 
L 396.548355 271.404356 
L 398.347862 271.404356 
L 398.347862 270.605941 
L 399.057318 270.605941 
L 399.057318 269.807525 
L 401.495596 269.807525 
L 401.495596 269.009109 
L 401.838381 269.009109 
L 401.838381 268.210693 
L 404.532861 268.210693 
L 404.532861 267.412277 
L 409.682522 267.412277 
L 409.682522 266.613861 
L 409.994426 266.613861 
L 409.994426 265.815446 
L 416.874462 265.815446 
L 416.874462 265.01703 
L 439.958132 265.01703 
L 439.958132 264.218614 
L 445.709165 264.218614 
L 445.709165 263.420198 
L 446.120344 263.420198 
L 446.120344 262.621782 
L 447.946856 262.621782 
L 447.946856 261.823366 
L 452.255821 261.823366 
L 452.255821 261.02495 
L 454.704714 261.02495 
L 454.704714 260.226535 
L 461.317767 260.226535 
L 461.317767 259.428119 
L 461.8 259.428119 
L 461.8 259.428119 
" style="fill:none;stroke:#f5deb3;stroke-linecap:square;stroke-width:1.5;"/>
   </g>
   <g id="line2d_23">
    <path clip-path="url(#pd071fb19e7)" d="M 303.259504 293.76 
L 303.259504 292.961584 
L 334.344293 292.961584 
L 334.344293 292.163168 
L 337.996867 292.163168 
L 337.996867 291.364752 
L 340.116642 291.364752 
L 340.116642 290.566337 
L 351.236846 290.566337 
L 351.236846 288.969505 
L 360.540091 288.969505 
L 360.540091 288.171089 
L 361.089637 288.171089 
L 361.089637 287.372673 
L 363.253578 287.372673 
L 363.253578 286.574257 
L 363.786215 286.574257 
L 363.786215 285.775842 
L 364.315594 285.775842 
L 364.315594 284.977426 
L 378.855808 284.977426 
L 378.855808 284.17901 
L 388.553153 284.17901 
L 388.553153 283.380594 
L 395.081318 283.380594 
L 395.081318 282.582178 
L 410.923449 282.582178 
L 410.923449 281.783762 
L 461.8 281.783762 
L 461.8 281.783762 
" style="fill:none;stroke:#f5deb3;stroke-linecap:square;stroke-width:1.5;"/>
   </g>
   <g id="line2d_24">
    <path clip-path="url(#pd071fb19e7)" d="M 382.780804 293.76 
L 382.780804 292.163168 
L 383.206128 292.163168 
L 383.206128 291.364752 
L 399.761006 291.364752 
L 399.761006 289.767921 
L 400.110716 289.767921 
L 400.110716 288.969505 
L 415.424627 288.969505 
L 415.424627 287.372673 
L 415.716543 287.372673 
L 415.716543 286.574257 
L 416.007479 286.574257 
L 416.007479 285.775842 
L 428.683268 285.775842 
L 428.683268 284.17901 
L 428.933784 284.17901 
L 428.933784 283.380594 
L 429.183577 283.380594 
L 429.183577 282.582178 
L 450.323751 282.582178 
L 450.323751 281.783762 
L 461.8 281.783762 
L 461.8 281.783762 
" style="fill:none;stroke:#f5deb3;stroke-linecap:square;stroke-width:1.5;"/>
   </g>
   <g id="line2d_25">
    <path clip-path="url(#pd071fb19e7)" d="M 324.056482 293.76 
L 324.056482 292.961584 
L 338.709243 292.961584 
L 338.709243 292.163168 
L 342.18574 292.163168 
L 342.18574 291.364752 
L 350.620807 291.364752 
L 350.620807 290.566337 
L 352.455925 290.566337 
L 352.455925 289.767921 
L 363.253578 289.767921 
L 363.253578 288.969505 
L 363.786215 288.969505 
L 363.786215 288.171089 
L 364.841754 288.171089 
L 364.841754 286.574257 
L 366.401313 286.574257 
L 366.401313 285.775842 
L 369.934585 285.775842 
L 369.934585 284.977426 
L 371.890672 284.977426 
L 371.890672 284.17901 
L 391.301103 284.17901 
L 391.301103 283.380594 
L 392.452603 283.380594 
L 392.452603 282.582178 
L 393.964487 282.582178 
L 393.964487 281.783762 
L 461.8 281.783762 
L 461.8 281.783762 
" style="fill:none;stroke:#f5deb3;stroke-linecap:square;stroke-width:1.5;"/>
   </g>
   <g id="line2d_26">
    <path clip-path="url(#pd071fb19e7)" d="M 0 0 
" style="fill:none;stroke:#f5deb3;stroke-linecap:square;stroke-width:1.5;"/>
   </g>
   <g id="line2d_27">
    <path clip-path="url(#pd071fb19e7)" d="M 356.013405 293.76 
L 356.013405 292.961584 
L 374.744331 292.961584 
L 374.744331 292.163168 
L 375.675019 292.163168 
L 375.675019 291.364752 
L 378.855808 291.364752 
L 378.855808 290.566337 
L 388.553153 290.566337 
L 388.553153 288.969505 
L 389.741545 288.969505 
L 389.741545 288.171089 
L 395.817945 288.171089 
L 395.817945 287.372673 
L 410.923449 287.372673 
L 410.923449 286.574257 
L 415.424627 286.574257 
L 415.424627 285.775842 
L 422.442501 285.775842 
L 422.442501 284.977426 
L 426.652603 284.977426 
L 426.652603 284.17901 
L 429.183577 284.17901 
L 429.183577 283.380594 
L 444.04463 283.380594 
L 444.04463 282.582178 
L 444.463774 282.582178 
L 444.463774 281.783762 
L 461.8 281.783762 
L 461.8 281.783762 
" style="fill:none;stroke:#f5deb3;stroke-linecap:square;stroke-width:1.5;"/>
   </g>
   <g id="line2d_28">
    <path clip-path="url(#pd071fb19e7)" d="M 252.384715 293.76 
L 252.384715 292.961584 
L 285.533902 292.961584 
L 285.533902 292.163168 
L 308.443877 292.163168 
L 308.443877 290.566337 
L 310.433693 290.566337 
L 310.433693 289.767921 
L 319.749466 289.767921 
L 319.749466 288.969505 
L 327.354143 288.969505 
L 327.354143 287.372673 
L 328.159295 287.372673 
L 328.159295 286.574257 
L 342.864592 286.574257 
L 342.864592 285.775842 
L 343.538161 285.775842 
L 343.538161 284.17901 
L 356.592358 284.17901 
L 356.592358 283.380594 
L 376.136637 283.380594 
L 376.136637 282.582178 
L 386.942815 282.582178 
L 386.942815 281.783762 
L 461.8 281.783762 
L 461.8 281.783762 
" style="fill:none;stroke:#f5deb3;stroke-linecap:square;stroke-width:1.5;"/>
   </g>
   <g id="line2d_29">
    <path clip-path="url(#pd071fb19e7)" d="M 122.202074 293.76 
L 122.202074 281.783762 
L 162.88237 281.783762 
L 162.88237 279.388515 
L 168.129622 279.388515 
L 168.129622 274.59802 
L 268.165221 274.59802 
L 268.165221 272.202772 
L 269.753397 272.202772 
L 269.753397 269.807525 
L 392.07047 269.807525 
L 392.07047 267.412277 
L 425.097714 267.412277 
L 425.097714 265.01703 
L 428.180051 265.01703 
L 428.180051 262.621782 
L 428.933784 262.621782 
L 428.933784 260.226535 
L 433.7976 260.226535 
L 433.7976 257.831287 
L 441.702335 257.831287 
L 441.702335 255.43604 
L 442.347455 255.43604 
L 442.347455 253.040792 
L 445.709165 253.040792 
L 445.709165 250.645545 
L 461.8 250.645545 
L 461.8 250.645545 
" style="fill:none;stroke:#f5deb3;stroke-linecap:square;stroke-width:1.5;"/>
   </g>
   <g id="line2d_30">
    <path clip-path="url(#pd071fb19e7)" d="M 244.327446 293.76 
L 244.327446 292.961584 
L 252.384715 292.961584 
L 252.384715 292.163168 
L 290.626733 292.163168 
L 290.626733 291.364752 
L 291.854458 291.364752 
L 291.854458 290.566337 
L 298.87613 290.566337 
L 298.87613 289.767921 
L 303.259504 289.767921 
L 303.259504 288.969505 
L 305.370662 288.969505 
L 305.370662 288.171089 
L 305.370662 288.171089 
L 305.370662 287.372673 
L 306.407239 287.372673 
L 306.407239 286.574257 
L 306.407239 286.574257 
L 306.407239 285.775842 
L 306.407239 285.775842 
L 306.407239 284.977426 
L 310.433693 284.977426 
L 310.433693 284.17901 
L 311.411705 284.17901 
L 311.411705 283.380594 
L 312.378789 283.380594 
L 312.378789 282.582178 
L 312.378789 282.582178 
L 312.378789 281.783762 
L 312.378789 281.783762 
L 312.378789 280.985347 
L 313.335187 280.985347 
L 313.335187 280.186931 
L 314.281133 280.186931 
L 314.281133 279.388515 
L 314.281133 279.388515 
L 314.281133 278.590099 
L 315.216852 278.590099 
L 315.216852 277.791683 
L 317.058478 277.791683 
L 317.058478 276.993267 
L 317.964802 276.993267 
L 317.964802 276.194851 
L 318.861734 276.194851 
L 318.861734 275.396436 
L 323.212054 275.396436 
L 323.212054 274.59802 
L 324.89275 274.59802 
L 324.89275 273.799604 
L 326.541432 273.799604 
L 326.541432 273.001188 
L 326.541432 273.001188 
L 326.541432 272.202772 
L 328.159295 272.202772 
L 328.159295 271.404356 
L 328.957025 271.404356 
L 328.957025 270.605941 
L 336.554281 270.605941 
L 336.554281 269.807525 
L 351.848532 269.807525 
L 351.848532 269.009109 
L 351.848532 269.009109 
L 351.848532 268.210693 
L 351.848532 268.210693 
L 351.848532 267.412277 
L 351.848532 267.412277 
L 351.848532 266.613861 
L 351.848532 266.613861 
L 351.848532 265.815446 
L 351.848532 265.815446 
L 351.848532 265.01703 
L 351.848532 265.01703 
L 351.848532 264.218614 
L 351.848532 264.218614 
L 351.848532 263.420198 
L 351.848532 263.420198 
L 351.848532 262.621782 
L 351.848532 262.621782 
L 351.848532 261.823366 
L 351.848532 261.823366 
L 351.848532 261.02495 
L 351.848532 261.02495 
L 351.848532 260.226535 
L 351.848532 260.226535 
L 351.848532 259.428119 
L 351.848532 259.428119 
L 351.848532 258.629703 
L 351.848532 258.629703 
L 351.848532 257.831287 
L 461.8 257.831287 
" style="fill:none;stroke:#f5deb3;stroke-linecap:square;stroke-width:1.5;"/>
   </g>
   <g id="matplotlib.axis_1">
    <g id="xtick_1">
     <g id="line2d_31">
      <path clip-path="url(#pd071fb19e7)" d="M 62.208 293.76 
L 62.208 3.456 
" style="fill:none;stroke:#b0b0b0;stroke-linecap:square;stroke-width:0.8;"/>
     </g>
     <g id="line2d_32">
      <defs>
       <path d="M 0 0 
L 0 3.5 
" id="mb3aec9b8fd" style="stroke:#000000;stroke-width:0.8;"/>
      </defs>
      <g>
       <use style="stroke:#000000;stroke-width:0.8;" x="62.208" xlink:href="#mb3aec9b8fd" y="293.76"/>
      </g>
     </g>
     <g id="text_1">
      <!-- 0 -->
      <defs>
       <path d="M 31.78125 66.40625 
Q 24.171875 66.40625 20.328125 58.90625 
Q 16.5 51.421875 16.5 36.375 
Q 16.5 21.390625 20.328125 13.890625 
Q 24.171875 6.390625 31.78125 6.390625 
Q 39.453125 6.390625 43.28125 13.890625 
Q 47.125 21.390625 47.125 36.375 
Q 47.125 51.421875 43.28125 58.90625 
Q 39.453125 66.40625 31.78125 66.40625 
z
M 31.78125 74.21875 
Q 44.046875 74.21875 50.515625 64.515625 
Q 56.984375 54.828125 56.984375 36.375 
Q 56.984375 17.96875 50.515625 8.265625 
Q 44.046875 -1.421875 31.78125 -1.421875 
Q 19.53125 -1.421875 13.0625 8.265625 
Q 6.59375 17.96875 6.59375 36.375 
Q 6.59375 54.828125 13.0625 64.515625 
Q 19.53125 74.21875 31.78125 74.21875 
z
" id="DejaVuSans-48"/>
      </defs>
      <g transform="translate(55.8455 315.956875)scale(0.2 -0.2)">
       <use xlink:href="#DejaVuSans-48"/>
      </g>
     </g>
    </g>
    <g id="xtick_2">
     <g id="line2d_33">
      <path clip-path="url(#pd071fb19e7)" d="M 460.8 293.76 
L 460.8 3.456 
" style="fill:none;stroke:#b0b0b0;stroke-linecap:square;stroke-width:0.8;"/>
     </g>
     <g id="line2d_34">
      <g>
       <use style="stroke:#000000;stroke-width:0.8;" x="460.8" xlink:href="#mb3aec9b8fd" y="293.76"/>
      </g>
     </g>
     <g id="text_2">
      <!-- 2 -->
      <defs>
       <path d="M 19.1875 8.296875 
L 53.609375 8.296875 
L 53.609375 0 
L 7.328125 0 
L 7.328125 8.296875 
Q 12.9375 14.109375 22.625 23.890625 
Q 32.328125 33.6875 34.8125 36.53125 
Q 39.546875 41.84375 41.421875 45.53125 
Q 43.3125 49.21875 43.3125 52.78125 
Q 43.3125 58.59375 39.234375 62.25 
Q 35.15625 65.921875 28.609375 65.921875 
Q 23.96875 65.921875 18.8125 64.3125 
Q 13.671875 62.703125 7.8125 59.421875 
L 7.8125 69.390625 
Q 13.765625 71.78125 18.9375 73 
Q 24.125 74.21875 28.421875 74.21875 
Q 39.75 74.21875 46.484375 68.546875 
Q 53.21875 62.890625 53.21875 53.421875 
Q 53.21875 48.921875 51.53125 44.890625 
Q 49.859375 40.875 45.40625 35.40625 
Q 44.1875 33.984375 37.640625 27.21875 
Q 31.109375 20.453125 19.1875 8.296875 
z
" id="DejaVuSans-50"/>
      </defs>
      <g transform="translate(454.4375 315.956875)scale(0.2 -0.2)">
       <use xlink:href="#DejaVuSans-50"/>
      </g>
     </g>
    </g>
    <g id="xtick_3">
     <g id="line2d_35">
      <path clip-path="url(#pd071fb19e7)" d="M 122.202074 293.76 
L 122.202074 3.456 
" style="fill:none;stroke:#b0b0b0;stroke-linecap:square;stroke-width:0.8;"/>
     </g>
     <g id="line2d_36">
      <defs>
       <path d="M 0 0 
L 0 2 
" id="mf76d13fb6c" style="stroke:#000000;stroke-width:0.6;"/>
      </defs>
      <g>
       <use style="stroke:#000000;stroke-width:0.6;" x="122.202074" xlink:href="#mf76d13fb6c" y="293.76"/>
      </g>
     </g>
    </g>
    <g id="xtick_4">
     <g id="line2d_37">
      <path clip-path="url(#pd071fb19e7)" d="M 157.296358 293.76 
L 157.296358 3.456 
" style="fill:none;stroke:#b0b0b0;stroke-linecap:square;stroke-width:0.8;"/>
     </g>
     <g id="line2d_38">
      <g>
       <use style="stroke:#000000;stroke-width:0.6;" x="157.296358" xlink:href="#mf76d13fb6c" y="293.76"/>
      </g>
     </g>
    </g>
    <g id="xtick_5">
     <g id="line2d_39">
      <path clip-path="url(#pd071fb19e7)" d="M 182.196148 293.76 
L 182.196148 3.456 
" style="fill:none;stroke:#b0b0b0;stroke-linecap:square;stroke-width:0.8;"/>
     </g>
     <g id="line2d_40">
      <g>
       <use style="stroke:#000000;stroke-width:0.6;" x="182.196148" xlink:href="#mf76d13fb6c" y="293.76"/>
      </g>
     </g>
    </g>
    <g id="xtick_6">
     <g id="line2d_41">
      <path clip-path="url(#pd071fb19e7)" d="M 201.509926 293.76 
L 201.509926 3.456 
" style="fill:none;stroke:#b0b0b0;stroke-linecap:square;stroke-width:0.8;"/>
     </g>
     <g id="line2d_42">
      <g>
       <use style="stroke:#000000;stroke-width:0.6;" x="201.509926" xlink:href="#mf76d13fb6c" y="293.76"/>
      </g>
     </g>
    </g>
    <g id="xtick_7">
     <g id="line2d_43">
      <path clip-path="url(#pd071fb19e7)" d="M 217.290432 293.76 
L 217.290432 3.456 
" style="fill:none;stroke:#b0b0b0;stroke-linecap:square;stroke-width:0.8;"/>
     </g>
     <g id="line2d_44">
      <g>
       <use style="stroke:#000000;stroke-width:0.6;" x="217.290432" xlink:href="#mf76d13fb6c" y="293.76"/>
      </g>
     </g>
    </g>
    <g id="xtick_8">
     <g id="line2d_45">
      <path clip-path="url(#pd071fb19e7)" d="M 230.632659 293.76 
L 230.632659 3.456 
" style="fill:none;stroke:#b0b0b0;stroke-linecap:square;stroke-width:0.8;"/>
     </g>
     <g id="line2d_46">
      <g>
       <use style="stroke:#000000;stroke-width:0.6;" x="230.632659" xlink:href="#mf76d13fb6c" y="293.76"/>
      </g>
     </g>
    </g>
    <g id="xtick_9">
     <g id="line2d_47">
      <path clip-path="url(#pd071fb19e7)" d="M 242.190222 293.76 
L 242.190222 3.456 
" style="fill:none;stroke:#b0b0b0;stroke-linecap:square;stroke-width:0.8;"/>
     </g>
     <g id="line2d_48">
      <g>
       <use style="stroke:#000000;stroke-width:0.6;" x="242.190222" xlink:href="#mf76d13fb6c" y="293.76"/>
      </g>
     </g>
    </g>
    <g id="xtick_10">
     <g id="line2d_49">
      <path clip-path="url(#pd071fb19e7)" d="M 252.384715 293.76 
L 252.384715 3.456 
" style="fill:none;stroke:#b0b0b0;stroke-linecap:square;stroke-width:0.8;"/>
     </g>
     <g id="line2d_50">
      <g>
       <use style="stroke:#000000;stroke-width:0.6;" x="252.384715" xlink:href="#mf76d13fb6c" y="293.76"/>
      </g>
     </g>
    </g>
    <g id="xtick_11">
     <g id="line2d_51">
      <path clip-path="url(#pd071fb19e7)" d="M 321.498074 293.76 
L 321.498074 3.456 
" style="fill:none;stroke:#b0b0b0;stroke-linecap:square;stroke-width:0.8;"/>
     </g>
     <g id="line2d_52">
      <g>
       <use style="stroke:#000000;stroke-width:0.6;" x="321.498074" xlink:href="#mf76d13fb6c" y="293.76"/>
      </g>
     </g>
    </g>
    <g id="xtick_12">
     <g id="line2d_53">
      <path clip-path="url(#pd071fb19e7)" d="M 356.592358 293.76 
L 356.592358 3.456 
" style="fill:none;stroke:#b0b0b0;stroke-linecap:square;stroke-width:0.8;"/>
     </g>
     <g id="line2d_54">
      <g>
       <use style="stroke:#000000;stroke-width:0.6;" x="356.592358" xlink:href="#mf76d13fb6c" y="293.76"/>
      </g>
     </g>
    </g>
    <g id="xtick_13">
     <g id="line2d_55">
      <path clip-path="url(#pd071fb19e7)" d="M 381.492148 293.76 
L 381.492148 3.456 
" style="fill:none;stroke:#b0b0b0;stroke-linecap:square;stroke-width:0.8;"/>
     </g>
     <g id="line2d_56">
      <g>
       <use style="stroke:#000000;stroke-width:0.6;" x="381.492148" xlink:href="#mf76d13fb6c" y="293.76"/>
      </g>
     </g>
    </g>
    <g id="xtick_14">
     <g id="line2d_57">
      <path clip-path="url(#pd071fb19e7)" d="M 400.805926 293.76 
L 400.805926 3.456 
" style="fill:none;stroke:#b0b0b0;stroke-linecap:square;stroke-width:0.8;"/>
     </g>
     <g id="line2d_58">
      <g>
       <use style="stroke:#000000;stroke-width:0.6;" x="400.805926" xlink:href="#mf76d13fb6c" y="293.76"/>
      </g>
     </g>
    </g>
    <g id="xtick_15">
     <g id="line2d_59">
      <path clip-path="url(#pd071fb19e7)" d="M 416.586432 293.76 
L 416.586432 3.456 
" style="fill:none;stroke:#b0b0b0;stroke-linecap:square;stroke-width:0.8;"/>
     </g>
     <g id="line2d_60">
      <g>
       <use style="stroke:#000000;stroke-width:0.6;" x="416.586432" xlink:href="#mf76d13fb6c" y="293.76"/>
      </g>
     </g>
    </g>
    <g id="xtick_16">
     <g id="line2d_61">
      <path clip-path="url(#pd071fb19e7)" d="M 429.928659 293.76 
L 429.928659 3.456 
" style="fill:none;stroke:#b0b0b0;stroke-linecap:square;stroke-width:0.8;"/>
     </g>
     <g id="line2d_62">
      <g>
       <use style="stroke:#000000;stroke-width:0.6;" x="429.928659" xlink:href="#mf76d13fb6c" y="293.76"/>
      </g>
     </g>
    </g>
    <g id="xtick_17">
     <g id="line2d_63">
      <path clip-path="url(#pd071fb19e7)" d="M 441.486222 293.76 
L 441.486222 3.456 
" style="fill:none;stroke:#b0b0b0;stroke-linecap:square;stroke-width:0.8;"/>
     </g>
     <g id="line2d_64">
      <g>
       <use style="stroke:#000000;stroke-width:0.6;" x="441.486222" xlink:href="#mf76d13fb6c" y="293.76"/>
      </g>
     </g>
    </g>
    <g id="xtick_18">
     <g id="line2d_65">
      <path clip-path="url(#pd071fb19e7)" d="M 451.680715 293.76 
L 451.680715 3.456 
" style="fill:none;stroke:#b0b0b0;stroke-linecap:square;stroke-width:0.8;"/>
     </g>
     <g id="line2d_66">
      <g>
       <use style="stroke:#000000;stroke-width:0.6;" x="451.680715" xlink:href="#mf76d13fb6c" y="293.76"/>
      </g>
     </g>
    </g>
    <g id="text_3">
     <!-- log10 of FEvals / DIM -->
     <defs>
      <path d="M 9.421875 75.984375 
L 18.40625 75.984375 
L 18.40625 0 
L 9.421875 0 
z
" id="DejaVuSans-108"/>
      <path d="M 30.609375 48.390625 
Q 23.390625 48.390625 19.1875 42.75 
Q 14.984375 37.109375 14.984375 27.296875 
Q 14.984375 17.484375 19.15625 11.84375 
Q 23.34375 6.203125 30.609375 6.203125 
Q 37.796875 6.203125 41.984375 11.859375 
Q 46.1875 17.53125 46.1875 27.296875 
Q 46.1875 37.015625 41.984375 42.703125 
Q 37.796875 48.390625 30.609375 48.390625 
z
M 30.609375 56 
Q 42.328125 56 49.015625 48.375 
Q 55.71875 40.765625 55.71875 27.296875 
Q 55.71875 13.875 49.015625 6.21875 
Q 42.328125 -1.421875 30.609375 -1.421875 
Q 18.84375 -1.421875 12.171875 6.21875 
Q 5.515625 13.875 5.515625 27.296875 
Q 5.515625 40.765625 12.171875 48.375 
Q 18.84375 56 30.609375 56 
z
" id="DejaVuSans-111"/>
      <path d="M 45.40625 27.984375 
Q 45.40625 37.75 41.375 43.109375 
Q 37.359375 48.484375 30.078125 48.484375 
Q 22.859375 48.484375 18.828125 43.109375 
Q 14.796875 37.75 14.796875 27.984375 
Q 14.796875 18.265625 18.828125 12.890625 
Q 22.859375 7.515625 30.078125 7.515625 
Q 37.359375 7.515625 41.375 12.890625 
Q 45.40625 18.265625 45.40625 27.984375 
z
M 54.390625 6.78125 
Q 54.390625 -7.171875 48.1875 -13.984375 
Q 42 -20.796875 29.203125 -20.796875 
Q 24.46875 -20.796875 20.265625 -20.09375 
Q 16.0625 -19.390625 12.109375 -17.921875 
L 12.109375 -9.1875 
Q 16.0625 -11.328125 19.921875 -12.34375 
Q 23.78125 -13.375 27.78125 -13.375 
Q 36.625 -13.375 41.015625 -8.765625 
Q 45.40625 -4.15625 45.40625 5.171875 
L 45.40625 9.625 
Q 42.625 4.78125 38.28125 2.390625 
Q 33.9375 0 27.875 0 
Q 17.828125 0 11.671875 7.65625 
Q 5.515625 15.328125 5.515625 27.984375 
Q 5.515625 40.671875 11.671875 48.328125 
Q 17.828125 56 27.875 56 
Q 33.9375 56 38.28125 53.609375 
Q 42.625 51.21875 45.40625 46.390625 
L 45.40625 54.6875 
L 54.390625 54.6875 
z
" id="DejaVuSans-103"/>
      <path d="M 12.40625 8.296875 
L 28.515625 8.296875 
L 28.515625 63.921875 
L 10.984375 60.40625 
L 10.984375 69.390625 
L 28.421875 72.90625 
L 38.28125 72.90625 
L 38.28125 8.296875 
L 54.390625 8.296875 
L 54.390625 0 
L 12.40625 0 
z
" id="DejaVuSans-49"/>
      <path id="DejaVuSans-32"/>
      <path d="M 37.109375 75.984375 
L 37.109375 68.5 
L 28.515625 68.5 
Q 23.6875 68.5 21.796875 66.546875 
Q 19.921875 64.59375 19.921875 59.515625 
L 19.921875 54.6875 
L 34.71875 54.6875 
L 34.71875 47.703125 
L 19.921875 47.703125 
L 19.921875 0 
L 10.890625 0 
L 10.890625 47.703125 
L 2.296875 47.703125 
L 2.296875 54.6875 
L 10.890625 54.6875 
L 10.890625 58.5 
Q 10.890625 67.625 15.140625 71.796875 
Q 19.390625 75.984375 28.609375 75.984375 
z
" id="DejaVuSans-102"/>
      <path d="M 9.8125 72.90625 
L 51.703125 72.90625 
L 51.703125 64.59375 
L 19.671875 64.59375 
L 19.671875 43.109375 
L 48.578125 43.109375 
L 48.578125 34.8125 
L 19.671875 34.8125 
L 19.671875 0 
L 9.8125 0 
z
" id="DejaVuSans-70"/>
      <path d="M 9.8125 72.90625 
L 55.90625 72.90625 
L 55.90625 64.59375 
L 19.671875 64.59375 
L 19.671875 43.015625 
L 54.390625 43.015625 
L 54.390625 34.71875 
L 19.671875 34.71875 
L 19.671875 8.296875 
L 56.78125 8.296875 
L 56.78125 0 
L 9.8125 0 
z
" id="DejaVuSans-69"/>
      <path d="M 2.984375 54.6875 
L 12.5 54.6875 
L 29.59375 8.796875 
L 46.6875 54.6875 
L 56.203125 54.6875 
L 35.6875 0 
L 23.484375 0 
z
" id="DejaVuSans-118"/>
      <path d="M 34.28125 27.484375 
Q 23.390625 27.484375 19.1875 25 
Q 14.984375 22.515625 14.984375 16.5 
Q 14.984375 11.71875 18.140625 8.90625 
Q 21.296875 6.109375 26.703125 6.109375 
Q 34.1875 6.109375 38.703125 11.40625 
Q 43.21875 16.703125 43.21875 25.484375 
L 43.21875 27.484375 
z
M 52.203125 31.203125 
L 52.203125 0 
L 43.21875 0 
L 43.21875 8.296875 
Q 40.140625 3.328125 35.546875 0.953125 
Q 30.953125 -1.421875 24.3125 -1.421875 
Q 15.921875 -1.421875 10.953125 3.296875 
Q 6 8.015625 6 15.921875 
Q 6 25.140625 12.171875 29.828125 
Q 18.359375 34.515625 30.609375 34.515625 
L 43.21875 34.515625 
L 43.21875 35.40625 
Q 43.21875 41.609375 39.140625 45 
Q 35.0625 48.390625 27.6875 48.390625 
Q 23 48.390625 18.546875 47.265625 
Q 14.109375 46.140625 10.015625 43.890625 
L 10.015625 52.203125 
Q 14.9375 54.109375 19.578125 55.046875 
Q 24.21875 56 28.609375 56 
Q 40.484375 56 46.34375 49.84375 
Q 52.203125 43.703125 52.203125 31.203125 
z
" id="DejaVuSans-97"/>
      <path d="M 44.28125 53.078125 
L 44.28125 44.578125 
Q 40.484375 46.53125 36.375 47.5 
Q 32.28125 48.484375 27.875 48.484375 
Q 21.1875 48.484375 17.84375 46.4375 
Q 14.5 44.390625 14.5 40.28125 
Q 14.5 37.15625 16.890625 35.375 
Q 19.28125 33.59375 26.515625 31.984375 
L 29.59375 31.296875 
Q 39.15625 29.25 43.1875 25.515625 
Q 47.21875 21.78125 47.21875 15.09375 
Q 47.21875 7.46875 41.1875 3.015625 
Q 35.15625 -1.421875 24.609375 -1.421875 
Q 20.21875 -1.421875 15.453125 -0.5625 
Q 10.6875 0.296875 5.421875 2 
L 5.421875 11.28125 
Q 10.40625 8.6875 15.234375 7.390625 
Q 20.0625 6.109375 24.8125 6.109375 
Q 31.15625 6.109375 34.5625 8.28125 
Q 37.984375 10.453125 37.984375 14.40625 
Q 37.984375 18.0625 35.515625 20.015625 
Q 33.0625 21.96875 24.703125 23.78125 
L 21.578125 24.515625 
Q 13.234375 26.265625 9.515625 29.90625 
Q 5.8125 33.546875 5.8125 39.890625 
Q 5.8125 47.609375 11.28125 51.796875 
Q 16.75 56 26.8125 56 
Q 31.78125 56 36.171875 55.265625 
Q 40.578125 54.546875 44.28125 53.078125 
z
" id="DejaVuSans-115"/>
      <path d="M 25.390625 72.90625 
L 33.6875 72.90625 
L 8.296875 -9.28125 
L 0 -9.28125 
z
" id="DejaVuSans-47"/>
      <path d="M 19.671875 64.796875 
L 19.671875 8.109375 
L 31.59375 8.109375 
Q 46.6875 8.109375 53.6875 14.9375 
Q 60.6875 21.78125 60.6875 36.53125 
Q 60.6875 51.171875 53.6875 57.984375 
Q 46.6875 64.796875 31.59375 64.796875 
z
M 9.8125 72.90625 
L 30.078125 72.90625 
Q 51.265625 72.90625 61.171875 64.09375 
Q 71.09375 55.28125 71.09375 36.53125 
Q 71.09375 17.671875 61.125 8.828125 
Q 51.171875 0 30.078125 0 
L 9.8125 0 
z
" id="DejaVuSans-68"/>
      <path d="M 9.8125 72.90625 
L 19.671875 72.90625 
L 19.671875 0 
L 9.8125 0 
z
" id="DejaVuSans-73"/>
      <path d="M 9.8125 72.90625 
L 24.515625 72.90625 
L 43.109375 23.296875 
L 61.8125 72.90625 
L 76.515625 72.90625 
L 76.515625 0 
L 66.890625 0 
L 66.890625 64.015625 
L 48.09375 14.015625 
L 38.1875 14.015625 
L 19.390625 64.015625 
L 19.390625 0 
L 9.8125 0 
z
" id="DejaVuSans-77"/>
     </defs>
     <g transform="translate(156.430563 339.313125)scale(0.2 -0.2)">
      <use xlink:href="#DejaVuSans-108"/>
      <use x="27.783203" xlink:href="#DejaVuSans-111"/>
      <use x="88.964844" xlink:href="#DejaVuSans-103"/>
      <use x="152.441406" xlink:href="#DejaVuSans-49"/>
      <use x="216.064453" xlink:href="#DejaVuSans-48"/>
      <use x="279.6875" xlink:href="#DejaVuSans-32"/>
      <use x="311.474609" xlink:href="#DejaVuSans-111"/>
      <use x="372.65625" xlink:href="#DejaVuSans-102"/>
      <use x="407.861328" xlink:href="#DejaVuSans-32"/>
      <use x="439.648438" xlink:href="#DejaVuSans-70"/>
      <use x="497.167969" xlink:href="#DejaVuSans-69"/>
      <use x="560.351562" xlink:href="#DejaVuSans-118"/>
      <use x="619.53125" xlink:href="#DejaVuSans-97"/>
      <use x="680.810547" xlink:href="#DejaVuSans-108"/>
      <use x="708.59375" xlink:href="#DejaVuSans-115"/>
      <use x="760.693359" xlink:href="#DejaVuSans-32"/>
      <use x="792.480469" xlink:href="#DejaVuSans-47"/>
      <use x="826.171875" xlink:href="#DejaVuSans-32"/>
      <use x="857.958984" xlink:href="#DejaVuSans-68"/>
      <use x="934.960938" xlink:href="#DejaVuSans-73"/>
      <use x="964.453125" xlink:href="#DejaVuSans-77"/>
     </g>
    </g>
   </g>
   <g id="matplotlib.axis_2">
    <g id="ytick_1">
     <g id="line2d_67">
      <path clip-path="url(#pd071fb19e7)" d="M 62.208 293.76 
L 460.8 293.76 
" style="fill:none;stroke:#b0b0b0;stroke-linecap:square;stroke-width:0.8;"/>
     </g>
     <g id="line2d_68">
      <defs>
       <path d="M 0 0 
L -3.5 0 
" id="ma789ab3494" style="stroke:#000000;stroke-width:0.8;"/>
      </defs>
      <g>
       <use style="stroke:#000000;stroke-width:0.8;" x="62.208" xlink:href="#ma789ab3494" y="293.76"/>
      </g>
     </g>
     <g id="text_4">
      <!-- 0.0 -->
      <defs>
       <path d="M 10.6875 12.40625 
L 21 12.40625 
L 21 0 
L 10.6875 0 
z
" id="DejaVuSans-46"/>
      </defs>
      <g transform="translate(29.763 299.83875)scale(0.16 -0.16)">
       <use xlink:href="#DejaVuSans-48"/>
       <use x="63.623047" xlink:href="#DejaVuSans-46"/>
       <use x="95.410156" xlink:href="#DejaVuSans-48"/>
      </g>
     </g>
    </g>
    <g id="ytick_2">
     <g id="line2d_69">
      <path clip-path="url(#pd071fb19e7)" d="M 62.208 236.274059 
L 460.8 236.274059 
" style="fill:none;stroke:#b0b0b0;stroke-linecap:square;stroke-width:0.8;"/>
     </g>
     <g id="line2d_70">
      <g>
       <use style="stroke:#000000;stroke-width:0.8;" x="62.208" xlink:href="#ma789ab3494" y="236.274059"/>
      </g>
     </g>
     <g id="text_5">
      <!-- 0.2 -->
      <g transform="translate(29.763 242.352809)scale(0.16 -0.16)">
       <use xlink:href="#DejaVuSans-48"/>
       <use x="63.623047" xlink:href="#DejaVuSans-46"/>
       <use x="95.410156" xlink:href="#DejaVuSans-50"/>
      </g>
     </g>
    </g>
    <g id="ytick_3">
     <g id="line2d_71">
      <path clip-path="url(#pd071fb19e7)" d="M 62.208 178.788119 
L 460.8 178.788119 
" style="fill:none;stroke:#b0b0b0;stroke-linecap:square;stroke-width:0.8;"/>
     </g>
     <g id="line2d_72">
      <g>
       <use style="stroke:#000000;stroke-width:0.8;" x="62.208" xlink:href="#ma789ab3494" y="178.788119"/>
      </g>
     </g>
     <g id="text_6">
      <!-- 0.4 -->
      <defs>
       <path d="M 37.796875 64.3125 
L 12.890625 25.390625 
L 37.796875 25.390625 
z
M 35.203125 72.90625 
L 47.609375 72.90625 
L 47.609375 25.390625 
L 58.015625 25.390625 
L 58.015625 17.1875 
L 47.609375 17.1875 
L 47.609375 0 
L 37.796875 0 
L 37.796875 17.1875 
L 4.890625 17.1875 
L 4.890625 26.703125 
z
" id="DejaVuSans-52"/>
      </defs>
      <g transform="translate(29.763 184.866869)scale(0.16 -0.16)">
       <use xlink:href="#DejaVuSans-48"/>
       <use x="63.623047" xlink:href="#DejaVuSans-46"/>
       <use x="95.410156" xlink:href="#DejaVuSans-52"/>
      </g>
     </g>
    </g>
    <g id="ytick_4">
     <g id="line2d_73">
      <path clip-path="url(#pd071fb19e7)" d="M 62.208 121.302178 
L 460.8 121.302178 
" style="fill:none;stroke:#b0b0b0;stroke-linecap:square;stroke-width:0.8;"/>
     </g>
     <g id="line2d_74">
      <g>
       <use style="stroke:#000000;stroke-width:0.8;" x="62.208" xlink:href="#ma789ab3494" y="121.302178"/>
      </g>
     </g>
     <g id="text_7">
      <!-- 0.6 -->
      <defs>
       <path d="M 33.015625 40.375 
Q 26.375 40.375 22.484375 35.828125 
Q 18.609375 31.296875 18.609375 23.390625 
Q 18.609375 15.53125 22.484375 10.953125 
Q 26.375 6.390625 33.015625 6.390625 
Q 39.65625 6.390625 43.53125 10.953125 
Q 47.40625 15.53125 47.40625 23.390625 
Q 47.40625 31.296875 43.53125 35.828125 
Q 39.65625 40.375 33.015625 40.375 
z
M 52.59375 71.296875 
L 52.59375 62.3125 
Q 48.875 64.0625 45.09375 64.984375 
Q 41.3125 65.921875 37.59375 65.921875 
Q 27.828125 65.921875 22.671875 59.328125 
Q 17.53125 52.734375 16.796875 39.40625 
Q 19.671875 43.65625 24.015625 45.921875 
Q 28.375 48.1875 33.59375 48.1875 
Q 44.578125 48.1875 50.953125 41.515625 
Q 57.328125 34.859375 57.328125 23.390625 
Q 57.328125 12.15625 50.6875 5.359375 
Q 44.046875 -1.421875 33.015625 -1.421875 
Q 20.359375 -1.421875 13.671875 8.265625 
Q 6.984375 17.96875 6.984375 36.375 
Q 6.984375 53.65625 15.1875 63.9375 
Q 23.390625 74.21875 37.203125 74.21875 
Q 40.921875 74.21875 44.703125 73.484375 
Q 48.484375 72.75 52.59375 71.296875 
z
" id="DejaVuSans-54"/>
      </defs>
      <g transform="translate(29.763 127.380928)scale(0.16 -0.16)">
       <use xlink:href="#DejaVuSans-48"/>
       <use x="63.623047" xlink:href="#DejaVuSans-46"/>
       <use x="95.410156" xlink:href="#DejaVuSans-54"/>
      </g>
     </g>
    </g>
    <g id="ytick_5">
     <g id="line2d_75">
      <path clip-path="url(#pd071fb19e7)" d="M 62.208 63.816238 
L 460.8 63.816238 
" style="fill:none;stroke:#b0b0b0;stroke-linecap:square;stroke-width:0.8;"/>
     </g>
     <g id="line2d_76">
      <g>
       <use style="stroke:#000000;stroke-width:0.8;" x="62.208" xlink:href="#ma789ab3494" y="63.816238"/>
      </g>
     </g>
     <g id="text_8">
      <!-- 0.8 -->
      <defs>
       <path d="M 31.78125 34.625 
Q 24.75 34.625 20.71875 30.859375 
Q 16.703125 27.09375 16.703125 20.515625 
Q 16.703125 13.921875 20.71875 10.15625 
Q 24.75 6.390625 31.78125 6.390625 
Q 38.8125 6.390625 42.859375 10.171875 
Q 46.921875 13.96875 46.921875 20.515625 
Q 46.921875 27.09375 42.890625 30.859375 
Q 38.875 34.625 31.78125 34.625 
z
M 21.921875 38.8125 
Q 15.578125 40.375 12.03125 44.71875 
Q 8.5 49.078125 8.5 55.328125 
Q 8.5 64.0625 14.71875 69.140625 
Q 20.953125 74.21875 31.78125 74.21875 
Q 42.671875 74.21875 48.875 69.140625 
Q 55.078125 64.0625 55.078125 55.328125 
Q 55.078125 49.078125 51.53125 44.71875 
Q 48 40.375 41.703125 38.8125 
Q 48.828125 37.15625 52.796875 32.3125 
Q 56.78125 27.484375 56.78125 20.515625 
Q 56.78125 9.90625 50.3125 4.234375 
Q 43.84375 -1.421875 31.78125 -1.421875 
Q 19.734375 -1.421875 13.25 4.234375 
Q 6.78125 9.90625 6.78125 20.515625 
Q 6.78125 27.484375 10.78125 32.3125 
Q 14.796875 37.15625 21.921875 38.8125 
z
M 18.3125 54.390625 
Q 18.3125 48.734375 21.84375 45.5625 
Q 25.390625 42.390625 31.78125 42.390625 
Q 38.140625 42.390625 41.71875 45.5625 
Q 45.3125 48.734375 45.3125 54.390625 
Q 45.3125 60.0625 41.71875 63.234375 
Q 38.140625 66.40625 31.78125 66.40625 
Q 25.390625 66.40625 21.84375 63.234375 
Q 18.3125 60.0625 18.3125 54.390625 
z
" id="DejaVuSans-56"/>
      </defs>
      <g transform="translate(29.763 69.894988)scale(0.16 -0.16)">
       <use xlink:href="#DejaVuSans-48"/>
       <use x="63.623047" xlink:href="#DejaVuSans-46"/>
       <use x="95.410156" xlink:href="#DejaVuSans-56"/>
      </g>
     </g>
    </g>
    <g id="ytick_6">
     <g id="line2d_77">
      <path clip-path="url(#pd071fb19e7)" d="M 62.208 6.330297 
L 460.8 6.330297 
" style="fill:none;stroke:#b0b0b0;stroke-linecap:square;stroke-width:0.8;"/>
     </g>
     <g id="line2d_78">
      <g>
       <use style="stroke:#000000;stroke-width:0.8;" x="62.208" xlink:href="#ma789ab3494" y="6.330297"/>
      </g>
     </g>
     <g id="text_9">
      <!-- 1.0 -->
      <g transform="translate(29.763 12.409047)scale(0.16 -0.16)">
       <use xlink:href="#DejaVuSans-49"/>
       <use x="63.623047" xlink:href="#DejaVuSans-46"/>
       <use x="95.410156" xlink:href="#DejaVuSans-48"/>
      </g>
     </g>
    </g>
    <g id="text_10">
     <!-- proportion of trials -->
     <defs>
      <path d="M 18.109375 8.203125 
L 18.109375 -20.796875 
L 9.078125 -20.796875 
L 9.078125 54.6875 
L 18.109375 54.6875 
L 18.109375 46.390625 
Q 20.953125 51.265625 25.265625 53.625 
Q 29.59375 56 35.59375 56 
Q 45.5625 56 51.78125 48.09375 
Q 58.015625 40.1875 58.015625 27.296875 
Q 58.015625 14.40625 51.78125 6.484375 
Q 45.5625 -1.421875 35.59375 -1.421875 
Q 29.59375 -1.421875 25.265625 0.953125 
Q 20.953125 3.328125 18.109375 8.203125 
z
M 48.6875 27.296875 
Q 48.6875 37.203125 44.609375 42.84375 
Q 40.53125 48.484375 33.40625 48.484375 
Q 26.265625 48.484375 22.1875 42.84375 
Q 18.109375 37.203125 18.109375 27.296875 
Q 18.109375 17.390625 22.1875 11.75 
Q 26.265625 6.109375 33.40625 6.109375 
Q 40.53125 6.109375 44.609375 11.75 
Q 48.6875 17.390625 48.6875 27.296875 
z
" id="DejaVuSans-112"/>
      <path d="M 41.109375 46.296875 
Q 39.59375 47.171875 37.8125 47.578125 
Q 36.03125 48 33.890625 48 
Q 26.265625 48 22.1875 43.046875 
Q 18.109375 38.09375 18.109375 28.8125 
L 18.109375 0 
L 9.078125 0 
L 9.078125 54.6875 
L 18.109375 54.6875 
L 18.109375 46.1875 
Q 20.953125 51.171875 25.484375 53.578125 
Q 30.03125 56 36.53125 56 
Q 37.453125 56 38.578125 55.875 
Q 39.703125 55.765625 41.0625 55.515625 
z
" id="DejaVuSans-114"/>
      <path d="M 18.3125 70.21875 
L 18.3125 54.6875 
L 36.8125 54.6875 
L 36.8125 47.703125 
L 18.3125 47.703125 
L 18.3125 18.015625 
Q 18.3125 11.328125 20.140625 9.421875 
Q 21.96875 7.515625 27.59375 7.515625 
L 36.8125 7.515625 
L 36.8125 0 
L 27.59375 0 
Q 17.1875 0 13.234375 3.875 
Q 9.28125 7.765625 9.28125 18.015625 
L 9.28125 47.703125 
L 2.6875 47.703125 
L 2.6875 54.6875 
L 9.28125 54.6875 
L 9.28125 70.21875 
z
" id="DejaVuSans-116"/>
      <path d="M 9.421875 54.6875 
L 18.40625 54.6875 
L 18.40625 0 
L 9.421875 0 
z
M 9.421875 75.984375 
L 18.40625 75.984375 
L 18.40625 64.59375 
L 9.421875 64.59375 
z
" id="DejaVuSans-105"/>
      <path d="M 54.890625 33.015625 
L 54.890625 0 
L 45.90625 0 
L 45.90625 32.71875 
Q 45.90625 40.484375 42.875 44.328125 
Q 39.84375 48.1875 33.796875 48.1875 
Q 26.515625 48.1875 22.3125 43.546875 
Q 18.109375 38.921875 18.109375 30.90625 
L 18.109375 0 
L 9.078125 0 
L 9.078125 54.6875 
L 18.109375 54.6875 
L 18.109375 46.1875 
Q 21.34375 51.125 25.703125 53.5625 
Q 30.078125 56 35.796875 56 
Q 45.21875 56 50.046875 50.171875 
Q 54.890625 44.34375 54.890625 33.015625 
z
" id="DejaVuSans-110"/>
     </defs>
     <g transform="translate(21.603625 241.836125)rotate(-90)scale(0.2 -0.2)">
      <use xlink:href="#DejaVuSans-112"/>
      <use x="63.476562" xlink:href="#DejaVuSans-114"/>
      <use x="104.558594" xlink:href="#DejaVuSans-111"/>
      <use x="165.740234" xlink:href="#DejaVuSans-112"/>
      <use x="229.216797" xlink:href="#DejaVuSans-111"/>
      <use x="290.398438" xlink:href="#DejaVuSans-114"/>
      <use x="331.511719" xlink:href="#DejaVuSans-116"/>
      <use x="370.720703" xlink:href="#DejaVuSans-105"/>
      <use x="398.503906" xlink:href="#DejaVuSans-111"/>
      <use x="459.685547" xlink:href="#DejaVuSans-110"/>
      <use x="523.064453" xlink:href="#DejaVuSans-32"/>
      <use x="554.851562" xlink:href="#DejaVuSans-111"/>
      <use x="616.033203" xlink:href="#DejaVuSans-102"/>
      <use x="651.238281" xlink:href="#DejaVuSans-32"/>
      <use x="683.025391" xlink:href="#DejaVuSans-116"/>
      <use x="722.234375" xlink:href="#DejaVuSans-114"/>
      <use x="763.347656" xlink:href="#DejaVuSans-105"/>
      <use x="791.130859" xlink:href="#DejaVuSans-97"/>
      <use x="852.410156" xlink:href="#DejaVuSans-108"/>
      <use x="880.193359" xlink:href="#DejaVuSans-115"/>
     </g>
    </g>
   </g>
   <g id="line2d_79">
    <path clip-path="url(#pd071fb19e7)" d="M -1 273.799604 
L 17.994432 273.799604 
L 17.994432 273.001188 
L 42.894222 273.001188 
L 42.894222 268.210693 
L 62.208 268.210693 
L 62.208 265.815446 
L 77.988506 265.815446 
L 77.988506 262.621782 
L 91.330733 262.621782 
L 91.330733 260.226535 
L 102.888296 260.226535 
L 102.888296 257.831287 
L 113.082789 257.831287 
L 113.082789 253.040792 
L 122.202074 253.040792 
L 122.202074 252.242376 
L 130.451471 252.242376 
L 130.451471 251.44396 
L 144.910528 251.44396 
L 144.910528 248.250297 
L 151.324807 248.250297 
L 151.324807 246.653465 
L 157.296358 246.653465 
L 157.296358 245.056634 
L 162.88237 245.056634 
L 162.88237 244.258218 
L 177.756552 244.258218 
L 177.756552 243.459802 
L 201.509926 243.459802 
L 201.509926 242.661386 
L 211.318881 242.661386 
L 211.318881 241.86297 
L 222.876444 241.86297 
L 222.876444 240.266139 
L 225.539828 240.266139 
L 225.539828 239.467723 
L 230.632659 239.467723 
L 230.632659 238.669307 
L 235.442405 238.669307 
L 235.442405 237.870891 
L 242.190222 237.870891 
L 242.190222 237.072475 
L 248.449803 237.072475 
L 248.449803 236.274059 
L 252.384715 236.274059 
L 252.384715 235.475644 
L 254.287059 235.475644 
L 254.287059 234.677228 
L 259.755392 234.677228 
L 259.755392 233.878812 
L 264.898676 233.878812 
L 264.898676 232.28198 
L 275.829797 232.28198 
L 275.829797 231.483564 
L 280.122568 231.483564 
L 280.122568 230.685149 
L 326.541432 230.685149 
L 326.541432 229.886733 
L 332.838983 229.886733 
L 332.838983 229.088317 
L 362.717644 229.088317 
L 362.717644 227.491485 
L 382.780804 227.491485 
L 382.780804 226.693069 
L 384.4697 226.693069 
L 384.4697 225.894653 
L 386.12627 225.894653 
L 386.12627 225.096238 
L 386.942815 225.096238 
L 386.942815 223.499406 
L 402.179814 223.499406 
L 402.179814 222.70099 
L 403.196106 222.70099 
L 403.196106 221.902574 
L 404.863848 221.902574 
L 404.863848 221.104158 
L 417.732848 221.104158 
L 417.732848 220.305743 
L 418.300411 220.305743 
L 418.300411 219.507327 
L 431.399853 219.507327 
L 431.399853 218.708911 
L 453.016733 218.708911 
L 453.016733 217.910495 
L 453.016733 217.910495 
L 460.8 217.910495 
L 460.8 217.910495 
" style="fill:none;stroke:#000000;stroke-linecap:square;stroke-width:1.5;"/>
   </g>
   <g id="line2d_80">
    <path clip-path="url(#pd071fb19e7)" style="fill:none;stroke:#000000;stroke-linecap:square;stroke-width:1.5;"/>
   </g>
   <g id="line2d_81"/>
   <g id="line2d_82"/>
   <g id="line2d_83"/>
   <g id="line2d_84">
    <path clip-path="url(#pd071fb19e7)" d="M 460.8 293.76 
L 460.8 3.456 
" style="fill:none;stroke:#000000;stroke-linecap:square;stroke-width:1.5;"/>
   </g>
   <g id="patch_3">
    <path d="M 62.208 293.76 
L 62.208 3.456 
" style="fill:none;stroke:#000000;stroke-linecap:square;stroke-linejoin:miter;stroke-width:0.8;"/>
   </g>
   <g id="patch_4">
    <path d="M 460.8 293.76 
L 460.8 3.456 
" style="fill:none;stroke:#000000;stroke-linecap:square;stroke-linejoin:miter;stroke-width:0.8;"/>
   </g>
   <g id="patch_5">
    <path d="M 62.208 293.76 
L 460.8 293.76 
" style="fill:none;stroke:#000000;stroke-linecap:square;stroke-linejoin:miter;stroke-width:0.8;"/>
   </g>
   <g id="patch_6">
    <path d="M 62.208 3.456 
L 460.8 3.456 
" style="fill:none;stroke:#000000;stroke-linecap:square;stroke-linejoin:miter;stroke-width:0.8;"/>
   </g>
   <g id="text_11">
    <!-- {f1-f24}, 5-D -->
    <defs>
     <path d="M 51.125 -9.28125 
L 51.125 -16.3125 
L 48.09375 -16.3125 
Q 35.9375 -16.3125 31.8125 -12.6875 
Q 27.6875 -9.078125 27.6875 1.703125 
L 27.6875 13.375 
Q 27.6875 20.75 25.046875 23.578125 
Q 22.40625 26.421875 15.484375 26.421875 
L 12.5 26.421875 
L 12.5 33.40625 
L 15.484375 33.40625 
Q 22.46875 33.40625 25.078125 36.203125 
Q 27.6875 39.015625 27.6875 46.296875 
L 27.6875 58.015625 
Q 27.6875 68.796875 31.8125 72.390625 
Q 35.9375 75.984375 48.09375 75.984375 
L 51.125 75.984375 
L 51.125 69 
L 47.796875 69 
Q 40.921875 69 38.8125 66.84375 
Q 36.71875 64.703125 36.71875 57.8125 
L 36.71875 45.703125 
Q 36.71875 38.03125 34.5 34.5625 
Q 32.28125 31.109375 26.90625 29.890625 
Q 32.328125 28.5625 34.515625 25.09375 
Q 36.71875 21.625 36.71875 14.015625 
L 36.71875 1.90625 
Q 36.71875 -4.984375 38.8125 -7.125 
Q 40.921875 -9.28125 47.796875 -9.28125 
z
" id="DejaVuSans-123"/>
     <path d="M 4.890625 31.390625 
L 31.203125 31.390625 
L 31.203125 23.390625 
L 4.890625 23.390625 
z
" id="DejaVuSans-45"/>
     <path d="M 12.5 -9.28125 
L 15.921875 -9.28125 
Q 22.75 -9.28125 24.828125 -7.171875 
Q 26.90625 -5.078125 26.90625 1.90625 
L 26.90625 14.015625 
Q 26.90625 21.625 29.09375 25.09375 
Q 31.296875 28.5625 36.71875 29.890625 
Q 31.296875 31.109375 29.09375 34.5625 
Q 26.90625 38.03125 26.90625 45.703125 
L 26.90625 57.8125 
Q 26.90625 64.75 24.828125 66.875 
Q 22.75 69 15.921875 69 
L 12.5 69 
L 12.5 75.984375 
L 15.578125 75.984375 
Q 27.734375 75.984375 31.8125 72.390625 
Q 35.890625 68.796875 35.890625 58.015625 
L 35.890625 46.296875 
Q 35.890625 39.015625 38.515625 36.203125 
Q 41.15625 33.40625 48.09375 33.40625 
L 51.125 33.40625 
L 51.125 26.421875 
L 48.09375 26.421875 
Q 41.15625 26.421875 38.515625 23.578125 
Q 35.890625 20.75 35.890625 13.375 
L 35.890625 1.703125 
Q 35.890625 -9.078125 31.8125 -12.6875 
Q 27.734375 -16.3125 15.578125 -16.3125 
L 12.5 -16.3125 
z
" id="DejaVuSans-125"/>
     <path d="M 11.71875 12.40625 
L 22.015625 12.40625 
L 22.015625 4 
L 14.015625 -11.625 
L 7.71875 -11.625 
L 11.71875 4 
z
" id="DejaVuSans-44"/>
     <path d="M 10.796875 72.90625 
L 49.515625 72.90625 
L 49.515625 64.59375 
L 19.828125 64.59375 
L 19.828125 46.734375 
Q 21.96875 47.46875 24.109375 47.828125 
Q 26.265625 48.1875 28.421875 48.1875 
Q 40.625 48.1875 47.75 41.5 
Q 54.890625 34.8125 54.890625 23.390625 
Q 54.890625 11.625 47.5625 5.09375 
Q 40.234375 -1.421875 26.90625 -1.421875 
Q 22.3125 -1.421875 17.546875 -0.640625 
Q 12.796875 0.140625 7.71875 1.703125 
L 7.71875 11.625 
Q 12.109375 9.234375 16.796875 8.0625 
Q 21.484375 6.890625 26.703125 6.890625 
Q 35.15625 6.890625 40.078125 11.328125 
Q 45.015625 15.765625 45.015625 23.390625 
Q 45.015625 31 40.078125 35.4375 
Q 35.15625 39.890625 26.703125 39.890625 
Q 22.75 39.890625 18.8125 39.015625 
Q 14.890625 38.140625 10.796875 36.28125 
z
" id="DejaVuSans-53"/>
    </defs>
    <g transform="translate(195.0165 24.458955)scale(0.2 -0.2)">
     <use xlink:href="#DejaVuSans-123"/>
     <use x="63.623047" xlink:href="#DejaVuSans-102"/>
     <use x="98.828125" xlink:href="#DejaVuSans-49"/>
     <use x="162.451172" xlink:href="#DejaVuSans-45"/>
     <use x="198.535156" xlink:href="#DejaVuSans-102"/>
     <use x="233.740234" xlink:href="#DejaVuSans-50"/>
     <use x="297.363281" xlink:href="#DejaVuSans-52"/>
     <use x="360.986328" xlink:href="#DejaVuSans-125"/>
     <use x="424.609375" xlink:href="#DejaVuSans-44"/>
     <use x="456.396484" xlink:href="#DejaVuSans-32"/>
     <use x="488.183594" xlink:href="#DejaVuSans-53"/>
     <use x="551.806641" xlink:href="#DejaVuSans-45"/>
     <use x="587.890625" xlink:href="#DejaVuSans-68"/>
    </g>
   </g>
   <g id="text_12">
    <!-- absolute targets -->
    <defs>
     <path d="M 48.6875 27.296875 
Q 48.6875 37.203125 44.609375 42.84375 
Q 40.53125 48.484375 33.40625 48.484375 
Q 26.265625 48.484375 22.1875 42.84375 
Q 18.109375 37.203125 18.109375 27.296875 
Q 18.109375 17.390625 22.1875 11.75 
Q 26.265625 6.109375 33.40625 6.109375 
Q 40.53125 6.109375 44.609375 11.75 
Q 48.6875 17.390625 48.6875 27.296875 
z
M 18.109375 46.390625 
Q 20.953125 51.265625 25.265625 53.625 
Q 29.59375 56 35.59375 56 
Q 45.5625 56 51.78125 48.09375 
Q 58.015625 40.1875 58.015625 27.296875 
Q 58.015625 14.40625 51.78125 6.484375 
Q 45.5625 -1.421875 35.59375 -1.421875 
Q 29.59375 -1.421875 25.265625 0.953125 
Q 20.953125 3.328125 18.109375 8.203125 
L 18.109375 0 
L 9.078125 0 
L 9.078125 75.984375 
L 18.109375 75.984375 
z
" id="DejaVuSans-98"/>
     <path d="M 8.5 21.578125 
L 8.5 54.6875 
L 17.484375 54.6875 
L 17.484375 21.921875 
Q 17.484375 14.15625 20.5 10.265625 
Q 23.53125 6.390625 29.59375 6.390625 
Q 36.859375 6.390625 41.078125 11.03125 
Q 45.3125 15.671875 45.3125 23.6875 
L 45.3125 54.6875 
L 54.296875 54.6875 
L 54.296875 0 
L 45.3125 0 
L 45.3125 8.40625 
Q 42.046875 3.421875 37.71875 1 
Q 33.40625 -1.421875 27.6875 -1.421875 
Q 18.265625 -1.421875 13.375 4.4375 
Q 8.5 10.296875 8.5 21.578125 
z
M 31.109375 56 
z
" id="DejaVuSans-117"/>
     <path d="M 56.203125 29.59375 
L 56.203125 25.203125 
L 14.890625 25.203125 
Q 15.484375 15.921875 20.484375 11.0625 
Q 25.484375 6.203125 34.421875 6.203125 
Q 39.59375 6.203125 44.453125 7.46875 
Q 49.3125 8.734375 54.109375 11.28125 
L 54.109375 2.78125 
Q 49.265625 0.734375 44.1875 -0.34375 
Q 39.109375 -1.421875 33.890625 -1.421875 
Q 20.796875 -1.421875 13.15625 6.1875 
Q 5.515625 13.8125 5.515625 26.8125 
Q 5.515625 40.234375 12.765625 48.109375 
Q 20.015625 56 32.328125 56 
Q 43.359375 56 49.78125 48.890625 
Q 56.203125 41.796875 56.203125 29.59375 
z
M 47.21875 32.234375 
Q 47.125 39.59375 43.09375 43.984375 
Q 39.0625 48.390625 32.421875 48.390625 
Q 24.90625 48.390625 20.390625 44.140625 
Q 15.875 39.890625 15.1875 32.171875 
z
" id="DejaVuSans-101"/>
    </defs>
    <g transform="translate(62.208 609.174178)scale(0.14 -0.14)">
     <use xlink:href="#DejaVuSans-97"/>
     <use x="61.279297" xlink:href="#DejaVuSans-98"/>
     <use x="124.755859" xlink:href="#DejaVuSans-115"/>
     <use x="176.855469" xlink:href="#DejaVuSans-111"/>
     <use x="238.037109" xlink:href="#DejaVuSans-108"/>
     <use x="265.820312" xlink:href="#DejaVuSans-117"/>
     <use x="329.199219" xlink:href="#DejaVuSans-116"/>
     <use x="368.408203" xlink:href="#DejaVuSans-101"/>
     <use x="429.931641" xlink:href="#DejaVuSans-32"/>
     <use x="461.71875" xlink:href="#DejaVuSans-116"/>
     <use x="500.927734" xlink:href="#DejaVuSans-97"/>
     <use x="562.207031" xlink:href="#DejaVuSans-114"/>
     <use x="603.304688" xlink:href="#DejaVuSans-103"/>
     <use x="666.78125" xlink:href="#DejaVuSans-101"/>
     <use x="728.304688" xlink:href="#DejaVuSans-116"/>
     <use x="767.513672" xlink:href="#DejaVuSans-115"/>
    </g>
   </g>
   <g id="text_13">
    <!-- v2.4 -->
    <g style="fill:#808080;" transform="translate(250.593063 288.777272)scale(0.1 -0.1)">
     <use xlink:href="#DejaVuSans-118"/>
     <use x="59.179688" xlink:href="#DejaVuSans-50"/>
     <use x="122.802734" xlink:href="#DejaVuSans-46"/>
     <use x="154.589844" xlink:href="#DejaVuSans-52"/>
    </g>
   </g>
   <g id="legend_1">
    <g id="patch_7">
     <path d="M 299.34375 136.881 
L 446.8 136.881 
Q 450.8 136.881 450.8 132.881 
L 450.8 17.456 
Q 450.8 13.456 446.8 13.456 
L 299.34375 13.456 
Q 295.34375 13.456 295.34375 17.456 
L 295.34375 132.881 
Q 295.34375 136.881 299.34375 136.881 
z
" style="fill:#ffffff;opacity:0.2;stroke:#cccccc;stroke-linejoin:miter;"/>
    </g>
    <g id="line2d_85">
     <path d="M 303.34375 29.652875 
L 343.34375 29.652875 
" style="fill:none;stroke:#000000;stroke-linecap:square;stroke-width:1.5;"/>
    </g>
    <g id="line2d_86"/>
    <g id="text_14">
     <!-- 1: 10/24 -->
     <defs>
      <path d="M 11.71875 12.40625 
L 22.015625 12.40625 
L 22.015625 0 
L 11.71875 0 
z
M 11.71875 51.703125 
L 22.015625 51.703125 
L 22.015625 39.3125 
L 11.71875 39.3125 
z
" id="DejaVuSans-58"/>
     </defs>
     <g transform="translate(359.34375 36.652875)scale(0.2 -0.2)">
      <use xlink:href="#DejaVuSans-49"/>
      <use x="63.623047" xlink:href="#DejaVuSans-58"/>
      <use x="97.314453" xlink:href="#DejaVuSans-32"/>
      <use x="129.101562" xlink:href="#DejaVuSans-49"/>
      <use x="192.724609" xlink:href="#DejaVuSans-48"/>
      <use x="256.347656" xlink:href="#DejaVuSans-47"/>
      <use x="290.039062" xlink:href="#DejaVuSans-50"/>
      <use x="353.662109" xlink:href="#DejaVuSans-52"/>
     </g>
    </g>
    <g id="line2d_87">
     <path d="M 303.34375 59.009125 
L 343.34375 59.009125 
" style="fill:none;stroke:#00bfbf;stroke-linecap:square;stroke-width:1.5;"/>
    </g>
    <g id="line2d_88"/>
    <g id="text_15">
     <!-- -1: 0/24 -->
     <g transform="translate(359.34375 66.009125)scale(0.2 -0.2)">
      <use xlink:href="#DejaVuSans-45"/>
      <use x="36.083984" xlink:href="#DejaVuSans-49"/>
      <use x="99.707031" xlink:href="#DejaVuSans-58"/>
      <use x="133.398438" xlink:href="#DejaVuSans-32"/>
      <use x="165.185547" xlink:href="#DejaVuSans-48"/>
      <use x="228.808594" xlink:href="#DejaVuSans-47"/>
      <use x="262.5" xlink:href="#DejaVuSans-50"/>
      <use x="326.123047" xlink:href="#DejaVuSans-52"/>
     </g>
    </g>
    <g id="line2d_89">
     <path d="M 303.34375 88.365375 
L 343.34375 88.365375 
" style="fill:none;stroke:#bf00bf;stroke-linecap:square;stroke-width:1.5;"/>
    </g>
    <g id="line2d_90"/>
    <g id="text_16">
     <!-- -4: 0/24 -->
     <g transform="translate(359.34375 95.365375)scale(0.2 -0.2)">
      <use xlink:href="#DejaVuSans-45"/>
      <use x="36.083984" xlink:href="#DejaVuSans-52"/>
      <use x="99.707031" xlink:href="#DejaVuSans-58"/>
      <use x="133.398438" xlink:href="#DejaVuSans-32"/>
      <use x="165.185547" xlink:href="#DejaVuSans-48"/>
      <use x="228.808594" xlink:href="#DejaVuSans-47"/>
      <use x="262.5" xlink:href="#DejaVuSans-50"/>
      <use x="326.123047" xlink:href="#DejaVuSans-52"/>
     </g>
    </g>
    <g id="line2d_91">
     <path d="M 303.34375 117.721625 
L 343.34375 117.721625 
" style="fill:none;stroke:#ff0000;stroke-linecap:square;stroke-width:3;"/>
    </g>
    <g id="line2d_92"/>
    <g id="text_17">
     <!-- -8: 0/24 -->
     <g transform="translate(359.34375 124.721625)scale(0.2 -0.2)">
      <use xlink:href="#DejaVuSans-45"/>
      <use x="36.083984" xlink:href="#DejaVuSans-56"/>
      <use x="99.707031" xlink:href="#DejaVuSans-58"/>
      <use x="133.398438" xlink:href="#DejaVuSans-32"/>
      <use x="165.185547" xlink:href="#DejaVuSans-48"/>
      <use x="228.808594" xlink:href="#DejaVuSans-47"/>
      <use x="262.5" xlink:href="#DejaVuSans-50"/>
      <use x="326.123047" xlink:href="#DejaVuSans-52"/>
     </g>
    </g>
   </g>
  </g>
 </g>
 <defs>
  <clipPath id="pd071fb19e7">
   <rect height="290.304" width="398.592" x="62.208" y="3.456"/>
  </clipPath>
 </defs>
</svg>
