<?xml version="1.0" encoding="utf-8" standalone="no"?>
<!DOCTYPE svg PUBLIC "-//W3C//DTD SVG 1.1//EN"
  "http://www.w3.org/Graphics/SVG/1.1/DTD/svg11.dtd">
<!-- Created with matplotlib (https://matplotlib.org/) -->
<svg height="345.6pt" version="1.1" viewBox="0 0 460.8 345.6" width="460.8pt" xmlns="http://www.w3.org/2000/svg" xmlns:xlink="http://www.w3.org/1999/xlink">
 <defs>
  <style type="text/css">
*{stroke-linecap:butt;stroke-linejoin:round;}
  </style>
 </defs>
 <g id="figure_1">
  <g id="patch_1">
   <path d="M 0 345.6 
L 460.8 345.6 
L 460.8 0 
L 0 0 
z
" style="fill:#ffffff;"/>
  </g>
  <g id="axes_1">
   <g id="patch_2">
    <path d="M 0 293.76 
L 460.8 293.76 
L 460.8 3.456 
L 0 3.456 
z
" style="fill:#ffffff;"/>
   </g>
   <g id="matplotlib.axis_1">
    <g id="xtick_1">
     <g id="line2d_1">
      <path clip-path="url(#p3e971e2693)" d="M 107.893076 293.76 
L 107.893076 3.456 
" style="fill:none;stroke:#b0b0b0;stroke-linecap:square;stroke-width:0.8;"/>
     </g>
     <g id="line2d_2">
      <defs>
       <path d="M 0 0 
L 0 3.5 
" id="ma691099764" style="stroke:#000000;stroke-width:0.8;"/>
      </defs>
      <g>
       <use style="stroke:#000000;stroke-width:0.8;" x="107.893076" xlink:href="#ma691099764" y="293.76"/>
      </g>
     </g>
     <g id="text_1">
      <!-- -4 -->
      <defs>
       <path d="M 4.890625 31.390625 
L 31.203125 31.390625 
L 31.203125 23.390625 
L 4.890625 23.390625 
z
" id="DejaVuSans-45"/>
       <path d="M 37.796875 64.3125 
L 12.890625 25.390625 
L 37.796875 25.390625 
z
M 35.203125 72.90625 
L 47.609375 72.90625 
L 47.609375 25.390625 
L 58.015625 25.390625 
L 58.015625 17.1875 
L 47.609375 17.1875 
L 47.609375 0 
L 37.796875 0 
L 37.796875 17.1875 
L 4.890625 17.1875 
L 4.890625 26.703125 
z
" id="DejaVuSans-52"/>
      </defs>
      <g transform="translate(97.922764 315.956875)scale(0.2 -0.2)">
       <use xlink:href="#DejaVuSans-45"/>
       <use x="36.083984" xlink:href="#DejaVuSans-52"/>
      </g>
     </g>
    </g>
    <g id="xtick_2">
     <g id="line2d_3">
      <path clip-path="url(#p3e971e2693)" d="M 215.90284 293.76 
L 215.90284 3.456 
" style="fill:none;stroke:#b0b0b0;stroke-linecap:square;stroke-width:0.8;"/>
     </g>
     <g id="line2d_4">
      <g>
       <use style="stroke:#000000;stroke-width:0.8;" x="215.90284" xlink:href="#ma691099764" y="293.76"/>
      </g>
     </g>
     <g id="text_2">
      <!-- 0 -->
      <defs>
       <path d="M 31.78125 66.40625 
Q 24.171875 66.40625 20.328125 58.90625 
Q 16.5 51.421875 16.5 36.375 
Q 16.5 21.390625 20.328125 13.890625 
Q 24.171875 6.390625 31.78125 6.390625 
Q 39.453125 6.390625 43.28125 13.890625 
Q 47.125 21.390625 47.125 36.375 
Q 47.125 51.421875 43.28125 58.90625 
Q 39.453125 66.40625 31.78125 66.40625 
z
M 31.78125 74.21875 
Q 44.046875 74.21875 50.515625 64.515625 
Q 56.984375 54.828125 56.984375 36.375 
Q 56.984375 17.96875 50.515625 8.265625 
Q 44.046875 -1.421875 31.78125 -1.421875 
Q 19.53125 -1.421875 13.0625 8.265625 
Q 6.59375 17.96875 6.59375 36.375 
Q 6.59375 54.828125 13.0625 64.515625 
Q 19.53125 74.21875 31.78125 74.21875 
z
" id="DejaVuSans-48"/>
      </defs>
      <g transform="translate(209.54034 315.956875)scale(0.2 -0.2)">
       <use xlink:href="#DejaVuSans-48"/>
      </g>
     </g>
    </g>
    <g id="xtick_3">
     <g id="line2d_5">
      <path clip-path="url(#p3e971e2693)" d="M 323.912604 293.76 
L 323.912604 3.456 
" style="fill:none;stroke:#b0b0b0;stroke-linecap:square;stroke-width:0.8;"/>
     </g>
     <g id="line2d_6">
      <g>
       <use style="stroke:#000000;stroke-width:0.8;" x="323.912604" xlink:href="#ma691099764" y="293.76"/>
      </g>
     </g>
     <g id="text_3">
      <!-- 4 -->
      <g transform="translate(317.550104 315.956875)scale(0.2 -0.2)">
       <use xlink:href="#DejaVuSans-52"/>
      </g>
     </g>
    </g>
    <g id="xtick_4">
     <g id="line2d_7">
      <path clip-path="url(#p3e971e2693)" d="M 431.922368 293.76 
L 431.922368 3.456 
" style="fill:none;stroke:#b0b0b0;stroke-linecap:square;stroke-width:0.8;"/>
     </g>
     <g id="line2d_8">
      <g>
       <use style="stroke:#000000;stroke-width:0.8;" x="431.922368" xlink:href="#ma691099764" y="293.76"/>
      </g>
     </g>
     <g id="text_4">
      <!-- 8 -->
      <defs>
       <path d="M 31.78125 34.625 
Q 24.75 34.625 20.71875 30.859375 
Q 16.703125 27.09375 16.703125 20.515625 
Q 16.703125 13.921875 20.71875 10.15625 
Q 24.75 6.390625 31.78125 6.390625 
Q 38.8125 6.390625 42.859375 10.171875 
Q 46.921875 13.96875 46.921875 20.515625 
Q 46.921875 27.09375 42.890625 30.859375 
Q 38.875 34.625 31.78125 34.625 
z
M 21.921875 38.8125 
Q 15.578125 40.375 12.03125 44.71875 
Q 8.5 49.078125 8.5 55.328125 
Q 8.5 64.0625 14.71875 69.140625 
Q 20.953125 74.21875 31.78125 74.21875 
Q 42.671875 74.21875 48.875 69.140625 
Q 55.078125 64.0625 55.078125 55.328125 
Q 55.078125 49.078125 51.53125 44.71875 
Q 48 40.375 41.703125 38.8125 
Q 48.828125 37.15625 52.796875 32.3125 
Q 56.78125 27.484375 56.78125 20.515625 
Q 56.78125 9.90625 50.3125 4.234375 
Q 43.84375 -1.421875 31.78125 -1.421875 
Q 19.734375 -1.421875 13.25 4.234375 
Q 6.78125 9.90625 6.78125 20.515625 
Q 6.78125 27.484375 10.78125 32.3125 
Q 14.796875 37.15625 21.921875 38.8125 
z
M 18.3125 54.390625 
Q 18.3125 48.734375 21.84375 45.5625 
Q 25.390625 42.390625 31.78125 42.390625 
Q 38.140625 42.390625 41.71875 45.5625 
Q 45.3125 48.734375 45.3125 54.390625 
Q 45.3125 60.0625 41.71875 63.234375 
Q 38.140625 66.40625 31.78125 66.40625 
Q 25.390625 66.40625 21.84375 63.234375 
Q 18.3125 60.0625 18.3125 54.390625 
z
" id="DejaVuSans-56"/>
      </defs>
      <g transform="translate(425.559868 315.956875)scale(0.2 -0.2)">
       <use xlink:href="#DejaVuSans-56"/>
      </g>
     </g>
    </g>
    <g id="text_5">
     <!-- log10 of Df -->
     <defs>
      <path d="M 9.421875 75.984375 
L 18.40625 75.984375 
L 18.40625 0 
L 9.421875 0 
z
" id="DejaVuSans-108"/>
      <path d="M 30.609375 48.390625 
Q 23.390625 48.390625 19.1875 42.75 
Q 14.984375 37.109375 14.984375 27.296875 
Q 14.984375 17.484375 19.15625 11.84375 
Q 23.34375 6.203125 30.609375 6.203125 
Q 37.796875 6.203125 41.984375 11.859375 
Q 46.1875 17.53125 46.1875 27.296875 
Q 46.1875 37.015625 41.984375 42.703125 
Q 37.796875 48.390625 30.609375 48.390625 
z
M 30.609375 56 
Q 42.328125 56 49.015625 48.375 
Q 55.71875 40.765625 55.71875 27.296875 
Q 55.71875 13.875 49.015625 6.21875 
Q 42.328125 -1.421875 30.609375 -1.421875 
Q 18.84375 -1.421875 12.171875 6.21875 
Q 5.515625 13.875 5.515625 27.296875 
Q 5.515625 40.765625 12.171875 48.375 
Q 18.84375 56 30.609375 56 
z
" id="DejaVuSans-111"/>
      <path d="M 45.40625 27.984375 
Q 45.40625 37.75 41.375 43.109375 
Q 37.359375 48.484375 30.078125 48.484375 
Q 22.859375 48.484375 18.828125 43.109375 
Q 14.796875 37.75 14.796875 27.984375 
Q 14.796875 18.265625 18.828125 12.890625 
Q 22.859375 7.515625 30.078125 7.515625 
Q 37.359375 7.515625 41.375 12.890625 
Q 45.40625 18.265625 45.40625 27.984375 
z
M 54.390625 6.78125 
Q 54.390625 -7.171875 48.1875 -13.984375 
Q 42 -20.796875 29.203125 -20.796875 
Q 24.46875 -20.796875 20.265625 -20.09375 
Q 16.0625 -19.390625 12.109375 -17.921875 
L 12.109375 -9.1875 
Q 16.0625 -11.328125 19.921875 -12.34375 
Q 23.78125 -13.375 27.78125 -13.375 
Q 36.625 -13.375 41.015625 -8.765625 
Q 45.40625 -4.15625 45.40625 5.171875 
L 45.40625 9.625 
Q 42.625 4.78125 38.28125 2.390625 
Q 33.9375 0 27.875 0 
Q 17.828125 0 11.671875 7.65625 
Q 5.515625 15.328125 5.515625 27.984375 
Q 5.515625 40.671875 11.671875 48.328125 
Q 17.828125 56 27.875 56 
Q 33.9375 56 38.28125 53.609375 
Q 42.625 51.21875 45.40625 46.390625 
L 45.40625 54.6875 
L 54.390625 54.6875 
z
" id="DejaVuSans-103"/>
      <path d="M 12.40625 8.296875 
L 28.515625 8.296875 
L 28.515625 63.921875 
L 10.984375 60.40625 
L 10.984375 69.390625 
L 28.421875 72.90625 
L 38.28125 72.90625 
L 38.28125 8.296875 
L 54.390625 8.296875 
L 54.390625 0 
L 12.40625 0 
z
" id="DejaVuSans-49"/>
      <path id="DejaVuSans-32"/>
      <path d="M 37.109375 75.984375 
L 37.109375 68.5 
L 28.515625 68.5 
Q 23.6875 68.5 21.796875 66.546875 
Q 19.921875 64.59375 19.921875 59.515625 
L 19.921875 54.6875 
L 34.71875 54.6875 
L 34.71875 47.703125 
L 19.921875 47.703125 
L 19.921875 0 
L 10.890625 0 
L 10.890625 47.703125 
L 2.296875 47.703125 
L 2.296875 54.6875 
L 10.890625 54.6875 
L 10.890625 58.5 
Q 10.890625 67.625 15.140625 71.796875 
Q 19.390625 75.984375 28.609375 75.984375 
z
" id="DejaVuSans-102"/>
      <path d="M 19.671875 64.796875 
L 19.671875 8.109375 
L 31.59375 8.109375 
Q 46.6875 8.109375 53.6875 14.9375 
Q 60.6875 21.78125 60.6875 36.53125 
Q 60.6875 51.171875 53.6875 57.984375 
Q 46.6875 64.796875 31.59375 64.796875 
z
M 9.8125 72.90625 
L 30.078125 72.90625 
Q 51.265625 72.90625 61.171875 64.09375 
Q 71.09375 55.28125 71.09375 36.53125 
Q 71.09375 17.671875 61.125 8.828125 
Q 51.171875 0 30.078125 0 
L 9.8125 0 
z
" id="DejaVuSans-68"/>
     </defs>
     <g transform="translate(175.214063 339.313125)scale(0.2 -0.2)">
      <use xlink:href="#DejaVuSans-108"/>
      <use x="27.783203" xlink:href="#DejaVuSans-111"/>
      <use x="88.964844" xlink:href="#DejaVuSans-103"/>
      <use x="152.441406" xlink:href="#DejaVuSans-49"/>
      <use x="216.064453" xlink:href="#DejaVuSans-48"/>
      <use x="279.6875" xlink:href="#DejaVuSans-32"/>
      <use x="311.474609" xlink:href="#DejaVuSans-111"/>
      <use x="372.65625" xlink:href="#DejaVuSans-102"/>
      <use x="407.861328" xlink:href="#DejaVuSans-32"/>
      <use x="439.648438" xlink:href="#DejaVuSans-68"/>
      <use x="516.650391" xlink:href="#DejaVuSans-102"/>
     </g>
    </g>
   </g>
   <g id="matplotlib.axis_2">
    <g id="ytick_1">
     <g id="line2d_9">
      <path clip-path="url(#p3e971e2693)" d="M 0 293.76 
L 460.8 293.76 
" style="fill:none;stroke:#b0b0b0;stroke-linecap:square;stroke-width:0.8;"/>
     </g>
     <g id="line2d_10">
      <defs>
       <path d="M 0 0 
L -3.5 0 
" id="mea3ddc7f9e" style="stroke:#000000;stroke-width:0.8;"/>
      </defs>
      <g>
       <use style="stroke:#000000;stroke-width:0.8;" x="0" xlink:href="#mea3ddc7f9e" y="293.76"/>
      </g>
     </g>
    </g>
    <g id="ytick_2">
     <g id="line2d_11">
      <path clip-path="url(#p3e971e2693)" d="M 0 236.274059 
L 460.8 236.274059 
" style="fill:none;stroke:#b0b0b0;stroke-linecap:square;stroke-width:0.8;"/>
     </g>
     <g id="line2d_12">
      <g>
       <use style="stroke:#000000;stroke-width:0.8;" x="0" xlink:href="#mea3ddc7f9e" y="236.274059"/>
      </g>
     </g>
    </g>
    <g id="ytick_3">
     <g id="line2d_13">
      <path clip-path="url(#p3e971e2693)" d="M 0 178.788119 
L 460.8 178.788119 
" style="fill:none;stroke:#b0b0b0;stroke-linecap:square;stroke-width:0.8;"/>
     </g>
     <g id="line2d_14">
      <g>
       <use style="stroke:#000000;stroke-width:0.8;" x="0" xlink:href="#mea3ddc7f9e" y="178.788119"/>
      </g>
     </g>
    </g>
    <g id="ytick_4">
     <g id="line2d_15">
      <path clip-path="url(#p3e971e2693)" d="M 0 121.302178 
L 460.8 121.302178 
" style="fill:none;stroke:#b0b0b0;stroke-linecap:square;stroke-width:0.8;"/>
     </g>
     <g id="line2d_16">
      <g>
       <use style="stroke:#000000;stroke-width:0.8;" x="0" xlink:href="#mea3ddc7f9e" y="121.302178"/>
      </g>
     </g>
    </g>
    <g id="ytick_5">
     <g id="line2d_17">
      <path clip-path="url(#p3e971e2693)" d="M 0 63.816238 
L 460.8 63.816238 
" style="fill:none;stroke:#b0b0b0;stroke-linecap:square;stroke-width:0.8;"/>
     </g>
     <g id="line2d_18">
      <g>
       <use style="stroke:#000000;stroke-width:0.8;" x="0" xlink:href="#mea3ddc7f9e" y="63.816238"/>
      </g>
     </g>
    </g>
    <g id="ytick_6">
     <g id="line2d_19">
      <path clip-path="url(#p3e971e2693)" d="M 0 6.330297 
L 460.8 6.330297 
" style="fill:none;stroke:#b0b0b0;stroke-linecap:square;stroke-width:0.8;"/>
     </g>
     <g id="line2d_20">
      <g>
       <use style="stroke:#000000;stroke-width:0.8;" x="0" xlink:href="#mea3ddc7f9e" y="6.330297"/>
      </g>
     </g>
    </g>
   </g>
   <g id="line2d_21">
    <path clip-path="url(#p3e971e2693)" d="M 214.739751 293.76 
L 214.739751 292.961584 
L 215.515607 292.961584 
L 215.515607 292.163168 
L 216.709053 292.163168 
L 216.709053 291.364752 
L 219.70131 291.364752 
L 219.70131 290.566337 
L 221.290265 290.566337 
L 221.290265 289.767921 
L 222.605197 289.767921 
L 222.605197 288.969505 
L 223.45286 288.969505 
L 223.45286 288.171089 
L 223.624488 288.171089 
L 223.624488 287.372673 
L 224.111663 287.372673 
L 224.199398 285.775842 
L 224.257624 285.775842 
L 224.257624 284.977426 
L 224.609007 284.977426 
L 224.627621 283.380594 
L 225.02717 283.380594 
L 225.02717 282.582178 
L 225.173182 282.582178 
L 225.173182 281.783762 
L 225.372827 281.783762 
L 225.372827 280.985347 
L 225.511322 280.985347 
L 225.511322 280.186931 
L 225.804775 280.186931 
L 225.804775 279.388515 
L 226.388644 279.388515 
L 226.405969 277.791683 
L 227.617861 277.791683 
L 227.692855 275.396436 
L 228.103757 275.396436 
L 228.103757 274.59802 
L 228.447401 274.59802 
L 228.447401 273.799604 
L 228.559295 273.799604 
L 228.595379 272.202772 
L 228.897032 272.202772 
L 228.956442 269.807525 
L 229.102365 269.807525 
L 229.102365 269.009109 
L 229.747319 269.009109 
L 229.747319 268.210693 
L 229.971314 268.210693 
L 229.971314 267.412277 
L 230.124216 267.412277 
L 230.220071 265.01703 
L 230.597518 265.01703 
L 230.686817 262.621782 
L 230.799264 262.621782 
L 230.909761 261.02495 
L 230.963602 261.02495 
L 230.963602 260.226535 
L 231.089681 260.226535 
L 231.089681 259.428119 
L 231.297664 259.428119 
L 231.384765 257.831287 
L 231.625765 257.831287 
L 231.625765 257.032871 
L 231.739072 257.032871 
L 231.833684 255.43604 
L 232.100082 255.43604 
L 232.125051 253.839208 
L 232.241554 253.839208 
L 232.241554 253.040792 
L 232.378134 253.040792 
L 232.378134 252.242376 
L 232.652153 252.242376 
L 232.652153 251.44396 
L 232.826377 251.44396 
L 232.911205 249.048713 
L 233.017107 249.048713 
L 233.017107 248.250297 
L 233.345271 248.250297 
L 233.417465 245.85505 
L 233.704755 245.85505 
L 233.704755 245.056634 
L 234.137916 245.056634 
L 234.173457 243.459802 
L 234.374912 243.459802 
L 234.374912 242.661386 
L 234.544675 242.661386 
L 234.544675 241.86297 
L 234.807637 241.86297 
L 234.878303 240.266139 
L 235.380644 240.266139 
L 235.380644 239.467723 
L 235.55111 239.467723 
L 235.624854 237.870891 
L 235.805139 237.870891 
L 235.856994 236.274059 
L 235.93145 236.274059 
L 235.93145 235.475644 
L 236.103663 235.475644 
L 236.103663 234.677228 
L 236.457284 234.677228 
L 236.457284 233.878812 
L 236.87822 233.878812 
L 236.965196 232.28198 
L 237.002106 232.28198 
L 237.09499 230.685149 
L 237.994535 230.685149 
L 238.029066 229.088317 
L 238.165048 229.088317 
L 238.165048 228.289901 
L 238.472725 228.289901 
L 238.472725 227.491485 
L 239.40646 227.491485 
L 239.40646 226.693069 
L 240.280036 226.693069 
L 240.31863 225.096238 
L 241.051641 225.096238 
L 241.051641 224.297822 
L 241.587263 224.297822 
L 241.615921 222.70099 
L 241.731012 222.70099 
L 241.731012 221.902574 
L 242.194467 221.902574 
L 242.293428 219.507327 
L 242.354634 219.507327 
L 242.40523 217.910495 
L 242.971442 217.910495 
L 242.971442 217.112079 
L 243.306947 217.112079 
L 243.306947 216.313663 
L 243.459654 216.313663 
L 243.459654 215.515248 
L 244.221692 215.515248 
L 244.221692 214.716832 
L 244.685761 214.716832 
L 244.7357 213.12 
L 245.046299 213.12 
L 245.046299 212.321584 
L 245.249353 212.321584 
L 245.307357 210.724752 
L 245.404496 210.724752 
L 245.404496 209.926337 
L 245.731027 209.926337 
L 245.731027 209.127921 
L 245.893125 209.127921 
L 245.893125 208.329505 
L 246.112994 208.329505 
L 246.127569 206.732673 
L 246.803405 206.732673 
L 246.904545 205.135842 
L 246.921941 205.135842 
L 246.921941 204.337426 
L 247.384051 204.337426 
L 247.384051 203.53901 
L 247.946261 203.53901 
L 247.946261 202.740594 
L 248.533705 202.740594 
L 248.533705 201.942178 
L 248.732812 201.942178 
L 248.732812 201.143762 
L 248.977326 201.143762 
L 249.088271 198.748515 
L 249.157636 198.748515 
L 249.168458 197.151683 
L 249.449125 197.151683 
L 249.534356 195.554851 
L 249.594838 195.554851 
L 249.620239 193.95802 
L 249.730904 193.95802 
L 249.792975 190.764356 
L 250.230392 190.764356 
L 250.328791 189.167525 
L 250.432752 189.167525 
L 250.432752 188.369109 
L 250.76277 188.369109 
L 250.873871 186.772277 
L 250.985188 186.772277 
L 250.985188 185.973861 
L 251.116921 185.973861 
L 251.116921 185.175446 
L 251.273304 185.175446 
L 251.346498 183.578614 
L 251.515602 183.578614 
L 251.515602 182.780198 
L 251.694046 182.780198 
L 251.753197 181.183366 
L 251.939761 181.183366 
L 252.02069 179.586535 
L 252.296321 179.586535 
L 252.296321 178.788119 
L 252.45901 178.788119 
L 252.500691 177.191287 
L 253.417319 177.191287 
L 253.417319 176.392871 
L 253.545165 176.392871 
L 253.545165 175.594455 
L 254.078326 175.594455 
L 254.078326 174.79604 
L 254.219241 174.79604 
L 254.23947 173.199208 
L 254.375806 173.199208 
L 254.466843 170.005545 
L 255.394784 170.005545 
L 255.394784 169.207129 
L 255.506437 169.207129 
L 255.553234 167.610297 
L 255.935943 167.610297 
L 255.935943 166.811881 
L 256.586187 166.811881 
L 256.675099 165.21505 
L 256.995052 165.21505 
L 256.995052 164.416634 
L 257.546795 164.416634 
L 257.546795 163.618218 
L 257.722298 163.618218 
L 257.722298 162.819802 
L 258.218956 162.819802 
L 258.23263 160.424554 
L 258.575449 160.424554 
L 258.575449 159.626139 
L 258.764172 159.626139 
L 258.787926 158.029307 
L 258.909233 158.029307 
L 258.909233 157.230891 
L 259.125862 157.230891 
L 259.133681 155.634059 
L 259.462738 155.634059 
L 259.563234 154.037228 
L 259.627745 154.037228 
L 259.685558 152.440396 
L 259.950532 152.440396 
L 259.950532 151.64198 
L 260.252361 151.64198 
L 260.259827 150.045149 
L 260.42412 150.045149 
L 260.447819 148.448317 
L 260.599361 148.448317 
L 260.60074 146.851485 
L 260.837087 146.851485 
L 260.855349 144.456238 
L 261.034043 144.456238 
L 261.128815 142.06099 
L 261.158269 142.06099 
L 261.158269 141.262574 
L 261.322994 141.262574 
L 261.322994 140.464158 
L 261.436626 140.464158 
L 261.523506 138.867327 
L 261.647652 138.867327 
L 261.647652 138.068911 
L 261.871956 138.068911 
L 261.871956 137.270495 
L 261.99807 137.270495 
L 262.073313 134.875248 
L 262.19562 134.875248 
L 262.19562 134.076832 
L 262.464573 134.076832 
L 262.50204 131.681584 
L 262.755875 131.681584 
L 262.835124 129.286337 
L 263.071543 129.286337 
L 263.071543 128.487921 
L 263.218157 128.487921 
L 263.229464 126.891089 
L 263.367032 126.891089 
L 263.394437 125.294257 
L 263.829886 125.294257 
L 263.829886 124.495842 
L 263.999691 124.495842 
L 263.999691 123.697426 
L 264.127767 123.697426 
L 264.234331 121.302178 
L 264.728152 121.302178 
L 264.728152 120.503762 
L 265.024138 120.503762 
L 265.031888 118.906931 
L 265.572672 118.906931 
L 265.676159 116.511683 
L 265.753254 116.511683 
L 265.753254 115.713267 
L 266.203879 115.713267 
L 266.203879 114.914851 
L 266.323856 114.914851 
L 266.323856 114.116436 
L 266.462888 114.116436 
L 266.462888 113.31802 
L 266.667194 113.31802 
L 266.667194 112.519604 
L 266.874439 112.519604 
L 266.874439 111.721188 
L 267.064424 111.721188 
L 267.118541 110.124356 
L 267.273967 110.124356 
L 267.37954 108.527525 
L 267.431647 108.527525 
L 267.431647 107.729109 
L 267.634928 107.729109 
L 267.649796 106.132277 
L 268.369376 106.132277 
L 268.369376 105.333861 
L 268.63439 105.333861 
L 268.63439 104.535446 
L 268.831735 104.535446 
L 268.930067 102.938614 
L 269.194647 102.938614 
L 269.194647 102.140198 
L 269.400438 102.140198 
L 269.409503 100.543366 
L 269.551891 100.543366 
L 269.655442 98.946535 
L 270.063111 98.946535 
L 270.063111 98.148119 
L 270.36531 98.148119 
L 270.36531 97.349703 
L 271.399524 97.349703 
L 271.399524 96.551287 
L 272.097334 96.551287 
L 272.097334 95.752871 
L 272.303327 95.752871 
L 272.336919 94.15604 
L 272.842793 94.15604 
L 272.8718 92.559208 
L 273.00151 92.559208 
L 273.00151 91.760792 
L 273.21686 91.760792 
L 273.292743 90.16396 
L 273.702767 90.16396 
L 273.702767 89.365545 
L 274.163035 89.365545 
L 274.163035 88.567129 
L 274.742139 88.567129 
L 274.742139 87.768713 
L 275.659789 87.768713 
L 275.767148 85.373465 
L 276.42729 85.373465 
L 276.42729 84.57505 
L 279.996716 84.57505 
L 279.996716 83.776634 
L 281.066395 83.776634 
L 281.066395 82.978218 
L 281.291272 82.978218 
L 281.291272 82.179802 
L 282.798485 82.179802 
L 282.798485 81.381386 
L 283.016302 81.381386 
L 283.016302 80.58297 
L 283.181133 80.58297 
L 283.181133 79.784554 
L 283.668842 79.784554 
L 283.668842 78.986139 
L 283.803688 78.986139 
L 283.862386 77.389307 
L 283.97252 77.389307 
L 283.97252 76.590891 
L 285.252665 76.590891 
L 285.318387 74.994059 
L 286.934823 74.994059 
L 286.935363 73.397228 
L 287.387665 73.397228 
L 287.387665 72.598812 
L 287.647178 72.598812 
L 287.647178 71.800396 
L 288.118708 71.800396 
L 288.118708 71.00198 
L 288.304758 71.00198 
L 288.304758 70.203564 
L 288.730422 70.203564 
L 288.730422 69.405149 
L 288.869936 69.405149 
L 288.869936 68.606733 
L 289.090987 68.606733 
L 289.090987 67.808317 
L 289.609246 67.808317 
L 289.609246 67.009901 
L 290.607185 67.009901 
L 290.607185 66.211485 
L 292.381331 66.211485 
L 292.381331 65.413069 
L 292.61943 65.413069 
L 292.61943 64.614653 
L 293.615101 64.614653 
L 293.615101 63.816238 
L 294.735059 63.816238 
L 294.735059 63.017822 
L 295.090855 63.017822 
L 295.090855 62.219406 
L 297.184825 62.219406 
L 297.184825 61.42099 
L 297.929293 61.42099 
L 297.929293 60.622574 
L 299.006816 60.622574 
L 299.006816 59.824158 
L 299.464184 59.824158 
L 299.464184 59.025743 
L 299.57633 59.025743 
L 299.57633 58.227327 
L 300.319458 58.227327 
L 300.415335 56.630495 
L 300.64161 56.630495 
L 300.64161 55.832079 
L 303.327788 55.832079 
L 303.327788 55.033663 
L 306.029934 55.033663 
L 306.029934 54.235248 
L 307.509155 54.235248 
L 307.509155 53.436832 
L 308.695222 53.436832 
L 308.695222 52.638416 
L 309.071829 52.638416 
L 309.071829 51.84 
L 311.361955 51.84 
L 311.361955 51.041584 
L 311.893575 51.041584 
L 311.893575 50.243168 
L 312.174726 50.243168 
L 312.174726 49.444752 
L 313.730847 49.444752 
L 313.730847 48.646337 
L 314.282002 48.646337 
L 314.282002 47.847921 
L 318.803223 47.847921 
L 318.803223 47.049505 
L 319.0259 47.049505 
L 319.0259 46.251089 
L 319.557131 46.251089 
L 319.557131 45.452673 
L 319.729352 45.452673 
L 319.729352 44.654257 
L 319.918746 44.654257 
L 319.918746 43.855842 
L 321.192214 43.855842 
L 321.192214 43.057426 
L 325.422399 43.057426 
L 325.422399 42.25901 
L 326.50346 42.25901 
L 326.50346 41.460594 
L 327.194759 41.460594 
L 327.194759 40.662178 
L 328.405281 40.662178 
L 328.405281 39.863762 
L 330.281501 39.863762 
L 330.281501 39.065347 
L 331.733846 39.065347 
L 331.733846 38.266931 
L 331.936893 38.266931 
L 331.936893 37.468515 
L 332.184843 37.468515 
L 332.213966 35.871683 
L 332.620169 35.871683 
L 332.620169 35.073267 
L 332.886726 35.073267 
L 332.886726 34.274851 
L 335.698195 34.274851 
L 335.698195 33.476436 
L 338.868958 33.476436 
L 338.868958 32.67802 
L 339.21359 32.67802 
L 339.21359 31.879604 
L 341.178288 31.879604 
L 341.178288 31.081188 
L 342.585614 31.081188 
L 342.630924 29.484356 
L 343.565637 29.484356 
L 343.565637 28.685941 
L 350.917624 28.685941 
L 350.917624 27.887525 
L 351.385764 27.887525 
L 351.385764 27.089109 
L 351.600048 27.089109 
L 351.600048 26.290693 
L 352.239022 26.290693 
L 352.239022 25.492277 
L 352.553832 25.492277 
L 352.553832 24.693861 
L 353.724255 24.693861 
L 353.724255 23.895446 
L 357.608809 23.895446 
L 357.608809 23.09703 
L 358.452011 23.09703 
L 358.452011 22.298614 
L 359.861747 22.298614 
L 359.861747 21.500198 
L 360.984814 21.500198 
L 360.984814 20.701782 
L 362.303397 20.701782 
L 362.303397 19.903366 
L 366.680418 19.903366 
L 366.680418 19.10495 
L 375.021617 19.10495 
L 375.021617 18.306535 
L 387.674244 18.306535 
L 387.674244 17.508119 
L 388.708711 17.508119 
L 388.708711 16.709703 
L 389.39905 16.709703 
L 389.39905 15.911287 
L 393.163387 15.911287 
L 393.163387 15.112871 
L 393.675635 15.112871 
L 393.675635 14.314455 
L 393.974485 14.314455 
L 393.974485 13.51604 
L 398.325487 13.51604 
L 398.325487 12.717624 
L 399.378503 12.717624 
L 399.378503 11.919208 
L 401.871734 11.919208 
L 401.871734 11.120792 
L 402.12592 11.120792 
L 402.12592 10.322376 
L 403.946462 10.322376 
L 403.946462 9.52396 
L 407.761049 9.52396 
L 407.761049 8.725545 
L 413.069952 8.725545 
L 413.069952 7.927129 
L 414.694203 7.927129 
L 414.694203 7.128713 
L 415.120265 7.128713 
L 415.120265 6.330297 
L 415.120265 6.330297 
L 460.8 6.330297 
L 460.8 6.330297 
" style="fill:none;stroke:#ff0000;stroke-linecap:square;stroke-width:3;"/>
   </g>
   <g id="line2d_22">
    <path clip-path="url(#p3e971e2693)" d="M 225.967247 293.76 
L 225.967247 292.961584 
L 228.968906 292.961584 
L 228.968906 292.163168 
L 230.171462 292.163168 
L 230.171462 291.364752 
L 231.056063 291.364752 
L 231.130771 289.767921 
L 232.168016 289.767921 
L 232.168016 288.969505 
L 233.767531 288.969505 
L 233.767531 288.171089 
L 236.471917 288.171089 
L 236.471917 287.372673 
L 238.17363 287.372673 
L 238.17363 286.574257 
L 238.434233 286.574257 
L 238.434233 285.775842 
L 239.705952 285.775842 
L 239.705952 284.977426 
L 240.45048 284.977426 
L 240.559965 282.582178 
L 240.743827 282.582178 
L 240.743827 281.783762 
L 241.024732 281.783762 
L 241.024732 280.985347 
L 241.159422 280.985347 
L 241.159422 280.186931 
L 241.650331 280.186931 
L 241.650331 279.388515 
L 242.093848 279.388515 
L 242.203423 277.791683 
L 242.322547 277.791683 
L 242.322547 276.993267 
L 242.574616 276.993267 
L 242.574616 276.194851 
L 242.751419 276.194851 
L 242.817386 273.799604 
L 243.093369 273.799604 
L 243.115357 272.202772 
L 243.596771 272.202772 
L 243.596771 271.404356 
L 243.709169 271.404356 
L 243.760163 269.807525 
L 243.871422 269.807525 
L 243.871422 269.009109 
L 244.135446 269.009109 
L 244.135446 268.210693 
L 244.63083 268.210693 
L 244.63083 267.412277 
L 244.894288 267.412277 
L 244.894288 266.613861 
L 245.217205 266.613861 
L 245.235053 265.01703 
L 245.451593 265.01703 
L 245.451593 264.218614 
L 246.36651 264.218614 
L 246.36651 263.420198 
L 246.790951 263.420198 
L 246.790951 262.621782 
L 247.028523 262.621782 
L 247.028523 261.823366 
L 247.60615 261.823366 
L 247.60615 261.02495 
L 247.788513 261.02495 
L 247.873095 259.428119 
L 248.010853 259.428119 
L 248.010853 258.629703 
L 248.53068 258.629703 
L 248.53068 257.831287 
L 248.742506 257.831287 
L 248.762981 256.234455 
L 249.312446 256.234455 
L 249.314325 254.637624 
L 249.536127 254.637624 
L 249.609349 253.040792 
L 249.656873 253.040792 
L 249.748899 251.44396 
L 249.861424 251.44396 
L 249.861424 250.645545 
L 250.729349 250.645545 
L 250.729349 249.847129 
L 251.998465 249.847129 
L 252.038802 248.250297 
L 252.189781 248.250297 
L 252.189781 247.451881 
L 252.628144 247.451881 
L 252.628144 246.653465 
L 253.131073 246.653465 
L 253.131073 245.85505 
L 253.415865 245.85505 
L 253.469095 244.258218 
L 253.853406 244.258218 
L 253.853406 243.459802 
L 254.413997 243.459802 
L 254.445656 241.86297 
L 254.529806 241.86297 
L 254.529806 241.064554 
L 254.840722 241.064554 
L 254.840722 240.266139 
L 255.18107 240.266139 
L 255.281393 237.870891 
L 255.577182 237.870891 
L 255.672448 236.274059 
L 255.71796 236.274059 
L 255.733688 234.677228 
L 256.06375 234.677228 
L 256.06375 233.878812 
L 256.21103 233.878812 
L 256.21103 233.080396 
L 256.412874 233.080396 
L 256.412874 232.28198 
L 257.05459 232.28198 
L 257.05459 231.483564 
L 257.262193 231.483564 
L 257.292944 229.886733 
L 257.657853 229.886733 
L 257.657853 229.088317 
L 258.20966 229.088317 
L 258.20966 228.289901 
L 258.542868 228.289901 
L 258.542868 227.491485 
L 258.932307 227.491485 
L 258.932307 226.693069 
L 259.944763 226.693069 
L 259.944763 225.894653 
L 260.292257 225.894653 
L 260.292257 225.096238 
L 260.700755 225.096238 
L 260.779214 223.499406 
L 261.745887 223.499406 
L 261.745887 222.70099 
L 261.884552 222.70099 
L 261.979468 221.104158 
L 262.206336 221.104158 
L 262.274539 217.910495 
L 262.348329 217.910495 
L 262.359115 216.313663 
L 263.125148 216.313663 
L 263.125148 215.515248 
L 263.30589 215.515248 
L 263.30589 214.716832 
L 263.519324 214.716832 
L 263.519324 213.918416 
L 263.940466 213.918416 
L 264.041503 211.523168 
L 264.101629 211.523168 
L 264.132873 209.926337 
L 264.36029 209.926337 
L 264.36029 209.127921 
L 264.4994 209.127921 
L 264.4994 208.329505 
L 264.618648 208.329505 
L 264.664542 206.732673 
L 264.785012 206.732673 
L 264.814619 205.135842 
L 264.923377 205.135842 
L 265.028225 202.740594 
L 265.113241 202.740594 
L 265.117341 201.143762 
L 265.277435 201.143762 
L 265.277435 200.345347 
L 265.398081 200.345347 
L 265.398081 199.546931 
L 265.666081 199.546931 
L 265.769601 197.151683 
L 265.820769 197.151683 
L 265.920137 194.756436 
L 265.981502 194.756436 
L 266.087006 191.562772 
L 266.281661 191.562772 
L 266.281661 190.764356 
L 266.451826 190.764356 
L 266.531901 189.167525 
L 266.574881 189.167525 
L 266.604514 186.772277 
L 266.849732 186.772277 
L 266.927082 184.37703 
L 267.324714 184.37703 
L 267.431647 181.981782 
L 267.444409 181.981782 
L 267.518969 180.38495 
L 267.565281 180.38495 
L 267.669045 178.788119 
L 267.876646 178.788119 
L 267.9489 176.392871 
L 267.992199 176.392871 
L 268.100143 173.997624 
L 268.297092 173.997624 
L 268.393696 172.400792 
L 269.683525 172.400792 
L 269.716838 170.80396 
L 269.797041 170.80396 
L 269.850569 169.207129 
L 269.931356 169.207129 
L 269.99197 167.610297 
L 270.101027 167.610297 
L 270.206717 166.013465 
L 270.638045 166.013465 
L 270.697973 164.416634 
L 270.792786 164.416634 
L 270.896237 161.22297 
L 270.925863 161.22297 
L 270.925863 160.424554 
L 271.052763 160.424554 
L 271.134521 158.827723 
L 271.238263 158.827723 
L 271.238263 158.029307 
L 271.366469 158.029307 
L 271.38042 156.432475 
L 271.659404 156.432475 
L 271.751414 154.835644 
L 272.102402 154.835644 
L 272.102402 154.037228 
L 272.737567 154.037228 
L 272.737567 153.238812 
L 272.893178 153.238812 
L 272.916121 151.64198 
L 273.025533 151.64198 
L 273.025533 150.843564 
L 273.445857 150.843564 
L 273.552955 148.448317 
L 273.937912 148.448317 
L 274.042502 146.851485 
L 274.056917 146.851485 
L 274.061368 145.254653 
L 274.207475 145.254653 
L 274.28282 143.657822 
L 274.71647 143.657822 
L 274.773161 142.06099 
L 274.843018 142.06099 
L 274.843018 141.262574 
L 275.038629 141.262574 
L 275.141199 139.665743 
L 275.770385 139.665743 
L 275.770385 138.867327 
L 275.946771 138.867327 
L 275.946771 138.068911 
L 276.250591 138.068911 
L 276.322559 136.472079 
L 276.501828 136.472079 
L 276.501828 135.673663 
L 276.964552 135.673663 
L 276.964552 134.875248 
L 277.138337 134.875248 
L 277.138337 134.076832 
L 277.383334 134.076832 
L 277.383334 133.278416 
L 277.606739 133.278416 
L 277.606739 132.48 
L 277.852521 132.48 
L 277.852521 131.681584 
L 278.242468 131.681584 
L 278.242468 130.883168 
L 278.769119 130.883168 
L 278.769119 130.084752 
L 279.183273 130.084752 
L 279.183273 129.286337 
L 279.310056 129.286337 
L 279.403476 127.689505 
L 279.908942 127.689505 
L 279.908942 126.891089 
L 280.044879 126.891089 
L 280.044879 126.092673 
L 280.198823 126.092673 
L 280.198823 125.294257 
L 281.010899 125.294257 
L 281.010899 124.495842 
L 281.139877 124.495842 
L 281.149709 122.89901 
L 281.431628 122.89901 
L 281.431628 122.100594 
L 281.643443 122.100594 
L 281.643443 121.302178 
L 282.019139 121.302178 
L 282.019139 120.503762 
L 282.184629 120.503762 
L 282.184629 119.705347 
L 282.690138 119.705347 
L 282.690138 118.906931 
L 282.904678 118.906931 
L 282.904678 118.108515 
L 283.614075 118.108515 
L 283.614075 117.310099 
L 284.461666 117.310099 
L 284.461666 116.511683 
L 285.381708 116.511683 
L 285.381708 115.713267 
L 285.5825 115.713267 
L 285.685132 114.116436 
L 286.214358 114.116436 
L 286.214358 113.31802 
L 287.972295 113.31802 
L 287.972295 112.519604 
L 288.513822 112.519604 
L 288.513822 111.721188 
L 289.676633 111.721188 
L 289.676633 110.922772 
L 291.709162 110.922772 
L 291.709162 110.124356 
L 291.89267 110.124356 
L 291.89267 109.325941 
L 293.252463 109.325941 
L 293.252463 108.527525 
L 293.562854 108.527525 
L 293.562854 107.729109 
L 293.873999 107.729109 
L 293.873999 106.930693 
L 294.002545 106.930693 
L 294.002545 106.132277 
L 294.244797 106.132277 
L 294.244797 105.333861 
L 294.651289 105.333861 
L 294.651289 104.535446 
L 295.035305 104.535446 
L 295.035305 103.73703 
L 295.592148 103.73703 
L 295.592148 102.938614 
L 296.038009 102.938614 
L 296.038009 102.140198 
L 296.157912 102.140198 
L 296.171058 100.543366 
L 296.358729 100.543366 
L 296.358729 99.74495 
L 296.849534 99.74495 
L 296.849534 98.946535 
L 297.227684 98.946535 
L 297.227684 98.148119 
L 298.491608 98.148119 
L 298.491608 97.349703 
L 299.281726 97.349703 
L 299.281726 96.551287 
L 299.542145 96.551287 
L 299.542145 95.752871 
L 300.088119 95.752871 
L 300.088119 94.954455 
L 300.795685 94.954455 
L 300.795685 94.15604 
L 304.381259 94.15604 
L 304.381259 93.357624 
L 304.531156 93.357624 
L 304.531156 92.559208 
L 304.888792 92.559208 
L 304.888792 91.760792 
L 305.178044 91.760792 
L 305.178044 90.962376 
L 305.880363 90.962376 
L 305.880363 90.16396 
L 306.382117 90.16396 
L 306.382117 89.365545 
L 306.894615 89.365545 
L 306.894615 88.567129 
L 307.866489 88.567129 
L 307.866489 87.768713 
L 308.20476 87.768713 
L 308.20476 86.970297 
L 309.519518 86.970297 
L 309.519518 86.171881 
L 310.498964 86.171881 
L 310.498964 85.373465 
L 312.181891 85.373465 
L 312.181891 84.57505 
L 313.610142 84.57505 
L 313.610142 83.776634 
L 314.677362 83.776634 
L 314.677362 82.978218 
L 314.847547 82.978218 
L 314.847547 82.179802 
L 316.118346 82.179802 
L 316.118346 81.381386 
L 316.993764 81.381386 
L 316.993764 80.58297 
L 317.666445 80.58297 
L 317.666445 79.784554 
L 319.708798 79.784554 
L 319.708798 78.986139 
L 320.379642 78.986139 
L 320.379642 78.187723 
L 321.265891 78.187723 
L 321.265891 77.389307 
L 321.903351 77.389307 
L 321.903351 76.590891 
L 323.053841 76.590891 
L 323.053841 75.792475 
L 324.772679 75.792475 
L 324.772679 74.994059 
L 325.099547 74.994059 
L 325.099547 74.195644 
L 326.110486 74.195644 
L 326.110486 73.397228 
L 327.444496 73.397228 
L 327.444496 72.598812 
L 328.904467 72.598812 
L 328.904467 71.800396 
L 329.75216 71.800396 
L 329.75216 71.00198 
L 330.964423 71.00198 
L 330.964423 70.203564 
L 331.342845 70.203564 
L 331.342845 69.405149 
L 331.587029 69.405149 
L 331.623481 67.808317 
L 332.319598 67.808317 
L 332.319598 67.009901 
L 333.227055 67.009901 
L 333.227055 66.211485 
L 333.949906 66.211485 
L 333.949906 65.413069 
L 334.207258 65.413069 
L 334.207258 64.614653 
L 335.202076 64.614653 
L 335.202076 63.816238 
L 336.958956 63.816238 
L 336.958956 63.017822 
L 337.329568 63.017822 
L 337.329568 62.219406 
L 341.500229 62.219406 
L 341.500229 61.42099 
L 342.963121 61.42099 
L 342.963121 60.622574 
L 349.933109 60.622574 
L 349.933109 59.824158 
L 352.279111 59.824158 
L 352.279111 59.025743 
L 352.542838 59.025743 
L 352.542838 58.227327 
L 355.357298 58.227327 
L 355.357298 57.428911 
L 356.353344 57.428911 
L 356.353344 56.630495 
L 356.487508 56.630495 
L 356.487508 55.832079 
L 357.587063 55.832079 
L 357.587063 55.033663 
L 361.666149 55.033663 
L 361.666149 54.235248 
L 362.848028 54.235248 
L 362.848028 53.436832 
L 365.05934 53.436832 
L 365.05934 52.638416 
L 367.282274 52.638416 
L 367.282274 51.84 
L 368.081429 51.84 
L 368.081429 51.041584 
L 370.362769 51.041584 
L 370.362769 50.243168 
L 370.670623 50.243168 
L 370.670623 49.444752 
L 372.443947 49.444752 
L 372.443947 48.646337 
L 372.869494 48.646337 
L 372.869494 47.847921 
L 373.110957 47.847921 
L 373.110957 47.049505 
L 375.928418 47.049505 
L 375.928418 46.251089 
L 376.597791 46.251089 
L 376.597791 45.452673 
L 378.109824 45.452673 
L 378.109824 44.654257 
L 378.466449 44.654257 
L 378.466449 43.855842 
L 378.726724 43.855842 
L 378.726724 43.057426 
L 379.15876 43.057426 
L 379.15876 42.25901 
L 379.738175 42.25901 
L 379.738175 41.460594 
L 383.219547 41.460594 
L 383.219547 40.662178 
L 385.016608 40.662178 
L 385.016608 39.863762 
L 385.783951 39.863762 
L 385.783951 39.065347 
L 386.172214 39.065347 
L 386.172214 38.266931 
L 386.285923 38.266931 
L 386.285923 37.468515 
L 386.488332 37.468515 
L 386.488332 36.670099 
L 386.849182 36.670099 
L 386.944888 35.073267 
L 387.710844 35.073267 
L 387.710844 34.274851 
L 389.601405 34.274851 
L 389.601405 33.476436 
L 389.714282 33.476436 
L 389.714282 32.67802 
L 390.89551 32.67802 
L 390.89551 31.879604 
L 393.917865 31.879604 
L 393.97885 30.282772 
L 395.838491 30.282772 
L 395.838491 29.484356 
L 396.14704 29.484356 
L 396.14704 28.685941 
L 397.624173 28.685941 
L 397.624173 27.887525 
L 398.136295 27.887525 
L 398.136295 27.089109 
L 399.063584 27.089109 
L 399.063584 26.290693 
L 400.676603 26.290693 
L 400.676603 25.492277 
L 402.331062 25.492277 
L 402.406946 23.895446 
L 403.047828 23.895446 
L 403.047828 23.09703 
L 404.897527 23.09703 
L 404.897527 22.298614 
L 405.732546 22.298614 
L 405.732546 21.500198 
L 406.859937 21.500198 
L 406.859937 20.701782 
L 409.207374 20.701782 
L 409.207374 19.903366 
L 409.3255 19.903366 
L 409.3255 19.10495 
L 410.083156 19.10495 
L 410.083156 18.306535 
L 411.312849 18.306535 
L 411.312849 17.508119 
L 412.587205 17.508119 
L 412.587205 16.709703 
L 412.745417 16.709703 
L 412.745417 15.911287 
L 413.007807 15.911287 
L 413.007807 15.112871 
L 413.973833 15.112871 
L 413.973833 14.314455 
L 414.20372 14.314455 
L 414.20372 13.51604 
L 418.443311 13.51604 
L 418.443311 12.717624 
L 420.23347 12.717624 
L 420.23347 11.919208 
L 421.51346 11.919208 
L 421.51346 11.120792 
L 425.10461 11.120792 
L 425.10461 10.322376 
L 425.276983 10.322376 
L 425.276983 9.52396 
L 426.516529 9.52396 
L 426.516529 8.725545 
L 431.22541 8.725545 
L 431.22541 7.927129 
L 436.79791 7.927129 
L 436.79791 7.128713 
L 449.082845 7.128713 
L 449.082845 6.330297 
L 449.082845 6.330297 
L 460.8 6.330297 
L 460.8 6.330297 
" style="fill:none;stroke:#00bfbf;stroke-linecap:square;stroke-width:1.5;"/>
   </g>
   <g id="line2d_23">
    <path clip-path="url(#p3e971e2693)" d="M 223.45286 293.76 
L 223.45286 292.961584 
L 224.199398 292.961584 
L 224.199398 292.163168 
L 225.615987 292.163168 
L 225.615987 291.364752 
L 225.967247 291.364752 
L 225.967247 290.566337 
L 228.968906 290.566337 
L 228.968906 289.767921 
L 229.423423 289.767921 
L 229.423423 288.969505 
L 230.189394 288.969505 
L 230.189394 288.171089 
L 231.056063 288.171089 
L 231.130771 286.574257 
L 231.413708 286.574257 
L 231.413708 285.775842 
L 231.745023 285.775842 
L 231.745023 284.977426 
L 232.14693 284.977426 
L 232.168016 283.380594 
L 232.864598 283.380594 
L 232.864598 282.582178 
L 233.704755 282.582178 
L 233.767531 280.985347 
L 236.471917 280.985347 
L 236.471917 280.186931 
L 237.587141 280.186931 
L 237.587141 279.388515 
L 237.745416 279.388515 
L 237.745416 278.590099 
L 238.17363 278.590099 
L 238.227319 276.993267 
L 238.341726 276.993267 
L 238.434233 275.396436 
L 238.455919 275.396436 
L 238.455919 274.59802 
L 240.250868 274.59802 
L 240.250868 273.799604 
L 240.478279 273.799604 
L 240.559965 271.404356 
L 240.79744 271.404356 
L 240.79744 270.605941 
L 241.004889 270.605941 
L 241.038769 268.210693 
L 241.569857 268.210693 
L 241.569857 267.412277 
L 242.093848 267.412277 
L 242.093848 266.613861 
L 242.322547 266.613861 
L 242.322547 265.815446 
L 242.461127 265.815446 
L 242.461127 265.01703 
L 242.751419 265.01703 
L 242.817386 262.621782 
L 243.093369 262.621782 
L 243.115357 260.226535 
L 243.240483 260.226535 
L 243.286384 258.629703 
L 243.444434 258.629703 
L 243.444434 257.831287 
L 243.596771 257.831287 
L 243.596771 257.032871 
L 243.709169 257.032871 
L 243.709169 256.234455 
L 243.871422 256.234455 
L 243.953457 254.637624 
L 244.033928 254.637624 
L 244.033928 253.839208 
L 244.751058 253.839208 
L 244.751058 253.040792 
L 245.235053 253.040792 
L 245.235053 252.242376 
L 245.451593 252.242376 
L 245.451593 251.44396 
L 245.731027 251.44396 
L 245.731027 250.645545 
L 245.897841 250.645545 
L 245.897841 249.847129 
L 246.224643 249.847129 
L 246.331407 248.250297 
L 246.723066 248.250297 
L 246.790951 246.653465 
L 247.539164 246.653465 
L 247.60615 245.056634 
L 247.873095 245.056634 
L 247.873095 244.258218 
L 248.444158 244.258218 
L 248.444158 243.459802 
L 249.536127 243.459802 
L 249.609349 241.86297 
L 249.77994 241.86297 
L 249.77994 241.064554 
L 250.729349 241.064554 
L 250.729349 240.266139 
L 251.57641 240.266139 
L 251.57641 239.467723 
L 252.365753 239.467723 
L 252.365753 238.669307 
L 252.630369 238.669307 
L 252.630369 237.870891 
L 252.937591 237.870891 
L 252.937591 237.072475 
L 253.205245 237.072475 
L 253.248853 235.475644 
L 253.469095 235.475644 
L 253.574811 233.878812 
L 253.597396 233.878812 
L 253.597396 233.080396 
L 253.748973 233.080396 
L 253.748973 232.28198 
L 254.351923 232.28198 
L 254.413997 230.685149 
L 254.468858 230.685149 
L 254.532242 229.088317 
L 255.251799 229.088317 
L 255.281393 226.693069 
L 255.543644 226.693069 
L 255.543644 225.894653 
L 256.187973 225.894653 
L 256.21103 224.297822 
L 256.412874 224.297822 
L 256.457156 222.70099 
L 256.574772 222.70099 
L 256.574772 221.902574 
L 256.925503 221.902574 
L 257.01879 220.305743 
L 257.05459 220.305743 
L 257.05459 219.507327 
L 257.292944 219.507327 
L 257.292944 218.708911 
L 257.464747 218.708911 
L 257.464747 217.910495 
L 257.655507 217.910495 
L 257.717506 214.716832 
L 258.052465 214.716832 
L 258.052465 213.918416 
L 258.217516 213.918416 
L 258.283983 211.523168 
L 258.493111 211.523168 
L 258.542868 209.926337 
L 258.790358 209.926337 
L 258.790358 209.127921 
L 258.97644 209.127921 
L 258.97644 208.329505 
L 259.499676 208.329505 
L 259.578961 205.934257 
L 259.746515 205.934257 
L 259.746515 205.135842 
L 259.905517 205.135842 
L 259.944763 203.53901 
L 260.079851 203.53901 
L 260.079851 202.740594 
L 260.380516 202.740594 
L 260.380516 201.942178 
L 260.516218 201.942178 
L 260.589162 200.345347 
L 260.770294 200.345347 
L 260.837087 197.151683 
L 261.020619 197.151683 
L 261.112146 195.554851 
L 261.377066 195.554851 
L 261.377066 194.756436 
L 261.708906 194.756436 
L 261.708906 193.95802 
L 261.881307 193.95802 
L 261.910785 192.361188 
L 262.025438 192.361188 
L 262.025438 191.562772 
L 262.274539 191.562772 
L 262.274539 190.764356 
L 262.448023 190.764356 
L 262.517078 189.167525 
L 263.195057 189.167525 
L 263.30589 187.570693 
L 263.328444 187.570693 
L 263.328444 186.772277 
L 263.447343 186.772277 
L 263.447343 185.973861 
L 263.973921 185.973861 
L 264.041503 184.37703 
L 264.101629 184.37703 
L 264.123217 182.780198 
L 264.458424 182.780198 
L 264.4994 181.183366 
L 264.785012 181.183366 
L 264.785012 180.38495 
L 264.939141 180.38495 
L 265.018519 178.788119 
L 265.091066 178.788119 
L 265.091066 177.989703 
L 265.282872 177.989703 
L 265.32533 176.392871 
L 265.398081 176.392871 
L 265.398081 175.594455 
L 265.518952 175.594455 
L 265.618893 172.400792 
L 265.676159 172.400792 
L 265.692111 170.80396 
L 266.021234 170.80396 
L 266.030211 169.207129 
L 266.312721 169.207129 
L 266.312721 168.408713 
L 266.574881 168.408713 
L 266.625701 166.013465 
L 266.718906 166.013465 
L 266.7877 163.618218 
L 267.146005 163.618218 
L 267.224563 162.021386 
L 267.327139 162.021386 
L 267.431647 159.626139 
L 267.565281 159.626139 
L 267.669045 158.029307 
L 267.822401 158.029307 
L 267.899813 155.634059 
L 267.9489 155.634059 
L 267.959811 154.037228 
L 268.511773 154.037228 
L 268.593997 152.440396 
L 268.81352 152.440396 
L 268.81352 151.64198 
L 268.928903 151.64198 
L 268.928903 150.843564 
L 269.073799 150.843564 
L 269.073799 150.045149 
L 269.558933 150.045149 
L 269.558933 149.246733 
L 269.850569 149.246733 
L 269.931356 147.649901 
L 269.991641 147.649901 
L 269.991641 146.851485 
L 270.326129 146.851485 
L 270.326129 146.053069 
L 270.850781 146.053069 
L 270.850781 145.254653 
L 271.099652 145.254653 
L 271.099652 144.456238 
L 271.465383 144.456238 
L 271.465383 143.657822 
L 271.887296 143.657822 
L 271.887296 142.859406 
L 272.087187 142.859406 
L 272.178062 141.262574 
L 272.211078 141.262574 
L 272.211078 140.464158 
L 272.349528 140.464158 
L 272.455104 138.867327 
L 272.488561 138.867327 
L 272.571622 137.270495 
L 272.73385 137.270495 
L 272.795604 135.673663 
L 273.043573 135.673663 
L 273.064809 134.076832 
L 273.255295 134.076832 
L 273.266545 132.48 
L 273.445857 132.48 
L 273.552955 130.084752 
L 273.937912 130.084752 
L 273.937912 129.286337 
L 274.363621 129.286337 
L 274.363621 128.487921 
L 275.141199 128.487921 
L 275.199352 126.891089 
L 275.31633 126.891089 
L 275.31633 126.092673 
L 275.624906 126.092673 
L 275.624906 125.294257 
L 276.308043 125.294257 
L 276.308043 124.495842 
L 277.138337 124.495842 
L 277.237572 122.89901 
L 277.383334 122.89901 
L 277.383334 122.100594 
L 278.056951 122.100594 
L 278.056951 121.302178 
L 278.325262 121.302178 
L 278.325262 120.503762 
L 278.573306 120.503762 
L 278.573306 119.705347 
L 279.148437 119.705347 
L 279.148437 118.906931 
L 279.922658 118.906931 
L 279.922658 118.108515 
L 280.05335 118.108515 
L 280.05335 117.310099 
L 280.198823 117.310099 
L 280.198823 116.511683 
L 280.340829 116.511683 
L 280.444779 114.914851 
L 280.621057 114.914851 
L 280.621057 114.116436 
L 281.246669 114.116436 
L 281.308568 112.519604 
L 281.649417 112.519604 
L 281.649417 111.721188 
L 283.363349 111.721188 
L 283.363349 110.922772 
L 285.124508 110.922772 
L 285.124508 110.124356 
L 285.685132 110.124356 
L 285.685132 109.325941 
L 286.214358 109.325941 
L 286.214358 108.527525 
L 287.641109 108.527525 
L 287.690685 106.930693 
L 287.972295 106.930693 
L 288.033912 105.333861 
L 288.923962 105.333861 
L 288.923962 104.535446 
L 289.64307 104.535446 
L 289.64307 103.73703 
L 289.980371 103.73703 
L 289.996977 102.140198 
L 291.339759 102.140198 
L 291.339759 101.341782 
L 291.709162 101.341782 
L 291.709162 100.543366 
L 292.339361 100.543366 
L 292.339361 99.74495 
L 293.562854 99.74495 
L 293.562854 98.946535 
L 294.651289 98.946535 
L 294.737232 97.349703 
L 295.035305 97.349703 
L 295.035305 96.551287 
L 295.212131 96.551287 
L 295.212131 95.752871 
L 295.371884 95.752871 
L 295.371884 94.954455 
L 295.592148 94.954455 
L 295.637421 92.559208 
L 296.038009 92.559208 
L 296.038009 91.760792 
L 296.314777 91.760792 
L 296.314777 90.962376 
L 296.490501 90.962376 
L 296.490501 90.16396 
L 297.227684 90.16396 
L 297.227684 89.365545 
L 297.519547 89.365545 
L 297.519547 88.567129 
L 298.213914 88.567129 
L 298.213914 87.768713 
L 298.491608 87.768713 
L 298.491608 86.970297 
L 299.556467 86.970297 
L 299.556467 86.171881 
L 300.795685 86.171881 
L 300.795685 85.373465 
L 301.8925 85.373465 
L 301.8925 84.57505 
L 303.934863 84.57505 
L 304.037296 82.978218 
L 304.531156 82.978218 
L 304.531156 82.179802 
L 304.888792 82.179802 
L 304.888792 81.381386 
L 305.751207 81.381386 
L 305.751207 80.58297 
L 305.880363 80.58297 
L 305.880363 79.784554 
L 306.160564 79.784554 
L 306.160564 78.986139 
L 306.87624 78.986139 
L 306.894615 77.389307 
L 308.20476 77.389307 
L 308.20476 76.590891 
L 308.788898 76.590891 
L 308.895795 74.994059 
L 311.864447 74.994059 
L 311.864447 74.195644 
L 312.372798 74.195644 
L 312.372798 73.397228 
L 313.610142 73.397228 
L 313.610142 72.598812 
L 315.11498 72.598812 
L 315.11498 71.800396 
L 315.738381 71.800396 
L 315.738381 71.00198 
L 317.111478 71.00198 
L 317.111478 70.203564 
L 317.666445 70.203564 
L 317.666445 69.405149 
L 319.708798 69.405149 
L 319.708798 68.606733 
L 323.053841 68.606733 
L 323.053841 67.808317 
L 324.772679 67.808317 
L 324.772679 67.009901 
L 325.099547 67.009901 
L 325.099547 66.211485 
L 328.160338 66.211485 
L 328.160338 65.413069 
L 330.400079 65.413069 
L 330.400079 64.614653 
L 330.964423 64.614653 
L 330.964423 63.816238 
L 332.296628 63.816238 
L 332.296628 63.017822 
L 335.202076 63.017822 
L 335.202076 62.219406 
L 336.958956 62.219406 
L 336.958956 61.42099 
L 337.164451 61.42099 
L 337.16802 59.824158 
L 339.90706 59.824158 
L 339.90706 59.025743 
L 341.694309 59.025743 
L 341.694309 58.227327 
L 342.850094 58.227327 
L 342.850094 57.428911 
L 342.963121 57.428911 
L 342.963121 56.630495 
L 344.078292 56.630495 
L 344.078292 55.832079 
L 345.19574 55.832079 
L 345.19574 55.033663 
L 349.933109 55.033663 
L 349.933109 54.235248 
L 351.753046 54.235248 
L 351.753046 53.436832 
L 352.279111 53.436832 
L 352.279111 52.638416 
L 354.956315 52.638416 
L 354.956315 51.84 
L 355.310888 51.84 
L 355.310888 51.041584 
L 355.585821 51.041584 
L 355.585821 50.243168 
L 356.487508 50.243168 
L 356.487508 49.444752 
L 359.950516 49.444752 
L 359.950516 48.646337 
L 360.818354 48.646337 
L 360.818354 47.847921 
L 361.666149 47.847921 
L 361.666149 47.049505 
L 362.848028 47.049505 
L 362.848028 46.251089 
L 366.522839 46.251089 
L 366.522839 45.452673 
L 367.282274 45.452673 
L 367.282274 44.654257 
L 368.534884 44.654257 
L 368.534884 43.855842 
L 369.348769 43.855842 
L 369.348769 43.057426 
L 369.639728 43.057426 
L 369.639728 42.25901 
L 369.765522 42.25901 
L 369.765522 41.460594 
L 369.931847 41.460594 
L 369.931847 40.662178 
L 370.611793 40.662178 
L 370.611793 39.863762 
L 372.443947 39.863762 
L 372.443947 39.065347 
L 372.869494 39.065347 
L 372.869494 38.266931 
L 373.110957 38.266931 
L 373.110957 37.468515 
L 374.00551 37.468515 
L 374.00551 36.670099 
L 374.389627 36.670099 
L 374.389627 35.871683 
L 375.784985 35.871683 
L 375.784985 35.073267 
L 375.928418 35.073267 
L 375.928418 34.274851 
L 376.386946 34.274851 
L 376.386946 33.476436 
L 376.553636 33.476436 
L 376.597791 31.879604 
L 377.185213 31.879604 
L 377.185213 31.081188 
L 378.368157 31.081188 
L 378.368157 30.282772 
L 382.34659 30.282772 
L 382.34659 29.484356 
L 384.098892 29.484356 
L 384.098892 28.685941 
L 385.800379 28.685941 
L 385.820841 27.089109 
L 386.799417 27.089109 
L 386.799417 26.290693 
L 386.937182 26.290693 
L 386.937182 25.492277 
L 389.39905 25.492277 
L 389.483629 23.895446 
L 389.601405 23.895446 
L 389.601405 23.09703 
L 393.917865 23.09703 
L 393.917865 22.298614 
L 400.267619 22.298614 
L 400.267619 21.500198 
L 402.331062 21.500198 
L 402.406946 19.903366 
L 402.662129 19.903366 
L 402.662129 19.10495 
L 404.897527 19.10495 
L 404.897527 18.306535 
L 405.732546 18.306535 
L 405.826155 16.709703 
L 406.441909 16.709703 
L 406.441909 15.911287 
L 407.389131 15.911287 
L 407.389131 15.112871 
L 408.56714 15.112871 
L 408.56714 14.314455 
L 409.630488 14.314455 
L 409.630488 13.51604 
L 413.007807 13.51604 
L 413.007807 12.717624 
L 414.099874 12.717624 
L 414.099874 11.919208 
L 417.69205 11.919208 
L 417.69205 11.120792 
L 418.443311 11.120792 
L 418.443311 10.322376 
L 418.970976 10.322376 
L 418.970976 9.52396 
L 422.917272 9.52396 
L 422.917272 8.725545 
L 425.10461 8.725545 
L 425.10461 7.927129 
L 429.967485 7.927129 
L 429.967485 7.128713 
L 436.79791 7.128713 
L 436.79791 6.330297 
L 436.79791 6.330297 
L 460.8 6.330297 
L 460.8 6.330297 
" style="fill:none;stroke:#bf00bf;stroke-linecap:square;stroke-width:1.5;"/>
   </g>
   <g id="line2d_24">
    <path clip-path="url(#p3e971e2693)" d="M 223.45286 293.76 
L 223.45286 292.961584 
L 224.199398 292.961584 
L 224.199398 292.163168 
L 225.173182 292.163168 
L 225.173182 291.364752 
L 225.615987 291.364752 
L 225.615987 290.566337 
L 225.967247 290.566337 
L 225.967247 289.767921 
L 227.664387 289.767921 
L 227.664387 288.969505 
L 229.423423 288.969505 
L 229.423423 288.171089 
L 230.189394 288.171089 
L 230.189394 287.372673 
L 231.056063 287.372673 
L 231.130771 284.977426 
L 231.413708 284.977426 
L 231.413708 284.17901 
L 231.745023 284.17901 
L 231.745023 283.380594 
L 232.14693 283.380594 
L 232.168016 281.783762 
L 232.864598 281.783762 
L 232.864598 280.985347 
L 233.417465 280.985347 
L 233.417465 280.186931 
L 233.704755 280.186931 
L 233.767531 278.590099 
L 235.027168 278.590099 
L 235.027168 277.791683 
L 235.460124 277.791683 
L 235.553726 275.396436 
L 235.805139 275.396436 
L 235.856994 273.799604 
L 236.103663 273.799604 
L 236.103663 273.001188 
L 236.351505 273.001188 
L 236.351505 272.202772 
L 236.471917 272.202772 
L 236.471917 271.404356 
L 237.002106 271.404356 
L 237.002106 270.605941 
L 237.207678 270.605941 
L 237.207678 269.807525 
L 237.485419 269.807525 
L 237.587141 268.210693 
L 237.605837 268.210693 
L 237.712174 266.613861 
L 237.745416 266.613861 
L 237.745416 265.815446 
L 237.863287 265.815446 
L 237.863287 265.01703 
L 238.17363 265.01703 
L 238.235094 262.621782 
L 238.421217 262.621782 
L 238.434233 261.02495 
L 239.137913 261.02495 
L 239.223928 259.428119 
L 239.829128 259.428119 
L 239.90572 257.831287 
L 240.250868 257.831287 
L 240.349016 256.234455 
L 240.473883 256.234455 
L 240.559965 253.839208 
L 241.004889 253.839208 
L 241.038769 252.242376 
L 241.427216 252.242376 
L 241.427216 251.44396 
L 241.657851 251.44396 
L 241.657851 250.645545 
L 241.977217 250.645545 
L 241.977217 249.847129 
L 242.093848 249.847129 
L 242.194467 248.250297 
L 242.233335 248.250297 
L 242.233335 247.451881 
L 242.40523 247.451881 
L 242.40523 246.653465 
L 242.799063 246.653465 
L 242.817386 245.056634 
L 243.072976 245.056634 
L 243.174723 242.661386 
L 243.240483 242.661386 
L 243.240483 241.86297 
L 243.709169 241.86297 
L 243.709169 241.064554 
L 243.870352 241.064554 
L 243.953457 239.467723 
L 245.731027 239.467723 
L 245.731027 238.669307 
L 245.893125 238.669307 
L 245.893125 237.870891 
L 246.112994 237.870891 
L 246.112994 237.072475 
L 246.331407 237.072475 
L 246.331407 236.274059 
L 246.445354 236.274059 
L 246.445354 235.475644 
L 246.723066 235.475644 
L 246.735629 233.878812 
L 247.60615 233.878812 
L 247.60615 233.080396 
L 247.825256 233.080396 
L 247.825256 232.28198 
L 247.958846 232.28198 
L 247.958846 231.483564 
L 248.191285 231.483564 
L 248.191285 230.685149 
L 248.977326 230.685149 
L 248.977326 229.886733 
L 249.77994 229.886733 
L 249.77994 229.088317 
L 250.729349 229.088317 
L 250.729349 228.289901 
L 251.57641 228.289901 
L 251.57641 227.491485 
L 252.240476 227.491485 
L 252.240476 226.693069 
L 252.493659 226.693069 
L 252.589014 224.297822 
L 252.6072 224.297822 
L 252.672089 221.902574 
L 253.248853 221.902574 
L 253.248853 221.104158 
L 253.469095 221.104158 
L 253.469095 220.305743 
L 253.748973 220.305743 
L 253.850158 218.708911 
L 254.036331 218.708911 
L 254.065533 217.112079 
L 254.227896 217.112079 
L 254.227896 216.313663 
L 254.351923 216.313663 
L 254.351923 215.515248 
L 254.468858 215.515248 
L 254.572076 213.12 
L 254.784103 213.12 
L 254.784103 212.321584 
L 255.264097 212.321584 
L 255.281393 210.724752 
L 255.47446 210.724752 
L 255.543644 209.127921 
L 256.21103 209.127921 
L 256.300872 206.732673 
L 256.412874 206.732673 
L 256.412874 205.934257 
L 256.861556 205.934257 
L 256.861556 205.135842 
L 257.01879 205.135842 
L 257.01879 204.337426 
L 257.292944 204.337426 
L 257.336582 202.740594 
L 257.464747 202.740594 
L 257.464747 201.942178 
L 257.646013 201.942178 
L 257.717506 199.546931 
L 258.066093 199.546931 
L 258.066093 198.748515 
L 258.239669 198.748515 
L 258.283983 197.151683 
L 258.97644 197.151683 
L 259.030681 195.554851 
L 259.133681 195.554851 
L 259.133681 194.756436 
L 259.314551 194.756436 
L 259.314551 193.95802 
L 259.427302 193.95802 
L 259.509776 191.562772 
L 259.800154 191.562772 
L 259.905517 189.965941 
L 260.380516 189.965941 
L 260.447819 188.369109 
L 260.516218 188.369109 
L 260.589162 186.772277 
L 260.660611 186.772277 
L 260.768935 185.175446 
L 260.779214 185.175446 
L 260.837087 182.780198 
L 260.922769 182.780198 
L 261.020619 181.183366 
L 261.293998 181.183366 
L 261.367993 179.586535 
L 261.623632 179.586535 
L 261.708906 177.989703 
L 261.871956 177.989703 
L 261.871956 177.191287 
L 262.011046 177.191287 
L 262.011046 176.392871 
L 262.274539 176.392871 
L 262.274539 175.594455 
L 262.787587 175.594455 
L 262.835124 173.997624 
L 262.906982 173.997624 
L 262.934316 172.400792 
L 263.195057 172.400792 
L 263.195057 171.602376 
L 263.328444 171.602376 
L 263.328444 170.80396 
L 263.447343 170.80396 
L 263.447343 170.005545 
L 263.771143 170.005545 
L 263.837298 166.013465 
L 264.055474 166.013465 
L 264.123217 164.416634 
L 264.302513 164.416634 
L 264.335441 162.021386 
L 264.437248 162.021386 
L 264.458424 160.424554 
L 264.566101 160.424554 
L 264.606787 158.827723 
L 264.72431 158.827723 
L 264.72431 158.029307 
L 264.939141 158.029307 
L 265.042352 155.634059 
L 265.282872 155.634059 
L 265.282872 154.835644 
L 265.398081 154.835644 
L 265.398081 154.037228 
L 265.580758 154.037228 
L 265.676159 151.64198 
L 266.472553 151.64198 
L 266.574881 150.045149 
L 266.718906 150.045149 
L 266.7877 148.448317 
L 266.94101 148.448317 
L 266.94101 147.649901 
L 267.402423 147.649901 
L 267.431647 146.053069 
L 267.669045 146.053069 
L 267.669045 145.254653 
L 267.9489 145.254653 
L 267.959811 143.657822 
L 268.81352 143.657822 
L 268.831735 142.06099 
L 269.045381 142.06099 
L 269.045381 141.262574 
L 269.381831 141.262574 
L 269.381831 140.464158 
L 269.750923 140.464158 
L 269.850569 138.867327 
L 270.000986 138.867327 
L 270.000986 138.068911 
L 270.41014 138.068911 
L 270.447295 136.472079 
L 270.605464 136.472079 
L 270.640559 134.875248 
L 270.827215 134.875248 
L 270.870338 133.278416 
L 271.32861 133.278416 
L 271.32861 132.48 
L 271.559021 132.48 
L 271.580457 130.084752 
L 271.887296 130.084752 
L 271.887296 129.286337 
L 272.087187 129.286337 
L 272.178062 127.689505 
L 272.211078 127.689505 
L 272.211078 126.891089 
L 272.488561 126.891089 
L 272.571622 125.294257 
L 272.715895 125.294257 
L 272.795604 122.89901 
L 273.445857 122.89901 
L 273.485712 121.302178 
L 273.702767 121.302178 
L 273.702767 120.503762 
L 273.937912 120.503762 
L 273.937912 119.705347 
L 274.327758 119.705347 
L 274.413995 117.310099 
L 274.683319 117.310099 
L 274.683319 116.511683 
L 274.796646 116.511683 
L 274.796646 115.713267 
L 275.288164 115.713267 
L 275.288164 114.914851 
L 275.56767 114.914851 
L 275.56767 114.116436 
L 276.308043 114.116436 
L 276.308043 113.31802 
L 276.76605 113.31802 
L 276.76605 112.519604 
L 277.707139 112.519604 
L 277.707139 111.721188 
L 278.01885 111.721188 
L 278.056951 110.124356 
L 278.325262 110.124356 
L 278.325262 109.325941 
L 278.91114 109.325941 
L 278.91114 108.527525 
L 280.05335 108.527525 
L 280.05335 107.729109 
L 280.45687 107.729109 
L 280.45687 106.930693 
L 281.246669 106.930693 
L 281.246669 106.132277 
L 281.649417 106.132277 
L 281.649417 105.333861 
L 283.363349 105.333861 
L 283.363349 104.535446 
L 286.935363 104.535446 
L 286.935363 103.73703 
L 287.078671 103.73703 
L 287.078671 102.938614 
L 287.387665 102.938614 
L 287.387665 102.140198 
L 287.641109 102.140198 
L 287.748388 99.74495 
L 287.972295 99.74495 
L 288.033912 98.148119 
L 288.166659 98.148119 
L 288.166659 97.349703 
L 288.304758 97.349703 
L 288.304758 96.551287 
L 288.923962 96.551287 
L 288.923962 95.752871 
L 289.090987 95.752871 
L 289.090987 94.954455 
L 289.780927 94.954455 
L 289.780927 94.15604 
L 289.905098 94.15604 
L 289.996977 92.559208 
L 290.922153 92.559208 
L 290.922153 91.760792 
L 291.298534 91.760792 
L 291.298534 90.962376 
L 292.339361 90.962376 
L 292.339361 90.16396 
L 293.17176 90.16396 
L 293.17176 89.365545 
L 294.498607 89.365545 
L 294.539359 87.768713 
L 294.737232 87.768713 
L 294.793102 86.171881 
L 295.035305 86.171881 
L 295.035305 85.373465 
L 295.605009 85.373465 
L 295.637421 83.776634 
L 296.314777 83.776634 
L 296.340162 82.179802 
L 297.227684 82.179802 
L 297.227684 81.381386 
L 298.213914 81.381386 
L 298.213914 80.58297 
L 300.795685 80.58297 
L 300.795685 79.784554 
L 301.8925 79.784554 
L 301.8925 78.986139 
L 303.12454 78.986139 
L 303.12454 78.187723 
L 303.327788 78.187723 
L 303.327788 77.389307 
L 304.037296 77.389307 
L 304.037296 76.590891 
L 304.888792 76.590891 
L 304.888792 75.792475 
L 305.751207 75.792475 
L 305.751207 74.994059 
L 305.880363 74.994059 
L 305.880363 74.195644 
L 306.87624 74.195644 
L 306.894615 72.598812 
L 307.124182 72.598812 
L 307.124182 71.800396 
L 308.788898 71.800396 
L 308.788898 71.00198 
L 311.361955 71.00198 
L 311.361955 70.203564 
L 311.864447 70.203564 
L 311.864447 69.405149 
L 312.372798 69.405149 
L 312.372798 68.606733 
L 313.610142 68.606733 
L 313.688954 67.009901 
L 314.282002 67.009901 
L 314.282002 66.211485 
L 315.738381 66.211485 
L 315.738381 65.413069 
L 318.721627 65.413069 
L 318.803223 63.816238 
L 319.796466 63.816238 
L 319.796466 63.017822 
L 321.259057 63.017822 
L 321.259057 62.219406 
L 323.045525 62.219406 
L 323.045525 61.42099 
L 325.099547 61.42099 
L 325.099547 60.622574 
L 325.428088 60.622574 
L 325.428088 59.824158 
L 328.713717 59.824158 
L 328.713717 59.025743 
L 329.325986 59.025743 
L 329.325986 58.227327 
L 330.804763 58.227327 
L 330.804763 57.428911 
L 330.964423 57.428911 
L 330.964423 56.630495 
L 331.936893 56.630495 
L 331.936893 55.832079 
L 336.958956 55.832079 
L 336.958956 55.033663 
L 338.158755 55.033663 
L 338.158755 54.235248 
L 339.062477 54.235248 
L 339.062477 53.436832 
L 340.733815 53.436832 
L 340.733815 52.638416 
L 342.850094 52.638416 
L 342.850094 51.84 
L 343.565637 51.84 
L 343.565637 51.041584 
L 345.19574 51.041584 
L 345.232664 49.444752 
L 345.57841 49.444752 
L 345.57841 48.646337 
L 346.321223 48.646337 
L 346.321223 47.847921 
L 346.53151 47.847921 
L 346.53151 47.049505 
L 351.385764 47.049505 
L 351.385764 46.251089 
L 351.753046 46.251089 
L 351.753046 45.452673 
L 352.279111 45.452673 
L 352.279111 44.654257 
L 352.768745 44.654257 
L 352.768745 43.855842 
L 353.060922 43.855842 
L 353.060922 43.057426 
L 353.784754 43.057426 
L 353.827245 41.460594 
L 354.956315 41.460594 
L 354.956315 40.662178 
L 358.639815 40.662178 
L 358.639815 39.863762 
L 359.43892 39.863762 
L 359.43892 39.065347 
L 359.861747 39.065347 
L 359.861747 38.266931 
L 360.431336 38.266931 
L 360.431336 37.468515 
L 361.589261 37.468515 
L 361.666149 35.871683 
L 361.759053 35.871683 
L 361.759053 35.073267 
L 366.071417 35.073267 
L 366.071417 34.274851 
L 366.522839 34.274851 
L 366.522839 33.476436 
L 366.985518 33.476436 
L 366.985518 32.67802 
L 368.603724 32.67802 
L 368.603724 31.879604 
L 369.263458 31.879604 
L 369.263458 31.081188 
L 370.611793 31.081188 
L 370.611793 30.282772 
L 370.781455 30.282772 
L 370.781455 29.484356 
L 373.110957 29.484356 
L 373.110957 28.685941 
L 373.665014 28.685941 
L 373.665014 27.887525 
L 374.389627 27.887525 
L 374.389627 27.089109 
L 375.928418 27.089109 
L 375.928418 26.290693 
L 376.386946 26.290693 
L 376.386946 25.492277 
L 376.597791 25.492277 
L 376.597791 24.693861 
L 377.666003 24.693861 
L 377.666003 23.895446 
L 378.368157 23.895446 
L 378.368157 23.09703 
L 381.931013 23.09703 
L 381.931013 22.298614 
L 382.34659 22.298614 
L 382.394084 20.701782 
L 385.828537 20.701782 
L 385.828537 19.903366 
L 388.708711 19.903366 
L 388.708711 19.10495 
L 389.39905 19.10495 
L 389.483629 17.508119 
L 397.650793 17.508119 
L 397.650793 16.709703 
L 402.662129 16.709703 
L 402.662129 15.911287 
L 403.068067 15.911287 
L 403.068067 15.112871 
L 404.897527 15.112871 
L 404.897527 14.314455 
L 405.826155 14.314455 
L 405.826155 13.51604 
L 406.441909 13.51604 
L 406.441909 12.717624 
L 407.761049 12.717624 
L 407.761049 11.919208 
L 413.007807 11.919208 
L 413.069952 10.322376 
L 414.099874 10.322376 
L 414.099874 9.52396 
L 414.694203 9.52396 
L 414.694203 8.725545 
L 417.667661 8.725545 
L 417.728576 6.330297 
L 417.728576 6.330297 
L 460.8 6.330297 
L 460.8 6.330297 
" style="fill:none;stroke:#000000;stroke-linecap:square;stroke-width:1.5;"/>
   </g>
   <g id="line2d_25">
    <path clip-path="url(#p3e971e2693)" d="M 223.45286 293.76 
L 223.45286 292.961584 
L 224.199398 292.961584 
L 224.199398 292.163168 
L 225.173182 292.163168 
L 225.173182 291.364752 
L 225.511322 291.364752 
L 225.615987 289.767921 
L 225.967247 289.767921 
L 225.967247 288.969505 
L 227.664387 288.969505 
L 227.664387 288.171089 
L 228.957374 288.171089 
L 228.957374 287.372673 
L 229.423423 287.372673 
L 229.423423 286.574257 
L 229.971314 286.574257 
L 229.971314 285.775842 
L 230.189394 285.775842 
L 230.189394 284.977426 
L 230.867576 284.977426 
L 230.909761 283.380594 
L 231.056063 283.380594 
L 231.130771 280.186931 
L 231.297664 280.186931 
L 231.297664 279.388515 
L 231.413708 279.388515 
L 231.413708 278.590099 
L 231.625765 278.590099 
L 231.625765 277.791683 
L 231.745023 277.791683 
L 231.833684 276.194851 
L 232.035797 276.194851 
L 232.035797 275.396436 
L 232.168016 275.396436 
L 232.168016 274.59802 
L 232.826377 274.59802 
L 232.905272 272.202772 
L 232.946943 272.202772 
L 233.017107 270.605941 
L 233.417465 270.605941 
L 233.417465 269.807525 
L 233.704755 269.807525 
L 233.767531 268.210693 
L 234.374912 268.210693 
L 234.374912 267.412277 
L 234.544675 267.412277 
L 234.544675 266.613861 
L 234.744524 266.613861 
L 234.744524 265.815446 
L 235.460124 265.815446 
L 235.553726 263.420198 
L 235.607414 263.420198 
L 235.624854 261.823366 
L 235.805139 261.823366 
L 235.856994 260.226535 
L 235.93145 260.226535 
L 235.93145 259.428119 
L 236.103663 259.428119 
L 236.103663 258.629703 
L 236.377953 258.629703 
L 236.471917 257.032871 
L 237.002106 257.032871 
L 237.002106 256.234455 
L 237.485419 256.234455 
L 237.522767 254.637624 
L 237.745416 254.637624 
L 237.745416 253.839208 
L 237.863287 253.839208 
L 237.863287 253.040792 
L 238.165048 253.040792 
L 238.227319 250.645545 
L 238.421217 250.645545 
L 238.434233 249.048713 
L 238.941772 249.048713 
L 238.941772 248.250297 
L 239.223928 248.250297 
L 239.223928 247.451881 
L 239.73138 247.451881 
L 239.73138 246.653465 
L 239.853142 246.653465 
L 239.853142 245.85505 
L 240.280036 245.85505 
L 240.31863 244.258218 
L 241.038769 244.258218 
L 241.046294 242.661386 
L 241.427216 242.661386 
L 241.427216 241.86297 
L 241.615921 241.86297 
L 241.615921 241.064554 
L 241.797596 241.064554 
L 241.907337 239.467723 
L 242.093848 239.467723 
L 242.194467 237.870891 
L 242.218828 237.870891 
L 242.292397 236.274059 
L 242.36233 236.274059 
L 242.40523 234.677228 
L 242.799063 234.677228 
L 242.799063 233.878812 
L 242.95409 233.878812 
L 242.971442 232.28198 
L 243.093369 232.28198 
L 243.174723 230.685149 
L 243.459654 230.685149 
L 243.459654 229.886733 
L 244.311553 229.886733 
L 244.311553 229.088317 
L 244.911202 229.088317 
L 244.911202 228.289901 
L 245.731027 228.289901 
L 245.731027 227.491485 
L 245.884682 227.491485 
L 245.893125 225.894653 
L 246.112994 225.894653 
L 246.127569 224.297822 
L 246.666639 224.297822 
L 246.735629 222.70099 
L 246.888769 222.70099 
L 246.904545 221.104158 
L 247.817915 221.104158 
L 247.817915 220.305743 
L 248.191285 220.305743 
L 248.191285 219.507327 
L 248.977326 219.507327 
L 249.019243 217.910495 
L 249.157636 217.910495 
L 249.168458 216.313663 
L 249.303823 216.313663 
L 249.348866 214.716832 
L 249.620239 214.716832 
L 249.620239 213.918416 
L 249.77994 213.918416 
L 249.883484 212.321584 
L 250.729349 212.321584 
L 250.76277 210.724752 
L 250.873871 210.724752 
L 250.889376 209.127921 
L 250.985188 209.127921 
L 250.985188 208.329505 
L 251.672084 208.329505 
L 251.741824 205.934257 
L 251.939761 205.934257 
L 252.028485 203.53901 
L 252.195442 203.53901 
L 252.296321 201.942178 
L 252.585739 201.942178 
L 252.685142 199.546931 
L 253.469095 199.546931 
L 253.545165 197.950099 
L 254.065533 197.950099 
L 254.065533 197.151683 
L 254.255661 197.151683 
L 254.255661 196.353267 
L 254.413709 196.353267 
L 254.468858 193.95802 
L 254.679097 193.95802 
L 254.784103 192.361188 
L 254.973279 192.361188 
L 254.973279 191.562772 
L 255.175104 191.562772 
L 255.264097 189.965941 
L 255.506437 189.965941 
L 255.548101 187.570693 
L 256.041457 187.570693 
L 256.041457 186.772277 
L 256.401915 186.772277 
L 256.401915 185.973861 
L 256.675099 185.973861 
L 256.675099 185.175446 
L 256.861556 185.175446 
L 256.861556 184.37703 
L 257.405331 184.37703 
L 257.405331 183.578614 
L 257.840614 183.578614 
L 257.840614 182.780198 
L 258.217837 182.780198 
L 258.218956 181.183366 
L 258.757405 181.183366 
L 258.757405 180.38495 
L 258.909233 180.38495 
L 258.96128 178.788119 
L 259.030681 178.788119 
L 259.133681 177.191287 
L 259.240488 177.191287 
L 259.240488 176.392871 
L 259.377441 176.392871 
L 259.377441 175.594455 
L 259.563234 175.594455 
L 259.627745 173.997624 
L 259.800154 173.997624 
L 259.87748 172.400792 
L 259.950532 172.400792 
L 259.950532 171.602376 
L 260.26436 171.602376 
L 260.26436 170.80396 
L 260.42412 170.80396 
L 260.505861 168.408713 
L 260.823954 168.408713 
L 260.855349 164.416634 
L 261.020619 164.416634 
L 261.020619 163.618218 
L 261.523506 163.618218 
L 261.523506 162.819802 
L 261.647652 162.819802 
L 261.647652 162.021386 
L 261.871956 162.021386 
L 261.871956 161.22297 
L 262.060072 161.22297 
L 262.065313 159.626139 
L 262.19562 159.626139 
L 262.274539 158.029307 
L 262.484522 158.029307 
L 262.484522 157.230891 
L 262.755875 157.230891 
L 262.835124 155.634059 
L 262.934316 155.634059 
L 262.934316 154.835644 
L 263.195057 154.835644 
L 263.195057 154.037228 
L 263.447343 154.037228 
L 263.447343 153.238812 
L 263.771931 153.238812 
L 263.878923 149.246733 
L 264.055474 149.246733 
L 264.163453 146.851485 
L 264.458424 146.851485 
L 264.458424 146.053069 
L 264.937163 146.053069 
L 265.024138 144.456238 
L 265.282872 144.456238 
L 265.282872 143.657822 
L 265.398081 143.657822 
L 265.398081 142.859406 
L 265.661873 142.859406 
L 265.676159 140.464158 
L 265.870534 140.464158 
L 265.870534 139.665743 
L 266.203879 139.665743 
L 266.203879 138.867327 
L 266.574881 138.867327 
L 266.667194 137.270495 
L 266.874439 137.270495 
L 266.94101 134.875248 
L 267.064424 134.875248 
L 267.064424 134.076832 
L 267.273967 134.076832 
L 267.313117 132.48 
L 267.402423 132.48 
L 267.431647 130.883168 
L 267.634928 130.883168 
L 267.634928 130.084752 
L 267.806576 130.084752 
L 267.89487 128.487921 
L 267.9489 128.487921 
L 268.042487 126.891089 
L 268.145104 126.891089 
L 268.245273 125.294257 
L 268.369376 125.294257 
L 268.369376 124.495842 
L 268.831735 124.495842 
L 268.831735 123.697426 
L 269.072046 123.697426 
L 269.072046 122.89901 
L 269.488889 122.89901 
L 269.488889 122.100594 
L 269.750923 122.100594 
L 269.793566 120.503762 
L 270.277971 120.503762 
L 270.36531 118.906931 
L 270.605464 118.906931 
L 270.605464 118.108515 
L 270.827215 118.108515 
L 270.827215 117.310099 
L 271.32861 117.310099 
L 271.32861 116.511683 
L 271.559021 116.511683 
L 271.580457 114.116436 
L 271.887296 114.116436 
L 271.887296 113.31802 
L 272.097334 113.31802 
L 272.132791 111.721188 
L 272.211078 111.721188 
L 272.211078 110.922772 
L 272.488561 110.922772 
L 272.571622 109.325941 
L 273.695689 109.325941 
L 273.702767 107.729109 
L 273.937912 107.729109 
L 273.937912 106.930693 
L 274.327758 106.930693 
L 274.327758 106.132277 
L 274.501598 106.132277 
L 274.501598 105.333861 
L 275.019901 105.333861 
L 275.019901 104.535446 
L 275.288164 104.535446 
L 275.288164 103.73703 
L 276.42729 103.73703 
L 276.42729 102.938614 
L 278.830466 102.938614 
L 278.830466 102.140198 
L 280.05335 102.140198 
L 280.05335 101.341782 
L 280.52557 101.341782 
L 280.52557 100.543366 
L 281.066395 100.543366 
L 281.066395 99.74495 
L 281.649417 99.74495 
L 281.649417 98.946535 
L 283.363349 98.946535 
L 283.363349 98.148119 
L 283.803688 98.148119 
L 283.862386 96.551287 
L 286.736079 96.551287 
L 286.736079 95.752871 
L 286.935363 95.752871 
L 286.935363 94.954455 
L 287.078671 94.954455 
L 287.078671 94.15604 
L 287.336771 94.15604 
L 287.387665 92.559208 
L 287.641109 92.559208 
L 287.748388 89.365545 
L 287.972295 89.365545 
L 287.972295 88.567129 
L 288.166659 88.567129 
L 288.166659 87.768713 
L 288.304758 87.768713 
L 288.304758 86.970297 
L 288.923962 86.970297 
L 288.923962 86.171881 
L 289.090987 86.171881 
L 289.090987 85.373465 
L 289.780927 85.373465 
L 289.780927 84.57505 
L 289.905098 84.57505 
L 289.905098 83.776634 
L 290.922153 83.776634 
L 290.922153 82.978218 
L 291.298534 82.978218 
L 291.298534 82.179802 
L 292.339361 82.179802 
L 292.381331 80.58297 
L 292.818702 80.58297 
L 292.818702 79.784554 
L 294.498607 79.784554 
L 294.498607 78.986139 
L 294.737232 78.986139 
L 294.737232 78.187723 
L 295.035305 78.187723 
L 295.035305 77.389307 
L 295.605009 77.389307 
L 295.605009 76.590891 
L 296.314777 76.590891 
L 296.340162 74.994059 
L 297.227684 74.994059 
L 297.227684 74.195644 
L 297.929293 74.195644 
L 297.929293 73.397228 
L 298.213914 73.397228 
L 298.213914 72.598812 
L 300.319458 72.598812 
L 300.319458 71.800396 
L 300.795685 71.800396 
L 300.795685 71.00198 
L 301.8925 71.00198 
L 301.8925 70.203564 
L 303.12454 70.203564 
L 303.12454 69.405149 
L 303.327788 69.405149 
L 303.327788 68.606733 
L 304.037296 68.606733 
L 304.037296 67.808317 
L 304.230793 67.808317 
L 304.230793 67.009901 
L 304.449729 67.009901 
L 304.449729 66.211485 
L 304.888792 66.211485 
L 304.961868 64.614653 
L 305.751207 64.614653 
L 305.751207 63.816238 
L 306.87624 63.816238 
L 306.894615 62.219406 
L 307.124182 62.219406 
L 307.124182 61.42099 
L 307.459916 61.42099 
L 307.459916 60.622574 
L 308.695222 60.622574 
L 308.72207 59.025743 
L 311.361955 59.025743 
L 311.361955 58.227327 
L 311.893575 58.227327 
L 311.893575 57.428911 
L 312.078697 57.428911 
L 312.078697 56.630495 
L 312.372798 56.630495 
L 312.372798 55.832079 
L 313.610142 55.832079 
L 313.610142 55.033663 
L 313.730847 55.033663 
L 313.730847 54.235248 
L 314.282002 54.235248 
L 314.282002 53.436832 
L 317.798783 53.436832 
L 317.798783 52.638416 
L 318.803223 52.638416 
L 318.803223 51.84 
L 319.0259 51.84 
L 319.0259 51.041584 
L 319.557131 51.041584 
L 319.557131 50.243168 
L 319.796466 50.243168 
L 319.796466 49.444752 
L 322.102222 49.444752 
L 322.102222 48.646337 
L 323.045525 48.646337 
L 323.045525 47.847921 
L 326.50346 47.847921 
L 326.50346 47.049505 
L 330.281501 47.049505 
L 330.281501 46.251089 
L 331.936893 46.251089 
L 331.936893 45.452673 
L 332.184843 45.452673 
L 332.184843 44.654257 
L 335.884111 44.654257 
L 335.884111 43.855842 
L 338.868958 43.855842 
L 338.868958 43.057426 
L 341.178288 43.057426 
L 341.178288 42.25901 
L 342.585614 42.25901 
L 342.585614 41.460594 
L 342.850094 41.460594 
L 342.850094 40.662178 
L 343.565637 40.662178 
L 343.565637 39.863762 
L 343.970073 39.863762 
L 343.970073 39.065347 
L 344.874059 39.065347 
L 344.874059 38.266931 
L 345.19574 38.266931 
L 345.19574 37.468515 
L 345.344407 37.468515 
L 345.344407 36.670099 
L 346.321223 36.670099 
L 346.321223 35.871683 
L 346.53151 35.871683 
L 346.53151 35.073267 
L 347.313703 35.073267 
L 347.313703 34.274851 
L 351.385764 34.274851 
L 351.385764 33.476436 
L 352.336482 33.476436 
L 352.336482 32.67802 
L 352.553832 32.67802 
L 352.553832 31.879604 
L 352.753663 31.879604 
L 352.753663 31.081188 
L 353.724255 31.081188 
L 353.827245 28.685941 
L 356.265386 28.685941 
L 356.265386 27.887525 
L 357.274389 27.887525 
L 357.274389 27.089109 
L 358.452011 27.089109 
L 358.452011 26.290693 
L 358.564249 26.290693 
L 358.564249 25.492277 
L 359.861747 25.492277 
L 359.861747 24.693861 
L 361.579127 24.693861 
L 361.579127 23.895446 
L 362.303397 23.895446 
L 362.303397 23.09703 
L 362.540469 23.09703 
L 362.540469 22.298614 
L 364.097664 22.298614 
L 364.11678 20.701782 
L 366.680418 20.701782 
L 366.680418 19.903366 
L 369.263458 19.903366 
L 369.263458 19.10495 
L 375.028522 19.10495 
L 375.028522 18.306535 
L 387.674244 18.306535 
L 387.674244 17.508119 
L 388.708711 17.508119 
L 388.708711 16.709703 
L 389.39905 16.709703 
L 389.39905 15.911287 
L 402.662129 15.911287 
L 402.662129 15.112871 
L 402.811215 15.112871 
L 402.811215 14.314455 
L 403.05826 14.314455 
L 403.068067 12.717624 
L 403.946462 12.717624 
L 403.946462 11.919208 
L 404.897527 11.919208 
L 404.897527 11.120792 
L 407.761049 11.120792 
L 407.761049 10.322376 
L 413.007807 10.322376 
L 413.069952 8.725545 
L 414.099874 8.725545 
L 414.099874 7.927129 
L 414.694203 7.927129 
L 414.694203 7.128713 
L 417.69205 7.128713 
L 417.69205 6.330297 
L 417.69205 6.330297 
L 460.8 6.330297 
L 460.8 6.330297 
" style="fill:none;stroke:#00bfbf;stroke-linecap:square;stroke-width:1.5;"/>
   </g>
   <g id="line2d_26">
    <path clip-path="url(#p3e971e2693)" d="M 214.739751 293.76 
L 214.739751 292.961584 
L 215.515607 292.961584 
L 215.515607 292.163168 
L 216.709053 292.163168 
L 216.709053 291.364752 
L 219.70131 291.364752 
L 219.70131 290.566337 
L 221.290265 290.566337 
L 221.290265 289.767921 
L 222.605197 289.767921 
L 222.605197 288.969505 
L 223.45286 288.969505 
L 223.45286 288.171089 
L 223.624488 288.171089 
L 223.624488 287.372673 
L 224.111663 287.372673 
L 224.199398 285.775842 
L 224.257624 285.775842 
L 224.257624 284.977426 
L 224.609007 284.977426 
L 224.627621 283.380594 
L 225.02717 283.380594 
L 225.02717 282.582178 
L 225.173182 282.582178 
L 225.173182 281.783762 
L 225.372827 281.783762 
L 225.372827 280.985347 
L 225.511322 280.985347 
L 225.511322 280.186931 
L 225.804775 280.186931 
L 225.804775 279.388515 
L 226.388644 279.388515 
L 226.405969 277.791683 
L 227.617861 277.791683 
L 227.692855 275.396436 
L 228.103757 275.396436 
L 228.103757 274.59802 
L 228.447401 274.59802 
L 228.447401 273.799604 
L 228.559295 273.799604 
L 228.595379 272.202772 
L 228.897032 272.202772 
L 228.956442 269.807525 
L 229.102365 269.807525 
L 229.102365 269.009109 
L 229.747319 269.009109 
L 229.747319 268.210693 
L 229.971314 268.210693 
L 229.971314 267.412277 
L 230.124216 267.412277 
L 230.220071 265.01703 
L 230.597518 265.01703 
L 230.686817 262.621782 
L 230.799264 262.621782 
L 230.909761 261.02495 
L 230.963602 261.02495 
L 230.963602 260.226535 
L 231.089681 260.226535 
L 231.089681 259.428119 
L 231.297664 259.428119 
L 231.384765 257.831287 
L 231.625765 257.831287 
L 231.625765 257.032871 
L 231.739072 257.032871 
L 231.833684 255.43604 
L 232.100082 255.43604 
L 232.125051 253.839208 
L 232.241554 253.839208 
L 232.241554 253.040792 
L 232.378134 253.040792 
L 232.378134 252.242376 
L 232.652153 252.242376 
L 232.652153 251.44396 
L 232.826377 251.44396 
L 232.911205 249.048713 
L 233.017107 249.048713 
L 233.017107 248.250297 
L 233.345271 248.250297 
L 233.417465 245.85505 
L 233.704755 245.85505 
L 233.704755 245.056634 
L 234.137916 245.056634 
L 234.173457 243.459802 
L 234.374912 243.459802 
L 234.374912 242.661386 
L 234.544675 242.661386 
L 234.544675 241.86297 
L 234.807637 241.86297 
L 234.878303 240.266139 
L 235.380644 240.266139 
L 235.380644 239.467723 
L 235.55111 239.467723 
L 235.624854 237.870891 
L 235.805139 237.870891 
L 235.856994 236.274059 
L 235.93145 236.274059 
L 235.93145 235.475644 
L 236.103663 235.475644 
L 236.103663 234.677228 
L 236.457284 234.677228 
L 236.457284 233.878812 
L 236.87822 233.878812 
L 236.965196 232.28198 
L 237.002106 232.28198 
L 237.09499 230.685149 
L 237.994535 230.685149 
L 238.029066 229.088317 
L 238.165048 229.088317 
L 238.165048 228.289901 
L 238.472725 228.289901 
L 238.472725 227.491485 
L 239.40646 227.491485 
L 239.40646 226.693069 
L 240.280036 226.693069 
L 240.31863 225.096238 
L 241.051641 225.096238 
L 241.051641 224.297822 
L 241.587263 224.297822 
L 241.615921 222.70099 
L 241.731012 222.70099 
L 241.731012 221.902574 
L 242.194467 221.902574 
L 242.293428 219.507327 
L 242.354634 219.507327 
L 242.40523 217.910495 
L 242.971442 217.910495 
L 242.971442 217.112079 
L 243.306947 217.112079 
L 243.306947 216.313663 
L 243.459654 216.313663 
L 243.459654 215.515248 
L 244.221692 215.515248 
L 244.221692 214.716832 
L 244.685761 214.716832 
L 244.7357 213.12 
L 245.046299 213.12 
L 245.046299 212.321584 
L 245.249353 212.321584 
L 245.307357 210.724752 
L 245.404496 210.724752 
L 245.404496 209.926337 
L 245.731027 209.926337 
L 245.731027 209.127921 
L 245.893125 209.127921 
L 245.893125 208.329505 
L 246.112994 208.329505 
L 246.127569 206.732673 
L 246.803405 206.732673 
L 246.904545 205.135842 
L 246.921941 205.135842 
L 246.921941 204.337426 
L 247.384051 204.337426 
L 247.384051 203.53901 
L 247.946261 203.53901 
L 247.946261 202.740594 
L 248.533705 202.740594 
L 248.533705 201.942178 
L 248.732812 201.942178 
L 248.732812 201.143762 
L 248.977326 201.143762 
L 249.088271 198.748515 
L 249.157636 198.748515 
L 249.168458 197.151683 
L 249.449125 197.151683 
L 249.534356 195.554851 
L 249.594838 195.554851 
L 249.620239 193.95802 
L 249.730904 193.95802 
L 249.792975 190.764356 
L 250.230392 190.764356 
L 250.328791 189.167525 
L 250.432752 189.167525 
L 250.432752 188.369109 
L 250.76277 188.369109 
L 250.873871 186.772277 
L 250.985188 186.772277 
L 250.985188 185.973861 
L 251.116921 185.973861 
L 251.116921 185.175446 
L 251.273304 185.175446 
L 251.346498 183.578614 
L 251.515602 183.578614 
L 251.515602 182.780198 
L 251.694046 182.780198 
L 251.753197 181.183366 
L 251.939761 181.183366 
L 252.02069 179.586535 
L 252.296321 179.586535 
L 252.296321 178.788119 
L 252.45901 178.788119 
L 252.500691 177.191287 
L 253.417319 177.191287 
L 253.417319 176.392871 
L 253.545165 176.392871 
L 253.545165 175.594455 
L 254.078326 175.594455 
L 254.078326 174.79604 
L 254.219241 174.79604 
L 254.23947 173.199208 
L 254.375806 173.199208 
L 254.466843 170.005545 
L 255.394784 170.005545 
L 255.394784 169.207129 
L 255.506437 169.207129 
L 255.553234 167.610297 
L 255.935943 167.610297 
L 255.935943 166.811881 
L 256.586187 166.811881 
L 256.675099 165.21505 
L 256.995052 165.21505 
L 256.995052 164.416634 
L 257.546795 164.416634 
L 257.546795 163.618218 
L 257.722298 163.618218 
L 257.722298 162.819802 
L 258.218956 162.819802 
L 258.23263 160.424554 
L 258.575449 160.424554 
L 258.575449 159.626139 
L 258.764172 159.626139 
L 258.787926 158.029307 
L 258.909233 158.029307 
L 258.909233 157.230891 
L 259.125862 157.230891 
L 259.133681 155.634059 
L 259.462738 155.634059 
L 259.563234 154.037228 
L 259.627745 154.037228 
L 259.685558 152.440396 
L 259.950532 152.440396 
L 259.950532 151.64198 
L 260.252361 151.64198 
L 260.259827 150.045149 
L 260.42412 150.045149 
L 260.447819 148.448317 
L 260.599361 148.448317 
L 260.60074 146.851485 
L 260.837087 146.851485 
L 260.855349 144.456238 
L 261.034043 144.456238 
L 261.128815 142.06099 
L 261.158269 142.06099 
L 261.158269 141.262574 
L 261.322994 141.262574 
L 261.322994 140.464158 
L 261.436626 140.464158 
L 261.523506 138.867327 
L 261.647652 138.867327 
L 261.647652 138.068911 
L 261.871956 138.068911 
L 261.871956 137.270495 
L 261.99807 137.270495 
L 262.073313 134.875248 
L 262.19562 134.875248 
L 262.19562 134.076832 
L 262.464573 134.076832 
L 262.50204 131.681584 
L 262.755875 131.681584 
L 262.835124 129.286337 
L 263.071543 129.286337 
L 263.071543 128.487921 
L 263.218157 128.487921 
L 263.229464 126.891089 
L 263.367032 126.891089 
L 263.394437 125.294257 
L 263.829886 125.294257 
L 263.829886 124.495842 
L 263.999691 124.495842 
L 263.999691 123.697426 
L 264.127767 123.697426 
L 264.234331 121.302178 
L 264.728152 121.302178 
L 264.728152 120.503762 
L 265.024138 120.503762 
L 265.031888 118.906931 
L 265.572672 118.906931 
L 265.676159 116.511683 
L 265.753254 116.511683 
L 265.753254 115.713267 
L 266.203879 115.713267 
L 266.203879 114.914851 
L 266.323856 114.914851 
L 266.323856 114.116436 
L 266.462888 114.116436 
L 266.462888 113.31802 
L 266.667194 113.31802 
L 266.667194 112.519604 
L 266.874439 112.519604 
L 266.874439 111.721188 
L 267.064424 111.721188 
L 267.118541 110.124356 
L 267.273967 110.124356 
L 267.37954 108.527525 
L 267.431647 108.527525 
L 267.431647 107.729109 
L 267.634928 107.729109 
L 267.649796 106.132277 
L 268.369376 106.132277 
L 268.369376 105.333861 
L 268.63439 105.333861 
L 268.63439 104.535446 
L 268.831735 104.535446 
L 268.930067 102.938614 
L 269.194647 102.938614 
L 269.194647 102.140198 
L 269.400438 102.140198 
L 269.409503 100.543366 
L 269.551891 100.543366 
L 269.655442 98.946535 
L 270.063111 98.946535 
L 270.063111 98.148119 
L 270.36531 98.148119 
L 270.36531 97.349703 
L 271.399524 97.349703 
L 271.399524 96.551287 
L 272.097334 96.551287 
L 272.097334 95.752871 
L 272.303327 95.752871 
L 272.336919 94.15604 
L 272.842793 94.15604 
L 272.8718 92.559208 
L 273.00151 92.559208 
L 273.00151 91.760792 
L 273.21686 91.760792 
L 273.292743 90.16396 
L 273.702767 90.16396 
L 273.702767 89.365545 
L 274.163035 89.365545 
L 274.163035 88.567129 
L 274.742139 88.567129 
L 274.742139 87.768713 
L 275.659789 87.768713 
L 275.767148 85.373465 
L 276.42729 85.373465 
L 276.42729 84.57505 
L 279.996716 84.57505 
L 279.996716 83.776634 
L 281.066395 83.776634 
L 281.066395 82.978218 
L 281.291272 82.978218 
L 281.291272 82.179802 
L 282.798485 82.179802 
L 282.798485 81.381386 
L 283.016302 81.381386 
L 283.016302 80.58297 
L 283.181133 80.58297 
L 283.181133 79.784554 
L 283.668842 79.784554 
L 283.668842 78.986139 
L 283.803688 78.986139 
L 283.862386 77.389307 
L 283.97252 77.389307 
L 283.97252 76.590891 
L 285.252665 76.590891 
L 285.318387 74.994059 
L 286.934823 74.994059 
L 286.935363 73.397228 
L 287.387665 73.397228 
L 287.387665 72.598812 
L 287.647178 72.598812 
L 287.647178 71.800396 
L 288.118708 71.800396 
L 288.118708 71.00198 
L 288.304758 71.00198 
L 288.304758 70.203564 
L 288.730422 70.203564 
L 288.730422 69.405149 
L 288.869936 69.405149 
L 288.869936 68.606733 
L 289.090987 68.606733 
L 289.090987 67.808317 
L 289.609246 67.808317 
L 289.609246 67.009901 
L 290.607185 67.009901 
L 290.607185 66.211485 
L 292.381331 66.211485 
L 292.381331 65.413069 
L 292.61943 65.413069 
L 292.61943 64.614653 
L 293.615101 64.614653 
L 293.615101 63.816238 
L 294.735059 63.816238 
L 294.735059 63.017822 
L 295.090855 63.017822 
L 295.090855 62.219406 
L 297.184825 62.219406 
L 297.184825 61.42099 
L 297.929293 61.42099 
L 297.929293 60.622574 
L 299.006816 60.622574 
L 299.006816 59.824158 
L 299.464184 59.824158 
L 299.464184 59.025743 
L 299.57633 59.025743 
L 299.57633 58.227327 
L 300.319458 58.227327 
L 300.415335 56.630495 
L 300.64161 56.630495 
L 300.64161 55.832079 
L 303.327788 55.832079 
L 303.327788 55.033663 
L 306.029934 55.033663 
L 306.029934 54.235248 
L 307.509155 54.235248 
L 307.509155 53.436832 
L 308.695222 53.436832 
L 308.695222 52.638416 
L 309.071829 52.638416 
L 309.071829 51.84 
L 311.361955 51.84 
L 311.361955 51.041584 
L 311.893575 51.041584 
L 311.893575 50.243168 
L 312.174726 50.243168 
L 312.174726 49.444752 
L 313.730847 49.444752 
L 313.730847 48.646337 
L 314.282002 48.646337 
L 314.282002 47.847921 
L 318.803223 47.847921 
L 318.803223 47.049505 
L 319.0259 47.049505 
L 319.0259 46.251089 
L 319.557131 46.251089 
L 319.557131 45.452673 
L 319.729352 45.452673 
L 319.729352 44.654257 
L 319.918746 44.654257 
L 319.918746 43.855842 
L 321.192214 43.855842 
L 321.192214 43.057426 
L 325.422399 43.057426 
L 325.422399 42.25901 
L 326.50346 42.25901 
L 326.50346 41.460594 
L 327.194759 41.460594 
L 327.194759 40.662178 
L 328.405281 40.662178 
L 328.405281 39.863762 
L 330.281501 39.863762 
L 330.281501 39.065347 
L 331.733846 39.065347 
L 331.733846 38.266931 
L 331.936893 38.266931 
L 331.936893 37.468515 
L 332.184843 37.468515 
L 332.213966 35.871683 
L 332.620169 35.871683 
L 332.620169 35.073267 
L 332.886726 35.073267 
L 332.886726 34.274851 
L 335.698195 34.274851 
L 335.698195 33.476436 
L 338.868958 33.476436 
L 338.868958 32.67802 
L 339.21359 32.67802 
L 339.21359 31.879604 
L 341.178288 31.879604 
L 341.178288 31.081188 
L 342.585614 31.081188 
L 342.630924 29.484356 
L 343.565637 29.484356 
L 343.565637 28.685941 
L 350.917624 28.685941 
L 350.917624 27.887525 
L 351.385764 27.887525 
L 351.385764 27.089109 
L 351.600048 27.089109 
L 351.600048 26.290693 
L 352.239022 26.290693 
L 352.239022 25.492277 
L 352.553832 25.492277 
L 352.553832 24.693861 
L 353.724255 24.693861 
L 353.724255 23.895446 
L 357.608809 23.895446 
L 357.608809 23.09703 
L 358.452011 23.09703 
L 358.452011 22.298614 
L 359.861747 22.298614 
L 359.861747 21.500198 
L 360.984814 21.500198 
L 360.984814 20.701782 
L 362.303397 20.701782 
L 362.303397 19.903366 
L 366.680418 19.903366 
L 366.680418 19.10495 
L 375.021617 19.10495 
L 375.021617 18.306535 
L 387.674244 18.306535 
L 387.674244 17.508119 
L 388.708711 17.508119 
L 388.708711 16.709703 
L 389.39905 16.709703 
L 389.39905 15.911287 
L 393.163387 15.911287 
L 393.163387 15.112871 
L 393.675635 15.112871 
L 393.675635 14.314455 
L 393.974485 14.314455 
L 393.974485 13.51604 
L 398.325487 13.51604 
L 398.325487 12.717624 
L 399.378503 12.717624 
L 399.378503 11.919208 
L 401.871734 11.919208 
L 401.871734 11.120792 
L 402.12592 11.120792 
L 402.12592 10.322376 
L 403.946462 10.322376 
L 403.946462 9.52396 
L 407.761049 9.52396 
L 407.761049 8.725545 
L 413.069952 8.725545 
L 413.069952 7.927129 
L 414.694203 7.927129 
L 414.694203 7.128713 
L 415.120265 7.128713 
L 415.120265 6.330297 
L 415.120265 6.330297 
L 460.8 6.330297 
L 460.8 6.330297 
" style="fill:none;stroke:#bf00bf;stroke-linecap:square;stroke-width:1.5;"/>
   </g>
   <g id="patch_3">
    <path d="M 0 293.76 
L 0 3.456 
" style="fill:none;stroke:#000000;stroke-linecap:square;stroke-linejoin:miter;stroke-width:0.8;"/>
   </g>
   <g id="patch_4">
    <path d="M 460.8 293.76 
L 460.8 3.456 
" style="fill:none;stroke:#000000;stroke-linecap:square;stroke-linejoin:miter;stroke-width:0.8;"/>
   </g>
   <g id="patch_5">
    <path d="M -0 293.76 
L 460.8 293.76 
" style="fill:none;stroke:#000000;stroke-linecap:square;stroke-linejoin:miter;stroke-width:0.8;"/>
   </g>
   <g id="patch_6">
    <path d="M -0 3.456 
L 460.8 3.456 
" style="fill:none;stroke:#000000;stroke-linecap:square;stroke-linejoin:miter;stroke-width:0.8;"/>
   </g>
   <g id="text_6">
    <!-- {f1-f24}, 5-D -->
    <defs>
     <path d="M 51.125 -9.28125 
L 51.125 -16.3125 
L 48.09375 -16.3125 
Q 35.9375 -16.3125 31.8125 -12.6875 
Q 27.6875 -9.078125 27.6875 1.703125 
L 27.6875 13.375 
Q 27.6875 20.75 25.046875 23.578125 
Q 22.40625 26.421875 15.484375 26.421875 
L 12.5 26.421875 
L 12.5 33.40625 
L 15.484375 33.40625 
Q 22.46875 33.40625 25.078125 36.203125 
Q 27.6875 39.015625 27.6875 46.296875 
L 27.6875 58.015625 
Q 27.6875 68.796875 31.8125 72.390625 
Q 35.9375 75.984375 48.09375 75.984375 
L 51.125 75.984375 
L 51.125 69 
L 47.796875 69 
Q 40.921875 69 38.8125 66.84375 
Q 36.71875 64.703125 36.71875 57.8125 
L 36.71875 45.703125 
Q 36.71875 38.03125 34.5 34.5625 
Q 32.28125 31.109375 26.90625 29.890625 
Q 32.328125 28.5625 34.515625 25.09375 
Q 36.71875 21.625 36.71875 14.015625 
L 36.71875 1.90625 
Q 36.71875 -4.984375 38.8125 -7.125 
Q 40.921875 -9.28125 47.796875 -9.28125 
z
" id="DejaVuSans-123"/>
     <path d="M 19.1875 8.296875 
L 53.609375 8.296875 
L 53.609375 0 
L 7.328125 0 
L 7.328125 8.296875 
Q 12.9375 14.109375 22.625 23.890625 
Q 32.328125 33.6875 34.8125 36.53125 
Q 39.546875 41.84375 41.421875 45.53125 
Q 43.3125 49.21875 43.3125 52.78125 
Q 43.3125 58.59375 39.234375 62.25 
Q 35.15625 65.921875 28.609375 65.921875 
Q 23.96875 65.921875 18.8125 64.3125 
Q 13.671875 62.703125 7.8125 59.421875 
L 7.8125 69.390625 
Q 13.765625 71.78125 18.9375 73 
Q 24.125 74.21875 28.421875 74.21875 
Q 39.75 74.21875 46.484375 68.546875 
Q 53.21875 62.890625 53.21875 53.421875 
Q 53.21875 48.921875 51.53125 44.890625 
Q 49.859375 40.875 45.40625 35.40625 
Q 44.1875 33.984375 37.640625 27.21875 
Q 31.109375 20.453125 19.1875 8.296875 
z
" id="DejaVuSans-50"/>
     <path d="M 12.5 -9.28125 
L 15.921875 -9.28125 
Q 22.75 -9.28125 24.828125 -7.171875 
Q 26.90625 -5.078125 26.90625 1.90625 
L 26.90625 14.015625 
Q 26.90625 21.625 29.09375 25.09375 
Q 31.296875 28.5625 36.71875 29.890625 
Q 31.296875 31.109375 29.09375 34.5625 
Q 26.90625 38.03125 26.90625 45.703125 
L 26.90625 57.8125 
Q 26.90625 64.75 24.828125 66.875 
Q 22.75 69 15.921875 69 
L 12.5 69 
L 12.5 75.984375 
L 15.578125 75.984375 
Q 27.734375 75.984375 31.8125 72.390625 
Q 35.890625 68.796875 35.890625 58.015625 
L 35.890625 46.296875 
Q 35.890625 39.015625 38.515625 36.203125 
Q 41.15625 33.40625 48.09375 33.40625 
L 51.125 33.40625 
L 51.125 26.421875 
L 48.09375 26.421875 
Q 41.15625 26.421875 38.515625 23.578125 
Q 35.890625 20.75 35.890625 13.375 
L 35.890625 1.703125 
Q 35.890625 -9.078125 31.8125 -12.6875 
Q 27.734375 -16.3125 15.578125 -16.3125 
L 12.5 -16.3125 
z
" id="DejaVuSans-125"/>
     <path d="M 11.71875 12.40625 
L 22.015625 12.40625 
L 22.015625 4 
L 14.015625 -11.625 
L 7.71875 -11.625 
L 11.71875 4 
z
" id="DejaVuSans-44"/>
     <path d="M 10.796875 72.90625 
L 49.515625 72.90625 
L 49.515625 64.59375 
L 19.828125 64.59375 
L 19.828125 46.734375 
Q 21.96875 47.46875 24.109375 47.828125 
Q 26.265625 48.1875 28.421875 48.1875 
Q 40.625 48.1875 47.75 41.5 
Q 54.890625 34.8125 54.890625 23.390625 
Q 54.890625 11.625 47.5625 5.09375 
Q 40.234375 -1.421875 26.90625 -1.421875 
Q 22.3125 -1.421875 17.546875 -0.640625 
Q 12.796875 0.140625 7.71875 1.703125 
L 7.71875 11.625 
Q 12.109375 9.234375 16.796875 8.0625 
Q 21.484375 6.890625 26.703125 6.890625 
Q 35.15625 6.890625 40.078125 11.328125 
Q 45.015625 15.765625 45.015625 23.390625 
Q 45.015625 31 40.078125 35.4375 
Q 35.15625 39.890625 26.703125 39.890625 
Q 22.75 39.890625 18.8125 39.015625 
Q 14.890625 38.140625 10.796875 36.28125 
z
" id="DejaVuSans-53"/>
    </defs>
    <g transform="translate(318.609 287.95392)scale(0.2 -0.2)">
     <use xlink:href="#DejaVuSans-123"/>
     <use x="63.623047" xlink:href="#DejaVuSans-102"/>
     <use x="98.828125" xlink:href="#DejaVuSans-49"/>
     <use x="162.451172" xlink:href="#DejaVuSans-45"/>
     <use x="198.535156" xlink:href="#DejaVuSans-102"/>
     <use x="233.740234" xlink:href="#DejaVuSans-50"/>
     <use x="297.363281" xlink:href="#DejaVuSans-52"/>
     <use x="360.986328" xlink:href="#DejaVuSans-125"/>
     <use x="424.609375" xlink:href="#DejaVuSans-44"/>
     <use x="456.396484" xlink:href="#DejaVuSans-32"/>
     <use x="488.183594" xlink:href="#DejaVuSans-53"/>
     <use x="551.806641" xlink:href="#DejaVuSans-45"/>
     <use x="587.890625" xlink:href="#DejaVuSans-68"/>
    </g>
   </g>
   <g id="text_7">
    <!-- v2.4 -->
    <defs>
     <path d="M 2.984375 54.6875 
L 12.5 54.6875 
L 29.59375 8.796875 
L 46.6875 54.6875 
L 56.203125 54.6875 
L 35.6875 0 
L 23.484375 0 
z
" id="DejaVuSans-118"/>
     <path d="M 10.6875 12.40625 
L 21 12.40625 
L 21 0 
L 10.6875 0 
z
" id="DejaVuSans-46"/>
    </defs>
    <g style="fill:#808080;" transform="translate(219.489063 288.777272)scale(0.1 -0.1)">
     <use xlink:href="#DejaVuSans-118"/>
     <use x="59.179688" xlink:href="#DejaVuSans-50"/>
     <use x="122.802734" xlink:href="#DejaVuSans-46"/>
     <use x="154.589844" xlink:href="#DejaVuSans-52"/>
    </g>
   </g>
  </g>
 </g>
 <defs>
  <clipPath id="p3e971e2693">
   <rect height="290.304" width="460.8" x="0" y="3.456"/>
  </clipPath>
 </defs>
</svg>
