<?xml version="1.0" encoding="utf-8" standalone="no"?>
<!DOCTYPE svg PUBLIC "-//W3C//DTD SVG 1.1//EN"
  "http://www.w3.org/Graphics/SVG/1.1/DTD/svg11.dtd">
<!-- Created with matplotlib (https://matplotlib.org/) -->
<svg height="345.6pt" version="1.1" viewBox="0 0 460.8 345.6" width="460.8pt" xmlns="http://www.w3.org/2000/svg" xmlns:xlink="http://www.w3.org/1999/xlink">
 <defs>
  <style type="text/css">
*{stroke-linecap:butt;stroke-linejoin:round;}
  </style>
 </defs>
 <g id="figure_1">
  <g id="patch_1">
   <path d="M 0 345.6 
L 460.8 345.6 
L 460.8 0 
L 0 0 
z
" style="fill:#ffffff;"/>
  </g>
  <g id="axes_1">
   <g id="patch_2">
    <path d="M 0 293.76 
L 460.8 293.76 
L 460.8 3.456 
L 0 3.456 
z
" style="fill:#ffffff;"/>
   </g>
   <g id="matplotlib.axis_1">
    <g id="xtick_1">
     <g id="line2d_1">
      <path clip-path="url(#p12910ca3d2)" d="M 107.893076 293.76 
L 107.893076 3.456 
" style="fill:none;stroke:#b0b0b0;stroke-linecap:square;stroke-width:0.8;"/>
     </g>
     <g id="line2d_2">
      <defs>
       <path d="M 0 0 
L 0 3.5 
" id="m3139e86b76" style="stroke:#000000;stroke-width:0.8;"/>
      </defs>
      <g>
       <use style="stroke:#000000;stroke-width:0.8;" x="107.893076" xlink:href="#m3139e86b76" y="293.76"/>
      </g>
     </g>
     <g id="text_1">
      <!-- -4 -->
      <defs>
       <path d="M 4.890625 31.390625 
L 31.203125 31.390625 
L 31.203125 23.390625 
L 4.890625 23.390625 
z
" id="DejaVuSans-45"/>
       <path d="M 37.796875 64.3125 
L 12.890625 25.390625 
L 37.796875 25.390625 
z
M 35.203125 72.90625 
L 47.609375 72.90625 
L 47.609375 25.390625 
L 58.015625 25.390625 
L 58.015625 17.1875 
L 47.609375 17.1875 
L 47.609375 0 
L 37.796875 0 
L 37.796875 17.1875 
L 4.890625 17.1875 
L 4.890625 26.703125 
z
" id="DejaVuSans-52"/>
      </defs>
      <g transform="translate(97.922764 315.956875)scale(0.2 -0.2)">
       <use xlink:href="#DejaVuSans-45"/>
       <use x="36.083984" xlink:href="#DejaVuSans-52"/>
      </g>
     </g>
    </g>
    <g id="xtick_2">
     <g id="line2d_3">
      <path clip-path="url(#p12910ca3d2)" d="M 215.90284 293.76 
L 215.90284 3.456 
" style="fill:none;stroke:#b0b0b0;stroke-linecap:square;stroke-width:0.8;"/>
     </g>
     <g id="line2d_4">
      <g>
       <use style="stroke:#000000;stroke-width:0.8;" x="215.90284" xlink:href="#m3139e86b76" y="293.76"/>
      </g>
     </g>
     <g id="text_2">
      <!-- 0 -->
      <defs>
       <path d="M 31.78125 66.40625 
Q 24.171875 66.40625 20.328125 58.90625 
Q 16.5 51.421875 16.5 36.375 
Q 16.5 21.390625 20.328125 13.890625 
Q 24.171875 6.390625 31.78125 6.390625 
Q 39.453125 6.390625 43.28125 13.890625 
Q 47.125 21.390625 47.125 36.375 
Q 47.125 51.421875 43.28125 58.90625 
Q 39.453125 66.40625 31.78125 66.40625 
z
M 31.78125 74.21875 
Q 44.046875 74.21875 50.515625 64.515625 
Q 56.984375 54.828125 56.984375 36.375 
Q 56.984375 17.96875 50.515625 8.265625 
Q 44.046875 -1.421875 31.78125 -1.421875 
Q 19.53125 -1.421875 13.0625 8.265625 
Q 6.59375 17.96875 6.59375 36.375 
Q 6.59375 54.828125 13.0625 64.515625 
Q 19.53125 74.21875 31.78125 74.21875 
z
" id="DejaVuSans-48"/>
      </defs>
      <g transform="translate(209.54034 315.956875)scale(0.2 -0.2)">
       <use xlink:href="#DejaVuSans-48"/>
      </g>
     </g>
    </g>
    <g id="xtick_3">
     <g id="line2d_5">
      <path clip-path="url(#p12910ca3d2)" d="M 323.912604 293.76 
L 323.912604 3.456 
" style="fill:none;stroke:#b0b0b0;stroke-linecap:square;stroke-width:0.8;"/>
     </g>
     <g id="line2d_6">
      <g>
       <use style="stroke:#000000;stroke-width:0.8;" x="323.912604" xlink:href="#m3139e86b76" y="293.76"/>
      </g>
     </g>
     <g id="text_3">
      <!-- 4 -->
      <g transform="translate(317.550104 315.956875)scale(0.2 -0.2)">
       <use xlink:href="#DejaVuSans-52"/>
      </g>
     </g>
    </g>
    <g id="xtick_4">
     <g id="line2d_7">
      <path clip-path="url(#p12910ca3d2)" d="M 431.922368 293.76 
L 431.922368 3.456 
" style="fill:none;stroke:#b0b0b0;stroke-linecap:square;stroke-width:0.8;"/>
     </g>
     <g id="line2d_8">
      <g>
       <use style="stroke:#000000;stroke-width:0.8;" x="431.922368" xlink:href="#m3139e86b76" y="293.76"/>
      </g>
     </g>
     <g id="text_4">
      <!-- 8 -->
      <defs>
       <path d="M 31.78125 34.625 
Q 24.75 34.625 20.71875 30.859375 
Q 16.703125 27.09375 16.703125 20.515625 
Q 16.703125 13.921875 20.71875 10.15625 
Q 24.75 6.390625 31.78125 6.390625 
Q 38.8125 6.390625 42.859375 10.171875 
Q 46.921875 13.96875 46.921875 20.515625 
Q 46.921875 27.09375 42.890625 30.859375 
Q 38.875 34.625 31.78125 34.625 
z
M 21.921875 38.8125 
Q 15.578125 40.375 12.03125 44.71875 
Q 8.5 49.078125 8.5 55.328125 
Q 8.5 64.0625 14.71875 69.140625 
Q 20.953125 74.21875 31.78125 74.21875 
Q 42.671875 74.21875 48.875 69.140625 
Q 55.078125 64.0625 55.078125 55.328125 
Q 55.078125 49.078125 51.53125 44.71875 
Q 48 40.375 41.703125 38.8125 
Q 48.828125 37.15625 52.796875 32.3125 
Q 56.78125 27.484375 56.78125 20.515625 
Q 56.78125 9.90625 50.3125 4.234375 
Q 43.84375 -1.421875 31.78125 -1.421875 
Q 19.734375 -1.421875 13.25 4.234375 
Q 6.78125 9.90625 6.78125 20.515625 
Q 6.78125 27.484375 10.78125 32.3125 
Q 14.796875 37.15625 21.921875 38.8125 
z
M 18.3125 54.390625 
Q 18.3125 48.734375 21.84375 45.5625 
Q 25.390625 42.390625 31.78125 42.390625 
Q 38.140625 42.390625 41.71875 45.5625 
Q 45.3125 48.734375 45.3125 54.390625 
Q 45.3125 60.0625 41.71875 63.234375 
Q 38.140625 66.40625 31.78125 66.40625 
Q 25.390625 66.40625 21.84375 63.234375 
Q 18.3125 60.0625 18.3125 54.390625 
z
" id="DejaVuSans-56"/>
      </defs>
      <g transform="translate(425.559868 315.956875)scale(0.2 -0.2)">
       <use xlink:href="#DejaVuSans-56"/>
      </g>
     </g>
    </g>
    <g id="text_5">
     <!-- log10 of Df -->
     <defs>
      <path d="M 9.421875 75.984375 
L 18.40625 75.984375 
L 18.40625 0 
L 9.421875 0 
z
" id="DejaVuSans-108"/>
      <path d="M 30.609375 48.390625 
Q 23.390625 48.390625 19.1875 42.75 
Q 14.984375 37.109375 14.984375 27.296875 
Q 14.984375 17.484375 19.15625 11.84375 
Q 23.34375 6.203125 30.609375 6.203125 
Q 37.796875 6.203125 41.984375 11.859375 
Q 46.1875 17.53125 46.1875 27.296875 
Q 46.1875 37.015625 41.984375 42.703125 
Q 37.796875 48.390625 30.609375 48.390625 
z
M 30.609375 56 
Q 42.328125 56 49.015625 48.375 
Q 55.71875 40.765625 55.71875 27.296875 
Q 55.71875 13.875 49.015625 6.21875 
Q 42.328125 -1.421875 30.609375 -1.421875 
Q 18.84375 -1.421875 12.171875 6.21875 
Q 5.515625 13.875 5.515625 27.296875 
Q 5.515625 40.765625 12.171875 48.375 
Q 18.84375 56 30.609375 56 
z
" id="DejaVuSans-111"/>
      <path d="M 45.40625 27.984375 
Q 45.40625 37.75 41.375 43.109375 
Q 37.359375 48.484375 30.078125 48.484375 
Q 22.859375 48.484375 18.828125 43.109375 
Q 14.796875 37.75 14.796875 27.984375 
Q 14.796875 18.265625 18.828125 12.890625 
Q 22.859375 7.515625 30.078125 7.515625 
Q 37.359375 7.515625 41.375 12.890625 
Q 45.40625 18.265625 45.40625 27.984375 
z
M 54.390625 6.78125 
Q 54.390625 -7.171875 48.1875 -13.984375 
Q 42 -20.796875 29.203125 -20.796875 
Q 24.46875 -20.796875 20.265625 -20.09375 
Q 16.0625 -19.390625 12.109375 -17.921875 
L 12.109375 -9.1875 
Q 16.0625 -11.328125 19.921875 -12.34375 
Q 23.78125 -13.375 27.78125 -13.375 
Q 36.625 -13.375 41.015625 -8.765625 
Q 45.40625 -4.15625 45.40625 5.171875 
L 45.40625 9.625 
Q 42.625 4.78125 38.28125 2.390625 
Q 33.9375 0 27.875 0 
Q 17.828125 0 11.671875 7.65625 
Q 5.515625 15.328125 5.515625 27.984375 
Q 5.515625 40.671875 11.671875 48.328125 
Q 17.828125 56 27.875 56 
Q 33.9375 56 38.28125 53.609375 
Q 42.625 51.21875 45.40625 46.390625 
L 45.40625 54.6875 
L 54.390625 54.6875 
z
" id="DejaVuSans-103"/>
      <path d="M 12.40625 8.296875 
L 28.515625 8.296875 
L 28.515625 63.921875 
L 10.984375 60.40625 
L 10.984375 69.390625 
L 28.421875 72.90625 
L 38.28125 72.90625 
L 38.28125 8.296875 
L 54.390625 8.296875 
L 54.390625 0 
L 12.40625 0 
z
" id="DejaVuSans-49"/>
      <path id="DejaVuSans-32"/>
      <path d="M 37.109375 75.984375 
L 37.109375 68.5 
L 28.515625 68.5 
Q 23.6875 68.5 21.796875 66.546875 
Q 19.921875 64.59375 19.921875 59.515625 
L 19.921875 54.6875 
L 34.71875 54.6875 
L 34.71875 47.703125 
L 19.921875 47.703125 
L 19.921875 0 
L 10.890625 0 
L 10.890625 47.703125 
L 2.296875 47.703125 
L 2.296875 54.6875 
L 10.890625 54.6875 
L 10.890625 58.5 
Q 10.890625 67.625 15.140625 71.796875 
Q 19.390625 75.984375 28.609375 75.984375 
z
" id="DejaVuSans-102"/>
      <path d="M 19.671875 64.796875 
L 19.671875 8.109375 
L 31.59375 8.109375 
Q 46.6875 8.109375 53.6875 14.9375 
Q 60.6875 21.78125 60.6875 36.53125 
Q 60.6875 51.171875 53.6875 57.984375 
Q 46.6875 64.796875 31.59375 64.796875 
z
M 9.8125 72.90625 
L 30.078125 72.90625 
Q 51.265625 72.90625 61.171875 64.09375 
Q 71.09375 55.28125 71.09375 36.53125 
Q 71.09375 17.671875 61.125 8.828125 
Q 51.171875 0 30.078125 0 
L 9.8125 0 
z
" id="DejaVuSans-68"/>
     </defs>
     <g transform="translate(175.214063 339.313125)scale(0.2 -0.2)">
      <use xlink:href="#DejaVuSans-108"/>
      <use x="27.783203" xlink:href="#DejaVuSans-111"/>
      <use x="88.964844" xlink:href="#DejaVuSans-103"/>
      <use x="152.441406" xlink:href="#DejaVuSans-49"/>
      <use x="216.064453" xlink:href="#DejaVuSans-48"/>
      <use x="279.6875" xlink:href="#DejaVuSans-32"/>
      <use x="311.474609" xlink:href="#DejaVuSans-111"/>
      <use x="372.65625" xlink:href="#DejaVuSans-102"/>
      <use x="407.861328" xlink:href="#DejaVuSans-32"/>
      <use x="439.648438" xlink:href="#DejaVuSans-68"/>
      <use x="516.650391" xlink:href="#DejaVuSans-102"/>
     </g>
    </g>
   </g>
   <g id="matplotlib.axis_2">
    <g id="ytick_1">
     <g id="line2d_9">
      <path clip-path="url(#p12910ca3d2)" d="M 0 293.76 
L 460.8 293.76 
" style="fill:none;stroke:#b0b0b0;stroke-linecap:square;stroke-width:0.8;"/>
     </g>
     <g id="line2d_10">
      <defs>
       <path d="M 0 0 
L -3.5 0 
" id="mb75af59ee2" style="stroke:#000000;stroke-width:0.8;"/>
      </defs>
      <g>
       <use style="stroke:#000000;stroke-width:0.8;" x="0" xlink:href="#mb75af59ee2" y="293.76"/>
      </g>
     </g>
    </g>
    <g id="ytick_2">
     <g id="line2d_11">
      <path clip-path="url(#p12910ca3d2)" d="M 0 236.274059 
L 460.8 236.274059 
" style="fill:none;stroke:#b0b0b0;stroke-linecap:square;stroke-width:0.8;"/>
     </g>
     <g id="line2d_12">
      <g>
       <use style="stroke:#000000;stroke-width:0.8;" x="0" xlink:href="#mb75af59ee2" y="236.274059"/>
      </g>
     </g>
    </g>
    <g id="ytick_3">
     <g id="line2d_13">
      <path clip-path="url(#p12910ca3d2)" d="M 0 178.788119 
L 460.8 178.788119 
" style="fill:none;stroke:#b0b0b0;stroke-linecap:square;stroke-width:0.8;"/>
     </g>
     <g id="line2d_14">
      <g>
       <use style="stroke:#000000;stroke-width:0.8;" x="0" xlink:href="#mb75af59ee2" y="178.788119"/>
      </g>
     </g>
    </g>
    <g id="ytick_4">
     <g id="line2d_15">
      <path clip-path="url(#p12910ca3d2)" d="M 0 121.302178 
L 460.8 121.302178 
" style="fill:none;stroke:#b0b0b0;stroke-linecap:square;stroke-width:0.8;"/>
     </g>
     <g id="line2d_16">
      <g>
       <use style="stroke:#000000;stroke-width:0.8;" x="0" xlink:href="#mb75af59ee2" y="121.302178"/>
      </g>
     </g>
    </g>
    <g id="ytick_5">
     <g id="line2d_17">
      <path clip-path="url(#p12910ca3d2)" d="M 0 63.816238 
L 460.8 63.816238 
" style="fill:none;stroke:#b0b0b0;stroke-linecap:square;stroke-width:0.8;"/>
     </g>
     <g id="line2d_18">
      <g>
       <use style="stroke:#000000;stroke-width:0.8;" x="0" xlink:href="#mb75af59ee2" y="63.816238"/>
      </g>
     </g>
    </g>
    <g id="ytick_6">
     <g id="line2d_19">
      <path clip-path="url(#p12910ca3d2)" d="M 0 6.330297 
L 460.8 6.330297 
" style="fill:none;stroke:#b0b0b0;stroke-linecap:square;stroke-width:0.8;"/>
     </g>
     <g id="line2d_20">
      <g>
       <use style="stroke:#000000;stroke-width:0.8;" x="0" xlink:href="#mb75af59ee2" y="6.330297"/>
      </g>
     </g>
    </g>
   </g>
   <g id="line2d_21">
    <path clip-path="url(#p12910ca3d2)" d="M 214.739751 293.76 
L 214.739751 289.927604 
L 215.515607 289.927604 
L 215.515607 286.095208 
L 222.605197 286.095208 
L 222.605197 282.262812 
L 223.624488 282.262812 
L 223.624488 278.430416 
L 224.257624 278.430416 
L 224.257624 274.59802 
L 224.627621 274.59802 
L 224.627621 270.765624 
L 225.02717 270.765624 
L 225.02717 266.933228 
L 228.103757 266.933228 
L 228.103757 263.100832 
L 228.447401 263.100832 
L 228.447401 259.268436 
L 228.595379 259.268436 
L 228.595379 255.43604 
L 229.102365 255.43604 
L 229.102365 251.603644 
L 230.220071 251.603644 
L 230.220071 247.771248 
L 230.597518 247.771248 
L 230.686817 240.106455 
L 231.089681 240.106455 
L 231.089681 236.274059 
L 231.739072 236.274059 
L 231.739072 232.441663 
L 232.100082 232.441663 
L 232.100082 228.609267 
L 232.241554 228.609267 
L 232.241554 224.776871 
L 232.378134 224.776871 
L 232.378134 220.944475 
L 232.652153 220.944475 
L 232.652153 217.112079 
L 232.911205 217.112079 
L 233.017107 209.447287 
L 233.345271 209.447287 
L 233.393882 201.782495 
L 234.137916 201.782495 
L 234.137916 197.950099 
L 234.807637 197.950099 
L 234.807637 194.117703 
L 235.380644 194.117703 
L 235.380644 190.285307 
L 235.93145 190.285307 
L 235.93145 186.452911 
L 236.103663 186.452911 
L 236.103663 182.620515 
L 236.965196 182.620515 
L 236.965196 178.788119 
L 237.09499 178.788119 
L 237.09499 174.955723 
L 238.029066 174.955723 
L 238.029066 171.123327 
L 241.051641 171.123327 
L 241.051641 167.290931 
L 242.40523 167.290931 
L 242.40523 163.458535 
L 243.306947 163.458535 
L 243.306947 159.626139 
L 244.7357 159.626139 
L 244.7357 155.793743 
L 245.249353 155.793743 
L 245.307357 148.12895 
L 246.127569 148.12895 
L 246.127569 144.296554 
L 246.904545 144.296554 
L 246.904545 140.464158 
L 247.384051 140.464158 
L 247.384051 136.631762 
L 247.946261 136.631762 
L 247.946261 132.799366 
L 248.533705 132.799366 
L 248.533705 128.96697 
L 248.732812 128.96697 
L 248.732812 125.134574 
L 249.168458 125.134574 
L 249.168458 121.302178 
L 249.534356 121.302178 
L 249.534356 117.469782 
L 249.730904 117.469782 
L 249.730904 113.637386 
L 250.328791 113.637386 
L 250.432752 105.972594 
L 250.873871 105.972594 
L 250.873871 102.140198 
L 251.273304 102.140198 
L 251.346498 94.475406 
L 251.694046 94.475406 
L 251.694046 90.64301 
L 251.939761 90.64301 
L 251.939761 86.810614 
L 252.296321 86.810614 
L 252.296321 82.978218 
L 252.500691 82.978218 
L 252.500691 79.145822 
L 254.466843 79.145822 
L 254.466843 75.313426 
L 255.935943 75.313426 
L 255.935943 71.48103 
L 256.586187 71.48103 
L 256.586187 67.648634 
L 258.764172 67.648634 
L 258.764172 63.816238 
L 259.627745 63.816238 
L 259.627745 59.983842 
L 259.950532 59.983842 
L 259.950532 56.151446 
L 261.436626 56.151446 
L 261.436626 52.31905 
L 262.19562 52.31905 
L 262.19562 48.486653 
L 263.218157 48.486653 
L 263.229464 40.821861 
L 263.367032 40.821861 
L 263.394437 33.157069 
L 264.234331 33.157069 
L 264.234331 29.324673 
L 265.572672 29.324673 
L 265.572672 25.492277 
L 267.118541 25.492277 
L 267.118541 21.659881 
L 267.431647 21.659881 
L 267.431647 17.827485 
L 269.400438 17.827485 
L 269.400438 13.995089 
L 269.551891 13.995089 
L 269.551891 10.162693 
L 272.8718 10.162693 
L 272.8718 6.330297 
L 272.8718 6.330297 
L 460.8 6.330297 
L 460.8 6.330297 
" style="fill:none;stroke:#ff0000;stroke-linecap:square;stroke-width:3;"/>
   </g>
   <g id="line2d_22">
    <path clip-path="url(#p12910ca3d2)" d="M 231.130771 293.76 
L 231.130771 289.927604 
L 232.168016 289.927604 
L 232.168016 286.095208 
L 233.767531 286.095208 
L 233.767531 282.262812 
L 236.471917 282.262812 
L 236.471917 278.430416 
L 238.17363 278.430416 
L 238.17363 274.59802 
L 238.434233 274.59802 
L 238.434233 270.765624 
L 239.705952 270.765624 
L 239.705952 266.933228 
L 240.45048 266.933228 
L 240.45048 263.100832 
L 240.743827 263.100832 
L 240.743827 259.268436 
L 241.650331 259.268436 
L 241.650331 255.43604 
L 242.093848 255.43604 
L 242.093848 251.603644 
L 242.574616 251.603644 
L 242.574616 247.771248 
L 242.799063 247.771248 
L 242.817386 240.106455 
L 243.093369 240.106455 
L 243.093369 236.274059 
L 244.63083 236.274059 
L 244.63083 232.441663 
L 244.894288 232.441663 
L 244.894288 228.609267 
L 245.217205 228.609267 
L 245.235053 220.944475 
L 245.451593 220.944475 
L 245.451593 217.112079 
L 247.788513 217.112079 
L 247.788513 213.279683 
L 248.010853 213.279683 
L 248.010853 209.447287 
L 248.53068 209.447287 
L 248.53068 205.614891 
L 249.312446 205.614891 
L 249.314325 197.950099 
L 252.628144 197.950099 
L 252.628144 194.117703 
L 253.469095 194.117703 
L 253.469095 190.285307 
L 253.853406 190.285307 
L 253.853406 186.452911 
L 256.06375 186.452911 
L 256.06375 182.620515 
L 256.21103 182.620515 
L 256.21103 178.788119 
L 256.412874 178.788119 
L 256.412874 174.955723 
L 257.05459 174.955723 
L 257.05459 171.123327 
L 257.262193 171.123327 
L 257.292944 163.458535 
L 260.292257 163.458535 
L 260.292257 159.626139 
L 260.700755 159.626139 
L 260.700755 155.793743 
L 261.745887 155.793743 
L 261.745887 151.961347 
L 261.979468 151.961347 
L 261.979468 148.12895 
L 262.206336 148.12895 
L 262.219328 140.464158 
L 262.348329 140.464158 
L 262.359115 132.799366 
L 263.519324 132.799366 
L 263.519324 128.96697 
L 264.4994 128.96697 
L 264.4994 125.134574 
L 264.814619 125.134574 
L 264.814619 121.302178 
L 265.857996 121.302178 
L 265.857996 117.469782 
L 266.027579 117.469782 
L 266.027579 113.637386 
L 266.281661 113.637386 
L 266.281661 109.80499 
L 266.858881 109.80499 
L 266.858881 105.972594 
L 267.431647 105.972594 
L 267.431647 102.140198 
L 267.899813 102.140198 
L 267.899813 98.307802 
L 268.100143 98.307802 
L 268.100143 94.475406 
L 268.393696 94.475406 
L 268.393696 90.64301 
L 269.99197 90.64301 
L 270.101027 82.978218 
L 270.896237 82.978218 
L 270.896237 79.145822 
L 271.38042 79.145822 
L 271.38042 75.313426 
L 271.659404 75.313426 
L 271.659404 71.48103 
L 272.102402 71.48103 
L 272.102402 67.648634 
L 273.513252 67.648634 
L 273.513252 63.816238 
L 274.042502 63.816238 
L 274.061368 52.31905 
L 274.28282 52.31905 
L 274.28282 48.486653 
L 274.773161 48.486653 
L 274.773161 44.654257 
L 275.770385 44.654257 
L 275.770385 40.821861 
L 276.250591 40.821861 
L 276.250591 36.989465 
L 277.606739 36.989465 
L 277.606739 33.157069 
L 277.852521 33.157069 
L 277.852521 29.324673 
L 279.310056 29.324673 
L 279.310056 25.492277 
L 279.908942 25.492277 
L 279.908942 21.659881 
L 281.139877 21.659881 
L 281.139877 17.827485 
L 282.184629 17.827485 
L 282.184629 13.995089 
L 285.5825 13.995089 
L 285.5825 10.162693 
L 288.513822 10.162693 
L 288.513822 6.330297 
L 288.513822 6.330297 
L 460.8 6.330297 
L 460.8 6.330297 
" style="fill:none;stroke:#00bfbf;stroke-linecap:square;stroke-width:1.5;"/>
   </g>
   <g id="line2d_23">
    <path clip-path="url(#p12910ca3d2)" d="M 229.423423 293.76 
L 229.423423 289.927604 
L 230.189394 289.927604 
L 230.189394 286.095208 
L 231.130771 286.095208 
L 231.130771 282.262812 
L 231.745023 282.262812 
L 231.745023 278.430416 
L 232.168016 278.430416 
L 232.168016 274.59802 
L 232.864598 274.59802 
L 232.864598 270.765624 
L 233.767531 270.765624 
L 233.767531 266.933228 
L 236.471917 266.933228 
L 236.471917 263.100832 
L 237.745416 263.100832 
L 237.745416 259.268436 
L 238.17363 259.268436 
L 238.17363 255.43604 
L 238.434233 255.43604 
L 238.434233 251.603644 
L 240.250868 251.603644 
L 240.250868 247.771248 
L 240.478279 247.771248 
L 240.478279 243.938851 
L 241.004889 243.938851 
L 241.038769 236.274059 
L 241.569857 236.274059 
L 241.569857 232.441663 
L 242.093848 232.441663 
L 242.093848 228.609267 
L 242.461127 228.609267 
L 242.461127 224.776871 
L 242.799063 224.776871 
L 242.817386 217.112079 
L 243.093369 217.112079 
L 243.110013 209.447287 
L 243.286384 209.447287 
L 243.286384 205.614891 
L 244.033928 205.614891 
L 244.033928 201.782495 
L 244.751058 201.782495 
L 244.751058 197.950099 
L 245.235053 197.950099 
L 245.235053 194.117703 
L 245.451593 194.117703 
L 245.451593 190.285307 
L 247.539164 190.285307 
L 247.539164 186.452911 
L 251.57641 186.452911 
L 251.57641 182.620515 
L 252.365753 182.620515 
L 252.365753 178.788119 
L 253.469095 178.788119 
L 253.469095 174.955723 
L 254.532242 174.955723 
L 254.532242 171.123327 
L 255.264097 171.123327 
L 255.264097 167.290931 
L 256.21103 167.290931 
L 256.21103 163.458535 
L 256.412874 163.458535 
L 256.412874 159.626139 
L 256.574772 159.626139 
L 256.574772 155.793743 
L 256.925503 155.793743 
L 257.01879 148.12895 
L 257.05459 148.12895 
L 257.05459 144.296554 
L 257.292944 144.296554 
L 257.292944 140.464158 
L 257.464747 140.464158 
L 257.464747 136.631762 
L 257.655507 136.631762 
L 257.717506 128.96697 
L 258.239669 128.96697 
L 258.239669 125.134574 
L 258.790358 125.134574 
L 258.790358 121.302178 
L 258.97644 121.302178 
L 258.97644 117.469782 
L 259.509776 117.469782 
L 259.578961 109.80499 
L 260.380516 109.80499 
L 260.380516 105.972594 
L 260.770294 105.972594 
L 260.770294 102.140198 
L 261.377066 102.140198 
L 261.377066 98.307802 
L 262.025438 98.307802 
L 262.025438 94.475406 
L 262.448023 94.475406 
L 262.448023 90.64301 
L 263.328444 90.64301 
L 263.328444 86.810614 
L 263.447343 86.810614 
L 263.447343 82.978218 
L 264.4994 82.978218 
L 264.4994 79.145822 
L 265.018519 79.145822 
L 265.018519 75.313426 
L 265.589694 75.313426 
L 265.589694 71.48103 
L 266.021234 71.48103 
L 266.021234 67.648634 
L 267.402423 67.648634 
L 267.431647 59.983842 
L 267.822401 59.983842 
L 267.899813 52.31905 
L 272.178062 52.31905 
L 272.211078 44.654257 
L 272.349528 44.654257 
L 272.455104 36.989465 
L 273.043573 36.989465 
L 273.064809 29.324673 
L 273.255295 29.324673 
L 273.255295 25.492277 
L 273.513252 25.492277 
L 273.513252 21.659881 
L 274.363621 21.659881 
L 274.363621 17.827485 
L 275.199352 17.827485 
L 275.199352 13.995089 
L 278.056951 13.995089 
L 278.056951 10.162693 
L 279.922658 10.162693 
L 279.922658 6.330297 
L 279.922658 6.330297 
L 460.8 6.330297 
L 460.8 6.330297 
" style="fill:none;stroke:#bf00bf;stroke-linecap:square;stroke-width:1.5;"/>
   </g>
   <g id="line2d_24">
    <path clip-path="url(#p12910ca3d2)" d="M 229.423423 293.76 
L 229.423423 289.927604 
L 230.189394 289.927604 
L 230.189394 286.095208 
L 231.130771 286.095208 
L 231.130771 282.262812 
L 231.745023 282.262812 
L 231.745023 278.430416 
L 232.168016 278.430416 
L 232.168016 274.59802 
L 232.864598 274.59802 
L 232.864598 270.765624 
L 233.767531 270.765624 
L 233.767531 266.933228 
L 235.460124 266.933228 
L 235.553726 259.268436 
L 236.103663 259.268436 
L 236.103663 255.43604 
L 236.471917 255.43604 
L 236.471917 251.603644 
L 237.745416 251.603644 
L 237.745416 247.771248 
L 237.863287 247.771248 
L 237.863287 243.938851 
L 238.17363 243.938851 
L 238.17363 240.106455 
L 238.434233 240.106455 
L 238.434233 236.274059 
L 239.223928 236.274059 
L 239.223928 232.441663 
L 240.250868 232.441663 
L 240.250868 228.609267 
L 241.004889 228.609267 
L 241.038769 220.944475 
L 241.427216 220.944475 
L 241.427216 217.112079 
L 241.657851 217.112079 
L 241.657851 213.279683 
L 242.093848 213.279683 
L 242.093848 209.447287 
L 242.233335 209.447287 
L 242.233335 205.614891 
L 242.40523 205.614891 
L 242.40523 201.782495 
L 242.799063 201.782495 
L 242.817386 194.117703 
L 243.072976 194.117703 
L 243.093369 186.452911 
L 243.870352 186.452911 
L 243.870352 182.620515 
L 247.958846 182.620515 
L 247.958846 178.788119 
L 251.57641 178.788119 
L 251.57641 174.955723 
L 252.240476 174.955723 
L 252.240476 171.123327 
L 252.493659 171.123327 
L 252.589014 159.626139 
L 253.469095 159.626139 
L 253.469095 155.793743 
L 254.036331 155.793743 
L 254.036331 151.961347 
L 254.532242 151.961347 
L 254.532242 148.12895 
L 254.784103 148.12895 
L 254.784103 144.296554 
L 255.264097 144.296554 
L 255.264097 140.464158 
L 255.47446 140.464158 
L 255.47446 136.631762 
L 256.21103 136.631762 
L 256.21103 132.799366 
L 256.412874 132.799366 
L 256.412874 128.96697 
L 257.01879 128.96697 
L 257.01879 125.134574 
L 257.292944 125.134574 
L 257.292944 121.302178 
L 257.464747 121.302178 
L 257.464747 117.469782 
L 257.655507 117.469782 
L 257.717506 109.80499 
L 258.239669 109.80499 
L 258.239669 105.972594 
L 258.97644 105.972594 
L 259.030681 98.307802 
L 259.509776 98.307802 
L 259.509776 94.475406 
L 260.380516 94.475406 
L 260.380516 90.64301 
L 260.660611 90.64301 
L 260.660611 86.810614 
L 261.367993 86.810614 
L 261.367993 82.978218 
L 261.623632 82.978218 
L 261.623632 79.145822 
L 263.328444 79.145822 
L 263.328444 75.313426 
L 263.447343 75.313426 
L 263.447343 71.48103 
L 263.771143 71.48103 
L 263.771143 67.648634 
L 264.306683 67.648634 
L 264.306683 63.816238 
L 265.018519 63.816238 
L 265.018519 59.983842 
L 266.94101 59.983842 
L 266.94101 56.151446 
L 267.402423 56.151446 
L 267.431647 48.486653 
L 269.045381 48.486653 
L 269.045381 44.654257 
L 269.381831 44.654257 
L 269.381831 40.821861 
L 270.41014 40.821861 
L 270.447295 33.157069 
L 270.870338 33.157069 
L 270.870338 29.324673 
L 271.559021 29.324673 
L 271.559021 25.492277 
L 272.178062 25.492277 
L 272.211078 17.827485 
L 272.715895 17.827485 
L 272.715895 13.995089 
L 274.363621 13.995089 
L 274.363621 10.162693 
L 278.056951 10.162693 
L 278.056951 6.330297 
L 278.056951 6.330297 
L 460.8 6.330297 
L 460.8 6.330297 
" style="fill:none;stroke:#000000;stroke-linecap:square;stroke-width:1.5;"/>
   </g>
   <g id="line2d_25">
    <path clip-path="url(#p12910ca3d2)" d="M 229.423423 293.76 
L 229.423423 289.927604 
L 230.189394 289.927604 
L 230.189394 286.095208 
L 231.089681 286.095208 
L 231.130771 278.430416 
L 231.745023 278.430416 
L 231.745023 274.59802 
L 232.168016 274.59802 
L 232.168016 270.765624 
L 232.864598 270.765624 
L 232.864598 266.933228 
L 233.017107 266.933228 
L 233.017107 263.100832 
L 233.767531 263.100832 
L 233.767531 259.268436 
L 235.460124 259.268436 
L 235.553726 251.603644 
L 235.93145 251.603644 
L 235.93145 247.771248 
L 236.103663 247.771248 
L 236.103663 243.938851 
L 236.471917 243.938851 
L 236.471917 240.106455 
L 237.522767 240.106455 
L 237.522767 236.274059 
L 237.745416 236.274059 
L 237.745416 232.441663 
L 237.863287 232.441663 
L 237.863287 228.609267 
L 238.17363 228.609267 
L 238.17363 224.776871 
L 238.434233 224.776871 
L 238.434233 220.944475 
L 239.223928 220.944475 
L 239.223928 217.112079 
L 239.853142 217.112079 
L 239.853142 213.279683 
L 241.038769 213.279683 
L 241.046294 205.614891 
L 241.427216 205.614891 
L 241.427216 201.782495 
L 241.907337 201.782495 
L 241.907337 197.950099 
L 242.093848 197.950099 
L 242.093848 194.117703 
L 242.218828 194.117703 
L 242.218828 190.285307 
L 242.40523 190.285307 
L 242.40523 186.452911 
L 242.799063 186.452911 
L 242.799063 182.620515 
L 243.093369 182.620515 
L 243.093369 178.788119 
L 245.884682 178.788119 
L 245.884682 174.955723 
L 246.127569 174.955723 
L 246.127569 171.123327 
L 246.904545 171.123327 
L 246.904545 167.290931 
L 249.168458 167.290931 
L 249.168458 163.458535 
L 249.348866 163.458535 
L 249.348866 159.626139 
L 249.883484 159.626139 
L 249.883484 155.793743 
L 250.873871 155.793743 
L 250.889376 148.12895 
L 251.672084 148.12895 
L 251.741824 136.631762 
L 251.939761 136.631762 
L 251.939761 132.799366 
L 252.195442 132.799366 
L 252.296321 125.134574 
L 252.589014 125.134574 
L 252.589014 121.302178 
L 253.469095 121.302178 
L 253.469095 117.469782 
L 254.255661 117.469782 
L 254.255661 113.637386 
L 254.466843 113.637386 
L 254.466843 109.80499 
L 254.679097 109.80499 
L 254.784103 102.140198 
L 254.973279 102.140198 
L 254.973279 98.307802 
L 255.175104 98.307802 
L 255.264097 90.64301 
L 256.041457 90.64301 
L 256.041457 86.810614 
L 256.401915 86.810614 
L 256.401915 82.978218 
L 257.840614 82.978218 
L 257.840614 79.145822 
L 259.030681 79.145822 
L 259.030681 75.313426 
L 259.627745 75.313426 
L 259.627745 71.48103 
L 259.950532 71.48103 
L 259.950532 67.648634 
L 260.505861 67.648634 
L 260.505861 63.816238 
L 262.19562 63.816238 
L 262.19562 59.983842 
L 263.447343 59.983842 
L 263.447343 56.151446 
L 265.870534 56.151446 
L 265.870534 52.31905 
L 266.94101 52.31905 
L 266.94101 48.486653 
L 267.313117 48.486653 
L 267.402423 40.821861 
L 267.431647 40.821861 
L 267.431647 36.989465 
L 267.89487 36.989465 
L 267.89487 33.157069 
L 268.042487 33.157069 
L 268.145104 25.492277 
L 269.793566 25.492277 
L 269.793566 21.659881 
L 270.277971 21.659881 
L 270.277971 17.827485 
L 271.559021 17.827485 
L 271.559021 13.995089 
L 272.211078 13.995089 
L 272.211078 10.162693 
L 273.695689 10.162693 
L 273.695689 6.330297 
L 273.695689 6.330297 
L 460.8 6.330297 
L 460.8 6.330297 
" style="fill:none;stroke:#00bfbf;stroke-linecap:square;stroke-width:1.5;"/>
   </g>
   <g id="line2d_26">
    <path clip-path="url(#p12910ca3d2)" d="M 214.739751 293.76 
L 214.739751 289.927604 
L 215.515607 289.927604 
L 215.515607 286.095208 
L 222.605197 286.095208 
L 222.605197 282.262812 
L 223.624488 282.262812 
L 223.624488 278.430416 
L 224.257624 278.430416 
L 224.257624 274.59802 
L 224.627621 274.59802 
L 224.627621 270.765624 
L 225.02717 270.765624 
L 225.02717 266.933228 
L 228.103757 266.933228 
L 228.103757 263.100832 
L 228.447401 263.100832 
L 228.447401 259.268436 
L 228.595379 259.268436 
L 228.595379 255.43604 
L 229.102365 255.43604 
L 229.102365 251.603644 
L 230.220071 251.603644 
L 230.220071 247.771248 
L 230.597518 247.771248 
L 230.686817 240.106455 
L 231.089681 240.106455 
L 231.089681 236.274059 
L 231.739072 236.274059 
L 231.739072 232.441663 
L 232.100082 232.441663 
L 232.100082 228.609267 
L 232.241554 228.609267 
L 232.241554 224.776871 
L 232.378134 224.776871 
L 232.378134 220.944475 
L 232.652153 220.944475 
L 232.652153 217.112079 
L 232.911205 217.112079 
L 233.017107 209.447287 
L 233.345271 209.447287 
L 233.393882 201.782495 
L 234.137916 201.782495 
L 234.137916 197.950099 
L 234.807637 197.950099 
L 234.807637 194.117703 
L 235.380644 194.117703 
L 235.380644 190.285307 
L 235.93145 190.285307 
L 235.93145 186.452911 
L 236.103663 186.452911 
L 236.103663 182.620515 
L 236.965196 182.620515 
L 236.965196 178.788119 
L 237.09499 178.788119 
L 237.09499 174.955723 
L 238.029066 174.955723 
L 238.029066 171.123327 
L 241.051641 171.123327 
L 241.051641 167.290931 
L 242.40523 167.290931 
L 242.40523 163.458535 
L 243.306947 163.458535 
L 243.306947 159.626139 
L 244.7357 159.626139 
L 244.7357 155.793743 
L 245.249353 155.793743 
L 245.307357 148.12895 
L 246.127569 148.12895 
L 246.127569 144.296554 
L 246.904545 144.296554 
L 246.904545 140.464158 
L 247.384051 140.464158 
L 247.384051 136.631762 
L 247.946261 136.631762 
L 247.946261 132.799366 
L 248.533705 132.799366 
L 248.533705 128.96697 
L 248.732812 128.96697 
L 248.732812 125.134574 
L 249.168458 125.134574 
L 249.168458 121.302178 
L 249.534356 121.302178 
L 249.534356 117.469782 
L 249.730904 117.469782 
L 249.730904 113.637386 
L 250.328791 113.637386 
L 250.432752 105.972594 
L 250.873871 105.972594 
L 250.873871 102.140198 
L 251.273304 102.140198 
L 251.346498 94.475406 
L 251.694046 94.475406 
L 251.694046 90.64301 
L 251.939761 90.64301 
L 251.939761 86.810614 
L 252.296321 86.810614 
L 252.296321 82.978218 
L 252.500691 82.978218 
L 252.500691 79.145822 
L 254.466843 79.145822 
L 254.466843 75.313426 
L 255.935943 75.313426 
L 255.935943 71.48103 
L 256.586187 71.48103 
L 256.586187 67.648634 
L 258.764172 67.648634 
L 258.764172 63.816238 
L 259.627745 63.816238 
L 259.627745 59.983842 
L 259.950532 59.983842 
L 259.950532 56.151446 
L 261.436626 56.151446 
L 261.436626 52.31905 
L 262.19562 52.31905 
L 262.19562 48.486653 
L 263.218157 48.486653 
L 263.229464 40.821861 
L 263.367032 40.821861 
L 263.394437 33.157069 
L 264.234331 33.157069 
L 264.234331 29.324673 
L 265.572672 29.324673 
L 265.572672 25.492277 
L 267.118541 25.492277 
L 267.118541 21.659881 
L 267.431647 21.659881 
L 267.431647 17.827485 
L 269.400438 17.827485 
L 269.400438 13.995089 
L 269.551891 13.995089 
L 269.551891 10.162693 
L 272.8718 10.162693 
L 272.8718 6.330297 
L 272.8718 6.330297 
L 460.8 6.330297 
L 460.8 6.330297 
" style="fill:none;stroke:#bf00bf;stroke-linecap:square;stroke-width:1.5;"/>
   </g>
   <g id="patch_3">
    <path d="M 0 293.76 
L 0 3.456 
" style="fill:none;stroke:#000000;stroke-linecap:square;stroke-linejoin:miter;stroke-width:0.8;"/>
   </g>
   <g id="patch_4">
    <path d="M 460.8 293.76 
L 460.8 3.456 
" style="fill:none;stroke:#000000;stroke-linecap:square;stroke-linejoin:miter;stroke-width:0.8;"/>
   </g>
   <g id="patch_5">
    <path d="M -0 293.76 
L 460.8 293.76 
" style="fill:none;stroke:#000000;stroke-linecap:square;stroke-linejoin:miter;stroke-width:0.8;"/>
   </g>
   <g id="patch_6">
    <path d="M -0 3.456 
L 460.8 3.456 
" style="fill:none;stroke:#000000;stroke-linecap:square;stroke-linejoin:miter;stroke-width:0.8;"/>
   </g>
   <g id="text_6">
    <!-- {f15-f19}, 5-D -->
    <defs>
     <path d="M 51.125 -9.28125 
L 51.125 -16.3125 
L 48.09375 -16.3125 
Q 35.9375 -16.3125 31.8125 -12.6875 
Q 27.6875 -9.078125 27.6875 1.703125 
L 27.6875 13.375 
Q 27.6875 20.75 25.046875 23.578125 
Q 22.40625 26.421875 15.484375 26.421875 
L 12.5 26.421875 
L 12.5 33.40625 
L 15.484375 33.40625 
Q 22.46875 33.40625 25.078125 36.203125 
Q 27.6875 39.015625 27.6875 46.296875 
L 27.6875 58.015625 
Q 27.6875 68.796875 31.8125 72.390625 
Q 35.9375 75.984375 48.09375 75.984375 
L 51.125 75.984375 
L 51.125 69 
L 47.796875 69 
Q 40.921875 69 38.8125 66.84375 
Q 36.71875 64.703125 36.71875 57.8125 
L 36.71875 45.703125 
Q 36.71875 38.03125 34.5 34.5625 
Q 32.28125 31.109375 26.90625 29.890625 
Q 32.328125 28.5625 34.515625 25.09375 
Q 36.71875 21.625 36.71875 14.015625 
L 36.71875 1.90625 
Q 36.71875 -4.984375 38.8125 -7.125 
Q 40.921875 -9.28125 47.796875 -9.28125 
z
" id="DejaVuSans-123"/>
     <path d="M 10.796875 72.90625 
L 49.515625 72.90625 
L 49.515625 64.59375 
L 19.828125 64.59375 
L 19.828125 46.734375 
Q 21.96875 47.46875 24.109375 47.828125 
Q 26.265625 48.1875 28.421875 48.1875 
Q 40.625 48.1875 47.75 41.5 
Q 54.890625 34.8125 54.890625 23.390625 
Q 54.890625 11.625 47.5625 5.09375 
Q 40.234375 -1.421875 26.90625 -1.421875 
Q 22.3125 -1.421875 17.546875 -0.640625 
Q 12.796875 0.140625 7.71875 1.703125 
L 7.71875 11.625 
Q 12.109375 9.234375 16.796875 8.0625 
Q 21.484375 6.890625 26.703125 6.890625 
Q 35.15625 6.890625 40.078125 11.328125 
Q 45.015625 15.765625 45.015625 23.390625 
Q 45.015625 31 40.078125 35.4375 
Q 35.15625 39.890625 26.703125 39.890625 
Q 22.75 39.890625 18.8125 39.015625 
Q 14.890625 38.140625 10.796875 36.28125 
z
" id="DejaVuSans-53"/>
     <path d="M 10.984375 1.515625 
L 10.984375 10.5 
Q 14.703125 8.734375 18.5 7.8125 
Q 22.3125 6.890625 25.984375 6.890625 
Q 35.75 6.890625 40.890625 13.453125 
Q 46.046875 20.015625 46.78125 33.40625 
Q 43.953125 29.203125 39.59375 26.953125 
Q 35.25 24.703125 29.984375 24.703125 
Q 19.046875 24.703125 12.671875 31.3125 
Q 6.296875 37.9375 6.296875 49.421875 
Q 6.296875 60.640625 12.9375 67.421875 
Q 19.578125 74.21875 30.609375 74.21875 
Q 43.265625 74.21875 49.921875 64.515625 
Q 56.59375 54.828125 56.59375 36.375 
Q 56.59375 19.140625 48.40625 8.859375 
Q 40.234375 -1.421875 26.421875 -1.421875 
Q 22.703125 -1.421875 18.890625 -0.6875 
Q 15.09375 0.046875 10.984375 1.515625 
z
M 30.609375 32.421875 
Q 37.25 32.421875 41.125 36.953125 
Q 45.015625 41.5 45.015625 49.421875 
Q 45.015625 57.28125 41.125 61.84375 
Q 37.25 66.40625 30.609375 66.40625 
Q 23.96875 66.40625 20.09375 61.84375 
Q 16.21875 57.28125 16.21875 49.421875 
Q 16.21875 41.5 20.09375 36.953125 
Q 23.96875 32.421875 30.609375 32.421875 
z
" id="DejaVuSans-57"/>
     <path d="M 12.5 -9.28125 
L 15.921875 -9.28125 
Q 22.75 -9.28125 24.828125 -7.171875 
Q 26.90625 -5.078125 26.90625 1.90625 
L 26.90625 14.015625 
Q 26.90625 21.625 29.09375 25.09375 
Q 31.296875 28.5625 36.71875 29.890625 
Q 31.296875 31.109375 29.09375 34.5625 
Q 26.90625 38.03125 26.90625 45.703125 
L 26.90625 57.8125 
Q 26.90625 64.75 24.828125 66.875 
Q 22.75 69 15.921875 69 
L 12.5 69 
L 12.5 75.984375 
L 15.578125 75.984375 
Q 27.734375 75.984375 31.8125 72.390625 
Q 35.890625 68.796875 35.890625 58.015625 
L 35.890625 46.296875 
Q 35.890625 39.015625 38.515625 36.203125 
Q 41.15625 33.40625 48.09375 33.40625 
L 51.125 33.40625 
L 51.125 26.421875 
L 48.09375 26.421875 
Q 41.15625 26.421875 38.515625 23.578125 
Q 35.890625 20.75 35.890625 13.375 
L 35.890625 1.703125 
Q 35.890625 -9.078125 31.8125 -12.6875 
Q 27.734375 -16.3125 15.578125 -16.3125 
L 12.5 -16.3125 
z
" id="DejaVuSans-125"/>
     <path d="M 11.71875 12.40625 
L 22.015625 12.40625 
L 22.015625 4 
L 14.015625 -11.625 
L 7.71875 -11.625 
L 11.71875 4 
z
" id="DejaVuSans-44"/>
    </defs>
    <g transform="translate(305.884 287.95392)scale(0.2 -0.2)">
     <use xlink:href="#DejaVuSans-123"/>
     <use x="63.623047" xlink:href="#DejaVuSans-102"/>
     <use x="98.828125" xlink:href="#DejaVuSans-49"/>
     <use x="162.451172" xlink:href="#DejaVuSans-53"/>
     <use x="226.074219" xlink:href="#DejaVuSans-45"/>
     <use x="262.158203" xlink:href="#DejaVuSans-102"/>
     <use x="297.363281" xlink:href="#DejaVuSans-49"/>
     <use x="360.986328" xlink:href="#DejaVuSans-57"/>
     <use x="424.609375" xlink:href="#DejaVuSans-125"/>
     <use x="488.232422" xlink:href="#DejaVuSans-44"/>
     <use x="520.019531" xlink:href="#DejaVuSans-32"/>
     <use x="551.806641" xlink:href="#DejaVuSans-53"/>
     <use x="615.429688" xlink:href="#DejaVuSans-45"/>
     <use x="651.513672" xlink:href="#DejaVuSans-68"/>
    </g>
   </g>
   <g id="text_7">
    <!-- v2.4 -->
    <defs>
     <path d="M 2.984375 54.6875 
L 12.5 54.6875 
L 29.59375 8.796875 
L 46.6875 54.6875 
L 56.203125 54.6875 
L 35.6875 0 
L 23.484375 0 
z
" id="DejaVuSans-118"/>
     <path d="M 19.1875 8.296875 
L 53.609375 8.296875 
L 53.609375 0 
L 7.328125 0 
L 7.328125 8.296875 
Q 12.9375 14.109375 22.625 23.890625 
Q 32.328125 33.6875 34.8125 36.53125 
Q 39.546875 41.84375 41.421875 45.53125 
Q 43.3125 49.21875 43.3125 52.78125 
Q 43.3125 58.59375 39.234375 62.25 
Q 35.15625 65.921875 28.609375 65.921875 
Q 23.96875 65.921875 18.8125 64.3125 
Q 13.671875 62.703125 7.8125 59.421875 
L 7.8125 69.390625 
Q 13.765625 71.78125 18.9375 73 
Q 24.125 74.21875 28.421875 74.21875 
Q 39.75 74.21875 46.484375 68.546875 
Q 53.21875 62.890625 53.21875 53.421875 
Q 53.21875 48.921875 51.53125 44.890625 
Q 49.859375 40.875 45.40625 35.40625 
Q 44.1875 33.984375 37.640625 27.21875 
Q 31.109375 20.453125 19.1875 8.296875 
z
" id="DejaVuSans-50"/>
     <path d="M 10.6875 12.40625 
L 21 12.40625 
L 21 0 
L 10.6875 0 
z
" id="DejaVuSans-46"/>
    </defs>
    <g style="fill:#808080;" transform="translate(219.489063 288.777272)scale(0.1 -0.1)">
     <use xlink:href="#DejaVuSans-118"/>
     <use x="59.179688" xlink:href="#DejaVuSans-50"/>
     <use x="122.802734" xlink:href="#DejaVuSans-46"/>
     <use x="154.589844" xlink:href="#DejaVuSans-52"/>
    </g>
   </g>
  </g>
 </g>
 <defs>
  <clipPath id="p12910ca3d2">
   <rect height="290.304" width="460.8" x="0" y="3.456"/>
  </clipPath>
 </defs>
</svg>
