<?xml version="1.0" encoding="utf-8" standalone="no"?>
<!DOCTYPE svg PUBLIC "-//W3C//DTD SVG 1.1//EN"
  "http://www.w3.org/Graphics/SVG/1.1/DTD/svg11.dtd">
<!-- Created with matplotlib (https://matplotlib.org/) -->
<svg height="345.6pt" version="1.1" viewBox="0 0 460.8 345.6" width="460.8pt" xmlns="http://www.w3.org/2000/svg" xmlns:xlink="http://www.w3.org/1999/xlink">
 <defs>
  <style type="text/css">
*{stroke-linecap:butt;stroke-linejoin:round;}
  </style>
 </defs>
 <g id="figure_1">
  <g id="patch_1">
   <path d="M 0 345.6 
L 460.8 345.6 
L 460.8 0 
L 0 0 
z
" style="fill:#ffffff;"/>
  </g>
  <g id="axes_1">
   <g id="patch_2">
    <path d="M 0 293.76 
L 460.8 293.76 
L 460.8 3.456 
L 0 3.456 
z
" style="fill:#ffffff;"/>
   </g>
   <g id="matplotlib.axis_1">
    <g id="xtick_1">
     <g id="line2d_1">
      <path clip-path="url(#pba019e677d)" d="M 105.044861 293.76 
L 105.044861 3.456 
" style="fill:none;stroke:#b0b0b0;stroke-linecap:square;stroke-width:0.8;"/>
     </g>
     <g id="line2d_2">
      <defs>
       <path d="M 0 0 
L 0 3.5 
" id="m65dbc45388" style="stroke:#000000;stroke-width:0.8;"/>
      </defs>
      <g>
       <use style="stroke:#000000;stroke-width:0.8;" x="105.044861" xlink:href="#m65dbc45388" y="293.76"/>
      </g>
     </g>
     <g id="text_1">
      <!-- -4 -->
      <defs>
       <path d="M 4.890625 31.390625 
L 31.203125 31.390625 
L 31.203125 23.390625 
L 4.890625 23.390625 
z
" id="DejaVuSans-45"/>
       <path d="M 37.796875 64.3125 
L 12.890625 25.390625 
L 37.796875 25.390625 
z
M 35.203125 72.90625 
L 47.609375 72.90625 
L 47.609375 25.390625 
L 58.015625 25.390625 
L 58.015625 17.1875 
L 47.609375 17.1875 
L 47.609375 0 
L 37.796875 0 
L 37.796875 17.1875 
L 4.890625 17.1875 
L 4.890625 26.703125 
z
" id="DejaVuSans-52"/>
      </defs>
      <g transform="translate(95.074549 315.956875)scale(0.2 -0.2)">
       <use xlink:href="#DejaVuSans-45"/>
       <use x="36.083984" xlink:href="#DejaVuSans-52"/>
      </g>
     </g>
    </g>
    <g id="xtick_2">
     <g id="line2d_3">
      <path clip-path="url(#pba019e677d)" d="M 210.203329 293.76 
L 210.203329 3.456 
" style="fill:none;stroke:#b0b0b0;stroke-linecap:square;stroke-width:0.8;"/>
     </g>
     <g id="line2d_4">
      <g>
       <use style="stroke:#000000;stroke-width:0.8;" x="210.203329" xlink:href="#m65dbc45388" y="293.76"/>
      </g>
     </g>
     <g id="text_2">
      <!-- 0 -->
      <defs>
       <path d="M 31.78125 66.40625 
Q 24.171875 66.40625 20.328125 58.90625 
Q 16.5 51.421875 16.5 36.375 
Q 16.5 21.390625 20.328125 13.890625 
Q 24.171875 6.390625 31.78125 6.390625 
Q 39.453125 6.390625 43.28125 13.890625 
Q 47.125 21.390625 47.125 36.375 
Q 47.125 51.421875 43.28125 58.90625 
Q 39.453125 66.40625 31.78125 66.40625 
z
M 31.78125 74.21875 
Q 44.046875 74.21875 50.515625 64.515625 
Q 56.984375 54.828125 56.984375 36.375 
Q 56.984375 17.96875 50.515625 8.265625 
Q 44.046875 -1.421875 31.78125 -1.421875 
Q 19.53125 -1.421875 13.0625 8.265625 
Q 6.59375 17.96875 6.59375 36.375 
Q 6.59375 54.828125 13.0625 64.515625 
Q 19.53125 74.21875 31.78125 74.21875 
z
" id="DejaVuSans-48"/>
      </defs>
      <g transform="translate(203.840829 315.956875)scale(0.2 -0.2)">
       <use xlink:href="#DejaVuSans-48"/>
      </g>
     </g>
    </g>
    <g id="xtick_3">
     <g id="line2d_5">
      <path clip-path="url(#pba019e677d)" d="M 315.361798 293.76 
L 315.361798 3.456 
" style="fill:none;stroke:#b0b0b0;stroke-linecap:square;stroke-width:0.8;"/>
     </g>
     <g id="line2d_6">
      <g>
       <use style="stroke:#000000;stroke-width:0.8;" x="315.361798" xlink:href="#m65dbc45388" y="293.76"/>
      </g>
     </g>
     <g id="text_3">
      <!-- 4 -->
      <g transform="translate(308.999298 315.956875)scale(0.2 -0.2)">
       <use xlink:href="#DejaVuSans-52"/>
      </g>
     </g>
    </g>
    <g id="xtick_4">
     <g id="line2d_7">
      <path clip-path="url(#pba019e677d)" d="M 420.520266 293.76 
L 420.520266 3.456 
" style="fill:none;stroke:#b0b0b0;stroke-linecap:square;stroke-width:0.8;"/>
     </g>
     <g id="line2d_8">
      <g>
       <use style="stroke:#000000;stroke-width:0.8;" x="420.520266" xlink:href="#m65dbc45388" y="293.76"/>
      </g>
     </g>
     <g id="text_4">
      <!-- 8 -->
      <defs>
       <path d="M 31.78125 34.625 
Q 24.75 34.625 20.71875 30.859375 
Q 16.703125 27.09375 16.703125 20.515625 
Q 16.703125 13.921875 20.71875 10.15625 
Q 24.75 6.390625 31.78125 6.390625 
Q 38.8125 6.390625 42.859375 10.171875 
Q 46.921875 13.96875 46.921875 20.515625 
Q 46.921875 27.09375 42.890625 30.859375 
Q 38.875 34.625 31.78125 34.625 
z
M 21.921875 38.8125 
Q 15.578125 40.375 12.03125 44.71875 
Q 8.5 49.078125 8.5 55.328125 
Q 8.5 64.0625 14.71875 69.140625 
Q 20.953125 74.21875 31.78125 74.21875 
Q 42.671875 74.21875 48.875 69.140625 
Q 55.078125 64.0625 55.078125 55.328125 
Q 55.078125 49.078125 51.53125 44.71875 
Q 48 40.375 41.703125 38.8125 
Q 48.828125 37.15625 52.796875 32.3125 
Q 56.78125 27.484375 56.78125 20.515625 
Q 56.78125 9.90625 50.3125 4.234375 
Q 43.84375 -1.421875 31.78125 -1.421875 
Q 19.734375 -1.421875 13.25 4.234375 
Q 6.78125 9.90625 6.78125 20.515625 
Q 6.78125 27.484375 10.78125 32.3125 
Q 14.796875 37.15625 21.921875 38.8125 
z
M 18.3125 54.390625 
Q 18.3125 48.734375 21.84375 45.5625 
Q 25.390625 42.390625 31.78125 42.390625 
Q 38.140625 42.390625 41.71875 45.5625 
Q 45.3125 48.734375 45.3125 54.390625 
Q 45.3125 60.0625 41.71875 63.234375 
Q 38.140625 66.40625 31.78125 66.40625 
Q 25.390625 66.40625 21.84375 63.234375 
Q 18.3125 60.0625 18.3125 54.390625 
z
" id="DejaVuSans-56"/>
      </defs>
      <g transform="translate(414.157766 315.956875)scale(0.2 -0.2)">
       <use xlink:href="#DejaVuSans-56"/>
      </g>
     </g>
    </g>
    <g id="text_5">
     <!-- log10 of Df -->
     <defs>
      <path d="M 9.421875 75.984375 
L 18.40625 75.984375 
L 18.40625 0 
L 9.421875 0 
z
" id="DejaVuSans-108"/>
      <path d="M 30.609375 48.390625 
Q 23.390625 48.390625 19.1875 42.75 
Q 14.984375 37.109375 14.984375 27.296875 
Q 14.984375 17.484375 19.15625 11.84375 
Q 23.34375 6.203125 30.609375 6.203125 
Q 37.796875 6.203125 41.984375 11.859375 
Q 46.1875 17.53125 46.1875 27.296875 
Q 46.1875 37.015625 41.984375 42.703125 
Q 37.796875 48.390625 30.609375 48.390625 
z
M 30.609375 56 
Q 42.328125 56 49.015625 48.375 
Q 55.71875 40.765625 55.71875 27.296875 
Q 55.71875 13.875 49.015625 6.21875 
Q 42.328125 -1.421875 30.609375 -1.421875 
Q 18.84375 -1.421875 12.171875 6.21875 
Q 5.515625 13.875 5.515625 27.296875 
Q 5.515625 40.765625 12.171875 48.375 
Q 18.84375 56 30.609375 56 
z
" id="DejaVuSans-111"/>
      <path d="M 45.40625 27.984375 
Q 45.40625 37.75 41.375 43.109375 
Q 37.359375 48.484375 30.078125 48.484375 
Q 22.859375 48.484375 18.828125 43.109375 
Q 14.796875 37.75 14.796875 27.984375 
Q 14.796875 18.265625 18.828125 12.890625 
Q 22.859375 7.515625 30.078125 7.515625 
Q 37.359375 7.515625 41.375 12.890625 
Q 45.40625 18.265625 45.40625 27.984375 
z
M 54.390625 6.78125 
Q 54.390625 -7.171875 48.1875 -13.984375 
Q 42 -20.796875 29.203125 -20.796875 
Q 24.46875 -20.796875 20.265625 -20.09375 
Q 16.0625 -19.390625 12.109375 -17.921875 
L 12.109375 -9.1875 
Q 16.0625 -11.328125 19.921875 -12.34375 
Q 23.78125 -13.375 27.78125 -13.375 
Q 36.625 -13.375 41.015625 -8.765625 
Q 45.40625 -4.15625 45.40625 5.171875 
L 45.40625 9.625 
Q 42.625 4.78125 38.28125 2.390625 
Q 33.9375 0 27.875 0 
Q 17.828125 0 11.671875 7.65625 
Q 5.515625 15.328125 5.515625 27.984375 
Q 5.515625 40.671875 11.671875 48.328125 
Q 17.828125 56 27.875 56 
Q 33.9375 56 38.28125 53.609375 
Q 42.625 51.21875 45.40625 46.390625 
L 45.40625 54.6875 
L 54.390625 54.6875 
z
" id="DejaVuSans-103"/>
      <path d="M 12.40625 8.296875 
L 28.515625 8.296875 
L 28.515625 63.921875 
L 10.984375 60.40625 
L 10.984375 69.390625 
L 28.421875 72.90625 
L 38.28125 72.90625 
L 38.28125 8.296875 
L 54.390625 8.296875 
L 54.390625 0 
L 12.40625 0 
z
" id="DejaVuSans-49"/>
      <path id="DejaVuSans-32"/>
      <path d="M 37.109375 75.984375 
L 37.109375 68.5 
L 28.515625 68.5 
Q 23.6875 68.5 21.796875 66.546875 
Q 19.921875 64.59375 19.921875 59.515625 
L 19.921875 54.6875 
L 34.71875 54.6875 
L 34.71875 47.703125 
L 19.921875 47.703125 
L 19.921875 0 
L 10.890625 0 
L 10.890625 47.703125 
L 2.296875 47.703125 
L 2.296875 54.6875 
L 10.890625 54.6875 
L 10.890625 58.5 
Q 10.890625 67.625 15.140625 71.796875 
Q 19.390625 75.984375 28.609375 75.984375 
z
" id="DejaVuSans-102"/>
      <path d="M 19.671875 64.796875 
L 19.671875 8.109375 
L 31.59375 8.109375 
Q 46.6875 8.109375 53.6875 14.9375 
Q 60.6875 21.78125 60.6875 36.53125 
Q 60.6875 51.171875 53.6875 57.984375 
Q 46.6875 64.796875 31.59375 64.796875 
z
M 9.8125 72.90625 
L 30.078125 72.90625 
Q 51.265625 72.90625 61.171875 64.09375 
Q 71.09375 55.28125 71.09375 36.53125 
Q 71.09375 17.671875 61.125 8.828125 
Q 51.171875 0 30.078125 0 
L 9.8125 0 
z
" id="DejaVuSans-68"/>
     </defs>
     <g transform="translate(175.214063 339.313125)scale(0.2 -0.2)">
      <use xlink:href="#DejaVuSans-108"/>
      <use x="27.783203" xlink:href="#DejaVuSans-111"/>
      <use x="88.964844" xlink:href="#DejaVuSans-103"/>
      <use x="152.441406" xlink:href="#DejaVuSans-49"/>
      <use x="216.064453" xlink:href="#DejaVuSans-48"/>
      <use x="279.6875" xlink:href="#DejaVuSans-32"/>
      <use x="311.474609" xlink:href="#DejaVuSans-111"/>
      <use x="372.65625" xlink:href="#DejaVuSans-102"/>
      <use x="407.861328" xlink:href="#DejaVuSans-32"/>
      <use x="439.648438" xlink:href="#DejaVuSans-68"/>
      <use x="516.650391" xlink:href="#DejaVuSans-102"/>
     </g>
    </g>
   </g>
   <g id="matplotlib.axis_2">
    <g id="ytick_1">
     <g id="line2d_9">
      <path clip-path="url(#pba019e677d)" d="M 0 293.76 
L 460.8 293.76 
" style="fill:none;stroke:#b0b0b0;stroke-linecap:square;stroke-width:0.8;"/>
     </g>
     <g id="line2d_10">
      <defs>
       <path d="M 0 0 
L -3.5 0 
" id="mc419315a1a" style="stroke:#000000;stroke-width:0.8;"/>
      </defs>
      <g>
       <use style="stroke:#000000;stroke-width:0.8;" x="0" xlink:href="#mc419315a1a" y="293.76"/>
      </g>
     </g>
    </g>
    <g id="ytick_2">
     <g id="line2d_11">
      <path clip-path="url(#pba019e677d)" d="M 0 236.274059 
L 460.8 236.274059 
" style="fill:none;stroke:#b0b0b0;stroke-linecap:square;stroke-width:0.8;"/>
     </g>
     <g id="line2d_12">
      <g>
       <use style="stroke:#000000;stroke-width:0.8;" x="0" xlink:href="#mc419315a1a" y="236.274059"/>
      </g>
     </g>
    </g>
    <g id="ytick_3">
     <g id="line2d_13">
      <path clip-path="url(#pba019e677d)" d="M 0 178.788119 
L 460.8 178.788119 
" style="fill:none;stroke:#b0b0b0;stroke-linecap:square;stroke-width:0.8;"/>
     </g>
     <g id="line2d_14">
      <g>
       <use style="stroke:#000000;stroke-width:0.8;" x="0" xlink:href="#mc419315a1a" y="178.788119"/>
      </g>
     </g>
    </g>
    <g id="ytick_4">
     <g id="line2d_15">
      <path clip-path="url(#pba019e677d)" d="M 0 121.302178 
L 460.8 121.302178 
" style="fill:none;stroke:#b0b0b0;stroke-linecap:square;stroke-width:0.8;"/>
     </g>
     <g id="line2d_16">
      <g>
       <use style="stroke:#000000;stroke-width:0.8;" x="0" xlink:href="#mc419315a1a" y="121.302178"/>
      </g>
     </g>
    </g>
    <g id="ytick_5">
     <g id="line2d_17">
      <path clip-path="url(#pba019e677d)" d="M 0 63.816238 
L 460.8 63.816238 
" style="fill:none;stroke:#b0b0b0;stroke-linecap:square;stroke-width:0.8;"/>
     </g>
     <g id="line2d_18">
      <g>
       <use style="stroke:#000000;stroke-width:0.8;" x="0" xlink:href="#mc419315a1a" y="63.816238"/>
      </g>
     </g>
    </g>
    <g id="ytick_6">
     <g id="line2d_19">
      <path clip-path="url(#pba019e677d)" d="M 0 6.330297 
L 460.8 6.330297 
" style="fill:none;stroke:#b0b0b0;stroke-linecap:square;stroke-width:0.8;"/>
     </g>
     <g id="line2d_20">
      <g>
       <use style="stroke:#000000;stroke-width:0.8;" x="0" xlink:href="#mc419315a1a" y="6.330297"/>
      </g>
     </g>
    </g>
   </g>
   <g id="line2d_21">
    <path clip-path="url(#pba019e677d)" d="M 222.726542 293.76 
L 222.726542 292.961584 
L 223.380214 292.961584 
L 223.380214 292.163168 
L 224.609562 292.163168 
L 224.609562 291.364752 
L 225.208977 291.364752 
L 225.208977 290.566337 
L 225.596192 290.566337 
L 225.596192 289.767921 
L 226.065123 289.767921 
L 226.065123 288.969505 
L 226.619674 288.969505 
L 226.688671 287.372673 
L 226.822306 287.372673 
L 226.822306 286.574257 
L 227.36103 286.574257 
L 227.452702 284.17901 
L 227.644397 284.17901 
L 227.659546 282.582178 
L 227.967348 282.582178 
L 227.967348 281.783762 
L 228.965223 281.783762 
L 228.965223 280.985347 
L 230.418909 280.985347 
L 230.418909 280.186931 
L 230.838299 280.186931 
L 230.841939 278.590099 
L 232.732151 278.590099 
L 232.732151 277.791683 
L 233.23978 277.791683 
L 233.23978 276.993267 
L 233.819815 276.993267 
L 233.819815 276.194851 
L 233.986105 276.194851 
L 234.072953 274.59802 
L 234.308938 274.59802 
L 234.308938 273.799604 
L 234.607452 273.799604 
L 234.661499 272.202772 
L 234.984005 272.202772 
L 235.081465 270.605941 
L 235.25575 270.605941 
L 235.25575 269.807525 
L 235.414641 269.807525 
L 235.414641 269.009109 
L 235.661712 269.009109 
L 235.661712 268.210693 
L 235.89027 268.210693 
L 235.955205 265.815446 
L 236.644898 265.815446 
L 236.644898 265.01703 
L 236.791093 265.01703 
L 236.791093 264.218614 
L 237.124865 264.218614 
L 237.220141 262.621782 
L 237.491309 262.621782 
L 237.491309 261.823366 
L 238.20079 261.823366 
L 238.20079 261.02495 
L 238.944462 261.02495 
L 238.944462 260.226535 
L 239.208092 260.226535 
L 239.208092 259.428119 
L 240.302478 259.428119 
L 240.302478 258.629703 
L 240.534546 258.629703 
L 240.534546 257.831287 
L 244.608521 257.831287 
L 244.696714 256.234455 
L 245.037541 256.234455 
L 245.037541 255.43604 
L 245.57654 255.43604 
L 245.57654 254.637624 
L 246.314413 254.637624 
L 246.314413 253.839208 
L 246.659099 253.839208 
L 246.659099 253.040792 
L 246.943847 253.040792 
L 246.943847 252.242376 
L 247.645415 252.242376 
L 247.754005 249.847129 
L 247.989608 249.847129 
L 247.989608 249.048713 
L 248.54536 249.048713 
L 248.54536 248.250297 
L 248.960151 248.250297 
L 248.981306 246.653465 
L 249.156129 246.653465 
L 249.168106 245.056634 
L 249.394209 245.056634 
L 249.394209 244.258218 
L 249.876996 244.258218 
L 249.876996 243.459802 
L 250.110798 243.459802 
L 250.110798 242.661386 
L 250.628117 242.661386 
L 250.639284 241.064554 
L 251.049681 241.064554 
L 251.056929 239.467723 
L 251.291588 239.467723 
L 251.291588 238.669307 
L 251.40631 238.669307 
L 251.40631 237.870891 
L 251.813355 237.870891 
L 251.836785 236.274059 
L 252.247049 236.274059 
L 252.247049 235.475644 
L 252.392312 235.475644 
L 252.392312 234.677228 
L 252.504981 234.677228 
L 252.504981 233.878812 
L 252.633323 233.878812 
L 252.633323 233.080396 
L 253.530655 233.080396 
L 253.530655 232.28198 
L 253.690591 232.28198 
L 253.793423 230.685149 
L 254.093063 230.685149 
L 254.093063 229.886733 
L 254.339229 229.886733 
L 254.339229 229.088317 
L 255.385764 229.088317 
L 255.385764 228.289901 
L 256.228855 228.289901 
L 256.228855 227.491485 
L 256.38353 227.491485 
L 256.38353 226.693069 
L 256.607866 226.693069 
L 256.607866 225.894653 
L 258.077159 225.894653 
L 258.09484 224.297822 
L 258.298443 224.297822 
L 258.298443 223.499406 
L 258.457732 223.499406 
L 258.529756 221.104158 
L 258.741393 221.104158 
L 258.842634 217.910495 
L 258.879996 217.910495 
L 258.931258 216.313663 
L 258.992397 216.313663 
L 259.06433 214.716832 
L 259.112894 214.716832 
L 259.112894 213.918416 
L 259.273321 213.918416 
L 259.289787 212.321584 
L 259.451762 212.321584 
L 259.533822 210.724752 
L 259.600267 210.724752 
L 259.648756 209.127921 
L 259.725631 209.127921 
L 259.821203 204.337426 
L 259.841701 204.337426 
L 259.929078 201.942178 
L 260.076165 201.942178 
L 260.164793 198.748515 
L 260.27505 198.748515 
L 260.27505 197.950099 
L 260.419119 197.950099 
L 260.460512 196.353267 
L 261.106399 196.353267 
L 261.106399 195.554851 
L 261.23552 195.554851 
L 261.23552 194.756436 
L 261.357989 194.756436 
L 261.357989 193.95802 
L 261.669471 193.95802 
L 261.669471 193.159604 
L 262.026009 193.159604 
L 262.026009 192.361188 
L 262.2858 192.361188 
L 262.2858 191.562772 
L 262.533202 191.562772 
L 262.533202 190.764356 
L 264.296744 190.764356 
L 264.373903 189.167525 
L 264.872877 189.167525 
L 264.872877 188.369109 
L 265.156635 188.369109 
L 265.211685 186.772277 
L 266.741989 186.772277 
L 266.741989 185.973861 
L 267.483256 185.973861 
L 267.483256 185.175446 
L 267.876773 185.175446 
L 267.876773 184.37703 
L 268.473419 184.37703 
L 268.473419 183.578614 
L 270.202673 183.578614 
L 270.202673 182.780198 
L 271.060685 182.780198 
L 271.060685 181.981782 
L 271.882988 181.981782 
L 271.882988 181.183366 
L 272.540939 181.183366 
L 272.540939 180.38495 
L 273.368588 180.38495 
L 273.418822 178.788119 
L 273.504485 178.788119 
L 273.504485 177.989703 
L 273.634042 177.989703 
L 273.730515 176.392871 
L 273.794363 176.392871 
L 273.794363 175.594455 
L 273.951335 175.594455 
L 273.951335 174.79604 
L 274.122559 174.79604 
L 274.221954 171.602376 
L 274.39849 171.602376 
L 274.39849 170.80396 
L 274.53205 170.80396 
L 274.53205 170.005545 
L 274.685031 170.005545 
L 274.729838 168.408713 
L 274.799337 168.408713 
L 274.851832 166.811881 
L 274.962367 166.811881 
L 275.00544 164.416634 
L 275.151055 164.416634 
L 275.17579 162.819802 
L 275.582057 162.819802 
L 275.582057 162.021386 
L 275.944453 162.021386 
L 276.016219 159.626139 
L 276.164853 159.626139 
L 276.164853 158.827723 
L 276.788498 158.827723 
L 276.788498 158.029307 
L 276.972722 158.029307 
L 276.972722 157.230891 
L 277.158242 157.230891 
L 277.158242 156.432475 
L 277.574516 156.432475 
L 277.574516 155.634059 
L 278.684143 155.634059 
L 278.684143 154.835644 
L 279.14495 154.835644 
L 279.232217 153.238812 
L 279.659509 153.238812 
L 279.659509 152.440396 
L 279.94134 152.440396 
L 279.94134 151.64198 
L 280.148446 151.64198 
L 280.24828 150.045149 
L 280.302814 150.045149 
L 280.302814 149.246733 
L 280.509483 149.246733 
L 280.576282 147.649901 
L 280.897665 147.649901 
L 280.986077 146.053069 
L 281.168614 146.053069 
L 281.222608 144.456238 
L 281.489279 144.456238 
L 281.58023 142.06099 
L 281.621606 142.06099 
L 281.621606 141.262574 
L 281.930037 141.262574 
L 281.930037 140.464158 
L 282.283701 140.464158 
L 282.300267 138.867327 
L 282.647093 138.867327 
L 282.716754 137.270495 
L 282.854067 137.270495 
L 282.896965 135.673663 
L 283.145487 135.673663 
L 283.21636 134.076832 
L 283.30746 134.076832 
L 283.30746 133.278416 
L 283.442484 133.278416 
L 283.526369 130.883168 
L 283.766982 130.883168 
L 283.803456 129.286337 
L 284.253987 129.286337 
L 284.253987 128.487921 
L 284.410217 128.487921 
L 284.505588 126.891089 
L 284.544546 126.891089 
L 284.587607 125.294257 
L 284.758985 125.294257 
L 284.758985 124.495842 
L 285.053386 124.495842 
L 285.053386 123.697426 
L 285.169193 123.697426 
L 285.169193 122.89901 
L 285.396591 122.89901 
L 285.442291 121.302178 
L 285.626627 121.302178 
L 285.673994 119.705347 
L 285.959461 119.705347 
L 285.959461 118.906931 
L 286.0727 118.906931 
L 286.182715 115.713267 
L 286.221432 115.713267 
L 286.327865 114.116436 
L 286.670631 114.116436 
L 286.748558 112.519604 
L 286.794336 112.519604 
L 286.794336 111.721188 
L 287.192321 111.721188 
L 287.192321 110.922772 
L 287.882781 110.922772 
L 287.882781 110.124356 
L 288.167425 110.124356 
L 288.167425 109.325941 
L 288.344667 109.325941 
L 288.344667 108.527525 
L 290.595198 108.527525 
L 290.595198 107.729109 
L 290.950038 107.729109 
L 290.950038 106.930693 
L 291.572387 106.930693 
L 291.572387 106.132277 
L 291.911857 106.132277 
L 291.911857 105.333861 
L 292.603442 105.333861 
L 292.603442 104.535446 
L 293.8542 104.535446 
L 293.950738 102.938614 
L 294.877187 102.938614 
L 294.920997 101.341782 
L 295.493311 101.341782 
L 295.493311 100.543366 
L 295.769249 100.543366 
L 295.873896 98.946535 
L 296.038521 98.946535 
L 296.038521 98.148119 
L 296.51746 98.148119 
L 296.590215 96.551287 
L 296.775409 96.551287 
L 296.775409 95.752871 
L 296.89462 95.752871 
L 296.89462 94.954455 
L 297.091294 94.954455 
L 297.108105 93.357624 
L 298.125079 93.357624 
L 298.125079 92.559208 
L 299.240801 92.559208 
L 299.240801 91.760792 
L 299.542892 91.760792 
L 299.542892 90.962376 
L 301.188076 90.962376 
L 301.188076 90.16396 
L 301.736927 90.16396 
L 301.736927 89.365545 
L 302.955618 89.365545 
L 302.955618 88.567129 
L 303.403219 88.567129 
L 303.403219 87.768713 
L 303.567906 87.768713 
L 303.567906 86.970297 
L 304.039049 86.970297 
L 304.141551 85.373465 
L 307.87233 85.373465 
L 307.87233 84.57505 
L 308.200649 84.57505 
L 308.200649 83.776634 
L 308.39448 83.776634 
L 308.39448 82.978218 
L 308.607904 82.978218 
L 308.607904 82.179802 
L 310.744927 82.179802 
L 310.744927 81.381386 
L 313.070216 81.381386 
L 313.070216 80.58297 
L 313.605616 80.58297 
L 313.605616 79.784554 
L 314.418165 79.784554 
L 314.418165 78.986139 
L 314.589268 78.986139 
L 314.589268 78.187723 
L 314.703458 78.187723 
L 314.703458 77.389307 
L 315.066935 77.389307 
L 315.066935 76.590891 
L 317.23365 76.590891 
L 317.23365 75.792475 
L 317.750801 75.792475 
L 317.750801 74.994059 
L 318.588074 74.994059 
L 318.588074 74.195644 
L 319.035967 74.195644 
L 319.035967 73.397228 
L 320.877206 73.397228 
L 320.877206 72.598812 
L 321.245855 72.598812 
L 321.245855 71.800396 
L 321.580645 71.800396 
L 321.580645 71.00198 
L 322.955904 71.00198 
L 323.053012 69.405149 
L 323.10182 69.405149 
L 323.10182 68.606733 
L 326.169957 68.606733 
L 326.169957 67.808317 
L 327.216362 67.808317 
L 327.216362 67.009901 
L 327.609772 67.009901 
L 327.609772 66.211485 
L 328.999305 66.211485 
L 328.999305 65.413069 
L 329.541332 65.413069 
L 329.541332 64.614653 
L 330.334532 64.614653 
L 330.334532 63.816238 
L 330.599569 63.816238 
L 330.599569 63.017822 
L 332.192491 63.017822 
L 332.192491 62.219406 
L 332.418839 62.219406 
L 332.418839 61.42099 
L 332.761941 61.42099 
L 332.761941 60.622574 
L 334.588487 60.622574 
L 334.588487 59.824158 
L 335.878386 59.824158 
L 335.878386 59.025743 
L 337.434976 59.025743 
L 337.476668 57.428911 
L 338.183937 57.428911 
L 338.183937 56.630495 
L 343.124238 56.630495 
L 343.124238 55.832079 
L 343.738162 55.832079 
L 343.738162 55.033663 
L 344.056999 55.033663 
L 344.056999 54.235248 
L 344.586868 54.235248 
L 344.586868 53.436832 
L 344.924139 53.436832 
L 344.924139 52.638416 
L 345.603677 52.638416 
L 345.603677 51.84 
L 350.654902 51.84 
L 350.654902 51.041584 
L 353.201156 51.041584 
L 353.201156 50.243168 
L 353.699039 50.243168 
L 353.699039 49.444752 
L 356.047912 49.444752 
L 356.047912 48.646337 
L 356.220803 48.646337 
L 356.220803 47.847921 
L 356.671617 47.847921 
L 356.671617 47.049505 
L 357.578305 47.049505 
L 357.578305 46.251089 
L 359.805742 46.251089 
L 359.805742 45.452673 
L 360.870544 45.452673 
L 360.870544 44.654257 
L 362.117255 44.654257 
L 362.117255 43.855842 
L 364.151804 43.855842 
L 364.151804 43.057426 
L 364.929336 43.057426 
L 364.929336 42.25901 
L 366.235909 42.25901 
L 366.235909 41.460594 
L 368.607645 41.460594 
L 368.607645 40.662178 
L 369.575082 40.662178 
L 369.575082 39.863762 
L 369.960866 39.863762 
L 370.012037 38.266931 
L 371.612629 38.266931 
L 371.612629 37.468515 
L 372.423352 37.468515 
L 372.423352 36.670099 
L 373.333645 36.670099 
L 373.333645 35.871683 
L 373.735776 35.871683 
L 373.735776 35.073267 
L 374.244658 35.073267 
L 374.244658 34.274851 
L 375.63838 34.274851 
L 375.739523 31.081188 
L 376.348561 31.081188 
L 376.348561 30.282772 
L 377.262765 30.282772 
L 377.262765 29.484356 
L 377.964322 29.484356 
L 377.964322 28.685941 
L 378.949152 28.685941 
L 378.949152 27.887525 
L 380.368171 27.887525 
L 380.368171 27.089109 
L 380.808947 27.089109 
L 380.808947 26.290693 
L 381.127142 26.290693 
L 381.234003 24.693861 
L 381.332839 24.693861 
L 381.332839 23.895446 
L 381.52128 23.895446 
L 381.553879 22.298614 
L 382.659351 22.298614 
L 382.659351 21.500198 
L 384.688896 21.500198 
L 384.688896 20.701782 
L 385.101534 20.701782 
L 385.101534 19.903366 
L 389.266036 19.903366 
L 389.266036 19.10495 
L 392.11616 19.10495 
L 392.11616 18.306535 
L 417.542673 18.306535 
L 417.542673 17.508119 
L 420.11023 17.508119 
L 420.11023 16.709703 
L 420.929196 16.709703 
L 420.929196 15.911287 
L 421.144302 15.911287 
L 421.144302 15.112871 
L 422.654507 15.112871 
L 422.654507 14.314455 
L 425.530836 14.314455 
L 425.530836 13.51604 
L 425.983263 13.51604 
L 425.983263 12.717624 
L 426.480836 12.717624 
L 426.480836 11.919208 
L 427.205361 11.919208 
L 427.205361 11.120792 
L 427.317766 11.120792 
L 427.317766 10.322376 
L 429.24095 10.322376 
L 429.24095 9.52396 
L 429.94218 9.52396 
L 429.94218 8.725545 
L 432.076708 8.725545 
L 432.076708 7.927129 
L 432.84156 7.927129 
L 432.84156 7.128713 
L 434.193717 7.128713 
L 434.193717 6.330297 
L 434.193717 6.330297 
L 460.8 6.330297 
L 460.8 6.330297 
" style="fill:none;stroke:#ff0000;stroke-linecap:square;stroke-width:3;"/>
   </g>
   <g id="line2d_22">
    <path clip-path="url(#pba019e677d)" d="M 228.26517 293.76 
L 228.26517 292.961584 
L 230.093113 292.961584 
L 230.093113 292.163168 
L 231.096199 292.163168 
L 231.096199 291.364752 
L 233.83949 291.364752 
L 233.83949 290.566337 
L 234.688073 290.566337 
L 234.688073 289.767921 
L 235.309811 289.767921 
L 235.309811 288.969505 
L 235.429873 288.969505 
L 235.429873 288.171089 
L 235.659708 288.171089 
L 235.659708 287.372673 
L 236.193481 287.372673 
L 236.193481 286.574257 
L 236.669265 286.574257 
L 236.669265 285.775842 
L 236.802134 285.775842 
L 236.802134 284.977426 
L 236.914463 284.977426 
L 236.914463 284.17901 
L 237.451434 284.17901 
L 237.451434 283.380594 
L 238.020313 283.380594 
L 238.020313 282.582178 
L 238.29834 282.582178 
L 238.29834 281.783762 
L 238.416288 281.783762 
L 238.416288 280.985347 
L 238.543077 280.985347 
L 238.587907 278.590099 
L 238.980012 278.590099 
L 238.980012 277.791683 
L 239.159087 277.791683 
L 239.187479 276.194851 
L 239.277701 276.194851 
L 239.277701 275.396436 
L 239.479966 275.396436 
L 239.479966 274.59802 
L 239.670704 274.59802 
L 239.670704 273.799604 
L 239.800559 273.799604 
L 239.800559 273.001188 
L 240.071136 273.001188 
L 240.143076 271.404356 
L 240.532987 271.404356 
L 240.532987 270.605941 
L 241.018578 270.605941 
L 241.018578 269.807525 
L 241.162283 269.807525 
L 241.207532 268.210693 
L 241.341209 268.210693 
L 241.341209 267.412277 
L 241.913155 267.412277 
L 241.913155 266.613861 
L 242.80932 266.613861 
L 242.813258 265.01703 
L 243.311334 265.01703 
L 243.311334 264.218614 
L 243.916081 264.218614 
L 243.916081 263.420198 
L 244.44959 263.420198 
L 244.44959 262.621782 
L 244.843326 262.621782 
L 244.843326 261.823366 
L 245.199198 261.823366 
L 245.199198 261.02495 
L 246.05007 261.02495 
L 246.05007 260.226535 
L 246.361667 260.226535 
L 246.361667 259.428119 
L 246.659099 259.428119 
L 246.659099 258.629703 
L 246.904088 258.629703 
L 246.904088 257.831287 
L 247.478047 257.831287 
L 247.478047 257.032871 
L 247.670178 257.032871 
L 247.670178 256.234455 
L 248.981306 256.234455 
L 248.981306 255.43604 
L 249.312861 255.43604 
L 249.312861 254.637624 
L 249.989171 254.637624 
L 249.989171 253.839208 
L 250.600181 253.839208 
L 250.600181 253.040792 
L 250.766104 253.040792 
L 250.766104 252.242376 
L 251.577146 252.242376 
L 251.577146 251.44396 
L 252.583415 251.44396 
L 252.640505 249.847129 
L 252.881955 249.847129 
L 252.881955 249.048713 
L 253.073949 249.048713 
L 253.103935 247.451881 
L 253.189876 247.451881 
L 253.189876 246.653465 
L 254.165807 246.653465 
L 254.174213 245.056634 
L 254.826685 245.056634 
L 254.826685 244.258218 
L 255.556354 244.258218 
L 255.556354 243.459802 
L 255.770824 243.459802 
L 255.770824 242.661386 
L 255.984702 242.661386 
L 256.07485 241.064554 
L 256.459241 241.064554 
L 256.459241 240.266139 
L 257.305083 240.266139 
L 257.381128 238.669307 
L 257.426321 238.669307 
L 257.426321 237.870891 
L 257.564153 237.870891 
L 257.629922 236.274059 
L 257.893856 236.274059 
L 257.893856 235.475644 
L 258.611801 235.475644 
L 258.716445 233.878812 
L 258.776383 233.878812 
L 258.842634 232.28198 
L 258.937016 232.28198 
L 258.96935 230.685149 
L 259.06433 230.685149 
L 259.075846 229.088317 
L 259.478204 229.088317 
L 259.533822 226.693069 
L 259.605387 226.693069 
L 259.605387 225.894653 
L 259.785709 225.894653 
L 259.880667 224.297822 
L 259.977382 224.297822 
L 260.085235 220.305743 
L 260.098918 220.305743 
L 260.098918 219.507327 
L 260.286359 219.507327 
L 260.388393 215.515248 
L 260.435869 215.515248 
L 260.479734 213.918416 
L 260.547274 213.918416 
L 260.629696 210.724752 
L 260.65986 210.724752 
L 260.762767 206.732673 
L 260.837795 206.732673 
L 260.875589 205.135842 
L 260.966902 205.135842 
L 260.997463 203.53901 
L 261.633817 203.53901 
L 261.633817 202.740594 
L 261.937067 202.740594 
L 261.937067 201.942178 
L 262.173287 201.942178 
L 262.173287 201.143762 
L 262.306988 201.143762 
L 262.306988 200.345347 
L 264.516515 200.345347 
L 264.626278 197.950099 
L 265.508285 197.950099 
L 265.508285 197.151683 
L 265.83935 197.151683 
L 265.83935 196.353267 
L 266.112641 196.353267 
L 266.112641 195.554851 
L 266.534613 195.554851 
L 266.534613 194.756436 
L 267.031845 194.756436 
L 267.031845 193.95802 
L 267.249171 193.95802 
L 267.249171 193.159604 
L 267.614768 193.159604 
L 267.614768 192.361188 
L 268.037826 192.361188 
L 268.037826 191.562772 
L 268.162261 191.562772 
L 268.162261 190.764356 
L 268.422391 190.764356 
L 268.422391 189.965941 
L 268.698713 189.965941 
L 268.698713 189.167525 
L 269.269954 189.167525 
L 269.269954 188.369109 
L 269.751947 188.369109 
L 269.751947 187.570693 
L 271.429378 187.570693 
L 271.429378 186.772277 
L 272.143952 186.772277 
L 272.143952 185.973861 
L 274.636506 185.973861 
L 274.636506 185.175446 
L 275.033838 185.175446 
L 275.033838 184.37703 
L 275.162309 184.37703 
L 275.162309 183.578614 
L 275.340712 183.578614 
L 275.340712 182.780198 
L 275.578861 182.780198 
L 275.61738 181.183366 
L 275.797081 181.183366 
L 275.797081 180.38495 
L 276.238652 180.38495 
L 276.238652 179.586535 
L 276.378622 179.586535 
L 276.411758 177.989703 
L 276.8615 177.989703 
L 276.8615 177.191287 
L 277.046103 177.191287 
L 277.058644 175.594455 
L 277.23376 175.594455 
L 277.23376 174.79604 
L 277.359974 174.79604 
L 277.422886 173.199208 
L 277.480411 173.199208 
L 277.480411 172.400792 
L 277.779652 172.400792 
L 277.779652 171.602376 
L 277.972285 171.602376 
L 277.972285 170.80396 
L 278.607152 170.80396 
L 278.607152 170.005545 
L 278.735411 170.005545 
L 278.744339 168.408713 
L 279.790397 168.408713 
L 279.807601 166.811881 
L 280.051275 166.811881 
L 280.051275 166.013465 
L 280.446278 166.013465 
L 280.446278 165.21505 
L 280.563178 165.21505 
L 280.576282 163.618218 
L 280.752902 163.618218 
L 280.752902 162.819802 
L 280.964081 162.819802 
L 281.030378 161.22297 
L 281.257632 161.22297 
L 281.307051 159.626139 
L 281.411856 159.626139 
L 281.411856 158.827723 
L 282.544869 158.827723 
L 282.544869 158.029307 
L 282.665191 158.029307 
L 282.665191 157.230891 
L 283.73595 157.230891 
L 283.756573 155.634059 
L 283.941275 155.634059 
L 283.941275 154.835644 
L 284.1143 154.835644 
L 284.1143 154.037228 
L 284.351337 154.037228 
L 284.355279 152.440396 
L 284.678766 152.440396 
L 284.678766 151.64198 
L 285.074611 151.64198 
L 285.074611 150.843564 
L 285.407973 150.843564 
L 285.407973 150.045149 
L 285.799198 150.045149 
L 285.854402 147.649901 
L 285.93491 147.649901 
L 285.93491 146.851485 
L 286.221432 146.851485 
L 286.221432 146.053069 
L 286.470559 146.053069 
L 286.470559 145.254653 
L 286.779832 145.254653 
L 286.829643 143.657822 
L 287.161286 143.657822 
L 287.161286 142.859406 
L 287.579455 142.859406 
L 287.67761 140.464158 
L 287.748361 140.464158 
L 287.804942 138.068911 
L 288.105128 138.068911 
L 288.167425 135.673663 
L 288.24036 135.673663 
L 288.344667 134.076832 
L 288.421473 134.076832 
L 288.421473 133.278416 
L 288.611788 133.278416 
L 288.621759 131.681584 
L 289.199683 131.681584 
L 289.199683 130.883168 
L 289.335638 130.883168 
L 289.335638 130.084752 
L 289.776145 130.084752 
L 289.858012 128.487921 
L 289.925636 128.487921 
L 289.925636 127.689505 
L 290.226266 127.689505 
L 290.226266 126.891089 
L 290.400178 126.891089 
L 290.405627 125.294257 
L 290.526657 125.294257 
L 290.526657 124.495842 
L 291.597583 124.495842 
L 291.597583 123.697426 
L 291.802423 123.697426 
L 291.802423 122.89901 
L 292.073373 122.89901 
L 292.073373 122.100594 
L 292.281924 122.100594 
L 292.281924 121.302178 
L 293.200013 121.302178 
L 293.200013 120.503762 
L 293.322528 120.503762 
L 293.322528 119.705347 
L 293.445605 119.705347 
L 293.445605 118.906931 
L 294.275639 118.906931 
L 294.275639 118.108515 
L 294.585201 118.108515 
L 294.638887 116.511683 
L 295.20732 116.511683 
L 295.20732 115.713267 
L 295.371335 115.713267 
L 295.427603 114.116436 
L 295.573428 114.116436 
L 295.573428 113.31802 
L 295.684823 113.31802 
L 295.684823 112.519604 
L 296.121003 112.519604 
L 296.121003 111.721188 
L 296.983397 111.721188 
L 296.983397 110.922772 
L 297.113846 110.922772 
L 297.113846 110.124356 
L 297.326178 110.124356 
L 297.326178 109.325941 
L 297.897232 109.325941 
L 297.990091 107.729109 
L 298.167272 107.729109 
L 298.256539 106.132277 
L 298.462596 106.132277 
L 298.462596 105.333861 
L 298.913233 105.333861 
L 298.913233 104.535446 
L 299.229075 104.535446 
L 299.279824 102.938614 
L 299.793262 102.938614 
L 299.793262 102.140198 
L 301.086861 102.140198 
L 301.086861 101.341782 
L 303.497513 101.341782 
L 303.497513 100.543366 
L 310.489378 100.543366 
L 310.489378 99.74495 
L 314.793797 99.74495 
L 314.793797 98.946535 
L 317.051431 98.946535 
L 317.051431 98.148119 
L 318.959214 98.148119 
L 318.959214 97.349703 
L 319.428993 97.349703 
L 319.428993 96.551287 
L 321.766039 96.551287 
L 321.766039 95.752871 
L 321.953745 95.752871 
L 321.953745 94.954455 
L 322.104064 94.954455 
L 322.104064 94.15604 
L 322.878034 94.15604 
L 322.938063 92.559208 
L 325.980429 92.559208 
L 325.989779 90.962376 
L 326.466451 90.962376 
L 326.466451 90.16396 
L 327.555748 90.16396 
L 327.604539 88.567129 
L 327.694933 88.567129 
L 327.694933 87.768713 
L 327.931117 87.768713 
L 327.931117 86.970297 
L 328.409092 86.970297 
L 328.409092 86.171881 
L 329.305556 86.171881 
L 329.305556 85.373465 
L 329.732726 85.373465 
L 329.732726 84.57505 
L 329.863184 84.57505 
L 329.863184 83.776634 
L 331.576039 83.776634 
L 331.576039 82.978218 
L 331.869596 82.978218 
L 331.869596 82.179802 
L 332.373288 82.179802 
L 332.373288 81.381386 
L 332.648796 81.381386 
L 332.648796 80.58297 
L 332.940948 80.58297 
L 332.940948 79.784554 
L 333.474029 79.784554 
L 333.474029 78.986139 
L 333.646301 78.986139 
L 333.646301 78.187723 
L 333.873596 78.187723 
L 333.873596 77.389307 
L 334.515261 77.389307 
L 334.588487 75.792475 
L 334.880144 75.792475 
L 334.880144 74.994059 
L 335.44784 74.994059 
L 335.44784 74.195644 
L 335.601392 74.195644 
L 335.601392 73.397228 
L 335.729815 73.397228 
L 335.729815 72.598812 
L 336.713879 72.598812 
L 336.807643 71.00198 
L 337.261101 71.00198 
L 337.261101 70.203564 
L 340.731207 70.203564 
L 340.731207 69.405149 
L 340.889651 69.405149 
L 340.940249 67.808317 
L 343.630047 67.808317 
L 343.630047 67.009901 
L 344.39563 67.009901 
L 344.39563 66.211485 
L 345.417179 66.211485 
L 345.417179 65.413069 
L 346.643949 65.413069 
L 346.643949 64.614653 
L 347.521416 64.614653 
L 347.627924 63.017822 
L 347.847034 63.017822 
L 347.847034 62.219406 
L 348.123528 62.219406 
L 348.123528 61.42099 
L 348.41225 61.42099 
L 348.41225 60.622574 
L 348.837993 60.622574 
L 348.949055 59.025743 
L 349.09401 59.025743 
L 349.09401 58.227327 
L 350.336798 58.227327 
L 350.336798 57.428911 
L 350.606496 57.428911 
L 350.606496 56.630495 
L 351.217525 56.630495 
L 351.217525 55.832079 
L 353.155702 55.832079 
L 353.155702 55.033663 
L 354.332243 55.033663 
L 354.332243 54.235248 
L 354.884788 54.235248 
L 354.884788 53.436832 
L 355.516408 53.436832 
L 355.516408 52.638416 
L 356.373781 52.638416 
L 356.373781 51.84 
L 359.334332 51.84 
L 359.334332 51.041584 
L 360.185149 51.041584 
L 360.185149 50.243168 
L 361.313848 50.243168 
L 361.35874 47.847921 
L 361.715965 47.847921 
L 361.715965 47.049505 
L 362.502899 47.049505 
L 362.613205 45.452673 
L 365.747689 45.452673 
L 365.747689 44.654257 
L 368.009742 44.654257 
L 368.103101 43.057426 
L 371.612629 43.057426 
L 371.612629 42.25901 
L 372.024103 42.25901 
L 372.024103 41.460594 
L 375.716151 41.460594 
L 375.716151 40.662178 
L 378.678956 40.662178 
L 378.678956 39.863762 
L 378.793819 39.863762 
L 378.793819 39.065347 
L 378.949152 39.065347 
L 378.949152 38.266931 
L 380.03987 38.266931 
L 380.03987 37.468515 
L 381.239843 37.468515 
L 381.239843 36.670099 
L 383.016353 36.670099 
L 383.016353 35.871683 
L 383.275906 35.871683 
L 383.275906 35.073267 
L 383.410441 35.073267 
L 383.410441 34.274851 
L 384.725484 34.274851 
L 384.725484 33.476436 
L 384.943783 33.476436 
L 384.943783 32.67802 
L 385.260708 32.67802 
L 385.260708 31.879604 
L 385.415885 31.879604 
L 385.415885 31.081188 
L 386.524093 31.081188 
L 386.524093 30.282772 
L 386.66862 30.282772 
L 386.66862 29.484356 
L 386.785436 29.484356 
L 386.785436 28.685941 
L 388.061954 28.685941 
L 388.061954 27.887525 
L 388.410668 27.887525 
L 388.410668 27.089109 
L 390.227564 27.089109 
L 390.227564 26.290693 
L 391.197241 26.290693 
L 391.197241 25.492277 
L 391.841988 25.492277 
L 391.841988 24.693861 
L 392.571718 24.693861 
L 392.6463 23.09703 
L 393.061307 23.09703 
L 393.061307 22.298614 
L 393.276405 22.298614 
L 393.325585 20.701782 
L 396.154873 20.701782 
L 396.154873 19.903366 
L 399.303032 19.903366 
L 399.303032 19.10495 
L 401.8162 19.10495 
L 401.8162 18.306535 
L 422.655603 18.306535 
L 422.655603 17.508119 
L 424.305478 17.508119 
L 424.305478 16.709703 
L 426.678719 16.709703 
L 426.678719 15.911287 
L 427.352716 15.911287 
L 427.352716 15.112871 
L 429.898034 15.112871 
L 429.898034 14.314455 
L 430.329067 14.314455 
L 430.329067 13.51604 
L 431.686743 13.51604 
L 431.686743 12.717624 
L 432.527235 12.717624 
L 432.527235 11.919208 
L 432.885963 11.919208 
L 432.885963 11.120792 
L 435.215502 11.120792 
L 435.215502 10.322376 
L 435.868861 10.322376 
L 435.868861 9.52396 
L 437.195218 9.52396 
L 437.195218 8.725545 
L 441.091051 8.725545 
L 441.091051 7.927129 
L 446.838703 7.927129 
L 446.838703 7.128713 
L 449.463169 7.128713 
L 449.463169 6.330297 
L 449.463169 6.330297 
L 460.8 6.330297 
L 460.8 6.330297 
" style="fill:none;stroke:#00bfbf;stroke-linecap:square;stroke-width:1.5;"/>
   </g>
   <g id="line2d_23">
    <path clip-path="url(#pba019e677d)" d="M 226.065123 293.76 
L 226.065123 292.961584 
L 228.26517 292.961584 
L 228.26517 292.163168 
L 229.590321 292.163168 
L 229.590321 291.364752 
L 229.775597 291.364752 
L 229.775597 290.566337 
L 230.093113 290.566337 
L 230.093113 289.767921 
L 231.096199 289.767921 
L 231.096199 288.969505 
L 233.19063 288.969505 
L 233.267356 286.574257 
L 233.309918 286.574257 
L 233.309918 285.775842 
L 233.704078 285.775842 
L 233.704078 284.977426 
L 233.914288 284.977426 
L 233.914288 284.17901 
L 234.688073 284.17901 
L 234.688073 283.380594 
L 235.659708 283.380594 
L 235.659708 282.582178 
L 236.802134 282.582178 
L 236.802134 281.783762 
L 237.339871 281.783762 
L 237.339871 280.985347 
L 238.543077 280.985347 
L 238.587907 278.590099 
L 238.980012 278.590099 
L 238.980012 277.791683 
L 239.159087 277.791683 
L 239.187479 276.194851 
L 239.277701 276.194851 
L 239.277701 275.396436 
L 239.479966 275.396436 
L 239.479966 274.59802 
L 239.638533 274.59802 
L 239.670704 273.001188 
L 239.800559 273.001188 
L 239.800559 272.202772 
L 240.143076 272.202772 
L 240.143076 271.404356 
L 240.532987 271.404356 
L 240.532987 270.605941 
L 241.018578 270.605941 
L 241.018578 269.807525 
L 241.162283 269.807525 
L 241.207532 268.210693 
L 241.341209 268.210693 
L 241.341209 267.412277 
L 241.913155 267.412277 
L 241.913155 266.613861 
L 242.612134 266.613861 
L 242.612134 265.815446 
L 242.755707 265.815446 
L 242.813258 264.218614 
L 243.311334 264.218614 
L 243.311334 263.420198 
L 243.916081 263.420198 
L 243.916081 262.621782 
L 244.37741 262.621782 
L 244.44959 261.02495 
L 244.733279 261.02495 
L 244.843326 259.428119 
L 246.659099 259.428119 
L 246.697031 257.831287 
L 246.904088 257.831287 
L 246.904088 257.032871 
L 247.670178 257.032871 
L 247.670178 256.234455 
L 248.981306 256.234455 
L 248.981306 255.43604 
L 249.312861 255.43604 
L 249.312861 254.637624 
L 249.989171 254.637624 
L 249.989171 253.839208 
L 250.600181 253.839208 
L 250.604851 252.242376 
L 250.766104 252.242376 
L 250.766104 251.44396 
L 251.577146 251.44396 
L 251.577146 250.645545 
L 252.111547 250.645545 
L 252.132279 249.048713 
L 252.583415 249.048713 
L 252.640505 247.451881 
L 252.708361 247.451881 
L 252.708361 246.653465 
L 252.863013 246.653465 
L 252.881955 245.056634 
L 253.642887 245.056634 
L 253.722243 243.459802 
L 254.165807 243.459802 
L 254.165807 242.661386 
L 254.339229 242.661386 
L 254.339229 241.86297 
L 254.48518 241.86297 
L 254.48518 241.064554 
L 254.767944 241.064554 
L 254.826685 239.467723 
L 254.895268 239.467723 
L 254.895268 238.669307 
L 255.30788 238.669307 
L 255.30788 237.870891 
L 255.984702 237.870891 
L 256.07485 236.274059 
L 256.265026 236.274059 
L 256.265026 235.475644 
L 256.493994 235.475644 
L 256.493994 234.677228 
L 257.192444 234.677228 
L 257.192444 233.878812 
L 257.305083 233.878812 
L 257.305083 233.080396 
L 257.615782 233.080396 
L 257.615782 232.28198 
L 258.077159 232.28198 
L 258.077159 231.483564 
L 258.422419 231.483564 
L 258.422419 230.685149 
L 258.611801 230.685149 
L 258.656352 229.088317 
L 258.776383 229.088317 
L 258.842634 227.491485 
L 258.931258 227.491485 
L 258.96935 225.894653 
L 259.06433 225.894653 
L 259.075846 224.297822 
L 259.249806 224.297822 
L 259.289787 222.70099 
L 259.37324 222.70099 
L 259.482208 221.104158 
L 259.533822 221.104158 
L 259.618732 219.507327 
L 259.807878 219.507327 
L 259.880667 217.910495 
L 259.977382 217.910495 
L 260.085235 213.918416 
L 260.098918 213.918416 
L 260.099162 212.321584 
L 260.286359 212.321584 
L 260.388393 208.329505 
L 260.479734 208.329505 
L 260.552827 205.135842 
L 260.597512 205.135842 
L 260.676563 201.942178 
L 260.759013 201.942178 
L 260.837795 200.345347 
L 260.966902 200.345347 
L 260.966902 199.546931 
L 262.173287 199.546931 
L 262.173287 198.748515 
L 262.306988 198.748515 
L 262.306988 197.950099 
L 262.467494 197.950099 
L 262.467494 197.151683 
L 264.449821 197.151683 
L 264.540758 195.554851 
L 264.647372 195.554851 
L 264.647372 194.756436 
L 265.508285 194.756436 
L 265.508285 193.95802 
L 266.534613 193.95802 
L 266.534613 193.159604 
L 267.614768 193.159604 
L 267.708711 191.562772 
L 268.037826 191.562772 
L 268.037826 190.764356 
L 268.162261 190.764356 
L 268.162261 189.965941 
L 268.422391 189.965941 
L 268.422391 189.167525 
L 268.641582 189.167525 
L 268.641582 188.369109 
L 269.269954 188.369109 
L 269.269954 187.570693 
L 271.323091 187.570693 
L 271.429378 185.973861 
L 273.418822 185.973861 
L 273.504485 184.37703 
L 273.951335 184.37703 
L 273.951335 183.578614 
L 274.636506 183.578614 
L 274.729838 181.981782 
L 274.799337 181.981782 
L 274.799337 181.183366 
L 275.162309 181.183366 
L 275.17579 179.586535 
L 275.289184 179.586535 
L 275.377111 177.191287 
L 275.61738 177.191287 
L 275.61738 176.392871 
L 276.411758 176.392871 
L 276.42561 174.79604 
L 276.594522 174.79604 
L 276.594522 173.997624 
L 276.8615 173.997624 
L 276.898014 172.400792 
L 277.779652 172.400792 
L 277.779652 171.602376 
L 277.972285 171.602376 
L 277.972285 170.80396 
L 278.607152 170.80396 
L 278.607152 170.005545 
L 278.735411 170.005545 
L 278.744339 168.408713 
L 279.790397 168.408713 
L 279.807601 166.811881 
L 280.051275 166.811881 
L 280.051275 166.013465 
L 280.446278 166.013465 
L 280.446278 165.21505 
L 280.563178 165.21505 
L 280.576282 163.618218 
L 280.752902 163.618218 
L 280.752902 162.819802 
L 280.964081 162.819802 
L 281.030378 161.22297 
L 281.257632 161.22297 
L 281.307051 159.626139 
L 281.411856 159.626139 
L 281.411856 158.827723 
L 281.621606 158.827723 
L 281.621606 158.029307 
L 281.789554 158.029307 
L 281.789554 157.230891 
L 282.412098 157.230891 
L 282.412098 156.432475 
L 282.544869 156.432475 
L 282.544869 155.634059 
L 282.665191 155.634059 
L 282.665191 154.835644 
L 282.814815 154.835644 
L 282.814815 154.037228 
L 283.30746 154.037228 
L 283.30746 153.238812 
L 283.73595 153.238812 
L 283.73595 152.440396 
L 283.941275 152.440396 
L 283.941275 151.64198 
L 284.1143 151.64198 
L 284.1143 150.843564 
L 284.351337 150.843564 
L 284.410217 148.448317 
L 284.678766 148.448317 
L 284.678766 147.649901 
L 285.074611 147.649901 
L 285.074611 146.851485 
L 285.407973 146.851485 
L 285.426016 145.254653 
L 285.799198 145.254653 
L 285.854402 142.859406 
L 285.93491 142.859406 
L 285.93491 142.06099 
L 286.221432 142.06099 
L 286.221432 141.262574 
L 286.470559 141.262574 
L 286.470559 140.464158 
L 286.779832 140.464158 
L 286.829643 138.867327 
L 287.579455 138.867327 
L 287.67761 136.472079 
L 287.748361 136.472079 
L 287.804942 134.076832 
L 288.105128 134.076832 
L 288.167425 132.48 
L 288.24036 132.48 
L 288.344667 130.883168 
L 288.421473 130.883168 
L 288.427277 128.487921 
L 288.621759 128.487921 
L 288.621759 127.689505 
L 288.899963 127.689505 
L 288.899963 126.891089 
L 289.199683 126.891089 
L 289.199683 126.092673 
L 289.335638 126.092673 
L 289.335638 125.294257 
L 289.776145 125.294257 
L 289.800369 123.697426 
L 289.925636 123.697426 
L 289.925636 122.89901 
L 290.26348 122.89901 
L 290.26348 122.100594 
L 290.400178 122.100594 
L 290.400178 121.302178 
L 290.526657 121.302178 
L 290.526657 120.503762 
L 291.095802 120.503762 
L 291.203468 118.906931 
L 291.373886 118.906931 
L 291.373886 118.108515 
L 291.802423 118.108515 
L 291.802423 117.310099 
L 292.281924 117.310099 
L 292.281924 116.511683 
L 292.738526 116.511683 
L 292.738526 115.713267 
L 293.322528 115.713267 
L 293.328454 114.116436 
L 293.445605 114.116436 
L 293.445605 113.31802 
L 293.990572 113.31802 
L 293.990572 112.519604 
L 295.427603 112.519604 
L 295.427603 111.721188 
L 295.573428 111.721188 
L 295.573428 110.922772 
L 295.684823 110.922772 
L 295.684823 110.124356 
L 296.121003 110.124356 
L 296.121003 109.325941 
L 296.983397 109.325941 
L 296.983397 108.527525 
L 297.113846 108.527525 
L 297.113846 107.729109 
L 297.326178 107.729109 
L 297.428579 106.132277 
L 297.897232 106.132277 
L 297.990091 104.535446 
L 298.167272 104.535446 
L 298.256539 102.938614 
L 298.462596 102.938614 
L 298.462596 102.140198 
L 298.793149 102.140198 
L 298.793149 101.341782 
L 299.279824 101.341782 
L 299.279824 100.543366 
L 299.793262 100.543366 
L 299.793262 99.74495 
L 301.086861 99.74495 
L 301.086861 98.946535 
L 303.497513 98.946535 
L 303.497513 98.148119 
L 304.388124 98.148119 
L 304.388124 97.349703 
L 308.048804 97.349703 
L 308.048804 96.551287 
L 313.206734 96.551287 
L 313.206734 95.752871 
L 317.051431 95.752871 
L 317.051431 94.954455 
L 319.428993 94.954455 
L 319.428993 94.15604 
L 321.766039 94.15604 
L 321.766039 93.357624 
L 321.953745 93.357624 
L 321.953745 92.559208 
L 322.104064 92.559208 
L 322.104064 91.760792 
L 322.878034 91.760792 
L 322.938063 90.16396 
L 325.980429 90.16396 
L 326.056384 87.768713 
L 326.466451 87.768713 
L 326.466451 86.970297 
L 327.555748 86.970297 
L 327.604539 85.373465 
L 327.694933 85.373465 
L 327.694933 84.57505 
L 327.931117 84.57505 
L 327.931117 83.776634 
L 328.409092 83.776634 
L 328.409092 82.978218 
L 328.536416 82.978218 
L 328.536416 82.179802 
L 329.305556 82.179802 
L 329.305556 81.381386 
L 329.863184 81.381386 
L 329.863184 80.58297 
L 330.484783 80.58297 
L 330.484783 79.784554 
L 331.576039 79.784554 
L 331.576039 78.986139 
L 331.869596 78.986139 
L 331.869596 78.187723 
L 332.373288 78.187723 
L 332.373288 77.389307 
L 332.648796 77.389307 
L 332.648796 76.590891 
L 332.940948 76.590891 
L 332.940948 75.792475 
L 333.474029 75.792475 
L 333.474029 74.994059 
L 333.873596 74.994059 
L 333.873596 74.195644 
L 334.515261 74.195644 
L 334.588487 72.598812 
L 334.880144 72.598812 
L 334.880144 71.800396 
L 335.44784 71.800396 
L 335.44784 71.00198 
L 335.601392 71.00198 
L 335.601392 70.203564 
L 335.729815 70.203564 
L 335.729815 69.405149 
L 336.713879 69.405149 
L 336.807643 67.808317 
L 337.261101 67.808317 
L 337.261101 67.009901 
L 340.731207 67.009901 
L 340.731207 66.211485 
L 340.940249 66.211485 
L 340.940249 65.413069 
L 343.630047 65.413069 
L 343.630047 64.614653 
L 343.846205 64.614653 
L 343.846205 63.816238 
L 344.39563 63.816238 
L 344.39563 63.017822 
L 345.303789 63.017822 
L 345.303789 62.219406 
L 347.627924 62.219406 
L 347.627924 61.42099 
L 347.847034 61.42099 
L 347.847034 60.622574 
L 348.123528 60.622574 
L 348.123528 59.824158 
L 348.313843 59.824158 
L 348.41225 58.227327 
L 348.837993 58.227327 
L 348.837993 57.428911 
L 349.09401 57.428911 
L 349.09401 56.630495 
L 350.336798 56.630495 
L 350.336798 55.832079 
L 350.606496 55.832079 
L 350.606496 55.033663 
L 351.217525 55.033663 
L 351.217525 54.235248 
L 353.155702 54.235248 
L 353.155702 53.436832 
L 353.699039 53.436832 
L 353.699039 52.638416 
L 354.332243 52.638416 
L 354.332243 51.84 
L 355.516408 51.84 
L 355.516408 51.041584 
L 356.242327 51.041584 
L 356.242327 50.243168 
L 356.373781 50.243168 
L 356.373781 49.444752 
L 358.738681 49.444752 
L 358.738681 48.646337 
L 359.106516 48.646337 
L 359.106516 47.847921 
L 360.185149 47.847921 
L 360.185149 47.049505 
L 360.392455 47.049505 
L 360.392455 46.251089 
L 360.870544 46.251089 
L 360.870544 45.452673 
L 361.346268 45.452673 
L 361.346268 44.654257 
L 365.747689 44.654257 
L 365.747689 43.855842 
L 368.009742 43.855842 
L 368.103101 42.25901 
L 371.612629 42.25901 
L 371.612629 41.460594 
L 375.716151 41.460594 
L 375.739523 39.863762 
L 376.348561 39.863762 
L 376.348561 39.065347 
L 377.102831 39.065347 
L 377.102831 38.266931 
L 377.393764 38.266931 
L 377.393764 37.468515 
L 378.678956 37.468515 
L 378.735553 35.871683 
L 378.949152 35.871683 
L 378.949152 35.073267 
L 380.03987 35.073267 
L 380.03987 34.274851 
L 381.168671 34.274851 
L 381.239843 31.879604 
L 381.332839 31.879604 
L 381.332839 31.081188 
L 382.466238 31.081188 
L 382.466238 30.282772 
L 383.016353 30.282772 
L 383.016353 29.484356 
L 383.410441 29.484356 
L 383.410441 28.685941 
L 384.725484 28.685941 
L 384.725484 27.887525 
L 384.943783 27.887525 
L 384.943783 27.089109 
L 385.260708 27.089109 
L 385.260708 26.290693 
L 385.415885 26.290693 
L 385.415885 25.492277 
L 386.054806 25.492277 
L 386.054806 24.693861 
L 386.66862 24.693861 
L 386.66862 23.895446 
L 386.785436 23.895446 
L 386.785436 23.09703 
L 388.061954 23.09703 
L 388.061954 22.298614 
L 389.464713 22.298614 
L 389.464713 21.500198 
L 391.197241 21.500198 
L 391.197241 20.701782 
L 391.935561 20.701782 
L 391.935561 19.903366 
L 392.147721 19.903366 
L 392.147721 19.10495 
L 401.8162 19.10495 
L 401.8162 18.306535 
L 422.655603 18.306535 
L 422.655603 17.508119 
L 423.478248 17.508119 
L 423.478248 16.709703 
L 424.305478 16.709703 
L 424.305478 15.911287 
L 427.352716 15.911287 
L 427.352716 15.112871 
L 429.898034 15.112871 
L 429.898034 14.314455 
L 430.329067 14.314455 
L 430.329067 13.51604 
L 430.977914 13.51604 
L 430.977914 12.717624 
L 431.686743 12.717624 
L 431.686743 11.919208 
L 432.299732 11.919208 
L 432.299732 11.120792 
L 432.527235 11.120792 
L 432.527235 10.322376 
L 435.215502 10.322376 
L 435.215502 9.52396 
L 435.520986 9.52396 
L 435.520986 8.725545 
L 438.791678 8.725545 
L 438.791678 7.927129 
L 439.054102 7.927129 
L 439.054102 7.128713 
L 446.838703 7.128713 
L 446.838703 6.330297 
L 446.838703 6.330297 
L 460.8 6.330297 
L 460.8 6.330297 
" style="fill:none;stroke:#bf00bf;stroke-linecap:square;stroke-width:1.5;"/>
   </g>
   <g id="line2d_24">
    <path clip-path="url(#pba019e677d)" d="M 226.065123 293.76 
L 226.065123 292.961584 
L 227.082399 292.961584 
L 227.082399 292.163168 
L 227.814927 292.163168 
L 227.814927 291.364752 
L 228.26517 291.364752 
L 228.26517 290.566337 
L 228.769804 290.566337 
L 228.769804 289.767921 
L 229.019154 289.767921 
L 229.019154 288.969505 
L 229.25696 288.969505 
L 229.340764 287.372673 
L 229.590321 287.372673 
L 229.590321 286.574257 
L 230.093113 286.574257 
L 230.093113 285.775842 
L 230.384074 285.775842 
L 230.384074 284.977426 
L 230.739316 284.977426 
L 230.739316 284.17901 
L 233.19063 284.17901 
L 233.19063 283.380594 
L 233.309918 283.380594 
L 233.309918 282.582178 
L 233.661176 282.582178 
L 233.661176 281.783762 
L 236.802134 281.783762 
L 236.802134 280.985347 
L 238.284371 280.985347 
L 238.284371 280.186931 
L 238.543077 280.186931 
L 238.587907 277.791683 
L 238.691991 277.791683 
L 238.802769 276.194851 
L 238.980012 276.194851 
L 239.026547 273.799604 
L 239.159087 273.799604 
L 239.255727 271.404356 
L 239.378135 271.404356 
L 239.479966 269.807525 
L 239.670704 269.807525 
L 239.670704 269.009109 
L 239.800559 269.009109 
L 239.889298 267.412277 
L 240.054296 267.412277 
L 240.143076 265.815446 
L 240.302478 265.815446 
L 240.302478 265.01703 
L 240.534546 265.01703 
L 240.534546 264.218614 
L 240.698906 264.218614 
L 240.698906 263.420198 
L 241.207532 263.420198 
L 241.286868 261.823366 
L 242.360528 261.823366 
L 242.360528 261.02495 
L 242.528201 261.02495 
L 242.528201 260.226535 
L 243.14964 260.226535 
L 243.14964 259.428119 
L 243.876047 259.428119 
L 243.876047 258.629703 
L 246.659099 258.629703 
L 246.697031 257.032871 
L 247.385907 257.032871 
L 247.385907 256.234455 
L 248.603493 256.234455 
L 248.603493 255.43604 
L 248.981306 255.43604 
L 248.981306 254.637624 
L 249.989171 254.637624 
L 249.989171 253.839208 
L 250.172952 253.839208 
L 250.172952 253.040792 
L 250.600181 253.040792 
L 250.604851 251.44396 
L 250.766104 251.44396 
L 250.766104 250.645545 
L 251.577146 250.645545 
L 251.577146 249.847129 
L 251.836785 249.847129 
L 251.836785 249.048713 
L 252.132279 249.048713 
L 252.198898 246.653465 
L 252.34577 246.653465 
L 252.34577 245.85505 
L 252.504981 245.85505 
L 252.583415 244.258218 
L 252.640505 244.258218 
L 252.640505 243.459802 
L 252.863013 243.459802 
L 252.881955 241.86297 
L 253.120466 241.86297 
L 253.120466 241.064554 
L 253.304987 241.064554 
L 253.304987 240.266139 
L 253.632699 240.266139 
L 253.722243 237.870891 
L 253.840594 237.870891 
L 253.840594 237.072475 
L 254.096791 237.072475 
L 254.184145 235.475644 
L 254.339229 235.475644 
L 254.406802 233.878812 
L 254.767944 233.878812 
L 254.767944 233.080396 
L 255.60525 233.080396 
L 255.60525 232.28198 
L 255.799688 232.28198 
L 255.799688 231.483564 
L 256.38353 231.483564 
L 256.38353 230.685149 
L 256.607866 230.685149 
L 256.607866 229.886733 
L 257.192444 229.886733 
L 257.192444 229.088317 
L 257.305083 229.088317 
L 257.305083 228.289901 
L 257.831049 228.289901 
L 257.831049 227.491485 
L 257.972693 227.491485 
L 258.077159 225.894653 
L 258.773291 225.894653 
L 258.842634 223.499406 
L 258.931258 223.499406 
L 258.96935 221.902574 
L 259.06433 221.902574 
L 259.075846 220.305743 
L 259.225468 220.305743 
L 259.289787 217.910495 
L 259.37324 217.910495 
L 259.37324 217.112079 
L 259.533822 217.112079 
L 259.606598 215.515248 
L 259.692392 215.515248 
L 259.692392 214.716832 
L 259.880667 214.716832 
L 259.973233 212.321584 
L 259.996112 212.321584 
L 260.098918 208.329505 
L 260.236498 208.329505 
L 260.287268 205.934257 
L 260.381933 205.934257 
L 260.489151 203.53901 
L 260.50623 203.53901 
L 260.599794 200.345347 
L 260.617394 200.345347 
L 260.647136 198.748515 
L 260.781658 198.748515 
L 260.781658 197.950099 
L 262.467494 197.950099 
L 262.467494 197.151683 
L 264.449821 197.151683 
L 264.540758 195.554851 
L 264.647372 195.554851 
L 264.647372 194.756436 
L 264.856864 194.756436 
L 264.856864 193.95802 
L 265.094246 193.95802 
L 265.094246 193.159604 
L 266.302292 193.159604 
L 266.302292 192.361188 
L 266.534613 192.361188 
L 266.534613 191.562772 
L 266.711979 191.562772 
L 266.711979 190.764356 
L 266.839887 190.764356 
L 266.839887 189.965941 
L 267.614768 189.965941 
L 267.614768 189.167525 
L 268.162261 189.167525 
L 268.162261 188.369109 
L 268.422391 188.369109 
L 268.422391 187.570693 
L 270.084934 187.570693 
L 270.084934 186.772277 
L 270.544575 186.772277 
L 270.544575 185.973861 
L 273.418822 185.973861 
L 273.504485 184.37703 
L 273.730515 184.37703 
L 273.794363 182.780198 
L 273.951335 182.780198 
L 273.951335 181.981782 
L 274.189514 181.981782 
L 274.189514 181.183366 
L 274.39849 181.183366 
L 274.412287 179.586535 
L 274.636506 179.586535 
L 274.729838 177.989703 
L 274.799337 177.989703 
L 274.851832 176.392871 
L 275.000261 176.392871 
L 275.000261 175.594455 
L 275.17579 175.594455 
L 275.17579 174.79604 
L 275.323286 174.79604 
L 275.323286 173.997624 
L 276.411758 173.997624 
L 276.411758 173.199208 
L 276.8615 173.199208 
L 276.8615 172.400792 
L 277.04644 172.400792 
L 277.04644 171.602376 
L 277.201734 171.602376 
L 277.201734 170.80396 
L 277.779652 170.80396 
L 277.779652 170.005545 
L 278.062616 170.005545 
L 278.062616 169.207129 
L 278.1752 169.207129 
L 278.1752 168.408713 
L 278.607152 168.408713 
L 278.607152 167.610297 
L 278.735411 167.610297 
L 278.744339 165.21505 
L 278.995393 165.21505 
L 278.995393 164.416634 
L 279.297696 164.416634 
L 279.297696 163.618218 
L 279.790397 163.618218 
L 279.807601 162.021386 
L 280.051275 162.021386 
L 280.051275 161.22297 
L 280.230067 161.22297 
L 280.302814 159.626139 
L 280.576282 159.626139 
L 280.576282 158.827723 
L 280.986077 158.827723 
L 280.986077 158.029307 
L 281.156329 158.029307 
L 281.156329 157.230891 
L 281.307051 157.230891 
L 281.411856 155.634059 
L 281.621606 155.634059 
L 281.621606 154.835644 
L 281.789554 154.835644 
L 281.789554 154.037228 
L 282.412098 154.037228 
L 282.412098 153.238812 
L 282.526618 153.238812 
L 282.526618 152.440396 
L 282.665191 152.440396 
L 282.665191 151.64198 
L 282.814815 151.64198 
L 282.896965 150.045149 
L 283.145487 150.045149 
L 283.145487 149.246733 
L 283.30746 149.246733 
L 283.334301 147.649901 
L 283.582104 147.649901 
L 283.582104 146.851485 
L 283.73595 146.851485 
L 283.73595 146.053069 
L 283.941275 146.053069 
L 283.941275 145.254653 
L 284.253987 145.254653 
L 284.351337 142.859406 
L 284.410217 142.859406 
L 284.410217 142.06099 
L 285.18903 142.06099 
L 285.18903 141.262574 
L 285.426016 141.262574 
L 285.426016 140.464158 
L 285.82777 140.464158 
L 285.93491 138.867327 
L 286.156017 138.867327 
L 286.221432 137.270495 
L 286.313813 137.270495 
L 286.313813 136.472079 
L 286.470559 136.472079 
L 286.562219 134.875248 
L 286.748558 134.875248 
L 286.829643 132.48 
L 286.974315 132.48 
L 286.974315 131.681584 
L 287.161432 131.681584 
L 287.161432 130.883168 
L 287.427014 130.883168 
L 287.427014 130.084752 
L 287.647199 130.084752 
L 287.67761 128.487921 
L 288.105128 128.487921 
L 288.172309 125.294257 
L 288.24036 125.294257 
L 288.344667 123.697426 
L 288.424727 123.697426 
L 288.424727 122.89901 
L 288.579118 122.89901 
L 288.661145 121.302178 
L 289.252167 121.302178 
L 289.335638 118.906931 
L 289.438806 118.906931 
L 289.438806 118.108515 
L 289.925636 118.108515 
L 289.925636 117.310099 
L 290.289866 117.310099 
L 290.289866 116.511683 
L 290.595198 116.511683 
L 290.635672 114.914851 
L 290.805752 114.914851 
L 290.805752 114.116436 
L 291.286935 114.116436 
L 291.286935 113.31802 
L 291.802423 113.31802 
L 291.911857 111.721188 
L 292.738526 111.721188 
L 292.738526 110.922772 
L 292.978265 110.922772 
L 292.978265 110.124356 
L 293.445605 110.124356 
L 293.445605 109.325941 
L 294.409187 109.325941 
L 294.409187 108.527525 
L 295.243936 108.527525 
L 295.243936 107.729109 
L 295.684823 107.729109 
L 295.684823 106.930693 
L 296.121003 106.930693 
L 296.121003 106.132277 
L 296.51746 106.132277 
L 296.51746 105.333861 
L 296.983397 105.333861 
L 297.091294 103.73703 
L 297.113846 103.73703 
L 297.113846 102.938614 
L 297.897232 102.938614 
L 297.897232 102.140198 
L 298.167272 102.140198 
L 298.239171 99.74495 
L 298.786722 99.74495 
L 298.786722 98.946535 
L 299.454133 98.946535 
L 299.454133 98.148119 
L 303.497513 98.148119 
L 303.497513 97.349703 
L 304.388124 97.349703 
L 304.388124 96.551287 
L 309.141249 96.551287 
L 309.141249 95.752871 
L 310.793612 95.752871 
L 310.793612 94.954455 
L 312.374887 94.954455 
L 312.374887 94.15604 
L 313.070216 94.15604 
L 313.070216 93.357624 
L 313.206734 93.357624 
L 313.206734 92.559208 
L 317.051431 92.559208 
L 317.0672 90.962376 
L 321.766039 90.962376 
L 321.766039 90.16396 
L 322.104064 90.16396 
L 322.104064 89.365545 
L 322.525303 89.365545 
L 322.525303 88.567129 
L 322.878034 88.567129 
L 322.938063 86.970297 
L 325.193261 86.970297 
L 325.193261 86.171881 
L 325.980429 86.171881 
L 325.989779 84.57505 
L 327.193995 84.57505 
L 327.193995 83.776634 
L 327.555748 83.776634 
L 327.604539 82.179802 
L 327.931117 82.179802 
L 327.931117 81.381386 
L 328.343455 81.381386 
L 328.409092 79.784554 
L 329.109938 79.784554 
L 329.109938 78.986139 
L 329.863184 78.986139 
L 329.863184 78.187723 
L 331.122394 78.187723 
L 331.122394 77.389307 
L 331.74664 77.389307 
L 331.74664 76.590891 
L 331.869596 76.590891 
L 331.869596 75.792475 
L 331.984205 75.792475 
L 331.984205 74.994059 
L 332.648796 74.994059 
L 332.648796 74.195644 
L 332.940948 74.195644 
L 332.940948 73.397228 
L 333.439417 73.397228 
L 333.474029 71.800396 
L 333.873596 71.800396 
L 333.873596 71.00198 
L 334.089838 71.00198 
L 334.089838 70.203564 
L 334.588487 70.203564 
L 334.588487 69.405149 
L 334.880144 69.405149 
L 334.880144 68.606733 
L 335.44784 68.606733 
L 335.44784 67.808317 
L 336.302452 67.808317 
L 336.302452 67.009901 
L 336.873326 67.009901 
L 336.873326 66.211485 
L 337.261101 66.211485 
L 337.261101 65.413069 
L 340.544409 65.413069 
L 340.544409 64.614653 
L 340.731207 64.614653 
L 340.731207 63.816238 
L 342.287487 63.816238 
L 342.287487 63.017822 
L 343.630047 63.017822 
L 343.630047 62.219406 
L 343.846205 62.219406 
L 343.846205 61.42099 
L 344.056999 61.42099 
L 344.056999 60.622574 
L 344.39563 60.622574 
L 344.39563 59.824158 
L 345.303789 59.824158 
L 345.303789 59.025743 
L 345.476184 59.025743 
L 345.476184 58.227327 
L 347.847034 58.227327 
L 347.847034 57.428911 
L 348.123528 57.428911 
L 348.123528 56.630495 
L 348.41225 56.630495 
L 348.41225 55.832079 
L 348.837993 55.832079 
L 348.837993 55.033663 
L 349.09401 55.033663 
L 349.09401 54.235248 
L 349.970965 54.235248 
L 349.970965 53.436832 
L 353.053324 53.436832 
L 353.155702 51.84 
L 353.699039 51.84 
L 353.789337 50.243168 
L 355.516408 50.243168 
L 355.516408 49.444752 
L 356.242327 49.444752 
L 356.242327 48.646337 
L 356.373781 48.646337 
L 356.373781 47.847921 
L 358.738681 47.847921 
L 358.738681 47.049505 
L 360.392455 47.049505 
L 360.392455 46.251089 
L 360.870544 46.251089 
L 360.870544 45.452673 
L 361.346268 45.452673 
L 361.346268 44.654257 
L 365.747689 44.654257 
L 365.747689 43.855842 
L 365.932635 43.855842 
L 365.932635 43.057426 
L 367.95828 43.057426 
L 367.95828 42.25901 
L 369.960866 42.25901 
L 369.960866 41.460594 
L 371.612629 41.460594 
L 371.612629 40.662178 
L 372.423352 40.662178 
L 372.423352 39.863762 
L 373.247826 39.863762 
L 373.247826 39.065347 
L 375.63838 39.065347 
L 375.739523 36.670099 
L 376.348561 36.670099 
L 376.348561 35.871683 
L 377.102831 35.871683 
L 377.102831 35.073267 
L 377.393764 35.073267 
L 377.393764 34.274851 
L 377.828956 34.274851 
L 377.828956 33.476436 
L 377.964322 33.476436 
L 377.964322 32.67802 
L 378.735553 32.67802 
L 378.735553 31.879604 
L 378.949152 31.879604 
L 378.949152 31.081188 
L 380.979733 31.081188 
L 380.979733 30.282772 
L 381.234003 30.282772 
L 381.332839 28.685941 
L 381.52128 28.685941 
L 381.52128 27.887525 
L 381.660381 27.887525 
L 381.660381 27.089109 
L 381.869627 27.089109 
L 381.869627 26.290693 
L 382.659351 26.290693 
L 382.659351 25.492277 
L 383.410441 25.492277 
L 383.410441 24.693861 
L 383.961062 24.693861 
L 383.961062 23.895446 
L 384.688896 23.895446 
L 384.688896 23.09703 
L 384.943783 23.09703 
L 384.943783 22.298614 
L 385.260708 22.298614 
L 385.260708 21.500198 
L 385.415885 21.500198 
L 385.415885 20.701782 
L 385.620864 20.701782 
L 385.620864 19.903366 
L 389.266036 19.903366 
L 389.266036 19.10495 
L 392.11616 19.10495 
L 392.11616 18.306535 
L 421.144302 18.306535 
L 421.144302 17.508119 
L 422.655603 17.508119 
L 422.655603 16.709703 
L 423.478248 16.709703 
L 423.478248 15.911287 
L 425.983263 15.911287 
L 425.983263 15.112871 
L 427.162458 15.112871 
L 427.162458 14.314455 
L 427.352716 14.314455 
L 427.352716 13.51604 
L 429.082435 13.51604 
L 429.082435 12.717624 
L 429.94218 12.717624 
L 429.94218 11.919208 
L 430.329067 11.919208 
L 430.329067 11.120792 
L 430.977914 11.120792 
L 430.977914 10.322376 
L 431.561049 10.322376 
L 431.561049 9.52396 
L 432.093368 9.52396 
L 432.093368 8.725545 
L 432.370895 8.725545 
L 432.370895 7.927129 
L 434.193717 7.927129 
L 434.193717 7.128713 
L 435.520986 7.128713 
L 435.520986 6.330297 
L 435.520986 6.330297 
L 460.8 6.330297 
L 460.8 6.330297 
" style="fill:none;stroke:#000000;stroke-linecap:square;stroke-width:1.5;"/>
   </g>
   <g id="line2d_25">
    <path clip-path="url(#pba019e677d)" d="M 222.726542 293.76 
L 222.726542 292.961584 
L 226.065123 292.961584 
L 226.065123 292.163168 
L 226.400877 292.163168 
L 226.400877 291.364752 
L 227.814927 291.364752 
L 227.863152 289.767921 
L 228.26517 289.767921 
L 228.26517 288.969505 
L 228.769804 288.969505 
L 228.769804 288.171089 
L 229.019154 288.171089 
L 229.019154 287.372673 
L 229.25696 287.372673 
L 229.340764 285.775842 
L 230.093113 285.775842 
L 230.093113 284.977426 
L 230.384074 284.977426 
L 230.476256 283.380594 
L 230.739316 283.380594 
L 230.739316 282.582178 
L 230.976217 282.582178 
L 230.976217 281.783762 
L 235.414641 281.783762 
L 235.414641 280.985347 
L 235.89027 280.985347 
L 235.89027 280.186931 
L 236.088862 280.186931 
L 236.194968 278.590099 
L 236.271637 278.590099 
L 236.289192 276.993267 
L 236.401737 276.993267 
L 236.401737 276.194851 
L 236.791093 276.194851 
L 236.791093 275.396436 
L 237.26579 275.396436 
L 237.26579 274.59802 
L 237.797493 274.59802 
L 237.797493 273.799604 
L 238.159341 273.799604 
L 238.159341 273.001188 
L 238.273522 273.001188 
L 238.284371 271.404356 
L 238.410719 271.404356 
L 238.410719 270.605941 
L 238.543077 270.605941 
L 238.543077 269.807525 
L 238.787515 269.807525 
L 238.824977 267.412277 
L 239.021724 267.412277 
L 239.026547 265.815446 
L 239.159087 265.815446 
L 239.159087 265.01703 
L 239.309538 265.01703 
L 239.309538 264.218614 
L 239.46657 264.218614 
L 239.46657 263.420198 
L 240.054296 263.420198 
L 240.08584 261.823366 
L 240.302478 261.823366 
L 240.302478 261.02495 
L 240.534546 261.02495 
L 240.534546 260.226535 
L 241.283806 260.226535 
L 241.283806 259.428119 
L 241.408026 259.428119 
L 241.408026 258.629703 
L 243.14964 258.629703 
L 243.14964 257.831287 
L 244.885429 257.831287 
L 244.885429 257.032871 
L 246.314413 257.032871 
L 246.314413 256.234455 
L 246.659099 256.234455 
L 246.659099 255.43604 
L 247.385907 255.43604 
L 247.385907 254.637624 
L 248.52148 254.637624 
L 248.52148 253.839208 
L 248.981306 253.839208 
L 248.981306 253.040792 
L 250.172952 253.040792 
L 250.251505 250.645545 
L 250.600181 250.645545 
L 250.604851 249.048713 
L 251.049681 249.048713 
L 251.049681 248.250297 
L 251.577146 248.250297 
L 251.577146 247.451881 
L 251.836785 247.451881 
L 251.836785 246.653465 
L 252.132279 246.653465 
L 252.198898 245.056634 
L 252.308838 245.056634 
L 252.392312 241.86297 
L 252.477524 241.86297 
L 252.504981 240.266139 
L 252.633323 240.266139 
L 252.633323 239.467723 
L 252.862087 239.467723 
L 252.924587 237.072475 
L 253.013469 237.072475 
L 253.013469 236.274059 
L 253.304987 236.274059 
L 253.304987 235.475644 
L 253.793423 235.475644 
L 253.793423 234.677228 
L 254.184145 234.677228 
L 254.184145 233.878812 
L 254.339229 233.878812 
L 254.339229 233.080396 
L 254.767944 233.080396 
L 254.767944 232.28198 
L 255.385764 232.28198 
L 255.385764 231.483564 
L 255.696908 231.483564 
L 255.696908 230.685149 
L 256.38353 230.685149 
L 256.38353 229.886733 
L 256.607866 229.886733 
L 256.607866 229.088317 
L 257.305083 229.088317 
L 257.305083 228.289901 
L 257.831049 228.289901 
L 257.862878 226.693069 
L 257.972693 226.693069 
L 258.077159 225.096238 
L 258.457732 225.096238 
L 258.457732 224.297822 
L 258.773291 224.297822 
L 258.879996 221.104158 
L 258.931258 221.104158 
L 258.992397 219.507327 
L 259.06433 219.507327 
L 259.06433 218.708911 
L 259.25928 218.708911 
L 259.351549 216.313663 
L 259.480548 216.313663 
L 259.55259 213.918416 
L 259.606598 213.918416 
L 259.692392 212.321584 
L 259.821203 212.321584 
L 259.917271 210.724752 
L 259.950345 210.724752 
L 260.022596 208.329505 
L 260.062574 208.329505 
L 260.1214 205.135842 
L 260.236498 205.135842 
L 260.287268 203.53901 
L 260.381933 203.53901 
L 260.482756 199.546931 
L 260.547274 199.546931 
L 260.597657 197.950099 
L 261.529932 197.950099 
L 261.615369 196.353267 
L 262.026009 196.353267 
L 262.026009 195.554851 
L 263.314242 195.554851 
L 263.314242 194.756436 
L 263.894727 194.756436 
L 263.894727 193.95802 
L 264.318112 193.95802 
L 264.373903 192.361188 
L 264.557553 192.361188 
L 264.557553 191.562772 
L 265.230944 191.562772 
L 265.230944 190.764356 
L 265.486944 190.764356 
L 265.486944 189.965941 
L 265.616864 189.965941 
L 265.616864 189.167525 
L 266.839887 189.167525 
L 266.839887 188.369109 
L 267.171755 188.369109 
L 267.171755 187.570693 
L 267.946734 187.570693 
L 268.008888 185.973861 
L 273.418822 185.973861 
L 273.504485 184.37703 
L 273.730515 184.37703 
L 273.794363 182.780198 
L 273.951335 182.780198 
L 273.951335 181.981782 
L 274.187829 181.981782 
L 274.189514 180.38495 
L 274.39849 180.38495 
L 274.39849 179.586535 
L 274.636506 179.586535 
L 274.729838 177.989703 
L 274.799337 177.989703 
L 274.851832 176.392871 
L 275.000261 176.392871 
L 275.000261 175.594455 
L 275.17579 175.594455 
L 275.17579 174.79604 
L 275.323286 174.79604 
L 275.323286 173.997624 
L 275.714454 173.997624 
L 275.714454 173.199208 
L 275.98978 173.199208 
L 276.080967 171.602376 
L 276.846102 171.602376 
L 276.8615 170.005545 
L 276.972722 170.005545 
L 276.972722 169.207129 
L 277.201734 169.207129 
L 277.201734 168.408713 
L 277.38623 168.408713 
L 277.462987 166.811881 
L 277.689353 166.811881 
L 277.779652 164.416634 
L 278.081697 164.416634 
L 278.081697 163.618218 
L 278.419932 163.618218 
L 278.419932 162.819802 
L 278.684143 162.819802 
L 278.744339 159.626139 
L 279.163143 159.626139 
L 279.232217 158.029307 
L 280.256076 158.029307 
L 280.302814 156.432475 
L 280.576282 156.432475 
L 280.576282 155.634059 
L 280.778778 155.634059 
L 280.778778 154.835644 
L 280.986077 154.835644 
L 281.082187 153.238812 
L 281.222608 153.238812 
L 281.222608 152.440396 
L 281.532446 152.440396 
L 281.621606 150.843564 
L 281.720225 150.843564 
L 281.734375 149.246733 
L 282.154892 149.246733 
L 282.154892 148.448317 
L 282.412098 148.448317 
L 282.412098 147.649901 
L 282.874243 147.649901 
L 282.953123 144.456238 
L 283.010103 144.456238 
L 283.010103 143.657822 
L 283.145487 143.657822 
L 283.145487 142.859406 
L 283.30746 142.859406 
L 283.30746 142.06099 
L 283.528917 142.06099 
L 283.528917 141.262574 
L 283.803456 141.262574 
L 283.803456 140.464158 
L 284.253987 140.464158 
L 284.271957 138.867327 
L 284.410217 138.867327 
L 284.410217 138.068911 
L 284.677689 138.068911 
L 284.757445 136.472079 
L 284.802925 136.472079 
L 284.802925 135.673663 
L 285.169193 135.673663 
L 285.169193 134.875248 
L 285.316931 134.875248 
L 285.364567 133.278416 
L 286.14484 133.278416 
L 286.221432 130.084752 
L 286.313813 130.084752 
L 286.313813 129.286337 
L 286.470559 129.286337 
L 286.562219 127.689505 
L 286.609923 127.689505 
L 286.609923 126.891089 
L 286.748558 126.891089 
L 286.829643 124.495842 
L 286.951626 124.495842 
L 286.974315 122.89901 
L 287.639644 122.89901 
L 287.639644 122.100594 
L 287.798998 122.100594 
L 287.798998 121.302178 
L 288.038689 121.302178 
L 288.089214 119.705347 
L 288.165938 119.705347 
L 288.167425 118.108515 
L 288.344667 118.108515 
L 288.365257 116.511683 
L 288.579118 116.511683 
L 288.579118 115.713267 
L 289.030924 115.713267 
L 289.030924 114.914851 
L 289.772782 114.914851 
L 289.772782 114.116436 
L 290.595198 114.116436 
L 290.635672 112.519604 
L 290.965845 112.519604 
L 290.965845 111.721188 
L 291.179111 111.721188 
L 291.179111 110.922772 
L 291.911857 110.922772 
L 291.911857 110.124356 
L 292.725927 110.124356 
L 292.738526 108.527525 
L 294.409187 108.527525 
L 294.409187 107.729109 
L 294.877187 107.729109 
L 294.877187 106.930693 
L 295.253752 106.930693 
L 295.253752 106.132277 
L 295.684823 106.132277 
L 295.684823 105.333861 
L 296.34934 105.333861 
L 296.34934 104.535446 
L 296.51746 104.535446 
L 296.51746 103.73703 
L 296.793826 103.73703 
L 296.793826 102.938614 
L 296.983397 102.938614 
L 297.091294 101.341782 
L 297.267057 101.341782 
L 297.267057 100.543366 
L 297.633844 100.543366 
L 297.633844 99.74495 
L 297.897232 99.74495 
L 297.897232 98.946535 
L 298.167272 98.946535 
L 298.167272 98.148119 
L 299.193776 98.148119 
L 299.240801 96.551287 
L 303.497513 96.551287 
L 303.497513 95.752871 
L 304.692846 95.752871 
L 304.692846 94.954455 
L 308.39448 94.954455 
L 308.39448 94.15604 
L 309.141249 94.15604 
L 309.141249 93.357624 
L 310.793612 93.357624 
L 310.793612 92.559208 
L 311.421023 92.559208 
L 311.421023 91.760792 
L 313.070216 91.760792 
L 313.070216 90.962376 
L 313.206734 90.962376 
L 313.206734 90.16396 
L 313.889435 90.16396 
L 313.889435 89.365545 
L 314.418165 89.365545 
L 314.418165 88.567129 
L 314.542372 88.567129 
L 314.542372 87.768713 
L 316.609113 87.768713 
L 316.664772 86.171881 
L 317.0672 86.171881 
L 317.0672 85.373465 
L 318.384575 85.373465 
L 318.384575 84.57505 
L 318.588074 84.57505 
L 318.588074 83.776634 
L 320.741281 83.776634 
L 320.741281 82.978218 
L 321.135659 82.978218 
L 321.135659 82.179802 
L 321.385964 82.179802 
L 321.385964 81.381386 
L 321.933224 81.381386 
L 321.987979 79.784554 
L 323.053012 79.784554 
L 323.053012 78.986139 
L 323.244406 78.986139 
L 323.244406 78.187723 
L 325.483413 78.187723 
L 325.483413 77.389307 
L 326.725856 77.389307 
L 326.725856 76.590891 
L 326.847386 76.590891 
L 326.847386 75.792475 
L 326.997352 75.792475 
L 326.997352 74.994059 
L 327.190561 74.994059 
L 327.193995 73.397228 
L 327.604539 73.397228 
L 327.604539 72.598812 
L 327.877121 72.598812 
L 327.877121 71.800396 
L 328.343455 71.800396 
L 328.343455 71.00198 
L 331.956162 71.00198 
L 332.00155 68.606733 
L 332.293813 68.606733 
L 332.293813 67.808317 
L 332.992063 67.808317 
L 332.992063 67.009901 
L 333.31307 67.009901 
L 333.31307 66.211485 
L 333.513471 66.211485 
L 333.513471 65.413069 
L 333.666332 65.413069 
L 333.666332 64.614653 
L 333.873596 64.614653 
L 333.873596 63.816238 
L 334.588487 63.816238 
L 334.588487 63.017822 
L 336.873326 63.017822 
L 336.873326 62.219406 
L 338.71805 62.219406 
L 338.71805 61.42099 
L 340.544409 61.42099 
L 340.544409 60.622574 
L 340.940148 60.622574 
L 340.940148 59.824158 
L 343.846205 59.824158 
L 343.857442 58.227327 
L 344.056999 58.227327 
L 344.056999 57.428911 
L 347.0314 57.428911 
L 347.0314 56.630495 
L 347.5241 56.630495 
L 347.627636 55.033663 
L 347.690053 55.033663 
L 347.784976 53.436832 
L 348.872576 53.436832 
L 348.872576 52.638416 
L 350.278052 52.638416 
L 350.278052 51.84 
L 353.699039 51.84 
L 353.789337 50.243168 
L 355.516408 50.243168 
L 355.516408 49.444752 
L 356.047912 49.444752 
L 356.047912 48.646337 
L 356.220803 48.646337 
L 356.220803 47.847921 
L 358.738681 47.847921 
L 358.738681 47.049505 
L 360.392455 47.049505 
L 360.392455 46.251089 
L 360.870544 46.251089 
L 360.870544 45.452673 
L 361.345503 45.452673 
L 361.345503 44.654257 
L 364.929336 44.654257 
L 364.929336 43.855842 
L 365.747689 43.855842 
L 365.747689 43.057426 
L 366.531872 43.057426 
L 366.531872 42.25901 
L 367.95828 42.25901 
L 367.95828 41.460594 
L 369.960866 41.460594 
L 369.993138 39.863762 
L 371.612629 39.863762 
L 371.612629 39.065347 
L 372.423352 39.065347 
L 372.423352 38.266931 
L 374.944582 38.266931 
L 374.944582 37.468515 
L 375.63838 37.468515 
L 375.739523 35.073267 
L 376.348561 35.073267 
L 376.348561 34.274851 
L 377.102831 34.274851 
L 377.204279 32.67802 
L 377.964322 32.67802 
L 377.964322 31.879604 
L 378.735553 31.879604 
L 378.735553 31.081188 
L 378.949152 31.081188 
L 378.949152 30.282772 
L 380.19054 30.282772 
L 380.19054 29.484356 
L 380.979733 29.484356 
L 380.979733 28.685941 
L 381.127142 28.685941 
L 381.234003 27.089109 
L 381.332839 27.089109 
L 381.332839 26.290693 
L 381.52128 26.290693 
L 381.52128 25.492277 
L 381.660381 25.492277 
L 381.660381 24.693861 
L 382.659351 24.693861 
L 382.659351 23.895446 
L 384.688896 23.895446 
L 384.688896 23.09703 
L 384.943783 23.09703 
L 384.943783 22.298614 
L 385.260708 22.298614 
L 385.260708 21.500198 
L 385.415885 21.500198 
L 385.415885 20.701782 
L 385.620864 20.701782 
L 385.620864 19.903366 
L 389.266036 19.903366 
L 389.266036 19.10495 
L 392.11616 19.10495 
L 392.11616 18.306535 
L 417.843611 18.306535 
L 417.843611 17.508119 
L 421.144302 17.508119 
L 421.144302 16.709703 
L 422.655603 16.709703 
L 422.655603 15.911287 
L 423.84256 15.911287 
L 423.937315 14.314455 
L 425.983263 14.314455 
L 425.983263 13.51604 
L 426.796243 13.51604 
L 426.796243 12.717624 
L 427.352716 12.717624 
L 427.352716 11.919208 
L 427.874953 11.919208 
L 427.874953 11.120792 
L 429.24095 11.120792 
L 429.24095 10.322376 
L 429.94218 10.322376 
L 429.94218 9.52396 
L 431.561049 9.52396 
L 431.561049 8.725545 
L 432.076708 8.725545 
L 432.076708 7.927129 
L 434.193717 7.927129 
L 434.193717 7.128713 
L 435.137091 7.128713 
L 435.137091 6.330297 
L 435.137091 6.330297 
L 460.8 6.330297 
L 460.8 6.330297 
" style="fill:none;stroke:#00bfbf;stroke-linecap:square;stroke-width:1.5;"/>
   </g>
   <g id="line2d_26">
    <path clip-path="url(#pba019e677d)" d="M 222.726542 293.76 
L 222.726542 292.961584 
L 223.380214 292.961584 
L 223.380214 292.163168 
L 224.609562 292.163168 
L 224.609562 291.364752 
L 225.208977 291.364752 
L 225.208977 290.566337 
L 225.596192 290.566337 
L 225.596192 289.767921 
L 226.065123 289.767921 
L 226.065123 288.969505 
L 226.619674 288.969505 
L 226.688671 287.372673 
L 226.822306 287.372673 
L 226.822306 286.574257 
L 227.36103 286.574257 
L 227.452702 284.17901 
L 227.644397 284.17901 
L 227.659546 282.582178 
L 227.967348 282.582178 
L 227.967348 281.783762 
L 228.965223 281.783762 
L 228.965223 280.985347 
L 230.418909 280.985347 
L 230.418909 280.186931 
L 230.838299 280.186931 
L 230.841939 278.590099 
L 232.732151 278.590099 
L 232.732151 277.791683 
L 233.23978 277.791683 
L 233.23978 276.993267 
L 233.819815 276.993267 
L 233.819815 276.194851 
L 233.986105 276.194851 
L 234.072953 274.59802 
L 234.308938 274.59802 
L 234.308938 273.799604 
L 234.607452 273.799604 
L 234.661499 272.202772 
L 234.984005 272.202772 
L 235.081465 270.605941 
L 235.25575 270.605941 
L 235.25575 269.807525 
L 235.414641 269.807525 
L 235.414641 269.009109 
L 235.661712 269.009109 
L 235.661712 268.210693 
L 235.89027 268.210693 
L 235.955205 265.815446 
L 236.644898 265.815446 
L 236.644898 265.01703 
L 236.791093 265.01703 
L 236.791093 264.218614 
L 237.124865 264.218614 
L 237.220141 262.621782 
L 237.491309 262.621782 
L 237.491309 261.823366 
L 238.20079 261.823366 
L 238.20079 261.02495 
L 238.944462 261.02495 
L 238.944462 260.226535 
L 239.208092 260.226535 
L 239.208092 259.428119 
L 240.302478 259.428119 
L 240.302478 258.629703 
L 240.534546 258.629703 
L 240.534546 257.831287 
L 244.608521 257.831287 
L 244.696714 256.234455 
L 245.037541 256.234455 
L 245.037541 255.43604 
L 245.57654 255.43604 
L 245.57654 254.637624 
L 246.314413 254.637624 
L 246.314413 253.839208 
L 246.659099 253.839208 
L 246.659099 253.040792 
L 246.943847 253.040792 
L 246.943847 252.242376 
L 247.645415 252.242376 
L 247.754005 249.847129 
L 247.989608 249.847129 
L 247.989608 249.048713 
L 248.54536 249.048713 
L 248.54536 248.250297 
L 248.960151 248.250297 
L 248.981306 246.653465 
L 249.156129 246.653465 
L 249.168106 245.056634 
L 249.394209 245.056634 
L 249.394209 244.258218 
L 249.876996 244.258218 
L 249.876996 243.459802 
L 250.110798 243.459802 
L 250.110798 242.661386 
L 250.628117 242.661386 
L 250.639284 241.064554 
L 251.049681 241.064554 
L 251.056929 239.467723 
L 251.291588 239.467723 
L 251.291588 238.669307 
L 251.40631 238.669307 
L 251.40631 237.870891 
L 251.813355 237.870891 
L 251.836785 236.274059 
L 252.247049 236.274059 
L 252.247049 235.475644 
L 252.392312 235.475644 
L 252.392312 234.677228 
L 252.504981 234.677228 
L 252.504981 233.878812 
L 252.633323 233.878812 
L 252.633323 233.080396 
L 253.530655 233.080396 
L 253.530655 232.28198 
L 253.690591 232.28198 
L 253.793423 230.685149 
L 254.093063 230.685149 
L 254.093063 229.886733 
L 254.339229 229.886733 
L 254.339229 229.088317 
L 255.385764 229.088317 
L 255.385764 228.289901 
L 256.228855 228.289901 
L 256.228855 227.491485 
L 256.38353 227.491485 
L 256.38353 226.693069 
L 256.607866 226.693069 
L 256.607866 225.894653 
L 258.077159 225.894653 
L 258.09484 224.297822 
L 258.298443 224.297822 
L 258.298443 223.499406 
L 258.457732 223.499406 
L 258.529756 221.104158 
L 258.741393 221.104158 
L 258.842634 217.910495 
L 258.879996 217.910495 
L 258.931258 216.313663 
L 258.992397 216.313663 
L 259.06433 214.716832 
L 259.112894 214.716832 
L 259.112894 213.918416 
L 259.273321 213.918416 
L 259.289787 212.321584 
L 259.451762 212.321584 
L 259.533822 210.724752 
L 259.600267 210.724752 
L 259.648756 209.127921 
L 259.725631 209.127921 
L 259.821203 204.337426 
L 259.841701 204.337426 
L 259.929078 201.942178 
L 260.076165 201.942178 
L 260.164793 198.748515 
L 260.27505 198.748515 
L 260.27505 197.950099 
L 260.419119 197.950099 
L 260.460512 196.353267 
L 261.106399 196.353267 
L 261.106399 195.554851 
L 261.23552 195.554851 
L 261.23552 194.756436 
L 261.357989 194.756436 
L 261.357989 193.95802 
L 261.669471 193.95802 
L 261.669471 193.159604 
L 262.026009 193.159604 
L 262.026009 192.361188 
L 262.2858 192.361188 
L 262.2858 191.562772 
L 262.533202 191.562772 
L 262.533202 190.764356 
L 264.296744 190.764356 
L 264.373903 189.167525 
L 264.872877 189.167525 
L 264.872877 188.369109 
L 265.156635 188.369109 
L 265.211685 186.772277 
L 266.741989 186.772277 
L 266.741989 185.973861 
L 267.483256 185.973861 
L 267.483256 185.175446 
L 267.876773 185.175446 
L 267.876773 184.37703 
L 268.473419 184.37703 
L 268.473419 183.578614 
L 270.202673 183.578614 
L 270.202673 182.780198 
L 271.060685 182.780198 
L 271.060685 181.981782 
L 271.882988 181.981782 
L 271.882988 181.183366 
L 272.540939 181.183366 
L 272.540939 180.38495 
L 273.368588 180.38495 
L 273.418822 178.788119 
L 273.504485 178.788119 
L 273.504485 177.989703 
L 273.634042 177.989703 
L 273.730515 176.392871 
L 273.794363 176.392871 
L 273.794363 175.594455 
L 273.951335 175.594455 
L 273.951335 174.79604 
L 274.122559 174.79604 
L 274.221954 171.602376 
L 274.39849 171.602376 
L 274.39849 170.80396 
L 274.53205 170.80396 
L 274.53205 170.005545 
L 274.685031 170.005545 
L 274.729838 168.408713 
L 274.799337 168.408713 
L 274.851832 166.811881 
L 274.962367 166.811881 
L 275.00544 164.416634 
L 275.151055 164.416634 
L 275.17579 162.819802 
L 275.582057 162.819802 
L 275.582057 162.021386 
L 275.944453 162.021386 
L 276.016219 159.626139 
L 276.164853 159.626139 
L 276.164853 158.827723 
L 276.788498 158.827723 
L 276.788498 158.029307 
L 276.972722 158.029307 
L 276.972722 157.230891 
L 277.158242 157.230891 
L 277.158242 156.432475 
L 277.574516 156.432475 
L 277.574516 155.634059 
L 278.684143 155.634059 
L 278.684143 154.835644 
L 279.14495 154.835644 
L 279.232217 153.238812 
L 279.659509 153.238812 
L 279.659509 152.440396 
L 279.94134 152.440396 
L 279.94134 151.64198 
L 280.148446 151.64198 
L 280.24828 150.045149 
L 280.302814 150.045149 
L 280.302814 149.246733 
L 280.509483 149.246733 
L 280.576282 147.649901 
L 280.897665 147.649901 
L 280.986077 146.053069 
L 281.168614 146.053069 
L 281.222608 144.456238 
L 281.489279 144.456238 
L 281.58023 142.06099 
L 281.621606 142.06099 
L 281.621606 141.262574 
L 281.930037 141.262574 
L 281.930037 140.464158 
L 282.283701 140.464158 
L 282.300267 138.867327 
L 282.647093 138.867327 
L 282.716754 137.270495 
L 282.854067 137.270495 
L 282.896965 135.673663 
L 283.145487 135.673663 
L 283.21636 134.076832 
L 283.30746 134.076832 
L 283.30746 133.278416 
L 283.442484 133.278416 
L 283.526369 130.883168 
L 283.766982 130.883168 
L 283.803456 129.286337 
L 284.253987 129.286337 
L 284.253987 128.487921 
L 284.410217 128.487921 
L 284.505588 126.891089 
L 284.544546 126.891089 
L 284.587607 125.294257 
L 284.758985 125.294257 
L 284.758985 124.495842 
L 285.053386 124.495842 
L 285.053386 123.697426 
L 285.169193 123.697426 
L 285.169193 122.89901 
L 285.396591 122.89901 
L 285.442291 121.302178 
L 285.626627 121.302178 
L 285.673994 119.705347 
L 285.959461 119.705347 
L 285.959461 118.906931 
L 286.0727 118.906931 
L 286.182715 115.713267 
L 286.221432 115.713267 
L 286.327865 114.116436 
L 286.670631 114.116436 
L 286.748558 112.519604 
L 286.794336 112.519604 
L 286.794336 111.721188 
L 287.192321 111.721188 
L 287.192321 110.922772 
L 287.882781 110.922772 
L 287.882781 110.124356 
L 288.167425 110.124356 
L 288.167425 109.325941 
L 288.344667 109.325941 
L 288.344667 108.527525 
L 290.595198 108.527525 
L 290.595198 107.729109 
L 290.950038 107.729109 
L 290.950038 106.930693 
L 291.572387 106.930693 
L 291.572387 106.132277 
L 291.911857 106.132277 
L 291.911857 105.333861 
L 292.603442 105.333861 
L 292.603442 104.535446 
L 293.8542 104.535446 
L 293.950738 102.938614 
L 294.877187 102.938614 
L 294.920997 101.341782 
L 295.493311 101.341782 
L 295.493311 100.543366 
L 295.769249 100.543366 
L 295.873896 98.946535 
L 296.038521 98.946535 
L 296.038521 98.148119 
L 296.51746 98.148119 
L 296.590215 96.551287 
L 296.775409 96.551287 
L 296.775409 95.752871 
L 296.89462 95.752871 
L 296.89462 94.954455 
L 297.091294 94.954455 
L 297.108105 93.357624 
L 298.125079 93.357624 
L 298.125079 92.559208 
L 299.240801 92.559208 
L 299.240801 91.760792 
L 299.542892 91.760792 
L 299.542892 90.962376 
L 301.188076 90.962376 
L 301.188076 90.16396 
L 301.736927 90.16396 
L 301.736927 89.365545 
L 302.955618 89.365545 
L 302.955618 88.567129 
L 303.403219 88.567129 
L 303.403219 87.768713 
L 303.567906 87.768713 
L 303.567906 86.970297 
L 304.039049 86.970297 
L 304.141551 85.373465 
L 307.87233 85.373465 
L 307.87233 84.57505 
L 308.200649 84.57505 
L 308.200649 83.776634 
L 308.39448 83.776634 
L 308.39448 82.978218 
L 308.607904 82.978218 
L 308.607904 82.179802 
L 310.744927 82.179802 
L 310.744927 81.381386 
L 313.070216 81.381386 
L 313.070216 80.58297 
L 313.605616 80.58297 
L 313.605616 79.784554 
L 314.418165 79.784554 
L 314.418165 78.986139 
L 314.589268 78.986139 
L 314.589268 78.187723 
L 314.703458 78.187723 
L 314.703458 77.389307 
L 315.066935 77.389307 
L 315.066935 76.590891 
L 317.23365 76.590891 
L 317.23365 75.792475 
L 317.750801 75.792475 
L 317.750801 74.994059 
L 318.588074 74.994059 
L 318.588074 74.195644 
L 319.035967 74.195644 
L 319.035967 73.397228 
L 320.877206 73.397228 
L 320.877206 72.598812 
L 321.245855 72.598812 
L 321.245855 71.800396 
L 321.580645 71.800396 
L 321.580645 71.00198 
L 322.955904 71.00198 
L 323.053012 69.405149 
L 323.10182 69.405149 
L 323.10182 68.606733 
L 326.169957 68.606733 
L 326.169957 67.808317 
L 327.216362 67.808317 
L 327.216362 67.009901 
L 327.609772 67.009901 
L 327.609772 66.211485 
L 328.999305 66.211485 
L 328.999305 65.413069 
L 329.541332 65.413069 
L 329.541332 64.614653 
L 330.334532 64.614653 
L 330.334532 63.816238 
L 330.599569 63.816238 
L 330.599569 63.017822 
L 332.192491 63.017822 
L 332.192491 62.219406 
L 332.418839 62.219406 
L 332.418839 61.42099 
L 332.761941 61.42099 
L 332.761941 60.622574 
L 334.588487 60.622574 
L 334.588487 59.824158 
L 335.878386 59.824158 
L 335.878386 59.025743 
L 337.434976 59.025743 
L 337.476668 57.428911 
L 338.183937 57.428911 
L 338.183937 56.630495 
L 343.124238 56.630495 
L 343.124238 55.832079 
L 343.738162 55.832079 
L 343.738162 55.033663 
L 344.056999 55.033663 
L 344.056999 54.235248 
L 344.586868 54.235248 
L 344.586868 53.436832 
L 344.924139 53.436832 
L 344.924139 52.638416 
L 345.603677 52.638416 
L 345.603677 51.84 
L 350.654902 51.84 
L 350.654902 51.041584 
L 353.201156 51.041584 
L 353.201156 50.243168 
L 353.699039 50.243168 
L 353.699039 49.444752 
L 356.047912 49.444752 
L 356.047912 48.646337 
L 356.220803 48.646337 
L 356.220803 47.847921 
L 356.671617 47.847921 
L 356.671617 47.049505 
L 357.578305 47.049505 
L 357.578305 46.251089 
L 359.805742 46.251089 
L 359.805742 45.452673 
L 360.870544 45.452673 
L 360.870544 44.654257 
L 362.117255 44.654257 
L 362.117255 43.855842 
L 364.151804 43.855842 
L 364.151804 43.057426 
L 364.929336 43.057426 
L 364.929336 42.25901 
L 366.235909 42.25901 
L 366.235909 41.460594 
L 368.607645 41.460594 
L 368.607645 40.662178 
L 369.575082 40.662178 
L 369.575082 39.863762 
L 369.960866 39.863762 
L 370.012037 38.266931 
L 371.612629 38.266931 
L 371.612629 37.468515 
L 372.423352 37.468515 
L 372.423352 36.670099 
L 373.333645 36.670099 
L 373.333645 35.871683 
L 373.735776 35.871683 
L 373.735776 35.073267 
L 374.244658 35.073267 
L 374.244658 34.274851 
L 375.63838 34.274851 
L 375.739523 31.081188 
L 376.348561 31.081188 
L 376.348561 30.282772 
L 377.262765 30.282772 
L 377.262765 29.484356 
L 377.964322 29.484356 
L 377.964322 28.685941 
L 378.949152 28.685941 
L 378.949152 27.887525 
L 380.368171 27.887525 
L 380.368171 27.089109 
L 380.808947 27.089109 
L 380.808947 26.290693 
L 381.127142 26.290693 
L 381.234003 24.693861 
L 381.332839 24.693861 
L 381.332839 23.895446 
L 381.52128 23.895446 
L 381.553879 22.298614 
L 382.659351 22.298614 
L 382.659351 21.500198 
L 384.688896 21.500198 
L 384.688896 20.701782 
L 385.101534 20.701782 
L 385.101534 19.903366 
L 389.266036 19.903366 
L 389.266036 19.10495 
L 392.11616 19.10495 
L 392.11616 18.306535 
L 417.542673 18.306535 
L 417.542673 17.508119 
L 420.11023 17.508119 
L 420.11023 16.709703 
L 420.929196 16.709703 
L 420.929196 15.911287 
L 421.144302 15.911287 
L 421.144302 15.112871 
L 422.654507 15.112871 
L 422.654507 14.314455 
L 425.530836 14.314455 
L 425.530836 13.51604 
L 425.983263 13.51604 
L 425.983263 12.717624 
L 426.480836 12.717624 
L 426.480836 11.919208 
L 427.205361 11.919208 
L 427.205361 11.120792 
L 427.317766 11.120792 
L 427.317766 10.322376 
L 429.24095 10.322376 
L 429.24095 9.52396 
L 429.94218 9.52396 
L 429.94218 8.725545 
L 432.076708 8.725545 
L 432.076708 7.927129 
L 432.84156 7.927129 
L 432.84156 7.128713 
L 434.193717 7.128713 
L 434.193717 6.330297 
L 434.193717 6.330297 
L 460.8 6.330297 
L 460.8 6.330297 
" style="fill:none;stroke:#bf00bf;stroke-linecap:square;stroke-width:1.5;"/>
   </g>
   <g id="patch_3">
    <path d="M 0 293.76 
L 0 3.456 
" style="fill:none;stroke:#000000;stroke-linecap:square;stroke-linejoin:miter;stroke-width:0.8;"/>
   </g>
   <g id="patch_4">
    <path d="M 460.8 293.76 
L 460.8 3.456 
" style="fill:none;stroke:#000000;stroke-linecap:square;stroke-linejoin:miter;stroke-width:0.8;"/>
   </g>
   <g id="patch_5">
    <path d="M 0 293.76 
L 460.8 293.76 
" style="fill:none;stroke:#000000;stroke-linecap:square;stroke-linejoin:miter;stroke-width:0.8;"/>
   </g>
   <g id="patch_6">
    <path d="M 0 3.456 
L 460.8 3.456 
" style="fill:none;stroke:#000000;stroke-linecap:square;stroke-linejoin:miter;stroke-width:0.8;"/>
   </g>
   <g id="text_6">
    <!-- {f1-f24}, 20-D -->
    <defs>
     <path d="M 51.125 -9.28125 
L 51.125 -16.3125 
L 48.09375 -16.3125 
Q 35.9375 -16.3125 31.8125 -12.6875 
Q 27.6875 -9.078125 27.6875 1.703125 
L 27.6875 13.375 
Q 27.6875 20.75 25.046875 23.578125 
Q 22.40625 26.421875 15.484375 26.421875 
L 12.5 26.421875 
L 12.5 33.40625 
L 15.484375 33.40625 
Q 22.46875 33.40625 25.078125 36.203125 
Q 27.6875 39.015625 27.6875 46.296875 
L 27.6875 58.015625 
Q 27.6875 68.796875 31.8125 72.390625 
Q 35.9375 75.984375 48.09375 75.984375 
L 51.125 75.984375 
L 51.125 69 
L 47.796875 69 
Q 40.921875 69 38.8125 66.84375 
Q 36.71875 64.703125 36.71875 57.8125 
L 36.71875 45.703125 
Q 36.71875 38.03125 34.5 34.5625 
Q 32.28125 31.109375 26.90625 29.890625 
Q 32.328125 28.5625 34.515625 25.09375 
Q 36.71875 21.625 36.71875 14.015625 
L 36.71875 1.90625 
Q 36.71875 -4.984375 38.8125 -7.125 
Q 40.921875 -9.28125 47.796875 -9.28125 
z
" id="DejaVuSans-123"/>
     <path d="M 19.1875 8.296875 
L 53.609375 8.296875 
L 53.609375 0 
L 7.328125 0 
L 7.328125 8.296875 
Q 12.9375 14.109375 22.625 23.890625 
Q 32.328125 33.6875 34.8125 36.53125 
Q 39.546875 41.84375 41.421875 45.53125 
Q 43.3125 49.21875 43.3125 52.78125 
Q 43.3125 58.59375 39.234375 62.25 
Q 35.15625 65.921875 28.609375 65.921875 
Q 23.96875 65.921875 18.8125 64.3125 
Q 13.671875 62.703125 7.8125 59.421875 
L 7.8125 69.390625 
Q 13.765625 71.78125 18.9375 73 
Q 24.125 74.21875 28.421875 74.21875 
Q 39.75 74.21875 46.484375 68.546875 
Q 53.21875 62.890625 53.21875 53.421875 
Q 53.21875 48.921875 51.53125 44.890625 
Q 49.859375 40.875 45.40625 35.40625 
Q 44.1875 33.984375 37.640625 27.21875 
Q 31.109375 20.453125 19.1875 8.296875 
z
" id="DejaVuSans-50"/>
     <path d="M 12.5 -9.28125 
L 15.921875 -9.28125 
Q 22.75 -9.28125 24.828125 -7.171875 
Q 26.90625 -5.078125 26.90625 1.90625 
L 26.90625 14.015625 
Q 26.90625 21.625 29.09375 25.09375 
Q 31.296875 28.5625 36.71875 29.890625 
Q 31.296875 31.109375 29.09375 34.5625 
Q 26.90625 38.03125 26.90625 45.703125 
L 26.90625 57.8125 
Q 26.90625 64.75 24.828125 66.875 
Q 22.75 69 15.921875 69 
L 12.5 69 
L 12.5 75.984375 
L 15.578125 75.984375 
Q 27.734375 75.984375 31.8125 72.390625 
Q 35.890625 68.796875 35.890625 58.015625 
L 35.890625 46.296875 
Q 35.890625 39.015625 38.515625 36.203125 
Q 41.15625 33.40625 48.09375 33.40625 
L 51.125 33.40625 
L 51.125 26.421875 
L 48.09375 26.421875 
Q 41.15625 26.421875 38.515625 23.578125 
Q 35.890625 20.75 35.890625 13.375 
L 35.890625 1.703125 
Q 35.890625 -9.078125 31.8125 -12.6875 
Q 27.734375 -16.3125 15.578125 -16.3125 
L 12.5 -16.3125 
z
" id="DejaVuSans-125"/>
     <path d="M 11.71875 12.40625 
L 22.015625 12.40625 
L 22.015625 4 
L 14.015625 -11.625 
L 7.71875 -11.625 
L 11.71875 4 
z
" id="DejaVuSans-44"/>
    </defs>
    <g transform="translate(305.884 287.95392)scale(0.2 -0.2)">
     <use xlink:href="#DejaVuSans-123"/>
     <use x="63.623047" xlink:href="#DejaVuSans-102"/>
     <use x="98.828125" xlink:href="#DejaVuSans-49"/>
     <use x="162.451172" xlink:href="#DejaVuSans-45"/>
     <use x="198.535156" xlink:href="#DejaVuSans-102"/>
     <use x="233.740234" xlink:href="#DejaVuSans-50"/>
     <use x="297.363281" xlink:href="#DejaVuSans-52"/>
     <use x="360.986328" xlink:href="#DejaVuSans-125"/>
     <use x="424.609375" xlink:href="#DejaVuSans-44"/>
     <use x="456.396484" xlink:href="#DejaVuSans-32"/>
     <use x="488.183594" xlink:href="#DejaVuSans-50"/>
     <use x="551.806641" xlink:href="#DejaVuSans-48"/>
     <use x="615.429688" xlink:href="#DejaVuSans-45"/>
     <use x="651.513672" xlink:href="#DejaVuSans-68"/>
    </g>
   </g>
   <g id="text_7">
    <!-- v2.4 -->
    <defs>
     <path d="M 2.984375 54.6875 
L 12.5 54.6875 
L 29.59375 8.796875 
L 46.6875 54.6875 
L 56.203125 54.6875 
L 35.6875 0 
L 23.484375 0 
z
" id="DejaVuSans-118"/>
     <path d="M 10.6875 12.40625 
L 21 12.40625 
L 21 0 
L 10.6875 0 
z
" id="DejaVuSans-46"/>
    </defs>
    <g style="fill:#808080;" transform="translate(219.489063 288.777272)scale(0.1 -0.1)">
     <use xlink:href="#DejaVuSans-118"/>
     <use x="59.179688" xlink:href="#DejaVuSans-50"/>
     <use x="122.802734" xlink:href="#DejaVuSans-46"/>
     <use x="154.589844" xlink:href="#DejaVuSans-52"/>
    </g>
   </g>
  </g>
 </g>
 <defs>
  <clipPath id="pba019e677d">
   <rect height="290.304" width="460.8" x="0" y="3.456"/>
  </clipPath>
 </defs>
</svg>
