<?xml version="1.0" encoding="utf-8" standalone="no"?>
<!DOCTYPE svg PUBLIC "-//W3C//DTD SVG 1.1//EN"
  "http://www.w3.org/Graphics/SVG/1.1/DTD/svg11.dtd">
<!-- Created with matplotlib (https://matplotlib.org/) -->
<svg height="345.6pt" version="1.1" viewBox="0 0 460.8 345.6" width="460.8pt" xmlns="http://www.w3.org/2000/svg" xmlns:xlink="http://www.w3.org/1999/xlink">
 <defs>
  <style type="text/css">
*{stroke-linecap:butt;stroke-linejoin:round;}
  </style>
 </defs>
 <g id="figure_1">
  <g id="patch_1">
   <path d="M 0 345.6 
L 460.8 345.6 
L 460.8 0 
L 0 0 
z
" style="fill:#ffffff;"/>
  </g>
  <g id="axes_1">
   <g id="patch_2">
    <path d="M 0 293.76 
L 460.8 293.76 
L 460.8 3.456 
L 0 3.456 
z
" style="fill:#ffffff;"/>
   </g>
   <g id="matplotlib.axis_1">
    <g id="xtick_1">
     <g id="line2d_1">
      <path clip-path="url(#pcbdc92a93f)" d="M 107.893076 293.76 
L 107.893076 3.456 
" style="fill:none;stroke:#b0b0b0;stroke-linecap:square;stroke-width:0.8;"/>
     </g>
     <g id="line2d_2">
      <defs>
       <path d="M 0 0 
L 0 3.5 
" id="m8904a95d37" style="stroke:#000000;stroke-width:0.8;"/>
      </defs>
      <g>
       <use style="stroke:#000000;stroke-width:0.8;" x="107.893076" xlink:href="#m8904a95d37" y="293.76"/>
      </g>
     </g>
     <g id="text_1">
      <!-- -4 -->
      <defs>
       <path d="M 4.890625 31.390625 
L 31.203125 31.390625 
L 31.203125 23.390625 
L 4.890625 23.390625 
z
" id="DejaVuSans-45"/>
       <path d="M 37.796875 64.3125 
L 12.890625 25.390625 
L 37.796875 25.390625 
z
M 35.203125 72.90625 
L 47.609375 72.90625 
L 47.609375 25.390625 
L 58.015625 25.390625 
L 58.015625 17.1875 
L 47.609375 17.1875 
L 47.609375 0 
L 37.796875 0 
L 37.796875 17.1875 
L 4.890625 17.1875 
L 4.890625 26.703125 
z
" id="DejaVuSans-52"/>
      </defs>
      <g transform="translate(97.922764 315.956875)scale(0.2 -0.2)">
       <use xlink:href="#DejaVuSans-45"/>
       <use x="36.083984" xlink:href="#DejaVuSans-52"/>
      </g>
     </g>
    </g>
    <g id="xtick_2">
     <g id="line2d_3">
      <path clip-path="url(#pcbdc92a93f)" d="M 215.90284 293.76 
L 215.90284 3.456 
" style="fill:none;stroke:#b0b0b0;stroke-linecap:square;stroke-width:0.8;"/>
     </g>
     <g id="line2d_4">
      <g>
       <use style="stroke:#000000;stroke-width:0.8;" x="215.90284" xlink:href="#m8904a95d37" y="293.76"/>
      </g>
     </g>
     <g id="text_2">
      <!-- 0 -->
      <defs>
       <path d="M 31.78125 66.40625 
Q 24.171875 66.40625 20.328125 58.90625 
Q 16.5 51.421875 16.5 36.375 
Q 16.5 21.390625 20.328125 13.890625 
Q 24.171875 6.390625 31.78125 6.390625 
Q 39.453125 6.390625 43.28125 13.890625 
Q 47.125 21.390625 47.125 36.375 
Q 47.125 51.421875 43.28125 58.90625 
Q 39.453125 66.40625 31.78125 66.40625 
z
M 31.78125 74.21875 
Q 44.046875 74.21875 50.515625 64.515625 
Q 56.984375 54.828125 56.984375 36.375 
Q 56.984375 17.96875 50.515625 8.265625 
Q 44.046875 -1.421875 31.78125 -1.421875 
Q 19.53125 -1.421875 13.0625 8.265625 
Q 6.59375 17.96875 6.59375 36.375 
Q 6.59375 54.828125 13.0625 64.515625 
Q 19.53125 74.21875 31.78125 74.21875 
z
" id="DejaVuSans-48"/>
      </defs>
      <g transform="translate(209.54034 315.956875)scale(0.2 -0.2)">
       <use xlink:href="#DejaVuSans-48"/>
      </g>
     </g>
    </g>
    <g id="xtick_3">
     <g id="line2d_5">
      <path clip-path="url(#pcbdc92a93f)" d="M 323.912604 293.76 
L 323.912604 3.456 
" style="fill:none;stroke:#b0b0b0;stroke-linecap:square;stroke-width:0.8;"/>
     </g>
     <g id="line2d_6">
      <g>
       <use style="stroke:#000000;stroke-width:0.8;" x="323.912604" xlink:href="#m8904a95d37" y="293.76"/>
      </g>
     </g>
     <g id="text_3">
      <!-- 4 -->
      <g transform="translate(317.550104 315.956875)scale(0.2 -0.2)">
       <use xlink:href="#DejaVuSans-52"/>
      </g>
     </g>
    </g>
    <g id="xtick_4">
     <g id="line2d_7">
      <path clip-path="url(#pcbdc92a93f)" d="M 431.922368 293.76 
L 431.922368 3.456 
" style="fill:none;stroke:#b0b0b0;stroke-linecap:square;stroke-width:0.8;"/>
     </g>
     <g id="line2d_8">
      <g>
       <use style="stroke:#000000;stroke-width:0.8;" x="431.922368" xlink:href="#m8904a95d37" y="293.76"/>
      </g>
     </g>
     <g id="text_4">
      <!-- 8 -->
      <defs>
       <path d="M 31.78125 34.625 
Q 24.75 34.625 20.71875 30.859375 
Q 16.703125 27.09375 16.703125 20.515625 
Q 16.703125 13.921875 20.71875 10.15625 
Q 24.75 6.390625 31.78125 6.390625 
Q 38.8125 6.390625 42.859375 10.171875 
Q 46.921875 13.96875 46.921875 20.515625 
Q 46.921875 27.09375 42.890625 30.859375 
Q 38.875 34.625 31.78125 34.625 
z
M 21.921875 38.8125 
Q 15.578125 40.375 12.03125 44.71875 
Q 8.5 49.078125 8.5 55.328125 
Q 8.5 64.0625 14.71875 69.140625 
Q 20.953125 74.21875 31.78125 74.21875 
Q 42.671875 74.21875 48.875 69.140625 
Q 55.078125 64.0625 55.078125 55.328125 
Q 55.078125 49.078125 51.53125 44.71875 
Q 48 40.375 41.703125 38.8125 
Q 48.828125 37.15625 52.796875 32.3125 
Q 56.78125 27.484375 56.78125 20.515625 
Q 56.78125 9.90625 50.3125 4.234375 
Q 43.84375 -1.421875 31.78125 -1.421875 
Q 19.734375 -1.421875 13.25 4.234375 
Q 6.78125 9.90625 6.78125 20.515625 
Q 6.78125 27.484375 10.78125 32.3125 
Q 14.796875 37.15625 21.921875 38.8125 
z
M 18.3125 54.390625 
Q 18.3125 48.734375 21.84375 45.5625 
Q 25.390625 42.390625 31.78125 42.390625 
Q 38.140625 42.390625 41.71875 45.5625 
Q 45.3125 48.734375 45.3125 54.390625 
Q 45.3125 60.0625 41.71875 63.234375 
Q 38.140625 66.40625 31.78125 66.40625 
Q 25.390625 66.40625 21.84375 63.234375 
Q 18.3125 60.0625 18.3125 54.390625 
z
" id="DejaVuSans-56"/>
      </defs>
      <g transform="translate(425.559868 315.956875)scale(0.2 -0.2)">
       <use xlink:href="#DejaVuSans-56"/>
      </g>
     </g>
    </g>
    <g id="text_5">
     <!-- log10 of Df -->
     <defs>
      <path d="M 9.421875 75.984375 
L 18.40625 75.984375 
L 18.40625 0 
L 9.421875 0 
z
" id="DejaVuSans-108"/>
      <path d="M 30.609375 48.390625 
Q 23.390625 48.390625 19.1875 42.75 
Q 14.984375 37.109375 14.984375 27.296875 
Q 14.984375 17.484375 19.15625 11.84375 
Q 23.34375 6.203125 30.609375 6.203125 
Q 37.796875 6.203125 41.984375 11.859375 
Q 46.1875 17.53125 46.1875 27.296875 
Q 46.1875 37.015625 41.984375 42.703125 
Q 37.796875 48.390625 30.609375 48.390625 
z
M 30.609375 56 
Q 42.328125 56 49.015625 48.375 
Q 55.71875 40.765625 55.71875 27.296875 
Q 55.71875 13.875 49.015625 6.21875 
Q 42.328125 -1.421875 30.609375 -1.421875 
Q 18.84375 -1.421875 12.171875 6.21875 
Q 5.515625 13.875 5.515625 27.296875 
Q 5.515625 40.765625 12.171875 48.375 
Q 18.84375 56 30.609375 56 
z
" id="DejaVuSans-111"/>
      <path d="M 45.40625 27.984375 
Q 45.40625 37.75 41.375 43.109375 
Q 37.359375 48.484375 30.078125 48.484375 
Q 22.859375 48.484375 18.828125 43.109375 
Q 14.796875 37.75 14.796875 27.984375 
Q 14.796875 18.265625 18.828125 12.890625 
Q 22.859375 7.515625 30.078125 7.515625 
Q 37.359375 7.515625 41.375 12.890625 
Q 45.40625 18.265625 45.40625 27.984375 
z
M 54.390625 6.78125 
Q 54.390625 -7.171875 48.1875 -13.984375 
Q 42 -20.796875 29.203125 -20.796875 
Q 24.46875 -20.796875 20.265625 -20.09375 
Q 16.0625 -19.390625 12.109375 -17.921875 
L 12.109375 -9.1875 
Q 16.0625 -11.328125 19.921875 -12.34375 
Q 23.78125 -13.375 27.78125 -13.375 
Q 36.625 -13.375 41.015625 -8.765625 
Q 45.40625 -4.15625 45.40625 5.171875 
L 45.40625 9.625 
Q 42.625 4.78125 38.28125 2.390625 
Q 33.9375 0 27.875 0 
Q 17.828125 0 11.671875 7.65625 
Q 5.515625 15.328125 5.515625 27.984375 
Q 5.515625 40.671875 11.671875 48.328125 
Q 17.828125 56 27.875 56 
Q 33.9375 56 38.28125 53.609375 
Q 42.625 51.21875 45.40625 46.390625 
L 45.40625 54.6875 
L 54.390625 54.6875 
z
" id="DejaVuSans-103"/>
      <path d="M 12.40625 8.296875 
L 28.515625 8.296875 
L 28.515625 63.921875 
L 10.984375 60.40625 
L 10.984375 69.390625 
L 28.421875 72.90625 
L 38.28125 72.90625 
L 38.28125 8.296875 
L 54.390625 8.296875 
L 54.390625 0 
L 12.40625 0 
z
" id="DejaVuSans-49"/>
      <path id="DejaVuSans-32"/>
      <path d="M 37.109375 75.984375 
L 37.109375 68.5 
L 28.515625 68.5 
Q 23.6875 68.5 21.796875 66.546875 
Q 19.921875 64.59375 19.921875 59.515625 
L 19.921875 54.6875 
L 34.71875 54.6875 
L 34.71875 47.703125 
L 19.921875 47.703125 
L 19.921875 0 
L 10.890625 0 
L 10.890625 47.703125 
L 2.296875 47.703125 
L 2.296875 54.6875 
L 10.890625 54.6875 
L 10.890625 58.5 
Q 10.890625 67.625 15.140625 71.796875 
Q 19.390625 75.984375 28.609375 75.984375 
z
" id="DejaVuSans-102"/>
      <path d="M 19.671875 64.796875 
L 19.671875 8.109375 
L 31.59375 8.109375 
Q 46.6875 8.109375 53.6875 14.9375 
Q 60.6875 21.78125 60.6875 36.53125 
Q 60.6875 51.171875 53.6875 57.984375 
Q 46.6875 64.796875 31.59375 64.796875 
z
M 9.8125 72.90625 
L 30.078125 72.90625 
Q 51.265625 72.90625 61.171875 64.09375 
Q 71.09375 55.28125 71.09375 36.53125 
Q 71.09375 17.671875 61.125 8.828125 
Q 51.171875 0 30.078125 0 
L 9.8125 0 
z
" id="DejaVuSans-68"/>
     </defs>
     <g transform="translate(175.214063 339.313125)scale(0.2 -0.2)">
      <use xlink:href="#DejaVuSans-108"/>
      <use x="27.783203" xlink:href="#DejaVuSans-111"/>
      <use x="88.964844" xlink:href="#DejaVuSans-103"/>
      <use x="152.441406" xlink:href="#DejaVuSans-49"/>
      <use x="216.064453" xlink:href="#DejaVuSans-48"/>
      <use x="279.6875" xlink:href="#DejaVuSans-32"/>
      <use x="311.474609" xlink:href="#DejaVuSans-111"/>
      <use x="372.65625" xlink:href="#DejaVuSans-102"/>
      <use x="407.861328" xlink:href="#DejaVuSans-32"/>
      <use x="439.648438" xlink:href="#DejaVuSans-68"/>
      <use x="516.650391" xlink:href="#DejaVuSans-102"/>
     </g>
    </g>
   </g>
   <g id="matplotlib.axis_2">
    <g id="ytick_1">
     <g id="line2d_9">
      <path clip-path="url(#pcbdc92a93f)" d="M 0 293.76 
L 460.8 293.76 
" style="fill:none;stroke:#b0b0b0;stroke-linecap:square;stroke-width:0.8;"/>
     </g>
     <g id="line2d_10">
      <defs>
       <path d="M 0 0 
L -3.5 0 
" id="m7cf1fdf4a7" style="stroke:#000000;stroke-width:0.8;"/>
      </defs>
      <g>
       <use style="stroke:#000000;stroke-width:0.8;" x="0" xlink:href="#m7cf1fdf4a7" y="293.76"/>
      </g>
     </g>
    </g>
    <g id="ytick_2">
     <g id="line2d_11">
      <path clip-path="url(#pcbdc92a93f)" d="M 0 236.274059 
L 460.8 236.274059 
" style="fill:none;stroke:#b0b0b0;stroke-linecap:square;stroke-width:0.8;"/>
     </g>
     <g id="line2d_12">
      <g>
       <use style="stroke:#000000;stroke-width:0.8;" x="0" xlink:href="#m7cf1fdf4a7" y="236.274059"/>
      </g>
     </g>
    </g>
    <g id="ytick_3">
     <g id="line2d_13">
      <path clip-path="url(#pcbdc92a93f)" d="M 0 178.788119 
L 460.8 178.788119 
" style="fill:none;stroke:#b0b0b0;stroke-linecap:square;stroke-width:0.8;"/>
     </g>
     <g id="line2d_14">
      <g>
       <use style="stroke:#000000;stroke-width:0.8;" x="0" xlink:href="#m7cf1fdf4a7" y="178.788119"/>
      </g>
     </g>
    </g>
    <g id="ytick_4">
     <g id="line2d_15">
      <path clip-path="url(#pcbdc92a93f)" d="M 0 121.302178 
L 460.8 121.302178 
" style="fill:none;stroke:#b0b0b0;stroke-linecap:square;stroke-width:0.8;"/>
     </g>
     <g id="line2d_16">
      <g>
       <use style="stroke:#000000;stroke-width:0.8;" x="0" xlink:href="#m7cf1fdf4a7" y="121.302178"/>
      </g>
     </g>
    </g>
    <g id="ytick_5">
     <g id="line2d_17">
      <path clip-path="url(#pcbdc92a93f)" d="M 0 63.816238 
L 460.8 63.816238 
" style="fill:none;stroke:#b0b0b0;stroke-linecap:square;stroke-width:0.8;"/>
     </g>
     <g id="line2d_18">
      <g>
       <use style="stroke:#000000;stroke-width:0.8;" x="0" xlink:href="#m7cf1fdf4a7" y="63.816238"/>
      </g>
     </g>
    </g>
    <g id="ytick_6">
     <g id="line2d_19">
      <path clip-path="url(#pcbdc92a93f)" d="M 0 6.330297 
L 460.8 6.330297 
" style="fill:none;stroke:#b0b0b0;stroke-linecap:square;stroke-width:0.8;"/>
     </g>
     <g id="line2d_20">
      <g>
       <use style="stroke:#000000;stroke-width:0.8;" x="0" xlink:href="#m7cf1fdf4a7" y="6.330297"/>
      </g>
     </g>
    </g>
   </g>
   <g id="line2d_21">
    <path clip-path="url(#pcbdc92a93f)" d="M 216.709053 293.76 
L 216.709053 289.927604 
L 219.70131 289.927604 
L 219.70131 286.095208 
L 223.45286 286.095208 
L 223.45286 282.262812 
L 224.111663 282.262812 
L 224.199398 274.59802 
L 224.609007 274.59802 
L 224.609007 270.765624 
L 225.372827 270.765624 
L 225.372827 266.933228 
L 225.511322 266.933228 
L 225.511322 263.100832 
L 225.804775 263.100832 
L 225.804775 259.268436 
L 226.388644 259.268436 
L 226.405969 251.603644 
L 227.617861 251.603644 
L 227.664387 243.938851 
L 228.559295 243.938851 
L 228.559295 240.106455 
L 228.936302 240.106455 
L 228.956442 232.441663 
L 229.747319 232.441663 
L 229.747319 228.609267 
L 229.971314 228.609267 
L 229.971314 224.776871 
L 230.193346 224.776871 
L 230.193346 220.944475 
L 230.616647 220.944475 
L 230.616647 217.112079 
L 230.799264 217.112079 
L 230.799264 213.279683 
L 231.297664 213.279683 
L 231.297664 209.447287 
L 232.125051 209.447287 
L 232.125051 205.614891 
L 232.826377 205.614891 
L 232.826377 201.782495 
L 233.417465 201.782495 
L 233.417465 197.950099 
L 233.704755 197.950099 
L 233.704755 194.117703 
L 234.173457 194.117703 
L 234.173457 190.285307 
L 234.374912 190.285307 
L 234.374912 186.452911 
L 235.55111 186.452911 
L 235.55111 182.620515 
L 236.457284 182.620515 
L 236.457284 178.788119 
L 237.002106 178.788119 
L 237.002106 174.955723 
L 239.40646 174.955723 
L 239.40646 171.123327 
L 241.587263 171.123327 
L 241.615921 163.458535 
L 241.731012 163.458535 
L 241.731012 159.626139 
L 242.293428 159.626139 
L 242.293428 155.793743 
L 244.221692 155.793743 
L 244.221692 151.961347 
L 244.685761 151.961347 
L 244.685761 148.12895 
L 245.404496 148.12895 
L 245.404496 144.296554 
L 246.803405 144.296554 
L 246.803405 140.464158 
L 248.977326 140.464158 
L 249.088271 128.96697 
L 249.620239 128.96697 
L 249.620239 125.134574 
L 250.985188 125.134574 
L 250.985188 121.302178 
L 251.116921 121.302178 
L 251.116921 117.469782 
L 251.515602 117.469782 
L 251.515602 113.637386 
L 251.753197 113.637386 
L 251.753197 109.80499 
L 253.545165 109.80499 
L 253.545165 105.972594 
L 254.078326 105.972594 
L 254.078326 102.140198 
L 254.23947 102.140198 
L 254.23947 98.307802 
L 254.40512 98.307802 
L 254.413709 90.64301 
L 255.394784 90.64301 
L 255.394784 86.810614 
L 256.995052 86.810614 
L 256.995052 82.978218 
L 257.546795 82.978218 
L 257.546795 79.145822 
L 259.462738 79.145822 
L 259.462738 75.313426 
L 260.252361 75.313426 
L 260.252361 71.48103 
L 260.60074 71.48103 
L 260.60074 67.648634 
L 260.837087 67.648634 
L 260.837087 63.816238 
L 261.111366 63.816238 
L 261.158269 56.151446 
L 261.523506 56.151446 
L 261.523506 52.31905 
L 261.647652 52.31905 
L 261.647652 48.486653 
L 262.835124 48.486653 
L 262.835124 44.654257 
L 263.999691 44.654257 
L 263.999691 40.821861 
L 273.00151 40.821861 
L 273.00151 36.989465 
L 273.21686 36.989465 
L 273.21686 33.157069 
L 281.291272 33.157069 
L 281.291272 29.324673 
L 283.668842 29.324673 
L 283.668842 25.492277 
L 288.869936 25.492277 
L 288.869936 21.659881 
L 289.609246 21.659881 
L 289.609246 17.827485 
L 293.615101 17.827485 
L 293.615101 13.995089 
L 299.006816 13.995089 
L 299.006816 10.162693 
L 300.64161 10.162693 
L 300.64161 6.330297 
L 300.64161 6.330297 
L 460.8 6.330297 
L 460.8 6.330297 
" style="fill:none;stroke:#ff0000;stroke-linecap:square;stroke-width:3;"/>
   </g>
   <g id="line2d_22">
    <path clip-path="url(#pcbdc92a93f)" d="M 225.967247 293.76 
L 225.967247 289.927604 
L 228.968906 289.927604 
L 228.968906 286.095208 
L 240.548007 286.095208 
L 240.559965 278.430416 
L 241.024732 278.430416 
L 241.024732 274.59802 
L 241.159422 274.59802 
L 241.159422 270.765624 
L 242.322547 270.765624 
L 242.322547 266.933228 
L 243.115357 266.933228 
L 243.115357 263.100832 
L 243.596771 263.100832 
L 243.596771 259.268436 
L 248.742506 259.268436 
L 248.762981 251.603644 
L 249.609349 251.603644 
L 249.609349 247.771248 
L 249.861424 247.771248 
L 249.861424 243.938851 
L 250.729349 243.938851 
L 250.729349 240.106455 
L 252.038802 240.106455 
L 252.038802 236.274059 
L 252.189781 236.274059 
L 252.189781 232.441663 
L 253.131073 232.441663 
L 253.131073 228.609267 
L 254.840722 228.609267 
L 254.840722 224.776871 
L 255.281393 224.776871 
L 255.281393 220.944475 
L 255.672448 220.944475 
L 255.71796 213.279683 
L 258.932307 213.279683 
L 258.932307 209.447287 
L 260.779214 209.447287 
L 260.779214 205.614891 
L 262.26145 205.614891 
L 262.274539 197.950099 
L 263.125148 197.950099 
L 263.125148 194.117703 
L 263.30589 194.117703 
L 263.30589 190.285307 
L 263.940466 190.285307 
L 263.962864 182.620515 
L 264.101629 182.620515 
L 264.101629 178.788119 
L 264.36029 178.788119 
L 264.36029 174.955723 
L 264.618648 174.955723 
L 264.664542 167.290931 
L 264.785012 167.290931 
L 264.785012 163.458535 
L 264.923377 163.458535 
L 265.028225 151.961347 
L 265.113241 151.961347 
L 265.117341 144.296554 
L 265.277435 144.296554 
L 265.277435 140.464158 
L 265.666081 140.464158 
L 265.769601 128.96697 
L 265.820769 128.96697 
L 265.920137 121.302178 
L 265.981502 121.302178 
L 266.087006 113.637386 
L 266.451826 113.637386 
L 266.531901 105.972594 
L 266.578574 105.972594 
L 266.604514 98.307802 
L 266.849732 98.307802 
L 266.927082 90.64301 
L 267.324714 90.64301 
L 267.324714 86.810614 
L 267.565281 86.810614 
L 267.565281 82.978218 
L 267.876646 82.978218 
L 267.876646 79.145822 
L 269.797041 79.145822 
L 269.797041 75.313426 
L 270.697973 75.313426 
L 270.697973 71.48103 
L 270.874232 71.48103 
L 270.874232 67.648634 
L 271.134521 67.648634 
L 271.134521 63.816238 
L 274.207475 63.816238 
L 274.207475 59.983842 
L 306.382117 59.983842 
L 306.382117 56.151446 
L 306.894615 56.151446 
L 306.894615 52.31905 
L 307.866489 52.31905 
L 307.866489 48.486653 
L 313.610142 48.486653 
L 313.610142 44.654257 
L 314.677362 44.654257 
L 314.677362 40.821861 
L 314.847547 40.821861 
L 314.847547 36.989465 
L 316.993764 36.989465 
L 316.993764 33.157069 
L 321.265891 33.157069 
L 321.265891 29.324673 
L 324.772679 29.324673 
L 324.772679 25.492277 
L 326.110486 25.492277 
L 326.110486 21.659881 
L 328.904467 21.659881 
L 328.904467 17.827485 
L 331.342845 17.827485 
L 331.342845 13.995089 
L 333.949906 13.995089 
L 333.949906 10.162693 
L 341.500229 10.162693 
L 341.500229 6.330297 
L 341.500229 6.330297 
L 460.8 6.330297 
L 460.8 6.330297 
" style="fill:none;stroke:#00bfbf;stroke-linecap:square;stroke-width:1.5;"/>
   </g>
   <g id="line2d_23">
    <path clip-path="url(#pcbdc92a93f)" d="M 223.45286 293.76 
L 223.45286 289.927604 
L 224.199398 289.927604 
L 224.199398 286.095208 
L 225.967247 286.095208 
L 225.967247 282.262812 
L 228.968906 282.262812 
L 228.968906 278.430416 
L 231.413708 278.430416 
L 231.413708 274.59802 
L 232.14693 274.59802 
L 232.14693 270.765624 
L 233.704755 270.765624 
L 233.704755 266.933228 
L 238.227319 266.933228 
L 238.227319 263.100832 
L 238.455919 263.100832 
L 238.455919 259.268436 
L 240.548007 259.268436 
L 240.559965 251.603644 
L 240.79744 251.603644 
L 240.79744 247.771248 
L 242.322547 247.771248 
L 242.322547 243.938851 
L 243.115357 243.938851 
L 243.115357 240.106455 
L 243.596771 240.106455 
L 243.596771 236.274059 
L 245.897841 236.274059 
L 245.897841 232.441663 
L 248.444158 232.441663 
L 248.444158 228.609267 
L 249.609349 228.609267 
L 249.609349 224.776871 
L 249.77994 224.776871 
L 249.77994 220.944475 
L 250.729349 220.944475 
L 250.729349 217.112079 
L 252.630369 217.112079 
L 252.630369 213.279683 
L 253.248853 213.279683 
L 253.248853 209.447287 
L 253.748973 209.447287 
L 253.748973 205.614891 
L 254.468858 205.614891 
L 254.468858 201.782495 
L 255.281393 201.782495 
L 255.281393 197.950099 
L 255.543644 197.950099 
L 255.543644 194.117703 
L 256.187973 194.117703 
L 256.187973 190.285307 
L 257.691383 190.285307 
L 257.691383 186.452911 
L 258.052465 186.452911 
L 258.052465 182.620515 
L 259.746515 182.620515 
L 259.746515 178.788119 
L 259.905517 178.788119 
L 259.905517 174.955723 
L 260.079851 174.955723 
L 260.079851 171.123327 
L 260.516218 171.123327 
L 260.589162 163.458535 
L 260.779214 163.458535 
L 260.837087 151.961347 
L 261.020619 151.961347 
L 261.112146 144.296554 
L 261.708906 144.296554 
L 261.708906 140.464158 
L 261.881307 140.464158 
L 261.910785 132.799366 
L 262.274539 132.799366 
L 262.274539 128.96697 
L 263.195057 128.96697 
L 263.30589 121.302178 
L 263.973921 121.302178 
L 263.973921 117.469782 
L 264.101629 117.469782 
L 264.101629 113.637386 
L 264.458424 113.637386 
L 264.458424 109.80499 
L 264.785012 109.80499 
L 264.785012 105.972594 
L 265.091066 105.972594 
L 265.091066 102.140198 
L 265.32533 102.140198 
L 265.32533 98.307802 
L 265.518952 98.307802 
L 265.618893 86.810614 
L 265.692111 86.810614 
L 265.692111 82.978218 
L 266.312721 82.978218 
L 266.312721 79.145822 
L 267.146005 79.145822 
L 267.146005 75.313426 
L 267.565281 75.313426 
L 267.565281 71.48103 
L 267.959811 71.48103 
L 267.959811 67.648634 
L 268.593997 67.648634 
L 268.593997 63.816238 
L 268.81352 63.816238 
L 268.81352 59.983842 
L 283.363349 59.983842 
L 283.363349 56.151446 
L 288.923962 56.151446 
L 288.923962 52.31905 
L 289.996977 52.31905 
L 289.996977 48.486653 
L 299.556467 48.486653 
L 299.556467 44.654257 
L 301.8925 44.654257 
L 301.8925 40.821861 
L 305.751207 40.821861 
L 305.751207 36.989465 
L 306.894615 36.989465 
L 306.894615 33.157069 
L 308.895795 33.157069 
L 308.895795 29.324673 
L 311.864447 29.324673 
L 311.864447 25.492277 
L 312.372798 25.492277 
L 312.372798 21.659881 
L 313.610142 21.659881 
L 313.610142 17.827485 
L 317.111478 17.827485 
L 317.111478 13.995089 
L 324.772679 13.995089 
L 324.772679 10.162693 
L 337.164451 10.162693 
L 337.164451 6.330297 
L 337.164451 6.330297 
L 460.8 6.330297 
L 460.8 6.330297 
" style="fill:none;stroke:#bf00bf;stroke-linecap:square;stroke-width:1.5;"/>
   </g>
   <g id="line2d_24">
    <path clip-path="url(#pcbdc92a93f)" d="M 223.45286 293.76 
L 223.45286 289.927604 
L 224.199398 289.927604 
L 224.199398 286.095208 
L 225.967247 286.095208 
L 225.967247 282.262812 
L 227.664387 282.262812 
L 227.664387 278.430416 
L 231.413708 278.430416 
L 231.413708 274.59802 
L 232.14693 274.59802 
L 232.14693 270.765624 
L 233.417465 270.765624 
L 233.417465 266.933228 
L 233.704755 266.933228 
L 233.704755 263.100832 
L 235.55111 263.100832 
L 235.55111 259.268436 
L 237.002106 259.268436 
L 237.002106 255.43604 
L 237.207678 255.43604 
L 237.207678 251.603644 
L 237.605837 251.603644 
L 237.712174 243.938851 
L 238.227319 243.938851 
L 238.227319 240.106455 
L 238.421217 240.106455 
L 238.421217 236.274059 
L 239.137913 236.274059 
L 239.137913 232.441663 
L 239.829128 232.441663 
L 239.90572 224.776871 
L 240.473883 224.776871 
L 240.559965 213.279683 
L 246.735629 213.279683 
L 246.735629 209.447287 
L 248.977326 209.447287 
L 248.977326 205.614891 
L 249.77994 205.614891 
L 249.77994 201.782495 
L 250.729349 201.782495 
L 250.729349 197.950099 
L 252.630369 197.950099 
L 252.672089 190.285307 
L 253.248853 190.285307 
L 253.248853 186.452911 
L 253.748973 186.452911 
L 253.850158 178.788119 
L 254.065533 178.788119 
L 254.065533 174.955723 
L 254.227896 174.955723 
L 254.227896 171.123327 
L 254.468858 171.123327 
L 254.572076 163.458535 
L 255.281393 163.458535 
L 255.281393 159.626139 
L 255.543644 159.626139 
L 255.543644 155.793743 
L 256.861556 155.793743 
L 256.861556 151.961347 
L 257.646013 151.961347 
L 257.646013 148.12895 
L 259.314551 148.12895 
L 259.314551 144.296554 
L 259.905517 144.296554 
L 259.905517 140.464158 
L 260.516218 140.464158 
L 260.589162 132.799366 
L 260.779214 132.799366 
L 260.837087 121.302178 
L 261.020619 121.302178 
L 261.020619 117.469782 
L 261.708906 117.469782 
L 261.708906 113.637386 
L 262.274539 113.637386 
L 262.274539 109.80499 
L 262.835124 109.80499 
L 262.934316 98.307802 
L 263.195057 98.307802 
L 263.195057 94.475406 
L 263.81136 94.475406 
L 263.837298 86.810614 
L 264.055474 86.810614 
L 264.055474 82.978218 
L 264.437248 82.978218 
L 264.458424 75.313426 
L 264.606787 75.313426 
L 264.606787 71.48103 
L 265.042352 71.48103 
L 265.042352 67.648634 
L 265.580758 67.648634 
L 265.661873 59.983842 
L 267.959811 59.983842 
L 267.959811 56.151446 
L 268.81352 56.151446 
L 268.81352 52.31905 
L 275.288164 52.31905 
L 275.288164 48.486653 
L 283.363349 48.486653 
L 283.363349 44.654257 
L 288.923962 44.654257 
L 288.923962 40.821861 
L 289.996977 40.821861 
L 289.996977 36.989465 
L 296.340162 36.989465 
L 296.340162 33.157069 
L 301.8925 33.157069 
L 301.8925 29.324673 
L 305.751207 29.324673 
L 305.751207 25.492277 
L 306.894615 25.492277 
L 306.894615 21.659881 
L 311.864447 21.659881 
L 311.864447 17.827485 
L 312.372798 17.827485 
L 312.372798 13.995089 
L 313.610142 13.995089 
L 313.610142 10.162693 
L 321.259057 10.162693 
L 321.259057 6.330297 
L 321.259057 6.330297 
L 460.8 6.330297 
L 460.8 6.330297 
" style="fill:none;stroke:#000000;stroke-linecap:square;stroke-width:1.5;"/>
   </g>
   <g id="line2d_25">
    <path clip-path="url(#pcbdc92a93f)" d="M 223.45286 293.76 
L 223.45286 289.927604 
L 224.199398 289.927604 
L 224.199398 286.095208 
L 225.511322 286.095208 
L 225.511322 282.262812 
L 225.967247 282.262812 
L 225.967247 278.430416 
L 227.664387 278.430416 
L 227.664387 274.59802 
L 228.957374 274.59802 
L 228.957374 270.765624 
L 229.971314 270.765624 
L 229.971314 266.933228 
L 231.297664 266.933228 
L 231.297664 263.100832 
L 231.413708 263.100832 
L 231.413708 259.268436 
L 232.035797 259.268436 
L 232.035797 255.43604 
L 232.826377 255.43604 
L 232.826377 251.603644 
L 233.417465 251.603644 
L 233.417465 247.771248 
L 233.704755 247.771248 
L 233.704755 243.938851 
L 234.374912 243.938851 
L 234.374912 240.106455 
L 234.744524 240.106455 
L 234.744524 236.274059 
L 235.55111 236.274059 
L 235.607414 228.609267 
L 236.377953 228.609267 
L 236.377953 224.776871 
L 237.002106 224.776871 
L 237.002106 220.944475 
L 238.227319 220.944475 
L 238.227319 217.112079 
L 238.421217 217.112079 
L 238.421217 213.279683 
L 238.941772 213.279683 
L 238.941772 209.447287 
L 239.73138 209.447287 
L 239.73138 205.614891 
L 241.615921 205.614891 
L 241.615921 201.782495 
L 242.36233 201.782495 
L 242.36233 197.950099 
L 244.311553 197.950099 
L 244.311553 194.117703 
L 244.911202 194.117703 
L 244.911202 190.285307 
L 246.735629 190.285307 
L 246.735629 186.452911 
L 246.888769 186.452911 
L 246.888769 182.620515 
L 248.977326 182.620515 
L 249.019243 174.955723 
L 249.303823 174.955723 
L 249.303823 171.123327 
L 249.620239 171.123327 
L 249.620239 167.290931 
L 249.77994 167.290931 
L 249.77994 163.458535 
L 250.729349 163.458535 
L 250.729349 159.626139 
L 250.985188 159.626139 
L 250.985188 155.793743 
L 252.028485 155.793743 
L 252.028485 151.961347 
L 252.585739 151.961347 
L 252.685142 144.296554 
L 253.545165 144.296554 
L 253.545165 140.464158 
L 254.065533 140.464158 
L 254.065533 136.631762 
L 254.413709 136.631762 
L 254.468858 128.96697 
L 255.543644 128.96697 
L 255.548101 121.302178 
L 256.861556 121.302178 
L 256.861556 117.469782 
L 257.405331 117.469782 
L 257.405331 113.637386 
L 258.96128 113.637386 
L 258.96128 109.80499 
L 259.87748 109.80499 
L 259.87748 105.972594 
L 260.826421 105.972594 
L 260.837087 98.307802 
L 261.020619 98.307802 
L 261.020619 94.475406 
L 261.523506 94.475406 
L 261.523506 90.64301 
L 261.647652 90.64301 
L 261.647652 86.810614 
L 262.274539 86.810614 
L 262.274539 82.978218 
L 262.835124 82.978218 
L 262.934316 75.313426 
L 263.195057 75.313426 
L 263.195057 71.48103 
L 263.81136 71.48103 
L 263.81136 67.648634 
L 264.055474 67.648634 
L 264.163453 59.983842 
L 264.458424 59.983842 
L 264.458424 56.151446 
L 265.661873 56.151446 
L 265.661873 52.31905 
L 266.940813 52.31905 
L 266.940813 48.486653 
L 275.288164 48.486653 
L 275.288164 44.654257 
L 283.363349 44.654257 
L 283.363349 40.821861 
L 286.736079 40.821861 
L 286.736079 36.989465 
L 288.923962 36.989465 
L 288.923962 33.157069 
L 296.340162 33.157069 
L 296.340162 29.324673 
L 301.8925 29.324673 
L 301.8925 25.492277 
L 305.751207 25.492277 
L 305.751207 21.659881 
L 306.894615 21.659881 
L 306.894615 17.827485 
L 307.459916 17.827485 
L 307.459916 13.995089 
L 312.372798 13.995089 
L 312.372798 10.162693 
L 313.610142 10.162693 
L 313.610142 6.330297 
L 313.610142 6.330297 
L 460.8 6.330297 
L 460.8 6.330297 
" style="fill:none;stroke:#00bfbf;stroke-linecap:square;stroke-width:1.5;"/>
   </g>
   <g id="line2d_26">
    <path clip-path="url(#pcbdc92a93f)" d="M 216.709053 293.76 
L 216.709053 289.927604 
L 219.70131 289.927604 
L 219.70131 286.095208 
L 223.45286 286.095208 
L 223.45286 282.262812 
L 224.111663 282.262812 
L 224.199398 274.59802 
L 224.609007 274.59802 
L 224.609007 270.765624 
L 225.372827 270.765624 
L 225.372827 266.933228 
L 225.511322 266.933228 
L 225.511322 263.100832 
L 225.804775 263.100832 
L 225.804775 259.268436 
L 226.388644 259.268436 
L 226.405969 251.603644 
L 227.617861 251.603644 
L 227.664387 243.938851 
L 228.559295 243.938851 
L 228.559295 240.106455 
L 228.936302 240.106455 
L 228.956442 232.441663 
L 229.747319 232.441663 
L 229.747319 228.609267 
L 229.971314 228.609267 
L 229.971314 224.776871 
L 230.193346 224.776871 
L 230.193346 220.944475 
L 230.616647 220.944475 
L 230.616647 217.112079 
L 230.799264 217.112079 
L 230.799264 213.279683 
L 231.297664 213.279683 
L 231.297664 209.447287 
L 232.125051 209.447287 
L 232.125051 205.614891 
L 232.826377 205.614891 
L 232.826377 201.782495 
L 233.417465 201.782495 
L 233.417465 197.950099 
L 233.704755 197.950099 
L 233.704755 194.117703 
L 234.173457 194.117703 
L 234.173457 190.285307 
L 234.374912 190.285307 
L 234.374912 186.452911 
L 235.55111 186.452911 
L 235.55111 182.620515 
L 236.457284 182.620515 
L 236.457284 178.788119 
L 237.002106 178.788119 
L 237.002106 174.955723 
L 239.40646 174.955723 
L 239.40646 171.123327 
L 241.587263 171.123327 
L 241.615921 163.458535 
L 241.731012 163.458535 
L 241.731012 159.626139 
L 242.293428 159.626139 
L 242.293428 155.793743 
L 244.221692 155.793743 
L 244.221692 151.961347 
L 244.685761 151.961347 
L 244.685761 148.12895 
L 245.404496 148.12895 
L 245.404496 144.296554 
L 246.803405 144.296554 
L 246.803405 140.464158 
L 248.977326 140.464158 
L 249.088271 128.96697 
L 249.620239 128.96697 
L 249.620239 125.134574 
L 250.985188 125.134574 
L 250.985188 121.302178 
L 251.116921 121.302178 
L 251.116921 117.469782 
L 251.515602 117.469782 
L 251.515602 113.637386 
L 251.753197 113.637386 
L 251.753197 109.80499 
L 253.545165 109.80499 
L 253.545165 105.972594 
L 254.078326 105.972594 
L 254.078326 102.140198 
L 254.23947 102.140198 
L 254.23947 98.307802 
L 254.40512 98.307802 
L 254.413709 90.64301 
L 255.394784 90.64301 
L 255.394784 86.810614 
L 256.995052 86.810614 
L 256.995052 82.978218 
L 257.546795 82.978218 
L 257.546795 79.145822 
L 259.462738 79.145822 
L 259.462738 75.313426 
L 260.252361 75.313426 
L 260.252361 71.48103 
L 260.60074 71.48103 
L 260.60074 67.648634 
L 260.837087 67.648634 
L 260.837087 63.816238 
L 261.111366 63.816238 
L 261.158269 56.151446 
L 261.523506 56.151446 
L 261.523506 52.31905 
L 261.647652 52.31905 
L 261.647652 48.486653 
L 262.835124 48.486653 
L 262.835124 44.654257 
L 263.999691 44.654257 
L 263.999691 40.821861 
L 273.00151 40.821861 
L 273.00151 36.989465 
L 273.21686 36.989465 
L 273.21686 33.157069 
L 281.291272 33.157069 
L 281.291272 29.324673 
L 283.668842 29.324673 
L 283.668842 25.492277 
L 288.869936 25.492277 
L 288.869936 21.659881 
L 289.609246 21.659881 
L 289.609246 17.827485 
L 293.615101 17.827485 
L 293.615101 13.995089 
L 299.006816 13.995089 
L 299.006816 10.162693 
L 300.64161 10.162693 
L 300.64161 6.330297 
L 300.64161 6.330297 
L 460.8 6.330297 
L 460.8 6.330297 
" style="fill:none;stroke:#bf00bf;stroke-linecap:square;stroke-width:1.5;"/>
   </g>
   <g id="patch_3">
    <path d="M 0 293.76 
L 0 3.456 
" style="fill:none;stroke:#000000;stroke-linecap:square;stroke-linejoin:miter;stroke-width:0.8;"/>
   </g>
   <g id="patch_4">
    <path d="M 460.8 293.76 
L 460.8 3.456 
" style="fill:none;stroke:#000000;stroke-linecap:square;stroke-linejoin:miter;stroke-width:0.8;"/>
   </g>
   <g id="patch_5">
    <path d="M -0 293.76 
L 460.8 293.76 
" style="fill:none;stroke:#000000;stroke-linecap:square;stroke-linejoin:miter;stroke-width:0.8;"/>
   </g>
   <g id="patch_6">
    <path d="M -0 3.456 
L 460.8 3.456 
" style="fill:none;stroke:#000000;stroke-linecap:square;stroke-linejoin:miter;stroke-width:0.8;"/>
   </g>
   <g id="text_6">
    <!-- {f20-f24}, 5-D -->
    <defs>
     <path d="M 51.125 -9.28125 
L 51.125 -16.3125 
L 48.09375 -16.3125 
Q 35.9375 -16.3125 31.8125 -12.6875 
Q 27.6875 -9.078125 27.6875 1.703125 
L 27.6875 13.375 
Q 27.6875 20.75 25.046875 23.578125 
Q 22.40625 26.421875 15.484375 26.421875 
L 12.5 26.421875 
L 12.5 33.40625 
L 15.484375 33.40625 
Q 22.46875 33.40625 25.078125 36.203125 
Q 27.6875 39.015625 27.6875 46.296875 
L 27.6875 58.015625 
Q 27.6875 68.796875 31.8125 72.390625 
Q 35.9375 75.984375 48.09375 75.984375 
L 51.125 75.984375 
L 51.125 69 
L 47.796875 69 
Q 40.921875 69 38.8125 66.84375 
Q 36.71875 64.703125 36.71875 57.8125 
L 36.71875 45.703125 
Q 36.71875 38.03125 34.5 34.5625 
Q 32.28125 31.109375 26.90625 29.890625 
Q 32.328125 28.5625 34.515625 25.09375 
Q 36.71875 21.625 36.71875 14.015625 
L 36.71875 1.90625 
Q 36.71875 -4.984375 38.8125 -7.125 
Q 40.921875 -9.28125 47.796875 -9.28125 
z
" id="DejaVuSans-123"/>
     <path d="M 19.1875 8.296875 
L 53.609375 8.296875 
L 53.609375 0 
L 7.328125 0 
L 7.328125 8.296875 
Q 12.9375 14.109375 22.625 23.890625 
Q 32.328125 33.6875 34.8125 36.53125 
Q 39.546875 41.84375 41.421875 45.53125 
Q 43.3125 49.21875 43.3125 52.78125 
Q 43.3125 58.59375 39.234375 62.25 
Q 35.15625 65.921875 28.609375 65.921875 
Q 23.96875 65.921875 18.8125 64.3125 
Q 13.671875 62.703125 7.8125 59.421875 
L 7.8125 69.390625 
Q 13.765625 71.78125 18.9375 73 
Q 24.125 74.21875 28.421875 74.21875 
Q 39.75 74.21875 46.484375 68.546875 
Q 53.21875 62.890625 53.21875 53.421875 
Q 53.21875 48.921875 51.53125 44.890625 
Q 49.859375 40.875 45.40625 35.40625 
Q 44.1875 33.984375 37.640625 27.21875 
Q 31.109375 20.453125 19.1875 8.296875 
z
" id="DejaVuSans-50"/>
     <path d="M 12.5 -9.28125 
L 15.921875 -9.28125 
Q 22.75 -9.28125 24.828125 -7.171875 
Q 26.90625 -5.078125 26.90625 1.90625 
L 26.90625 14.015625 
Q 26.90625 21.625 29.09375 25.09375 
Q 31.296875 28.5625 36.71875 29.890625 
Q 31.296875 31.109375 29.09375 34.5625 
Q 26.90625 38.03125 26.90625 45.703125 
L 26.90625 57.8125 
Q 26.90625 64.75 24.828125 66.875 
Q 22.75 69 15.921875 69 
L 12.5 69 
L 12.5 75.984375 
L 15.578125 75.984375 
Q 27.734375 75.984375 31.8125 72.390625 
Q 35.890625 68.796875 35.890625 58.015625 
L 35.890625 46.296875 
Q 35.890625 39.015625 38.515625 36.203125 
Q 41.15625 33.40625 48.09375 33.40625 
L 51.125 33.40625 
L 51.125 26.421875 
L 48.09375 26.421875 
Q 41.15625 26.421875 38.515625 23.578125 
Q 35.890625 20.75 35.890625 13.375 
L 35.890625 1.703125 
Q 35.890625 -9.078125 31.8125 -12.6875 
Q 27.734375 -16.3125 15.578125 -16.3125 
L 12.5 -16.3125 
z
" id="DejaVuSans-125"/>
     <path d="M 11.71875 12.40625 
L 22.015625 12.40625 
L 22.015625 4 
L 14.015625 -11.625 
L 7.71875 -11.625 
L 11.71875 4 
z
" id="DejaVuSans-44"/>
     <path d="M 10.796875 72.90625 
L 49.515625 72.90625 
L 49.515625 64.59375 
L 19.828125 64.59375 
L 19.828125 46.734375 
Q 21.96875 47.46875 24.109375 47.828125 
Q 26.265625 48.1875 28.421875 48.1875 
Q 40.625 48.1875 47.75 41.5 
Q 54.890625 34.8125 54.890625 23.390625 
Q 54.890625 11.625 47.5625 5.09375 
Q 40.234375 -1.421875 26.90625 -1.421875 
Q 22.3125 -1.421875 17.546875 -0.640625 
Q 12.796875 0.140625 7.71875 1.703125 
L 7.71875 11.625 
Q 12.109375 9.234375 16.796875 8.0625 
Q 21.484375 6.890625 26.703125 6.890625 
Q 35.15625 6.890625 40.078125 11.328125 
Q 45.015625 15.765625 45.015625 23.390625 
Q 45.015625 31 40.078125 35.4375 
Q 35.15625 39.890625 26.703125 39.890625 
Q 22.75 39.890625 18.8125 39.015625 
Q 14.890625 38.140625 10.796875 36.28125 
z
" id="DejaVuSans-53"/>
    </defs>
    <g transform="translate(305.884 287.95392)scale(0.2 -0.2)">
     <use xlink:href="#DejaVuSans-123"/>
     <use x="63.623047" xlink:href="#DejaVuSans-102"/>
     <use x="98.828125" xlink:href="#DejaVuSans-50"/>
     <use x="162.451172" xlink:href="#DejaVuSans-48"/>
     <use x="226.074219" xlink:href="#DejaVuSans-45"/>
     <use x="262.158203" xlink:href="#DejaVuSans-102"/>
     <use x="297.363281" xlink:href="#DejaVuSans-50"/>
     <use x="360.986328" xlink:href="#DejaVuSans-52"/>
     <use x="424.609375" xlink:href="#DejaVuSans-125"/>
     <use x="488.232422" xlink:href="#DejaVuSans-44"/>
     <use x="520.019531" xlink:href="#DejaVuSans-32"/>
     <use x="551.806641" xlink:href="#DejaVuSans-53"/>
     <use x="615.429688" xlink:href="#DejaVuSans-45"/>
     <use x="651.513672" xlink:href="#DejaVuSans-68"/>
    </g>
   </g>
   <g id="text_7">
    <!-- v2.4 -->
    <defs>
     <path d="M 2.984375 54.6875 
L 12.5 54.6875 
L 29.59375 8.796875 
L 46.6875 54.6875 
L 56.203125 54.6875 
L 35.6875 0 
L 23.484375 0 
z
" id="DejaVuSans-118"/>
     <path d="M 10.6875 12.40625 
L 21 12.40625 
L 21 0 
L 10.6875 0 
z
" id="DejaVuSans-46"/>
    </defs>
    <g style="fill:#808080;" transform="translate(219.489063 288.777272)scale(0.1 -0.1)">
     <use xlink:href="#DejaVuSans-118"/>
     <use x="59.179688" xlink:href="#DejaVuSans-50"/>
     <use x="122.802734" xlink:href="#DejaVuSans-46"/>
     <use x="154.589844" xlink:href="#DejaVuSans-52"/>
    </g>
   </g>
  </g>
 </g>
 <defs>
  <clipPath id="pcbdc92a93f">
   <rect height="290.304" width="460.8" x="0" y="3.456"/>
  </clipPath>
 </defs>
</svg>
