<?xml version="1.0" encoding="utf-8" standalone="no"?>
<!DOCTYPE svg PUBLIC "-//W3C//DTD SVG 1.1//EN"
  "http://www.w3.org/Graphics/SVG/1.1/DTD/svg11.dtd">
<!-- Created with matplotlib (https://matplotlib.org/) -->
<svg height="345.6pt" version="1.1" viewBox="0 0 460.8 345.6" width="460.8pt" xmlns="http://www.w3.org/2000/svg" xmlns:xlink="http://www.w3.org/1999/xlink">
 <defs>
  <style type="text/css">
*{stroke-linecap:butt;stroke-linejoin:round;}
  </style>
 </defs>
 <g id="figure_1">
  <g id="patch_1">
   <path d="M 0 345.6 
L 460.8 345.6 
L 460.8 0 
L 0 0 
z
" style="fill:#ffffff;"/>
  </g>
  <g id="axes_1">
   <g id="patch_2">
    <path d="M 0 293.76 
L 460.8 293.76 
L 460.8 3.456 
L 0 3.456 
z
" style="fill:#ffffff;"/>
   </g>
   <g id="matplotlib.axis_1">
    <g id="xtick_1">
     <g id="line2d_1">
      <path clip-path="url(#padebe18857)" d="M 105.044861 293.76 
L 105.044861 3.456 
" style="fill:none;stroke:#b0b0b0;stroke-linecap:square;stroke-width:0.8;"/>
     </g>
     <g id="line2d_2">
      <defs>
       <path d="M 0 0 
L 0 3.5 
" id="m8890fd1b78" style="stroke:#000000;stroke-width:0.8;"/>
      </defs>
      <g>
       <use style="stroke:#000000;stroke-width:0.8;" x="105.044861" xlink:href="#m8890fd1b78" y="293.76"/>
      </g>
     </g>
     <g id="text_1">
      <!-- -4 -->
      <defs>
       <path d="M 4.890625 31.390625 
L 31.203125 31.390625 
L 31.203125 23.390625 
L 4.890625 23.390625 
z
" id="DejaVuSans-45"/>
       <path d="M 37.796875 64.3125 
L 12.890625 25.390625 
L 37.796875 25.390625 
z
M 35.203125 72.90625 
L 47.609375 72.90625 
L 47.609375 25.390625 
L 58.015625 25.390625 
L 58.015625 17.1875 
L 47.609375 17.1875 
L 47.609375 0 
L 37.796875 0 
L 37.796875 17.1875 
L 4.890625 17.1875 
L 4.890625 26.703125 
z
" id="DejaVuSans-52"/>
      </defs>
      <g transform="translate(95.074549 315.956875)scale(0.2 -0.2)">
       <use xlink:href="#DejaVuSans-45"/>
       <use x="36.083984" xlink:href="#DejaVuSans-52"/>
      </g>
     </g>
    </g>
    <g id="xtick_2">
     <g id="line2d_3">
      <path clip-path="url(#padebe18857)" d="M 210.203329 293.76 
L 210.203329 3.456 
" style="fill:none;stroke:#b0b0b0;stroke-linecap:square;stroke-width:0.8;"/>
     </g>
     <g id="line2d_4">
      <g>
       <use style="stroke:#000000;stroke-width:0.8;" x="210.203329" xlink:href="#m8890fd1b78" y="293.76"/>
      </g>
     </g>
     <g id="text_2">
      <!-- 0 -->
      <defs>
       <path d="M 31.78125 66.40625 
Q 24.171875 66.40625 20.328125 58.90625 
Q 16.5 51.421875 16.5 36.375 
Q 16.5 21.390625 20.328125 13.890625 
Q 24.171875 6.390625 31.78125 6.390625 
Q 39.453125 6.390625 43.28125 13.890625 
Q 47.125 21.390625 47.125 36.375 
Q 47.125 51.421875 43.28125 58.90625 
Q 39.453125 66.40625 31.78125 66.40625 
z
M 31.78125 74.21875 
Q 44.046875 74.21875 50.515625 64.515625 
Q 56.984375 54.828125 56.984375 36.375 
Q 56.984375 17.96875 50.515625 8.265625 
Q 44.046875 -1.421875 31.78125 -1.421875 
Q 19.53125 -1.421875 13.0625 8.265625 
Q 6.59375 17.96875 6.59375 36.375 
Q 6.59375 54.828125 13.0625 64.515625 
Q 19.53125 74.21875 31.78125 74.21875 
z
" id="DejaVuSans-48"/>
      </defs>
      <g transform="translate(203.840829 315.956875)scale(0.2 -0.2)">
       <use xlink:href="#DejaVuSans-48"/>
      </g>
     </g>
    </g>
    <g id="xtick_3">
     <g id="line2d_5">
      <path clip-path="url(#padebe18857)" d="M 315.361798 293.76 
L 315.361798 3.456 
" style="fill:none;stroke:#b0b0b0;stroke-linecap:square;stroke-width:0.8;"/>
     </g>
     <g id="line2d_6">
      <g>
       <use style="stroke:#000000;stroke-width:0.8;" x="315.361798" xlink:href="#m8890fd1b78" y="293.76"/>
      </g>
     </g>
     <g id="text_3">
      <!-- 4 -->
      <g transform="translate(308.999298 315.956875)scale(0.2 -0.2)">
       <use xlink:href="#DejaVuSans-52"/>
      </g>
     </g>
    </g>
    <g id="xtick_4">
     <g id="line2d_7">
      <path clip-path="url(#padebe18857)" d="M 420.520266 293.76 
L 420.520266 3.456 
" style="fill:none;stroke:#b0b0b0;stroke-linecap:square;stroke-width:0.8;"/>
     </g>
     <g id="line2d_8">
      <g>
       <use style="stroke:#000000;stroke-width:0.8;" x="420.520266" xlink:href="#m8890fd1b78" y="293.76"/>
      </g>
     </g>
     <g id="text_4">
      <!-- 8 -->
      <defs>
       <path d="M 31.78125 34.625 
Q 24.75 34.625 20.71875 30.859375 
Q 16.703125 27.09375 16.703125 20.515625 
Q 16.703125 13.921875 20.71875 10.15625 
Q 24.75 6.390625 31.78125 6.390625 
Q 38.8125 6.390625 42.859375 10.171875 
Q 46.921875 13.96875 46.921875 20.515625 
Q 46.921875 27.09375 42.890625 30.859375 
Q 38.875 34.625 31.78125 34.625 
z
M 21.921875 38.8125 
Q 15.578125 40.375 12.03125 44.71875 
Q 8.5 49.078125 8.5 55.328125 
Q 8.5 64.0625 14.71875 69.140625 
Q 20.953125 74.21875 31.78125 74.21875 
Q 42.671875 74.21875 48.875 69.140625 
Q 55.078125 64.0625 55.078125 55.328125 
Q 55.078125 49.078125 51.53125 44.71875 
Q 48 40.375 41.703125 38.8125 
Q 48.828125 37.15625 52.796875 32.3125 
Q 56.78125 27.484375 56.78125 20.515625 
Q 56.78125 9.90625 50.3125 4.234375 
Q 43.84375 -1.421875 31.78125 -1.421875 
Q 19.734375 -1.421875 13.25 4.234375 
Q 6.78125 9.90625 6.78125 20.515625 
Q 6.78125 27.484375 10.78125 32.3125 
Q 14.796875 37.15625 21.921875 38.8125 
z
M 18.3125 54.390625 
Q 18.3125 48.734375 21.84375 45.5625 
Q 25.390625 42.390625 31.78125 42.390625 
Q 38.140625 42.390625 41.71875 45.5625 
Q 45.3125 48.734375 45.3125 54.390625 
Q 45.3125 60.0625 41.71875 63.234375 
Q 38.140625 66.40625 31.78125 66.40625 
Q 25.390625 66.40625 21.84375 63.234375 
Q 18.3125 60.0625 18.3125 54.390625 
z
" id="DejaVuSans-56"/>
      </defs>
      <g transform="translate(414.157766 315.956875)scale(0.2 -0.2)">
       <use xlink:href="#DejaVuSans-56"/>
      </g>
     </g>
    </g>
    <g id="text_5">
     <!-- log10 of Df -->
     <defs>
      <path d="M 9.421875 75.984375 
L 18.40625 75.984375 
L 18.40625 0 
L 9.421875 0 
z
" id="DejaVuSans-108"/>
      <path d="M 30.609375 48.390625 
Q 23.390625 48.390625 19.1875 42.75 
Q 14.984375 37.109375 14.984375 27.296875 
Q 14.984375 17.484375 19.15625 11.84375 
Q 23.34375 6.203125 30.609375 6.203125 
Q 37.796875 6.203125 41.984375 11.859375 
Q 46.1875 17.53125 46.1875 27.296875 
Q 46.1875 37.015625 41.984375 42.703125 
Q 37.796875 48.390625 30.609375 48.390625 
z
M 30.609375 56 
Q 42.328125 56 49.015625 48.375 
Q 55.71875 40.765625 55.71875 27.296875 
Q 55.71875 13.875 49.015625 6.21875 
Q 42.328125 -1.421875 30.609375 -1.421875 
Q 18.84375 -1.421875 12.171875 6.21875 
Q 5.515625 13.875 5.515625 27.296875 
Q 5.515625 40.765625 12.171875 48.375 
Q 18.84375 56 30.609375 56 
z
" id="DejaVuSans-111"/>
      <path d="M 45.40625 27.984375 
Q 45.40625 37.75 41.375 43.109375 
Q 37.359375 48.484375 30.078125 48.484375 
Q 22.859375 48.484375 18.828125 43.109375 
Q 14.796875 37.75 14.796875 27.984375 
Q 14.796875 18.265625 18.828125 12.890625 
Q 22.859375 7.515625 30.078125 7.515625 
Q 37.359375 7.515625 41.375 12.890625 
Q 45.40625 18.265625 45.40625 27.984375 
z
M 54.390625 6.78125 
Q 54.390625 -7.171875 48.1875 -13.984375 
Q 42 -20.796875 29.203125 -20.796875 
Q 24.46875 -20.796875 20.265625 -20.09375 
Q 16.0625 -19.390625 12.109375 -17.921875 
L 12.109375 -9.1875 
Q 16.0625 -11.328125 19.921875 -12.34375 
Q 23.78125 -13.375 27.78125 -13.375 
Q 36.625 -13.375 41.015625 -8.765625 
Q 45.40625 -4.15625 45.40625 5.171875 
L 45.40625 9.625 
Q 42.625 4.78125 38.28125 2.390625 
Q 33.9375 0 27.875 0 
Q 17.828125 0 11.671875 7.65625 
Q 5.515625 15.328125 5.515625 27.984375 
Q 5.515625 40.671875 11.671875 48.328125 
Q 17.828125 56 27.875 56 
Q 33.9375 56 38.28125 53.609375 
Q 42.625 51.21875 45.40625 46.390625 
L 45.40625 54.6875 
L 54.390625 54.6875 
z
" id="DejaVuSans-103"/>
      <path d="M 12.40625 8.296875 
L 28.515625 8.296875 
L 28.515625 63.921875 
L 10.984375 60.40625 
L 10.984375 69.390625 
L 28.421875 72.90625 
L 38.28125 72.90625 
L 38.28125 8.296875 
L 54.390625 8.296875 
L 54.390625 0 
L 12.40625 0 
z
" id="DejaVuSans-49"/>
      <path id="DejaVuSans-32"/>
      <path d="M 37.109375 75.984375 
L 37.109375 68.5 
L 28.515625 68.5 
Q 23.6875 68.5 21.796875 66.546875 
Q 19.921875 64.59375 19.921875 59.515625 
L 19.921875 54.6875 
L 34.71875 54.6875 
L 34.71875 47.703125 
L 19.921875 47.703125 
L 19.921875 0 
L 10.890625 0 
L 10.890625 47.703125 
L 2.296875 47.703125 
L 2.296875 54.6875 
L 10.890625 54.6875 
L 10.890625 58.5 
Q 10.890625 67.625 15.140625 71.796875 
Q 19.390625 75.984375 28.609375 75.984375 
z
" id="DejaVuSans-102"/>
      <path d="M 19.671875 64.796875 
L 19.671875 8.109375 
L 31.59375 8.109375 
Q 46.6875 8.109375 53.6875 14.9375 
Q 60.6875 21.78125 60.6875 36.53125 
Q 60.6875 51.171875 53.6875 57.984375 
Q 46.6875 64.796875 31.59375 64.796875 
z
M 9.8125 72.90625 
L 30.078125 72.90625 
Q 51.265625 72.90625 61.171875 64.09375 
Q 71.09375 55.28125 71.09375 36.53125 
Q 71.09375 17.671875 61.125 8.828125 
Q 51.171875 0 30.078125 0 
L 9.8125 0 
z
" id="DejaVuSans-68"/>
     </defs>
     <g transform="translate(175.214063 339.313125)scale(0.2 -0.2)">
      <use xlink:href="#DejaVuSans-108"/>
      <use x="27.783203" xlink:href="#DejaVuSans-111"/>
      <use x="88.964844" xlink:href="#DejaVuSans-103"/>
      <use x="152.441406" xlink:href="#DejaVuSans-49"/>
      <use x="216.064453" xlink:href="#DejaVuSans-48"/>
      <use x="279.6875" xlink:href="#DejaVuSans-32"/>
      <use x="311.474609" xlink:href="#DejaVuSans-111"/>
      <use x="372.65625" xlink:href="#DejaVuSans-102"/>
      <use x="407.861328" xlink:href="#DejaVuSans-32"/>
      <use x="439.648438" xlink:href="#DejaVuSans-68"/>
      <use x="516.650391" xlink:href="#DejaVuSans-102"/>
     </g>
    </g>
   </g>
   <g id="matplotlib.axis_2">
    <g id="ytick_1">
     <g id="line2d_9">
      <path clip-path="url(#padebe18857)" d="M 0 293.76 
L 460.8 293.76 
" style="fill:none;stroke:#b0b0b0;stroke-linecap:square;stroke-width:0.8;"/>
     </g>
     <g id="line2d_10">
      <defs>
       <path d="M 0 0 
L -3.5 0 
" id="mee7f77f61e" style="stroke:#000000;stroke-width:0.8;"/>
      </defs>
      <g>
       <use style="stroke:#000000;stroke-width:0.8;" x="0" xlink:href="#mee7f77f61e" y="293.76"/>
      </g>
     </g>
    </g>
    <g id="ytick_2">
     <g id="line2d_11">
      <path clip-path="url(#padebe18857)" d="M 0 236.274059 
L 460.8 236.274059 
" style="fill:none;stroke:#b0b0b0;stroke-linecap:square;stroke-width:0.8;"/>
     </g>
     <g id="line2d_12">
      <g>
       <use style="stroke:#000000;stroke-width:0.8;" x="0" xlink:href="#mee7f77f61e" y="236.274059"/>
      </g>
     </g>
    </g>
    <g id="ytick_3">
     <g id="line2d_13">
      <path clip-path="url(#padebe18857)" d="M 0 178.788119 
L 460.8 178.788119 
" style="fill:none;stroke:#b0b0b0;stroke-linecap:square;stroke-width:0.8;"/>
     </g>
     <g id="line2d_14">
      <g>
       <use style="stroke:#000000;stroke-width:0.8;" x="0" xlink:href="#mee7f77f61e" y="178.788119"/>
      </g>
     </g>
    </g>
    <g id="ytick_4">
     <g id="line2d_15">
      <path clip-path="url(#padebe18857)" d="M 0 121.302178 
L 460.8 121.302178 
" style="fill:none;stroke:#b0b0b0;stroke-linecap:square;stroke-width:0.8;"/>
     </g>
     <g id="line2d_16">
      <g>
       <use style="stroke:#000000;stroke-width:0.8;" x="0" xlink:href="#mee7f77f61e" y="121.302178"/>
      </g>
     </g>
    </g>
    <g id="ytick_5">
     <g id="line2d_17">
      <path clip-path="url(#padebe18857)" d="M 0 63.816238 
L 460.8 63.816238 
" style="fill:none;stroke:#b0b0b0;stroke-linecap:square;stroke-width:0.8;"/>
     </g>
     <g id="line2d_18">
      <g>
       <use style="stroke:#000000;stroke-width:0.8;" x="0" xlink:href="#mee7f77f61e" y="63.816238"/>
      </g>
     </g>
    </g>
    <g id="ytick_6">
     <g id="line2d_19">
      <path clip-path="url(#padebe18857)" d="M 0 6.330297 
L 460.8 6.330297 
" style="fill:none;stroke:#b0b0b0;stroke-linecap:square;stroke-width:0.8;"/>
     </g>
     <g id="line2d_20">
      <g>
       <use style="stroke:#000000;stroke-width:0.8;" x="0" xlink:href="#mee7f77f61e" y="6.330297"/>
      </g>
     </g>
    </g>
   </g>
   <g id="line2d_21">
    <path clip-path="url(#padebe18857)" d="M 239.208092 293.76 
L 239.208092 289.927604 
L 244.608521 289.927604 
L 244.696714 282.262812 
L 245.037541 282.262812 
L 245.037541 278.430416 
L 246.659099 278.430416 
L 246.659099 274.59802 
L 247.645415 274.59802 
L 247.645415 270.765624 
L 248.981306 270.765624 
L 248.981306 266.933228 
L 249.168106 266.933228 
L 249.168106 263.100832 
L 251.836785 263.100832 
L 251.836785 259.268436 
L 252.392312 259.268436 
L 252.392312 255.43604 
L 252.504981 255.43604 
L 252.504981 251.603644 
L 252.633323 251.603644 
L 252.633323 247.771248 
L 255.385764 247.771248 
L 255.385764 243.938851 
L 256.607866 243.938851 
L 256.607866 240.106455 
L 258.077159 240.106455 
L 258.077159 236.274059 
L 261.669471 236.274059 
L 261.669471 232.441663 
L 266.741989 232.441663 
L 266.741989 228.609267 
L 268.473419 228.609267 
L 268.473419 224.776871 
L 270.202673 224.776871 
L 270.202673 220.944475 
L 271.060685 220.944475 
L 271.060685 217.112079 
L 280.576282 217.112079 
L 280.576282 213.279683 
L 281.621606 213.279683 
L 281.621606 209.447287 
L 283.803456 209.447287 
L 283.803456 205.614891 
L 284.544546 205.614891 
L 284.544546 201.782495 
L 286.327865 201.782495 
L 286.327865 197.950099 
L 286.748558 197.950099 
L 286.748558 194.117703 
L 290.950038 194.117703 
L 290.950038 190.285307 
L 293.8542 190.285307 
L 293.950738 182.620515 
L 294.877187 182.620515 
L 294.920997 174.955723 
L 295.493311 174.955723 
L 295.493311 171.123327 
L 295.873896 171.123327 
L 295.873896 167.290931 
L 296.038521 167.290931 
L 296.038521 163.458535 
L 296.51746 163.458535 
L 296.590215 155.793743 
L 296.775409 155.793743 
L 296.775409 151.961347 
L 296.89462 151.961347 
L 296.89462 148.12895 
L 297.091294 148.12895 
L 297.108105 140.464158 
L 298.125079 140.464158 
L 298.125079 136.631762 
L 302.955618 136.631762 
L 302.955618 132.799366 
L 308.200649 132.799366 
L 308.200649 128.96697 
L 320.877206 128.96697 
L 320.877206 125.134574 
L 353.699039 125.134574 
L 353.699039 121.302178 
L 362.117255 121.302178 
L 362.117255 117.469782 
L 368.607645 117.469782 
L 368.607645 113.637386 
L 369.960866 113.637386 
L 370.012037 105.972594 
L 373.333645 105.972594 
L 373.333645 102.140198 
L 373.735776 102.140198 
L 373.735776 98.307802 
L 375.63838 98.307802 
L 375.739523 86.810614 
L 377.262765 86.810614 
L 377.262765 82.978218 
L 380.808947 82.978218 
L 380.808947 79.145822 
L 381.332839 79.145822 
L 381.332839 75.313426 
L 381.52128 75.313426 
L 381.52128 71.48103 
L 382.659351 71.48103 
L 382.659351 67.648634 
L 392.11616 67.648634 
L 392.11616 63.816238 
L 417.542673 63.816238 
L 417.542673 59.983842 
L 420.11023 59.983842 
L 420.11023 56.151446 
L 420.929196 56.151446 
L 420.929196 52.31905 
L 421.144302 52.31905 
L 421.144302 48.486653 
L 422.654507 48.486653 
L 422.654507 44.654257 
L 425.530836 44.654257 
L 425.530836 40.821861 
L 425.983263 40.821861 
L 425.983263 36.989465 
L 426.480836 36.989465 
L 426.480836 33.157069 
L 427.205361 33.157069 
L 427.205361 29.324673 
L 427.317766 29.324673 
L 427.317766 25.492277 
L 429.24095 25.492277 
L 429.24095 21.659881 
L 429.94218 21.659881 
L 429.94218 17.827485 
L 432.076708 17.827485 
L 432.076708 13.995089 
L 432.84156 13.995089 
L 432.84156 10.162693 
L 434.193717 10.162693 
L 434.193717 6.330297 
L 434.193717 6.330297 
L 460.8 6.330297 
L 460.8 6.330297 
" style="fill:none;stroke:#ff0000;stroke-linecap:square;stroke-width:3;"/>
   </g>
   <g id="line2d_22">
    <path clip-path="url(#padebe18857)" d="M 246.659099 293.76 
L 246.659099 289.927604 
L 247.478047 289.927604 
L 247.478047 286.095208 
L 248.981306 286.095208 
L 248.981306 282.262812 
L 249.312861 282.262812 
L 249.312861 278.430416 
L 249.989171 278.430416 
L 249.989171 274.59802 
L 250.600181 274.59802 
L 250.600181 270.765624 
L 252.583415 270.765624 
L 252.640505 263.100832 
L 252.881955 263.100832 
L 252.881955 259.268436 
L 253.073949 259.268436 
L 253.073949 255.43604 
L 258.611801 255.43604 
L 258.611801 251.603644 
L 259.605387 251.603644 
L 259.605387 247.771248 
L 261.633817 247.771248 
L 261.633817 243.938851 
L 261.937067 243.938851 
L 261.937067 240.106455 
L 264.516515 240.106455 
L 264.516515 236.274059 
L 280.576282 236.274059 
L 280.576282 232.441663 
L 295.427603 232.441663 
L 295.427603 228.609267 
L 295.684823 228.609267 
L 295.684823 224.776871 
L 296.121003 224.776871 
L 296.121003 220.944475 
L 296.983397 220.944475 
L 296.983397 217.112079 
L 297.113846 217.112079 
L 297.113846 213.279683 
L 297.326178 213.279683 
L 297.326178 209.447287 
L 297.897232 209.447287 
L 297.990091 201.782495 
L 298.167272 201.782495 
L 298.256539 194.117703 
L 298.462596 194.117703 
L 298.462596 190.285307 
L 298.913233 190.285307 
L 298.913233 186.452911 
L 299.279824 186.452911 
L 299.279824 182.620515 
L 299.793262 182.620515 
L 299.793262 178.788119 
L 301.086861 178.788119 
L 301.086861 174.955723 
L 303.497513 174.955723 
L 303.497513 171.123327 
L 310.489378 171.123327 
L 310.489378 167.290931 
L 314.793797 167.290931 
L 314.793797 163.458535 
L 318.959214 163.458535 
L 318.959214 159.626139 
L 322.938063 159.626139 
L 322.938063 155.793743 
L 326.466451 155.793743 
L 326.466451 151.961347 
L 333.646301 151.961347 
L 333.646301 148.12895 
L 340.889651 148.12895 
L 340.889651 144.296554 
L 345.417179 144.296554 
L 345.417179 140.464158 
L 347.521416 140.464158 
L 347.521416 136.631762 
L 354.884788 136.631762 
L 354.884788 132.799366 
L 359.334332 132.799366 
L 359.334332 128.96697 
L 360.185149 128.96697 
L 360.185149 125.134574 
L 372.024103 125.134574 
L 372.024103 121.302178 
L 378.678956 121.302178 
L 378.678956 117.469782 
L 378.793819 117.469782 
L 378.793819 113.637386 
L 380.03987 113.637386 
L 380.03987 109.80499 
L 381.239843 109.80499 
L 381.239843 105.972594 
L 383.016353 105.972594 
L 383.016353 102.140198 
L 383.275906 102.140198 
L 383.275906 98.307802 
L 385.415885 98.307802 
L 385.415885 94.475406 
L 386.524093 94.475406 
L 386.524093 90.64301 
L 386.66862 90.64301 
L 386.66862 86.810614 
L 386.785436 86.810614 
L 386.785436 82.978218 
L 388.061954 82.978218 
L 388.061954 79.145822 
L 388.410668 79.145822 
L 388.410668 75.313426 
L 393.325585 75.313426 
L 393.325585 71.48103 
L 396.154873 71.48103 
L 396.154873 67.648634 
L 401.8162 67.648634 
L 401.8162 63.816238 
L 422.655603 63.816238 
L 422.655603 59.983842 
L 424.305478 59.983842 
L 424.305478 56.151446 
L 426.678719 56.151446 
L 426.678719 52.31905 
L 427.352716 52.31905 
L 427.352716 48.486653 
L 429.898034 48.486653 
L 429.898034 44.654257 
L 430.329067 44.654257 
L 430.329067 40.821861 
L 431.686743 40.821861 
L 431.686743 36.989465 
L 432.527235 36.989465 
L 432.527235 33.157069 
L 432.885963 33.157069 
L 432.885963 29.324673 
L 435.215502 29.324673 
L 435.215502 25.492277 
L 435.868861 25.492277 
L 435.868861 21.659881 
L 437.195218 21.659881 
L 437.195218 17.827485 
L 441.091051 17.827485 
L 441.091051 13.995089 
L 446.838703 13.995089 
L 446.838703 10.162693 
L 449.463169 10.162693 
L 449.463169 6.330297 
L 449.463169 6.330297 
L 460.8 6.330297 
L 460.8 6.330297 
" style="fill:none;stroke:#00bfbf;stroke-linecap:square;stroke-width:1.5;"/>
   </g>
   <g id="line2d_23">
    <path clip-path="url(#padebe18857)" d="M 246.659099 293.76 
L 246.697031 286.095208 
L 248.981306 286.095208 
L 248.981306 282.262812 
L 249.312861 282.262812 
L 249.312861 278.430416 
L 249.989171 278.430416 
L 249.989171 274.59802 
L 250.600181 274.59802 
L 250.600181 270.765624 
L 252.111547 270.765624 
L 252.111547 266.933228 
L 252.583415 266.933228 
L 252.640505 259.268436 
L 252.881955 259.268436 
L 252.881955 255.43604 
L 258.077159 255.43604 
L 258.077159 251.603644 
L 258.422419 251.603644 
L 258.422419 247.771248 
L 258.611801 247.771248 
L 258.611801 243.938851 
L 259.249806 243.938851 
L 259.249806 240.106455 
L 259.807878 240.106455 
L 259.807878 236.274059 
L 280.576282 236.274059 
L 280.576282 232.441663 
L 281.621606 232.441663 
L 281.621606 228.609267 
L 282.412098 228.609267 
L 282.412098 224.776871 
L 291.373886 224.776871 
L 291.373886 220.944475 
L 295.427603 220.944475 
L 295.427603 217.112079 
L 295.684823 217.112079 
L 295.684823 213.279683 
L 296.121003 213.279683 
L 296.121003 209.447287 
L 296.983397 209.447287 
L 296.983397 205.614891 
L 297.113846 205.614891 
L 297.113846 201.782495 
L 297.326178 201.782495 
L 297.326178 197.950099 
L 297.897232 197.950099 
L 297.990091 190.285307 
L 298.167272 190.285307 
L 298.256539 182.620515 
L 298.462596 182.620515 
L 298.462596 178.788119 
L 298.793149 178.788119 
L 298.793149 174.955723 
L 299.279824 174.955723 
L 299.279824 171.123327 
L 299.793262 171.123327 
L 299.793262 167.290931 
L 301.086861 167.290931 
L 301.086861 163.458535 
L 303.497513 163.458535 
L 303.497513 159.626139 
L 304.388124 159.626139 
L 304.388124 155.793743 
L 308.048804 155.793743 
L 308.048804 151.961347 
L 313.206734 151.961347 
L 313.206734 148.12895 
L 322.938063 148.12895 
L 322.938063 144.296554 
L 326.466451 144.296554 
L 326.466451 140.464158 
L 328.536416 140.464158 
L 328.536416 136.631762 
L 330.484783 136.631762 
L 330.484783 132.799366 
L 343.846205 132.799366 
L 343.846205 128.96697 
L 353.699039 128.96697 
L 353.699039 125.134574 
L 360.185149 125.134574 
L 360.185149 121.302178 
L 375.739523 121.302178 
L 375.739523 117.469782 
L 377.393764 117.469782 
L 377.393764 113.637386 
L 378.678956 113.637386 
L 378.678956 109.80499 
L 380.03987 109.80499 
L 380.03987 105.972594 
L 381.168671 105.972594 
L 381.239843 98.307802 
L 381.332839 98.307802 
L 381.332839 94.475406 
L 382.466238 94.475406 
L 382.466238 90.64301 
L 383.016353 90.64301 
L 383.016353 86.810614 
L 385.415885 86.810614 
L 385.415885 82.978218 
L 386.054806 82.978218 
L 386.054806 79.145822 
L 386.66862 79.145822 
L 386.66862 75.313426 
L 386.785436 75.313426 
L 386.785436 71.48103 
L 388.061954 71.48103 
L 388.061954 67.648634 
L 401.8162 67.648634 
L 401.8162 63.816238 
L 422.655603 63.816238 
L 422.655603 59.983842 
L 423.478248 59.983842 
L 423.478248 56.151446 
L 424.305478 56.151446 
L 424.305478 52.31905 
L 427.352716 52.31905 
L 427.352716 48.486653 
L 429.898034 48.486653 
L 429.898034 44.654257 
L 430.329067 44.654257 
L 430.329067 40.821861 
L 430.977914 40.821861 
L 430.977914 36.989465 
L 431.686743 36.989465 
L 431.686743 33.157069 
L 432.299732 33.157069 
L 432.299732 29.324673 
L 432.527235 29.324673 
L 432.527235 25.492277 
L 435.215502 25.492277 
L 435.215502 21.659881 
L 435.520986 21.659881 
L 435.520986 17.827485 
L 438.791678 17.827485 
L 438.791678 13.995089 
L 439.054102 13.995089 
L 439.054102 10.162693 
L 446.838703 10.162693 
L 446.838703 6.330297 
L 446.838703 6.330297 
L 460.8 6.330297 
L 460.8 6.330297 
" style="fill:none;stroke:#bf00bf;stroke-linecap:square;stroke-width:1.5;"/>
   </g>
   <g id="line2d_24">
    <path clip-path="url(#padebe18857)" d="M 246.659099 293.76 
L 246.697031 286.095208 
L 248.603493 286.095208 
L 248.603493 282.262812 
L 248.981306 282.262812 
L 248.981306 278.430416 
L 249.989171 278.430416 
L 249.989171 274.59802 
L 250.600181 274.59802 
L 250.600181 270.765624 
L 251.836785 270.765624 
L 251.836785 266.933228 
L 252.34577 266.933228 
L 252.34577 263.100832 
L 252.504981 263.100832 
L 252.583415 255.43604 
L 252.640505 255.43604 
L 252.640505 251.603644 
L 252.881955 251.603644 
L 252.881955 247.771248 
L 255.799688 247.771248 
L 255.799688 243.938851 
L 256.607866 243.938851 
L 256.607866 240.106455 
L 258.077159 240.106455 
L 258.077159 236.274059 
L 278.740656 236.274059 
L 278.740656 232.441663 
L 280.576282 232.441663 
L 280.576282 228.609267 
L 281.621606 228.609267 
L 281.621606 224.776871 
L 282.412098 224.776871 
L 282.412098 220.944475 
L 286.748558 220.944475 
L 286.748558 217.112079 
L 292.978265 217.112079 
L 292.978265 213.279683 
L 294.409187 213.279683 
L 294.409187 209.447287 
L 295.243936 209.447287 
L 295.243936 205.614891 
L 295.684823 205.614891 
L 295.684823 201.782495 
L 296.121003 201.782495 
L 296.121003 197.950099 
L 296.51746 197.950099 
L 296.51746 194.117703 
L 296.983397 194.117703 
L 297.091294 186.452911 
L 297.113846 186.452911 
L 297.113846 182.620515 
L 297.897232 182.620515 
L 297.897232 178.788119 
L 298.167272 178.788119 
L 298.239171 167.290931 
L 298.786722 167.290931 
L 298.786722 163.458535 
L 299.454133 163.458535 
L 299.454133 159.626139 
L 303.497513 159.626139 
L 303.497513 155.793743 
L 304.388124 155.793743 
L 304.388124 151.961347 
L 309.141249 151.961347 
L 309.141249 148.12895 
L 313.206734 148.12895 
L 313.206734 144.296554 
L 317.0672 144.296554 
L 317.0672 140.464158 
L 322.938063 140.464158 
L 322.938063 136.631762 
L 327.193995 136.631762 
L 327.193995 132.799366 
L 343.846205 132.799366 
L 343.846205 128.96697 
L 345.476184 128.96697 
L 345.476184 125.134574 
L 353.699039 125.134574 
L 353.699039 121.302178 
L 369.960866 121.302178 
L 369.960866 117.469782 
L 373.247826 117.469782 
L 373.247826 113.637386 
L 375.63838 113.637386 
L 375.739523 105.972594 
L 377.393764 105.972594 
L 377.393764 102.140198 
L 377.828956 102.140198 
L 377.828956 98.307802 
L 380.979733 98.307802 
L 380.979733 94.475406 
L 381.332839 94.475406 
L 381.332839 90.64301 
L 381.52128 90.64301 
L 381.52128 86.810614 
L 381.660381 86.810614 
L 381.660381 82.978218 
L 381.869627 82.978218 
L 381.869627 79.145822 
L 382.659351 79.145822 
L 382.659351 75.313426 
L 383.961062 75.313426 
L 383.961062 71.48103 
L 385.415885 71.48103 
L 385.415885 67.648634 
L 392.11616 67.648634 
L 392.11616 63.816238 
L 421.144302 63.816238 
L 421.144302 59.983842 
L 422.655603 59.983842 
L 422.655603 56.151446 
L 423.478248 56.151446 
L 423.478248 52.31905 
L 425.983263 52.31905 
L 425.983263 48.486653 
L 427.162458 48.486653 
L 427.162458 44.654257 
L 427.352716 44.654257 
L 427.352716 40.821861 
L 429.082435 40.821861 
L 429.082435 36.989465 
L 429.94218 36.989465 
L 429.94218 33.157069 
L 430.329067 33.157069 
L 430.329067 29.324673 
L 430.977914 29.324673 
L 430.977914 25.492277 
L 431.561049 25.492277 
L 431.561049 21.659881 
L 432.093368 21.659881 
L 432.093368 17.827485 
L 432.370895 17.827485 
L 432.370895 13.995089 
L 434.193717 13.995089 
L 434.193717 10.162693 
L 435.520986 10.162693 
L 435.520986 6.330297 
L 435.520986 6.330297 
L 460.8 6.330297 
L 460.8 6.330297 
" style="fill:none;stroke:#000000;stroke-linecap:square;stroke-width:1.5;"/>
   </g>
   <g id="line2d_25">
    <path clip-path="url(#padebe18857)" d="M 239.46657 293.76 
L 239.46657 289.927604 
L 244.885429 289.927604 
L 244.885429 286.095208 
L 246.659099 286.095208 
L 246.659099 282.262812 
L 248.52148 282.262812 
L 248.52148 278.430416 
L 248.981306 278.430416 
L 248.981306 274.59802 
L 250.251505 274.59802 
L 250.251505 270.765624 
L 250.600181 270.765624 
L 250.600181 266.933228 
L 251.836785 266.933228 
L 251.836785 263.100832 
L 252.34577 263.100832 
L 252.392312 255.43604 
L 252.504981 255.43604 
L 252.504981 251.603644 
L 252.633323 251.603644 
L 252.633323 247.771248 
L 255.385764 247.771248 
L 255.385764 243.938851 
L 256.607866 243.938851 
L 256.607866 240.106455 
L 258.077159 240.106455 
L 258.077159 236.274059 
L 278.740656 236.274059 
L 278.740656 232.441663 
L 280.576282 232.441663 
L 280.576282 228.609267 
L 281.621606 228.609267 
L 281.621606 224.776871 
L 282.412098 224.776871 
L 282.412098 220.944475 
L 283.803456 220.944475 
L 283.803456 217.112079 
L 286.748558 217.112079 
L 286.748558 213.279683 
L 290.965845 213.279683 
L 290.965845 209.447287 
L 294.409187 209.447287 
L 294.409187 205.614891 
L 294.877187 205.614891 
L 294.877187 201.782495 
L 295.253752 201.782495 
L 295.253752 197.950099 
L 295.684823 197.950099 
L 295.684823 194.117703 
L 296.34934 194.117703 
L 296.34934 190.285307 
L 296.51746 190.285307 
L 296.51746 186.452911 
L 296.793826 186.452911 
L 296.793826 182.620515 
L 296.983397 182.620515 
L 297.091294 174.955723 
L 297.267057 174.955723 
L 297.267057 171.123327 
L 297.633844 171.123327 
L 297.633844 167.290931 
L 297.897232 167.290931 
L 297.897232 163.458535 
L 298.167272 163.458535 
L 298.167272 159.626139 
L 299.193776 159.626139 
L 299.193776 155.793743 
L 303.497513 155.793743 
L 303.497513 151.961347 
L 304.692846 151.961347 
L 304.692846 148.12895 
L 309.141249 148.12895 
L 309.141249 144.296554 
L 313.206734 144.296554 
L 313.206734 140.464158 
L 317.0672 140.464158 
L 317.0672 136.631762 
L 327.193995 136.631762 
L 327.193995 132.799366 
L 333.666332 132.799366 
L 333.666332 128.96697 
L 343.846205 128.96697 
L 343.846205 125.134574 
L 353.699039 125.134574 
L 353.699039 121.302178 
L 366.531872 121.302178 
L 366.531872 117.469782 
L 369.960866 117.469782 
L 369.993138 109.80499 
L 374.944582 109.80499 
L 374.944582 105.972594 
L 375.63838 105.972594 
L 375.739523 98.307802 
L 377.204279 98.307802 
L 377.204279 94.475406 
L 380.19054 94.475406 
L 380.19054 90.64301 
L 380.979733 90.64301 
L 380.979733 86.810614 
L 381.332839 86.810614 
L 381.332839 82.978218 
L 381.52128 82.978218 
L 381.52128 79.145822 
L 381.660381 79.145822 
L 381.660381 75.313426 
L 382.659351 75.313426 
L 382.659351 71.48103 
L 385.415885 71.48103 
L 385.415885 67.648634 
L 392.11616 67.648634 
L 392.11616 63.816238 
L 417.843611 63.816238 
L 417.843611 59.983842 
L 421.144302 59.983842 
L 421.144302 56.151446 
L 422.655603 56.151446 
L 422.655603 52.31905 
L 423.84256 52.31905 
L 423.937315 44.654257 
L 425.983263 44.654257 
L 425.983263 40.821861 
L 426.796243 40.821861 
L 426.796243 36.989465 
L 427.352716 36.989465 
L 427.352716 33.157069 
L 427.874953 33.157069 
L 427.874953 29.324673 
L 429.24095 29.324673 
L 429.24095 25.492277 
L 429.94218 25.492277 
L 429.94218 21.659881 
L 431.561049 21.659881 
L 431.561049 17.827485 
L 432.076708 17.827485 
L 432.076708 13.995089 
L 434.193717 13.995089 
L 434.193717 10.162693 
L 435.137091 10.162693 
L 435.137091 6.330297 
L 435.137091 6.330297 
L 460.8 6.330297 
L 460.8 6.330297 
" style="fill:none;stroke:#00bfbf;stroke-linecap:square;stroke-width:1.5;"/>
   </g>
   <g id="line2d_26">
    <path clip-path="url(#padebe18857)" d="M 239.208092 293.76 
L 239.208092 289.927604 
L 244.608521 289.927604 
L 244.696714 282.262812 
L 245.037541 282.262812 
L 245.037541 278.430416 
L 246.659099 278.430416 
L 246.659099 274.59802 
L 247.645415 274.59802 
L 247.645415 270.765624 
L 248.981306 270.765624 
L 248.981306 266.933228 
L 249.168106 266.933228 
L 249.168106 263.100832 
L 251.836785 263.100832 
L 251.836785 259.268436 
L 252.392312 259.268436 
L 252.392312 255.43604 
L 252.504981 255.43604 
L 252.504981 251.603644 
L 252.633323 251.603644 
L 252.633323 247.771248 
L 255.385764 247.771248 
L 255.385764 243.938851 
L 256.607866 243.938851 
L 256.607866 240.106455 
L 258.077159 240.106455 
L 258.077159 236.274059 
L 261.669471 236.274059 
L 261.669471 232.441663 
L 266.741989 232.441663 
L 266.741989 228.609267 
L 268.473419 228.609267 
L 268.473419 224.776871 
L 270.202673 224.776871 
L 270.202673 220.944475 
L 271.060685 220.944475 
L 271.060685 217.112079 
L 280.576282 217.112079 
L 280.576282 213.279683 
L 281.621606 213.279683 
L 281.621606 209.447287 
L 283.803456 209.447287 
L 283.803456 205.614891 
L 284.544546 205.614891 
L 284.544546 201.782495 
L 286.327865 201.782495 
L 286.327865 197.950099 
L 286.748558 197.950099 
L 286.748558 194.117703 
L 290.950038 194.117703 
L 290.950038 190.285307 
L 293.8542 190.285307 
L 293.950738 182.620515 
L 294.877187 182.620515 
L 294.920997 174.955723 
L 295.493311 174.955723 
L 295.493311 171.123327 
L 295.873896 171.123327 
L 295.873896 167.290931 
L 296.038521 167.290931 
L 296.038521 163.458535 
L 296.51746 163.458535 
L 296.590215 155.793743 
L 296.775409 155.793743 
L 296.775409 151.961347 
L 296.89462 151.961347 
L 296.89462 148.12895 
L 297.091294 148.12895 
L 297.108105 140.464158 
L 298.125079 140.464158 
L 298.125079 136.631762 
L 302.955618 136.631762 
L 302.955618 132.799366 
L 308.200649 132.799366 
L 308.200649 128.96697 
L 320.877206 128.96697 
L 320.877206 125.134574 
L 353.699039 125.134574 
L 353.699039 121.302178 
L 362.117255 121.302178 
L 362.117255 117.469782 
L 368.607645 117.469782 
L 368.607645 113.637386 
L 369.960866 113.637386 
L 370.012037 105.972594 
L 373.333645 105.972594 
L 373.333645 102.140198 
L 373.735776 102.140198 
L 373.735776 98.307802 
L 375.63838 98.307802 
L 375.739523 86.810614 
L 377.262765 86.810614 
L 377.262765 82.978218 
L 380.808947 82.978218 
L 380.808947 79.145822 
L 381.332839 79.145822 
L 381.332839 75.313426 
L 381.52128 75.313426 
L 381.52128 71.48103 
L 382.659351 71.48103 
L 382.659351 67.648634 
L 392.11616 67.648634 
L 392.11616 63.816238 
L 417.542673 63.816238 
L 417.542673 59.983842 
L 420.11023 59.983842 
L 420.11023 56.151446 
L 420.929196 56.151446 
L 420.929196 52.31905 
L 421.144302 52.31905 
L 421.144302 48.486653 
L 422.654507 48.486653 
L 422.654507 44.654257 
L 425.530836 44.654257 
L 425.530836 40.821861 
L 425.983263 40.821861 
L 425.983263 36.989465 
L 426.480836 36.989465 
L 426.480836 33.157069 
L 427.205361 33.157069 
L 427.205361 29.324673 
L 427.317766 29.324673 
L 427.317766 25.492277 
L 429.24095 25.492277 
L 429.24095 21.659881 
L 429.94218 21.659881 
L 429.94218 17.827485 
L 432.076708 17.827485 
L 432.076708 13.995089 
L 432.84156 13.995089 
L 432.84156 10.162693 
L 434.193717 10.162693 
L 434.193717 6.330297 
L 434.193717 6.330297 
L 460.8 6.330297 
L 460.8 6.330297 
" style="fill:none;stroke:#bf00bf;stroke-linecap:square;stroke-width:1.5;"/>
   </g>
   <g id="patch_3">
    <path d="M 0 293.76 
L 0 3.456 
" style="fill:none;stroke:#000000;stroke-linecap:square;stroke-linejoin:miter;stroke-width:0.8;"/>
   </g>
   <g id="patch_4">
    <path d="M 460.8 293.76 
L 460.8 3.456 
" style="fill:none;stroke:#000000;stroke-linecap:square;stroke-linejoin:miter;stroke-width:0.8;"/>
   </g>
   <g id="patch_5">
    <path d="M 0 293.76 
L 460.8 293.76 
" style="fill:none;stroke:#000000;stroke-linecap:square;stroke-linejoin:miter;stroke-width:0.8;"/>
   </g>
   <g id="patch_6">
    <path d="M 0 3.456 
L 460.8 3.456 
" style="fill:none;stroke:#000000;stroke-linecap:square;stroke-linejoin:miter;stroke-width:0.8;"/>
   </g>
   <g id="text_6">
    <!-- {f10-f14}, 20-D -->
    <defs>
     <path d="M 51.125 -9.28125 
L 51.125 -16.3125 
L 48.09375 -16.3125 
Q 35.9375 -16.3125 31.8125 -12.6875 
Q 27.6875 -9.078125 27.6875 1.703125 
L 27.6875 13.375 
Q 27.6875 20.75 25.046875 23.578125 
Q 22.40625 26.421875 15.484375 26.421875 
L 12.5 26.421875 
L 12.5 33.40625 
L 15.484375 33.40625 
Q 22.46875 33.40625 25.078125 36.203125 
Q 27.6875 39.015625 27.6875 46.296875 
L 27.6875 58.015625 
Q 27.6875 68.796875 31.8125 72.390625 
Q 35.9375 75.984375 48.09375 75.984375 
L 51.125 75.984375 
L 51.125 69 
L 47.796875 69 
Q 40.921875 69 38.8125 66.84375 
Q 36.71875 64.703125 36.71875 57.8125 
L 36.71875 45.703125 
Q 36.71875 38.03125 34.5 34.5625 
Q 32.28125 31.109375 26.90625 29.890625 
Q 32.328125 28.5625 34.515625 25.09375 
Q 36.71875 21.625 36.71875 14.015625 
L 36.71875 1.90625 
Q 36.71875 -4.984375 38.8125 -7.125 
Q 40.921875 -9.28125 47.796875 -9.28125 
z
" id="DejaVuSans-123"/>
     <path d="M 12.5 -9.28125 
L 15.921875 -9.28125 
Q 22.75 -9.28125 24.828125 -7.171875 
Q 26.90625 -5.078125 26.90625 1.90625 
L 26.90625 14.015625 
Q 26.90625 21.625 29.09375 25.09375 
Q 31.296875 28.5625 36.71875 29.890625 
Q 31.296875 31.109375 29.09375 34.5625 
Q 26.90625 38.03125 26.90625 45.703125 
L 26.90625 57.8125 
Q 26.90625 64.75 24.828125 66.875 
Q 22.75 69 15.921875 69 
L 12.5 69 
L 12.5 75.984375 
L 15.578125 75.984375 
Q 27.734375 75.984375 31.8125 72.390625 
Q 35.890625 68.796875 35.890625 58.015625 
L 35.890625 46.296875 
Q 35.890625 39.015625 38.515625 36.203125 
Q 41.15625 33.40625 48.09375 33.40625 
L 51.125 33.40625 
L 51.125 26.421875 
L 48.09375 26.421875 
Q 41.15625 26.421875 38.515625 23.578125 
Q 35.890625 20.75 35.890625 13.375 
L 35.890625 1.703125 
Q 35.890625 -9.078125 31.8125 -12.6875 
Q 27.734375 -16.3125 15.578125 -16.3125 
L 12.5 -16.3125 
z
" id="DejaVuSans-125"/>
     <path d="M 11.71875 12.40625 
L 22.015625 12.40625 
L 22.015625 4 
L 14.015625 -11.625 
L 7.71875 -11.625 
L 11.71875 4 
z
" id="DejaVuSans-44"/>
     <path d="M 19.1875 8.296875 
L 53.609375 8.296875 
L 53.609375 0 
L 7.328125 0 
L 7.328125 8.296875 
Q 12.9375 14.109375 22.625 23.890625 
Q 32.328125 33.6875 34.8125 36.53125 
Q 39.546875 41.84375 41.421875 45.53125 
Q 43.3125 49.21875 43.3125 52.78125 
Q 43.3125 58.59375 39.234375 62.25 
Q 35.15625 65.921875 28.609375 65.921875 
Q 23.96875 65.921875 18.8125 64.3125 
Q 13.671875 62.703125 7.8125 59.421875 
L 7.8125 69.390625 
Q 13.765625 71.78125 18.9375 73 
Q 24.125 74.21875 28.421875 74.21875 
Q 39.75 74.21875 46.484375 68.546875 
Q 53.21875 62.890625 53.21875 53.421875 
Q 53.21875 48.921875 51.53125 44.890625 
Q 49.859375 40.875 45.40625 35.40625 
Q 44.1875 33.984375 37.640625 27.21875 
Q 31.109375 20.453125 19.1875 8.296875 
z
" id="DejaVuSans-50"/>
    </defs>
    <g transform="translate(293.159 287.95392)scale(0.2 -0.2)">
     <use xlink:href="#DejaVuSans-123"/>
     <use x="63.623047" xlink:href="#DejaVuSans-102"/>
     <use x="98.828125" xlink:href="#DejaVuSans-49"/>
     <use x="162.451172" xlink:href="#DejaVuSans-48"/>
     <use x="226.074219" xlink:href="#DejaVuSans-45"/>
     <use x="262.158203" xlink:href="#DejaVuSans-102"/>
     <use x="297.363281" xlink:href="#DejaVuSans-49"/>
     <use x="360.986328" xlink:href="#DejaVuSans-52"/>
     <use x="424.609375" xlink:href="#DejaVuSans-125"/>
     <use x="488.232422" xlink:href="#DejaVuSans-44"/>
     <use x="520.019531" xlink:href="#DejaVuSans-32"/>
     <use x="551.806641" xlink:href="#DejaVuSans-50"/>
     <use x="615.429688" xlink:href="#DejaVuSans-48"/>
     <use x="679.052734" xlink:href="#DejaVuSans-45"/>
     <use x="715.136719" xlink:href="#DejaVuSans-68"/>
    </g>
   </g>
   <g id="text_7">
    <!-- v2.4 -->
    <defs>
     <path d="M 2.984375 54.6875 
L 12.5 54.6875 
L 29.59375 8.796875 
L 46.6875 54.6875 
L 56.203125 54.6875 
L 35.6875 0 
L 23.484375 0 
z
" id="DejaVuSans-118"/>
     <path d="M 10.6875 12.40625 
L 21 12.40625 
L 21 0 
L 10.6875 0 
z
" id="DejaVuSans-46"/>
    </defs>
    <g style="fill:#808080;" transform="translate(219.489063 288.777272)scale(0.1 -0.1)">
     <use xlink:href="#DejaVuSans-118"/>
     <use x="59.179688" xlink:href="#DejaVuSans-50"/>
     <use x="122.802734" xlink:href="#DejaVuSans-46"/>
     <use x="154.589844" xlink:href="#DejaVuSans-52"/>
    </g>
   </g>
  </g>
 </g>
 <defs>
  <clipPath id="padebe18857">
   <rect height="290.304" width="460.8" x="0" y="3.456"/>
  </clipPath>
 </defs>
</svg>
