<?xml version="1.0" encoding="utf-8" standalone="no"?>
<!DOCTYPE svg PUBLIC "-//W3C//DTD SVG 1.1//EN"
  "http://www.w3.org/Graphics/SVG/1.1/DTD/svg11.dtd">
<!-- Created with matplotlib (https://matplotlib.org/) -->
<svg height="345.6pt" version="1.1" viewBox="0 0 460.8 345.6" width="460.8pt" xmlns="http://www.w3.org/2000/svg" xmlns:xlink="http://www.w3.org/1999/xlink">
 <defs>
  <style type="text/css">
*{stroke-linecap:butt;stroke-linejoin:round;}
  </style>
 </defs>
 <g id="figure_1">
  <g id="patch_1">
   <path d="M 0 345.6 
L 460.8 345.6 
L 460.8 0 
L 0 0 
z
" style="fill:#ffffff;"/>
  </g>
  <g id="axes_1">
   <g id="patch_2">
    <path d="M 62.208 293.76 
L 460.8 293.76 
L 460.8 3.456 
L 62.208 3.456 
z
" style="fill:#ffffff;"/>
   </g>
   <g id="line2d_1">
    <path clip-path="url(#p86d9c6bacd)" d="M 308.191903 293.76 
L 308.191903 281.783762 
L 318.189908 281.783762 
L 318.189908 280.985347 
L 322.78673 280.985347 
L 322.78673 279.388515 
L 327.15168 279.388515 
L 327.15168 276.194851 
L 331.307029 276.194851 
L 331.307029 273.799604 
L 335.271989 273.799604 
L 335.271989 270.605941 
L 339.063244 270.605941 
L 339.063244 269.807525 
L 461.8 269.807525 
L 461.8 269.807525 
" style="fill:none;stroke:#f5deb3;stroke-linecap:square;stroke-width:1.5;"/>
   </g>
   <g id="line2d_2">
    <path clip-path="url(#p86d9c6bacd)" style="fill:none;stroke:#f5deb3;stroke-linecap:square;stroke-width:1.5;"/>
   </g>
   <g id="line2d_3">
    <path clip-path="url(#p86d9c6bacd)" d="M 274.722492 293.76 
L 274.722492 290.566337 
L 275.09317 290.566337 
L 275.09317 289.767921 
L 275.462267 289.767921 
L 275.462267 282.582178 
L 275.829797 282.582178 
L 275.829797 281.783762 
L 276.195772 281.783762 
L 276.195772 280.985347 
L 276.923114 280.985347 
L 276.923114 280.186931 
L 280.470871 280.186931 
L 280.470871 279.388515 
L 281.850233 279.388515 
L 281.850233 278.590099 
L 284.544713 278.590099 
L 284.544713 276.993267 
L 285.533902 276.993267 
L 285.533902 276.194851 
L 285.861136 276.194851 
L 285.861136 275.396436 
L 286.187137 275.396436 
L 286.187137 274.59802 
L 287.798974 274.59802 
L 287.798974 273.799604 
L 288.11777 273.799604 
L 288.11777 273.001188 
L 289.067175 273.001188 
L 289.067175 272.202772 
L 291.854458 272.202772 
L 291.854458 271.404356 
L 296.598284 271.404356 
L 296.598284 270.605941 
L 300.26993 270.605941 
L 300.26993 269.807525 
L 458.519846 269.807525 
L 458.519846 269.009109 
L 461.8 269.009109 
L 461.8 269.009109 
" style="fill:none;stroke:#f5deb3;stroke-linecap:square;stroke-width:1.5;"/>
   </g>
   <g id="line2d_4">
    <path clip-path="url(#p86d9c6bacd)" d="M 212.088247 293.76 
L 212.088247 292.961584 
L 213.606763 292.961584 
L 213.606763 292.163168 
L 215.835723 292.163168 
L 215.835723 291.364752 
L 218.721095 291.364752 
L 218.721095 290.566337 
L 221.513374 290.566337 
L 221.513374 289.767921 
L 231.248698 289.767921 
L 231.248698 288.171089 
L 231.860384 288.171089 
L 231.860384 287.372673 
L 236.025257 287.372673 
L 236.025257 285.775842 
L 241.101489 285.775842 
L 241.101489 284.977426 
L 246.926835 284.977426 
L 246.926835 284.17901 
L 247.945119 284.17901 
L 247.945119 283.380594 
L 249.946437 283.380594 
L 249.946437 282.582178 
L 284.544713 282.582178 
L 284.544713 281.783762 
L 441.810189 281.783762 
L 441.810189 280.985347 
L 445.709165 280.985347 
L 445.709165 280.186931 
L 446.274034 280.186931 
L 446.274034 279.388515 
L 446.936889 279.388515 
L 446.936889 278.590099 
L 447.896637 278.590099 
L 447.896637 277.791683 
L 450.128151 277.791683 
L 450.128151 276.993267 
L 450.421386 276.993267 
L 450.421386 276.194851 
L 450.567632 276.194851 
L 450.567632 275.396436 
L 450.713631 275.396436 
L 450.713631 274.59802 
L 451.246864 274.59802 
L 451.246864 273.799604 
L 451.53634 273.799604 
L 451.632617 272.202772 
L 453.817939 272.202772 
L 453.817939 271.404356 
L 454.192426 271.404356 
L 454.192426 270.605941 
L 454.611796 270.605941 
L 454.611796 269.807525 
L 461.8 269.807525 
L 461.8 269.807525 
" style="fill:none;stroke:#f5deb3;stroke-linecap:square;stroke-width:1.5;"/>
   </g>
   <g id="line2d_5">
    <path clip-path="url(#p86d9c6bacd)" style="fill:none;stroke:#f5deb3;stroke-linecap:square;stroke-width:1.5;"/>
   </g>
   <g id="line2d_6"/>
   <g id="line2d_7">
    <path clip-path="url(#p86d9c6bacd)" d="M 272.844909 293.76 
L 272.844909 292.961584 
L 290.626733 292.961584 
L 290.626733 292.163168 
L 292.158687 292.163168 
L 292.158687 291.364752 
L 293.365022 291.364752 
L 293.365022 290.566337 
L 293.663997 290.566337 
L 293.663997 289.767921 
L 294.554775 289.767921 
L 294.554775 288.969505 
L 296.019331 288.969505 
L 296.019331 287.372673 
L 296.598284 287.372673 
L 296.598284 286.574257 
L 304.32152 286.574257 
L 304.32152 285.775842 
L 306.920909 285.775842 
L 306.920909 284.977426 
L 309.195429 284.977426 
L 309.195429 284.17901 
L 311.411705 284.17901 
L 311.411705 283.380594 
L 323.635297 283.380594 
L 323.635297 281.783762 
L 461.8 281.783762 
L 461.8 281.783762 
" style="fill:none;stroke:#f5deb3;stroke-linecap:square;stroke-width:1.5;"/>
   </g>
   <g id="line2d_8">
    <path clip-path="url(#p86d9c6bacd)" d="M 0 0 
" style="fill:none;stroke:#f5deb3;stroke-linecap:square;stroke-width:1.5;"/>
   </g>
   <g id="line2d_9">
    <path clip-path="url(#p86d9c6bacd)" d="M 264.062408 293.76 
L 264.062408 292.961584 
L 266.954667 292.961584 
L 266.954667 292.163168 
L 272.464455 292.163168 
L 272.464455 291.364752 
L 273.976339 291.364752 
L 273.976339 290.566337 
L 274.350219 290.566337 
L 274.350219 289.767921 
L 275.462267 289.767921 
L 275.462267 288.969505 
L 277.644395 288.969505 
L 277.644395 288.171089 
L 278.002793 288.171089 
L 278.002793 287.372673 
L 280.122568 287.372673 
L 280.122568 286.574257 
L 286.835478 286.574257 
L 286.835478 285.775842 
L 288.435397 285.775842 
L 288.435397 284.977426 
L 294.554775 284.977426 
L 294.554775 284.17901 
L 296.598284 284.17901 
L 296.598284 283.380594 
L 300.26993 283.380594 
L 300.26993 282.582178 
L 303.259504 282.582178 
L 303.259504 281.783762 
L 461.8 281.783762 
L 461.8 281.783762 
" style="fill:none;stroke:#f5deb3;stroke-linecap:square;stroke-width:1.5;"/>
   </g>
   <g id="line2d_10">
    <path clip-path="url(#p86d9c6bacd)" d="M 329.747471 293.76 
L 329.747471 292.961584 
L 332.458529 292.961584 
L 332.458529 292.163168 
L 344.372817 292.163168 
L 344.372817 290.566337 
L 350.775228 290.566337 
L 350.775228 289.767921 
L 360.8153 289.767921 
L 360.8153 288.969505 
L 367.679817 288.969505 
L 367.679817 288.171089 
L 461.8 288.171089 
L 461.8 288.171089 
" style="fill:none;stroke:#f5deb3;stroke-linecap:square;stroke-width:1.5;"/>
   </g>
   <g id="line2d_11">
    <path clip-path="url(#p86d9c6bacd)" d="M 197.976654 293.76 
L 197.976654 292.961584 
L 211.318881 292.961584 
L 211.318881 292.163168 
L 213.606763 292.163168 
L 213.606763 291.364752 
L 215.099095 291.364752 
L 215.099095 290.566337 
L 217.290432 290.566337 
L 217.290432 289.767921 
L 219.427655 289.767921 
L 219.427655 288.969505 
L 224.881626 288.969505 
L 224.881626 288.171089 
L 230.632659 288.171089 
L 230.632659 287.372673 
L 231.248698 287.372673 
L 231.248698 286.574257 
L 234.855602 286.574257 
L 234.855602 285.775842 
L 242.190222 285.775842 
L 242.190222 284.977426 
L 249.946437 284.977426 
L 249.946437 284.17901 
L 250.439619 284.17901 
L 250.439619 283.380594 
L 265.3138 283.380594 
L 265.3138 282.582178 
L 278.002793 282.582178 
L 278.002793 281.783762 
L 426.58837 281.783762 
L 426.58837 280.985347 
L 427.800709 280.985347 
L 427.800709 280.186931 
L 429.804923 280.186931 
L 429.804923 279.388515 
L 429.990461 279.388515 
L 429.990461 278.590099 
L 432.18643 278.590099 
L 432.18643 277.791683 
L 432.666948 277.791683 
L 432.666948 276.993267 
L 434.4455 276.993267 
L 434.4455 276.194851 
L 435.263148 276.194851 
L 435.263148 275.396436 
L 435.437357 275.396436 
L 435.437357 274.59802 
L 437.160437 274.59802 
L 437.160437 273.799604 
L 437.783735 273.799604 
L 437.783735 273.001188 
L 438.234241 273.001188 
L 438.234241 272.202772 
L 439.461174 272.202772 
L 439.461174 271.404356 
L 440.943567 271.404356 
L 440.943567 270.605941 
L 442.454509 270.605941 
L 442.454509 269.807525 
L 461.8 269.807525 
L 461.8 269.807525 
" style="fill:none;stroke:#f5deb3;stroke-linecap:square;stroke-width:1.5;"/>
   </g>
   <g id="line2d_12">
    <path clip-path="url(#p86d9c6bacd)" d="M 128.461655 293.76 
L 128.461655 281.783762 
L 187.4434 281.783762 
L 187.4434 280.985347 
L 206.553284 280.985347 
L 206.553284 273.799604 
L 222.197592 273.799604 
L 222.197592 270.605941 
L 246.926835 270.605941 
L 246.926835 269.807525 
L 461.8 269.807525 
L 461.8 269.807525 
" style="fill:none;stroke:#f5deb3;stroke-linecap:square;stroke-width:1.5;"/>
   </g>
   <g id="line2d_13">
    <path clip-path="url(#p86d9c6bacd)" d="M 454.42566 293.76 
L 454.42566 292.961584 
L 454.42566 292.961584 
L 454.42566 292.163168 
L 455.812019 292.163168 
L 455.812019 291.364752 
L 455.812019 291.364752 
L 455.812019 290.566337 
L 457.895555 290.566337 
L 457.895555 289.767921 
L 458.119033 289.767921 
L 458.119033 288.969505 
L 458.119033 288.969505 
L 458.119033 288.171089 
L 458.119033 288.171089 
L 458.119033 287.372673 
L 459.315946 287.372673 
L 459.315946 286.574257 
L 461.8 286.574257 
" style="fill:none;stroke:#f5deb3;stroke-linecap:square;stroke-width:1.5;"/>
   </g>
   <g id="line2d_14">
    <path clip-path="url(#p86d9c6bacd)" d="M 242.729496 293.76 
L 242.729496 292.961584 
L 245.376587 292.961584 
L 245.376587 292.163168 
L 246.926835 292.163168 
L 246.926835 291.364752 
L 248.951562 291.364752 
L 248.951562 290.566337 
L 249.450429 290.566337 
L 249.450429 288.969505 
L 249.946437 288.969505 
L 249.946437 288.171089 
L 250.439619 288.171089 
L 250.439619 287.372673 
L 251.417631 287.372673 
L 251.417631 284.17901 
L 251.902524 284.17901 
L 251.902524 283.380594 
L 252.384715 283.380594 
L 252.384715 281.783762 
L 374.157528 281.783762 
L 374.157528 280.985347 
L 375.906136 280.985347 
L 375.906136 280.186931 
L 378.408503 280.186931 
L 378.408503 279.388515 
L 379.300812 279.388515 
L 379.300812 278.590099 
L 380.074106 278.590099 
L 380.074106 277.791683 
L 384.155532 277.791683 
L 384.155532 276.993267 
L 384.4697 276.993267 
L 384.4697 276.194851 
L 384.678513 276.194851 
L 384.678513 275.396436 
L 385.508766 275.396436 
L 385.508766 274.59802 
L 386.7394 274.59802 
L 386.7394 273.799604 
L 387.044344 273.799604 
L 387.044344 273.001188 
L 387.247045 273.001188 
L 387.247045 272.202772 
L 389.347224 272.202772 
L 389.347224 271.404356 
L 389.938033 271.404356 
L 389.938033 270.605941 
L 390.329677 270.605941 
L 390.329677 269.807525 
L 405.440048 269.807525 
L 405.440048 269.009109 
L 410.614881 269.009109 
L 410.614881 268.210693 
L 411.23092 268.210693 
L 411.23092 267.412277 
L 413.726728 267.412277 
L 413.726728 266.613861 
L 414.395095 266.613861 
L 414.395095 265.815446 
L 415.205042 265.815446 
L 415.205042 265.01703 
L 416.586432 265.01703 
L 416.586432 264.218614 
L 418.088011 264.218614 
L 418.088011 263.420198 
L 418.723655 263.420198 
L 418.723655 262.621782 
L 422.172444 262.621782 
L 422.172444 261.823366 
L 423.047066 261.823366 
L 423.047066 261.02495 
L 432.906211 261.02495 
L 432.906211 260.226535 
L 436.989664 260.226535 
L 436.989664 259.428119 
L 443.094067 259.428119 
L 443.094067 258.629703 
L 461.8 258.629703 
L 461.8 258.629703 
" style="fill:none;stroke:#f5deb3;stroke-linecap:square;stroke-width:1.5;"/>
   </g>
   <g id="line2d_15"/>
   <g id="line2d_16">
    <path clip-path="url(#p86d9c6bacd)" d="M 0 0 
" style="fill:none;stroke:#f5deb3;stroke-linecap:square;stroke-width:1.5;"/>
   </g>
   <g id="line2d_17">
    <path clip-path="url(#p86d9c6bacd)" d="M 0 0 
" style="fill:none;stroke:#f5deb3;stroke-linecap:square;stroke-width:1.5;"/>
   </g>
   <g id="line2d_18">
    <path clip-path="url(#p86d9c6bacd)" d="M 128.461655 293.76 
L 128.461655 287.372673 
L 130.451471 287.372673 
L 130.451471 282.582178 
L 134.298911 282.582178 
L 134.298911 281.783762 
L 136.160341 281.783762 
L 136.160341 280.186931 
L 141.515852 280.186931 
L 141.515852 279.388515 
L 143.229832 279.388515 
L 143.229832 278.590099 
L 146.55921 278.590099 
L 146.55921 277.791683 
L 155.841648 277.791683 
L 155.841648 276.993267 
L 157.296358 276.993267 
L 157.296358 275.396436 
L 161.5193 275.396436 
L 161.5193 274.59802 
L 178.887982 274.59802 
L 178.887982 273.799604 
L 180.004812 273.799604 
L 180.004812 272.202772 
L 186.419091 272.202772 
L 186.419091 271.404356 
L 188.455729 271.404356 
L 188.455729 270.605941 
L 191.423557 270.605941 
L 191.423557 269.807525 
L 403.111869 269.807525 
L 403.111869 269.009109 
L 461.8 269.009109 
L 461.8 269.009109 
" style="fill:none;stroke:#f5deb3;stroke-linecap:square;stroke-width:1.5;"/>
   </g>
   <g id="line2d_19">
    <path clip-path="url(#p86d9c6bacd)" style="fill:none;stroke:#f5deb3;stroke-linecap:square;stroke-width:1.5;"/>
   </g>
   <g id="line2d_20">
    <path clip-path="url(#p86d9c6bacd)" d="M 238.882056 293.76 
L 238.882056 292.961584 
L 249.946437 292.961584 
L 249.946437 292.163168 
L 250.930006 292.163168 
L 250.930006 291.364752 
L 257.518752 291.364752 
L 257.518752 290.566337 
L 270.145929 290.566337 
L 270.145929 289.767921 
L 275.09317 289.767921 
L 275.09317 288.969505 
L 277.284506 288.969505 
L 277.284506 288.171089 
L 278.359714 288.171089 
L 278.359714 287.372673 
L 288.11777 287.372673 
L 288.11777 286.574257 
L 292.158687 286.574257 
L 292.158687 285.775842 
L 294.849676 285.775842 
L 294.849676 284.977426 
L 298.87613 284.977426 
L 298.87613 284.17901 
L 302.72357 284.17901 
L 302.72357 283.380594 
L 308.69512 283.380594 
L 308.69512 282.582178 
L 323.423934 282.582178 
L 323.423934 281.783762 
L 440.452252 281.783762 
L 440.452252 280.985347 
L 442.454509 280.985347 
L 442.454509 280.186931 
L 446.222835 280.186931 
L 446.222835 279.388515 
L 447.089138 279.388515 
L 447.089138 278.590099 
L 452.874571 278.590099 
L 452.874571 277.791683 
L 456.451464 277.791683 
L 456.451464 276.194851 
L 456.905336 276.194851 
L 456.905336 274.59802 
L 457.131383 274.59802 
L 457.131383 273.799604 
L 457.806001 273.799604 
L 457.806001 273.001188 
L 461.8 273.001188 
L 461.8 273.001188 
" style="fill:none;stroke:#f5deb3;stroke-linecap:square;stroke-width:1.5;"/>
   </g>
   <g id="line2d_21">
    <path clip-path="url(#p86d9c6bacd)" d="M 0 0 
" style="fill:none;stroke:#f5deb3;stroke-linecap:square;stroke-width:1.5;"/>
   </g>
   <g id="line2d_22">
    <path clip-path="url(#p86d9c6bacd)" d="M 279.772858 293.76 
L 279.772858 292.961584 
L 286.187137 292.961584 
L 286.187137 292.163168 
L 294.849676 292.163168 
L 294.849676 291.364752 
L 299.99296 291.364752 
L 299.99296 290.566337 
L 306.149256 290.566337 
L 306.149256 289.767921 
L 311.896598 289.767921 
L 311.896598 288.969505 
L 312.138029 288.969505 
L 312.138029 288.171089 
L 313.335187 288.171089 
L 313.335187 287.372673 
L 315.449209 287.372673 
L 315.449209 286.574257 
L 316.142563 286.574257 
L 316.142563 285.775842 
L 322.359307 285.775842 
L 322.359307 284.977426 
L 322.78673 284.977426 
L 322.78673 284.17901 
L 324.266307 284.17901 
L 324.266307 283.380594 
L 331.692567 283.380594 
L 331.692567 282.582178 
L 360.540091 282.582178 
L 360.540091 281.783762 
L 447.645102 281.783762 
L 447.645102 280.985347 
L 461.8 280.985347 
L 461.8 280.985347 
" style="fill:none;stroke:#f5deb3;stroke-linecap:square;stroke-width:1.5;"/>
   </g>
   <g id="line2d_23">
    <path clip-path="url(#p86d9c6bacd)" d="M 367.933267 293.76 
L 367.933267 292.961584 
L 382.674146 292.961584 
L 382.674146 292.163168 
L 385.818069 292.163168 
L 385.818069 291.364752 
L 387.348217 291.364752 
L 387.348217 290.566337 
L 389.938033 290.566337 
L 389.938033 289.767921 
L 394.058109 289.767921 
L 394.058109 288.969505 
L 397.362766 288.969505 
L 397.362766 288.171089 
L 416.658529 288.171089 
L 416.658529 287.372673 
L 461.8 287.372673 
" style="fill:none;stroke:#f5deb3;stroke-linecap:square;stroke-width:1.5;"/>
   </g>
   <g id="line2d_24">
    <path clip-path="url(#p86d9c6bacd)" d="M 0 0 
" style="fill:none;stroke:#f5deb3;stroke-linecap:square;stroke-width:1.5;"/>
   </g>
   <g id="line2d_25">
    <path clip-path="url(#p86d9c6bacd)" d="M 377.5069 293.76 
L 377.5069 292.961584 
L 382.780804 292.961584 
L 382.780804 292.163168 
L 383.84022 292.163168 
L 383.84022 291.364752 
L 385.508766 291.364752 
L 385.508766 290.566337 
L 405.111261 290.566337 
L 405.111261 289.767921 
L 407.306715 289.767921 
L 407.306715 288.969505 
L 407.787122 288.969505 
L 407.787122 288.171089 
L 413.950091 288.171089 
L 413.950091 287.372673 
L 425.748982 287.372673 
L 425.748982 286.574257 
L 433.738459 286.574257 
L 433.738459 285.775842 
L 435.553303 285.775842 
L 435.553303 284.977426 
L 443.939526 284.977426 
L 443.939526 284.17901 
L 445.296022 284.17901 
L 445.296022 283.380594 
L 450.762242 283.380594 
L 450.762242 282.582178 
L 461.8 282.582178 
L 461.8 282.582178 
" style="fill:none;stroke:#f5deb3;stroke-linecap:square;stroke-width:1.5;"/>
   </g>
   <g id="line2d_26">
    <path clip-path="url(#p86d9c6bacd)" d="M 442.66822 293.76 
L 442.66822 292.991471 
L 444.04463 292.991471 
L 444.04463 292.222943 
L 448.945173 292.222943 
L 448.945173 291.454414 
L 450.128151 291.454414 
L 450.128151 290.685886 
L 450.323751 290.685886 
L 450.323751 289.917357 
L 450.762242 289.917357 
L 450.810827 288.3803 
L 452.112403 288.3803 
L 452.112403 286.843242 
L 453.771014 286.843242 
L 453.771014 286.074714 
L 455.444489 286.074714 
L 455.444489 285.306185 
L 456.314837 285.306185 
L 456.314837 284.537657 
L 458.297401 284.537657 
L 458.297401 283.769128 
L 458.697391 283.769128 
L 458.697391 283.000599 
L 461.8 283.000599 
L 461.8 283.000599 
" style="fill:none;stroke:#f5deb3;stroke-linecap:square;stroke-width:1.5;"/>
   </g>
   <g id="line2d_27">
    <path clip-path="url(#p86d9c6bacd)" d="M 370.673308 293.76 
L 370.673308 292.163168 
L 376.710218 292.163168 
L 376.710218 291.364752 
L 379.189775 291.364752 
L 379.189775 290.566337 
L 382.460435 290.566337 
L 382.460435 289.767921 
L 399.321872 289.767921 
L 399.321872 288.969505 
L 407.946667 288.969505 
L 408.026329 287.372673 
L 408.50277 287.372673 
L 408.50277 286.574257 
L 412.146835 286.574257 
L 412.146835 285.775842 
L 418.229669 285.775842 
L 418.229669 284.977426 
L 426.716788 284.977426 
L 426.716788 284.17901 
L 433.204362 284.17901 
L 433.204362 283.380594 
L 433.856701 283.380594 
L 433.856701 282.582178 
L 440.725549 282.582178 
L 440.725549 281.783762 
L 455.9952 281.783762 
L 455.9952 280.985347 
L 461.8 280.985347 
L 461.8 280.985347 
" style="fill:none;stroke:#f5deb3;stroke-linecap:square;stroke-width:1.5;"/>
   </g>
   <g id="line2d_28">
    <path clip-path="url(#p86d9c6bacd)" d="M 319.084522 293.76 
L 319.084522 292.961584 
L 319.306738 292.961584 
L 319.306738 292.163168 
L 319.528385 292.163168 
L 319.528385 291.364752 
L 319.749466 291.364752 
L 319.749466 290.566337 
L 328.159295 290.566337 
L 328.159295 287.372673 
L 328.359418 287.372673 
L 328.359418 286.574257 
L 336.372256 286.574257 
L 336.372256 284.977426 
L 336.917188 284.977426 
L 336.917188 284.17901 
L 344.704439 284.17901 
L 344.704439 283.380594 
L 350.929375 283.380594 
L 350.929375 282.582178 
L 363.653363 282.582178 
L 363.653363 281.783762 
L 461.8 281.783762 
L 461.8 281.783762 
" style="fill:none;stroke:#f5deb3;stroke-linecap:square;stroke-width:1.5;"/>
   </g>
   <g id="line2d_29">
    <path clip-path="url(#p86d9c6bacd)" d="M 122.202074 293.76 
L 122.202074 292.961584 
L 122.202074 292.961584 
L 122.202074 292.163168 
L 122.202074 292.163168 
L 122.202074 291.364752 
L 122.202074 291.364752 
L 122.202074 290.566337 
L 122.202074 290.566337 
L 122.202074 289.767921 
L 122.202074 289.767921 
L 122.202074 288.969505 
L 124.339297 288.969505 
L 124.339297 288.171089 
L 124.339297 288.171089 
L 124.339297 287.372673 
L 124.339297 287.372673 
L 124.339297 286.574257 
L 124.339297 286.574257 
L 124.339297 285.775842 
L 124.339297 285.775842 
L 124.339297 284.977426 
L 124.339297 284.977426 
L 124.339297 284.17901 
L 124.339297 284.17901 
L 124.339297 283.380594 
L 124.339297 283.380594 
L 124.339297 282.582178 
L 124.339297 282.582178 
L 124.339297 281.783762 
L 165.545754 281.783762 
L 165.545754 280.985347 
L 165.545754 280.985347 
L 165.545754 280.186931 
L 165.545754 280.186931 
L 165.545754 279.388515 
L 310.187453 279.388515 
L 310.187453 278.590099 
L 310.187453 278.590099 
L 310.187453 277.791683 
L 310.187453 277.791683 
L 310.187453 276.993267 
L 311.411705 276.993267 
L 311.411705 276.194851 
L 311.411705 276.194851 
L 311.411705 275.396436 
L 311.411705 275.396436 
L 311.411705 274.59802 
L 312.378789 274.59802 
L 312.378789 273.799604 
L 312.378789 273.799604 
L 312.378789 273.001188 
L 312.378789 273.001188 
L 312.378789 272.202772 
L 312.858309 272.202772 
L 312.858309 271.404356 
L 312.858309 271.404356 
L 312.858309 270.605941 
L 312.858309 270.605941 
L 312.858309 269.807525 
L 461.8 269.807525 
" style="fill:none;stroke:#f5deb3;stroke-linecap:square;stroke-width:1.5;"/>
   </g>
   <g id="line2d_30">
    <path clip-path="url(#p86d9c6bacd)" d="M 312.618881 293.76 
L 312.618881 292.961584 
L 312.618881 292.961584 
L 312.618881 292.163168 
L 313.809452 292.163168 
L 313.809452 291.364752 
L 315.912062 291.364752 
L 315.912062 290.566337 
L 316.830406 290.566337 
L 316.830406 289.767921 
L 316.830406 289.767921 
L 316.830406 288.969505 
L 318.189908 288.969505 
L 318.189908 288.171089 
L 318.63837 288.171089 
L 318.63837 287.372673 
L 318.861734 287.372673 
L 318.861734 286.574257 
L 319.084522 286.574257 
L 319.084522 285.775842 
L 319.749466 285.775842 
L 319.749466 284.977426 
L 321.064223 284.977426 
L 321.064223 284.17901 
L 322.1448 284.17901 
L 322.1448 283.380594 
L 322.359307 283.380594 
L 322.359307 282.582178 
L 324.266307 282.582178 
L 324.266307 281.783762 
L 324.684439 281.783762 
L 324.684439 280.985347 
L 325.307874 280.985347 
L 325.307874 280.186931 
L 326.745326 280.186931 
L 326.745326 279.388515 
L 327.354143 279.388515 
L 327.354143 278.590099 
L 328.159295 278.590099 
L 328.159295 277.791683 
L 329.550535 277.791683 
L 329.550535 276.993267 
L 330.140003 276.993267 
L 330.140003 276.194851 
L 332.076395 276.194851 
L 332.076395 275.396436 
L 334.157555 275.396436 
L 334.157555 274.59802 
L 334.716566 274.59802 
L 334.716566 273.799604 
L 335.087244 273.799604 
L 335.087244 273.001188 
L 336.554281 273.001188 
L 336.554281 272.202772 
L 337.638469 272.202772 
L 337.638469 271.404356 
L 337.996867 271.404356 
L 337.996867 270.605941 
L 357.167464 270.605941 
L 357.167464 269.807525 
L 363.786215 269.807525 
L 363.786215 269.009109 
L 363.786215 269.009109 
L 363.786215 268.210693 
L 363.786215 268.210693 
L 363.786215 267.412277 
L 363.786215 267.412277 
L 363.786215 266.613861 
L 363.786215 266.613861 
L 363.786215 265.815446 
L 363.786215 265.815446 
L 363.786215 265.01703 
L 363.786215 265.01703 
L 363.786215 264.218614 
L 363.786215 264.218614 
L 363.786215 263.420198 
L 363.786215 263.420198 
L 363.786215 262.621782 
L 363.786215 262.621782 
L 363.786215 261.823366 
L 363.786215 261.823366 
L 363.786215 261.02495 
L 363.786215 261.02495 
L 363.786215 260.226535 
L 363.786215 260.226535 
L 363.786215 259.428119 
L 363.786215 259.428119 
L 363.786215 258.629703 
L 363.786215 258.629703 
L 363.786215 257.831287 
L 461.8 257.831287 
" style="fill:none;stroke:#f5deb3;stroke-linecap:square;stroke-width:1.5;"/>
   </g>
   <g id="matplotlib.axis_1">
    <g id="xtick_1">
     <g id="line2d_31">
      <path clip-path="url(#p86d9c6bacd)" d="M 62.208 293.76 
L 62.208 3.456 
" style="fill:none;stroke:#b0b0b0;stroke-linecap:square;stroke-width:0.8;"/>
     </g>
     <g id="line2d_32">
      <defs>
       <path d="M 0 0 
L 0 3.5 
" id="md699924a75" style="stroke:#000000;stroke-width:0.8;"/>
      </defs>
      <g>
       <use style="stroke:#000000;stroke-width:0.8;" x="62.208" xlink:href="#md699924a75" y="293.76"/>
      </g>
     </g>
     <g id="text_1">
      <!-- 0 -->
      <defs>
       <path d="M 31.78125 66.40625 
Q 24.171875 66.40625 20.328125 58.90625 
Q 16.5 51.421875 16.5 36.375 
Q 16.5 21.390625 20.328125 13.890625 
Q 24.171875 6.390625 31.78125 6.390625 
Q 39.453125 6.390625 43.28125 13.890625 
Q 47.125 21.390625 47.125 36.375 
Q 47.125 51.421875 43.28125 58.90625 
Q 39.453125 66.40625 31.78125 66.40625 
z
M 31.78125 74.21875 
Q 44.046875 74.21875 50.515625 64.515625 
Q 56.984375 54.828125 56.984375 36.375 
Q 56.984375 17.96875 50.515625 8.265625 
Q 44.046875 -1.421875 31.78125 -1.421875 
Q 19.53125 -1.421875 13.0625 8.265625 
Q 6.59375 17.96875 6.59375 36.375 
Q 6.59375 54.828125 13.0625 64.515625 
Q 19.53125 74.21875 31.78125 74.21875 
z
" id="DejaVuSans-48"/>
      </defs>
      <g transform="translate(55.8455 315.956875)scale(0.2 -0.2)">
       <use xlink:href="#DejaVuSans-48"/>
      </g>
     </g>
    </g>
    <g id="xtick_2">
     <g id="line2d_33">
      <path clip-path="url(#p86d9c6bacd)" d="M 460.8 293.76 
L 460.8 3.456 
" style="fill:none;stroke:#b0b0b0;stroke-linecap:square;stroke-width:0.8;"/>
     </g>
     <g id="line2d_34">
      <g>
       <use style="stroke:#000000;stroke-width:0.8;" x="460.8" xlink:href="#md699924a75" y="293.76"/>
      </g>
     </g>
     <g id="text_2">
      <!-- 2 -->
      <defs>
       <path d="M 19.1875 8.296875 
L 53.609375 8.296875 
L 53.609375 0 
L 7.328125 0 
L 7.328125 8.296875 
Q 12.9375 14.109375 22.625 23.890625 
Q 32.328125 33.6875 34.8125 36.53125 
Q 39.546875 41.84375 41.421875 45.53125 
Q 43.3125 49.21875 43.3125 52.78125 
Q 43.3125 58.59375 39.234375 62.25 
Q 35.15625 65.921875 28.609375 65.921875 
Q 23.96875 65.921875 18.8125 64.3125 
Q 13.671875 62.703125 7.8125 59.421875 
L 7.8125 69.390625 
Q 13.765625 71.78125 18.9375 73 
Q 24.125 74.21875 28.421875 74.21875 
Q 39.75 74.21875 46.484375 68.546875 
Q 53.21875 62.890625 53.21875 53.421875 
Q 53.21875 48.921875 51.53125 44.890625 
Q 49.859375 40.875 45.40625 35.40625 
Q 44.1875 33.984375 37.640625 27.21875 
Q 31.109375 20.453125 19.1875 8.296875 
z
" id="DejaVuSans-50"/>
      </defs>
      <g transform="translate(454.4375 315.956875)scale(0.2 -0.2)">
       <use xlink:href="#DejaVuSans-50"/>
      </g>
     </g>
    </g>
    <g id="xtick_3">
     <g id="line2d_35">
      <path clip-path="url(#p86d9c6bacd)" d="M 122.202074 293.76 
L 122.202074 3.456 
" style="fill:none;stroke:#b0b0b0;stroke-linecap:square;stroke-width:0.8;"/>
     </g>
     <g id="line2d_36">
      <defs>
       <path d="M 0 0 
L 0 2 
" id="m5d42f5b009" style="stroke:#000000;stroke-width:0.6;"/>
      </defs>
      <g>
       <use style="stroke:#000000;stroke-width:0.6;" x="122.202074" xlink:href="#m5d42f5b009" y="293.76"/>
      </g>
     </g>
    </g>
    <g id="xtick_4">
     <g id="line2d_37">
      <path clip-path="url(#p86d9c6bacd)" d="M 157.296358 293.76 
L 157.296358 3.456 
" style="fill:none;stroke:#b0b0b0;stroke-linecap:square;stroke-width:0.8;"/>
     </g>
     <g id="line2d_38">
      <g>
       <use style="stroke:#000000;stroke-width:0.6;" x="157.296358" xlink:href="#m5d42f5b009" y="293.76"/>
      </g>
     </g>
    </g>
    <g id="xtick_5">
     <g id="line2d_39">
      <path clip-path="url(#p86d9c6bacd)" d="M 182.196148 293.76 
L 182.196148 3.456 
" style="fill:none;stroke:#b0b0b0;stroke-linecap:square;stroke-width:0.8;"/>
     </g>
     <g id="line2d_40">
      <g>
       <use style="stroke:#000000;stroke-width:0.6;" x="182.196148" xlink:href="#m5d42f5b009" y="293.76"/>
      </g>
     </g>
    </g>
    <g id="xtick_6">
     <g id="line2d_41">
      <path clip-path="url(#p86d9c6bacd)" d="M 201.509926 293.76 
L 201.509926 3.456 
" style="fill:none;stroke:#b0b0b0;stroke-linecap:square;stroke-width:0.8;"/>
     </g>
     <g id="line2d_42">
      <g>
       <use style="stroke:#000000;stroke-width:0.6;" x="201.509926" xlink:href="#m5d42f5b009" y="293.76"/>
      </g>
     </g>
    </g>
    <g id="xtick_7">
     <g id="line2d_43">
      <path clip-path="url(#p86d9c6bacd)" d="M 217.290432 293.76 
L 217.290432 3.456 
" style="fill:none;stroke:#b0b0b0;stroke-linecap:square;stroke-width:0.8;"/>
     </g>
     <g id="line2d_44">
      <g>
       <use style="stroke:#000000;stroke-width:0.6;" x="217.290432" xlink:href="#m5d42f5b009" y="293.76"/>
      </g>
     </g>
    </g>
    <g id="xtick_8">
     <g id="line2d_45">
      <path clip-path="url(#p86d9c6bacd)" d="M 230.632659 293.76 
L 230.632659 3.456 
" style="fill:none;stroke:#b0b0b0;stroke-linecap:square;stroke-width:0.8;"/>
     </g>
     <g id="line2d_46">
      <g>
       <use style="stroke:#000000;stroke-width:0.6;" x="230.632659" xlink:href="#m5d42f5b009" y="293.76"/>
      </g>
     </g>
    </g>
    <g id="xtick_9">
     <g id="line2d_47">
      <path clip-path="url(#p86d9c6bacd)" d="M 242.190222 293.76 
L 242.190222 3.456 
" style="fill:none;stroke:#b0b0b0;stroke-linecap:square;stroke-width:0.8;"/>
     </g>
     <g id="line2d_48">
      <g>
       <use style="stroke:#000000;stroke-width:0.6;" x="242.190222" xlink:href="#m5d42f5b009" y="293.76"/>
      </g>
     </g>
    </g>
    <g id="xtick_10">
     <g id="line2d_49">
      <path clip-path="url(#p86d9c6bacd)" d="M 252.384715 293.76 
L 252.384715 3.456 
" style="fill:none;stroke:#b0b0b0;stroke-linecap:square;stroke-width:0.8;"/>
     </g>
     <g id="line2d_50">
      <g>
       <use style="stroke:#000000;stroke-width:0.6;" x="252.384715" xlink:href="#m5d42f5b009" y="293.76"/>
      </g>
     </g>
    </g>
    <g id="xtick_11">
     <g id="line2d_51">
      <path clip-path="url(#p86d9c6bacd)" d="M 321.498074 293.76 
L 321.498074 3.456 
" style="fill:none;stroke:#b0b0b0;stroke-linecap:square;stroke-width:0.8;"/>
     </g>
     <g id="line2d_52">
      <g>
       <use style="stroke:#000000;stroke-width:0.6;" x="321.498074" xlink:href="#m5d42f5b009" y="293.76"/>
      </g>
     </g>
    </g>
    <g id="xtick_12">
     <g id="line2d_53">
      <path clip-path="url(#p86d9c6bacd)" d="M 356.592358 293.76 
L 356.592358 3.456 
" style="fill:none;stroke:#b0b0b0;stroke-linecap:square;stroke-width:0.8;"/>
     </g>
     <g id="line2d_54">
      <g>
       <use style="stroke:#000000;stroke-width:0.6;" x="356.592358" xlink:href="#m5d42f5b009" y="293.76"/>
      </g>
     </g>
    </g>
    <g id="xtick_13">
     <g id="line2d_55">
      <path clip-path="url(#p86d9c6bacd)" d="M 381.492148 293.76 
L 381.492148 3.456 
" style="fill:none;stroke:#b0b0b0;stroke-linecap:square;stroke-width:0.8;"/>
     </g>
     <g id="line2d_56">
      <g>
       <use style="stroke:#000000;stroke-width:0.6;" x="381.492148" xlink:href="#m5d42f5b009" y="293.76"/>
      </g>
     </g>
    </g>
    <g id="xtick_14">
     <g id="line2d_57">
      <path clip-path="url(#p86d9c6bacd)" d="M 400.805926 293.76 
L 400.805926 3.456 
" style="fill:none;stroke:#b0b0b0;stroke-linecap:square;stroke-width:0.8;"/>
     </g>
     <g id="line2d_58">
      <g>
       <use style="stroke:#000000;stroke-width:0.6;" x="400.805926" xlink:href="#m5d42f5b009" y="293.76"/>
      </g>
     </g>
    </g>
    <g id="xtick_15">
     <g id="line2d_59">
      <path clip-path="url(#p86d9c6bacd)" d="M 416.586432 293.76 
L 416.586432 3.456 
" style="fill:none;stroke:#b0b0b0;stroke-linecap:square;stroke-width:0.8;"/>
     </g>
     <g id="line2d_60">
      <g>
       <use style="stroke:#000000;stroke-width:0.6;" x="416.586432" xlink:href="#m5d42f5b009" y="293.76"/>
      </g>
     </g>
    </g>
    <g id="xtick_16">
     <g id="line2d_61">
      <path clip-path="url(#p86d9c6bacd)" d="M 429.928659 293.76 
L 429.928659 3.456 
" style="fill:none;stroke:#b0b0b0;stroke-linecap:square;stroke-width:0.8;"/>
     </g>
     <g id="line2d_62">
      <g>
       <use style="stroke:#000000;stroke-width:0.6;" x="429.928659" xlink:href="#m5d42f5b009" y="293.76"/>
      </g>
     </g>
    </g>
    <g id="xtick_17">
     <g id="line2d_63">
      <path clip-path="url(#p86d9c6bacd)" d="M 441.486222 293.76 
L 441.486222 3.456 
" style="fill:none;stroke:#b0b0b0;stroke-linecap:square;stroke-width:0.8;"/>
     </g>
     <g id="line2d_64">
      <g>
       <use style="stroke:#000000;stroke-width:0.6;" x="441.486222" xlink:href="#m5d42f5b009" y="293.76"/>
      </g>
     </g>
    </g>
    <g id="xtick_18">
     <g id="line2d_65">
      <path clip-path="url(#p86d9c6bacd)" d="M 451.680715 293.76 
L 451.680715 3.456 
" style="fill:none;stroke:#b0b0b0;stroke-linecap:square;stroke-width:0.8;"/>
     </g>
     <g id="line2d_66">
      <g>
       <use style="stroke:#000000;stroke-width:0.6;" x="451.680715" xlink:href="#m5d42f5b009" y="293.76"/>
      </g>
     </g>
    </g>
    <g id="text_3">
     <!-- log10 of FEvals / DIM -->
     <defs>
      <path d="M 9.421875 75.984375 
L 18.40625 75.984375 
L 18.40625 0 
L 9.421875 0 
z
" id="DejaVuSans-108"/>
      <path d="M 30.609375 48.390625 
Q 23.390625 48.390625 19.1875 42.75 
Q 14.984375 37.109375 14.984375 27.296875 
Q 14.984375 17.484375 19.15625 11.84375 
Q 23.34375 6.203125 30.609375 6.203125 
Q 37.796875 6.203125 41.984375 11.859375 
Q 46.1875 17.53125 46.1875 27.296875 
Q 46.1875 37.015625 41.984375 42.703125 
Q 37.796875 48.390625 30.609375 48.390625 
z
M 30.609375 56 
Q 42.328125 56 49.015625 48.375 
Q 55.71875 40.765625 55.71875 27.296875 
Q 55.71875 13.875 49.015625 6.21875 
Q 42.328125 -1.421875 30.609375 -1.421875 
Q 18.84375 -1.421875 12.171875 6.21875 
Q 5.515625 13.875 5.515625 27.296875 
Q 5.515625 40.765625 12.171875 48.375 
Q 18.84375 56 30.609375 56 
z
" id="DejaVuSans-111"/>
      <path d="M 45.40625 27.984375 
Q 45.40625 37.75 41.375 43.109375 
Q 37.359375 48.484375 30.078125 48.484375 
Q 22.859375 48.484375 18.828125 43.109375 
Q 14.796875 37.75 14.796875 27.984375 
Q 14.796875 18.265625 18.828125 12.890625 
Q 22.859375 7.515625 30.078125 7.515625 
Q 37.359375 7.515625 41.375 12.890625 
Q 45.40625 18.265625 45.40625 27.984375 
z
M 54.390625 6.78125 
Q 54.390625 -7.171875 48.1875 -13.984375 
Q 42 -20.796875 29.203125 -20.796875 
Q 24.46875 -20.796875 20.265625 -20.09375 
Q 16.0625 -19.390625 12.109375 -17.921875 
L 12.109375 -9.1875 
Q 16.0625 -11.328125 19.921875 -12.34375 
Q 23.78125 -13.375 27.78125 -13.375 
Q 36.625 -13.375 41.015625 -8.765625 
Q 45.40625 -4.15625 45.40625 5.171875 
L 45.40625 9.625 
Q 42.625 4.78125 38.28125 2.390625 
Q 33.9375 0 27.875 0 
Q 17.828125 0 11.671875 7.65625 
Q 5.515625 15.328125 5.515625 27.984375 
Q 5.515625 40.671875 11.671875 48.328125 
Q 17.828125 56 27.875 56 
Q 33.9375 56 38.28125 53.609375 
Q 42.625 51.21875 45.40625 46.390625 
L 45.40625 54.6875 
L 54.390625 54.6875 
z
" id="DejaVuSans-103"/>
      <path d="M 12.40625 8.296875 
L 28.515625 8.296875 
L 28.515625 63.921875 
L 10.984375 60.40625 
L 10.984375 69.390625 
L 28.421875 72.90625 
L 38.28125 72.90625 
L 38.28125 8.296875 
L 54.390625 8.296875 
L 54.390625 0 
L 12.40625 0 
z
" id="DejaVuSans-49"/>
      <path id="DejaVuSans-32"/>
      <path d="M 37.109375 75.984375 
L 37.109375 68.5 
L 28.515625 68.5 
Q 23.6875 68.5 21.796875 66.546875 
Q 19.921875 64.59375 19.921875 59.515625 
L 19.921875 54.6875 
L 34.71875 54.6875 
L 34.71875 47.703125 
L 19.921875 47.703125 
L 19.921875 0 
L 10.890625 0 
L 10.890625 47.703125 
L 2.296875 47.703125 
L 2.296875 54.6875 
L 10.890625 54.6875 
L 10.890625 58.5 
Q 10.890625 67.625 15.140625 71.796875 
Q 19.390625 75.984375 28.609375 75.984375 
z
" id="DejaVuSans-102"/>
      <path d="M 9.8125 72.90625 
L 51.703125 72.90625 
L 51.703125 64.59375 
L 19.671875 64.59375 
L 19.671875 43.109375 
L 48.578125 43.109375 
L 48.578125 34.8125 
L 19.671875 34.8125 
L 19.671875 0 
L 9.8125 0 
z
" id="DejaVuSans-70"/>
      <path d="M 9.8125 72.90625 
L 55.90625 72.90625 
L 55.90625 64.59375 
L 19.671875 64.59375 
L 19.671875 43.015625 
L 54.390625 43.015625 
L 54.390625 34.71875 
L 19.671875 34.71875 
L 19.671875 8.296875 
L 56.78125 8.296875 
L 56.78125 0 
L 9.8125 0 
z
" id="DejaVuSans-69"/>
      <path d="M 2.984375 54.6875 
L 12.5 54.6875 
L 29.59375 8.796875 
L 46.6875 54.6875 
L 56.203125 54.6875 
L 35.6875 0 
L 23.484375 0 
z
" id="DejaVuSans-118"/>
      <path d="M 34.28125 27.484375 
Q 23.390625 27.484375 19.1875 25 
Q 14.984375 22.515625 14.984375 16.5 
Q 14.984375 11.71875 18.140625 8.90625 
Q 21.296875 6.109375 26.703125 6.109375 
Q 34.1875 6.109375 38.703125 11.40625 
Q 43.21875 16.703125 43.21875 25.484375 
L 43.21875 27.484375 
z
M 52.203125 31.203125 
L 52.203125 0 
L 43.21875 0 
L 43.21875 8.296875 
Q 40.140625 3.328125 35.546875 0.953125 
Q 30.953125 -1.421875 24.3125 -1.421875 
Q 15.921875 -1.421875 10.953125 3.296875 
Q 6 8.015625 6 15.921875 
Q 6 25.140625 12.171875 29.828125 
Q 18.359375 34.515625 30.609375 34.515625 
L 43.21875 34.515625 
L 43.21875 35.40625 
Q 43.21875 41.609375 39.140625 45 
Q 35.0625 48.390625 27.6875 48.390625 
Q 23 48.390625 18.546875 47.265625 
Q 14.109375 46.140625 10.015625 43.890625 
L 10.015625 52.203125 
Q 14.9375 54.109375 19.578125 55.046875 
Q 24.21875 56 28.609375 56 
Q 40.484375 56 46.34375 49.84375 
Q 52.203125 43.703125 52.203125 31.203125 
z
" id="DejaVuSans-97"/>
      <path d="M 44.28125 53.078125 
L 44.28125 44.578125 
Q 40.484375 46.53125 36.375 47.5 
Q 32.28125 48.484375 27.875 48.484375 
Q 21.1875 48.484375 17.84375 46.4375 
Q 14.5 44.390625 14.5 40.28125 
Q 14.5 37.15625 16.890625 35.375 
Q 19.28125 33.59375 26.515625 31.984375 
L 29.59375 31.296875 
Q 39.15625 29.25 43.1875 25.515625 
Q 47.21875 21.78125 47.21875 15.09375 
Q 47.21875 7.46875 41.1875 3.015625 
Q 35.15625 -1.421875 24.609375 -1.421875 
Q 20.21875 -1.421875 15.453125 -0.5625 
Q 10.6875 0.296875 5.421875 2 
L 5.421875 11.28125 
Q 10.40625 8.6875 15.234375 7.390625 
Q 20.0625 6.109375 24.8125 6.109375 
Q 31.15625 6.109375 34.5625 8.28125 
Q 37.984375 10.453125 37.984375 14.40625 
Q 37.984375 18.0625 35.515625 20.015625 
Q 33.0625 21.96875 24.703125 23.78125 
L 21.578125 24.515625 
Q 13.234375 26.265625 9.515625 29.90625 
Q 5.8125 33.546875 5.8125 39.890625 
Q 5.8125 47.609375 11.28125 51.796875 
Q 16.75 56 26.8125 56 
Q 31.78125 56 36.171875 55.265625 
Q 40.578125 54.546875 44.28125 53.078125 
z
" id="DejaVuSans-115"/>
      <path d="M 25.390625 72.90625 
L 33.6875 72.90625 
L 8.296875 -9.28125 
L 0 -9.28125 
z
" id="DejaVuSans-47"/>
      <path d="M 19.671875 64.796875 
L 19.671875 8.109375 
L 31.59375 8.109375 
Q 46.6875 8.109375 53.6875 14.9375 
Q 60.6875 21.78125 60.6875 36.53125 
Q 60.6875 51.171875 53.6875 57.984375 
Q 46.6875 64.796875 31.59375 64.796875 
z
M 9.8125 72.90625 
L 30.078125 72.90625 
Q 51.265625 72.90625 61.171875 64.09375 
Q 71.09375 55.28125 71.09375 36.53125 
Q 71.09375 17.671875 61.125 8.828125 
Q 51.171875 0 30.078125 0 
L 9.8125 0 
z
" id="DejaVuSans-68"/>
      <path d="M 9.8125 72.90625 
L 19.671875 72.90625 
L 19.671875 0 
L 9.8125 0 
z
" id="DejaVuSans-73"/>
      <path d="M 9.8125 72.90625 
L 24.515625 72.90625 
L 43.109375 23.296875 
L 61.8125 72.90625 
L 76.515625 72.90625 
L 76.515625 0 
L 66.890625 0 
L 66.890625 64.015625 
L 48.09375 14.015625 
L 38.1875 14.015625 
L 19.390625 64.015625 
L 19.390625 0 
L 9.8125 0 
z
" id="DejaVuSans-77"/>
     </defs>
     <g transform="translate(156.430563 339.313125)scale(0.2 -0.2)">
      <use xlink:href="#DejaVuSans-108"/>
      <use x="27.783203" xlink:href="#DejaVuSans-111"/>
      <use x="88.964844" xlink:href="#DejaVuSans-103"/>
      <use x="152.441406" xlink:href="#DejaVuSans-49"/>
      <use x="216.064453" xlink:href="#DejaVuSans-48"/>
      <use x="279.6875" xlink:href="#DejaVuSans-32"/>
      <use x="311.474609" xlink:href="#DejaVuSans-111"/>
      <use x="372.65625" xlink:href="#DejaVuSans-102"/>
      <use x="407.861328" xlink:href="#DejaVuSans-32"/>
      <use x="439.648438" xlink:href="#DejaVuSans-70"/>
      <use x="497.167969" xlink:href="#DejaVuSans-69"/>
      <use x="560.351562" xlink:href="#DejaVuSans-118"/>
      <use x="619.53125" xlink:href="#DejaVuSans-97"/>
      <use x="680.810547" xlink:href="#DejaVuSans-108"/>
      <use x="708.59375" xlink:href="#DejaVuSans-115"/>
      <use x="760.693359" xlink:href="#DejaVuSans-32"/>
      <use x="792.480469" xlink:href="#DejaVuSans-47"/>
      <use x="826.171875" xlink:href="#DejaVuSans-32"/>
      <use x="857.958984" xlink:href="#DejaVuSans-68"/>
      <use x="934.960938" xlink:href="#DejaVuSans-73"/>
      <use x="964.453125" xlink:href="#DejaVuSans-77"/>
     </g>
    </g>
   </g>
   <g id="matplotlib.axis_2">
    <g id="ytick_1">
     <g id="line2d_67">
      <path clip-path="url(#p86d9c6bacd)" d="M 62.208 293.76 
L 460.8 293.76 
" style="fill:none;stroke:#b0b0b0;stroke-linecap:square;stroke-width:0.8;"/>
     </g>
     <g id="line2d_68">
      <defs>
       <path d="M 0 0 
L -3.5 0 
" id="mffca1ad1e4" style="stroke:#000000;stroke-width:0.8;"/>
      </defs>
      <g>
       <use style="stroke:#000000;stroke-width:0.8;" x="62.208" xlink:href="#mffca1ad1e4" y="293.76"/>
      </g>
     </g>
     <g id="text_4">
      <!-- 0.0 -->
      <defs>
       <path d="M 10.6875 12.40625 
L 21 12.40625 
L 21 0 
L 10.6875 0 
z
" id="DejaVuSans-46"/>
      </defs>
      <g transform="translate(29.763 299.83875)scale(0.16 -0.16)">
       <use xlink:href="#DejaVuSans-48"/>
       <use x="63.623047" xlink:href="#DejaVuSans-46"/>
       <use x="95.410156" xlink:href="#DejaVuSans-48"/>
      </g>
     </g>
    </g>
    <g id="ytick_2">
     <g id="line2d_69">
      <path clip-path="url(#p86d9c6bacd)" d="M 62.208 236.274059 
L 460.8 236.274059 
" style="fill:none;stroke:#b0b0b0;stroke-linecap:square;stroke-width:0.8;"/>
     </g>
     <g id="line2d_70">
      <g>
       <use style="stroke:#000000;stroke-width:0.8;" x="62.208" xlink:href="#mffca1ad1e4" y="236.274059"/>
      </g>
     </g>
     <g id="text_5">
      <!-- 0.2 -->
      <g transform="translate(29.763 242.352809)scale(0.16 -0.16)">
       <use xlink:href="#DejaVuSans-48"/>
       <use x="63.623047" xlink:href="#DejaVuSans-46"/>
       <use x="95.410156" xlink:href="#DejaVuSans-50"/>
      </g>
     </g>
    </g>
    <g id="ytick_3">
     <g id="line2d_71">
      <path clip-path="url(#p86d9c6bacd)" d="M 62.208 178.788119 
L 460.8 178.788119 
" style="fill:none;stroke:#b0b0b0;stroke-linecap:square;stroke-width:0.8;"/>
     </g>
     <g id="line2d_72">
      <g>
       <use style="stroke:#000000;stroke-width:0.8;" x="62.208" xlink:href="#mffca1ad1e4" y="178.788119"/>
      </g>
     </g>
     <g id="text_6">
      <!-- 0.4 -->
      <defs>
       <path d="M 37.796875 64.3125 
L 12.890625 25.390625 
L 37.796875 25.390625 
z
M 35.203125 72.90625 
L 47.609375 72.90625 
L 47.609375 25.390625 
L 58.015625 25.390625 
L 58.015625 17.1875 
L 47.609375 17.1875 
L 47.609375 0 
L 37.796875 0 
L 37.796875 17.1875 
L 4.890625 17.1875 
L 4.890625 26.703125 
z
" id="DejaVuSans-52"/>
      </defs>
      <g transform="translate(29.763 184.866869)scale(0.16 -0.16)">
       <use xlink:href="#DejaVuSans-48"/>
       <use x="63.623047" xlink:href="#DejaVuSans-46"/>
       <use x="95.410156" xlink:href="#DejaVuSans-52"/>
      </g>
     </g>
    </g>
    <g id="ytick_4">
     <g id="line2d_73">
      <path clip-path="url(#p86d9c6bacd)" d="M 62.208 121.302178 
L 460.8 121.302178 
" style="fill:none;stroke:#b0b0b0;stroke-linecap:square;stroke-width:0.8;"/>
     </g>
     <g id="line2d_74">
      <g>
       <use style="stroke:#000000;stroke-width:0.8;" x="62.208" xlink:href="#mffca1ad1e4" y="121.302178"/>
      </g>
     </g>
     <g id="text_7">
      <!-- 0.6 -->
      <defs>
       <path d="M 33.015625 40.375 
Q 26.375 40.375 22.484375 35.828125 
Q 18.609375 31.296875 18.609375 23.390625 
Q 18.609375 15.53125 22.484375 10.953125 
Q 26.375 6.390625 33.015625 6.390625 
Q 39.65625 6.390625 43.53125 10.953125 
Q 47.40625 15.53125 47.40625 23.390625 
Q 47.40625 31.296875 43.53125 35.828125 
Q 39.65625 40.375 33.015625 40.375 
z
M 52.59375 71.296875 
L 52.59375 62.3125 
Q 48.875 64.0625 45.09375 64.984375 
Q 41.3125 65.921875 37.59375 65.921875 
Q 27.828125 65.921875 22.671875 59.328125 
Q 17.53125 52.734375 16.796875 39.40625 
Q 19.671875 43.65625 24.015625 45.921875 
Q 28.375 48.1875 33.59375 48.1875 
Q 44.578125 48.1875 50.953125 41.515625 
Q 57.328125 34.859375 57.328125 23.390625 
Q 57.328125 12.15625 50.6875 5.359375 
Q 44.046875 -1.421875 33.015625 -1.421875 
Q 20.359375 -1.421875 13.671875 8.265625 
Q 6.984375 17.96875 6.984375 36.375 
Q 6.984375 53.65625 15.1875 63.9375 
Q 23.390625 74.21875 37.203125 74.21875 
Q 40.921875 74.21875 44.703125 73.484375 
Q 48.484375 72.75 52.59375 71.296875 
z
" id="DejaVuSans-54"/>
      </defs>
      <g transform="translate(29.763 127.380928)scale(0.16 -0.16)">
       <use xlink:href="#DejaVuSans-48"/>
       <use x="63.623047" xlink:href="#DejaVuSans-46"/>
       <use x="95.410156" xlink:href="#DejaVuSans-54"/>
      </g>
     </g>
    </g>
    <g id="ytick_5">
     <g id="line2d_75">
      <path clip-path="url(#p86d9c6bacd)" d="M 62.208 63.816238 
L 460.8 63.816238 
" style="fill:none;stroke:#b0b0b0;stroke-linecap:square;stroke-width:0.8;"/>
     </g>
     <g id="line2d_76">
      <g>
       <use style="stroke:#000000;stroke-width:0.8;" x="62.208" xlink:href="#mffca1ad1e4" y="63.816238"/>
      </g>
     </g>
     <g id="text_8">
      <!-- 0.8 -->
      <defs>
       <path d="M 31.78125 34.625 
Q 24.75 34.625 20.71875 30.859375 
Q 16.703125 27.09375 16.703125 20.515625 
Q 16.703125 13.921875 20.71875 10.15625 
Q 24.75 6.390625 31.78125 6.390625 
Q 38.8125 6.390625 42.859375 10.171875 
Q 46.921875 13.96875 46.921875 20.515625 
Q 46.921875 27.09375 42.890625 30.859375 
Q 38.875 34.625 31.78125 34.625 
z
M 21.921875 38.8125 
Q 15.578125 40.375 12.03125 44.71875 
Q 8.5 49.078125 8.5 55.328125 
Q 8.5 64.0625 14.71875 69.140625 
Q 20.953125 74.21875 31.78125 74.21875 
Q 42.671875 74.21875 48.875 69.140625 
Q 55.078125 64.0625 55.078125 55.328125 
Q 55.078125 49.078125 51.53125 44.71875 
Q 48 40.375 41.703125 38.8125 
Q 48.828125 37.15625 52.796875 32.3125 
Q 56.78125 27.484375 56.78125 20.515625 
Q 56.78125 9.90625 50.3125 4.234375 
Q 43.84375 -1.421875 31.78125 -1.421875 
Q 19.734375 -1.421875 13.25 4.234375 
Q 6.78125 9.90625 6.78125 20.515625 
Q 6.78125 27.484375 10.78125 32.3125 
Q 14.796875 37.15625 21.921875 38.8125 
z
M 18.3125 54.390625 
Q 18.3125 48.734375 21.84375 45.5625 
Q 25.390625 42.390625 31.78125 42.390625 
Q 38.140625 42.390625 41.71875 45.5625 
Q 45.3125 48.734375 45.3125 54.390625 
Q 45.3125 60.0625 41.71875 63.234375 
Q 38.140625 66.40625 31.78125 66.40625 
Q 25.390625 66.40625 21.84375 63.234375 
Q 18.3125 60.0625 18.3125 54.390625 
z
" id="DejaVuSans-56"/>
      </defs>
      <g transform="translate(29.763 69.894988)scale(0.16 -0.16)">
       <use xlink:href="#DejaVuSans-48"/>
       <use x="63.623047" xlink:href="#DejaVuSans-46"/>
       <use x="95.410156" xlink:href="#DejaVuSans-56"/>
      </g>
     </g>
    </g>
    <g id="ytick_6">
     <g id="line2d_77">
      <path clip-path="url(#p86d9c6bacd)" d="M 62.208 6.330297 
L 460.8 6.330297 
" style="fill:none;stroke:#b0b0b0;stroke-linecap:square;stroke-width:0.8;"/>
     </g>
     <g id="line2d_78">
      <g>
       <use style="stroke:#000000;stroke-width:0.8;" x="62.208" xlink:href="#mffca1ad1e4" y="6.330297"/>
      </g>
     </g>
     <g id="text_9">
      <!-- 1.0 -->
      <g transform="translate(29.763 12.409047)scale(0.16 -0.16)">
       <use xlink:href="#DejaVuSans-49"/>
       <use x="63.623047" xlink:href="#DejaVuSans-46"/>
       <use x="95.410156" xlink:href="#DejaVuSans-48"/>
      </g>
     </g>
    </g>
    <g id="text_10">
     <!-- proportion of trials -->
     <defs>
      <path d="M 18.109375 8.203125 
L 18.109375 -20.796875 
L 9.078125 -20.796875 
L 9.078125 54.6875 
L 18.109375 54.6875 
L 18.109375 46.390625 
Q 20.953125 51.265625 25.265625 53.625 
Q 29.59375 56 35.59375 56 
Q 45.5625 56 51.78125 48.09375 
Q 58.015625 40.1875 58.015625 27.296875 
Q 58.015625 14.40625 51.78125 6.484375 
Q 45.5625 -1.421875 35.59375 -1.421875 
Q 29.59375 -1.421875 25.265625 0.953125 
Q 20.953125 3.328125 18.109375 8.203125 
z
M 48.6875 27.296875 
Q 48.6875 37.203125 44.609375 42.84375 
Q 40.53125 48.484375 33.40625 48.484375 
Q 26.265625 48.484375 22.1875 42.84375 
Q 18.109375 37.203125 18.109375 27.296875 
Q 18.109375 17.390625 22.1875 11.75 
Q 26.265625 6.109375 33.40625 6.109375 
Q 40.53125 6.109375 44.609375 11.75 
Q 48.6875 17.390625 48.6875 27.296875 
z
" id="DejaVuSans-112"/>
      <path d="M 41.109375 46.296875 
Q 39.59375 47.171875 37.8125 47.578125 
Q 36.03125 48 33.890625 48 
Q 26.265625 48 22.1875 43.046875 
Q 18.109375 38.09375 18.109375 28.8125 
L 18.109375 0 
L 9.078125 0 
L 9.078125 54.6875 
L 18.109375 54.6875 
L 18.109375 46.1875 
Q 20.953125 51.171875 25.484375 53.578125 
Q 30.03125 56 36.53125 56 
Q 37.453125 56 38.578125 55.875 
Q 39.703125 55.765625 41.0625 55.515625 
z
" id="DejaVuSans-114"/>
      <path d="M 18.3125 70.21875 
L 18.3125 54.6875 
L 36.8125 54.6875 
L 36.8125 47.703125 
L 18.3125 47.703125 
L 18.3125 18.015625 
Q 18.3125 11.328125 20.140625 9.421875 
Q 21.96875 7.515625 27.59375 7.515625 
L 36.8125 7.515625 
L 36.8125 0 
L 27.59375 0 
Q 17.1875 0 13.234375 3.875 
Q 9.28125 7.765625 9.28125 18.015625 
L 9.28125 47.703125 
L 2.6875 47.703125 
L 2.6875 54.6875 
L 9.28125 54.6875 
L 9.28125 70.21875 
z
" id="DejaVuSans-116"/>
      <path d="M 9.421875 54.6875 
L 18.40625 54.6875 
L 18.40625 0 
L 9.421875 0 
z
M 9.421875 75.984375 
L 18.40625 75.984375 
L 18.40625 64.59375 
L 9.421875 64.59375 
z
" id="DejaVuSans-105"/>
      <path d="M 54.890625 33.015625 
L 54.890625 0 
L 45.90625 0 
L 45.90625 32.71875 
Q 45.90625 40.484375 42.875 44.328125 
Q 39.84375 48.1875 33.796875 48.1875 
Q 26.515625 48.1875 22.3125 43.546875 
Q 18.109375 38.921875 18.109375 30.90625 
L 18.109375 0 
L 9.078125 0 
L 9.078125 54.6875 
L 18.109375 54.6875 
L 18.109375 46.1875 
Q 21.34375 51.125 25.703125 53.5625 
Q 30.078125 56 35.796875 56 
Q 45.21875 56 50.046875 50.171875 
Q 54.890625 44.34375 54.890625 33.015625 
z
" id="DejaVuSans-110"/>
     </defs>
     <g transform="translate(21.603625 241.836125)rotate(-90)scale(0.2 -0.2)">
      <use xlink:href="#DejaVuSans-112"/>
      <use x="63.476562" xlink:href="#DejaVuSans-114"/>
      <use x="104.558594" xlink:href="#DejaVuSans-111"/>
      <use x="165.740234" xlink:href="#DejaVuSans-112"/>
      <use x="229.216797" xlink:href="#DejaVuSans-111"/>
      <use x="290.398438" xlink:href="#DejaVuSans-114"/>
      <use x="331.511719" xlink:href="#DejaVuSans-116"/>
      <use x="370.720703" xlink:href="#DejaVuSans-105"/>
      <use x="398.503906" xlink:href="#DejaVuSans-111"/>
      <use x="459.685547" xlink:href="#DejaVuSans-110"/>
      <use x="523.064453" xlink:href="#DejaVuSans-32"/>
      <use x="554.851562" xlink:href="#DejaVuSans-111"/>
      <use x="616.033203" xlink:href="#DejaVuSans-102"/>
      <use x="651.238281" xlink:href="#DejaVuSans-32"/>
      <use x="683.025391" xlink:href="#DejaVuSans-116"/>
      <use x="722.234375" xlink:href="#DejaVuSans-114"/>
      <use x="763.347656" xlink:href="#DejaVuSans-105"/>
      <use x="791.130859" xlink:href="#DejaVuSans-97"/>
      <use x="852.410156" xlink:href="#DejaVuSans-108"/>
      <use x="880.193359" xlink:href="#DejaVuSans-115"/>
     </g>
    </g>
   </g>
   <g id="line2d_79">
    <path clip-path="url(#p86d9c6bacd)" d="M -1 287.372673 
L 2.213926 287.372673 
L 2.213926 286.574257 
L 10.463323 286.574257 
L 10.463323 285.775842 
L 10.463323 285.775842 
L 10.463323 284.977426 
L 10.463323 284.977426 
L 10.463323 284.17901 
L 17.994432 284.17901 
L 17.994432 283.380594 
L 24.92238 283.380594 
L 24.92238 282.582178 
L 105.55168 282.582178 
L 105.55168 281.783762 
L 154.362071 281.783762 
L 154.362071 280.985347 
L 203.223906 280.985347 
L 203.223906 280.186931 
L 203.223906 280.186931 
L 203.223906 279.388515 
L 204.068334 279.388515 
L 204.068334 278.590099 
L 204.904602 278.590099 
L 204.904602 277.791683 
L 206.553284 277.791683 
L 206.553284 276.993267 
L 207.365995 276.993267 
L 207.365995 276.194851 
L 262.365233 276.194851 
L 262.365233 275.396436 
L 263.641223 275.396436 
L 263.641223 274.59802 
L 267.360069 274.59802 
L 267.360069 273.799604 
L 281.507448 273.799604 
L 281.507448 273.001188 
L 282.191666 273.001188 
L 282.191666 272.202772 
L 300.546017 272.202772 
L 300.546017 271.404356 
L 310.433693 271.404356 
L 310.433693 270.605941 
L 311.168236 270.605941 
L 311.168236 269.807525 
L 312.618881 269.807525 
L 312.618881 269.009109 
L 322.1448 269.009109 
L 322.1448 268.210693 
L 342.864592 268.210693 
L 342.864592 267.412277 
L 364.315594 267.412277 
L 364.315594 266.613861 
L 401.838381 266.613861 
L 401.838381 265.815446 
L 401.838381 265.815446 
L 401.838381 265.815446 
L 460.8 265.815446 
" style="fill:none;stroke:#000000;stroke-linecap:square;stroke-width:1.5;"/>
   </g>
   <g id="line2d_80">
    <path clip-path="url(#p86d9c6bacd)" style="fill:none;stroke:#000000;stroke-linecap:square;stroke-width:1.5;"/>
   </g>
   <g id="line2d_81"/>
   <g id="line2d_82"/>
   <g id="line2d_83"/>
   <g id="line2d_84">
    <path clip-path="url(#p86d9c6bacd)" d="M 460.8 293.76 
L 460.8 3.456 
" style="fill:none;stroke:#000000;stroke-linecap:square;stroke-width:1.5;"/>
   </g>
   <g id="patch_3">
    <path d="M 62.208 293.76 
L 62.208 3.456 
" style="fill:none;stroke:#000000;stroke-linecap:square;stroke-linejoin:miter;stroke-width:0.8;"/>
   </g>
   <g id="patch_4">
    <path d="M 460.8 293.76 
L 460.8 3.456 
" style="fill:none;stroke:#000000;stroke-linecap:square;stroke-linejoin:miter;stroke-width:0.8;"/>
   </g>
   <g id="patch_5">
    <path d="M 62.208 293.76 
L 460.8 293.76 
" style="fill:none;stroke:#000000;stroke-linecap:square;stroke-linejoin:miter;stroke-width:0.8;"/>
   </g>
   <g id="patch_6">
    <path d="M 62.208 3.456 
L 460.8 3.456 
" style="fill:none;stroke:#000000;stroke-linecap:square;stroke-linejoin:miter;stroke-width:0.8;"/>
   </g>
   <g id="text_11">
    <!-- {f1-f24}, 20-D -->
    <defs>
     <path d="M 51.125 -9.28125 
L 51.125 -16.3125 
L 48.09375 -16.3125 
Q 35.9375 -16.3125 31.8125 -12.6875 
Q 27.6875 -9.078125 27.6875 1.703125 
L 27.6875 13.375 
Q 27.6875 20.75 25.046875 23.578125 
Q 22.40625 26.421875 15.484375 26.421875 
L 12.5 26.421875 
L 12.5 33.40625 
L 15.484375 33.40625 
Q 22.46875 33.40625 25.078125 36.203125 
Q 27.6875 39.015625 27.6875 46.296875 
L 27.6875 58.015625 
Q 27.6875 68.796875 31.8125 72.390625 
Q 35.9375 75.984375 48.09375 75.984375 
L 51.125 75.984375 
L 51.125 69 
L 47.796875 69 
Q 40.921875 69 38.8125 66.84375 
Q 36.71875 64.703125 36.71875 57.8125 
L 36.71875 45.703125 
Q 36.71875 38.03125 34.5 34.5625 
Q 32.28125 31.109375 26.90625 29.890625 
Q 32.328125 28.5625 34.515625 25.09375 
Q 36.71875 21.625 36.71875 14.015625 
L 36.71875 1.90625 
Q 36.71875 -4.984375 38.8125 -7.125 
Q 40.921875 -9.28125 47.796875 -9.28125 
z
" id="DejaVuSans-123"/>
     <path d="M 4.890625 31.390625 
L 31.203125 31.390625 
L 31.203125 23.390625 
L 4.890625 23.390625 
z
" id="DejaVuSans-45"/>
     <path d="M 12.5 -9.28125 
L 15.921875 -9.28125 
Q 22.75 -9.28125 24.828125 -7.171875 
Q 26.90625 -5.078125 26.90625 1.90625 
L 26.90625 14.015625 
Q 26.90625 21.625 29.09375 25.09375 
Q 31.296875 28.5625 36.71875 29.890625 
Q 31.296875 31.109375 29.09375 34.5625 
Q 26.90625 38.03125 26.90625 45.703125 
L 26.90625 57.8125 
Q 26.90625 64.75 24.828125 66.875 
Q 22.75 69 15.921875 69 
L 12.5 69 
L 12.5 75.984375 
L 15.578125 75.984375 
Q 27.734375 75.984375 31.8125 72.390625 
Q 35.890625 68.796875 35.890625 58.015625 
L 35.890625 46.296875 
Q 35.890625 39.015625 38.515625 36.203125 
Q 41.15625 33.40625 48.09375 33.40625 
L 51.125 33.40625 
L 51.125 26.421875 
L 48.09375 26.421875 
Q 41.15625 26.421875 38.515625 23.578125 
Q 35.890625 20.75 35.890625 13.375 
L 35.890625 1.703125 
Q 35.890625 -9.078125 31.8125 -12.6875 
Q 27.734375 -16.3125 15.578125 -16.3125 
L 12.5 -16.3125 
z
" id="DejaVuSans-125"/>
     <path d="M 11.71875 12.40625 
L 22.015625 12.40625 
L 22.015625 4 
L 14.015625 -11.625 
L 7.71875 -11.625 
L 11.71875 4 
z
" id="DejaVuSans-44"/>
    </defs>
    <g transform="translate(188.654 24.458955)scale(0.2 -0.2)">
     <use xlink:href="#DejaVuSans-123"/>
     <use x="63.623047" xlink:href="#DejaVuSans-102"/>
     <use x="98.828125" xlink:href="#DejaVuSans-49"/>
     <use x="162.451172" xlink:href="#DejaVuSans-45"/>
     <use x="198.535156" xlink:href="#DejaVuSans-102"/>
     <use x="233.740234" xlink:href="#DejaVuSans-50"/>
     <use x="297.363281" xlink:href="#DejaVuSans-52"/>
     <use x="360.986328" xlink:href="#DejaVuSans-125"/>
     <use x="424.609375" xlink:href="#DejaVuSans-44"/>
     <use x="456.396484" xlink:href="#DejaVuSans-32"/>
     <use x="488.183594" xlink:href="#DejaVuSans-50"/>
     <use x="551.806641" xlink:href="#DejaVuSans-48"/>
     <use x="615.429688" xlink:href="#DejaVuSans-45"/>
     <use x="651.513672" xlink:href="#DejaVuSans-68"/>
    </g>
   </g>
   <g id="text_12">
    <!-- absolute targets -->
    <defs>
     <path d="M 48.6875 27.296875 
Q 48.6875 37.203125 44.609375 42.84375 
Q 40.53125 48.484375 33.40625 48.484375 
Q 26.265625 48.484375 22.1875 42.84375 
Q 18.109375 37.203125 18.109375 27.296875 
Q 18.109375 17.390625 22.1875 11.75 
Q 26.265625 6.109375 33.40625 6.109375 
Q 40.53125 6.109375 44.609375 11.75 
Q 48.6875 17.390625 48.6875 27.296875 
z
M 18.109375 46.390625 
Q 20.953125 51.265625 25.265625 53.625 
Q 29.59375 56 35.59375 56 
Q 45.5625 56 51.78125 48.09375 
Q 58.015625 40.1875 58.015625 27.296875 
Q 58.015625 14.40625 51.78125 6.484375 
Q 45.5625 -1.421875 35.59375 -1.421875 
Q 29.59375 -1.421875 25.265625 0.953125 
Q 20.953125 3.328125 18.109375 8.203125 
L 18.109375 0 
L 9.078125 0 
L 9.078125 75.984375 
L 18.109375 75.984375 
z
" id="DejaVuSans-98"/>
     <path d="M 8.5 21.578125 
L 8.5 54.6875 
L 17.484375 54.6875 
L 17.484375 21.921875 
Q 17.484375 14.15625 20.5 10.265625 
Q 23.53125 6.390625 29.59375 6.390625 
Q 36.859375 6.390625 41.078125 11.03125 
Q 45.3125 15.671875 45.3125 23.6875 
L 45.3125 54.6875 
L 54.296875 54.6875 
L 54.296875 0 
L 45.3125 0 
L 45.3125 8.40625 
Q 42.046875 3.421875 37.71875 1 
Q 33.40625 -1.421875 27.6875 -1.421875 
Q 18.265625 -1.421875 13.375 4.4375 
Q 8.5 10.296875 8.5 21.578125 
z
M 31.109375 56 
z
" id="DejaVuSans-117"/>
     <path d="M 56.203125 29.59375 
L 56.203125 25.203125 
L 14.890625 25.203125 
Q 15.484375 15.921875 20.484375 11.0625 
Q 25.484375 6.203125 34.421875 6.203125 
Q 39.59375 6.203125 44.453125 7.46875 
Q 49.3125 8.734375 54.109375 11.28125 
L 54.109375 2.78125 
Q 49.265625 0.734375 44.1875 -0.34375 
Q 39.109375 -1.421875 33.890625 -1.421875 
Q 20.796875 -1.421875 13.15625 6.1875 
Q 5.515625 13.8125 5.515625 26.8125 
Q 5.515625 40.234375 12.765625 48.109375 
Q 20.015625 56 32.328125 56 
Q 43.359375 56 49.78125 48.890625 
Q 56.203125 41.796875 56.203125 29.59375 
z
M 47.21875 32.234375 
Q 47.125 39.59375 43.09375 43.984375 
Q 39.0625 48.390625 32.421875 48.390625 
Q 24.90625 48.390625 20.390625 44.140625 
Q 15.875 39.890625 15.1875 32.171875 
z
" id="DejaVuSans-101"/>
    </defs>
    <g transform="translate(62.208 607.73703)scale(0.14 -0.14)">
     <use xlink:href="#DejaVuSans-97"/>
     <use x="61.279297" xlink:href="#DejaVuSans-98"/>
     <use x="124.755859" xlink:href="#DejaVuSans-115"/>
     <use x="176.855469" xlink:href="#DejaVuSans-111"/>
     <use x="238.037109" xlink:href="#DejaVuSans-108"/>
     <use x="265.820312" xlink:href="#DejaVuSans-117"/>
     <use x="329.199219" xlink:href="#DejaVuSans-116"/>
     <use x="368.408203" xlink:href="#DejaVuSans-101"/>
     <use x="429.931641" xlink:href="#DejaVuSans-32"/>
     <use x="461.71875" xlink:href="#DejaVuSans-116"/>
     <use x="500.927734" xlink:href="#DejaVuSans-97"/>
     <use x="562.207031" xlink:href="#DejaVuSans-114"/>
     <use x="603.304688" xlink:href="#DejaVuSans-103"/>
     <use x="666.78125" xlink:href="#DejaVuSans-101"/>
     <use x="728.304688" xlink:href="#DejaVuSans-116"/>
     <use x="767.513672" xlink:href="#DejaVuSans-115"/>
    </g>
   </g>
   <g id="text_13">
    <!-- v2.4 -->
    <g style="fill:#808080;" transform="translate(250.593063 288.777272)scale(0.1 -0.1)">
     <use xlink:href="#DejaVuSans-118"/>
     <use x="59.179688" xlink:href="#DejaVuSans-50"/>
     <use x="122.802734" xlink:href="#DejaVuSans-46"/>
     <use x="154.589844" xlink:href="#DejaVuSans-52"/>
    </g>
   </g>
   <g id="legend_1">
    <g id="patch_7">
     <path d="M 304.853125 136.881 
L 446.8 136.881 
Q 450.8 136.881 450.8 132.881 
L 450.8 17.456 
Q 450.8 13.456 446.8 13.456 
L 304.853125 13.456 
Q 300.853125 13.456 300.853125 17.456 
L 300.853125 132.881 
Q 300.853125 136.881 304.853125 136.881 
z
" style="fill:#ffffff;opacity:0.2;stroke:#cccccc;stroke-linejoin:miter;"/>
    </g>
    <g id="line2d_85">
     <path d="M 308.853125 29.652875 
L 348.853125 29.652875 
" style="fill:none;stroke:#000000;stroke-linecap:square;stroke-width:1.5;"/>
    </g>
    <g id="line2d_86"/>
    <g id="text_14">
     <!-- 1: 3/24 -->
     <defs>
      <path d="M 11.71875 12.40625 
L 22.015625 12.40625 
L 22.015625 0 
L 11.71875 0 
z
M 11.71875 51.703125 
L 22.015625 51.703125 
L 22.015625 39.3125 
L 11.71875 39.3125 
z
" id="DejaVuSans-58"/>
      <path d="M 40.578125 39.3125 
Q 47.65625 37.796875 51.625 33 
Q 55.609375 28.21875 55.609375 21.1875 
Q 55.609375 10.40625 48.1875 4.484375 
Q 40.765625 -1.421875 27.09375 -1.421875 
Q 22.515625 -1.421875 17.65625 -0.515625 
Q 12.796875 0.390625 7.625 2.203125 
L 7.625 11.71875 
Q 11.71875 9.328125 16.59375 8.109375 
Q 21.484375 6.890625 26.8125 6.890625 
Q 36.078125 6.890625 40.9375 10.546875 
Q 45.796875 14.203125 45.796875 21.1875 
Q 45.796875 27.640625 41.28125 31.265625 
Q 36.765625 34.90625 28.71875 34.90625 
L 20.21875 34.90625 
L 20.21875 43.015625 
L 29.109375 43.015625 
Q 36.375 43.015625 40.234375 45.921875 
Q 44.09375 48.828125 44.09375 54.296875 
Q 44.09375 59.90625 40.109375 62.90625 
Q 36.140625 65.921875 28.71875 65.921875 
Q 24.65625 65.921875 20.015625 65.03125 
Q 15.375 64.15625 9.8125 62.3125 
L 9.8125 71.09375 
Q 15.4375 72.65625 20.34375 73.4375 
Q 25.25 74.21875 29.59375 74.21875 
Q 40.828125 74.21875 47.359375 69.109375 
Q 53.90625 64.015625 53.90625 55.328125 
Q 53.90625 49.265625 50.4375 45.09375 
Q 46.96875 40.921875 40.578125 39.3125 
z
" id="DejaVuSans-51"/>
     </defs>
     <g transform="translate(364.853125 36.652875)scale(0.2 -0.2)">
      <use xlink:href="#DejaVuSans-49"/>
      <use x="63.623047" xlink:href="#DejaVuSans-58"/>
      <use x="97.314453" xlink:href="#DejaVuSans-32"/>
      <use x="129.101562" xlink:href="#DejaVuSans-51"/>
      <use x="192.724609" xlink:href="#DejaVuSans-47"/>
      <use x="226.416016" xlink:href="#DejaVuSans-50"/>
      <use x="290.039062" xlink:href="#DejaVuSans-52"/>
     </g>
    </g>
    <g id="line2d_87">
     <path d="M 308.853125 59.009125 
L 348.853125 59.009125 
" style="fill:none;stroke:#00bfbf;stroke-linecap:square;stroke-width:1.5;"/>
    </g>
    <g id="line2d_88"/>
    <g id="text_15">
     <!-- -1: 0/24 -->
     <g transform="translate(364.853125 66.009125)scale(0.2 -0.2)">
      <use xlink:href="#DejaVuSans-45"/>
      <use x="36.083984" xlink:href="#DejaVuSans-49"/>
      <use x="99.707031" xlink:href="#DejaVuSans-58"/>
      <use x="133.398438" xlink:href="#DejaVuSans-32"/>
      <use x="165.185547" xlink:href="#DejaVuSans-48"/>
      <use x="228.808594" xlink:href="#DejaVuSans-47"/>
      <use x="262.5" xlink:href="#DejaVuSans-50"/>
      <use x="326.123047" xlink:href="#DejaVuSans-52"/>
     </g>
    </g>
    <g id="line2d_89">
     <path d="M 308.853125 88.365375 
L 348.853125 88.365375 
" style="fill:none;stroke:#bf00bf;stroke-linecap:square;stroke-width:1.5;"/>
    </g>
    <g id="line2d_90"/>
    <g id="text_16">
     <!-- -4: 0/24 -->
     <g transform="translate(364.853125 95.365375)scale(0.2 -0.2)">
      <use xlink:href="#DejaVuSans-45"/>
      <use x="36.083984" xlink:href="#DejaVuSans-52"/>
      <use x="99.707031" xlink:href="#DejaVuSans-58"/>
      <use x="133.398438" xlink:href="#DejaVuSans-32"/>
      <use x="165.185547" xlink:href="#DejaVuSans-48"/>
      <use x="228.808594" xlink:href="#DejaVuSans-47"/>
      <use x="262.5" xlink:href="#DejaVuSans-50"/>
      <use x="326.123047" xlink:href="#DejaVuSans-52"/>
     </g>
    </g>
    <g id="line2d_91">
     <path d="M 308.853125 117.721625 
L 348.853125 117.721625 
" style="fill:none;stroke:#ff0000;stroke-linecap:square;stroke-width:3;"/>
    </g>
    <g id="line2d_92"/>
    <g id="text_17">
     <!-- -8: 0/24 -->
     <g transform="translate(364.853125 124.721625)scale(0.2 -0.2)">
      <use xlink:href="#DejaVuSans-45"/>
      <use x="36.083984" xlink:href="#DejaVuSans-56"/>
      <use x="99.707031" xlink:href="#DejaVuSans-58"/>
      <use x="133.398438" xlink:href="#DejaVuSans-32"/>
      <use x="165.185547" xlink:href="#DejaVuSans-48"/>
      <use x="228.808594" xlink:href="#DejaVuSans-47"/>
      <use x="262.5" xlink:href="#DejaVuSans-50"/>
      <use x="326.123047" xlink:href="#DejaVuSans-52"/>
     </g>
    </g>
   </g>
  </g>
 </g>
 <defs>
  <clipPath id="p86d9c6bacd">
   <rect height="290.304" width="398.592" x="62.208" y="3.456"/>
  </clipPath>
 </defs>
</svg>
