<?xml version="1.0" encoding="utf-8" standalone="no"?>
<!DOCTYPE svg PUBLIC "-//W3C//DTD SVG 1.1//EN"
  "http://www.w3.org/Graphics/SVG/1.1/DTD/svg11.dtd">
<!-- Created with matplotlib (https://matplotlib.org/) -->
<svg height="345.6pt" version="1.1" viewBox="0 0 460.8 345.6" width="460.8pt" xmlns="http://www.w3.org/2000/svg" xmlns:xlink="http://www.w3.org/1999/xlink">
 <defs>
  <style type="text/css">
*{stroke-linecap:butt;stroke-linejoin:round;}
  </style>
 </defs>
 <g id="figure_1">
  <g id="patch_1">
   <path d="M 0 345.6 
L 460.8 345.6 
L 460.8 0 
L 0 0 
z
" style="fill:#ffffff;"/>
  </g>
  <g id="axes_1">
   <g id="patch_2">
    <path d="M 57.6 298.944 
L 338.688 298.944 
L 338.688 3.456 
L 57.6 3.456 
z
" style="fill:#ffffff;"/>
   </g>
   <g id="matplotlib.axis_1">
    <g id="xtick_1">
     <g id="line2d_1">
      <path clip-path="url(#pc501fcbc4d)" d="M 57.6 298.944 
L 57.6 3.456 
" style="fill:none;stroke:#b0b0b0;stroke-linecap:square;stroke-width:0.8;"/>
     </g>
     <g id="line2d_2">
      <defs>
       <path d="M 0 0 
L 0 3.5 
" id="m7920919269" style="stroke:#000000;stroke-width:0.8;"/>
      </defs>
      <g>
       <use style="stroke:#000000;stroke-width:0.8;" x="57.6" xlink:href="#m7920919269" y="298.944"/>
      </g>
     </g>
     <g id="text_1">
      <!-- 0 -->
      <defs>
       <path d="M 31.78125 66.40625 
Q 24.171875 66.40625 20.328125 58.90625 
Q 16.5 51.421875 16.5 36.375 
Q 16.5 21.390625 20.328125 13.890625 
Q 24.171875 6.390625 31.78125 6.390625 
Q 39.453125 6.390625 43.28125 13.890625 
Q 47.125 21.390625 47.125 36.375 
Q 47.125 51.421875 43.28125 58.90625 
Q 39.453125 66.40625 31.78125 66.40625 
z
M 31.78125 74.21875 
Q 44.046875 74.21875 50.515625 64.515625 
Q 56.984375 54.828125 56.984375 36.375 
Q 56.984375 17.96875 50.515625 8.265625 
Q 44.046875 -1.421875 31.78125 -1.421875 
Q 19.53125 -1.421875 13.0625 8.265625 
Q 6.59375 17.96875 6.59375 36.375 
Q 6.59375 54.828125 13.0625 64.515625 
Q 19.53125 74.21875 31.78125 74.21875 
z
" id="DejaVuSans-48"/>
      </defs>
      <g transform="translate(51.2375 321.140875)scale(0.2 -0.2)">
       <use xlink:href="#DejaVuSans-48"/>
      </g>
     </g>
    </g>
    <g id="xtick_2">
     <g id="line2d_3">
      <path clip-path="url(#pc501fcbc4d)" d="M 137.910857 298.944 
L 137.910857 3.456 
" style="fill:none;stroke:#b0b0b0;stroke-linecap:square;stroke-width:0.8;"/>
     </g>
     <g id="line2d_4">
      <g>
       <use style="stroke:#000000;stroke-width:0.8;" x="137.910857" xlink:href="#m7920919269" y="298.944"/>
      </g>
     </g>
     <g id="text_2">
      <!-- 2 -->
      <defs>
       <path d="M 19.1875 8.296875 
L 53.609375 8.296875 
L 53.609375 0 
L 7.328125 0 
L 7.328125 8.296875 
Q 12.9375 14.109375 22.625 23.890625 
Q 32.328125 33.6875 34.8125 36.53125 
Q 39.546875 41.84375 41.421875 45.53125 
Q 43.3125 49.21875 43.3125 52.78125 
Q 43.3125 58.59375 39.234375 62.25 
Q 35.15625 65.921875 28.609375 65.921875 
Q 23.96875 65.921875 18.8125 64.3125 
Q 13.671875 62.703125 7.8125 59.421875 
L 7.8125 69.390625 
Q 13.765625 71.78125 18.9375 73 
Q 24.125 74.21875 28.421875 74.21875 
Q 39.75 74.21875 46.484375 68.546875 
Q 53.21875 62.890625 53.21875 53.421875 
Q 53.21875 48.921875 51.53125 44.890625 
Q 49.859375 40.875 45.40625 35.40625 
Q 44.1875 33.984375 37.640625 27.21875 
Q 31.109375 20.453125 19.1875 8.296875 
z
" id="DejaVuSans-50"/>
      </defs>
      <g transform="translate(131.548357 321.140875)scale(0.2 -0.2)">
       <use xlink:href="#DejaVuSans-50"/>
      </g>
     </g>
    </g>
    <g id="xtick_3">
     <g id="line2d_5">
      <path clip-path="url(#pc501fcbc4d)" d="M 218.221714 298.944 
L 218.221714 3.456 
" style="fill:none;stroke:#b0b0b0;stroke-linecap:square;stroke-width:0.8;"/>
     </g>
     <g id="line2d_6">
      <g>
       <use style="stroke:#000000;stroke-width:0.8;" x="218.221714" xlink:href="#m7920919269" y="298.944"/>
      </g>
     </g>
     <g id="text_3">
      <!-- 4 -->
      <defs>
       <path d="M 37.796875 64.3125 
L 12.890625 25.390625 
L 37.796875 25.390625 
z
M 35.203125 72.90625 
L 47.609375 72.90625 
L 47.609375 25.390625 
L 58.015625 25.390625 
L 58.015625 17.1875 
L 47.609375 17.1875 
L 47.609375 0 
L 37.796875 0 
L 37.796875 17.1875 
L 4.890625 17.1875 
L 4.890625 26.703125 
z
" id="DejaVuSans-52"/>
      </defs>
      <g transform="translate(211.859214 321.140875)scale(0.2 -0.2)">
       <use xlink:href="#DejaVuSans-52"/>
      </g>
     </g>
    </g>
    <g id="xtick_4">
     <g id="line2d_7">
      <path clip-path="url(#pc501fcbc4d)" d="M 298.532571 298.944 
L 298.532571 3.456 
" style="fill:none;stroke:#b0b0b0;stroke-linecap:square;stroke-width:0.8;"/>
     </g>
     <g id="line2d_8">
      <g>
       <use style="stroke:#000000;stroke-width:0.8;" x="298.532571" xlink:href="#m7920919269" y="298.944"/>
      </g>
     </g>
     <g id="text_4">
      <!-- 6 -->
      <defs>
       <path d="M 33.015625 40.375 
Q 26.375 40.375 22.484375 35.828125 
Q 18.609375 31.296875 18.609375 23.390625 
Q 18.609375 15.53125 22.484375 10.953125 
Q 26.375 6.390625 33.015625 6.390625 
Q 39.65625 6.390625 43.53125 10.953125 
Q 47.40625 15.53125 47.40625 23.390625 
Q 47.40625 31.296875 43.53125 35.828125 
Q 39.65625 40.375 33.015625 40.375 
z
M 52.59375 71.296875 
L 52.59375 62.3125 
Q 48.875 64.0625 45.09375 64.984375 
Q 41.3125 65.921875 37.59375 65.921875 
Q 27.828125 65.921875 22.671875 59.328125 
Q 17.53125 52.734375 16.796875 39.40625 
Q 19.671875 43.65625 24.015625 45.921875 
Q 28.375 48.1875 33.59375 48.1875 
Q 44.578125 48.1875 50.953125 41.515625 
Q 57.328125 34.859375 57.328125 23.390625 
Q 57.328125 12.15625 50.6875 5.359375 
Q 44.046875 -1.421875 33.015625 -1.421875 
Q 20.359375 -1.421875 13.671875 8.265625 
Q 6.984375 17.96875 6.984375 36.375 
Q 6.984375 53.65625 15.1875 63.9375 
Q 23.390625 74.21875 37.203125 74.21875 
Q 40.921875 74.21875 44.703125 73.484375 
Q 48.484375 72.75 52.59375 71.296875 
z
" id="DejaVuSans-54"/>
      </defs>
      <g transform="translate(292.170071 321.140875)scale(0.2 -0.2)">
       <use xlink:href="#DejaVuSans-54"/>
      </g>
     </g>
    </g>
    <g id="xtick_5">
     <g id="line2d_9">
      <path clip-path="url(#pc501fcbc4d)" d="M 97.755429 298.944 
L 97.755429 3.456 
" style="fill:none;stroke:#b0b0b0;stroke-linecap:square;stroke-width:0.8;"/>
     </g>
     <g id="line2d_10">
      <defs>
       <path d="M 0 0 
L 0 2 
" id="m8020c2167c" style="stroke:#000000;stroke-width:0.6;"/>
      </defs>
      <g>
       <use style="stroke:#000000;stroke-width:0.6;" x="97.755429" xlink:href="#m8020c2167c" y="298.944"/>
      </g>
     </g>
    </g>
    <g id="xtick_6">
     <g id="line2d_11">
      <path clip-path="url(#pc501fcbc4d)" d="M 178.066286 298.944 
L 178.066286 3.456 
" style="fill:none;stroke:#b0b0b0;stroke-linecap:square;stroke-width:0.8;"/>
     </g>
     <g id="line2d_12">
      <g>
       <use style="stroke:#000000;stroke-width:0.6;" x="178.066286" xlink:href="#m8020c2167c" y="298.944"/>
      </g>
     </g>
    </g>
    <g id="xtick_7">
     <g id="line2d_13">
      <path clip-path="url(#pc501fcbc4d)" d="M 258.377143 298.944 
L 258.377143 3.456 
" style="fill:none;stroke:#b0b0b0;stroke-linecap:square;stroke-width:0.8;"/>
     </g>
     <g id="line2d_14">
      <g>
       <use style="stroke:#000000;stroke-width:0.6;" x="258.377143" xlink:href="#m8020c2167c" y="298.944"/>
      </g>
     </g>
    </g>
    <g id="xtick_8">
     <g id="line2d_15">
      <path clip-path="url(#pc501fcbc4d)" d="M 338.688 298.944 
L 338.688 3.456 
" style="fill:none;stroke:#b0b0b0;stroke-linecap:square;stroke-width:0.8;"/>
     </g>
     <g id="line2d_16">
      <g>
       <use style="stroke:#000000;stroke-width:0.6;" x="338.688" xlink:href="#m8020c2167c" y="298.944"/>
      </g>
     </g>
    </g>
    <g id="text_5">
     <!-- log10(# f-evals / dimension) -->
     <defs>
      <path d="M 9.421875 75.984375 
L 18.40625 75.984375 
L 18.40625 0 
L 9.421875 0 
z
" id="DejaVuSans-108"/>
      <path d="M 30.609375 48.390625 
Q 23.390625 48.390625 19.1875 42.75 
Q 14.984375 37.109375 14.984375 27.296875 
Q 14.984375 17.484375 19.15625 11.84375 
Q 23.34375 6.203125 30.609375 6.203125 
Q 37.796875 6.203125 41.984375 11.859375 
Q 46.1875 17.53125 46.1875 27.296875 
Q 46.1875 37.015625 41.984375 42.703125 
Q 37.796875 48.390625 30.609375 48.390625 
z
M 30.609375 56 
Q 42.328125 56 49.015625 48.375 
Q 55.71875 40.765625 55.71875 27.296875 
Q 55.71875 13.875 49.015625 6.21875 
Q 42.328125 -1.421875 30.609375 -1.421875 
Q 18.84375 -1.421875 12.171875 6.21875 
Q 5.515625 13.875 5.515625 27.296875 
Q 5.515625 40.765625 12.171875 48.375 
Q 18.84375 56 30.609375 56 
z
" id="DejaVuSans-111"/>
      <path d="M 45.40625 27.984375 
Q 45.40625 37.75 41.375 43.109375 
Q 37.359375 48.484375 30.078125 48.484375 
Q 22.859375 48.484375 18.828125 43.109375 
Q 14.796875 37.75 14.796875 27.984375 
Q 14.796875 18.265625 18.828125 12.890625 
Q 22.859375 7.515625 30.078125 7.515625 
Q 37.359375 7.515625 41.375 12.890625 
Q 45.40625 18.265625 45.40625 27.984375 
z
M 54.390625 6.78125 
Q 54.390625 -7.171875 48.1875 -13.984375 
Q 42 -20.796875 29.203125 -20.796875 
Q 24.46875 -20.796875 20.265625 -20.09375 
Q 16.0625 -19.390625 12.109375 -17.921875 
L 12.109375 -9.1875 
Q 16.0625 -11.328125 19.921875 -12.34375 
Q 23.78125 -13.375 27.78125 -13.375 
Q 36.625 -13.375 41.015625 -8.765625 
Q 45.40625 -4.15625 45.40625 5.171875 
L 45.40625 9.625 
Q 42.625 4.78125 38.28125 2.390625 
Q 33.9375 0 27.875 0 
Q 17.828125 0 11.671875 7.65625 
Q 5.515625 15.328125 5.515625 27.984375 
Q 5.515625 40.671875 11.671875 48.328125 
Q 17.828125 56 27.875 56 
Q 33.9375 56 38.28125 53.609375 
Q 42.625 51.21875 45.40625 46.390625 
L 45.40625 54.6875 
L 54.390625 54.6875 
z
" id="DejaVuSans-103"/>
      <path d="M 12.40625 8.296875 
L 28.515625 8.296875 
L 28.515625 63.921875 
L 10.984375 60.40625 
L 10.984375 69.390625 
L 28.421875 72.90625 
L 38.28125 72.90625 
L 38.28125 8.296875 
L 54.390625 8.296875 
L 54.390625 0 
L 12.40625 0 
z
" id="DejaVuSans-49"/>
      <path d="M 31 75.875 
Q 24.46875 64.65625 21.28125 53.65625 
Q 18.109375 42.671875 18.109375 31.390625 
Q 18.109375 20.125 21.3125 9.0625 
Q 24.515625 -2 31 -13.1875 
L 23.1875 -13.1875 
Q 15.875 -1.703125 12.234375 9.375 
Q 8.59375 20.453125 8.59375 31.390625 
Q 8.59375 42.28125 12.203125 53.3125 
Q 15.828125 64.359375 23.1875 75.875 
z
" id="DejaVuSans-40"/>
      <path d="M 51.125 44 
L 36.921875 44 
L 32.8125 27.6875 
L 47.125 27.6875 
z
M 43.796875 71.78125 
L 38.71875 51.515625 
L 52.984375 51.515625 
L 58.109375 71.78125 
L 65.921875 71.78125 
L 60.890625 51.515625 
L 76.125 51.515625 
L 76.125 44 
L 58.984375 44 
L 54.984375 27.6875 
L 70.515625 27.6875 
L 70.515625 20.21875 
L 53.078125 20.21875 
L 48 0 
L 40.1875 0 
L 45.21875 20.21875 
L 30.90625 20.21875 
L 25.875 0 
L 18.015625 0 
L 23.09375 20.21875 
L 7.71875 20.21875 
L 7.71875 27.6875 
L 24.90625 27.6875 
L 29 44 
L 13.28125 44 
L 13.28125 51.515625 
L 30.90625 51.515625 
L 35.890625 71.78125 
z
" id="DejaVuSans-35"/>
      <path id="DejaVuSans-32"/>
      <path d="M 37.109375 75.984375 
L 37.109375 68.5 
L 28.515625 68.5 
Q 23.6875 68.5 21.796875 66.546875 
Q 19.921875 64.59375 19.921875 59.515625 
L 19.921875 54.6875 
L 34.71875 54.6875 
L 34.71875 47.703125 
L 19.921875 47.703125 
L 19.921875 0 
L 10.890625 0 
L 10.890625 47.703125 
L 2.296875 47.703125 
L 2.296875 54.6875 
L 10.890625 54.6875 
L 10.890625 58.5 
Q 10.890625 67.625 15.140625 71.796875 
Q 19.390625 75.984375 28.609375 75.984375 
z
" id="DejaVuSans-102"/>
      <path d="M 4.890625 31.390625 
L 31.203125 31.390625 
L 31.203125 23.390625 
L 4.890625 23.390625 
z
" id="DejaVuSans-45"/>
      <path d="M 56.203125 29.59375 
L 56.203125 25.203125 
L 14.890625 25.203125 
Q 15.484375 15.921875 20.484375 11.0625 
Q 25.484375 6.203125 34.421875 6.203125 
Q 39.59375 6.203125 44.453125 7.46875 
Q 49.3125 8.734375 54.109375 11.28125 
L 54.109375 2.78125 
Q 49.265625 0.734375 44.1875 -0.34375 
Q 39.109375 -1.421875 33.890625 -1.421875 
Q 20.796875 -1.421875 13.15625 6.1875 
Q 5.515625 13.8125 5.515625 26.8125 
Q 5.515625 40.234375 12.765625 48.109375 
Q 20.015625 56 32.328125 56 
Q 43.359375 56 49.78125 48.890625 
Q 56.203125 41.796875 56.203125 29.59375 
z
M 47.21875 32.234375 
Q 47.125 39.59375 43.09375 43.984375 
Q 39.0625 48.390625 32.421875 48.390625 
Q 24.90625 48.390625 20.390625 44.140625 
Q 15.875 39.890625 15.1875 32.171875 
z
" id="DejaVuSans-101"/>
      <path d="M 2.984375 54.6875 
L 12.5 54.6875 
L 29.59375 8.796875 
L 46.6875 54.6875 
L 56.203125 54.6875 
L 35.6875 0 
L 23.484375 0 
z
" id="DejaVuSans-118"/>
      <path d="M 34.28125 27.484375 
Q 23.390625 27.484375 19.1875 25 
Q 14.984375 22.515625 14.984375 16.5 
Q 14.984375 11.71875 18.140625 8.90625 
Q 21.296875 6.109375 26.703125 6.109375 
Q 34.1875 6.109375 38.703125 11.40625 
Q 43.21875 16.703125 43.21875 25.484375 
L 43.21875 27.484375 
z
M 52.203125 31.203125 
L 52.203125 0 
L 43.21875 0 
L 43.21875 8.296875 
Q 40.140625 3.328125 35.546875 0.953125 
Q 30.953125 -1.421875 24.3125 -1.421875 
Q 15.921875 -1.421875 10.953125 3.296875 
Q 6 8.015625 6 15.921875 
Q 6 25.140625 12.171875 29.828125 
Q 18.359375 34.515625 30.609375 34.515625 
L 43.21875 34.515625 
L 43.21875 35.40625 
Q 43.21875 41.609375 39.140625 45 
Q 35.0625 48.390625 27.6875 48.390625 
Q 23 48.390625 18.546875 47.265625 
Q 14.109375 46.140625 10.015625 43.890625 
L 10.015625 52.203125 
Q 14.9375 54.109375 19.578125 55.046875 
Q 24.21875 56 28.609375 56 
Q 40.484375 56 46.34375 49.84375 
Q 52.203125 43.703125 52.203125 31.203125 
z
" id="DejaVuSans-97"/>
      <path d="M 44.28125 53.078125 
L 44.28125 44.578125 
Q 40.484375 46.53125 36.375 47.5 
Q 32.28125 48.484375 27.875 48.484375 
Q 21.1875 48.484375 17.84375 46.4375 
Q 14.5 44.390625 14.5 40.28125 
Q 14.5 37.15625 16.890625 35.375 
Q 19.28125 33.59375 26.515625 31.984375 
L 29.59375 31.296875 
Q 39.15625 29.25 43.1875 25.515625 
Q 47.21875 21.78125 47.21875 15.09375 
Q 47.21875 7.46875 41.1875 3.015625 
Q 35.15625 -1.421875 24.609375 -1.421875 
Q 20.21875 -1.421875 15.453125 -0.5625 
Q 10.6875 0.296875 5.421875 2 
L 5.421875 11.28125 
Q 10.40625 8.6875 15.234375 7.390625 
Q 20.0625 6.109375 24.8125 6.109375 
Q 31.15625 6.109375 34.5625 8.28125 
Q 37.984375 10.453125 37.984375 14.40625 
Q 37.984375 18.0625 35.515625 20.015625 
Q 33.0625 21.96875 24.703125 23.78125 
L 21.578125 24.515625 
Q 13.234375 26.265625 9.515625 29.90625 
Q 5.8125 33.546875 5.8125 39.890625 
Q 5.8125 47.609375 11.28125 51.796875 
Q 16.75 56 26.8125 56 
Q 31.78125 56 36.171875 55.265625 
Q 40.578125 54.546875 44.28125 53.078125 
z
" id="DejaVuSans-115"/>
      <path d="M 25.390625 72.90625 
L 33.6875 72.90625 
L 8.296875 -9.28125 
L 0 -9.28125 
z
" id="DejaVuSans-47"/>
      <path d="M 45.40625 46.390625 
L 45.40625 75.984375 
L 54.390625 75.984375 
L 54.390625 0 
L 45.40625 0 
L 45.40625 8.203125 
Q 42.578125 3.328125 38.25 0.953125 
Q 33.9375 -1.421875 27.875 -1.421875 
Q 17.96875 -1.421875 11.734375 6.484375 
Q 5.515625 14.40625 5.515625 27.296875 
Q 5.515625 40.1875 11.734375 48.09375 
Q 17.96875 56 27.875 56 
Q 33.9375 56 38.25 53.625 
Q 42.578125 51.265625 45.40625 46.390625 
z
M 14.796875 27.296875 
Q 14.796875 17.390625 18.875 11.75 
Q 22.953125 6.109375 30.078125 6.109375 
Q 37.203125 6.109375 41.296875 11.75 
Q 45.40625 17.390625 45.40625 27.296875 
Q 45.40625 37.203125 41.296875 42.84375 
Q 37.203125 48.484375 30.078125 48.484375 
Q 22.953125 48.484375 18.875 42.84375 
Q 14.796875 37.203125 14.796875 27.296875 
z
" id="DejaVuSans-100"/>
      <path d="M 9.421875 54.6875 
L 18.40625 54.6875 
L 18.40625 0 
L 9.421875 0 
z
M 9.421875 75.984375 
L 18.40625 75.984375 
L 18.40625 64.59375 
L 9.421875 64.59375 
z
" id="DejaVuSans-105"/>
      <path d="M 52 44.1875 
Q 55.375 50.25 60.0625 53.125 
Q 64.75 56 71.09375 56 
Q 79.640625 56 84.28125 50.015625 
Q 88.921875 44.046875 88.921875 33.015625 
L 88.921875 0 
L 79.890625 0 
L 79.890625 32.71875 
Q 79.890625 40.578125 77.09375 44.375 
Q 74.3125 48.1875 68.609375 48.1875 
Q 61.625 48.1875 57.5625 43.546875 
Q 53.515625 38.921875 53.515625 30.90625 
L 53.515625 0 
L 44.484375 0 
L 44.484375 32.71875 
Q 44.484375 40.625 41.703125 44.40625 
Q 38.921875 48.1875 33.109375 48.1875 
Q 26.21875 48.1875 22.15625 43.53125 
Q 18.109375 38.875 18.109375 30.90625 
L 18.109375 0 
L 9.078125 0 
L 9.078125 54.6875 
L 18.109375 54.6875 
L 18.109375 46.1875 
Q 21.1875 51.21875 25.484375 53.609375 
Q 29.78125 56 35.6875 56 
Q 41.65625 56 45.828125 52.96875 
Q 50 49.953125 52 44.1875 
z
" id="DejaVuSans-109"/>
      <path d="M 54.890625 33.015625 
L 54.890625 0 
L 45.90625 0 
L 45.90625 32.71875 
Q 45.90625 40.484375 42.875 44.328125 
Q 39.84375 48.1875 33.796875 48.1875 
Q 26.515625 48.1875 22.3125 43.546875 
Q 18.109375 38.921875 18.109375 30.90625 
L 18.109375 0 
L 9.078125 0 
L 9.078125 54.6875 
L 18.109375 54.6875 
L 18.109375 46.1875 
Q 21.34375 51.125 25.703125 53.5625 
Q 30.078125 56 35.796875 56 
Q 45.21875 56 50.046875 50.171875 
Q 54.890625 44.34375 54.890625 33.015625 
z
" id="DejaVuSans-110"/>
      <path d="M 8.015625 75.875 
L 15.828125 75.875 
Q 23.140625 64.359375 26.78125 53.3125 
Q 30.421875 42.28125 30.421875 31.390625 
Q 30.421875 20.453125 26.78125 9.375 
Q 23.140625 -1.703125 15.828125 -13.1875 
L 8.015625 -13.1875 
Q 14.5 -2 17.703125 9.0625 
Q 20.90625 20.125 20.90625 31.390625 
Q 20.90625 42.671875 17.703125 53.65625 
Q 14.5 64.65625 8.015625 75.875 
z
" id="DejaVuSans-41"/>
     </defs>
     <g transform="translate(77.303219 342.217594)scale(0.17 -0.17)">
      <use xlink:href="#DejaVuSans-108"/>
      <use x="27.783203" xlink:href="#DejaVuSans-111"/>
      <use x="88.964844" xlink:href="#DejaVuSans-103"/>
      <use x="152.441406" xlink:href="#DejaVuSans-49"/>
      <use x="216.064453" xlink:href="#DejaVuSans-48"/>
      <use x="279.6875" xlink:href="#DejaVuSans-40"/>
      <use x="318.701172" xlink:href="#DejaVuSans-35"/>
      <use x="402.490234" xlink:href="#DejaVuSans-32"/>
      <use x="434.277344" xlink:href="#DejaVuSans-102"/>
      <use x="469.404297" xlink:href="#DejaVuSans-45"/>
      <use x="505.488281" xlink:href="#DejaVuSans-101"/>
      <use x="567.011719" xlink:href="#DejaVuSans-118"/>
      <use x="626.191406" xlink:href="#DejaVuSans-97"/>
      <use x="687.470703" xlink:href="#DejaVuSans-108"/>
      <use x="715.253906" xlink:href="#DejaVuSans-115"/>
      <use x="767.353516" xlink:href="#DejaVuSans-32"/>
      <use x="799.140625" xlink:href="#DejaVuSans-47"/>
      <use x="832.832031" xlink:href="#DejaVuSans-32"/>
      <use x="864.619141" xlink:href="#DejaVuSans-100"/>
      <use x="928.095703" xlink:href="#DejaVuSans-105"/>
      <use x="955.878906" xlink:href="#DejaVuSans-109"/>
      <use x="1053.291016" xlink:href="#DejaVuSans-101"/>
      <use x="1114.814453" xlink:href="#DejaVuSans-110"/>
      <use x="1178.193359" xlink:href="#DejaVuSans-115"/>
      <use x="1230.292969" xlink:href="#DejaVuSans-105"/>
      <use x="1258.076172" xlink:href="#DejaVuSans-111"/>
      <use x="1319.257812" xlink:href="#DejaVuSans-110"/>
      <use x="1382.636719" xlink:href="#DejaVuSans-41"/>
     </g>
    </g>
   </g>
   <g id="matplotlib.axis_2">
    <g id="ytick_1">
     <g id="line2d_17">
      <path clip-path="url(#pc501fcbc4d)" d="M 57.6 298.944 
L 338.688 298.944 
" style="fill:none;stroke:#b0b0b0;stroke-linecap:square;stroke-width:0.8;"/>
     </g>
     <g id="line2d_18">
      <defs>
       <path d="M 0 0 
L -3.5 0 
" id="mc75f73523f" style="stroke:#000000;stroke-width:0.8;"/>
      </defs>
      <g>
       <use style="stroke:#000000;stroke-width:0.8;" x="57.6" xlink:href="#mc75f73523f" y="298.944"/>
      </g>
     </g>
     <g id="text_6">
      <!-- 0.0 -->
      <defs>
       <path d="M 10.6875 12.40625 
L 21 12.40625 
L 21 0 
L 10.6875 0 
z
" id="DejaVuSans-46"/>
      </defs>
      <g transform="translate(25.155 305.02275)scale(0.16 -0.16)">
       <use xlink:href="#DejaVuSans-48"/>
       <use x="63.623047" xlink:href="#DejaVuSans-46"/>
       <use x="95.410156" xlink:href="#DejaVuSans-48"/>
      </g>
     </g>
    </g>
    <g id="ytick_2">
     <g id="line2d_19">
      <path clip-path="url(#pc501fcbc4d)" d="M 57.6 240.431525 
L 338.688 240.431525 
" style="fill:none;stroke:#b0b0b0;stroke-linecap:square;stroke-width:0.8;"/>
     </g>
     <g id="line2d_20">
      <g>
       <use style="stroke:#000000;stroke-width:0.8;" x="57.6" xlink:href="#mc75f73523f" y="240.431525"/>
      </g>
     </g>
     <g id="text_7">
      <!-- 0.2 -->
      <g transform="translate(25.155 246.510275)scale(0.16 -0.16)">
       <use xlink:href="#DejaVuSans-48"/>
       <use x="63.623047" xlink:href="#DejaVuSans-46"/>
       <use x="95.410156" xlink:href="#DejaVuSans-50"/>
      </g>
     </g>
    </g>
    <g id="ytick_3">
     <g id="line2d_21">
      <path clip-path="url(#pc501fcbc4d)" d="M 57.6 181.91905 
L 338.688 181.91905 
" style="fill:none;stroke:#b0b0b0;stroke-linecap:square;stroke-width:0.8;"/>
     </g>
     <g id="line2d_22">
      <g>
       <use style="stroke:#000000;stroke-width:0.8;" x="57.6" xlink:href="#mc75f73523f" y="181.91905"/>
      </g>
     </g>
     <g id="text_8">
      <!-- 0.4 -->
      <g transform="translate(25.155 187.9978)scale(0.16 -0.16)">
       <use xlink:href="#DejaVuSans-48"/>
       <use x="63.623047" xlink:href="#DejaVuSans-46"/>
       <use x="95.410156" xlink:href="#DejaVuSans-52"/>
      </g>
     </g>
    </g>
    <g id="ytick_4">
     <g id="line2d_23">
      <path clip-path="url(#pc501fcbc4d)" d="M 57.6 123.406574 
L 338.688 123.406574 
" style="fill:none;stroke:#b0b0b0;stroke-linecap:square;stroke-width:0.8;"/>
     </g>
     <g id="line2d_24">
      <g>
       <use style="stroke:#000000;stroke-width:0.8;" x="57.6" xlink:href="#mc75f73523f" y="123.406574"/>
      </g>
     </g>
     <g id="text_9">
      <!-- 0.6 -->
      <g transform="translate(25.155 129.485324)scale(0.16 -0.16)">
       <use xlink:href="#DejaVuSans-48"/>
       <use x="63.623047" xlink:href="#DejaVuSans-46"/>
       <use x="95.410156" xlink:href="#DejaVuSans-54"/>
      </g>
     </g>
    </g>
    <g id="ytick_5">
     <g id="line2d_25">
      <path clip-path="url(#pc501fcbc4d)" d="M 57.6 64.894099 
L 338.688 64.894099 
" style="fill:none;stroke:#b0b0b0;stroke-linecap:square;stroke-width:0.8;"/>
     </g>
     <g id="line2d_26">
      <g>
       <use style="stroke:#000000;stroke-width:0.8;" x="57.6" xlink:href="#mc75f73523f" y="64.894099"/>
      </g>
     </g>
     <g id="text_10">
      <!-- 0.8 -->
      <defs>
       <path d="M 31.78125 34.625 
Q 24.75 34.625 20.71875 30.859375 
Q 16.703125 27.09375 16.703125 20.515625 
Q 16.703125 13.921875 20.71875 10.15625 
Q 24.75 6.390625 31.78125 6.390625 
Q 38.8125 6.390625 42.859375 10.171875 
Q 46.921875 13.96875 46.921875 20.515625 
Q 46.921875 27.09375 42.890625 30.859375 
Q 38.875 34.625 31.78125 34.625 
z
M 21.921875 38.8125 
Q 15.578125 40.375 12.03125 44.71875 
Q 8.5 49.078125 8.5 55.328125 
Q 8.5 64.0625 14.71875 69.140625 
Q 20.953125 74.21875 31.78125 74.21875 
Q 42.671875 74.21875 48.875 69.140625 
Q 55.078125 64.0625 55.078125 55.328125 
Q 55.078125 49.078125 51.53125 44.71875 
Q 48 40.375 41.703125 38.8125 
Q 48.828125 37.15625 52.796875 32.3125 
Q 56.78125 27.484375 56.78125 20.515625 
Q 56.78125 9.90625 50.3125 4.234375 
Q 43.84375 -1.421875 31.78125 -1.421875 
Q 19.734375 -1.421875 13.25 4.234375 
Q 6.78125 9.90625 6.78125 20.515625 
Q 6.78125 27.484375 10.78125 32.3125 
Q 14.796875 37.15625 21.921875 38.8125 
z
M 18.3125 54.390625 
Q 18.3125 48.734375 21.84375 45.5625 
Q 25.390625 42.390625 31.78125 42.390625 
Q 38.140625 42.390625 41.71875 45.5625 
Q 45.3125 48.734375 45.3125 54.390625 
Q 45.3125 60.0625 41.71875 63.234375 
Q 38.140625 66.40625 31.78125 66.40625 
Q 25.390625 66.40625 21.84375 63.234375 
Q 18.3125 60.0625 18.3125 54.390625 
z
" id="DejaVuSans-56"/>
      </defs>
      <g transform="translate(25.155 70.972849)scale(0.16 -0.16)">
       <use xlink:href="#DejaVuSans-48"/>
       <use x="63.623047" xlink:href="#DejaVuSans-46"/>
       <use x="95.410156" xlink:href="#DejaVuSans-56"/>
      </g>
     </g>
    </g>
    <g id="ytick_6">
     <g id="line2d_27">
      <path clip-path="url(#pc501fcbc4d)" d="M 57.6 6.381624 
L 338.688 6.381624 
" style="fill:none;stroke:#b0b0b0;stroke-linecap:square;stroke-width:0.8;"/>
     </g>
     <g id="line2d_28">
      <g>
       <use style="stroke:#000000;stroke-width:0.8;" x="57.6" xlink:href="#mc75f73523f" y="6.381624"/>
      </g>
     </g>
     <g id="text_11">
      <!-- 1.0 -->
      <g transform="translate(25.155 12.460374)scale(0.16 -0.16)">
       <use xlink:href="#DejaVuSans-49"/>
       <use x="63.623047" xlink:href="#DejaVuSans-46"/>
       <use x="95.410156" xlink:href="#DejaVuSans-48"/>
      </g>
     </g>
    </g>
    <g id="text_12">
     <!-- Fraction of function,target pairs -->
     <defs>
      <path d="M 9.8125 72.90625 
L 51.703125 72.90625 
L 51.703125 64.59375 
L 19.671875 64.59375 
L 19.671875 43.109375 
L 48.578125 43.109375 
L 48.578125 34.8125 
L 19.671875 34.8125 
L 19.671875 0 
L 9.8125 0 
z
" id="DejaVuSans-70"/>
      <path d="M 41.109375 46.296875 
Q 39.59375 47.171875 37.8125 47.578125 
Q 36.03125 48 33.890625 48 
Q 26.265625 48 22.1875 43.046875 
Q 18.109375 38.09375 18.109375 28.8125 
L 18.109375 0 
L 9.078125 0 
L 9.078125 54.6875 
L 18.109375 54.6875 
L 18.109375 46.1875 
Q 20.953125 51.171875 25.484375 53.578125 
Q 30.03125 56 36.53125 56 
Q 37.453125 56 38.578125 55.875 
Q 39.703125 55.765625 41.0625 55.515625 
z
" id="DejaVuSans-114"/>
      <path d="M 48.78125 52.59375 
L 48.78125 44.1875 
Q 44.96875 46.296875 41.140625 47.34375 
Q 37.3125 48.390625 33.40625 48.390625 
Q 24.65625 48.390625 19.8125 42.84375 
Q 14.984375 37.3125 14.984375 27.296875 
Q 14.984375 17.28125 19.8125 11.734375 
Q 24.65625 6.203125 33.40625 6.203125 
Q 37.3125 6.203125 41.140625 7.25 
Q 44.96875 8.296875 48.78125 10.40625 
L 48.78125 2.09375 
Q 45.015625 0.34375 40.984375 -0.53125 
Q 36.96875 -1.421875 32.421875 -1.421875 
Q 20.0625 -1.421875 12.78125 6.34375 
Q 5.515625 14.109375 5.515625 27.296875 
Q 5.515625 40.671875 12.859375 48.328125 
Q 20.21875 56 33.015625 56 
Q 37.15625 56 41.109375 55.140625 
Q 45.0625 54.296875 48.78125 52.59375 
z
" id="DejaVuSans-99"/>
      <path d="M 18.3125 70.21875 
L 18.3125 54.6875 
L 36.8125 54.6875 
L 36.8125 47.703125 
L 18.3125 47.703125 
L 18.3125 18.015625 
Q 18.3125 11.328125 20.140625 9.421875 
Q 21.96875 7.515625 27.59375 7.515625 
L 36.8125 7.515625 
L 36.8125 0 
L 27.59375 0 
Q 17.1875 0 13.234375 3.875 
Q 9.28125 7.765625 9.28125 18.015625 
L 9.28125 47.703125 
L 2.6875 47.703125 
L 2.6875 54.6875 
L 9.28125 54.6875 
L 9.28125 70.21875 
z
" id="DejaVuSans-116"/>
      <path d="M 8.5 21.578125 
L 8.5 54.6875 
L 17.484375 54.6875 
L 17.484375 21.921875 
Q 17.484375 14.15625 20.5 10.265625 
Q 23.53125 6.390625 29.59375 6.390625 
Q 36.859375 6.390625 41.078125 11.03125 
Q 45.3125 15.671875 45.3125 23.6875 
L 45.3125 54.6875 
L 54.296875 54.6875 
L 54.296875 0 
L 45.3125 0 
L 45.3125 8.40625 
Q 42.046875 3.421875 37.71875 1 
Q 33.40625 -1.421875 27.6875 -1.421875 
Q 18.265625 -1.421875 13.375 4.4375 
Q 8.5 10.296875 8.5 21.578125 
z
M 31.109375 56 
z
" id="DejaVuSans-117"/>
      <path d="M 11.71875 12.40625 
L 22.015625 12.40625 
L 22.015625 4 
L 14.015625 -11.625 
L 7.71875 -11.625 
L 11.71875 4 
z
" id="DejaVuSans-44"/>
      <path d="M 18.109375 8.203125 
L 18.109375 -20.796875 
L 9.078125 -20.796875 
L 9.078125 54.6875 
L 18.109375 54.6875 
L 18.109375 46.390625 
Q 20.953125 51.265625 25.265625 53.625 
Q 29.59375 56 35.59375 56 
Q 45.5625 56 51.78125 48.09375 
Q 58.015625 40.1875 58.015625 27.296875 
Q 58.015625 14.40625 51.78125 6.484375 
Q 45.5625 -1.421875 35.59375 -1.421875 
Q 29.59375 -1.421875 25.265625 0.953125 
Q 20.953125 3.328125 18.109375 8.203125 
z
M 48.6875 27.296875 
Q 48.6875 37.203125 44.609375 42.84375 
Q 40.53125 48.484375 33.40625 48.484375 
Q 26.265625 48.484375 22.1875 42.84375 
Q 18.109375 37.203125 18.109375 27.296875 
Q 18.109375 17.390625 22.1875 11.75 
Q 26.265625 6.109375 33.40625 6.109375 
Q 40.53125 6.109375 44.609375 11.75 
Q 48.6875 17.390625 48.6875 27.296875 
z
" id="DejaVuSans-112"/>
     </defs>
     <g transform="translate(17.619531 286.339375)rotate(-90)scale(0.17 -0.17)">
      <use xlink:href="#DejaVuSans-70"/>
      <use x="57.410156" xlink:href="#DejaVuSans-114"/>
      <use x="98.523438" xlink:href="#DejaVuSans-97"/>
      <use x="159.802734" xlink:href="#DejaVuSans-99"/>
      <use x="214.783203" xlink:href="#DejaVuSans-116"/>
      <use x="253.992188" xlink:href="#DejaVuSans-105"/>
      <use x="281.775391" xlink:href="#DejaVuSans-111"/>
      <use x="342.957031" xlink:href="#DejaVuSans-110"/>
      <use x="406.335938" xlink:href="#DejaVuSans-32"/>
      <use x="438.123047" xlink:href="#DejaVuSans-111"/>
      <use x="499.304688" xlink:href="#DejaVuSans-102"/>
      <use x="534.509766" xlink:href="#DejaVuSans-32"/>
      <use x="566.296875" xlink:href="#DejaVuSans-102"/>
      <use x="601.501953" xlink:href="#DejaVuSans-117"/>
      <use x="664.880859" xlink:href="#DejaVuSans-110"/>
      <use x="728.259766" xlink:href="#DejaVuSans-99"/>
      <use x="783.240234" xlink:href="#DejaVuSans-116"/>
      <use x="822.449219" xlink:href="#DejaVuSans-105"/>
      <use x="850.232422" xlink:href="#DejaVuSans-111"/>
      <use x="911.414062" xlink:href="#DejaVuSans-110"/>
      <use x="974.792969" xlink:href="#DejaVuSans-44"/>
      <use x="1006.580078" xlink:href="#DejaVuSans-116"/>
      <use x="1045.789062" xlink:href="#DejaVuSans-97"/>
      <use x="1107.068359" xlink:href="#DejaVuSans-114"/>
      <use x="1148.166016" xlink:href="#DejaVuSans-103"/>
      <use x="1211.642578" xlink:href="#DejaVuSans-101"/>
      <use x="1273.166016" xlink:href="#DejaVuSans-116"/>
      <use x="1312.375" xlink:href="#DejaVuSans-32"/>
      <use x="1344.162109" xlink:href="#DejaVuSans-112"/>
      <use x="1407.638672" xlink:href="#DejaVuSans-97"/>
      <use x="1468.917969" xlink:href="#DejaVuSans-105"/>
      <use x="1496.701172" xlink:href="#DejaVuSans-114"/>
      <use x="1537.814453" xlink:href="#DejaVuSans-115"/>
     </g>
    </g>
   </g>
   <g id="line2d_29">
    <defs>
     <path d="M 0 1.5 
C 0.397805 1.5 0.77937 1.341951 1.06066 1.06066 
C 1.341951 0.77937 1.5 0.397805 1.5 0 
C 1.5 -0.397805 1.341951 -0.77937 1.06066 -1.06066 
C 0.77937 -1.341951 0.397805 -1.5 0 -1.5 
C -0.397805 -1.5 -0.77937 -1.341951 -1.06066 -1.06066 
C -1.341951 -0.77937 -1.5 -0.397805 -1.5 0 
C -1.5 0.397805 -1.341951 0.77937 -1.06066 1.06066 
C -0.77937 1.341951 -0.397805 1.5 0 1.5 
z
" id="m26b88eed84" style="stroke:#00bfbf;"/>
    </defs>
    <g>
     <use style="fill:#00bfbf;stroke:#00bfbf;" x="221.959736" xlink:href="#m26b88eed84" y="233.691117"/>
     <use style="fill:#00bfbf;stroke:#00bfbf;" x="221.959736" xlink:href="#m26b88eed84" y="233.691117"/>
    </g>
   </g>
   <g id="line2d_30">
    <path d="M 45.512012 298.944 
L 45.512012 290.697757 
L 57.6 290.697757 
L 57.6 286.443173 
L 64.67102 286.443173 
L 64.67102 283.622719 
L 69.687988 283.622719 
L 69.687988 282.021274 
L 73.579452 282.021274 
L 73.579452 280.109102 
L 76.759008 280.109102 
L 76.759008 278.005712 
L 79.447285 278.005712 
L 79.447285 277.31255 
L 81.775977 277.31255 
L 81.775977 274.444291 
L 83.830028 274.444291 
L 83.830028 274.20527 
L 85.66744 274.20527 
L 85.66744 273.034064 
L 87.329581 273.034064 
L 87.329581 272.627727 
L 88.846997 272.627727 
L 88.846997 270.739457 
L 90.242884 270.739457 
L 90.242884 270.333121 
L 91.535274 270.333121 
L 91.535274 269.281426 
L 92.73846 269.281426 
L 92.73846 268.9946 
L 93.863965 268.9946 
L 93.863965 268.373144 
L 94.921215 268.373144 
L 94.921215 267.871199 
L 95.918017 267.871199 
L 95.918017 267.321449 
L 96.86091 267.321449 
L 96.86091 267.034623 
L 97.755429 267.034623 
L 97.755429 266.484874 
L 100.192776 266.413167 
L 100.192776 266.174146 
L 100.934985 266.174146 
L 100.934985 266.054635 
L 101.646892 266.054635 
L 101.646892 265.839515 
L 102.330873 265.839515 
L 102.330873 265.6722 
L 102.989037 265.6722 
L 102.989037 265.433179 
L 103.623262 265.433179 
L 103.623262 264.859527 
L 104.826449 264.763918 
L 104.826449 264.238071 
L 138.761723 264.166365 
L 138.84457 264.046854 
L 138.927025 264.046854 
L 139.009092 263.712224 
L 139.090775 263.712224 
L 139.172077 263.329789 
L 139.253002 263.329789 
L 139.333553 262.995159 
L 139.413734 262.995159 
L 139.493548 262.349801 
L 139.572998 262.349801 
L 139.652088 262.110779 
L 139.730821 262.110779 
L 139.8092 261.154693 
L 139.887228 261.154693 
L 139.964909 260.939574 
L 140.042245 260.939574 
L 140.11924 260.628846 
L 140.195896 260.628846 
L 140.272217 260.270313 
L 140.348205 260.270313 
L 140.423864 260.00739 
L 140.574203 260.00739 
L 140.574203 259.863977 
L 140.79731 259.768368 
L 140.871049 259.529347 
L 140.944478 259.529347 
L 141.017599 259.075206 
L 141.090414 259.075206 
L 141.090414 258.836184 
L 150.556607 258.740575 
L 150.556607 258.716673 
L 150.973835 258.668869 
L 151.056095 258.382043 
L 151.097081 258.382043 
L 151.178764 257.760587 
L 151.300575 257.736685 
L 151.381313 257.115229 
L 151.501723 257.043522 
L 151.581536 256.756697 
L 151.660987 256.661088 
L 151.660987 256.613284 
L 151.779487 256.613284 
L 151.858043 256.469871 
L 151.936246 256.445969 
L 151.975216 256.063534 
L 157.415209 255.967925 
L 157.415209 255.920121 
L 157.976006 255.824513 
L 158.086033 255.370372 
L 158.140788 255.274763 
L 158.249784 254.701111 
L 158.276927 254.701111 
L 158.358103 254.270872 
L 158.412011 254.270872 
L 158.465753 253.960144 
L 158.599388 253.91234 
L 158.67908 253.601612 
L 162.559939 253.506003 
L 162.559939 253.482101 
L 163.020547 253.410395 
L 163.103002 253.123569 
L 163.185069 253.051863 
L 163.287113 252.573819 
L 163.348054 252.502113 
L 163.449152 252.406504 
L 163.50953 252.310896 
L 163.549667 251.928461 
L 166.845764 251.832853 
L 166.945039 251.498222 
L 167.027338 251.426516 
L 167.125588 250.852864 
L 167.288118 250.757256 
L 167.320442 250.637745 
L 170.050192 250.542136 
L 170.14658 250.279213 
L 170.174022 250.279213 
L 170.256089 249.825072 
L 170.378471 249.777267 
L 170.419074 249.490441 
L 171.455636 249.466539 
L 171.455636 249.370931 
L 172.696997 249.275322 
L 172.791647 248.988496 
L 172.83878 248.964594 
L 172.932666 248.558257 
L 173.026049 248.486551 
L 173.026049 248.414844 
L 174.087407 248.319236 
L 174.087407 248.295334 
L 175.08786 248.199725 
L 175.19099 247.960704 
L 175.262821 247.912899 
L 175.313947 247.602171 
L 176.121974 247.530465 
L 176.121974 247.387052 
L 176.24824 247.387052 
L 176.257915 247.243639 
L 177.024289 247.171932 
L 177.135015 246.885107 
L 177.190115 246.789498 
L 177.245042 246.502672 
L 177.336204 246.47877 
L 177.336204 246.383161 
L 178.170609 246.287553 
L 178.179274 246.168042 
L 178.925454 246.096335 
L 179.033027 245.642195 
L 179.148138 245.546586 
L 179.238053 245.379271 
L 179.799624 245.355369 
L 179.9098 245.188054 
L 180.533936 245.092445 
L 180.639584 244.733913 
L 180.781946 244.638304 
L 180.804318 244.518793 
L 181.47683 244.447087 
L 181.483999 244.351478 
L 182.103627 244.25587 
L 182.207084 243.921239 
L 182.364534 243.825631 
L 182.364534 243.753924 
L 182.92119 243.658316 
L 182.92779 243.467098 
L 183.498982 243.37149 
L 183.607202 243.03686 
L 184.175348 242.965153 
L 184.261135 242.845642 
L 184.790916 242.750034 
L 184.891431 242.295893 
L 184.920884 242.248089 
L 185.014801 242.009067 
L 185.888232 241.913458 
L 185.993706 241.81785 
L 186.05448 241.746143 
L 186.142502 241.435415 
L 186.999115 241.339807 
L 187.082507 241.292002 
L 187.14479 241.196394 
L 187.206852 240.93347 
L 187.670432 240.861764 
L 187.740671 240.670546 
L 188.170926 240.574938 
L 188.239182 240.312014 
L 188.695419 240.216405 
L 188.756934 240.120797 
L 189.291851 240.025188 
L 189.305589 239.929579 
L 190.162992 239.833971 
L 190.232575 239.690558 
L 190.635863 239.594949 
L 190.741569 239.523243 
L 191.017592 239.451536 
L 191.121016 239.212515 
L 191.508526 239.116906 
L 191.508526 239.093004 
L 191.903394 238.997395 
L 191.966381 238.901787 
L 192.712519 238.806178 
L 192.735094 238.614961 
L 193.377375 238.519352 
L 193.485761 238.399842 
L 193.582736 238.304233 
L 193.582736 238.280331 
L 193.877511 238.208624 
L 193.965332 238.113016 
L 194.188156 238.041309 
L 194.281313 237.730581 
L 194.876661 237.634973 
L 194.943046 237.395951 
L 195.580584 237.300342 
L 195.669787 237.15693 
L 196.170951 237.061321 
L 196.281755 236.822299 
L 196.613015 236.726691 
L 196.685116 236.654984 
L 196.920363 236.559376 
L 196.926277 236.511571 
L 197.507835 236.415963 
L 197.596265 236.224745 
L 198.114871 236.129137 
L 198.114871 236.105235 
L 198.908561 236.009626 
L 198.974414 235.961822 
L 199.217229 235.914017 
L 199.243138 235.794507 
L 199.579037 235.698898 
L 199.68285 235.651094 
L 200.205097 235.555485 
L 200.2882 235.459877 
L 200.778667 235.364268 
L 200.792886 235.292561 
L 201.34545 235.196953 
L 201.34545 235.173051 
L 202.211717 235.077442 
L 202.283632 235.005736 
L 202.711123 234.934029 
L 202.711123 234.886225 
L 203.525775 234.790616 
L 203.525775 234.766714 
L 204.635958 234.671105 
L 204.635958 234.647203 
L 205.532281 234.551595 
L 205.555732 234.479888 
L 206.272685 234.38428 
L 206.293434 234.336475 
L 206.948013 234.240867 
L 207.00451 234.193062 
L 207.862326 234.121356 
L 207.862326 234.073552 
L 209.74674 233.977943 
L 209.74674 233.954041 
L 211.595772 233.858432 
L 211.698741 233.810628 
L 221.959736 233.715019 
L 221.959736 233.691117 
L 338.688 233.691117 
L 338.688 233.691117 
" style="fill:none;stroke:#00bfbf;stroke-linecap:square;stroke-width:1.5;"/>
   </g>
   <g id="line2d_31">
    <defs>
     <path d="M -6 0 
L 6 0 
M 0 6 
L 0 -6 
" id="mc16d0ddebb" style="stroke:#00bfbf;stroke-width:1.5;"/>
    </defs>
    <g>
     <use style="fill-opacity:0;stroke:#00bfbf;stroke-width:1.5;" x="88.846997" xlink:href="#mc16d0ddebb" y="272.627727"/>
     <use style="fill-opacity:0;stroke:#00bfbf;stroke-width:1.5;" x="142.553247" xlink:href="#mc16d0ddebb" y="258.78838"/>
     <use style="fill-opacity:0;stroke:#00bfbf;stroke-width:1.5;" x="194.281313" xlink:href="#mc16d0ddebb" y="237.730581"/>
     <use style="fill-opacity:0;stroke:#00bfbf;stroke-width:1.5;" x="221.959736" xlink:href="#mc16d0ddebb" y="233.691117"/>
     <use style="fill-opacity:0;stroke:#00bfbf;stroke-width:1.5;" x="221.959736" xlink:href="#mc16d0ddebb" y="233.691117"/>
     <use style="fill-opacity:0;stroke:#00bfbf;stroke-width:1.5;" x="338.688" xlink:href="#mc16d0ddebb" y="233.691117"/>
    </g>
   </g>
   <g id="line2d_32">
    <path style="fill:none;stroke:#00bfbf;stroke-linecap:square;stroke-width:1.5;"/>
    <g/>
   </g>
   <g id="line2d_33">
    <path clip-path="url(#pc501fcbc4d)" d="M 138.761723 264.11856 
" style="fill:none;stroke:#00bfbf;stroke-linecap:square;stroke-width:1.5;"/>
    <defs>
     <path d="M -12 12 
L 12 -12 
M -12 -12 
L 12 12 
" id="m3c8a7b412d" style="stroke:#00bfbf;"/>
    </defs>
    <g clip-path="url(#pc501fcbc4d)">
     <use style="fill:#00bfbf;stroke:#00bfbf;" x="138.761723" xlink:href="#m3c8a7b412d" y="264.11856"/>
    </g>
   </g>
   <g id="line2d_34">
    <defs>
     <path d="M 0 1.5 
C 0.397805 1.5 0.77937 1.341951 1.06066 1.06066 
C 1.341951 0.77937 1.5 0.397805 1.5 0 
C 1.5 -0.397805 1.341951 -0.77937 1.06066 -1.06066 
C 0.77937 -1.341951 0.397805 -1.5 0 -1.5 
C -0.397805 -1.5 -0.77937 -1.341951 -1.06066 -1.06066 
C -1.341951 -0.77937 -1.5 -0.397805 -1.5 0 
C -1.5 0.397805 -1.341951 0.77937 -1.06066 1.06066 
C -0.77937 1.341951 -0.397805 1.5 0 1.5 
z
" id="mec65056ce8" style="stroke:#008000;"/>
    </defs>
    <g>
     <use style="fill:#008000;stroke:#008000;" x="222.213339" xlink:href="#mec65056ce8" y="253.290884"/>
     <use style="fill:#008000;stroke:#008000;" x="222.213339" xlink:href="#mec65056ce8" y="253.290884"/>
    </g>
   </g>
   <g id="line2d_35">
    <path d="M 38.440992 298.944 
L 38.440992 291.773354 
L 50.52898 291.773354 
L 50.52898 289.980692 
L 57.6 289.980692 
L 57.6 288.713878 
L 62.616969 288.713878 
L 62.616969 287.925107 
L 66.508432 287.925107 
L 66.508432 286.992923 
L 69.687988 286.992923 
L 69.687988 285.989032 
L 72.376266 285.989032 
L 72.376266 285.08075 
L 74.704957 285.08075 
L 74.704957 284.889533 
L 76.759008 284.889533 
L 76.759008 284.124664 
L 78.59642 284.124664 
L 78.59642 283.742229 
L 80.258561 283.742229 
L 80.258561 283.216382 
L 81.775977 283.216382 
L 81.775977 282.475415 
L 83.171864 282.475415 
L 83.171864 282.069079 
L 84.464254 282.069079 
L 84.464254 281.806155 
L 85.66744 281.806155 
L 85.66744 281.375916 
L 86.792945 281.375916 
L 86.792945 281.136895 
L 88.846997 281.065188 
L 88.846997 280.778362 
L 90.684409 280.706656 
L 90.684409 279.774472 
L 91.535274 279.774472 
L 91.535274 279.511548 
L 92.34655 279.511548 
L 92.34655 279.392037 
L 93.121756 279.392037 
L 93.121756 278.86619 
L 93.863965 278.86619 
L 93.863965 278.292538 
L 94.575872 278.292538 
L 94.575872 278.149125 
L 95.259853 278.149125 
L 95.259853 277.934006 
L 95.918017 277.934006 
L 95.918017 277.790593 
L 96.552242 277.790593 
L 96.552242 276.643289 
L 97.16421 276.643289 
L 97.16421 276.475974 
L 97.755429 276.475974 
L 97.755429 276.356464 
L 137.968891 276.284757 
L 138.026733 275.997931 
L 138.199116 275.950127 
L 138.256201 275.495986 
L 138.313099 275.495986 
L 138.369812 275.328671 
L 138.482688 275.256964 
L 138.538853 275.113552 
L 138.650644 275.017943 
L 138.761723 274.778921 
L 138.816998 274.778921 
L 138.927025 274.468193 
L 139.036363 274.444291 
L 139.145019 274.085759 
L 139.199094 274.085759 
L 139.306744 273.631618 
L 139.466984 273.583814 
L 139.520072 273.273086 
L 150.143571 273.177477 
L 150.229833 272.938455 
L 150.344189 272.890651 
L 150.429467 272.603825 
L 150.51433 272.556021 
L 150.598782 272.340902 
L 150.654857 272.316999 
L 150.738632 271.934565 
L 150.79426 271.934565 
L 150.849711 271.456522 
L 157.166482 271.360913 
L 157.262567 271.026283 
L 157.358125 270.930674 
L 157.453162 270.596044 
L 157.547684 270.500436 
L 157.641697 270.094099 
L 160.711523 270.070197 
L 160.711523 269.902882 
L 162.159347 269.87898 
L 162.260361 269.32923 
L 162.346481 269.233621 
L 162.44642 268.922893 
L 162.489076 268.898991 
L 162.517456 268.540459 
L 166.036331 268.44485 
L 166.117256 268.181927 
L 166.209284 268.11022 
L 166.312239 267.77559 
L 168.253135 267.727786 
L 168.253135 267.464862 
L 169.264103 267.393156 
L 169.350555 267.058525 
L 169.3984 266.962917 
L 169.427043 266.795602 
L 171.073566 266.699993 
L 171.073566 266.652189 
L 171.91244 266.55658 
L 172.011434 266.365363 
L 172.077118 266.269754 
L 172.093501 266.126341 
L 173.026049 266.030733 
L 173.026049 265.935124 
L 173.500721 265.935124 
L 173.55351 265.743907 
L 174.247335 265.696103 
L 174.348349 265.433179 
L 175.142939 265.33757 
L 175.211544 265.289766 
L 175.630972 265.218059 
L 175.6777 265.026842 
L 176.293345 265.00294 
L 176.396004 264.500995 
L 176.881775 264.405386 
L 176.881775 264.381484 
L 177.153401 264.285875 
L 177.153401 264.214169 
L 177.529105 264.11856 
L 177.529105 264.070756 
L 178.141693 263.975147 
L 178.234056 263.544909 
L 178.845031 263.473202 
L 178.883902 263.401496 
L 179.24077 263.329789 
L 179.27877 263.234181 
L 179.786461 263.138572 
L 179.881012 262.803942 
L 180.488462 262.756137 
L 180.488462 262.660529 
L 181.250686 262.56492 
L 181.356906 262.301997 
L 181.510261 262.206388 
L 181.619658 262.086877 
L 181.943792 261.991268 
L 181.943792 261.943464 
L 182.229991 261.919562 
L 182.26201 261.800051 
L 182.686389 261.728345 
L 182.770927 261.34591 
L 183.096329 261.274204 
L 183.096329 261.2264 
L 183.286971 261.2264 
L 183.286971 261.106889 
L 183.552115 261.059084 
L 183.581799 260.915672 
L 183.983875 260.820063 
L 184.058243 260.604944 
L 185.206924 260.509335 
L 185.253182 260.318118 
L 185.697882 260.270313 
L 185.795183 260.102998 
L 186.313602 260.00739 
L 186.367856 259.840075 
L 186.788874 259.768368 
L 186.788874 259.648857 
L 187.378095 259.553249 
L 187.398532 259.314227 
L 187.815615 259.218619 
L 187.901817 259.075206 
L 188.020474 259.075206 
L 188.020474 258.931793 
L 188.407055 258.836184 
L 188.407055 258.812282 
L 188.979093 258.716673 
L 188.979093 258.668869 
L 189.314741 258.57326 
L 189.345213 258.501554 
L 189.703804 258.429847 
L 189.78118 258.286434 
L 190.157181 258.190826 
L 190.238361 257.904 
L 190.821479 257.808391 
L 190.821479 257.784489 
L 191.054895 257.712783 
L 191.085231 257.593272 
L 191.477571 257.497663 
L 191.477571 257.449859 
L 191.863912 257.378153 
L 191.96114 257.258642 
L 192.616878 257.163033 
L 192.642098 257.115229 
L 193.112013 257.067425 
L 193.173234 256.971816 
L 193.521741 256.876207 
L 193.521741 256.852305 
L 193.832847 256.780599 
L 193.832847 256.68499 
L 194.103772 256.589381 
L 194.115355 256.517675 
L 194.740894 256.422066 
L 194.792209 256.254751 
L 195.409399 256.183045 
L 195.448063 256.039632 
L 196.06151 255.944023 
L 196.080142 255.872317 
L 196.450704 255.776708 
L 196.450704 255.728904 
L 197.246596 255.633295 
L 197.248531 255.585491 
L 197.815867 255.489882 
L 197.823358 255.442078 
L 198.368956 255.346469 
L 198.403401 255.203056 
L 198.919114 255.107448 
L 198.919114 255.059644 
L 199.583269 254.964035 
L 199.583269 254.940133 
L 200.151113 254.844524 
L 200.151113 254.820622 
L 200.910926 254.725013 
L 200.99074 254.653307 
L 201.815637 254.557698 
L 201.815637 254.533796 
L 202.875865 254.438188 
L 202.916459 254.390383 
L 204.187464 254.294775 
L 204.187464 254.270872 
L 204.941747 254.175264 
L 204.941747 254.12746 
L 205.444815 254.055753 
L 205.444815 254.007949 
L 206.675152 253.936242 
L 206.71568 253.864536 
L 207.808545 253.768927 
L 207.904392 253.721123 
L 210.99127 253.625514 
L 211.101796 253.57771 
L 215.235012 253.482101 
L 215.325155 253.434297 
L 221.293396 253.338688 
L 221.293396 253.314786 
L 338.688 253.290884 
L 338.688 253.290884 
" style="fill:none;stroke:#008000;stroke-linecap:square;stroke-width:1.5;"/>
   </g>
   <g id="line2d_36">
    <defs>
     <path d="M -0 6 
L 6 -6 
L -6 -6 
z
" id="mc643220381" style="stroke:#008000;stroke-linejoin:miter;stroke-width:1.5;"/>
    </defs>
    <g>
     <use style="fill-opacity:0;stroke:#008000;stroke-linejoin:miter;stroke-width:1.5;" x="62.616969" xlink:href="#mc643220381" y="287.925107"/>
     <use style="fill-opacity:0;stroke:#008000;stroke-linejoin:miter;stroke-width:1.5;" x="108.326001" xlink:href="#mc643220381" y="276.284757"/>
     <use style="fill-opacity:0;stroke:#008000;stroke-linejoin:miter;stroke-width:1.5;" x="204.187464" xlink:href="#mc643220381" y="254.294775"/>
     <use style="fill-opacity:0;stroke:#008000;stroke-linejoin:miter;stroke-width:1.5;" x="222.213339" xlink:href="#mc643220381" y="253.314786"/>
     <use style="fill-opacity:0;stroke:#008000;stroke-linejoin:miter;stroke-width:1.5;" x="222.213339" xlink:href="#mc643220381" y="253.290884"/>
     <use style="fill-opacity:0;stroke:#008000;stroke-linejoin:miter;stroke-width:1.5;" x="338.688" xlink:href="#mc643220381" y="253.290884"/>
    </g>
   </g>
   <g id="line2d_37">
    <path style="fill:none;stroke:#008000;stroke-linecap:square;stroke-width:1.5;"/>
    <g/>
   </g>
   <g id="line2d_38">
    <path clip-path="url(#pc501fcbc4d)" d="M 137.910857 276.284757 
" style="fill:none;stroke:#008000;stroke-linecap:square;stroke-width:1.5;"/>
    <defs>
     <path d="M -12 12 
L 12 -12 
M -12 -12 
L 12 12 
" id="mb004b7577c" style="stroke:#008000;"/>
    </defs>
    <g clip-path="url(#pc501fcbc4d)">
     <use style="fill:#008000;stroke:#008000;" x="137.910857" xlink:href="#mb004b7577c" y="276.284757"/>
    </g>
   </g>
   <g id="line2d_39">
    <defs>
     <path d="M 0 1.5 
C 0.397805 1.5 0.77937 1.341951 1.06066 1.06066 
C 1.341951 0.77937 1.5 0.397805 1.5 0 
C 1.5 -0.397805 1.341951 -0.77937 1.06066 -1.06066 
C 0.77937 -1.341951 0.397805 -1.5 0 -1.5 
C -0.397805 -1.5 -0.77937 -1.341951 -1.06066 -1.06066 
C -1.341951 -0.77937 -1.5 -0.397805 -1.5 0 
C -1.5 0.397805 -1.341951 0.77937 -1.06066 1.06066 
C -0.77937 1.341951 -0.397805 1.5 0 1.5 
z
" id="maafe60c810" style="stroke:#0000ff;"/>
    </defs>
    <g>
     <use style="fill:#0000ff;stroke:#0000ff;" x="229.660719" xlink:href="#maafe60c810" y="268.588263"/>
     <use style="fill:#0000ff;stroke:#0000ff;" x="229.660719" xlink:href="#maafe60c810" y="268.588263"/>
    </g>
   </g>
   <g id="line2d_40">
    <path d="M 29.53256 298.944 
L 29.53256 292.872853 
L 41.620548 292.872853 
L 41.620548 291.892864 
L 48.691568 291.892864 
L 48.691568 291.271408 
L 53.708537 291.271408 
L 53.708537 290.554344 
L 57.6 290.554344 
L 57.6 290.124105 
L 63.467834 290.028496 
L 63.467834 289.646062 
L 65.796525 289.646062 
L 65.796525 289.191921 
L 67.850577 289.191921 
L 67.850577 288.976801 
L 69.687988 288.976801 
L 69.687988 288.833388 
L 71.35013 288.833388 
L 71.35013 288.52266 
L 72.867545 288.52266 
L 72.867545 288.379248 
L 74.263433 288.379248 
L 74.263433 288.092422 
L 75.555822 288.092422 
L 75.555822 287.901204 
L 76.759008 287.901204 
L 76.759008 287.757791 
L 78.941764 287.686085 
L 78.941764 287.542672 
L 79.938565 287.542672 
L 79.938565 287.351455 
L 80.881459 287.351455 
L 80.881459 287.040727 
L 82.626842 286.945118 
L 82.626842 286.897314 
L 84.213325 286.825607 
L 84.213325 286.706097 
L 85.66744 286.63439 
L 85.66744 286.419271 
L 86.351421 286.419271 
L 86.351421 286.228054 
L 88.255778 286.204151 
L 88.255778 285.989032 
L 115.958621 285.893423 
L 115.958621 285.869521 
L 138.290362 285.845619 
L 138.392446 285.487087 
L 138.460171 285.391478 
L 138.561269 285.032946 
L 138.628343 284.985142 
L 138.728473 284.722218 
L 138.861092 284.650511 
L 138.959898 284.41149 
L 139.090775 284.339783 
L 139.123342 284.07686 
L 142.539878 283.981251 
L 142.539878 283.957349 
L 150.395406 283.885642 
L 150.49739 283.694425 
L 150.598782 283.598817 
L 150.682827 283.335893 
L 150.783149 283.264186 
L 150.849711 283.072969 
L 157.460743 282.977361 
L 157.56276 282.786143 
L 157.630442 282.714437 
L 157.697862 282.52322 
L 162.440724 282.427611 
L 162.542958 282.188589 
L 162.585379 282.164687 
L 162.678343 281.877861 
L 166.446309 281.782253 
L 166.520851 281.614938 
L 167.493969 281.519329 
L 167.493969 281.495427 
L 169.554414 281.399818 
L 169.645097 281.160797 
L 172.196359 281.08909 
L 172.264595 280.993482 
L 172.458099 280.897873 
L 172.458099 280.850069 
L 174.541525 280.75446 
L 174.643683 280.467634 
L 176.578017 280.443732 
L 176.684054 280.252515 
L 177.23407 280.180808 
L 177.23407 280.133004 
L 178.428718 280.037395 
L 178.513913 279.917885 
L 180.151313 279.822276 
L 180.151313 279.798374 
L 180.615492 279.726667 
L 180.615492 279.678863 
L 181.594035 279.607157 
L 181.673628 279.344233 
L 183.026484 279.248624 
L 183.065806 279.176918 
L 184.100245 279.081309 
L 184.100245 279.057407 
L 184.954987 278.961798 
L 184.954987 278.937896 
L 185.539547 278.86619 
L 185.539547 278.818386 
L 186.113944 278.818386 
L 186.113944 278.698875 
L 187.200656 278.603266 
L 187.200656 278.483755 
L 187.675459 278.388147 
L 187.701573 278.31644 
L 188.223604 278.244734 
L 188.223604 278.19693 
L 188.696367 278.101321 
L 188.766378 278.029614 
L 190.105376 277.934006 
L 190.105376 277.910104 
L 190.725543 277.838397 
L 190.725543 277.790593 
L 191.379768 277.694984 
L 191.397641 277.623278 
L 191.86075 277.599376 
L 191.971095 277.384256 
L 192.189714 277.288648 
L 192.208326 277.216941 
L 192.594655 277.145235 
L 192.67181 276.954017 
L 192.802644 276.906213 
L 192.865456 276.810605 
L 192.974094 276.738898 
L 193.065833 276.643289 
L 193.550471 276.547681 
L 193.550471 276.499877 
L 193.802692 276.404268 
L 193.802692 276.380366 
L 194.267544 276.284757 
L 194.267544 276.260855 
L 194.820701 276.213051 
L 194.888629 276.021833 
L 195.097406 275.950127 
L 195.114473 275.854518 
L 195.61887 275.75891 
L 195.61887 275.735008 
L 196.086763 275.639399 
L 196.194401 275.519888 
L 196.40405 275.42428 
L 196.434491 275.328671 
L 197.304174 275.233062 
L 197.350407 275.089649 
L 197.604799 274.994041 
L 197.604799 274.922334 
L 197.946127 274.850628 
L 198.007374 274.731117 
L 198.544818 274.635508 
L 198.599705 274.5399 
L 199.032684 274.444291 
L 199.105902 274.372585 
L 199.574465 274.276976 
L 199.662642 274.181368 
L 200.034726 274.085759 
L 200.085124 274.014052 
L 200.2882 273.918444 
L 200.343706 273.846737 
L 200.615749 273.751129 
L 200.680717 273.65552 
L 201.049662 273.559911 
L 201.144638 273.464303 
L 201.565744 273.368694 
L 201.629984 273.32089 
L 201.990196 273.225281 
L 201.990196 273.201379 
L 202.525089 273.105771 
L 202.613233 272.98626 
L 203.281448 272.890651 
L 203.293767 272.842847 
L 204.099892 272.747238 
L 204.154676 272.699434 
L 204.664439 272.627727 
L 204.664439 272.579923 
L 205.603977 272.484315 
L 205.640612 272.43651 
L 206.041402 272.340902 
L 206.12954 272.269195 
L 207.504912 272.173586 
L 207.504912 272.149684 
L 208.159852 272.054076 
L 208.159852 272.030174 
L 208.98408 271.934565 
L 209.084497 271.862858 
L 210.145315 271.76725 
L 210.145315 271.743348 
L 211.142147 271.647739 
L 211.142147 271.599935 
L 212.178539 271.504326 
L 212.271512 271.456522 
L 213.292419 271.360913 
L 213.393 271.289207 
L 213.758115 271.193598 
L 213.856053 271.145794 
L 214.241521 271.050185 
L 214.241521 271.026283 
L 215.799898 270.930674 
L 215.799898 270.906772 
L 218.452472 270.811164 
L 218.518777 270.763359 
L 219.097143 270.691653 
L 219.097143 270.619946 
L 219.803131 270.524338 
L 219.803131 270.500436 
L 220.556857 270.404827 
L 220.597081 270.357023 
L 221.441045 270.261414 
L 221.441045 270.237512 
L 221.759148 270.141903 
L 221.759148 270.118001 
L 221.941852 270.022393 
L 222.018049 269.926784 
L 222.226928 269.855077 
L 222.334157 269.735567 
L 222.612942 269.639958 
L 222.681948 269.544349 
L 222.943835 269.472643 
L 223.022938 269.400937 
L 223.291009 269.305328 
L 223.291009 269.281426 
L 223.9688 269.185817 
L 223.996874 269.138013 
L 224.510931 269.042404 
L 224.510931 269.018502 
L 224.989932 268.922893 
L 224.989932 268.898991 
L 225.929476 268.827285 
L 225.970007 268.755578 
L 228.086721 268.65997 
L 228.086721 268.636068 
L 338.688 268.588263 
L 338.688 268.588263 
" style="fill:none;stroke:#0000ff;stroke-linecap:square;stroke-width:1.5;"/>
   </g>
   <g id="line2d_41">
    <defs>
     <path d="M 0 -6 
L -1.347084 -1.854102 
L -5.706339 -1.854102 
L -2.179628 0.708204 
L -3.526712 4.854102 
L -0 2.291796 
L 3.526712 4.854102 
L 2.179628 0.708204 
L 5.706339 -1.854102 
L 1.347084 -1.854102 
z
" id="mdb79b9419a" style="stroke:#0000ff;stroke-linejoin:bevel;stroke-width:1.5;"/>
    </defs>
    <g>
     <use style="fill-opacity:0;stroke:#0000ff;stroke-linejoin:bevel;stroke-width:1.5;" x="104.826449" xlink:href="#mdb79b9419a" y="285.893423"/>
     <use style="fill-opacity:0;stroke:#0000ff;stroke-linejoin:bevel;stroke-width:1.5;" x="186.672152" xlink:href="#mdb79b9419a" y="278.65107"/>
     <use style="fill-opacity:0;stroke:#0000ff;stroke-linejoin:bevel;stroke-width:1.5;" x="229.660719" xlink:href="#mdb79b9419a" y="268.612165"/>
     <use style="fill-opacity:0;stroke:#0000ff;stroke-linejoin:bevel;stroke-width:1.5;" x="229.660719" xlink:href="#mdb79b9419a" y="268.588263"/>
     <use style="fill-opacity:0;stroke:#0000ff;stroke-linejoin:bevel;stroke-width:1.5;" x="229.660719" xlink:href="#mdb79b9419a" y="268.588263"/>
     <use style="fill-opacity:0;stroke:#0000ff;stroke-linejoin:bevel;stroke-width:1.5;" x="338.688" xlink:href="#mdb79b9419a" y="268.588263"/>
    </g>
   </g>
   <g id="line2d_42">
    <path style="fill:none;stroke:#0000ff;stroke-linecap:square;stroke-width:1.5;"/>
    <g/>
   </g>
   <g id="line2d_43">
    <path clip-path="url(#pc501fcbc4d)" d="M 138.256201 285.845619 
" style="fill:none;stroke:#0000ff;stroke-linecap:square;stroke-width:1.5;"/>
    <defs>
     <path d="M -12 12 
L 12 -12 
M -12 -12 
L 12 12 
" id="mbcef506ff0" style="stroke:#0000ff;"/>
    </defs>
    <g clip-path="url(#pc501fcbc4d)">
     <use style="fill:#0000ff;stroke:#0000ff;" x="138.256201" xlink:href="#mbcef506ff0" y="285.845619"/>
    </g>
   </g>
   <g id="line2d_44">
    <defs>
     <path d="M 0 1.5 
C 0.397805 1.5 0.77937 1.341951 1.06066 1.06066 
C 1.341951 0.77937 1.5 0.397805 1.5 0 
C 1.5 -0.397805 1.341951 -0.77937 1.06066 -1.06066 
C 0.77937 -1.341951 0.397805 -1.5 0 -1.5 
C -0.397805 -1.5 -0.77937 -1.341951 -1.06066 -1.06066 
C -1.341951 -0.77937 -1.5 -0.397805 -1.5 0 
C -1.5 0.397805 -1.341951 0.77937 -1.06066 1.06066 
C -0.77937 1.341951 -0.397805 1.5 0 1.5 
z
" id="m2b71003d75" style="stroke:#000000;"/>
    </defs>
    <g>
     <use style="stroke:#000000;" x="238.342074" xlink:href="#m2b71003d75" y="277.671082"/>
     <use style="stroke:#000000;" x="238.342074" xlink:href="#m2b71003d75" y="277.671082"/>
    </g>
   </g>
   <g id="line2d_45">
    <path d="M 17.444571 298.944 
L 17.444571 296.386469 
L 29.53256 296.386469 
L 29.53256 295.454285 
L 36.60358 295.454285 
L 36.60358 294.976242 
L 41.620548 294.976242 
L 41.620548 294.402591 
L 45.512012 294.402591 
L 45.512012 294.259178 
L 48.691568 294.259178 
L 48.691568 293.94845 
L 51.379845 293.94845 
L 51.379845 293.637722 
L 53.708537 293.637722 
L 53.708537 293.3987 
L 57.6 293.350896 
L 57.6 293.159679 
L 60.779557 293.159679 
L 60.779557 292.777244 
L 63.467834 292.705538 
L 63.467834 292.633831 
L 65.796525 292.586027 
L 65.796525 292.347005 
L 70.538854 292.251397 
L 70.538854 292.131886 
L 72.125336 292.084082 
L 72.125336 292.012375 
L 73.579452 291.916766 
L 73.579452 291.892864 
L 75.555822 291.821158 
L 75.555822 291.773354 
L 138.358484 291.677745 
L 138.460171 291.343115 
L 138.645071 291.271408 
L 138.745106 291.008485 
L 147.799224 290.912876 
L 147.907696 290.865072 
L 150.403927 290.769463 
L 150.480434 290.649952 
L 150.539708 290.578246 
L 150.56505 290.410931 
L 155.847985 290.315322 
L 155.847985 290.267518 
L 157.483465 290.171909 
L 157.579705 289.932888 
L 162.474869 289.837279 
L 162.52596 289.693866 
L 166.224193 289.62216 
L 166.224193 289.574355 
L 166.888852 289.478747 
L 166.971417 289.430942 
L 169.420364 289.40704 
L 169.511744 289.287529 
L 172.215882 289.191921 
L 172.264595 289.096312 
L 174.558593 289.000704 
L 174.564989 288.928997 
L 176.593204 288.833388 
L 176.593204 288.809486 
L 178.428718 288.713878 
L 178.505412 288.618269 
L 181.212385 288.52266 
L 181.212385 288.498758 
L 183.002848 288.40315 
L 183.002848 288.379248 
L 184.291671 288.283639 
L 184.328244 288.235835 
L 186.309616 288.140226 
L 186.309616 288.116324 
L 187.397851 288.020715 
L 187.397851 287.996813 
L 188.671702 287.901204 
L 188.700159 287.829498 
L 189.632075 287.733889 
L 189.641057 287.662183 
L 190.509873 287.566574 
L 190.509873 287.542672 
L 192.143875 287.447063 
L 192.143875 287.423161 
L 192.959252 287.327553 
L 192.959252 287.303651 
L 193.599204 287.231944 
L 193.662782 287.136335 
L 194.555803 287.064629 
L 194.555803 287.016825 
L 195.201517 286.921216 
L 195.233477 286.873412 
L 196.231365 286.777803 
L 196.231365 286.753901 
L 197.418379 286.682195 
L 197.506691 286.586586 
L 197.881865 286.490977 
L 197.881865 286.467075 
L 198.577125 286.395369 
L 198.6362 286.323662 
L 199.515941 286.228054 
L 199.619116 286.132445 
L 200.644441 286.036836 
L 200.644441 286.012934 
L 201.009935 285.917326 
L 201.104662 285.845619 
L 202.600425 285.75001 
L 202.600425 285.726108 
L 203.426662 285.6305 
L 203.455561 285.582695 
L 204.599052 285.487087 
L 204.65571 285.41538 
L 205.782117 285.319772 
L 205.782117 285.29587 
L 207.651955 285.200261 
L 207.74347 285.152457 
L 208.059262 285.056848 
L 208.152708 284.985142 
L 208.690464 284.889533 
L 208.775203 284.770022 
L 209.252721 284.674414 
L 209.252721 284.650511 
L 210.364513 284.554903 
L 210.403875 284.507098 
L 211.257184 284.41149 
L 211.330349 284.363685 
L 212.10514 284.268077 
L 212.137553 284.220273 
L 212.535175 284.124664 
L 212.535175 284.100762 
L 213.226125 284.005153 
L 213.226125 283.981251 
L 214.062696 283.885642 
L 214.062696 283.86174 
L 215.654625 283.766132 
L 215.654625 283.742229 
L 219.706823 283.646621 
L 219.71723 283.598817 
L 220.348317 283.503208 
L 220.358348 283.455404 
L 220.660427 283.407599 
L 220.660427 283.335893 
L 221.12796 283.240284 
L 221.12796 283.216382 
L 221.564579 283.120773 
L 221.564579 283.072969 
L 222.563388 282.977361 
L 222.563388 282.953458 
L 223.384647 282.85785 
L 223.384647 282.833948 
L 226.069144 282.738339 
L 226.069144 282.690535 
L 227.793254 282.594926 
L 227.897902 282.355904 
L 227.997546 282.3081 
L 228.098801 281.997372 
L 228.121948 281.925666 
L 228.222485 281.686644 
L 228.399086 281.614938 
L 228.508682 281.280308 
L 228.618938 281.184699 
L 228.716659 280.969579 
L 228.793682 280.897873 
L 228.890431 280.706656 
L 228.994923 280.611047 
L 229.090565 280.467634 
L 229.197214 280.372026 
L 229.28029 280.228613 
L 229.457904 280.133004 
L 229.561063 280.061298 
L 229.737837 279.965689 
L 229.77474 279.917885 
L 229.980412 279.822276 
L 230.070813 279.702765 
L 230.210014 279.607157 
L 230.210014 279.559352 
L 230.465609 279.463744 
L 230.465609 279.439842 
L 230.805366 279.344233 
L 230.900875 279.20082 
L 231.409248 279.105211 
L 231.43559 279.057407 
L 233.22318 278.961798 
L 233.22318 278.937896 
L 235.679579 278.86619 
L 235.744826 278.770581 
L 236.003398 278.674973 
L 236.067447 278.53156 
L 236.194843 278.435951 
L 236.258193 278.340342 
L 236.448286 278.268636 
L 236.448286 278.220832 
L 236.818465 278.149125 
L 236.88725 278.053517 
L 237.129541 277.957908 
L 237.183184 277.886202 
L 237.655368 277.790593 
L 237.655368 277.766691 
L 338.688 277.671082 
L 338.688 277.671082 
" style="fill:none;stroke:#000000;stroke-linecap:square;stroke-width:1.5;"/>
   </g>
   <g id="line2d_46">
    <defs>
     <path d="M 0 6 
C 1.591219 6 3.117479 5.367802 4.242641 4.242641 
C 5.367802 3.117479 6 1.591219 6 0 
C 6 -1.591219 5.367802 -3.117479 4.242641 -4.242641 
C 3.117479 -5.367802 1.591219 -6 0 -6 
C -1.591219 -6 -3.117479 -5.367802 -4.242641 -4.242641 
C -5.367802 -3.117479 -6 -1.591219 -6 0 
C -6 1.591219 -5.367802 3.117479 -4.242641 4.242641 
C -3.117479 5.367802 -1.591219 6 0 6 
z
" id="m8613c42c8a" style="stroke:#000000;stroke-width:1.5;"/>
    </defs>
    <g>
     <use style="fill-opacity:0;stroke:#000000;stroke-width:1.5;" x="76.759008" xlink:href="#m8613c42c8a" y="291.749451"/>
     <use style="fill-opacity:0;stroke:#000000;stroke-width:1.5;" x="155.847985" xlink:href="#m8613c42c8a" y="290.267518"/>
     <use style="fill-opacity:0;stroke:#000000;stroke-width:1.5;" x="223.905971" xlink:href="#m8613c42c8a" y="282.786143"/>
     <use style="fill-opacity:0;stroke:#000000;stroke-width:1.5;" x="238.342074" xlink:href="#m8613c42c8a" y="277.671082"/>
     <use style="fill-opacity:0;stroke:#000000;stroke-width:1.5;" x="238.342074" xlink:href="#m8613c42c8a" y="277.671082"/>
     <use style="fill-opacity:0;stroke:#000000;stroke-width:1.5;" x="338.688" xlink:href="#m8613c42c8a" y="277.671082"/>
    </g>
   </g>
   <g id="line2d_47">
    <path style="fill:none;stroke:#000000;stroke-linecap:square;stroke-width:1.5;"/>
    <g/>
   </g>
   <g id="line2d_48">
    <path clip-path="url(#pc501fcbc4d)" d="M 138.256201 291.725549 
" style="fill:none;stroke:#000000;stroke-linecap:square;stroke-width:1.5;"/>
    <defs>
     <path d="M -12 12 
L 12 -12 
M -12 -12 
L 12 12 
" id="m9396fc5343" style="stroke:#000000;"/>
    </defs>
    <g clip-path="url(#pc501fcbc4d)">
     <use style="stroke:#000000;" x="138.256201" xlink:href="#m9396fc5343" y="291.725549"/>
    </g>
   </g>
   <g id="line2d_49">
    <defs>
     <path d="M 0 1.5 
C 0.397805 1.5 0.77937 1.341951 1.06066 1.06066 
C 1.341951 0.77937 1.5 0.397805 1.5 0 
C 1.5 -0.397805 1.341951 -0.77937 1.06066 -1.06066 
C 0.77937 -1.341951 0.397805 -1.5 0 -1.5 
C -0.397805 -1.5 -0.77937 -1.341951 -1.06066 -1.06066 
C -1.341951 -0.77937 -1.5 -0.397805 -1.5 0 
C -1.5 0.397805 -1.341951 0.77937 -1.06066 1.06066 
C -0.77937 1.341951 -0.397805 1.5 0 1.5 
z
" id="m3e55b75225" style="stroke:#ff0000;"/>
    </defs>
    <g>
     <use style="fill:#ff0000;stroke:#ff0000;" x="279.140674" xlink:href="#m3e55b75225" y="280.539341"/>
     <use style="fill:#ff0000;stroke:#ff0000;" x="279.140674" xlink:href="#m3e55b75225" y="280.539341"/>
    </g>
   </g>
   <g id="line2d_50">
    <path d="M 5.356583 298.944 
L 5.356583 296.410372 
L 17.444571 296.410372 
L 17.444571 295.669405 
L 24.515591 295.669405 
L 24.515591 295.310872 
L 29.53256 295.310872 
L 29.53256 295.191362 
L 33.424023 295.191362 
L 33.424023 295.024047 
L 36.60358 295.024047 
L 36.60358 294.761123 
L 41.620548 294.713319 
L 41.620548 294.569906 
L 43.6746 294.569906 
L 43.6746 294.426493 
L 47.174153 294.378688 
L 47.174153 294.306982 
L 51.379845 294.235275 
L 51.379845 294.163569 
L 56.705482 294.091863 
L 56.705482 293.996254 
L 60.037348 293.900645 
L 60.037348 293.876743 
L 101.294571 293.781135 
L 101.294571 293.757232 
L 138.023846 293.661624 
L 138.127497 293.518211 
L 138.213405 293.422602 
L 138.239095 293.350896 
L 150.111834 293.279189 
L 150.206871 292.992363 
L 157.211708 292.896755 
L 157.228997 292.84895 
L 162.180319 292.777244 
L 162.180319 292.72944 
L 166.674012 292.633831 
L 166.734234 292.586027 
L 169.286718 292.51432 
L 169.286718 292.466516 
L 174.263971 292.370907 
L 174.263971 292.347005 
L 176.69066 292.251397 
L 176.69066 292.227494 
L 182.734047 292.131886 
L 182.734047 292.107984 
L 185.878764 292.012375 
L 185.878764 291.988473 
L 187.985784 291.892864 
L 187.985784 291.868962 
L 190.734401 291.773354 
L 190.734401 291.749451 
L 193.423702 291.653843 
L 193.423702 291.629941 
L 197.185138 291.534332 
L 197.188924 291.486528 
L 198.858875 291.390919 
L 198.858875 291.367017 
L 200.3891 291.29531 
L 200.3891 291.247506 
L 201.792911 291.151897 
L 201.792911 291.127995 
L 203.951703 291.032387 
L 203.951703 291.008485 
L 204.840558 290.912876 
L 204.92674 290.865072 
L 205.937833 290.769463 
L 205.937833 290.745561 
L 207.699367 290.649952 
L 207.735836 290.506539 
L 208.131104 290.410931 
L 208.131104 290.387029 
L 209.120094 290.29142 
L 209.120094 290.267518 
L 210.091055 290.171909 
L 210.091055 290.148007 
L 210.6635 290.052398 
L 210.769299 289.980692 
L 212.181498 289.885083 
L 212.181498 289.861181 
L 212.948491 289.765573 
L 212.948491 289.74167 
L 214.059154 289.646062 
L 214.059154 289.598257 
L 214.679441 289.502649 
L 214.723615 289.430942 
L 215.922495 289.335334 
L 215.922495 289.311432 
L 216.358124 289.239725 
L 216.375581 289.168019 
L 216.933617 289.07241 
L 216.933617 289.048508 
L 217.994047 288.952899 
L 218.094995 288.881193 
L 218.860025 288.785584 
L 218.860025 288.761682 
L 220.45474 288.666073 
L 220.45474 288.642171 
L 221.060884 288.570465 
L 221.060884 288.52266 
L 224.843398 288.427052 
L 224.843398 288.40315 
L 225.657273 288.307541 
L 225.657273 288.283639 
L 226.33066 288.18803 
L 226.33066 288.164128 
L 227.398227 288.06852 
L 227.403481 288.020715 
L 227.797434 287.925107 
L 227.895649 287.877302 
L 228.107509 287.781694 
L 228.216243 287.638281 
L 228.489286 287.542672 
L 228.503122 287.423161 
L 228.781265 287.327553 
L 228.885323 287.112433 
L 229.252982 287.016825 
L 229.354408 286.921216 
L 229.638758 286.825607 
L 229.729591 286.729999 
L 229.905923 286.63439 
L 229.905923 286.610488 
L 230.863114 286.514879 
L 230.953939 286.467075 
L 232.716125 286.371467 
L 232.716125 286.347564 
L 242.016875 286.251956 
L 242.106213 286.180249 
L 244.670488 286.084641 
L 244.670488 286.060738 
L 247.323098 285.96513 
L 247.356102 285.917326 
L 249.051481 285.821717 
L 249.051481 285.797815 
L 253.053184 285.702206 
L 253.149072 285.534891 
L 253.219115 285.439282 
L 253.313864 285.319772 
L 253.42963 285.224163 
L 253.522716 285.152457 
L 259.241124 285.056848 
L 259.340914 284.913435 
L 261.64446 284.817826 
L 261.717718 284.650511 
L 261.800453 284.554903 
L 261.904836 284.315881 
L 262.258404 284.220273 
L 262.339343 284.148566 
L 264.37166 284.052957 
L 264.478992 283.86174 
L 264.557095 283.766132 
L 264.638834 283.598817 
L 264.774889 283.52711 
L 264.84975 283.431501 
L 271.055747 283.335893 
L 271.157109 283.216382 
L 271.379096 283.120773 
L 271.486867 282.977361 
L 272.228814 282.881752 
L 272.331475 282.738339 
L 276.094605 282.64273 
L 276.197608 282.403709 
L 276.348352 282.3081 
L 276.354605 282.236394 
L 278.304798 282.140785 
L 278.360611 282.021274 
L 278.67523 281.925666 
L 278.78539 281.42372 
L 278.796312 281.328112 
L 278.891869 280.682754 
L 279.124681 280.587145 
L 279.140674 280.539341 
L 338.688 280.539341 
L 338.688 280.539341 
" style="fill:none;stroke:#ff0000;stroke-linecap:square;stroke-width:1.5;"/>
   </g>
   <g id="line2d_51">
    <defs>
     <path d="M -6 6 
L 6 6 
L 6 -6 
L -6 -6 
z
" id="m56c655a154" style="stroke:#ff0000;stroke-linejoin:miter;stroke-width:1.5;"/>
    </defs>
    <g>
     <use style="fill-opacity:0;stroke:#ff0000;stroke-linejoin:miter;stroke-width:1.5;" x="64.079801" xlink:href="#m56c655a154" y="293.781135"/>
     <use style="fill-opacity:0;stroke:#ff0000;stroke-linejoin:miter;stroke-width:1.5;" x="162.180319" xlink:href="#m56c655a154" y="292.72944"/>
     <use style="fill-opacity:0;stroke:#ff0000;stroke-linejoin:miter;stroke-width:1.5;" x="242.459057" xlink:href="#m56c655a154" y="286.108543"/>
     <use style="fill-opacity:0;stroke:#ff0000;stroke-linejoin:miter;stroke-width:1.5;" x="279.140674" xlink:href="#m56c655a154" y="280.539341"/>
     <use style="fill-opacity:0;stroke:#ff0000;stroke-linejoin:miter;stroke-width:1.5;" x="279.140674" xlink:href="#m56c655a154" y="280.539341"/>
     <use style="fill-opacity:0;stroke:#ff0000;stroke-linejoin:miter;stroke-width:1.5;" x="338.688" xlink:href="#m56c655a154" y="280.539341"/>
    </g>
   </g>
   <g id="line2d_52">
    <path style="fill:none;stroke:#ff0000;stroke-linecap:square;stroke-width:1.5;"/>
    <g/>
   </g>
   <g id="line2d_53">
    <path clip-path="url(#pc501fcbc4d)" d="M 137.997836 293.73333 
" style="fill:none;stroke:#ff0000;stroke-linecap:square;stroke-width:1.5;"/>
    <defs>
     <path d="M -12 12 
L 12 -12 
M -12 -12 
L 12 12 
" id="mced8fa0483" style="stroke:#ff0000;"/>
    </defs>
    <g clip-path="url(#pc501fcbc4d)">
     <use style="fill:#ff0000;stroke:#ff0000;" x="137.997836" xlink:href="#mced8fa0483" y="293.73333"/>
    </g>
   </g>
   <g id="line2d_54">
    <path d="M 338.688 280.539341 
L 369.60768 293.092752 
" style="fill:none;stroke:#ff0000;stroke-linecap:square;stroke-width:1.5;"/>
    <g>
     <use style="fill-opacity:0;stroke:#ff0000;stroke-linejoin:miter;stroke-width:1.5;" x="338.688" xlink:href="#m56c655a154" y="280.539341"/>
     <use style="fill-opacity:0;stroke:#ff0000;stroke-linejoin:miter;stroke-width:1.5;" x="369.60768" xlink:href="#m56c655a154" y="293.092752"/>
    </g>
   </g>
   <g id="line2d_55">
    <path d="M 338.688 277.671082 
L 369.60768 222.877782 
" style="fill:none;stroke:#000000;stroke-linecap:square;stroke-width:1.5;"/>
    <g>
     <use style="fill-opacity:0;stroke:#000000;stroke-width:1.5;" x="338.688" xlink:href="#m8613c42c8a" y="277.671082"/>
     <use style="fill-opacity:0;stroke:#000000;stroke-width:1.5;" x="369.60768" xlink:href="#m8613c42c8a" y="222.877782"/>
    </g>
   </g>
   <g id="line2d_56">
    <path d="M 338.688 268.588263 
L 369.60768 152.662812 
" style="fill:none;stroke:#0000ff;stroke-linecap:square;stroke-width:1.5;"/>
    <g>
     <use style="fill-opacity:0;stroke:#0000ff;stroke-linejoin:bevel;stroke-width:1.5;" x="338.688" xlink:href="#mdb79b9419a" y="268.588263"/>
     <use style="fill-opacity:0;stroke:#0000ff;stroke-linejoin:bevel;stroke-width:1.5;" x="369.60768" xlink:href="#mdb79b9419a" y="152.662812"/>
    </g>
   </g>
   <g id="line2d_57">
    <path d="M 338.688 253.290884 
L 369.60768 82.447842 
" style="fill:none;stroke:#008000;stroke-linecap:square;stroke-width:1.5;"/>
    <g>
     <use style="fill-opacity:0;stroke:#008000;stroke-linejoin:miter;stroke-width:1.5;" x="338.688" xlink:href="#mc643220381" y="253.290884"/>
     <use style="fill-opacity:0;stroke:#008000;stroke-linejoin:miter;stroke-width:1.5;" x="369.60768" xlink:href="#mc643220381" y="82.447842"/>
    </g>
   </g>
   <g id="line2d_58">
    <path d="M 338.688 233.691117 
L 369.60768 12.232871 
" style="fill:none;stroke:#00bfbf;stroke-linecap:square;stroke-width:1.5;"/>
    <g>
     <use style="fill-opacity:0;stroke:#00bfbf;stroke-width:1.5;" x="338.688" xlink:href="#mc16d0ddebb" y="233.691117"/>
     <use style="fill-opacity:0;stroke:#00bfbf;stroke-width:1.5;" x="369.60768" xlink:href="#mc16d0ddebb" y="12.232871"/>
    </g>
   </g>
   <g id="line2d_59">
    <path d="M 338.688 298.944 
L 338.688 6.381624 
" style="fill:none;stroke:#000000;stroke-linecap:square;stroke-width:1.5;"/>
   </g>
   <g id="patch_3">
    <path d="M 57.6 298.944 
L 57.6 3.456 
" style="fill:none;stroke:#000000;stroke-linecap:square;stroke-linejoin:miter;stroke-width:0.8;"/>
   </g>
   <g id="patch_4">
    <path d="M 338.688 298.944 
L 338.688 3.456 
" style="fill:none;stroke:#000000;stroke-linecap:square;stroke-linejoin:miter;stroke-width:0.8;"/>
   </g>
   <g id="patch_5">
    <path d="M 57.6 298.944 
L 338.688 298.944 
" style="fill:none;stroke:#000000;stroke-linecap:square;stroke-linejoin:miter;stroke-width:0.8;"/>
   </g>
   <g id="patch_6">
    <path d="M 57.6 3.456 
L 338.688 3.456 
" style="fill:none;stroke:#000000;stroke-linecap:square;stroke-linejoin:miter;stroke-width:0.8;"/>
   </g>
   <g id="text_13">
    <!-- 20-D -->
    <defs>
     <path d="M 19.671875 64.796875 
L 19.671875 8.109375 
L 31.59375 8.109375 
Q 46.6875 8.109375 53.6875 14.9375 
Q 60.6875 21.78125 60.6875 36.53125 
Q 60.6875 51.171875 53.6875 57.984375 
Q 46.6875 64.796875 31.59375 64.796875 
z
M 9.8125 72.90625 
L 30.078125 72.90625 
Q 51.265625 72.90625 61.171875 64.09375 
Q 71.09375 55.28125 71.09375 36.53125 
Q 71.09375 17.671875 61.125 8.828125 
Q 51.171875 0 30.078125 0 
L 9.8125 0 
z
" id="DejaVuSans-68"/>
    </defs>
    <g transform="translate(375.22944 297.78369)scale(0.17 -0.17)">
     <use xlink:href="#DejaVuSans-50"/>
     <use x="63.623047" xlink:href="#DejaVuSans-48"/>
     <use x="127.246094" xlink:href="#DejaVuSans-45"/>
     <use x="163.330078" xlink:href="#DejaVuSans-68"/>
    </g>
   </g>
   <g id="text_14">
    <!-- 10-D -->
    <g transform="translate(375.22944 227.56872)scale(0.17 -0.17)">
     <use xlink:href="#DejaVuSans-49"/>
     <use x="63.623047" xlink:href="#DejaVuSans-48"/>
     <use x="127.246094" xlink:href="#DejaVuSans-45"/>
     <use x="163.330078" xlink:href="#DejaVuSans-68"/>
    </g>
   </g>
   <g id="text_15">
    <!-- 5-D -->
    <defs>
     <path d="M 10.796875 72.90625 
L 49.515625 72.90625 
L 49.515625 64.59375 
L 19.828125 64.59375 
L 19.828125 46.734375 
Q 21.96875 47.46875 24.109375 47.828125 
Q 26.265625 48.1875 28.421875 48.1875 
Q 40.625 48.1875 47.75 41.5 
Q 54.890625 34.8125 54.890625 23.390625 
Q 54.890625 11.625 47.5625 5.09375 
Q 40.234375 -1.421875 26.90625 -1.421875 
Q 22.3125 -1.421875 17.546875 -0.640625 
Q 12.796875 0.140625 7.71875 1.703125 
L 7.71875 11.625 
Q 12.109375 9.234375 16.796875 8.0625 
Q 21.484375 6.890625 26.703125 6.890625 
Q 35.15625 6.890625 40.078125 11.328125 
Q 45.015625 15.765625 45.015625 23.390625 
Q 45.015625 31 40.078125 35.4375 
Q 35.15625 39.890625 26.703125 39.890625 
Q 22.75 39.890625 18.8125 39.015625 
Q 14.890625 38.140625 10.796875 36.28125 
z
" id="DejaVuSans-53"/>
    </defs>
    <g transform="translate(375.22944 157.353749)scale(0.17 -0.17)">
     <use xlink:href="#DejaVuSans-53"/>
     <use x="63.623047" xlink:href="#DejaVuSans-45"/>
     <use x="99.707031" xlink:href="#DejaVuSans-68"/>
    </g>
   </g>
   <g id="text_16">
    <!-- 3-D -->
    <defs>
     <path d="M 40.578125 39.3125 
Q 47.65625 37.796875 51.625 33 
Q 55.609375 28.21875 55.609375 21.1875 
Q 55.609375 10.40625 48.1875 4.484375 
Q 40.765625 -1.421875 27.09375 -1.421875 
Q 22.515625 -1.421875 17.65625 -0.515625 
Q 12.796875 0.390625 7.625 2.203125 
L 7.625 11.71875 
Q 11.71875 9.328125 16.59375 8.109375 
Q 21.484375 6.890625 26.8125 6.890625 
Q 36.078125 6.890625 40.9375 10.546875 
Q 45.796875 14.203125 45.796875 21.1875 
Q 45.796875 27.640625 41.28125 31.265625 
Q 36.765625 34.90625 28.71875 34.90625 
L 20.21875 34.90625 
L 20.21875 43.015625 
L 29.109375 43.015625 
Q 36.375 43.015625 40.234375 45.921875 
Q 44.09375 48.828125 44.09375 54.296875 
Q 44.09375 59.90625 40.109375 62.90625 
Q 36.140625 65.921875 28.71875 65.921875 
Q 24.65625 65.921875 20.015625 65.03125 
Q 15.375 64.15625 9.8125 62.3125 
L 9.8125 71.09375 
Q 15.4375 72.65625 20.34375 73.4375 
Q 25.25 74.21875 29.59375 74.21875 
Q 40.828125 74.21875 47.359375 69.109375 
Q 53.90625 64.015625 53.90625 55.328125 
Q 53.90625 49.265625 50.4375 45.09375 
Q 46.96875 40.921875 40.578125 39.3125 
z
" id="DejaVuSans-51"/>
    </defs>
    <g transform="translate(375.22944 87.138779)scale(0.17 -0.17)">
     <use xlink:href="#DejaVuSans-51"/>
     <use x="63.623047" xlink:href="#DejaVuSans-45"/>
     <use x="99.707031" xlink:href="#DejaVuSans-68"/>
    </g>
   </g>
   <g id="text_17">
    <!-- 2-D -->
    <g transform="translate(375.22944 16.923809)scale(0.17 -0.17)">
     <use xlink:href="#DejaVuSans-50"/>
     <use x="63.623047" xlink:href="#DejaVuSans-45"/>
     <use x="99.707031" xlink:href="#DejaVuSans-68"/>
    </g>
   </g>
   <g id="text_18">
    <!-- bbob f1-f24 -->
    <defs>
     <path d="M 48.6875 27.296875 
Q 48.6875 37.203125 44.609375 42.84375 
Q 40.53125 48.484375 33.40625 48.484375 
Q 26.265625 48.484375 22.1875 42.84375 
Q 18.109375 37.203125 18.109375 27.296875 
Q 18.109375 17.390625 22.1875 11.75 
Q 26.265625 6.109375 33.40625 6.109375 
Q 40.53125 6.109375 44.609375 11.75 
Q 48.6875 17.390625 48.6875 27.296875 
z
M 18.109375 46.390625 
Q 20.953125 51.265625 25.265625 53.625 
Q 29.59375 56 35.59375 56 
Q 45.5625 56 51.78125 48.09375 
Q 58.015625 40.1875 58.015625 27.296875 
Q 58.015625 14.40625 51.78125 6.484375 
Q 45.5625 -1.421875 35.59375 -1.421875 
Q 29.59375 -1.421875 25.265625 0.953125 
Q 20.953125 3.328125 18.109375 8.203125 
L 18.109375 0 
L 9.078125 0 
L 9.078125 75.984375 
L 18.109375 75.984375 
z
" id="DejaVuSans-98"/>
    </defs>
    <g transform="translate(60.41088 14.161286)scale(0.102 -0.102)">
     <use xlink:href="#DejaVuSans-98"/>
     <use x="63.476562" xlink:href="#DejaVuSans-98"/>
     <use x="126.953125" xlink:href="#DejaVuSans-111"/>
     <use x="188.134766" xlink:href="#DejaVuSans-98"/>
     <use x="251.611328" xlink:href="#DejaVuSans-32"/>
     <use x="283.398438" xlink:href="#DejaVuSans-102"/>
     <use x="318.603516" xlink:href="#DejaVuSans-49"/>
     <use x="382.226562" xlink:href="#DejaVuSans-45"/>
     <use x="418.310547" xlink:href="#DejaVuSans-102"/>
     <use x="453.515625" xlink:href="#DejaVuSans-50"/>
     <use x="517.138672" xlink:href="#DejaVuSans-52"/>
    </g>
    <!-- 51 targets: 100..1e-08 -->
    <defs>
     <path d="M 11.71875 12.40625 
L 22.015625 12.40625 
L 22.015625 0 
L 11.71875 0 
z
M 11.71875 51.703125 
L 22.015625 51.703125 
L 22.015625 39.3125 
L 11.71875 39.3125 
z
" id="DejaVuSans-58"/>
    </defs>
    <g transform="translate(60.41088 25.583055)scale(0.102 -0.102)">
     <use xlink:href="#DejaVuSans-53"/>
     <use x="63.623047" xlink:href="#DejaVuSans-49"/>
     <use x="127.246094" xlink:href="#DejaVuSans-32"/>
     <use x="159.033203" xlink:href="#DejaVuSans-116"/>
     <use x="198.242188" xlink:href="#DejaVuSans-97"/>
     <use x="259.521484" xlink:href="#DejaVuSans-114"/>
     <use x="300.619141" xlink:href="#DejaVuSans-103"/>
     <use x="364.095703" xlink:href="#DejaVuSans-101"/>
     <use x="425.619141" xlink:href="#DejaVuSans-116"/>
     <use x="464.828125" xlink:href="#DejaVuSans-115"/>
     <use x="516.927734" xlink:href="#DejaVuSans-58"/>
     <use x="550.619141" xlink:href="#DejaVuSans-32"/>
     <use x="582.40625" xlink:href="#DejaVuSans-49"/>
     <use x="646.029297" xlink:href="#DejaVuSans-48"/>
     <use x="709.652344" xlink:href="#DejaVuSans-48"/>
     <use x="773.275391" xlink:href="#DejaVuSans-46"/>
     <use x="805.0625" xlink:href="#DejaVuSans-46"/>
     <use x="836.849609" xlink:href="#DejaVuSans-49"/>
     <use x="900.472656" xlink:href="#DejaVuSans-101"/>
     <use x="961.996094" xlink:href="#DejaVuSans-45"/>
     <use x="998.080078" xlink:href="#DejaVuSans-48"/>
     <use x="1061.703125" xlink:href="#DejaVuSans-56"/>
    </g>
    <!-- 15 instances -->
    <g transform="translate(60.41088 37.004824)scale(0.102 -0.102)">
     <use xlink:href="#DejaVuSans-49"/>
     <use x="63.623047" xlink:href="#DejaVuSans-53"/>
     <use x="127.246094" xlink:href="#DejaVuSans-32"/>
     <use x="159.033203" xlink:href="#DejaVuSans-105"/>
     <use x="186.816406" xlink:href="#DejaVuSans-110"/>
     <use x="250.195312" xlink:href="#DejaVuSans-115"/>
     <use x="302.294922" xlink:href="#DejaVuSans-116"/>
     <use x="341.503906" xlink:href="#DejaVuSans-97"/>
     <use x="402.783203" xlink:href="#DejaVuSans-110"/>
     <use x="466.162109" xlink:href="#DejaVuSans-99"/>
     <use x="521.142578" xlink:href="#DejaVuSans-101"/>
     <use x="582.666016" xlink:href="#DejaVuSans-115"/>
    </g>
   </g>
   <g id="text_19">
    <!-- v2.4 -->
    <g style="fill:#808080;" transform="translate(187.233062 293.909432)scale(0.1 -0.1)">
     <use xlink:href="#DejaVuSans-118"/>
     <use x="59.179688" xlink:href="#DejaVuSans-50"/>
     <use x="122.802734" xlink:href="#DejaVuSans-46"/>
     <use x="154.589844" xlink:href="#DejaVuSans-52"/>
    </g>
   </g>
  </g>
 </g>
 <defs>
  <clipPath id="pc501fcbc4d">
   <rect height="295.488" width="281.088" x="57.6" y="3.456"/>
  </clipPath>
 </defs>
</svg>
