<?xml version="1.0" encoding="utf-8" standalone="no"?>
<!DOCTYPE svg PUBLIC "-//W3C//DTD SVG 1.1//EN"
  "http://www.w3.org/Graphics/SVG/1.1/DTD/svg11.dtd">
<!-- Created with matplotlib (https://matplotlib.org/) -->
<svg height="345.6pt" version="1.1" viewBox="0 0 460.8 345.6" width="460.8pt" xmlns="http://www.w3.org/2000/svg" xmlns:xlink="http://www.w3.org/1999/xlink">
 <defs>
  <style type="text/css">
*{stroke-linecap:butt;stroke-linejoin:round;}
  </style>
 </defs>
 <g id="figure_1">
  <g id="patch_1">
   <path d="M 0 345.6 
L 460.8 345.6 
L 460.8 0 
L 0 0 
z
" style="fill:#ffffff;"/>
  </g>
  <g id="axes_1">
   <g id="patch_2">
    <path d="M 57.6 298.944 
L 338.688 298.944 
L 338.688 3.456 
L 57.6 3.456 
z
" style="fill:#ffffff;"/>
   </g>
   <g id="matplotlib.axis_1">
    <g id="xtick_1">
     <g id="line2d_1">
      <path clip-path="url(#p725dfc68a4)" d="M 57.6 298.944 
L 57.6 3.456 
" style="fill:none;stroke:#b0b0b0;stroke-linecap:square;stroke-width:0.8;"/>
     </g>
     <g id="line2d_2">
      <defs>
       <path d="M 0 0 
L 0 3.5 
" id="m4e4104f7e8" style="stroke:#000000;stroke-width:0.8;"/>
      </defs>
      <g>
       <use style="stroke:#000000;stroke-width:0.8;" x="57.6" xlink:href="#m4e4104f7e8" y="298.944"/>
      </g>
     </g>
     <g id="text_1">
      <!-- 0 -->
      <defs>
       <path d="M 31.78125 66.40625 
Q 24.171875 66.40625 20.328125 58.90625 
Q 16.5 51.421875 16.5 36.375 
Q 16.5 21.390625 20.328125 13.890625 
Q 24.171875 6.390625 31.78125 6.390625 
Q 39.453125 6.390625 43.28125 13.890625 
Q 47.125 21.390625 47.125 36.375 
Q 47.125 51.421875 43.28125 58.90625 
Q 39.453125 66.40625 31.78125 66.40625 
z
M 31.78125 74.21875 
Q 44.046875 74.21875 50.515625 64.515625 
Q 56.984375 54.828125 56.984375 36.375 
Q 56.984375 17.96875 50.515625 8.265625 
Q 44.046875 -1.421875 31.78125 -1.421875 
Q 19.53125 -1.421875 13.0625 8.265625 
Q 6.59375 17.96875 6.59375 36.375 
Q 6.59375 54.828125 13.0625 64.515625 
Q 19.53125 74.21875 31.78125 74.21875 
z
" id="DejaVuSans-48"/>
      </defs>
      <g transform="translate(51.2375 321.140875)scale(0.2 -0.2)">
       <use xlink:href="#DejaVuSans-48"/>
      </g>
     </g>
    </g>
    <g id="xtick_2">
     <g id="line2d_3">
      <path clip-path="url(#p725dfc68a4)" d="M 137.910857 298.944 
L 137.910857 3.456 
" style="fill:none;stroke:#b0b0b0;stroke-linecap:square;stroke-width:0.8;"/>
     </g>
     <g id="line2d_4">
      <g>
       <use style="stroke:#000000;stroke-width:0.8;" x="137.910857" xlink:href="#m4e4104f7e8" y="298.944"/>
      </g>
     </g>
     <g id="text_2">
      <!-- 2 -->
      <defs>
       <path d="M 19.1875 8.296875 
L 53.609375 8.296875 
L 53.609375 0 
L 7.328125 0 
L 7.328125 8.296875 
Q 12.9375 14.109375 22.625 23.890625 
Q 32.328125 33.6875 34.8125 36.53125 
Q 39.546875 41.84375 41.421875 45.53125 
Q 43.3125 49.21875 43.3125 52.78125 
Q 43.3125 58.59375 39.234375 62.25 
Q 35.15625 65.921875 28.609375 65.921875 
Q 23.96875 65.921875 18.8125 64.3125 
Q 13.671875 62.703125 7.8125 59.421875 
L 7.8125 69.390625 
Q 13.765625 71.78125 18.9375 73 
Q 24.125 74.21875 28.421875 74.21875 
Q 39.75 74.21875 46.484375 68.546875 
Q 53.21875 62.890625 53.21875 53.421875 
Q 53.21875 48.921875 51.53125 44.890625 
Q 49.859375 40.875 45.40625 35.40625 
Q 44.1875 33.984375 37.640625 27.21875 
Q 31.109375 20.453125 19.1875 8.296875 
z
" id="DejaVuSans-50"/>
      </defs>
      <g transform="translate(131.548357 321.140875)scale(0.2 -0.2)">
       <use xlink:href="#DejaVuSans-50"/>
      </g>
     </g>
    </g>
    <g id="xtick_3">
     <g id="line2d_5">
      <path clip-path="url(#p725dfc68a4)" d="M 218.221714 298.944 
L 218.221714 3.456 
" style="fill:none;stroke:#b0b0b0;stroke-linecap:square;stroke-width:0.8;"/>
     </g>
     <g id="line2d_6">
      <g>
       <use style="stroke:#000000;stroke-width:0.8;" x="218.221714" xlink:href="#m4e4104f7e8" y="298.944"/>
      </g>
     </g>
     <g id="text_3">
      <!-- 4 -->
      <defs>
       <path d="M 37.796875 64.3125 
L 12.890625 25.390625 
L 37.796875 25.390625 
z
M 35.203125 72.90625 
L 47.609375 72.90625 
L 47.609375 25.390625 
L 58.015625 25.390625 
L 58.015625 17.1875 
L 47.609375 17.1875 
L 47.609375 0 
L 37.796875 0 
L 37.796875 17.1875 
L 4.890625 17.1875 
L 4.890625 26.703125 
z
" id="DejaVuSans-52"/>
      </defs>
      <g transform="translate(211.859214 321.140875)scale(0.2 -0.2)">
       <use xlink:href="#DejaVuSans-52"/>
      </g>
     </g>
    </g>
    <g id="xtick_4">
     <g id="line2d_7">
      <path clip-path="url(#p725dfc68a4)" d="M 298.532571 298.944 
L 298.532571 3.456 
" style="fill:none;stroke:#b0b0b0;stroke-linecap:square;stroke-width:0.8;"/>
     </g>
     <g id="line2d_8">
      <g>
       <use style="stroke:#000000;stroke-width:0.8;" x="298.532571" xlink:href="#m4e4104f7e8" y="298.944"/>
      </g>
     </g>
     <g id="text_4">
      <!-- 6 -->
      <defs>
       <path d="M 33.015625 40.375 
Q 26.375 40.375 22.484375 35.828125 
Q 18.609375 31.296875 18.609375 23.390625 
Q 18.609375 15.53125 22.484375 10.953125 
Q 26.375 6.390625 33.015625 6.390625 
Q 39.65625 6.390625 43.53125 10.953125 
Q 47.40625 15.53125 47.40625 23.390625 
Q 47.40625 31.296875 43.53125 35.828125 
Q 39.65625 40.375 33.015625 40.375 
z
M 52.59375 71.296875 
L 52.59375 62.3125 
Q 48.875 64.0625 45.09375 64.984375 
Q 41.3125 65.921875 37.59375 65.921875 
Q 27.828125 65.921875 22.671875 59.328125 
Q 17.53125 52.734375 16.796875 39.40625 
Q 19.671875 43.65625 24.015625 45.921875 
Q 28.375 48.1875 33.59375 48.1875 
Q 44.578125 48.1875 50.953125 41.515625 
Q 57.328125 34.859375 57.328125 23.390625 
Q 57.328125 12.15625 50.6875 5.359375 
Q 44.046875 -1.421875 33.015625 -1.421875 
Q 20.359375 -1.421875 13.671875 8.265625 
Q 6.984375 17.96875 6.984375 36.375 
Q 6.984375 53.65625 15.1875 63.9375 
Q 23.390625 74.21875 37.203125 74.21875 
Q 40.921875 74.21875 44.703125 73.484375 
Q 48.484375 72.75 52.59375 71.296875 
z
" id="DejaVuSans-54"/>
      </defs>
      <g transform="translate(292.170071 321.140875)scale(0.2 -0.2)">
       <use xlink:href="#DejaVuSans-54"/>
      </g>
     </g>
    </g>
    <g id="xtick_5">
     <g id="line2d_9">
      <path clip-path="url(#p725dfc68a4)" d="M 97.755429 298.944 
L 97.755429 3.456 
" style="fill:none;stroke:#b0b0b0;stroke-linecap:square;stroke-width:0.8;"/>
     </g>
     <g id="line2d_10">
      <defs>
       <path d="M 0 0 
L 0 2 
" id="mcfab417298" style="stroke:#000000;stroke-width:0.6;"/>
      </defs>
      <g>
       <use style="stroke:#000000;stroke-width:0.6;" x="97.755429" xlink:href="#mcfab417298" y="298.944"/>
      </g>
     </g>
    </g>
    <g id="xtick_6">
     <g id="line2d_11">
      <path clip-path="url(#p725dfc68a4)" d="M 178.066286 298.944 
L 178.066286 3.456 
" style="fill:none;stroke:#b0b0b0;stroke-linecap:square;stroke-width:0.8;"/>
     </g>
     <g id="line2d_12">
      <g>
       <use style="stroke:#000000;stroke-width:0.6;" x="178.066286" xlink:href="#mcfab417298" y="298.944"/>
      </g>
     </g>
    </g>
    <g id="xtick_7">
     <g id="line2d_13">
      <path clip-path="url(#p725dfc68a4)" d="M 258.377143 298.944 
L 258.377143 3.456 
" style="fill:none;stroke:#b0b0b0;stroke-linecap:square;stroke-width:0.8;"/>
     </g>
     <g id="line2d_14">
      <g>
       <use style="stroke:#000000;stroke-width:0.6;" x="258.377143" xlink:href="#mcfab417298" y="298.944"/>
      </g>
     </g>
    </g>
    <g id="xtick_8">
     <g id="line2d_15">
      <path clip-path="url(#p725dfc68a4)" d="M 338.688 298.944 
L 338.688 3.456 
" style="fill:none;stroke:#b0b0b0;stroke-linecap:square;stroke-width:0.8;"/>
     </g>
     <g id="line2d_16">
      <g>
       <use style="stroke:#000000;stroke-width:0.6;" x="338.688" xlink:href="#mcfab417298" y="298.944"/>
      </g>
     </g>
    </g>
    <g id="text_5">
     <!-- log10(# f-evals / dimension) -->
     <defs>
      <path d="M 9.421875 75.984375 
L 18.40625 75.984375 
L 18.40625 0 
L 9.421875 0 
z
" id="DejaVuSans-108"/>
      <path d="M 30.609375 48.390625 
Q 23.390625 48.390625 19.1875 42.75 
Q 14.984375 37.109375 14.984375 27.296875 
Q 14.984375 17.484375 19.15625 11.84375 
Q 23.34375 6.203125 30.609375 6.203125 
Q 37.796875 6.203125 41.984375 11.859375 
Q 46.1875 17.53125 46.1875 27.296875 
Q 46.1875 37.015625 41.984375 42.703125 
Q 37.796875 48.390625 30.609375 48.390625 
z
M 30.609375 56 
Q 42.328125 56 49.015625 48.375 
Q 55.71875 40.765625 55.71875 27.296875 
Q 55.71875 13.875 49.015625 6.21875 
Q 42.328125 -1.421875 30.609375 -1.421875 
Q 18.84375 -1.421875 12.171875 6.21875 
Q 5.515625 13.875 5.515625 27.296875 
Q 5.515625 40.765625 12.171875 48.375 
Q 18.84375 56 30.609375 56 
z
" id="DejaVuSans-111"/>
      <path d="M 45.40625 27.984375 
Q 45.40625 37.75 41.375 43.109375 
Q 37.359375 48.484375 30.078125 48.484375 
Q 22.859375 48.484375 18.828125 43.109375 
Q 14.796875 37.75 14.796875 27.984375 
Q 14.796875 18.265625 18.828125 12.890625 
Q 22.859375 7.515625 30.078125 7.515625 
Q 37.359375 7.515625 41.375 12.890625 
Q 45.40625 18.265625 45.40625 27.984375 
z
M 54.390625 6.78125 
Q 54.390625 -7.171875 48.1875 -13.984375 
Q 42 -20.796875 29.203125 -20.796875 
Q 24.46875 -20.796875 20.265625 -20.09375 
Q 16.0625 -19.390625 12.109375 -17.921875 
L 12.109375 -9.1875 
Q 16.0625 -11.328125 19.921875 -12.34375 
Q 23.78125 -13.375 27.78125 -13.375 
Q 36.625 -13.375 41.015625 -8.765625 
Q 45.40625 -4.15625 45.40625 5.171875 
L 45.40625 9.625 
Q 42.625 4.78125 38.28125 2.390625 
Q 33.9375 0 27.875 0 
Q 17.828125 0 11.671875 7.65625 
Q 5.515625 15.328125 5.515625 27.984375 
Q 5.515625 40.671875 11.671875 48.328125 
Q 17.828125 56 27.875 56 
Q 33.9375 56 38.28125 53.609375 
Q 42.625 51.21875 45.40625 46.390625 
L 45.40625 54.6875 
L 54.390625 54.6875 
z
" id="DejaVuSans-103"/>
      <path d="M 12.40625 8.296875 
L 28.515625 8.296875 
L 28.515625 63.921875 
L 10.984375 60.40625 
L 10.984375 69.390625 
L 28.421875 72.90625 
L 38.28125 72.90625 
L 38.28125 8.296875 
L 54.390625 8.296875 
L 54.390625 0 
L 12.40625 0 
z
" id="DejaVuSans-49"/>
      <path d="M 31 75.875 
Q 24.46875 64.65625 21.28125 53.65625 
Q 18.109375 42.671875 18.109375 31.390625 
Q 18.109375 20.125 21.3125 9.0625 
Q 24.515625 -2 31 -13.1875 
L 23.1875 -13.1875 
Q 15.875 -1.703125 12.234375 9.375 
Q 8.59375 20.453125 8.59375 31.390625 
Q 8.59375 42.28125 12.203125 53.3125 
Q 15.828125 64.359375 23.1875 75.875 
z
" id="DejaVuSans-40"/>
      <path d="M 51.125 44 
L 36.921875 44 
L 32.8125 27.6875 
L 47.125 27.6875 
z
M 43.796875 71.78125 
L 38.71875 51.515625 
L 52.984375 51.515625 
L 58.109375 71.78125 
L 65.921875 71.78125 
L 60.890625 51.515625 
L 76.125 51.515625 
L 76.125 44 
L 58.984375 44 
L 54.984375 27.6875 
L 70.515625 27.6875 
L 70.515625 20.21875 
L 53.078125 20.21875 
L 48 0 
L 40.1875 0 
L 45.21875 20.21875 
L 30.90625 20.21875 
L 25.875 0 
L 18.015625 0 
L 23.09375 20.21875 
L 7.71875 20.21875 
L 7.71875 27.6875 
L 24.90625 27.6875 
L 29 44 
L 13.28125 44 
L 13.28125 51.515625 
L 30.90625 51.515625 
L 35.890625 71.78125 
z
" id="DejaVuSans-35"/>
      <path id="DejaVuSans-32"/>
      <path d="M 37.109375 75.984375 
L 37.109375 68.5 
L 28.515625 68.5 
Q 23.6875 68.5 21.796875 66.546875 
Q 19.921875 64.59375 19.921875 59.515625 
L 19.921875 54.6875 
L 34.71875 54.6875 
L 34.71875 47.703125 
L 19.921875 47.703125 
L 19.921875 0 
L 10.890625 0 
L 10.890625 47.703125 
L 2.296875 47.703125 
L 2.296875 54.6875 
L 10.890625 54.6875 
L 10.890625 58.5 
Q 10.890625 67.625 15.140625 71.796875 
Q 19.390625 75.984375 28.609375 75.984375 
z
" id="DejaVuSans-102"/>
      <path d="M 4.890625 31.390625 
L 31.203125 31.390625 
L 31.203125 23.390625 
L 4.890625 23.390625 
z
" id="DejaVuSans-45"/>
      <path d="M 56.203125 29.59375 
L 56.203125 25.203125 
L 14.890625 25.203125 
Q 15.484375 15.921875 20.484375 11.0625 
Q 25.484375 6.203125 34.421875 6.203125 
Q 39.59375 6.203125 44.453125 7.46875 
Q 49.3125 8.734375 54.109375 11.28125 
L 54.109375 2.78125 
Q 49.265625 0.734375 44.1875 -0.34375 
Q 39.109375 -1.421875 33.890625 -1.421875 
Q 20.796875 -1.421875 13.15625 6.1875 
Q 5.515625 13.8125 5.515625 26.8125 
Q 5.515625 40.234375 12.765625 48.109375 
Q 20.015625 56 32.328125 56 
Q 43.359375 56 49.78125 48.890625 
Q 56.203125 41.796875 56.203125 29.59375 
z
M 47.21875 32.234375 
Q 47.125 39.59375 43.09375 43.984375 
Q 39.0625 48.390625 32.421875 48.390625 
Q 24.90625 48.390625 20.390625 44.140625 
Q 15.875 39.890625 15.1875 32.171875 
z
" id="DejaVuSans-101"/>
      <path d="M 2.984375 54.6875 
L 12.5 54.6875 
L 29.59375 8.796875 
L 46.6875 54.6875 
L 56.203125 54.6875 
L 35.6875 0 
L 23.484375 0 
z
" id="DejaVuSans-118"/>
      <path d="M 34.28125 27.484375 
Q 23.390625 27.484375 19.1875 25 
Q 14.984375 22.515625 14.984375 16.5 
Q 14.984375 11.71875 18.140625 8.90625 
Q 21.296875 6.109375 26.703125 6.109375 
Q 34.1875 6.109375 38.703125 11.40625 
Q 43.21875 16.703125 43.21875 25.484375 
L 43.21875 27.484375 
z
M 52.203125 31.203125 
L 52.203125 0 
L 43.21875 0 
L 43.21875 8.296875 
Q 40.140625 3.328125 35.546875 0.953125 
Q 30.953125 -1.421875 24.3125 -1.421875 
Q 15.921875 -1.421875 10.953125 3.296875 
Q 6 8.015625 6 15.921875 
Q 6 25.140625 12.171875 29.828125 
Q 18.359375 34.515625 30.609375 34.515625 
L 43.21875 34.515625 
L 43.21875 35.40625 
Q 43.21875 41.609375 39.140625 45 
Q 35.0625 48.390625 27.6875 48.390625 
Q 23 48.390625 18.546875 47.265625 
Q 14.109375 46.140625 10.015625 43.890625 
L 10.015625 52.203125 
Q 14.9375 54.109375 19.578125 55.046875 
Q 24.21875 56 28.609375 56 
Q 40.484375 56 46.34375 49.84375 
Q 52.203125 43.703125 52.203125 31.203125 
z
" id="DejaVuSans-97"/>
      <path d="M 44.28125 53.078125 
L 44.28125 44.578125 
Q 40.484375 46.53125 36.375 47.5 
Q 32.28125 48.484375 27.875 48.484375 
Q 21.1875 48.484375 17.84375 46.4375 
Q 14.5 44.390625 14.5 40.28125 
Q 14.5 37.15625 16.890625 35.375 
Q 19.28125 33.59375 26.515625 31.984375 
L 29.59375 31.296875 
Q 39.15625 29.25 43.1875 25.515625 
Q 47.21875 21.78125 47.21875 15.09375 
Q 47.21875 7.46875 41.1875 3.015625 
Q 35.15625 -1.421875 24.609375 -1.421875 
Q 20.21875 -1.421875 15.453125 -0.5625 
Q 10.6875 0.296875 5.421875 2 
L 5.421875 11.28125 
Q 10.40625 8.6875 15.234375 7.390625 
Q 20.0625 6.109375 24.8125 6.109375 
Q 31.15625 6.109375 34.5625 8.28125 
Q 37.984375 10.453125 37.984375 14.40625 
Q 37.984375 18.0625 35.515625 20.015625 
Q 33.0625 21.96875 24.703125 23.78125 
L 21.578125 24.515625 
Q 13.234375 26.265625 9.515625 29.90625 
Q 5.8125 33.546875 5.8125 39.890625 
Q 5.8125 47.609375 11.28125 51.796875 
Q 16.75 56 26.8125 56 
Q 31.78125 56 36.171875 55.265625 
Q 40.578125 54.546875 44.28125 53.078125 
z
" id="DejaVuSans-115"/>
      <path d="M 25.390625 72.90625 
L 33.6875 72.90625 
L 8.296875 -9.28125 
L 0 -9.28125 
z
" id="DejaVuSans-47"/>
      <path d="M 45.40625 46.390625 
L 45.40625 75.984375 
L 54.390625 75.984375 
L 54.390625 0 
L 45.40625 0 
L 45.40625 8.203125 
Q 42.578125 3.328125 38.25 0.953125 
Q 33.9375 -1.421875 27.875 -1.421875 
Q 17.96875 -1.421875 11.734375 6.484375 
Q 5.515625 14.40625 5.515625 27.296875 
Q 5.515625 40.1875 11.734375 48.09375 
Q 17.96875 56 27.875 56 
Q 33.9375 56 38.25 53.625 
Q 42.578125 51.265625 45.40625 46.390625 
z
M 14.796875 27.296875 
Q 14.796875 17.390625 18.875 11.75 
Q 22.953125 6.109375 30.078125 6.109375 
Q 37.203125 6.109375 41.296875 11.75 
Q 45.40625 17.390625 45.40625 27.296875 
Q 45.40625 37.203125 41.296875 42.84375 
Q 37.203125 48.484375 30.078125 48.484375 
Q 22.953125 48.484375 18.875 42.84375 
Q 14.796875 37.203125 14.796875 27.296875 
z
" id="DejaVuSans-100"/>
      <path d="M 9.421875 54.6875 
L 18.40625 54.6875 
L 18.40625 0 
L 9.421875 0 
z
M 9.421875 75.984375 
L 18.40625 75.984375 
L 18.40625 64.59375 
L 9.421875 64.59375 
z
" id="DejaVuSans-105"/>
      <path d="M 52 44.1875 
Q 55.375 50.25 60.0625 53.125 
Q 64.75 56 71.09375 56 
Q 79.640625 56 84.28125 50.015625 
Q 88.921875 44.046875 88.921875 33.015625 
L 88.921875 0 
L 79.890625 0 
L 79.890625 32.71875 
Q 79.890625 40.578125 77.09375 44.375 
Q 74.3125 48.1875 68.609375 48.1875 
Q 61.625 48.1875 57.5625 43.546875 
Q 53.515625 38.921875 53.515625 30.90625 
L 53.515625 0 
L 44.484375 0 
L 44.484375 32.71875 
Q 44.484375 40.625 41.703125 44.40625 
Q 38.921875 48.1875 33.109375 48.1875 
Q 26.21875 48.1875 22.15625 43.53125 
Q 18.109375 38.875 18.109375 30.90625 
L 18.109375 0 
L 9.078125 0 
L 9.078125 54.6875 
L 18.109375 54.6875 
L 18.109375 46.1875 
Q 21.1875 51.21875 25.484375 53.609375 
Q 29.78125 56 35.6875 56 
Q 41.65625 56 45.828125 52.96875 
Q 50 49.953125 52 44.1875 
z
" id="DejaVuSans-109"/>
      <path d="M 54.890625 33.015625 
L 54.890625 0 
L 45.90625 0 
L 45.90625 32.71875 
Q 45.90625 40.484375 42.875 44.328125 
Q 39.84375 48.1875 33.796875 48.1875 
Q 26.515625 48.1875 22.3125 43.546875 
Q 18.109375 38.921875 18.109375 30.90625 
L 18.109375 0 
L 9.078125 0 
L 9.078125 54.6875 
L 18.109375 54.6875 
L 18.109375 46.1875 
Q 21.34375 51.125 25.703125 53.5625 
Q 30.078125 56 35.796875 56 
Q 45.21875 56 50.046875 50.171875 
Q 54.890625 44.34375 54.890625 33.015625 
z
" id="DejaVuSans-110"/>
      <path d="M 8.015625 75.875 
L 15.828125 75.875 
Q 23.140625 64.359375 26.78125 53.3125 
Q 30.421875 42.28125 30.421875 31.390625 
Q 30.421875 20.453125 26.78125 9.375 
Q 23.140625 -1.703125 15.828125 -13.1875 
L 8.015625 -13.1875 
Q 14.5 -2 17.703125 9.0625 
Q 20.90625 20.125 20.90625 31.390625 
Q 20.90625 42.671875 17.703125 53.65625 
Q 14.5 64.65625 8.015625 75.875 
z
" id="DejaVuSans-41"/>
     </defs>
     <g transform="translate(77.303219 342.217594)scale(0.17 -0.17)">
      <use xlink:href="#DejaVuSans-108"/>
      <use x="27.783203" xlink:href="#DejaVuSans-111"/>
      <use x="88.964844" xlink:href="#DejaVuSans-103"/>
      <use x="152.441406" xlink:href="#DejaVuSans-49"/>
      <use x="216.064453" xlink:href="#DejaVuSans-48"/>
      <use x="279.6875" xlink:href="#DejaVuSans-40"/>
      <use x="318.701172" xlink:href="#DejaVuSans-35"/>
      <use x="402.490234" xlink:href="#DejaVuSans-32"/>
      <use x="434.277344" xlink:href="#DejaVuSans-102"/>
      <use x="469.404297" xlink:href="#DejaVuSans-45"/>
      <use x="505.488281" xlink:href="#DejaVuSans-101"/>
      <use x="567.011719" xlink:href="#DejaVuSans-118"/>
      <use x="626.191406" xlink:href="#DejaVuSans-97"/>
      <use x="687.470703" xlink:href="#DejaVuSans-108"/>
      <use x="715.253906" xlink:href="#DejaVuSans-115"/>
      <use x="767.353516" xlink:href="#DejaVuSans-32"/>
      <use x="799.140625" xlink:href="#DejaVuSans-47"/>
      <use x="832.832031" xlink:href="#DejaVuSans-32"/>
      <use x="864.619141" xlink:href="#DejaVuSans-100"/>
      <use x="928.095703" xlink:href="#DejaVuSans-105"/>
      <use x="955.878906" xlink:href="#DejaVuSans-109"/>
      <use x="1053.291016" xlink:href="#DejaVuSans-101"/>
      <use x="1114.814453" xlink:href="#DejaVuSans-110"/>
      <use x="1178.193359" xlink:href="#DejaVuSans-115"/>
      <use x="1230.292969" xlink:href="#DejaVuSans-105"/>
      <use x="1258.076172" xlink:href="#DejaVuSans-111"/>
      <use x="1319.257812" xlink:href="#DejaVuSans-110"/>
      <use x="1382.636719" xlink:href="#DejaVuSans-41"/>
     </g>
    </g>
   </g>
   <g id="matplotlib.axis_2">
    <g id="ytick_1">
     <g id="line2d_17">
      <path clip-path="url(#p725dfc68a4)" d="M 57.6 298.944 
L 338.688 298.944 
" style="fill:none;stroke:#b0b0b0;stroke-linecap:square;stroke-width:0.8;"/>
     </g>
     <g id="line2d_18">
      <defs>
       <path d="M 0 0 
L -3.5 0 
" id="mf7e0b4ab38" style="stroke:#000000;stroke-width:0.8;"/>
      </defs>
      <g>
       <use style="stroke:#000000;stroke-width:0.8;" x="57.6" xlink:href="#mf7e0b4ab38" y="298.944"/>
      </g>
     </g>
     <g id="text_6">
      <!-- 0.0 -->
      <defs>
       <path d="M 10.6875 12.40625 
L 21 12.40625 
L 21 0 
L 10.6875 0 
z
" id="DejaVuSans-46"/>
      </defs>
      <g transform="translate(25.155 305.02275)scale(0.16 -0.16)">
       <use xlink:href="#DejaVuSans-48"/>
       <use x="63.623047" xlink:href="#DejaVuSans-46"/>
       <use x="95.410156" xlink:href="#DejaVuSans-48"/>
      </g>
     </g>
    </g>
    <g id="ytick_2">
     <g id="line2d_19">
      <path clip-path="url(#p725dfc68a4)" d="M 57.6 240.431525 
L 338.688 240.431525 
" style="fill:none;stroke:#b0b0b0;stroke-linecap:square;stroke-width:0.8;"/>
     </g>
     <g id="line2d_20">
      <g>
       <use style="stroke:#000000;stroke-width:0.8;" x="57.6" xlink:href="#mf7e0b4ab38" y="240.431525"/>
      </g>
     </g>
     <g id="text_7">
      <!-- 0.2 -->
      <g transform="translate(25.155 246.510275)scale(0.16 -0.16)">
       <use xlink:href="#DejaVuSans-48"/>
       <use x="63.623047" xlink:href="#DejaVuSans-46"/>
       <use x="95.410156" xlink:href="#DejaVuSans-50"/>
      </g>
     </g>
    </g>
    <g id="ytick_3">
     <g id="line2d_21">
      <path clip-path="url(#p725dfc68a4)" d="M 57.6 181.91905 
L 338.688 181.91905 
" style="fill:none;stroke:#b0b0b0;stroke-linecap:square;stroke-width:0.8;"/>
     </g>
     <g id="line2d_22">
      <g>
       <use style="stroke:#000000;stroke-width:0.8;" x="57.6" xlink:href="#mf7e0b4ab38" y="181.91905"/>
      </g>
     </g>
     <g id="text_8">
      <!-- 0.4 -->
      <g transform="translate(25.155 187.9978)scale(0.16 -0.16)">
       <use xlink:href="#DejaVuSans-48"/>
       <use x="63.623047" xlink:href="#DejaVuSans-46"/>
       <use x="95.410156" xlink:href="#DejaVuSans-52"/>
      </g>
     </g>
    </g>
    <g id="ytick_4">
     <g id="line2d_23">
      <path clip-path="url(#p725dfc68a4)" d="M 57.6 123.406574 
L 338.688 123.406574 
" style="fill:none;stroke:#b0b0b0;stroke-linecap:square;stroke-width:0.8;"/>
     </g>
     <g id="line2d_24">
      <g>
       <use style="stroke:#000000;stroke-width:0.8;" x="57.6" xlink:href="#mf7e0b4ab38" y="123.406574"/>
      </g>
     </g>
     <g id="text_9">
      <!-- 0.6 -->
      <g transform="translate(25.155 129.485324)scale(0.16 -0.16)">
       <use xlink:href="#DejaVuSans-48"/>
       <use x="63.623047" xlink:href="#DejaVuSans-46"/>
       <use x="95.410156" xlink:href="#DejaVuSans-54"/>
      </g>
     </g>
    </g>
    <g id="ytick_5">
     <g id="line2d_25">
      <path clip-path="url(#p725dfc68a4)" d="M 57.6 64.894099 
L 338.688 64.894099 
" style="fill:none;stroke:#b0b0b0;stroke-linecap:square;stroke-width:0.8;"/>
     </g>
     <g id="line2d_26">
      <g>
       <use style="stroke:#000000;stroke-width:0.8;" x="57.6" xlink:href="#mf7e0b4ab38" y="64.894099"/>
      </g>
     </g>
     <g id="text_10">
      <!-- 0.8 -->
      <defs>
       <path d="M 31.78125 34.625 
Q 24.75 34.625 20.71875 30.859375 
Q 16.703125 27.09375 16.703125 20.515625 
Q 16.703125 13.921875 20.71875 10.15625 
Q 24.75 6.390625 31.78125 6.390625 
Q 38.8125 6.390625 42.859375 10.171875 
Q 46.921875 13.96875 46.921875 20.515625 
Q 46.921875 27.09375 42.890625 30.859375 
Q 38.875 34.625 31.78125 34.625 
z
M 21.921875 38.8125 
Q 15.578125 40.375 12.03125 44.71875 
Q 8.5 49.078125 8.5 55.328125 
Q 8.5 64.0625 14.71875 69.140625 
Q 20.953125 74.21875 31.78125 74.21875 
Q 42.671875 74.21875 48.875 69.140625 
Q 55.078125 64.0625 55.078125 55.328125 
Q 55.078125 49.078125 51.53125 44.71875 
Q 48 40.375 41.703125 38.8125 
Q 48.828125 37.15625 52.796875 32.3125 
Q 56.78125 27.484375 56.78125 20.515625 
Q 56.78125 9.90625 50.3125 4.234375 
Q 43.84375 -1.421875 31.78125 -1.421875 
Q 19.734375 -1.421875 13.25 4.234375 
Q 6.78125 9.90625 6.78125 20.515625 
Q 6.78125 27.484375 10.78125 32.3125 
Q 14.796875 37.15625 21.921875 38.8125 
z
M 18.3125 54.390625 
Q 18.3125 48.734375 21.84375 45.5625 
Q 25.390625 42.390625 31.78125 42.390625 
Q 38.140625 42.390625 41.71875 45.5625 
Q 45.3125 48.734375 45.3125 54.390625 
Q 45.3125 60.0625 41.71875 63.234375 
Q 38.140625 66.40625 31.78125 66.40625 
Q 25.390625 66.40625 21.84375 63.234375 
Q 18.3125 60.0625 18.3125 54.390625 
z
" id="DejaVuSans-56"/>
      </defs>
      <g transform="translate(25.155 70.972849)scale(0.16 -0.16)">
       <use xlink:href="#DejaVuSans-48"/>
       <use x="63.623047" xlink:href="#DejaVuSans-46"/>
       <use x="95.410156" xlink:href="#DejaVuSans-56"/>
      </g>
     </g>
    </g>
    <g id="ytick_6">
     <g id="line2d_27">
      <path clip-path="url(#p725dfc68a4)" d="M 57.6 6.381624 
L 338.688 6.381624 
" style="fill:none;stroke:#b0b0b0;stroke-linecap:square;stroke-width:0.8;"/>
     </g>
     <g id="line2d_28">
      <g>
       <use style="stroke:#000000;stroke-width:0.8;" x="57.6" xlink:href="#mf7e0b4ab38" y="6.381624"/>
      </g>
     </g>
     <g id="text_11">
      <!-- 1.0 -->
      <g transform="translate(25.155 12.460374)scale(0.16 -0.16)">
       <use xlink:href="#DejaVuSans-49"/>
       <use x="63.623047" xlink:href="#DejaVuSans-46"/>
       <use x="95.410156" xlink:href="#DejaVuSans-48"/>
      </g>
     </g>
    </g>
    <g id="text_12">
     <!-- Fraction of function,target pairs -->
     <defs>
      <path d="M 9.8125 72.90625 
L 51.703125 72.90625 
L 51.703125 64.59375 
L 19.671875 64.59375 
L 19.671875 43.109375 
L 48.578125 43.109375 
L 48.578125 34.8125 
L 19.671875 34.8125 
L 19.671875 0 
L 9.8125 0 
z
" id="DejaVuSans-70"/>
      <path d="M 41.109375 46.296875 
Q 39.59375 47.171875 37.8125 47.578125 
Q 36.03125 48 33.890625 48 
Q 26.265625 48 22.1875 43.046875 
Q 18.109375 38.09375 18.109375 28.8125 
L 18.109375 0 
L 9.078125 0 
L 9.078125 54.6875 
L 18.109375 54.6875 
L 18.109375 46.1875 
Q 20.953125 51.171875 25.484375 53.578125 
Q 30.03125 56 36.53125 56 
Q 37.453125 56 38.578125 55.875 
Q 39.703125 55.765625 41.0625 55.515625 
z
" id="DejaVuSans-114"/>
      <path d="M 48.78125 52.59375 
L 48.78125 44.1875 
Q 44.96875 46.296875 41.140625 47.34375 
Q 37.3125 48.390625 33.40625 48.390625 
Q 24.65625 48.390625 19.8125 42.84375 
Q 14.984375 37.3125 14.984375 27.296875 
Q 14.984375 17.28125 19.8125 11.734375 
Q 24.65625 6.203125 33.40625 6.203125 
Q 37.3125 6.203125 41.140625 7.25 
Q 44.96875 8.296875 48.78125 10.40625 
L 48.78125 2.09375 
Q 45.015625 0.34375 40.984375 -0.53125 
Q 36.96875 -1.421875 32.421875 -1.421875 
Q 20.0625 -1.421875 12.78125 6.34375 
Q 5.515625 14.109375 5.515625 27.296875 
Q 5.515625 40.671875 12.859375 48.328125 
Q 20.21875 56 33.015625 56 
Q 37.15625 56 41.109375 55.140625 
Q 45.0625 54.296875 48.78125 52.59375 
z
" id="DejaVuSans-99"/>
      <path d="M 18.3125 70.21875 
L 18.3125 54.6875 
L 36.8125 54.6875 
L 36.8125 47.703125 
L 18.3125 47.703125 
L 18.3125 18.015625 
Q 18.3125 11.328125 20.140625 9.421875 
Q 21.96875 7.515625 27.59375 7.515625 
L 36.8125 7.515625 
L 36.8125 0 
L 27.59375 0 
Q 17.1875 0 13.234375 3.875 
Q 9.28125 7.765625 9.28125 18.015625 
L 9.28125 47.703125 
L 2.6875 47.703125 
L 2.6875 54.6875 
L 9.28125 54.6875 
L 9.28125 70.21875 
z
" id="DejaVuSans-116"/>
      <path d="M 8.5 21.578125 
L 8.5 54.6875 
L 17.484375 54.6875 
L 17.484375 21.921875 
Q 17.484375 14.15625 20.5 10.265625 
Q 23.53125 6.390625 29.59375 6.390625 
Q 36.859375 6.390625 41.078125 11.03125 
Q 45.3125 15.671875 45.3125 23.6875 
L 45.3125 54.6875 
L 54.296875 54.6875 
L 54.296875 0 
L 45.3125 0 
L 45.3125 8.40625 
Q 42.046875 3.421875 37.71875 1 
Q 33.40625 -1.421875 27.6875 -1.421875 
Q 18.265625 -1.421875 13.375 4.4375 
Q 8.5 10.296875 8.5 21.578125 
z
M 31.109375 56 
z
" id="DejaVuSans-117"/>
      <path d="M 11.71875 12.40625 
L 22.015625 12.40625 
L 22.015625 4 
L 14.015625 -11.625 
L 7.71875 -11.625 
L 11.71875 4 
z
" id="DejaVuSans-44"/>
      <path d="M 18.109375 8.203125 
L 18.109375 -20.796875 
L 9.078125 -20.796875 
L 9.078125 54.6875 
L 18.109375 54.6875 
L 18.109375 46.390625 
Q 20.953125 51.265625 25.265625 53.625 
Q 29.59375 56 35.59375 56 
Q 45.5625 56 51.78125 48.09375 
Q 58.015625 40.1875 58.015625 27.296875 
Q 58.015625 14.40625 51.78125 6.484375 
Q 45.5625 -1.421875 35.59375 -1.421875 
Q 29.59375 -1.421875 25.265625 0.953125 
Q 20.953125 3.328125 18.109375 8.203125 
z
M 48.6875 27.296875 
Q 48.6875 37.203125 44.609375 42.84375 
Q 40.53125 48.484375 33.40625 48.484375 
Q 26.265625 48.484375 22.1875 42.84375 
Q 18.109375 37.203125 18.109375 27.296875 
Q 18.109375 17.390625 22.1875 11.75 
Q 26.265625 6.109375 33.40625 6.109375 
Q 40.53125 6.109375 44.609375 11.75 
Q 48.6875 17.390625 48.6875 27.296875 
z
" id="DejaVuSans-112"/>
     </defs>
     <g transform="translate(17.619531 286.339375)rotate(-90)scale(0.17 -0.17)">
      <use xlink:href="#DejaVuSans-70"/>
      <use x="57.410156" xlink:href="#DejaVuSans-114"/>
      <use x="98.523438" xlink:href="#DejaVuSans-97"/>
      <use x="159.802734" xlink:href="#DejaVuSans-99"/>
      <use x="214.783203" xlink:href="#DejaVuSans-116"/>
      <use x="253.992188" xlink:href="#DejaVuSans-105"/>
      <use x="281.775391" xlink:href="#DejaVuSans-111"/>
      <use x="342.957031" xlink:href="#DejaVuSans-110"/>
      <use x="406.335938" xlink:href="#DejaVuSans-32"/>
      <use x="438.123047" xlink:href="#DejaVuSans-111"/>
      <use x="499.304688" xlink:href="#DejaVuSans-102"/>
      <use x="534.509766" xlink:href="#DejaVuSans-32"/>
      <use x="566.296875" xlink:href="#DejaVuSans-102"/>
      <use x="601.501953" xlink:href="#DejaVuSans-117"/>
      <use x="664.880859" xlink:href="#DejaVuSans-110"/>
      <use x="728.259766" xlink:href="#DejaVuSans-99"/>
      <use x="783.240234" xlink:href="#DejaVuSans-116"/>
      <use x="822.449219" xlink:href="#DejaVuSans-105"/>
      <use x="850.232422" xlink:href="#DejaVuSans-111"/>
      <use x="911.414062" xlink:href="#DejaVuSans-110"/>
      <use x="974.792969" xlink:href="#DejaVuSans-44"/>
      <use x="1006.580078" xlink:href="#DejaVuSans-116"/>
      <use x="1045.789062" xlink:href="#DejaVuSans-97"/>
      <use x="1107.068359" xlink:href="#DejaVuSans-114"/>
      <use x="1148.166016" xlink:href="#DejaVuSans-103"/>
      <use x="1211.642578" xlink:href="#DejaVuSans-101"/>
      <use x="1273.166016" xlink:href="#DejaVuSans-116"/>
      <use x="1312.375" xlink:href="#DejaVuSans-32"/>
      <use x="1344.162109" xlink:href="#DejaVuSans-112"/>
      <use x="1407.638672" xlink:href="#DejaVuSans-97"/>
      <use x="1468.917969" xlink:href="#DejaVuSans-105"/>
      <use x="1496.701172" xlink:href="#DejaVuSans-114"/>
      <use x="1537.814453" xlink:href="#DejaVuSans-115"/>
     </g>
    </g>
   </g>
   <g id="line2d_29">
    <defs>
     <path d="M 0 1.5 
C 0.397805 1.5 0.77937 1.341951 1.06066 1.06066 
C 1.341951 0.77937 1.5 0.397805 1.5 0 
C 1.5 -0.397805 1.341951 -0.77937 1.06066 -1.06066 
C 0.77937 -1.341951 0.397805 -1.5 0 -1.5 
C -0.397805 -1.5 -0.77937 -1.341951 -1.06066 -1.06066 
C -1.341951 -0.77937 -1.5 -0.397805 -1.5 0 
C -1.5 0.397805 -1.341951 0.77937 -1.06066 1.06066 
C -0.77937 1.341951 -0.397805 1.5 0 1.5 
z
" id="m7ec9fa4854" style="stroke:#00bfbf;"/>
    </defs>
    <g>
     <use style="fill:#00bfbf;stroke:#00bfbf;" x="207.961543" xlink:href="#m7ec9fa4854" y="207.159725"/>
     <use style="fill:#00bfbf;stroke:#00bfbf;" x="207.961543" xlink:href="#m7ec9fa4854" y="207.159725"/>
    </g>
   </g>
   <g id="line2d_30">
    <path d="M 45.512012 298.944 
L 45.512012 282.652291 
L 57.6 282.652291 
L 57.6 275.194819 
L 64.67102 275.194819 
L 64.67102 271.064526 
L 69.687988 271.064526 
L 69.687988 269.687762 
L 73.579452 269.687762 
L 73.579452 266.360582 
L 76.759008 266.360582 
L 76.759008 264.524897 
L 79.447285 264.524897 
L 79.447285 263.836515 
L 81.775977 263.836515 
L 81.775977 262.803942 
L 83.830028 262.803942 
L 83.830028 261.886099 
L 85.66744 261.886099 
L 85.66744 260.853526 
L 87.329581 260.853526 
L 87.329581 260.509335 
L 88.846997 260.509335 
L 88.846997 259.362031 
L 90.242884 259.362031 
L 90.242884 258.90311 
L 91.535274 258.90311 
L 91.535274 258.444189 
L 92.73846 258.444189 
L 92.73846 257.985267 
L 93.863965 257.985267 
L 93.863965 257.755807 
L 94.921215 257.755807 
L 94.921215 257.411616 
L 95.918017 257.411616 
L 95.918017 255.920121 
L 96.86091 255.920121 
L 96.86091 255.346469 
L 97.755429 255.346469 
L 97.755429 255.117009 
L 98.606294 255.117009 
L 98.606294 254.658087 
L 99.41757 254.658087 
L 99.41757 254.084436 
L 100.934985 254.084436 
L 100.934985 253.051863 
L 101.646892 253.051863 
L 101.646892 252.592941 
L 102.330873 252.592941 
L 102.330873 252.478211 
L 103.623262 252.478211 
L 103.623262 252.24875 
L 105.398279 252.24875 
L 105.398279 252.019289 
L 105.951954 252.019289 
L 105.951954 251.904559 
L 107.009204 251.904559 
L 107.009204 251.789829 
L 107.514726 251.789829 
L 107.514726 251.675098 
L 108.006005 251.675098 
L 108.006005 251.560368 
L 109.401893 251.560368 
L 109.401893 251.101447 
L 110.274038 251.101447 
L 110.274038 250.986716 
L 111.897469 250.986716 
L 111.897469 250.871986 
L 112.280765 250.871986 
L 112.280765 250.527795 
L 113.382559 250.527795 
L 113.382559 250.298334 
L 114.418861 250.298334 
L 114.418861 250.068874 
L 114.751048 250.068874 
L 114.751048 249.609952 
L 115.077025 249.609952 
L 115.077025 248.80684 
L 115.711251 248.80684 
L 115.711251 247.774267 
L 116.019919 247.774267 
L 116.019919 247.659536 
L 116.914437 247.659536 
L 116.914437 247.544806 
L 117.486268 247.544806 
L 117.486268 247.430076 
L 118.039942 247.430076 
L 118.039942 247.315345 
L 126.673734 247.315345 
L 126.673734 246.397503 
L 126.839037 246.397503 
L 126.839037 245.59439 
L 127.002787 245.59439 
L 127.002787 245.36493 
L 127.48501 245.36493 
L 127.48501 245.135469 
L 128.107907 245.135469 
L 128.107907 244.676547 
L 133.124876 244.676547 
L 133.124876 244.447087 
L 133.239232 244.447087 
L 133.239232 244.217626 
L 133.57787 244.217626 
L 133.57787 243.873435 
L 134.12805 243.873435 
L 134.236034 243.643974 
L 138.084384 243.643974 
L 138.170504 242.611401 
L 138.341479 242.611401 
L 138.426341 242.26721 
L 138.67848 242.26721 
L 138.67848 241.923019 
L 138.84457 241.923019 
L 138.927025 241.693559 
L 139.090775 241.693559 
L 139.090775 241.578828 
L 139.413734 241.578828 
L 139.493548 240.546255 
L 139.730821 240.546255 
L 139.730821 240.316794 
L 140.423864 240.316794 
L 140.423864 240.087334 
L 140.64889 240.087334 
L 140.64889 239.972603 
L 141.017599 239.972603 
L 141.017599 239.628412 
L 141.45 239.628412 
L 141.45 239.513682 
L 141.662245 239.513682 
L 141.662245 239.284221 
L 142.010346 239.284221 
L 142.07914 238.94003 
L 142.215919 238.94003 
L 142.215919 238.136918 
L 145.270136 238.136918 
L 145.327221 236.415963 
L 145.384119 236.415963 
L 145.384119 236.301232 
L 145.553708 236.301232 
L 145.553708 236.186502 
L 145.777292 236.186502 
L 145.777292 236.071772 
L 147.818997 236.071772 
L 147.818997 235.842311 
L 147.96658 235.842311 
L 147.96658 235.727581 
L 148.258051 235.727581 
L 148.258051 235.49812 
L 150.172372 235.49812 
L 150.172372 235.38339 
L 150.344189 235.38339 
L 150.38688 235.039199 
L 150.766468 235.039199 
L 150.808139 234.580277 
L 150.932558 234.580277 
L 150.932558 234.465547 
L 151.300575 234.465547 
L 151.300575 234.350817 
L 152.168773 234.350817 
L 152.207228 233.777165 
L 152.283884 233.777165 
L 152.283884 233.432974 
L 152.436193 233.432974 
L 152.436193 233.318243 
L 154.063835 233.318243 
L 154.132765 232.17094 
L 154.235652 232.17094 
L 154.235652 232.05621 
L 154.371897 232.05621 
L 154.371897 231.941479 
L 155.647315 231.941479 
L 155.647315 231.826749 
L 157.156845 231.826749 
L 157.156845 231.712019 
L 157.329512 231.712019 
L 157.38669 231.482558 
L 157.443681 231.482558 
L 157.443681 231.367828 
L 157.613546 231.367828 
L 157.697862 231.138367 
L 158.572743 231.138367 
L 158.625992 230.449985 
L 159.882266 230.449985 
L 159.931669 228.84376 
L 160.103486 228.84376 
L 160.103486 228.72903 
L 161.100288 228.72903 
L 161.100288 228.614299 
L 161.238149 228.614299 
L 161.238149 228.499569 
L 162.474869 228.499569 
L 162.559939 227.925917 
L 163.225959 227.925917 
L 163.266752 227.122805 
L 163.348054 227.122805 
L 163.348054 227.008075 
L 164.237502 227.008075 
L 164.333587 226.549153 
L 165.138764 226.549153 
L 165.138764 226.434423 
L 166.013141 226.434423 
L 166.013141 226.319692 
L 166.203547 226.319692 
L 166.306535 225.860771 
L 166.878918 225.860771 
L 166.928532 225.287119 
L 167.719528 225.287119 
L 167.719528 225.057659 
L 169.288161 225.057659 
L 169.288161 224.942928 
L 169.431813 224.942928 
L 169.431813 224.598737 
L 169.925477 224.598737 
L 169.953269 224.369277 
L 170.620687 224.369277 
L 170.647393 223.795625 
L 170.740545 223.795625 
L 170.740545 223.680895 
L 171.366236 223.680895 
L 171.366236 223.566164 
L 171.871027 223.566164 
L 171.957882 223.336704 
L 172.081215 223.336704 
L 172.154799 222.992513 
L 172.434028 222.992513 
L 172.530112 222.763052 
L 173.107351 222.763052 
L 173.130511 221.959939 
L 174.445204 221.959939 
L 174.445204 221.845209 
L 174.753684 221.845209 
L 174.774759 221.271557 
L 175.283289 221.271557 
L 175.293514 221.042097 
L 176.24824 221.042097 
L 176.24824 220.927366 
L 176.411991 220.927366 
L 176.411991 220.812636 
L 176.60269 220.812636 
L 176.60269 220.697906 
L 176.744358 220.697906 
L 176.763161 220.238984 
L 177.2176 220.238984 
L 177.235899 219.665333 
L 178.231177 219.665333 
L 178.231177 219.550602 
L 178.958624 219.550602 
L 178.958624 219.206411 
L 179.744273 219.206411 
L 179.744273 218.97695 
L 180.143574 218.97695 
L 180.16678 218.518029 
L 180.541504 218.518029 
L 180.549068 218.288568 
L 181.311118 218.288568 
L 181.311118 218.173838 
L 181.633877 218.173838 
L 181.648084 217.600186 
L 181.992593 217.600186 
L 182.006511 217.370726 
L 182.701992 217.370726 
L 182.768707 216.911804 
L 183.013357 216.911804 
L 183.013357 216.682344 
L 183.332159 216.682344 
L 183.345048 216.108692 
L 183.946572 216.108692 
L 183.946572 215.993962 
L 184.267247 215.993962 
L 184.267247 215.764501 
L 184.576129 215.764501 
L 184.576129 215.649771 
L 185.148928 215.649771 
L 185.247406 215.305579 
L 185.448421 215.305579 
L 185.459838 215.076119 
L 185.737242 215.076119 
L 185.737242 214.158276 
L 186.366051 214.158276 
L 186.366051 214.043546 
L 186.554643 214.043546 
L 186.554643 213.928815 
L 187.417244 213.928815 
L 187.417244 213.814085 
L 187.604956 213.814085 
L 187.604956 213.699355 
L 187.850478 213.699355 
L 187.850478 213.125703 
L 189.346735 213.125703 
L 189.346735 212.896242 
L 189.514881 212.896242 
L 189.514881 212.781512 
L 189.735094 212.781512 
L 189.735094 212.552051 
L 190.236915 212.552051 
L 190.236915 212.322591 
L 190.38813 212.322591 
L 190.38813 212.20786 
L 191.013442 212.20786 
L 191.083854 211.9784 
L 191.236127 211.9784 
L 191.236127 211.863669 
L 191.435761 211.863669 
L 191.435761 211.290017 
L 192.227692 211.290017 
L 192.235432 210.831096 
L 192.802644 210.831096 
L 192.802644 210.716366 
L 192.985217 210.716366 
L 192.985217 210.486905 
L 193.391865 210.486905 
L 193.402725 210.257444 
L 194.111881 210.257444 
L 194.111881 210.027984 
L 194.40817 210.027984 
L 194.40817 209.683793 
L 194.793323 209.683793 
L 194.793323 209.569062 
L 195.07835 209.569062 
L 195.07835 209.339602 
L 196.346067 209.339602 
L 196.346067 209.224871 
L 196.946963 209.224871 
L 196.946963 209.110141 
L 197.387306 209.110141 
L 197.387306 208.995411 
L 197.527842 208.995411 
L 197.527842 208.88068 
L 198.089995 208.88068 
L 198.089995 208.65122 
L 198.634591 208.65122 
L 198.634591 208.536489 
L 199.162694 208.536489 
L 199.167896 208.307029 
L 201.12838 208.307029 
L 201.12838 207.962838 
L 201.475773 207.962838 
L 201.475773 207.848107 
L 201.587033 207.848107 
L 201.587033 207.733377 
L 202.713245 207.733377 
L 202.713245 207.618646 
L 204.111254 207.618646 
L 204.111254 207.503916 
L 204.877519 207.503916 
L 204.877519 207.389186 
L 207.325049 207.389186 
L 207.325049 207.274455 
L 207.961543 207.274455 
L 207.961543 207.159725 
L 338.688 207.159725 
L 338.688 207.159725 
" style="fill:none;stroke:#00bfbf;stroke-linecap:square;stroke-width:1.5;"/>
   </g>
   <g id="line2d_31">
    <defs>
     <path d="M -6 0 
L 6 0 
M 0 6 
L 0 -6 
" id="m7e4ca8f844" style="stroke:#00bfbf;stroke-width:1.5;"/>
    </defs>
    <g>
     <use style="fill-opacity:0;stroke:#00bfbf;stroke-width:1.5;" x="110.274038" xlink:href="#m7e4ca8f844" y="250.986716"/>
     <use style="fill-opacity:0;stroke:#00bfbf;stroke-width:1.5;" x="162.496175" xlink:href="#m7e4ca8f844" y="228.040648"/>
     <use style="fill-opacity:0;stroke:#00bfbf;stroke-width:1.5;" x="207.961543" xlink:href="#m7e4ca8f844" y="207.274455"/>
     <use style="fill-opacity:0;stroke:#00bfbf;stroke-width:1.5;" x="207.961543" xlink:href="#m7e4ca8f844" y="207.159725"/>
     <use style="fill-opacity:0;stroke:#00bfbf;stroke-width:1.5;" x="338.688" xlink:href="#m7e4ca8f844" y="207.159725"/>
    </g>
   </g>
   <g id="line2d_32">
    <path style="fill:none;stroke:#00bfbf;stroke-linecap:square;stroke-width:1.5;"/>
    <g/>
   </g>
   <g id="line2d_33">
    <path clip-path="url(#p725dfc68a4)" d="M 137.910857 243.643974 
" style="fill:none;stroke:#00bfbf;stroke-linecap:square;stroke-width:1.5;"/>
    <defs>
     <path d="M -12 12 
L 12 -12 
M -12 -12 
L 12 12 
" id="mdd981453f0" style="stroke:#00bfbf;"/>
    </defs>
    <g clip-path="url(#p725dfc68a4)">
     <use style="fill:#00bfbf;stroke:#00bfbf;" x="137.910857" xlink:href="#mdd981453f0" y="243.643974"/>
    </g>
   </g>
   <g id="line2d_34">
    <defs>
     <path d="M 0 1.5 
C 0.397805 1.5 0.77937 1.341951 1.06066 1.06066 
C 1.341951 0.77937 1.5 0.397805 1.5 0 
C 1.5 -0.397805 1.341951 -0.77937 1.06066 -1.06066 
C 0.77937 -1.341951 0.397805 -1.5 0 -1.5 
C -0.397805 -1.5 -0.77937 -1.341951 -1.06066 -1.06066 
C -1.341951 -0.77937 -1.5 -0.397805 -1.5 0 
C -1.5 0.397805 -1.341951 0.77937 -1.06066 1.06066 
C -0.77937 1.341951 -0.397805 1.5 0 1.5 
z
" id="m0544e8c187" style="stroke:#008000;"/>
    </defs>
    <g>
     <use style="fill:#008000;stroke:#008000;" x="207.044281" xlink:href="#m0544e8c187" y="233.547704"/>
     <use style="fill:#008000;stroke:#008000;" x="207.044281" xlink:href="#m0544e8c187" y="233.547704"/>
    </g>
   </g>
   <g id="line2d_35">
    <path d="M 38.440992 298.944 
L 38.440992 285.52055 
L 50.52898 285.52055 
L 50.52898 282.652291 
L 57.6 282.652291 
L 57.6 280.242954 
L 62.616969 280.242954 
L 62.616969 276.227392 
L 66.508432 276.227392 
L 66.508432 275.194819 
L 69.687988 275.194819 
L 69.687988 274.047515 
L 72.376266 274.047515 
L 72.376266 273.473864 
L 74.704957 273.473864 
L 74.704957 272.785482 
L 76.759008 272.785482 
L 76.759008 272.670751 
L 78.59642 272.670751 
L 78.59642 272.441291 
L 80.258561 272.441291 
L 80.258561 271.064526 
L 81.775977 271.064526 
L 81.775977 270.835066 
L 83.171864 270.835066 
L 83.171864 270.261414 
L 84.464254 270.261414 
L 84.464254 270.146684 
L 85.66744 270.146684 
L 85.66744 269.917223 
L 86.792945 269.917223 
L 86.792945 269.802493 
L 87.850195 269.802493 
L 87.850195 269.458302 
L 89.78989 269.458302 
L 89.78989 269.228841 
L 90.684409 269.228841 
L 90.684409 268.540459 
L 91.535274 268.540459 
L 91.535274 268.425729 
L 92.34655 268.425729 
L 92.34655 267.737347 
L 94.575872 267.737347 
L 94.575872 267.507886 
L 95.259853 267.507886 
L 95.259853 267.278425 
L 96.552242 267.278425 
L 96.552242 267.163695 
L 97.16421 267.163695 
L 97.16421 266.934234 
L 98.880934 266.934234 
L 98.880934 265.6722 
L 101.877879 265.6722 
L 101.877879 265.55747 
L 102.772397 265.55747 
L 102.772397 265.44274 
L 103.203018 265.44274 
L 103.203018 264.983818 
L 103.623262 264.983818 
L 103.623262 264.639627 
L 104.033617 264.639627 
L 104.033617 264.410167 
L 106.66386 264.410167 
L 106.66386 263.721785 
L 107.347841 263.721785 
L 107.347841 263.148133 
L 107.680028 263.148133 
L 107.680028 262.803942 
L 108.326001 262.803942 
L 108.326001 262.459751 
L 108.640231 262.459751 
L 108.640231 262.23029 
L 109.252198 262.23029 
L 109.252198 262.000829 
L 109.843417 262.000829 
L 109.843417 261.886099 
L 110.131676 261.886099 
L 110.131676 261.312447 
L 110.415248 261.312447 
L 110.415248 261.197717 
L 110.694282 261.197717 
L 110.694282 261.082987 
L 110.968922 261.082987 
L 110.968922 260.968256 
L 119.768017 260.968256 
L 119.768017 260.394605 
L 119.931767 260.394605 
L 119.931767 260.050414 
L 120.254726 260.050414 
L 120.254726 259.820953 
L 120.571812 259.820953 
L 120.571812 259.476762 
L 120.728219 259.476762 
L 120.728219 259.362031 
L 121.036887 259.362031 
L 121.036887 259.132571 
L 126.281824 259.132571 
L 126.281824 258.673649 
L 126.618283 258.673649 
L 126.729009 258.444189 
L 126.948374 258.444189 
L 126.948374 258.329458 
L 131.099484 258.329458 
L 131.185181 257.985267 
L 131.270459 257.985267 
L 131.270459 257.870537 
L 131.690703 257.870537 
L 131.690703 257.526346 
L 131.938072 257.526346 
L 132.019755 257.296885 
L 134.939326 257.296885 
L 134.939326 257.182155 
L 138.026733 257.182155 
L 138.084384 256.723234 
L 138.141844 256.723234 
L 138.141844 256.608503 
L 138.369812 256.608503 
L 138.369812 256.149582 
L 138.538853 256.149582 
L 138.538853 255.69066 
L 139.036363 255.69066 
L 139.145019 254.887548 
L 139.520072 254.887548 
L 139.520072 254.772818 
L 139.678372 254.772818 
L 139.678372 254.428627 
L 140.144829 254.428627 
L 140.246813 253.854975 
L 140.599134 253.854975 
L 140.698504 253.510784 
L 140.89556 253.510784 
L 140.89556 253.396054 
L 141.138789 253.396054 
L 141.187031 253.166593 
L 143.187472 253.166593 
L 143.230373 252.592941 
L 145.136208 252.592941 
L 145.136208 252.13402 
L 145.289185 252.13402 
L 145.289185 252.019289 
L 146.958248 252.019289 
L 146.958248 251.904559 
L 147.164632 251.904559 
L 147.164632 251.675098 
L 150.114722 251.675098 
L 150.201126 251.330907 
L 150.229833 251.330907 
L 150.31567 250.527795 
L 150.626842 250.527795 
L 150.626842 250.413065 
L 150.904986 250.413065 
L 150.904986 250.298334 
L 151.475037 250.298334 
L 151.475037 250.183604 
L 151.713753 250.183604 
L 151.713753 249.954143 
L 152.835965 249.954143 
L 152.835965 249.724683 
L 152.959038 249.724683 
L 153.032466 249.265761 
L 153.983071 249.265761 
L 153.983071 248.92157 
L 155.102793 248.92157 
L 155.102793 248.80684 
L 157.224197 248.80684 
L 157.28172 248.462649 
L 157.453162 248.462649 
L 157.453162 248.003727 
L 157.67916 248.003727 
L 157.67916 247.544806 
L 157.846757 247.544806 
L 157.846757 247.430076 
L 158.012759 247.430076 
L 158.122556 247.085885 
L 159.0116 247.085885 
L 159.0116 246.168042 
L 159.824452 246.168042 
L 159.824452 246.053312 
L 160.616915 246.053312 
L 160.727241 245.823851 
L 160.774311 245.823851 
L 160.774311 245.709121 
L 162.144868 245.709121 
L 162.245966 244.906008 
L 162.375093 244.906008 
L 162.432178 244.561817 
L 162.545789 244.561817 
L 162.545789 244.332356 
L 162.672723 244.332356 
L 162.672723 244.217626 
L 163.563025 244.217626 
L 163.563025 243.988165 
L 164.192481 243.988165 
L 164.192481 243.758705 
L 164.824867 243.758705 
L 164.824867 243.414514 
L 166.02474 243.414514 
L 166.105719 242.726132 
L 166.209284 242.726132 
L 166.209284 242.496671 
L 166.346422 242.496671 
L 166.346422 242.381941 
L 166.583849 242.381941 
L 166.684622 242.03775 
L 167.169078 242.03775 
L 167.169078 241.693559 
L 167.682664 241.693559 
L 167.724788 241.349368 
L 169.264103 241.349368 
L 169.350555 241.119907 
L 169.465162 241.119907 
L 169.465162 241.005176 
L 169.748427 241.005176 
L 169.748427 240.890446 
L 170.155732 240.890446 
L 170.155732 240.546255 
L 171.030109 240.546255 
L 171.030109 240.202064 
L 171.879317 240.202064 
L 171.904165 239.972603 
L 172.109868 239.972603 
L 172.109868 239.628412 
L 172.305086 239.628412 
L 172.353551 239.284221 
L 172.704904 239.284221 
L 172.704904 239.169491 
L 173.080293 239.169491 
L 173.080293 239.054761 
L 173.462916 239.054761 
L 173.462916 238.8253 
L 174.319548 238.8253 
L 174.40581 238.595839 
L 174.928533 238.595839 
L 174.928533 238.481109 
L 175.597519 238.481109 
L 175.597519 238.251648 
L 176.434347 238.251648 
L 176.434347 238.022188 
L 176.90043 238.022188 
L 176.90043 237.792727 
L 177.196227 237.792727 
L 177.196227 237.677997 
L 177.499105 237.677997 
L 177.499105 237.563266 
L 178.939282 237.563266 
L 178.939282 237.448536 
L 179.213577 237.448536 
L 179.213577 237.333805 
L 179.749552 237.333805 
L 179.786461 237.104345 
L 180.279789 237.104345 
L 180.279789 236.760154 
L 180.523841 236.760154 
L 180.523841 236.645423 
L 181.400174 236.645423 
L 181.400174 236.530693 
L 182.207084 236.530693 
L 182.207084 236.301232 
L 183.109394 236.301232 
L 183.109394 236.186502 
L 183.530881 236.186502 
L 183.530881 236.071772 
L 184.761242 236.071772 
L 184.761242 235.957041 
L 185.352989 235.957041 
L 185.352989 235.842311 
L 185.91049 235.842311 
L 185.91049 235.727581 
L 186.378687 235.727581 
L 186.378687 235.61285 
L 186.643738 235.61285 
L 186.643738 235.49812 
L 187.678809 235.49812 
L 187.678809 235.268659 
L 190.247037 235.268659 
L 190.247037 235.153929 
L 191.979474 235.153929 
L 191.979474 235.039199 
L 193.099743 235.039199 
L 193.099743 234.924468 
L 194.513749 234.924468 
L 194.513749 234.809738 
L 194.965118 234.809738 
L 194.965118 234.695008 
L 195.17996 234.695008 
L 195.17996 234.580277 
L 195.61462 234.580277 
L 195.61462 234.465547 
L 197.038276 234.465547 
L 197.038276 234.350817 
L 197.616171 234.350817 
L 197.616171 234.236086 
L 197.994771 234.236086 
L 197.994771 234.121356 
L 199.243138 234.121356 
L 199.243138 233.891895 
L 201.200266 233.891895 
L 201.200266 233.777165 
L 204.55787 233.777165 
L 204.55787 233.662434 
L 207.044281 233.662434 
L 207.044281 233.547704 
L 338.688 233.547704 
L 338.688 233.547704 
" style="fill:none;stroke:#008000;stroke-linecap:square;stroke-width:1.5;"/>
   </g>
   <g id="line2d_36">
    <defs>
     <path d="M -0 6 
L 6 -6 
L -6 -6 
z
" id="mb2fc01ee81" style="stroke:#008000;stroke-linejoin:miter;stroke-width:1.5;"/>
    </defs>
    <g>
     <use style="fill-opacity:0;stroke:#008000;stroke-linejoin:miter;stroke-width:1.5;" x="110.968922" xlink:href="#mb2fc01ee81" y="261.082987"/>
     <use style="fill-opacity:0;stroke:#008000;stroke-linejoin:miter;stroke-width:1.5;" x="159.824452" xlink:href="#mb2fc01ee81" y="246.168042"/>
     <use style="fill-opacity:0;stroke:#008000;stroke-linejoin:miter;stroke-width:1.5;" x="207.044281" xlink:href="#mb2fc01ee81" y="233.662434"/>
     <use style="fill-opacity:0;stroke:#008000;stroke-linejoin:miter;stroke-width:1.5;" x="207.044281" xlink:href="#mb2fc01ee81" y="233.547704"/>
     <use style="fill-opacity:0;stroke:#008000;stroke-linejoin:miter;stroke-width:1.5;" x="207.044281" xlink:href="#mb2fc01ee81" y="233.547704"/>
     <use style="fill-opacity:0;stroke:#008000;stroke-linejoin:miter;stroke-width:1.5;" x="338.688" xlink:href="#mb2fc01ee81" y="233.547704"/>
    </g>
   </g>
   <g id="line2d_37">
    <path style="fill:none;stroke:#008000;stroke-linecap:square;stroke-width:1.5;"/>
    <g/>
   </g>
   <g id="line2d_38">
    <path clip-path="url(#p725dfc68a4)" d="M 137.910857 257.182155 
" style="fill:none;stroke:#008000;stroke-linecap:square;stroke-width:1.5;"/>
    <defs>
     <path d="M -12 12 
L 12 -12 
M -12 -12 
L 12 12 
" id="mafd065b83f" style="stroke:#008000;"/>
    </defs>
    <g clip-path="url(#p725dfc68a4)">
     <use style="fill:#008000;stroke:#008000;" x="137.910857" xlink:href="#mafd065b83f" y="257.182155"/>
    </g>
   </g>
   <g id="line2d_39">
    <defs>
     <path d="M 0 1.5 
C 0.397805 1.5 0.77937 1.341951 1.06066 1.06066 
C 1.341951 0.77937 1.5 0.397805 1.5 0 
C 1.5 -0.397805 1.341951 -0.77937 1.06066 -1.06066 
C 0.77937 -1.341951 0.397805 -1.5 0 -1.5 
C -0.397805 -1.5 -0.77937 -1.341951 -1.06066 -1.06066 
C -1.341951 -0.77937 -1.5 -0.397805 -1.5 0 
C -1.5 0.397805 -1.341951 0.77937 -1.06066 1.06066 
C -0.77937 1.341951 -0.397805 1.5 0 1.5 
z
" id="m5942a9308f" style="stroke:#0000ff;"/>
    </defs>
    <g>
     <use style="fill:#0000ff;stroke:#0000ff;" x="204.949712" xlink:href="#m5942a9308f" y="250.757256"/>
     <use style="fill:#0000ff;stroke:#0000ff;" x="204.949712" xlink:href="#m5942a9308f" y="250.757256"/>
    </g>
   </g>
   <g id="line2d_40">
    <path d="M 29.53256 298.944 
L 29.53256 289.650842 
L 41.620548 289.650842 
L 41.620548 288.044617 
L 48.691568 288.044617 
L 48.691568 287.012044 
L 53.708537 287.012044 
L 53.708537 285.864741 
L 57.6 285.864741 
L 57.6 284.832168 
L 60.779557 284.832168 
L 60.779557 283.340673 
L 63.467834 283.340673 
L 63.467834 282.652291 
L 65.796525 282.652291 
L 65.796525 281.390257 
L 67.850577 281.390257 
L 67.850577 280.931336 
L 69.687988 280.931336 
L 69.687988 280.701875 
L 72.867545 280.701875 
L 72.867545 280.587145 
L 74.263433 280.587145 
L 74.263433 280.357684 
L 75.555822 280.357684 
L 75.555822 280.013493 
L 76.759008 280.013493 
L 76.759008 279.898763 
L 78.941764 279.898763 
L 78.941764 279.784033 
L 80.881459 279.784033 
L 80.881459 279.669302 
L 81.775977 279.669302 
L 81.775977 279.439842 
L 82.626842 279.439842 
L 82.626842 279.325111 
L 84.955534 279.325111 
L 84.955534 279.210381 
L 87.643811 279.210381 
L 87.643811 278.98092 
L 88.255778 278.98092 
L 88.255778 278.86619 
L 89.418828 278.86619 
L 89.418828 278.75146 
L 89.972502 278.75146 
L 89.972502 277.948347 
L 91.535274 277.948347 
L 91.535274 277.604156 
L 92.026554 277.604156 
L 92.026554 277.489426 
L 92.504372 277.489426 
L 92.504372 277.259965 
L 93.863965 277.259965 
L 93.863965 277.145235 
L 94.294587 277.145235 
L 94.294587 276.915774 
L 94.714831 276.915774 
L 94.714831 276.686313 
L 95.526106 276.686313 
L 95.526106 276.456853 
L 96.301313 276.456853 
L 96.301313 275.883201 
L 98.43941 275.883201 
L 98.43941 275.080089 
L 99.731799 275.080089 
L 99.731799 274.735897 
L 100.040467 274.735897 
L 100.040467 274.621167 
L 100.641881 274.621167 
L 100.641881 274.162246 
L 100.934985 274.162246 
L 100.934985 274.047515 
L 101.223245 274.047515 
L 101.223245 273.932785 
L 110.358901 273.932785 
L 110.358901 273.818055 
L 112.128456 273.818055 
L 112.128456 273.703324 
L 118.148599 273.703324 
L 118.256582 273.473864 
L 122.531342 273.473864 
L 122.531342 273.359133 
L 122.947573 273.359133 
L 123.029641 272.785482 
L 126.099688 272.785482 
L 126.099688 272.670751 
L 126.304457 272.670751 
L 126.304457 272.21183 
L 126.640485 272.21183 
L 126.640485 272.0971 
L 129.175952 272.0971 
L 129.233413 271.523448 
L 129.574256 271.523448 
L 129.630422 271.179257 
L 129.79784 271.179257 
L 129.79784 271.064526 
L 131.987128 271.064526 
L 132.084827 270.490875 
L 132.133473 270.490875 
L 132.133473 270.376144 
L 134.106373 270.376144 
L 134.106373 270.261414 
L 134.407429 270.261414 
L 134.407429 270.146684 
L 134.61933 270.146684 
L 134.61933 269.917223 
L 137.945701 269.917223 
L 137.945701 269.343571 
L 138.118883 269.343571 
L 138.187677 268.99938 
L 138.426341 268.99938 
L 138.426341 268.76992 
L 138.728473 268.76992 
L 138.728473 268.655189 
L 138.99271 268.655189 
L 139.090775 268.081538 
L 139.285267 268.081538 
L 139.285267 267.966807 
L 139.445704 267.966807 
L 139.445704 267.622616 
L 139.636299 267.622616 
L 139.636299 267.393156 
L 139.856059 267.393156 
L 139.887228 266.704773 
L 141.177393 266.704773 
L 141.177393 266.590043 
L 142.699628 266.590043 
L 142.699628 266.475313 
L 145.074639 266.475313 
L 145.143889 265.901661 
L 145.258697 265.901661 
L 145.258697 265.55747 
L 146.172658 265.55747 
L 146.194362 265.213279 
L 146.345539 265.213279 
L 146.345539 265.098549 
L 147.287301 265.098549 
L 147.348313 264.869088 
L 148.430623 264.869088 
L 148.430623 264.639627 
L 150.016276 264.639627 
L 150.051085 263.607054 
L 150.137805 263.607054 
L 150.241302 263.033402 
L 150.783149 263.033402 
L 150.882897 262.689211 
L 153.366312 262.689211 
L 153.366312 262.459751 
L 153.946025 262.459751 
L 154.056927 261.886099 
L 154.627867 261.886099 
L 154.721232 261.312447 
L 155.30979 261.312447 
L 155.30979 261.197717 
L 157.081488 261.197717 
L 157.139484 260.624065 
L 157.231877 260.624065 
L 157.231877 260.509335 
L 157.596634 260.509335 
L 157.664184 260.279874 
L 159.385473 260.279874 
L 159.385473 260.165144 
L 159.797958 260.165144 
L 159.827761 259.820953 
L 160.355672 259.820953 
L 160.355672 259.476762 
L 162.112973 259.476762 
L 162.112973 259.362031 
L 162.389382 259.362031 
L 162.483394 258.90311 
L 162.568423 258.90311 
L 162.568423 258.78838 
L 163.412824 258.78838 
L 163.412824 258.673649 
L 163.851722 258.673649 
L 163.851722 258.444189 
L 164.171861 258.444189 
L 164.195057 258.214728 
L 165.367825 258.214728 
L 165.367825 257.985267 
L 165.985272 257.985267 
L 166.075685 257.411616 
L 166.144916 257.411616 
L 166.220754 257.182155 
L 166.364626 257.182155 
L 166.391896 256.952694 
L 166.682389 256.952694 
L 166.722541 256.723234 
L 167.404208 256.723234 
L 167.404208 256.608503 
L 168.31222 256.608503 
L 168.31222 256.493773 
L 168.650622 256.493773 
L 168.650622 256.379043 
L 169.175285 256.379043 
L 169.175285 256.264312 
L 169.423227 256.264312 
L 169.423227 256.149582 
L 169.746554 256.149582 
L 169.746554 256.034851 
L 170.575192 256.034851 
L 170.591263 255.805391 
L 170.878029 255.805391 
L 170.878029 255.69066 
L 171.113451 255.69066 
L 171.129034 255.4612 
L 171.412271 255.4612 
L 171.412271 255.231739 
L 171.861073 255.231739 
L 171.861073 255.117009 
L 172.07384 255.117009 
L 172.07384 255.002278 
L 172.597058 255.002278 
L 172.597058 254.887548 
L 173.08184 254.887548 
L 173.08184 254.772818 
L 173.330714 254.772818 
L 173.330714 254.658087 
L 173.535429 254.658087 
L 173.535429 254.543357 
L 173.795789 254.543357 
L 173.795789 254.428627 
L 175.248478 254.428627 
L 175.248478 254.313896 
L 176.232749 254.313896 
L 176.240496 254.084436 
L 176.363988 254.084436 
L 176.363988 253.969705 
L 178.225994 253.969705 
L 178.225994 253.854975 
L 178.421885 253.854975 
L 178.421885 253.740245 
L 179.275516 253.740245 
L 179.275516 253.510784 
L 179.453585 253.510784 
L 179.453585 253.396054 
L 180.994071 253.396054 
L 180.994071 253.166593 
L 181.968906 253.166593 
L 181.968906 253.051863 
L 183.579257 253.051863 
L 183.579257 252.937132 
L 183.718539 252.937132 
L 183.718539 252.822402 
L 184.692204 252.822402 
L 184.692204 252.707672 
L 184.806326 252.707672 
L 184.806326 252.592941 
L 185.845863 252.592941 
L 185.845863 252.36348 
L 186.074324 252.36348 
L 186.074324 252.13402 
L 186.26935 252.13402 
L 186.26935 252.019289 
L 189.265262 252.019289 
L 189.265262 251.904559 
L 189.821517 251.904559 
L 189.90663 251.675098 
L 190.343334 251.675098 
L 190.343334 251.560368 
L 193.847904 251.560368 
L 193.847904 251.445638 
L 199.319603 251.445638 
L 199.319603 251.330907 
L 199.724203 251.330907 
L 199.724203 251.216177 
L 200.407757 251.216177 
L 200.407757 251.101447 
L 203.021563 251.101447 
L 203.021563 250.986716 
L 204.186684 250.986716 
L 204.186684 250.871986 
L 204.949712 250.871986 
L 204.949712 250.757256 
L 338.688 250.757256 
L 338.688 250.757256 
" style="fill:none;stroke:#0000ff;stroke-linecap:square;stroke-width:1.5;"/>
   </g>
   <g id="line2d_41">
    <defs>
     <path d="M 0 -6 
L -1.347084 -1.854102 
L -5.706339 -1.854102 
L -2.179628 0.708204 
L -3.526712 4.854102 
L -0 2.291796 
L 3.526712 4.854102 
L 2.179628 0.708204 
L 5.706339 -1.854102 
L 1.347084 -1.854102 
z
" id="mfeb76e2742" style="stroke:#0000ff;stroke-linejoin:bevel;stroke-width:1.5;"/>
    </defs>
    <g>
     <use style="fill-opacity:0;stroke:#0000ff;stroke-linejoin:bevel;stroke-width:1.5;" x="110.358901" xlink:href="#mfeb76e2742" y="273.932785"/>
     <use style="fill-opacity:0;stroke:#0000ff;stroke-linejoin:bevel;stroke-width:1.5;" x="171.861073" xlink:href="#mfeb76e2742" y="255.231739"/>
     <use style="fill-opacity:0;stroke:#0000ff;stroke-linejoin:bevel;stroke-width:1.5;" x="204.949712" xlink:href="#mfeb76e2742" y="250.871986"/>
     <use style="fill-opacity:0;stroke:#0000ff;stroke-linejoin:bevel;stroke-width:1.5;" x="204.949712" xlink:href="#mfeb76e2742" y="250.757256"/>
     <use style="fill-opacity:0;stroke:#0000ff;stroke-linejoin:bevel;stroke-width:1.5;" x="204.949712" xlink:href="#mfeb76e2742" y="250.757256"/>
     <use style="fill-opacity:0;stroke:#0000ff;stroke-linejoin:bevel;stroke-width:1.5;" x="338.688" xlink:href="#mfeb76e2742" y="250.757256"/>
    </g>
   </g>
   <g id="line2d_42">
    <path style="fill:none;stroke:#0000ff;stroke-linecap:square;stroke-width:1.5;"/>
    <g/>
   </g>
   <g id="line2d_43">
    <path clip-path="url(#p725dfc68a4)" d="M 137.910857 269.917223 
" style="fill:none;stroke:#0000ff;stroke-linecap:square;stroke-width:1.5;"/>
    <defs>
     <path d="M -12 12 
L 12 -12 
M -12 -12 
L 12 12 
" id="maacd154187" style="stroke:#0000ff;"/>
    </defs>
    <g clip-path="url(#p725dfc68a4)">
     <use style="fill:#0000ff;stroke:#0000ff;" x="137.910857" xlink:href="#maacd154187" y="269.917223"/>
    </g>
   </g>
   <g id="line2d_44">
    <defs>
     <path d="M 0 1.5 
C 0.397805 1.5 0.77937 1.341951 1.06066 1.06066 
C 1.341951 0.77937 1.5 0.397805 1.5 0 
C 1.5 -0.397805 1.341951 -0.77937 1.06066 -1.06066 
C 0.77937 -1.341951 0.397805 -1.5 0 -1.5 
C -0.397805 -1.5 -0.77937 -1.341951 -1.06066 -1.06066 
C -1.341951 -0.77937 -1.5 -0.397805 -1.5 0 
C -1.5 0.397805 -1.341951 0.77937 -1.06066 1.06066 
C -0.77937 1.341951 -0.397805 1.5 0 1.5 
z
" id="m5a0ee77009" style="stroke:#000000;"/>
    </defs>
    <g>
     <use style="stroke:#000000;" x="213.90303" xlink:href="#m5a0ee77009" y="270.261414"/>
     <use style="stroke:#000000;" x="213.90303" xlink:href="#m5a0ee77009" y="270.261414"/>
    </g>
   </g>
   <g id="line2d_45">
    <path d="M 17.444571 298.944 
L 17.444571 290.912876 
L 29.53256 290.912876 
L 29.53256 290.453955 
L 41.620548 290.453955 
L 41.620548 289.880303 
L 45.512012 289.880303 
L 45.512012 289.765573 
L 48.691568 289.765573 
L 48.691568 289.07719 
L 51.379845 289.07719 
L 51.379845 288.84773 
L 53.708537 288.84773 
L 53.708537 288.732999 
L 55.762588 288.732999 
L 55.762588 288.503539 
L 63.467834 288.503539 
L 63.467834 288.388808 
L 64.67102 288.388808 
L 64.67102 288.044617 
L 66.853775 288.044617 
L 66.853775 287.929887 
L 69.687988 287.929887 
L 69.687988 287.815157 
L 77.884514 287.815157 
L 77.884514 287.700426 
L 82.626842 287.700426 
L 82.626842 287.470966 
L 84.213325 287.470966 
L 84.213325 287.126775 
L 84.955534 287.126775 
L 84.955534 287.012044 
L 89.972502 287.012044 
L 89.972502 286.897314 
L 98.270913 286.897314 
L 98.270913 286.782584 
L 98.43941 286.782584 
L 98.43941 286.667853 
L 99.097574 286.667853 
L 99.097574 286.438393 
L 99.41757 286.438393 
L 99.41757 286.323662 
L 99.731799 286.323662 
L 99.731799 286.208932 
L 105.398279 286.208932 
L 105.398279 286.094202 
L 105.732589 286.094202 
L 105.732589 285.979471 
L 106.168594 285.979471 
L 106.168594 285.864741 
L 114.080224 285.864741 
L 114.080224 285.75001 
L 117.429921 285.75001 
L 117.429921 285.63528 
L 117.598418 285.63528 
L 117.598418 285.52055 
L 119.702083 285.52055 
L 119.702083 285.405819 
L 122.018385 285.405819 
L 122.061712 284.487977 
L 122.40451 284.487977 
L 122.44689 284.258516 
L 124.178158 284.258516 
L 124.178158 284.143786 
L 125.892487 284.143786 
L 125.892487 284.029055 
L 126.168212 284.029055 
L 126.168212 283.799595 
L 127.923363 283.799595 
L 127.923363 283.684864 
L 131.888878 283.684864 
L 131.888878 283.570134 
L 133.216421 283.570134 
L 133.216421 283.455404 
L 135.199312 283.455404 
L 135.199312 283.340673 
L 137.928288 283.340673 
L 138.032507 283.111213 
L 138.170504 283.111213 
L 138.170504 282.881752 
L 138.392446 282.881752 
L 138.460171 282.652291 
L 138.628343 282.652291 
L 138.628343 282.537561 
L 139.762215 282.537561 
L 139.762215 282.422831 
L 140.469102 282.422831 
L 140.469102 282.19337 
L 143.170282 282.19337 
L 143.170282 282.078639 
L 143.803587 282.078639 
L 143.803587 281.734448 
L 144.438701 281.734448 
L 144.438701 281.619718 
L 145.699363 281.619718 
L 145.699363 281.390257 
L 147.246507 281.390257 
L 147.246507 281.275527 
L 150.129152 281.275527 
L 150.129152 281.160797 
L 150.361278 281.160797 
L 150.361278 281.046066 
L 151.300575 281.046066 
L 151.300575 280.931336 
L 153.192929 280.931336 
L 153.192929 280.357684 
L 153.959927 280.357684 
L 153.959927 280.242954 
L 157.335239 280.242954 
L 157.437991 279.784033 
L 157.709073 279.784033 
L 157.709073 279.669302 
L 158.51933 279.669302 
L 158.51933 279.554572 
L 159.262876 279.554572 
L 159.262876 278.98092 
L 162.268992 278.98092 
L 162.268992 278.86619 
L 162.779197 278.86619 
L 162.779197 278.75146 
L 163.7569 278.75146 
L 163.7569 278.292538 
L 164.148635 278.292538 
L 164.148635 278.177808 
L 166.862349 278.177808 
L 166.862349 278.063077 
L 167.3269 278.063077 
L 167.3269 277.718886 
L 167.839062 277.718886 
L 167.839062 277.604156 
L 169.342888 277.604156 
L 169.342888 277.489426 
L 169.480386 277.489426 
L 169.480386 277.374695 
L 170.288808 277.374695 
L 170.288808 277.145235 
L 172.004852 277.145235 
L 172.004852 277.030504 
L 172.245127 277.030504 
L 172.245127 276.915774 
L 172.819942 276.915774 
L 172.819942 276.456853 
L 175.02984 276.456853 
L 175.02984 276.342122 
L 175.362888 276.342122 
L 175.362888 276.227392 
L 176.352448 276.227392 
L 176.352448 276.112662 
L 176.539989 276.112662 
L 176.539989 275.997931 
L 176.990933 275.997931 
L 176.990933 275.53901 
L 178.06803 275.53901 
L 178.06803 275.42428 
L 178.346538 275.42428 
L 178.346538 275.194819 
L 178.75362 275.194819 
L 178.75362 274.735897 
L 179.829598 274.735897 
L 179.829598 274.621167 
L 179.983387 274.621167 
L 179.983387 274.506437 
L 180.354384 274.506437 
L 180.354384 274.162246 
L 182.727374 274.162246 
L 182.727374 274.047515 
L 182.857707 274.047515 
L 182.857707 273.932785 
L 183.172836 273.932785 
L 183.172836 273.703324 
L 183.991326 273.703324 
L 184.01366 273.359133 
L 184.427821 273.359133 
L 184.427821 273.129673 
L 185.598525 273.129673 
L 185.598525 272.900212 
L 186.695559 272.900212 
L 186.695559 272.441291 
L 187.727648 272.441291 
L 187.727648 272.21183 
L 188.317831 272.21183 
L 188.317831 272.0971 
L 191.335822 272.0971 
L 191.335822 271.982369 
L 192.132202 271.982369 
L 192.132202 271.867639 
L 194.997293 271.867639 
L 194.997293 271.752909 
L 195.64562 271.752909 
L 195.64562 271.638178 
L 196.122716 271.638178 
L 196.122716 271.523448 
L 196.270706 271.523448 
L 196.270706 271.408718 
L 196.87416 271.408718 
L 196.87416 271.293987 
L 198.021819 271.293987 
L 198.021819 271.179257 
L 200.59851 271.179257 
L 200.59851 271.064526 
L 201.531265 271.064526 
L 201.531265 270.949796 
L 201.979577 270.949796 
L 201.979577 270.835066 
L 205.11467 270.835066 
L 205.11467 270.720335 
L 205.567265 270.720335 
L 205.567265 270.605605 
L 206.952007 270.605605 
L 206.952007 270.490875 
L 209.138599 270.490875 
L 209.138599 270.376144 
L 213.90303 270.376144 
L 213.90303 270.261414 
L 338.688 270.261414 
L 338.688 270.261414 
" style="fill:none;stroke:#000000;stroke-linecap:square;stroke-width:1.5;"/>
   </g>
   <g id="line2d_46">
    <defs>
     <path d="M 0 6 
C 1.591219 6 3.117479 5.367802 4.242641 4.242641 
C 5.367802 3.117479 6 1.591219 6 0 
C 6 -1.591219 5.367802 -3.117479 4.242641 -4.242641 
C 3.117479 -5.367802 1.591219 -6 0 -6 
C -1.591219 -6 -3.117479 -5.367802 -4.242641 -4.242641 
C -5.367802 -3.117479 -6 -1.591219 -6 0 
C -6 1.591219 -5.367802 3.117479 -4.242641 4.242641 
C -3.117479 5.367802 -1.591219 6 0 6 
z
" id="m5203d07738" style="stroke:#000000;stroke-width:1.5;"/>
    </defs>
    <g>
     <use style="fill-opacity:0;stroke:#000000;stroke-width:1.5;" x="69.687988" xlink:href="#m5203d07738" y="287.815157"/>
     <use style="fill-opacity:0;stroke:#000000;stroke-width:1.5;" x="135.199312" xlink:href="#m5203d07738" y="283.455404"/>
     <use style="fill-opacity:0;stroke:#000000;stroke-width:1.5;" x="198.021819" xlink:href="#m5203d07738" y="271.293987"/>
     <use style="fill-opacity:0;stroke:#000000;stroke-width:1.5;" x="213.90303" xlink:href="#m5203d07738" y="270.261414"/>
     <use style="fill-opacity:0;stroke:#000000;stroke-width:1.5;" x="213.90303" xlink:href="#m5203d07738" y="270.261414"/>
     <use style="fill-opacity:0;stroke:#000000;stroke-width:1.5;" x="338.688" xlink:href="#m5203d07738" y="270.261414"/>
    </g>
   </g>
   <g id="line2d_47">
    <path style="fill:none;stroke:#000000;stroke-linecap:square;stroke-width:1.5;"/>
    <g/>
   </g>
   <g id="line2d_48">
    <path clip-path="url(#p725dfc68a4)" d="M 137.910857 283.340673 
" style="fill:none;stroke:#000000;stroke-linecap:square;stroke-width:1.5;"/>
    <defs>
     <path d="M -12 12 
L 12 -12 
M -12 -12 
L 12 12 
" id="m01d026b029" style="stroke:#000000;"/>
    </defs>
    <g clip-path="url(#p725dfc68a4)">
     <use style="stroke:#000000;" x="137.910857" xlink:href="#m01d026b029" y="283.340673"/>
    </g>
   </g>
   <g id="line2d_49">
    <defs>
     <path d="M 0 1.5 
C 0.397805 1.5 0.77937 1.341951 1.06066 1.06066 
C 1.341951 0.77937 1.5 0.397805 1.5 0 
C 1.5 -0.397805 1.341951 -0.77937 1.06066 -1.06066 
C 0.77937 -1.341951 0.397805 -1.5 0 -1.5 
C -0.397805 -1.5 -0.77937 -1.341951 -1.06066 -1.06066 
C -1.341951 -0.77937 -1.5 -0.397805 -1.5 0 
C -1.5 0.397805 -1.341951 0.77937 -1.06066 1.06066 
C -0.77937 1.341951 -0.397805 1.5 0 1.5 
z
" id="m374317e035" style="stroke:#ff0000;"/>
    </defs>
    <g>
     <use style="fill:#ff0000;stroke:#ff0000;" x="154.611142" xlink:href="#m374317e035" y="287.470966"/>
     <use style="fill:#ff0000;stroke:#ff0000;" x="154.611142" xlink:href="#m374317e035" y="287.470966"/>
    </g>
   </g>
   <g id="line2d_50">
    <path d="M 5.356583 298.944 
L 5.356583 291.945449 
L 17.444571 291.945449 
L 17.444571 291.142337 
L 24.515591 291.142337 
L 24.515591 290.912876 
L 29.53256 290.912876 
L 29.53256 290.683415 
L 33.424023 290.683415 
L 33.424023 290.453955 
L 36.60358 290.453955 
L 36.60358 290.224494 
L 39.291857 290.224494 
L 39.291857 290.109764 
L 41.620548 290.109764 
L 41.620548 289.995033 
L 45.512012 289.995033 
L 45.512012 289.880303 
L 47.174153 289.880303 
L 47.174153 289.765573 
L 50.087456 289.765573 
L 50.087456 289.650842 
L 51.379845 289.650842 
L 51.379845 289.536112 
L 56.705482 289.536112 
L 56.705482 289.421381 
L 63.467834 289.421381 
L 63.467834 289.306651 
L 66.333161 289.306651 
L 66.333161 289.191921 
L 67.850577 289.191921 
L 67.850577 289.07719 
L 72.125336 289.07719 
L 72.125336 288.96246 
L 74.921597 288.96246 
L 74.921597 288.84773 
L 76.16779 288.84773 
L 76.16779 288.732999 
L 87.487404 288.732999 
L 87.487404 288.618269 
L 94.080605 288.618269 
L 94.080605 288.503539 
L 124.235556 288.503539 
L 124.235556 288.388808 
L 129.161557 288.388808 
L 129.161557 288.274078 
L 134.095524 288.274078 
L 134.095524 288.159348 
L 136.13148 288.159348 
L 136.13148 288.044617 
L 138.852833 288.044617 
L 138.852833 287.929887 
L 144.46866 287.929887 
L 144.46866 287.700426 
L 153.584194 287.700426 
L 153.584194 287.585696 
L 154.611142 287.585696 
L 154.611142 287.470966 
L 338.688 287.470966 
" style="fill:none;stroke:#ff0000;stroke-linecap:square;stroke-width:1.5;"/>
   </g>
   <g id="line2d_51">
    <defs>
     <path d="M -6 6 
L 6 6 
L 6 -6 
L -6 -6 
z
" id="m8e841ce1da" style="stroke:#ff0000;stroke-linejoin:miter;stroke-width:1.5;"/>
    </defs>
    <g>
     <use style="fill-opacity:0;stroke:#ff0000;stroke-linejoin:miter;stroke-width:1.5;" x="94.080605" xlink:href="#m8e841ce1da" y="288.618269"/>
     <use style="fill-opacity:0;stroke:#ff0000;stroke-linejoin:miter;stroke-width:1.5;" x="154.611142" xlink:href="#m8e841ce1da" y="287.585696"/>
     <use style="fill-opacity:0;stroke:#ff0000;stroke-linejoin:miter;stroke-width:1.5;" x="154.611142" xlink:href="#m8e841ce1da" y="287.470966"/>
     <use style="fill-opacity:0;stroke:#ff0000;stroke-linejoin:miter;stroke-width:1.5;" x="154.611142" xlink:href="#m8e841ce1da" y="287.470966"/>
     <use style="fill-opacity:0;stroke:#ff0000;stroke-linejoin:miter;stroke-width:1.5;" x="338.688" xlink:href="#m8e841ce1da" y="287.470966"/>
    </g>
   </g>
   <g id="line2d_52">
    <path style="fill:none;stroke:#ff0000;stroke-linecap:square;stroke-width:1.5;"/>
    <g/>
   </g>
   <g id="line2d_53">
    <path clip-path="url(#p725dfc68a4)" d="M 137.910857 288.044617 
" style="fill:none;stroke:#ff0000;stroke-linecap:square;stroke-width:1.5;"/>
    <defs>
     <path d="M -12 12 
L 12 -12 
M -12 -12 
L 12 12 
" id="md737d971c8" style="stroke:#ff0000;"/>
    </defs>
    <g clip-path="url(#p725dfc68a4)">
     <use style="fill:#ff0000;stroke:#ff0000;" x="137.910857" xlink:href="#md737d971c8" y="288.044617"/>
    </g>
   </g>
   <g id="line2d_54">
    <defs>
     <path d="M 0 1.5 
C 0.397805 1.5 0.77937 1.341951 1.06066 1.06066 
C 1.341951 0.77937 1.5 0.397805 1.5 0 
C 1.5 -0.397805 1.341951 -0.77937 1.06066 -1.06066 
C 0.77937 -1.341951 0.397805 -1.5 0 -1.5 
C -0.397805 -1.5 -0.77937 -1.341951 -1.06066 -1.06066 
C -1.341951 -0.77937 -1.5 -0.397805 -1.5 0 
C -1.5 0.397805 -1.341951 0.77937 -1.06066 1.06066 
C -0.77937 1.341951 -0.397805 1.5 0 1.5 
z
" id="mae1d4b3ae0" style="stroke:#bf00bf;"/>
    </defs>
    <g>
     <use style="fill:#bf00bf;stroke:#bf00bf;" x="134.624595" xlink:href="#mae1d4b3ae0" y="288.618269"/>
     <use style="fill:#bf00bf;stroke:#bf00bf;" x="134.624595" xlink:href="#mae1d4b3ae0" y="288.618269"/>
    </g>
   </g>
   <g id="line2d_55">
    <path d="M -1 291.486528 
L 5.356583 291.486528 
L 5.356583 290.798146 
L 12.427603 290.798146 
L 12.427603 290.683415 
L 17.444571 290.683415 
L 17.444571 290.568685 
L 24.515591 290.568685 
L 24.515591 290.453955 
L 29.53256 290.453955 
L 29.53256 290.339224 
L 33.424023 290.339224 
L 33.424023 290.224494 
L 36.60358 290.224494 
L 36.60358 289.880303 
L 47.174153 289.880303 
L 47.174153 289.765573 
L 86.518305 289.765573 
L 86.518305 289.650842 
L 92.969447 289.650842 
L 92.969447 289.536112 
L 93.253944 289.536112 
L 93.253944 289.421381 
L 100.154824 289.421381 
L 100.154824 289.306651 
L 103.403898 289.306651 
L 103.403898 289.191921 
L 109.995347 289.191921 
L 109.995347 289.07719 
L 110.081574 289.07719 
L 110.081574 288.96246 
L 119.689693 288.96246 
L 119.689693 288.84773 
L 129.39046 288.84773 
L 129.39046 288.732999 
L 134.624595 288.732999 
L 134.624595 288.618269 
L 338.688 288.618269 
" style="fill:none;stroke:#bf00bf;stroke-linecap:square;stroke-width:1.5;"/>
   </g>
   <g id="line2d_56">
    <defs>
     <path d="M -0 8.485281 
L 8.485281 0 
L 0 -8.485281 
L -8.485281 -0 
z
" id="m987fd86646" style="stroke:#bf00bf;stroke-linejoin:miter;stroke-width:1.5;"/>
    </defs>
    <g>
     <use style="fill-opacity:0;stroke:#bf00bf;stroke-linejoin:miter;stroke-width:1.5;" x="134.624595" xlink:href="#m987fd86646" y="288.732999"/>
     <use style="fill-opacity:0;stroke:#bf00bf;stroke-linejoin:miter;stroke-width:1.5;" x="134.624595" xlink:href="#m987fd86646" y="288.732999"/>
     <use style="fill-opacity:0;stroke:#bf00bf;stroke-linejoin:miter;stroke-width:1.5;" x="134.624595" xlink:href="#m987fd86646" y="288.618269"/>
     <use style="fill-opacity:0;stroke:#bf00bf;stroke-linejoin:miter;stroke-width:1.5;" x="134.624595" xlink:href="#m987fd86646" y="288.618269"/>
     <use style="fill-opacity:0;stroke:#bf00bf;stroke-linejoin:miter;stroke-width:1.5;" x="338.688" xlink:href="#m987fd86646" y="288.618269"/>
    </g>
   </g>
   <g id="line2d_57">
    <path style="fill:none;stroke:#bf00bf;stroke-linecap:square;stroke-width:1.5;"/>
    <g/>
   </g>
   <g id="line2d_58">
    <path clip-path="url(#p725dfc68a4)" d="M 137.910857 288.618269 
" style="fill:none;stroke:#bf00bf;stroke-linecap:square;stroke-width:1.5;"/>
    <defs>
     <path d="M -12 12 
L 12 -12 
M -12 -12 
L 12 12 
" id="me2ae25d2ce" style="stroke:#bf00bf;"/>
    </defs>
    <g clip-path="url(#p725dfc68a4)">
     <use style="fill:#bf00bf;stroke:#bf00bf;" x="137.910857" xlink:href="#me2ae25d2ce" y="288.618269"/>
    </g>
   </g>
   <g id="line2d_59">
    <path d="M 338.688 288.618269 
L 369.60768 293.092752 
" style="fill:none;stroke:#bf00bf;stroke-linecap:square;stroke-width:1.5;"/>
    <g>
     <use style="fill-opacity:0;stroke:#bf00bf;stroke-linejoin:miter;stroke-width:1.5;" x="338.688" xlink:href="#m987fd86646" y="288.618269"/>
     <use style="fill-opacity:0;stroke:#bf00bf;stroke-linejoin:miter;stroke-width:1.5;" x="369.60768" xlink:href="#m987fd86646" y="293.092752"/>
    </g>
   </g>
   <g id="line2d_60">
    <path d="M 338.688 287.470966 
L 369.60768 236.920776 
" style="fill:none;stroke:#ff0000;stroke-linecap:square;stroke-width:1.5;"/>
    <g>
     <use style="fill-opacity:0;stroke:#ff0000;stroke-linejoin:miter;stroke-width:1.5;" x="338.688" xlink:href="#m8e841ce1da" y="287.470966"/>
     <use style="fill-opacity:0;stroke:#ff0000;stroke-linejoin:miter;stroke-width:1.5;" x="369.60768" xlink:href="#m8e841ce1da" y="236.920776"/>
    </g>
   </g>
   <g id="line2d_61">
    <path d="M 338.688 270.261414 
L 369.60768 180.7488 
" style="fill:none;stroke:#000000;stroke-linecap:square;stroke-width:1.5;"/>
    <g>
     <use style="fill-opacity:0;stroke:#000000;stroke-width:1.5;" x="338.688" xlink:href="#m5203d07738" y="270.261414"/>
     <use style="fill-opacity:0;stroke:#000000;stroke-width:1.5;" x="369.60768" xlink:href="#m5203d07738" y="180.7488"/>
    </g>
   </g>
   <g id="line2d_62">
    <path d="M 338.688 250.757256 
L 369.60768 124.576824 
" style="fill:none;stroke:#0000ff;stroke-linecap:square;stroke-width:1.5;"/>
    <g>
     <use style="fill-opacity:0;stroke:#0000ff;stroke-linejoin:bevel;stroke-width:1.5;" x="338.688" xlink:href="#mfeb76e2742" y="250.757256"/>
     <use style="fill-opacity:0;stroke:#0000ff;stroke-linejoin:bevel;stroke-width:1.5;" x="369.60768" xlink:href="#mfeb76e2742" y="124.576824"/>
    </g>
   </g>
   <g id="line2d_63">
    <path d="M 338.688 233.547704 
L 369.60768 68.404848 
" style="fill:none;stroke:#008000;stroke-linecap:square;stroke-width:1.5;"/>
    <g>
     <use style="fill-opacity:0;stroke:#008000;stroke-linejoin:miter;stroke-width:1.5;" x="338.688" xlink:href="#mb2fc01ee81" y="233.547704"/>
     <use style="fill-opacity:0;stroke:#008000;stroke-linejoin:miter;stroke-width:1.5;" x="369.60768" xlink:href="#mb2fc01ee81" y="68.404848"/>
    </g>
   </g>
   <g id="line2d_64">
    <path d="M 338.688 207.159725 
L 369.60768 12.232871 
" style="fill:none;stroke:#00bfbf;stroke-linecap:square;stroke-width:1.5;"/>
    <g>
     <use style="fill-opacity:0;stroke:#00bfbf;stroke-width:1.5;" x="338.688" xlink:href="#m7e4ca8f844" y="207.159725"/>
     <use style="fill-opacity:0;stroke:#00bfbf;stroke-width:1.5;" x="369.60768" xlink:href="#m7e4ca8f844" y="12.232871"/>
    </g>
   </g>
   <g id="line2d_65">
    <path d="M 338.688 298.944 
L 338.688 6.381624 
" style="fill:none;stroke:#000000;stroke-linecap:square;stroke-width:1.5;"/>
   </g>
   <g id="patch_3">
    <path d="M 57.6 298.944 
L 57.6 3.456 
" style="fill:none;stroke:#000000;stroke-linecap:square;stroke-linejoin:miter;stroke-width:0.8;"/>
   </g>
   <g id="patch_4">
    <path d="M 338.688 298.944 
L 338.688 3.456 
" style="fill:none;stroke:#000000;stroke-linecap:square;stroke-linejoin:miter;stroke-width:0.8;"/>
   </g>
   <g id="patch_5">
    <path d="M 57.6 298.944 
L 338.688 298.944 
" style="fill:none;stroke:#000000;stroke-linecap:square;stroke-linejoin:miter;stroke-width:0.8;"/>
   </g>
   <g id="patch_6">
    <path d="M 57.6 3.456 
L 338.688 3.456 
" style="fill:none;stroke:#000000;stroke-linecap:square;stroke-linejoin:miter;stroke-width:0.8;"/>
   </g>
   <g id="text_13">
    <!-- 40-D -->
    <defs>
     <path d="M 19.671875 64.796875 
L 19.671875 8.109375 
L 31.59375 8.109375 
Q 46.6875 8.109375 53.6875 14.9375 
Q 60.6875 21.78125 60.6875 36.53125 
Q 60.6875 51.171875 53.6875 57.984375 
Q 46.6875 64.796875 31.59375 64.796875 
z
M 9.8125 72.90625 
L 30.078125 72.90625 
Q 51.265625 72.90625 61.171875 64.09375 
Q 71.09375 55.28125 71.09375 36.53125 
Q 71.09375 17.671875 61.125 8.828125 
Q 51.171875 0 30.078125 0 
L 9.8125 0 
z
" id="DejaVuSans-68"/>
    </defs>
    <g transform="translate(375.22944 297.78369)scale(0.17 -0.17)">
     <use xlink:href="#DejaVuSans-52"/>
     <use x="63.623047" xlink:href="#DejaVuSans-48"/>
     <use x="127.246094" xlink:href="#DejaVuSans-45"/>
     <use x="163.330078" xlink:href="#DejaVuSans-68"/>
    </g>
   </g>
   <g id="text_14">
    <!-- 20-D -->
    <g transform="translate(375.22944 241.611714)scale(0.17 -0.17)">
     <use xlink:href="#DejaVuSans-50"/>
     <use x="63.623047" xlink:href="#DejaVuSans-48"/>
     <use x="127.246094" xlink:href="#DejaVuSans-45"/>
     <use x="163.330078" xlink:href="#DejaVuSans-68"/>
    </g>
   </g>
   <g id="text_15">
    <!-- 10-D -->
    <g transform="translate(375.22944 185.439737)scale(0.17 -0.17)">
     <use xlink:href="#DejaVuSans-49"/>
     <use x="63.623047" xlink:href="#DejaVuSans-48"/>
     <use x="127.246094" xlink:href="#DejaVuSans-45"/>
     <use x="163.330078" xlink:href="#DejaVuSans-68"/>
    </g>
   </g>
   <g id="text_16">
    <!-- 5-D -->
    <defs>
     <path d="M 10.796875 72.90625 
L 49.515625 72.90625 
L 49.515625 64.59375 
L 19.828125 64.59375 
L 19.828125 46.734375 
Q 21.96875 47.46875 24.109375 47.828125 
Q 26.265625 48.1875 28.421875 48.1875 
Q 40.625 48.1875 47.75 41.5 
Q 54.890625 34.8125 54.890625 23.390625 
Q 54.890625 11.625 47.5625 5.09375 
Q 40.234375 -1.421875 26.90625 -1.421875 
Q 22.3125 -1.421875 17.546875 -0.640625 
Q 12.796875 0.140625 7.71875 1.703125 
L 7.71875 11.625 
Q 12.109375 9.234375 16.796875 8.0625 
Q 21.484375 6.890625 26.703125 6.890625 
Q 35.15625 6.890625 40.078125 11.328125 
Q 45.015625 15.765625 45.015625 23.390625 
Q 45.015625 31 40.078125 35.4375 
Q 35.15625 39.890625 26.703125 39.890625 
Q 22.75 39.890625 18.8125 39.015625 
Q 14.890625 38.140625 10.796875 36.28125 
z
" id="DejaVuSans-53"/>
    </defs>
    <g transform="translate(375.22944 129.267761)scale(0.17 -0.17)">
     <use xlink:href="#DejaVuSans-53"/>
     <use x="63.623047" xlink:href="#DejaVuSans-45"/>
     <use x="99.707031" xlink:href="#DejaVuSans-68"/>
    </g>
   </g>
   <g id="text_17">
    <!-- 3-D -->
    <defs>
     <path d="M 40.578125 39.3125 
Q 47.65625 37.796875 51.625 33 
Q 55.609375 28.21875 55.609375 21.1875 
Q 55.609375 10.40625 48.1875 4.484375 
Q 40.765625 -1.421875 27.09375 -1.421875 
Q 22.515625 -1.421875 17.65625 -0.515625 
Q 12.796875 0.390625 7.625 2.203125 
L 7.625 11.71875 
Q 11.71875 9.328125 16.59375 8.109375 
Q 21.484375 6.890625 26.8125 6.890625 
Q 36.078125 6.890625 40.9375 10.546875 
Q 45.796875 14.203125 45.796875 21.1875 
Q 45.796875 27.640625 41.28125 31.265625 
Q 36.765625 34.90625 28.71875 34.90625 
L 20.21875 34.90625 
L 20.21875 43.015625 
L 29.109375 43.015625 
Q 36.375 43.015625 40.234375 45.921875 
Q 44.09375 48.828125 44.09375 54.296875 
Q 44.09375 59.90625 40.109375 62.90625 
Q 36.140625 65.921875 28.71875 65.921875 
Q 24.65625 65.921875 20.015625 65.03125 
Q 15.375 64.15625 9.8125 62.3125 
L 9.8125 71.09375 
Q 15.4375 72.65625 20.34375 73.4375 
Q 25.25 74.21875 29.59375 74.21875 
Q 40.828125 74.21875 47.359375 69.109375 
Q 53.90625 64.015625 53.90625 55.328125 
Q 53.90625 49.265625 50.4375 45.09375 
Q 46.96875 40.921875 40.578125 39.3125 
z
" id="DejaVuSans-51"/>
    </defs>
    <g transform="translate(375.22944 73.095785)scale(0.17 -0.17)">
     <use xlink:href="#DejaVuSans-51"/>
     <use x="63.623047" xlink:href="#DejaVuSans-45"/>
     <use x="99.707031" xlink:href="#DejaVuSans-68"/>
    </g>
   </g>
   <g id="text_18">
    <!-- 2-D -->
    <g transform="translate(375.22944 16.923809)scale(0.17 -0.17)">
     <use xlink:href="#DejaVuSans-50"/>
     <use x="63.623047" xlink:href="#DejaVuSans-45"/>
     <use x="99.707031" xlink:href="#DejaVuSans-68"/>
    </g>
   </g>
   <g id="text_19">
    <!-- bbob f20-f24 -->
    <defs>
     <path d="M 48.6875 27.296875 
Q 48.6875 37.203125 44.609375 42.84375 
Q 40.53125 48.484375 33.40625 48.484375 
Q 26.265625 48.484375 22.1875 42.84375 
Q 18.109375 37.203125 18.109375 27.296875 
Q 18.109375 17.390625 22.1875 11.75 
Q 26.265625 6.109375 33.40625 6.109375 
Q 40.53125 6.109375 44.609375 11.75 
Q 48.6875 17.390625 48.6875 27.296875 
z
M 18.109375 46.390625 
Q 20.953125 51.265625 25.265625 53.625 
Q 29.59375 56 35.59375 56 
Q 45.5625 56 51.78125 48.09375 
Q 58.015625 40.1875 58.015625 27.296875 
Q 58.015625 14.40625 51.78125 6.484375 
Q 45.5625 -1.421875 35.59375 -1.421875 
Q 29.59375 -1.421875 25.265625 0.953125 
Q 20.953125 3.328125 18.109375 8.203125 
L 18.109375 0 
L 9.078125 0 
L 9.078125 75.984375 
L 18.109375 75.984375 
z
" id="DejaVuSans-98"/>
    </defs>
    <g transform="translate(60.41088 14.161286)scale(0.102 -0.102)">
     <use xlink:href="#DejaVuSans-98"/>
     <use x="63.476562" xlink:href="#DejaVuSans-98"/>
     <use x="126.953125" xlink:href="#DejaVuSans-111"/>
     <use x="188.134766" xlink:href="#DejaVuSans-98"/>
     <use x="251.611328" xlink:href="#DejaVuSans-32"/>
     <use x="283.398438" xlink:href="#DejaVuSans-102"/>
     <use x="318.603516" xlink:href="#DejaVuSans-50"/>
     <use x="382.226562" xlink:href="#DejaVuSans-48"/>
     <use x="445.849609" xlink:href="#DejaVuSans-45"/>
     <use x="481.933594" xlink:href="#DejaVuSans-102"/>
     <use x="517.138672" xlink:href="#DejaVuSans-50"/>
     <use x="580.761719" xlink:href="#DejaVuSans-52"/>
    </g>
    <!-- 51 targets: 100..1e-08 -->
    <defs>
     <path d="M 11.71875 12.40625 
L 22.015625 12.40625 
L 22.015625 0 
L 11.71875 0 
z
M 11.71875 51.703125 
L 22.015625 51.703125 
L 22.015625 39.3125 
L 11.71875 39.3125 
z
" id="DejaVuSans-58"/>
    </defs>
    <g transform="translate(60.41088 25.583055)scale(0.102 -0.102)">
     <use xlink:href="#DejaVuSans-53"/>
     <use x="63.623047" xlink:href="#DejaVuSans-49"/>
     <use x="127.246094" xlink:href="#DejaVuSans-32"/>
     <use x="159.033203" xlink:href="#DejaVuSans-116"/>
     <use x="198.242188" xlink:href="#DejaVuSans-97"/>
     <use x="259.521484" xlink:href="#DejaVuSans-114"/>
     <use x="300.619141" xlink:href="#DejaVuSans-103"/>
     <use x="364.095703" xlink:href="#DejaVuSans-101"/>
     <use x="425.619141" xlink:href="#DejaVuSans-116"/>
     <use x="464.828125" xlink:href="#DejaVuSans-115"/>
     <use x="516.927734" xlink:href="#DejaVuSans-58"/>
     <use x="550.619141" xlink:href="#DejaVuSans-32"/>
     <use x="582.40625" xlink:href="#DejaVuSans-49"/>
     <use x="646.029297" xlink:href="#DejaVuSans-48"/>
     <use x="709.652344" xlink:href="#DejaVuSans-48"/>
     <use x="773.275391" xlink:href="#DejaVuSans-46"/>
     <use x="805.0625" xlink:href="#DejaVuSans-46"/>
     <use x="836.849609" xlink:href="#DejaVuSans-49"/>
     <use x="900.472656" xlink:href="#DejaVuSans-101"/>
     <use x="961.996094" xlink:href="#DejaVuSans-45"/>
     <use x="998.080078" xlink:href="#DejaVuSans-48"/>
     <use x="1061.703125" xlink:href="#DejaVuSans-56"/>
    </g>
    <!-- 15 instances -->
    <g transform="translate(60.41088 37.004824)scale(0.102 -0.102)">
     <use xlink:href="#DejaVuSans-49"/>
     <use x="63.623047" xlink:href="#DejaVuSans-53"/>
     <use x="127.246094" xlink:href="#DejaVuSans-32"/>
     <use x="159.033203" xlink:href="#DejaVuSans-105"/>
     <use x="186.816406" xlink:href="#DejaVuSans-110"/>
     <use x="250.195312" xlink:href="#DejaVuSans-115"/>
     <use x="302.294922" xlink:href="#DejaVuSans-116"/>
     <use x="341.503906" xlink:href="#DejaVuSans-97"/>
     <use x="402.783203" xlink:href="#DejaVuSans-110"/>
     <use x="466.162109" xlink:href="#DejaVuSans-99"/>
     <use x="521.142578" xlink:href="#DejaVuSans-101"/>
     <use x="582.666016" xlink:href="#DejaVuSans-115"/>
    </g>
   </g>
   <g id="text_20">
    <!-- v2.4 -->
    <g style="fill:#808080;" transform="translate(187.233062 293.909432)scale(0.1 -0.1)">
     <use xlink:href="#DejaVuSans-118"/>
     <use x="59.179688" xlink:href="#DejaVuSans-50"/>
     <use x="122.802734" xlink:href="#DejaVuSans-46"/>
     <use x="154.589844" xlink:href="#DejaVuSans-52"/>
    </g>
   </g>
  </g>
 </g>
 <defs>
  <clipPath id="p725dfc68a4">
   <rect height="295.488" width="281.088" x="57.6" y="3.456"/>
  </clipPath>
 </defs>
</svg>
