<?xml version="1.0" encoding="utf-8" standalone="no"?>
<!DOCTYPE svg PUBLIC "-//W3C//DTD SVG 1.1//EN"
  "http://www.w3.org/Graphics/SVG/1.1/DTD/svg11.dtd">
<!-- Created with matplotlib (https://matplotlib.org/) -->
<svg height="345.6pt" version="1.1" viewBox="0 0 460.8 345.6" width="460.8pt" xmlns="http://www.w3.org/2000/svg" xmlns:xlink="http://www.w3.org/1999/xlink">
 <defs>
  <style type="text/css">
*{stroke-linecap:butt;stroke-linejoin:round;}
  </style>
 </defs>
 <g id="figure_1">
  <g id="patch_1">
   <path d="M 0 345.6 
L 460.8 345.6 
L 460.8 0 
L 0 0 
z
" style="fill:#ffffff;"/>
  </g>
  <g id="axes_1">
   <g id="patch_2">
    <path d="M 57.6 298.944 
L 338.688 298.944 
L 338.688 3.456 
L 57.6 3.456 
z
" style="fill:#ffffff;"/>
   </g>
   <g id="matplotlib.axis_1">
    <g id="xtick_1">
     <g id="line2d_1">
      <path clip-path="url(#p5810c145e9)" d="M 57.6 298.944 
L 57.6 3.456 
" style="fill:none;stroke:#b0b0b0;stroke-linecap:square;stroke-width:0.8;"/>
     </g>
     <g id="line2d_2">
      <defs>
       <path d="M 0 0 
L 0 3.5 
" id="m889aa238e5" style="stroke:#000000;stroke-width:0.8;"/>
      </defs>
      <g>
       <use style="stroke:#000000;stroke-width:0.8;" x="57.6" xlink:href="#m889aa238e5" y="298.944"/>
      </g>
     </g>
     <g id="text_1">
      <!-- 0 -->
      <defs>
       <path d="M 31.78125 66.40625 
Q 24.171875 66.40625 20.328125 58.90625 
Q 16.5 51.421875 16.5 36.375 
Q 16.5 21.390625 20.328125 13.890625 
Q 24.171875 6.390625 31.78125 6.390625 
Q 39.453125 6.390625 43.28125 13.890625 
Q 47.125 21.390625 47.125 36.375 
Q 47.125 51.421875 43.28125 58.90625 
Q 39.453125 66.40625 31.78125 66.40625 
z
M 31.78125 74.21875 
Q 44.046875 74.21875 50.515625 64.515625 
Q 56.984375 54.828125 56.984375 36.375 
Q 56.984375 17.96875 50.515625 8.265625 
Q 44.046875 -1.421875 31.78125 -1.421875 
Q 19.53125 -1.421875 13.0625 8.265625 
Q 6.59375 17.96875 6.59375 36.375 
Q 6.59375 54.828125 13.0625 64.515625 
Q 19.53125 74.21875 31.78125 74.21875 
z
" id="DejaVuSans-48"/>
      </defs>
      <g transform="translate(51.2375 321.140875)scale(0.2 -0.2)">
       <use xlink:href="#DejaVuSans-48"/>
      </g>
     </g>
    </g>
    <g id="xtick_2">
     <g id="line2d_3">
      <path clip-path="url(#p5810c145e9)" d="M 137.910857 298.944 
L 137.910857 3.456 
" style="fill:none;stroke:#b0b0b0;stroke-linecap:square;stroke-width:0.8;"/>
     </g>
     <g id="line2d_4">
      <g>
       <use style="stroke:#000000;stroke-width:0.8;" x="137.910857" xlink:href="#m889aa238e5" y="298.944"/>
      </g>
     </g>
     <g id="text_2">
      <!-- 2 -->
      <defs>
       <path d="M 19.1875 8.296875 
L 53.609375 8.296875 
L 53.609375 0 
L 7.328125 0 
L 7.328125 8.296875 
Q 12.9375 14.109375 22.625 23.890625 
Q 32.328125 33.6875 34.8125 36.53125 
Q 39.546875 41.84375 41.421875 45.53125 
Q 43.3125 49.21875 43.3125 52.78125 
Q 43.3125 58.59375 39.234375 62.25 
Q 35.15625 65.921875 28.609375 65.921875 
Q 23.96875 65.921875 18.8125 64.3125 
Q 13.671875 62.703125 7.8125 59.421875 
L 7.8125 69.390625 
Q 13.765625 71.78125 18.9375 73 
Q 24.125 74.21875 28.421875 74.21875 
Q 39.75 74.21875 46.484375 68.546875 
Q 53.21875 62.890625 53.21875 53.421875 
Q 53.21875 48.921875 51.53125 44.890625 
Q 49.859375 40.875 45.40625 35.40625 
Q 44.1875 33.984375 37.640625 27.21875 
Q 31.109375 20.453125 19.1875 8.296875 
z
" id="DejaVuSans-50"/>
      </defs>
      <g transform="translate(131.548357 321.140875)scale(0.2 -0.2)">
       <use xlink:href="#DejaVuSans-50"/>
      </g>
     </g>
    </g>
    <g id="xtick_3">
     <g id="line2d_5">
      <path clip-path="url(#p5810c145e9)" d="M 218.221714 298.944 
L 218.221714 3.456 
" style="fill:none;stroke:#b0b0b0;stroke-linecap:square;stroke-width:0.8;"/>
     </g>
     <g id="line2d_6">
      <g>
       <use style="stroke:#000000;stroke-width:0.8;" x="218.221714" xlink:href="#m889aa238e5" y="298.944"/>
      </g>
     </g>
     <g id="text_3">
      <!-- 4 -->
      <defs>
       <path d="M 37.796875 64.3125 
L 12.890625 25.390625 
L 37.796875 25.390625 
z
M 35.203125 72.90625 
L 47.609375 72.90625 
L 47.609375 25.390625 
L 58.015625 25.390625 
L 58.015625 17.1875 
L 47.609375 17.1875 
L 47.609375 0 
L 37.796875 0 
L 37.796875 17.1875 
L 4.890625 17.1875 
L 4.890625 26.703125 
z
" id="DejaVuSans-52"/>
      </defs>
      <g transform="translate(211.859214 321.140875)scale(0.2 -0.2)">
       <use xlink:href="#DejaVuSans-52"/>
      </g>
     </g>
    </g>
    <g id="xtick_4">
     <g id="line2d_7">
      <path clip-path="url(#p5810c145e9)" d="M 298.532571 298.944 
L 298.532571 3.456 
" style="fill:none;stroke:#b0b0b0;stroke-linecap:square;stroke-width:0.8;"/>
     </g>
     <g id="line2d_8">
      <g>
       <use style="stroke:#000000;stroke-width:0.8;" x="298.532571" xlink:href="#m889aa238e5" y="298.944"/>
      </g>
     </g>
     <g id="text_4">
      <!-- 6 -->
      <defs>
       <path d="M 33.015625 40.375 
Q 26.375 40.375 22.484375 35.828125 
Q 18.609375 31.296875 18.609375 23.390625 
Q 18.609375 15.53125 22.484375 10.953125 
Q 26.375 6.390625 33.015625 6.390625 
Q 39.65625 6.390625 43.53125 10.953125 
Q 47.40625 15.53125 47.40625 23.390625 
Q 47.40625 31.296875 43.53125 35.828125 
Q 39.65625 40.375 33.015625 40.375 
z
M 52.59375 71.296875 
L 52.59375 62.3125 
Q 48.875 64.0625 45.09375 64.984375 
Q 41.3125 65.921875 37.59375 65.921875 
Q 27.828125 65.921875 22.671875 59.328125 
Q 17.53125 52.734375 16.796875 39.40625 
Q 19.671875 43.65625 24.015625 45.921875 
Q 28.375 48.1875 33.59375 48.1875 
Q 44.578125 48.1875 50.953125 41.515625 
Q 57.328125 34.859375 57.328125 23.390625 
Q 57.328125 12.15625 50.6875 5.359375 
Q 44.046875 -1.421875 33.015625 -1.421875 
Q 20.359375 -1.421875 13.671875 8.265625 
Q 6.984375 17.96875 6.984375 36.375 
Q 6.984375 53.65625 15.1875 63.9375 
Q 23.390625 74.21875 37.203125 74.21875 
Q 40.921875 74.21875 44.703125 73.484375 
Q 48.484375 72.75 52.59375 71.296875 
z
" id="DejaVuSans-54"/>
      </defs>
      <g transform="translate(292.170071 321.140875)scale(0.2 -0.2)">
       <use xlink:href="#DejaVuSans-54"/>
      </g>
     </g>
    </g>
    <g id="xtick_5">
     <g id="line2d_9">
      <path clip-path="url(#p5810c145e9)" d="M 97.755429 298.944 
L 97.755429 3.456 
" style="fill:none;stroke:#b0b0b0;stroke-linecap:square;stroke-width:0.8;"/>
     </g>
     <g id="line2d_10">
      <defs>
       <path d="M 0 0 
L 0 2 
" id="me62b609a57" style="stroke:#000000;stroke-width:0.6;"/>
      </defs>
      <g>
       <use style="stroke:#000000;stroke-width:0.6;" x="97.755429" xlink:href="#me62b609a57" y="298.944"/>
      </g>
     </g>
    </g>
    <g id="xtick_6">
     <g id="line2d_11">
      <path clip-path="url(#p5810c145e9)" d="M 178.066286 298.944 
L 178.066286 3.456 
" style="fill:none;stroke:#b0b0b0;stroke-linecap:square;stroke-width:0.8;"/>
     </g>
     <g id="line2d_12">
      <g>
       <use style="stroke:#000000;stroke-width:0.6;" x="178.066286" xlink:href="#me62b609a57" y="298.944"/>
      </g>
     </g>
    </g>
    <g id="xtick_7">
     <g id="line2d_13">
      <path clip-path="url(#p5810c145e9)" d="M 258.377143 298.944 
L 258.377143 3.456 
" style="fill:none;stroke:#b0b0b0;stroke-linecap:square;stroke-width:0.8;"/>
     </g>
     <g id="line2d_14">
      <g>
       <use style="stroke:#000000;stroke-width:0.6;" x="258.377143" xlink:href="#me62b609a57" y="298.944"/>
      </g>
     </g>
    </g>
    <g id="xtick_8">
     <g id="line2d_15">
      <path clip-path="url(#p5810c145e9)" d="M 338.688 298.944 
L 338.688 3.456 
" style="fill:none;stroke:#b0b0b0;stroke-linecap:square;stroke-width:0.8;"/>
     </g>
     <g id="line2d_16">
      <g>
       <use style="stroke:#000000;stroke-width:0.6;" x="338.688" xlink:href="#me62b609a57" y="298.944"/>
      </g>
     </g>
    </g>
    <g id="text_5">
     <!-- log10(# f-evals / dimension) -->
     <defs>
      <path d="M 9.421875 75.984375 
L 18.40625 75.984375 
L 18.40625 0 
L 9.421875 0 
z
" id="DejaVuSans-108"/>
      <path d="M 30.609375 48.390625 
Q 23.390625 48.390625 19.1875 42.75 
Q 14.984375 37.109375 14.984375 27.296875 
Q 14.984375 17.484375 19.15625 11.84375 
Q 23.34375 6.203125 30.609375 6.203125 
Q 37.796875 6.203125 41.984375 11.859375 
Q 46.1875 17.53125 46.1875 27.296875 
Q 46.1875 37.015625 41.984375 42.703125 
Q 37.796875 48.390625 30.609375 48.390625 
z
M 30.609375 56 
Q 42.328125 56 49.015625 48.375 
Q 55.71875 40.765625 55.71875 27.296875 
Q 55.71875 13.875 49.015625 6.21875 
Q 42.328125 -1.421875 30.609375 -1.421875 
Q 18.84375 -1.421875 12.171875 6.21875 
Q 5.515625 13.875 5.515625 27.296875 
Q 5.515625 40.765625 12.171875 48.375 
Q 18.84375 56 30.609375 56 
z
" id="DejaVuSans-111"/>
      <path d="M 45.40625 27.984375 
Q 45.40625 37.75 41.375 43.109375 
Q 37.359375 48.484375 30.078125 48.484375 
Q 22.859375 48.484375 18.828125 43.109375 
Q 14.796875 37.75 14.796875 27.984375 
Q 14.796875 18.265625 18.828125 12.890625 
Q 22.859375 7.515625 30.078125 7.515625 
Q 37.359375 7.515625 41.375 12.890625 
Q 45.40625 18.265625 45.40625 27.984375 
z
M 54.390625 6.78125 
Q 54.390625 -7.171875 48.1875 -13.984375 
Q 42 -20.796875 29.203125 -20.796875 
Q 24.46875 -20.796875 20.265625 -20.09375 
Q 16.0625 -19.390625 12.109375 -17.921875 
L 12.109375 -9.1875 
Q 16.0625 -11.328125 19.921875 -12.34375 
Q 23.78125 -13.375 27.78125 -13.375 
Q 36.625 -13.375 41.015625 -8.765625 
Q 45.40625 -4.15625 45.40625 5.171875 
L 45.40625 9.625 
Q 42.625 4.78125 38.28125 2.390625 
Q 33.9375 0 27.875 0 
Q 17.828125 0 11.671875 7.65625 
Q 5.515625 15.328125 5.515625 27.984375 
Q 5.515625 40.671875 11.671875 48.328125 
Q 17.828125 56 27.875 56 
Q 33.9375 56 38.28125 53.609375 
Q 42.625 51.21875 45.40625 46.390625 
L 45.40625 54.6875 
L 54.390625 54.6875 
z
" id="DejaVuSans-103"/>
      <path d="M 12.40625 8.296875 
L 28.515625 8.296875 
L 28.515625 63.921875 
L 10.984375 60.40625 
L 10.984375 69.390625 
L 28.421875 72.90625 
L 38.28125 72.90625 
L 38.28125 8.296875 
L 54.390625 8.296875 
L 54.390625 0 
L 12.40625 0 
z
" id="DejaVuSans-49"/>
      <path d="M 31 75.875 
Q 24.46875 64.65625 21.28125 53.65625 
Q 18.109375 42.671875 18.109375 31.390625 
Q 18.109375 20.125 21.3125 9.0625 
Q 24.515625 -2 31 -13.1875 
L 23.1875 -13.1875 
Q 15.875 -1.703125 12.234375 9.375 
Q 8.59375 20.453125 8.59375 31.390625 
Q 8.59375 42.28125 12.203125 53.3125 
Q 15.828125 64.359375 23.1875 75.875 
z
" id="DejaVuSans-40"/>
      <path d="M 51.125 44 
L 36.921875 44 
L 32.8125 27.6875 
L 47.125 27.6875 
z
M 43.796875 71.78125 
L 38.71875 51.515625 
L 52.984375 51.515625 
L 58.109375 71.78125 
L 65.921875 71.78125 
L 60.890625 51.515625 
L 76.125 51.515625 
L 76.125 44 
L 58.984375 44 
L 54.984375 27.6875 
L 70.515625 27.6875 
L 70.515625 20.21875 
L 53.078125 20.21875 
L 48 0 
L 40.1875 0 
L 45.21875 20.21875 
L 30.90625 20.21875 
L 25.875 0 
L 18.015625 0 
L 23.09375 20.21875 
L 7.71875 20.21875 
L 7.71875 27.6875 
L 24.90625 27.6875 
L 29 44 
L 13.28125 44 
L 13.28125 51.515625 
L 30.90625 51.515625 
L 35.890625 71.78125 
z
" id="DejaVuSans-35"/>
      <path id="DejaVuSans-32"/>
      <path d="M 37.109375 75.984375 
L 37.109375 68.5 
L 28.515625 68.5 
Q 23.6875 68.5 21.796875 66.546875 
Q 19.921875 64.59375 19.921875 59.515625 
L 19.921875 54.6875 
L 34.71875 54.6875 
L 34.71875 47.703125 
L 19.921875 47.703125 
L 19.921875 0 
L 10.890625 0 
L 10.890625 47.703125 
L 2.296875 47.703125 
L 2.296875 54.6875 
L 10.890625 54.6875 
L 10.890625 58.5 
Q 10.890625 67.625 15.140625 71.796875 
Q 19.390625 75.984375 28.609375 75.984375 
z
" id="DejaVuSans-102"/>
      <path d="M 4.890625 31.390625 
L 31.203125 31.390625 
L 31.203125 23.390625 
L 4.890625 23.390625 
z
" id="DejaVuSans-45"/>
      <path d="M 56.203125 29.59375 
L 56.203125 25.203125 
L 14.890625 25.203125 
Q 15.484375 15.921875 20.484375 11.0625 
Q 25.484375 6.203125 34.421875 6.203125 
Q 39.59375 6.203125 44.453125 7.46875 
Q 49.3125 8.734375 54.109375 11.28125 
L 54.109375 2.78125 
Q 49.265625 0.734375 44.1875 -0.34375 
Q 39.109375 -1.421875 33.890625 -1.421875 
Q 20.796875 -1.421875 13.15625 6.1875 
Q 5.515625 13.8125 5.515625 26.8125 
Q 5.515625 40.234375 12.765625 48.109375 
Q 20.015625 56 32.328125 56 
Q 43.359375 56 49.78125 48.890625 
Q 56.203125 41.796875 56.203125 29.59375 
z
M 47.21875 32.234375 
Q 47.125 39.59375 43.09375 43.984375 
Q 39.0625 48.390625 32.421875 48.390625 
Q 24.90625 48.390625 20.390625 44.140625 
Q 15.875 39.890625 15.1875 32.171875 
z
" id="DejaVuSans-101"/>
      <path d="M 2.984375 54.6875 
L 12.5 54.6875 
L 29.59375 8.796875 
L 46.6875 54.6875 
L 56.203125 54.6875 
L 35.6875 0 
L 23.484375 0 
z
" id="DejaVuSans-118"/>
      <path d="M 34.28125 27.484375 
Q 23.390625 27.484375 19.1875 25 
Q 14.984375 22.515625 14.984375 16.5 
Q 14.984375 11.71875 18.140625 8.90625 
Q 21.296875 6.109375 26.703125 6.109375 
Q 34.1875 6.109375 38.703125 11.40625 
Q 43.21875 16.703125 43.21875 25.484375 
L 43.21875 27.484375 
z
M 52.203125 31.203125 
L 52.203125 0 
L 43.21875 0 
L 43.21875 8.296875 
Q 40.140625 3.328125 35.546875 0.953125 
Q 30.953125 -1.421875 24.3125 -1.421875 
Q 15.921875 -1.421875 10.953125 3.296875 
Q 6 8.015625 6 15.921875 
Q 6 25.140625 12.171875 29.828125 
Q 18.359375 34.515625 30.609375 34.515625 
L 43.21875 34.515625 
L 43.21875 35.40625 
Q 43.21875 41.609375 39.140625 45 
Q 35.0625 48.390625 27.6875 48.390625 
Q 23 48.390625 18.546875 47.265625 
Q 14.109375 46.140625 10.015625 43.890625 
L 10.015625 52.203125 
Q 14.9375 54.109375 19.578125 55.046875 
Q 24.21875 56 28.609375 56 
Q 40.484375 56 46.34375 49.84375 
Q 52.203125 43.703125 52.203125 31.203125 
z
" id="DejaVuSans-97"/>
      <path d="M 44.28125 53.078125 
L 44.28125 44.578125 
Q 40.484375 46.53125 36.375 47.5 
Q 32.28125 48.484375 27.875 48.484375 
Q 21.1875 48.484375 17.84375 46.4375 
Q 14.5 44.390625 14.5 40.28125 
Q 14.5 37.15625 16.890625 35.375 
Q 19.28125 33.59375 26.515625 31.984375 
L 29.59375 31.296875 
Q 39.15625 29.25 43.1875 25.515625 
Q 47.21875 21.78125 47.21875 15.09375 
Q 47.21875 7.46875 41.1875 3.015625 
Q 35.15625 -1.421875 24.609375 -1.421875 
Q 20.21875 -1.421875 15.453125 -0.5625 
Q 10.6875 0.296875 5.421875 2 
L 5.421875 11.28125 
Q 10.40625 8.6875 15.234375 7.390625 
Q 20.0625 6.109375 24.8125 6.109375 
Q 31.15625 6.109375 34.5625 8.28125 
Q 37.984375 10.453125 37.984375 14.40625 
Q 37.984375 18.0625 35.515625 20.015625 
Q 33.0625 21.96875 24.703125 23.78125 
L 21.578125 24.515625 
Q 13.234375 26.265625 9.515625 29.90625 
Q 5.8125 33.546875 5.8125 39.890625 
Q 5.8125 47.609375 11.28125 51.796875 
Q 16.75 56 26.8125 56 
Q 31.78125 56 36.171875 55.265625 
Q 40.578125 54.546875 44.28125 53.078125 
z
" id="DejaVuSans-115"/>
      <path d="M 25.390625 72.90625 
L 33.6875 72.90625 
L 8.296875 -9.28125 
L 0 -9.28125 
z
" id="DejaVuSans-47"/>
      <path d="M 45.40625 46.390625 
L 45.40625 75.984375 
L 54.390625 75.984375 
L 54.390625 0 
L 45.40625 0 
L 45.40625 8.203125 
Q 42.578125 3.328125 38.25 0.953125 
Q 33.9375 -1.421875 27.875 -1.421875 
Q 17.96875 -1.421875 11.734375 6.484375 
Q 5.515625 14.40625 5.515625 27.296875 
Q 5.515625 40.1875 11.734375 48.09375 
Q 17.96875 56 27.875 56 
Q 33.9375 56 38.25 53.625 
Q 42.578125 51.265625 45.40625 46.390625 
z
M 14.796875 27.296875 
Q 14.796875 17.390625 18.875 11.75 
Q 22.953125 6.109375 30.078125 6.109375 
Q 37.203125 6.109375 41.296875 11.75 
Q 45.40625 17.390625 45.40625 27.296875 
Q 45.40625 37.203125 41.296875 42.84375 
Q 37.203125 48.484375 30.078125 48.484375 
Q 22.953125 48.484375 18.875 42.84375 
Q 14.796875 37.203125 14.796875 27.296875 
z
" id="DejaVuSans-100"/>
      <path d="M 9.421875 54.6875 
L 18.40625 54.6875 
L 18.40625 0 
L 9.421875 0 
z
M 9.421875 75.984375 
L 18.40625 75.984375 
L 18.40625 64.59375 
L 9.421875 64.59375 
z
" id="DejaVuSans-105"/>
      <path d="M 52 44.1875 
Q 55.375 50.25 60.0625 53.125 
Q 64.75 56 71.09375 56 
Q 79.640625 56 84.28125 50.015625 
Q 88.921875 44.046875 88.921875 33.015625 
L 88.921875 0 
L 79.890625 0 
L 79.890625 32.71875 
Q 79.890625 40.578125 77.09375 44.375 
Q 74.3125 48.1875 68.609375 48.1875 
Q 61.625 48.1875 57.5625 43.546875 
Q 53.515625 38.921875 53.515625 30.90625 
L 53.515625 0 
L 44.484375 0 
L 44.484375 32.71875 
Q 44.484375 40.625 41.703125 44.40625 
Q 38.921875 48.1875 33.109375 48.1875 
Q 26.21875 48.1875 22.15625 43.53125 
Q 18.109375 38.875 18.109375 30.90625 
L 18.109375 0 
L 9.078125 0 
L 9.078125 54.6875 
L 18.109375 54.6875 
L 18.109375 46.1875 
Q 21.1875 51.21875 25.484375 53.609375 
Q 29.78125 56 35.6875 56 
Q 41.65625 56 45.828125 52.96875 
Q 50 49.953125 52 44.1875 
z
" id="DejaVuSans-109"/>
      <path d="M 54.890625 33.015625 
L 54.890625 0 
L 45.90625 0 
L 45.90625 32.71875 
Q 45.90625 40.484375 42.875 44.328125 
Q 39.84375 48.1875 33.796875 48.1875 
Q 26.515625 48.1875 22.3125 43.546875 
Q 18.109375 38.921875 18.109375 30.90625 
L 18.109375 0 
L 9.078125 0 
L 9.078125 54.6875 
L 18.109375 54.6875 
L 18.109375 46.1875 
Q 21.34375 51.125 25.703125 53.5625 
Q 30.078125 56 35.796875 56 
Q 45.21875 56 50.046875 50.171875 
Q 54.890625 44.34375 54.890625 33.015625 
z
" id="DejaVuSans-110"/>
      <path d="M 8.015625 75.875 
L 15.828125 75.875 
Q 23.140625 64.359375 26.78125 53.3125 
Q 30.421875 42.28125 30.421875 31.390625 
Q 30.421875 20.453125 26.78125 9.375 
Q 23.140625 -1.703125 15.828125 -13.1875 
L 8.015625 -13.1875 
Q 14.5 -2 17.703125 9.0625 
Q 20.90625 20.125 20.90625 31.390625 
Q 20.90625 42.671875 17.703125 53.65625 
Q 14.5 64.65625 8.015625 75.875 
z
" id="DejaVuSans-41"/>
     </defs>
     <g transform="translate(77.303219 342.217594)scale(0.17 -0.17)">
      <use xlink:href="#DejaVuSans-108"/>
      <use x="27.783203" xlink:href="#DejaVuSans-111"/>
      <use x="88.964844" xlink:href="#DejaVuSans-103"/>
      <use x="152.441406" xlink:href="#DejaVuSans-49"/>
      <use x="216.064453" xlink:href="#DejaVuSans-48"/>
      <use x="279.6875" xlink:href="#DejaVuSans-40"/>
      <use x="318.701172" xlink:href="#DejaVuSans-35"/>
      <use x="402.490234" xlink:href="#DejaVuSans-32"/>
      <use x="434.277344" xlink:href="#DejaVuSans-102"/>
      <use x="469.404297" xlink:href="#DejaVuSans-45"/>
      <use x="505.488281" xlink:href="#DejaVuSans-101"/>
      <use x="567.011719" xlink:href="#DejaVuSans-118"/>
      <use x="626.191406" xlink:href="#DejaVuSans-97"/>
      <use x="687.470703" xlink:href="#DejaVuSans-108"/>
      <use x="715.253906" xlink:href="#DejaVuSans-115"/>
      <use x="767.353516" xlink:href="#DejaVuSans-32"/>
      <use x="799.140625" xlink:href="#DejaVuSans-47"/>
      <use x="832.832031" xlink:href="#DejaVuSans-32"/>
      <use x="864.619141" xlink:href="#DejaVuSans-100"/>
      <use x="928.095703" xlink:href="#DejaVuSans-105"/>
      <use x="955.878906" xlink:href="#DejaVuSans-109"/>
      <use x="1053.291016" xlink:href="#DejaVuSans-101"/>
      <use x="1114.814453" xlink:href="#DejaVuSans-110"/>
      <use x="1178.193359" xlink:href="#DejaVuSans-115"/>
      <use x="1230.292969" xlink:href="#DejaVuSans-105"/>
      <use x="1258.076172" xlink:href="#DejaVuSans-111"/>
      <use x="1319.257812" xlink:href="#DejaVuSans-110"/>
      <use x="1382.636719" xlink:href="#DejaVuSans-41"/>
     </g>
    </g>
   </g>
   <g id="matplotlib.axis_2">
    <g id="ytick_1">
     <g id="line2d_17">
      <path clip-path="url(#p5810c145e9)" d="M 57.6 298.944 
L 338.688 298.944 
" style="fill:none;stroke:#b0b0b0;stroke-linecap:square;stroke-width:0.8;"/>
     </g>
     <g id="line2d_18">
      <defs>
       <path d="M 0 0 
L -3.5 0 
" id="m223ffe2903" style="stroke:#000000;stroke-width:0.8;"/>
      </defs>
      <g>
       <use style="stroke:#000000;stroke-width:0.8;" x="57.6" xlink:href="#m223ffe2903" y="298.944"/>
      </g>
     </g>
     <g id="text_6">
      <!-- 0.0 -->
      <defs>
       <path d="M 10.6875 12.40625 
L 21 12.40625 
L 21 0 
L 10.6875 0 
z
" id="DejaVuSans-46"/>
      </defs>
      <g transform="translate(25.155 305.02275)scale(0.16 -0.16)">
       <use xlink:href="#DejaVuSans-48"/>
       <use x="63.623047" xlink:href="#DejaVuSans-46"/>
       <use x="95.410156" xlink:href="#DejaVuSans-48"/>
      </g>
     </g>
    </g>
    <g id="ytick_2">
     <g id="line2d_19">
      <path clip-path="url(#p5810c145e9)" d="M 57.6 240.431525 
L 338.688 240.431525 
" style="fill:none;stroke:#b0b0b0;stroke-linecap:square;stroke-width:0.8;"/>
     </g>
     <g id="line2d_20">
      <g>
       <use style="stroke:#000000;stroke-width:0.8;" x="57.6" xlink:href="#m223ffe2903" y="240.431525"/>
      </g>
     </g>
     <g id="text_7">
      <!-- 0.2 -->
      <g transform="translate(25.155 246.510275)scale(0.16 -0.16)">
       <use xlink:href="#DejaVuSans-48"/>
       <use x="63.623047" xlink:href="#DejaVuSans-46"/>
       <use x="95.410156" xlink:href="#DejaVuSans-50"/>
      </g>
     </g>
    </g>
    <g id="ytick_3">
     <g id="line2d_21">
      <path clip-path="url(#p5810c145e9)" d="M 57.6 181.91905 
L 338.688 181.91905 
" style="fill:none;stroke:#b0b0b0;stroke-linecap:square;stroke-width:0.8;"/>
     </g>
     <g id="line2d_22">
      <g>
       <use style="stroke:#000000;stroke-width:0.8;" x="57.6" xlink:href="#m223ffe2903" y="181.91905"/>
      </g>
     </g>
     <g id="text_8">
      <!-- 0.4 -->
      <g transform="translate(25.155 187.9978)scale(0.16 -0.16)">
       <use xlink:href="#DejaVuSans-48"/>
       <use x="63.623047" xlink:href="#DejaVuSans-46"/>
       <use x="95.410156" xlink:href="#DejaVuSans-52"/>
      </g>
     </g>
    </g>
    <g id="ytick_4">
     <g id="line2d_23">
      <path clip-path="url(#p5810c145e9)" d="M 57.6 123.406574 
L 338.688 123.406574 
" style="fill:none;stroke:#b0b0b0;stroke-linecap:square;stroke-width:0.8;"/>
     </g>
     <g id="line2d_24">
      <g>
       <use style="stroke:#000000;stroke-width:0.8;" x="57.6" xlink:href="#m223ffe2903" y="123.406574"/>
      </g>
     </g>
     <g id="text_9">
      <!-- 0.6 -->
      <g transform="translate(25.155 129.485324)scale(0.16 -0.16)">
       <use xlink:href="#DejaVuSans-48"/>
       <use x="63.623047" xlink:href="#DejaVuSans-46"/>
       <use x="95.410156" xlink:href="#DejaVuSans-54"/>
      </g>
     </g>
    </g>
    <g id="ytick_5">
     <g id="line2d_25">
      <path clip-path="url(#p5810c145e9)" d="M 57.6 64.894099 
L 338.688 64.894099 
" style="fill:none;stroke:#b0b0b0;stroke-linecap:square;stroke-width:0.8;"/>
     </g>
     <g id="line2d_26">
      <g>
       <use style="stroke:#000000;stroke-width:0.8;" x="57.6" xlink:href="#m223ffe2903" y="64.894099"/>
      </g>
     </g>
     <g id="text_10">
      <!-- 0.8 -->
      <defs>
       <path d="M 31.78125 34.625 
Q 24.75 34.625 20.71875 30.859375 
Q 16.703125 27.09375 16.703125 20.515625 
Q 16.703125 13.921875 20.71875 10.15625 
Q 24.75 6.390625 31.78125 6.390625 
Q 38.8125 6.390625 42.859375 10.171875 
Q 46.921875 13.96875 46.921875 20.515625 
Q 46.921875 27.09375 42.890625 30.859375 
Q 38.875 34.625 31.78125 34.625 
z
M 21.921875 38.8125 
Q 15.578125 40.375 12.03125 44.71875 
Q 8.5 49.078125 8.5 55.328125 
Q 8.5 64.0625 14.71875 69.140625 
Q 20.953125 74.21875 31.78125 74.21875 
Q 42.671875 74.21875 48.875 69.140625 
Q 55.078125 64.0625 55.078125 55.328125 
Q 55.078125 49.078125 51.53125 44.71875 
Q 48 40.375 41.703125 38.8125 
Q 48.828125 37.15625 52.796875 32.3125 
Q 56.78125 27.484375 56.78125 20.515625 
Q 56.78125 9.90625 50.3125 4.234375 
Q 43.84375 -1.421875 31.78125 -1.421875 
Q 19.734375 -1.421875 13.25 4.234375 
Q 6.78125 9.90625 6.78125 20.515625 
Q 6.78125 27.484375 10.78125 32.3125 
Q 14.796875 37.15625 21.921875 38.8125 
z
M 18.3125 54.390625 
Q 18.3125 48.734375 21.84375 45.5625 
Q 25.390625 42.390625 31.78125 42.390625 
Q 38.140625 42.390625 41.71875 45.5625 
Q 45.3125 48.734375 45.3125 54.390625 
Q 45.3125 60.0625 41.71875 63.234375 
Q 38.140625 66.40625 31.78125 66.40625 
Q 25.390625 66.40625 21.84375 63.234375 
Q 18.3125 60.0625 18.3125 54.390625 
z
" id="DejaVuSans-56"/>
      </defs>
      <g transform="translate(25.155 70.972849)scale(0.16 -0.16)">
       <use xlink:href="#DejaVuSans-48"/>
       <use x="63.623047" xlink:href="#DejaVuSans-46"/>
       <use x="95.410156" xlink:href="#DejaVuSans-56"/>
      </g>
     </g>
    </g>
    <g id="ytick_6">
     <g id="line2d_27">
      <path clip-path="url(#p5810c145e9)" d="M 57.6 6.381624 
L 338.688 6.381624 
" style="fill:none;stroke:#b0b0b0;stroke-linecap:square;stroke-width:0.8;"/>
     </g>
     <g id="line2d_28">
      <g>
       <use style="stroke:#000000;stroke-width:0.8;" x="57.6" xlink:href="#m223ffe2903" y="6.381624"/>
      </g>
     </g>
     <g id="text_11">
      <!-- 1.0 -->
      <g transform="translate(25.155 12.460374)scale(0.16 -0.16)">
       <use xlink:href="#DejaVuSans-49"/>
       <use x="63.623047" xlink:href="#DejaVuSans-46"/>
       <use x="95.410156" xlink:href="#DejaVuSans-48"/>
      </g>
     </g>
    </g>
    <g id="text_12">
     <!-- Fraction of function,target pairs -->
     <defs>
      <path d="M 9.8125 72.90625 
L 51.703125 72.90625 
L 51.703125 64.59375 
L 19.671875 64.59375 
L 19.671875 43.109375 
L 48.578125 43.109375 
L 48.578125 34.8125 
L 19.671875 34.8125 
L 19.671875 0 
L 9.8125 0 
z
" id="DejaVuSans-70"/>
      <path d="M 41.109375 46.296875 
Q 39.59375 47.171875 37.8125 47.578125 
Q 36.03125 48 33.890625 48 
Q 26.265625 48 22.1875 43.046875 
Q 18.109375 38.09375 18.109375 28.8125 
L 18.109375 0 
L 9.078125 0 
L 9.078125 54.6875 
L 18.109375 54.6875 
L 18.109375 46.1875 
Q 20.953125 51.171875 25.484375 53.578125 
Q 30.03125 56 36.53125 56 
Q 37.453125 56 38.578125 55.875 
Q 39.703125 55.765625 41.0625 55.515625 
z
" id="DejaVuSans-114"/>
      <path d="M 48.78125 52.59375 
L 48.78125 44.1875 
Q 44.96875 46.296875 41.140625 47.34375 
Q 37.3125 48.390625 33.40625 48.390625 
Q 24.65625 48.390625 19.8125 42.84375 
Q 14.984375 37.3125 14.984375 27.296875 
Q 14.984375 17.28125 19.8125 11.734375 
Q 24.65625 6.203125 33.40625 6.203125 
Q 37.3125 6.203125 41.140625 7.25 
Q 44.96875 8.296875 48.78125 10.40625 
L 48.78125 2.09375 
Q 45.015625 0.34375 40.984375 -0.53125 
Q 36.96875 -1.421875 32.421875 -1.421875 
Q 20.0625 -1.421875 12.78125 6.34375 
Q 5.515625 14.109375 5.515625 27.296875 
Q 5.515625 40.671875 12.859375 48.328125 
Q 20.21875 56 33.015625 56 
Q 37.15625 56 41.109375 55.140625 
Q 45.0625 54.296875 48.78125 52.59375 
z
" id="DejaVuSans-99"/>
      <path d="M 18.3125 70.21875 
L 18.3125 54.6875 
L 36.8125 54.6875 
L 36.8125 47.703125 
L 18.3125 47.703125 
L 18.3125 18.015625 
Q 18.3125 11.328125 20.140625 9.421875 
Q 21.96875 7.515625 27.59375 7.515625 
L 36.8125 7.515625 
L 36.8125 0 
L 27.59375 0 
Q 17.1875 0 13.234375 3.875 
Q 9.28125 7.765625 9.28125 18.015625 
L 9.28125 47.703125 
L 2.6875 47.703125 
L 2.6875 54.6875 
L 9.28125 54.6875 
L 9.28125 70.21875 
z
" id="DejaVuSans-116"/>
      <path d="M 8.5 21.578125 
L 8.5 54.6875 
L 17.484375 54.6875 
L 17.484375 21.921875 
Q 17.484375 14.15625 20.5 10.265625 
Q 23.53125 6.390625 29.59375 6.390625 
Q 36.859375 6.390625 41.078125 11.03125 
Q 45.3125 15.671875 45.3125 23.6875 
L 45.3125 54.6875 
L 54.296875 54.6875 
L 54.296875 0 
L 45.3125 0 
L 45.3125 8.40625 
Q 42.046875 3.421875 37.71875 1 
Q 33.40625 -1.421875 27.6875 -1.421875 
Q 18.265625 -1.421875 13.375 4.4375 
Q 8.5 10.296875 8.5 21.578125 
z
M 31.109375 56 
z
" id="DejaVuSans-117"/>
      <path d="M 11.71875 12.40625 
L 22.015625 12.40625 
L 22.015625 4 
L 14.015625 -11.625 
L 7.71875 -11.625 
L 11.71875 4 
z
" id="DejaVuSans-44"/>
      <path d="M 18.109375 8.203125 
L 18.109375 -20.796875 
L 9.078125 -20.796875 
L 9.078125 54.6875 
L 18.109375 54.6875 
L 18.109375 46.390625 
Q 20.953125 51.265625 25.265625 53.625 
Q 29.59375 56 35.59375 56 
Q 45.5625 56 51.78125 48.09375 
Q 58.015625 40.1875 58.015625 27.296875 
Q 58.015625 14.40625 51.78125 6.484375 
Q 45.5625 -1.421875 35.59375 -1.421875 
Q 29.59375 -1.421875 25.265625 0.953125 
Q 20.953125 3.328125 18.109375 8.203125 
z
M 48.6875 27.296875 
Q 48.6875 37.203125 44.609375 42.84375 
Q 40.53125 48.484375 33.40625 48.484375 
Q 26.265625 48.484375 22.1875 42.84375 
Q 18.109375 37.203125 18.109375 27.296875 
Q 18.109375 17.390625 22.1875 11.75 
Q 26.265625 6.109375 33.40625 6.109375 
Q 40.53125 6.109375 44.609375 11.75 
Q 48.6875 17.390625 48.6875 27.296875 
z
" id="DejaVuSans-112"/>
     </defs>
     <g transform="translate(17.619531 286.339375)rotate(-90)scale(0.17 -0.17)">
      <use xlink:href="#DejaVuSans-70"/>
      <use x="57.410156" xlink:href="#DejaVuSans-114"/>
      <use x="98.523438" xlink:href="#DejaVuSans-97"/>
      <use x="159.802734" xlink:href="#DejaVuSans-99"/>
      <use x="214.783203" xlink:href="#DejaVuSans-116"/>
      <use x="253.992188" xlink:href="#DejaVuSans-105"/>
      <use x="281.775391" xlink:href="#DejaVuSans-111"/>
      <use x="342.957031" xlink:href="#DejaVuSans-110"/>
      <use x="406.335938" xlink:href="#DejaVuSans-32"/>
      <use x="438.123047" xlink:href="#DejaVuSans-111"/>
      <use x="499.304688" xlink:href="#DejaVuSans-102"/>
      <use x="534.509766" xlink:href="#DejaVuSans-32"/>
      <use x="566.296875" xlink:href="#DejaVuSans-102"/>
      <use x="601.501953" xlink:href="#DejaVuSans-117"/>
      <use x="664.880859" xlink:href="#DejaVuSans-110"/>
      <use x="728.259766" xlink:href="#DejaVuSans-99"/>
      <use x="783.240234" xlink:href="#DejaVuSans-116"/>
      <use x="822.449219" xlink:href="#DejaVuSans-105"/>
      <use x="850.232422" xlink:href="#DejaVuSans-111"/>
      <use x="911.414062" xlink:href="#DejaVuSans-110"/>
      <use x="974.792969" xlink:href="#DejaVuSans-44"/>
      <use x="1006.580078" xlink:href="#DejaVuSans-116"/>
      <use x="1045.789062" xlink:href="#DejaVuSans-97"/>
      <use x="1107.068359" xlink:href="#DejaVuSans-114"/>
      <use x="1148.166016" xlink:href="#DejaVuSans-103"/>
      <use x="1211.642578" xlink:href="#DejaVuSans-101"/>
      <use x="1273.166016" xlink:href="#DejaVuSans-116"/>
      <use x="1312.375" xlink:href="#DejaVuSans-32"/>
      <use x="1344.162109" xlink:href="#DejaVuSans-112"/>
      <use x="1407.638672" xlink:href="#DejaVuSans-97"/>
      <use x="1468.917969" xlink:href="#DejaVuSans-105"/>
      <use x="1496.701172" xlink:href="#DejaVuSans-114"/>
      <use x="1537.814453" xlink:href="#DejaVuSans-115"/>
     </g>
    </g>
   </g>
   <g id="line2d_29">
    <defs>
     <path d="M 0 1.5 
C 0.397805 1.5 0.77937 1.341951 1.06066 1.06066 
C 1.341951 0.77937 1.5 0.397805 1.5 0 
C 1.5 -0.397805 1.341951 -0.77937 1.06066 -1.06066 
C 0.77937 -1.341951 0.397805 -1.5 0 -1.5 
C -0.397805 -1.5 -0.77937 -1.341951 -1.06066 -1.06066 
C -1.341951 -0.77937 -1.5 -0.397805 -1.5 0 
C -1.5 0.397805 -1.341951 0.77937 -1.06066 1.06066 
C -0.77937 1.341951 -0.397805 1.5 0 1.5 
z
" id="m983d962ad5" style="stroke:#00bfbf;"/>
    </defs>
    <g>
     <use style="fill:#00bfbf;stroke:#00bfbf;" x="215.090571" xlink:href="#m983d962ad5" y="224.130255"/>
     <use style="fill:#00bfbf;stroke:#00bfbf;" x="215.090571" xlink:href="#m983d962ad5" y="224.130255"/>
    </g>
   </g>
   <g id="line2d_30">
    <path d="M 45.512012 298.944 
L 45.512012 286.132445 
L 57.6 286.132445 
L 57.6 282.499317 
L 64.67102 282.499317 
L 64.67102 280.826167 
L 69.687988 280.826167 
L 69.687988 278.890092 
L 73.579452 278.890092 
L 73.579452 277.527669 
L 76.759008 277.527669 
L 76.759008 276.308659 
L 79.447285 276.308659 
L 79.447285 275.448182 
L 81.775977 275.448182 
L 81.775977 274.492096 
L 83.830028 274.492096 
L 83.830028 273.440401 
L 85.66744 273.440401 
L 85.66744 272.43651 
L 87.329581 272.43651 
L 87.329581 271.504326 
L 88.846997 271.504326 
L 88.846997 271.002381 
L 90.242884 271.002381 
L 90.242884 270.452631 
L 91.535274 270.452631 
L 91.535274 269.424839 
L 92.73846 269.424839 
L 92.73846 268.851187 
L 93.863965 268.851187 
L 93.863965 268.44485 
L 94.921215 268.44485 
L 94.921215 268.038514 
L 95.918017 268.038514 
L 95.918017 267.369253 
L 96.86091 267.369253 
L 96.86091 266.915112 
L 97.755429 266.915112 
L 97.755429 266.437069 
L 98.606294 266.437069 
L 98.606294 265.935124 
L 99.41757 265.935124 
L 99.41757 265.457081 
L 100.192776 265.457081 
L 100.192776 265.170255 
L 100.934985 265.170255 
L 100.934985 264.907331 
L 101.646892 264.907331 
L 101.646892 264.620506 
L 102.330873 264.620506 
L 102.330873 264.238071 
L 102.989037 264.238071 
L 102.989037 264.11856 
L 104.826449 264.022952 
L 104.826449 263.927343 
L 105.398279 263.927343 
L 105.398279 263.712224 
L 105.951954 263.712224 
L 105.951954 263.497104 
L 106.48859 263.497104 
L 106.48859 263.377593 
L 107.009204 263.377593 
L 107.009204 263.210278 
L 107.514726 263.210278 
L 107.514726 263.090768 
L 108.483824 263.042963 
L 108.483824 262.756137 
L 108.948899 262.756137 
L 108.948899 262.541018 
L 109.401893 262.541018 
L 109.401893 262.397605 
L 110.274038 262.373703 
L 110.274038 262.23029 
L 110.694282 262.23029 
L 110.694282 262.110779 
L 111.897469 262.015171 
L 111.897469 261.991268 
L 112.280765 261.991268 
L 112.280765 261.704443 
L 113.382559 261.704443 
L 113.382559 261.537128 
L 114.418861 261.489323 
L 114.418861 260.867867 
L 114.751048 260.867867 
L 114.751048 260.581041 
L 115.077025 260.581041 
L 115.077025 260.174705 
L 115.397021 260.174705 
L 115.397021 260.00739 
L 115.711251 260.00739 
L 115.711251 259.768368 
L 116.019919 259.768368 
L 116.019919 259.601053 
L 116.621333 259.553249 
L 116.621333 259.362031 
L 116.914437 259.362031 
L 116.914437 259.194716 
L 117.202696 259.194716 
L 117.202696 258.907891 
L 117.765302 258.812282 
L 117.765302 258.621065 
L 118.039942 258.621065 
L 118.039942 258.382043 
L 126.168212 258.382043 
L 126.168212 258.143022 
L 126.50685 258.119119 
L 126.50685 258.023511 
L 126.673734 258.023511 
L 126.673734 257.760587 
L 126.839037 257.760587 
L 126.839037 257.545468 
L 127.002787 257.545468 
L 127.002787 257.402055 
L 127.48501 257.35425 
L 127.48501 257.043522 
L 127.954256 256.947914 
L 127.954256 256.852305 
L 133.124876 256.756697 
L 133.124876 256.661088 
L 133.239232 256.661088 
L 133.239232 256.445969 
L 133.46572 256.398164 
L 133.46572 256.278653 
L 133.57787 256.278653 
L 133.57787 256.039632 
L 133.910056 255.944023 
L 134.019394 255.705002 
L 134.12805 255.705002 
L 134.236034 255.370372 
L 134.450015 255.322567 
L 134.450015 255.203056 
L 137.997836 255.203056 
L 138.084384 254.5816 
L 138.426341 254.485992 
L 138.510793 254.270872 
L 138.594838 254.270872 
L 138.67848 253.984047 
L 138.761723 253.984047 
L 138.84457 253.697221 
L 139.090775 253.625514 
L 139.172077 253.482101 
L 139.413734 253.386493 
L 139.493548 253.075765 
L 139.652088 253.004058 
L 139.730821 252.812841 
L 139.887228 252.741135 
L 139.964909 252.597722 
L 140.042245 252.597722 
L 140.042245 252.382602 
L 140.574203 252.286994 
L 140.574203 252.239189 
L 140.871049 252.239189 
L 140.944478 252.047972 
L 141.307054 251.952363 
L 141.307054 251.928461 
L 141.521035 251.904559 
L 141.521035 251.641635 
L 141.80232 251.546027 
L 141.80232 251.47432 
L 141.941279 251.47432 
L 142.010346 251.020179 
L 142.147664 250.924571 
L 142.215919 250.661647 
L 142.486301 250.566038 
L 142.553247 250.398723 
L 142.752555 250.374821 
L 142.752555 250.25531 
L 145.097753 250.25531 
L 145.155404 250.064093 
L 145.270136 250.040191 
L 145.327221 249.777267 
L 145.553708 249.705561 
L 145.609873 249.538246 
L 145.721664 249.466539 
L 145.777292 249.394833 
L 147.818997 249.347029 
L 147.917524 249.203616 
L 148.015498 249.131909 
L 148.015498 249.084105 
L 148.209809 249.036301 
L 148.306159 248.868985 
L 150.085825 248.797279 
L 150.129152 248.629964 
L 150.301393 248.58216 
L 150.38688 248.36704 
L 150.429467 248.36704 
L 150.51433 248.151921 
L 150.766468 248.056312 
L 150.849711 247.769486 
L 150.973835 247.673878 
L 151.056095 247.506563 
L 151.097081 247.506563 
L 151.097081 247.36315 
L 151.581536 247.315345 
L 151.621307 247.195835 
L 151.897188 247.195835 
L 151.897188 247.052422 
L 152.130233 247.02852 
L 152.207228 246.693889 
L 152.245598 246.693889 
L 152.322086 246.239748 
L 152.436193 246.14414 
L 152.474064 246.072433 
L 152.549559 246.072433 
L 152.587184 245.905118 
L 154.063835 245.80951 
L 154.167129 245.379271 
L 154.337936 245.331467 
L 154.337936 245.25976 
L 155.647315 245.211956 
L 155.741666 244.829521 
L 155.990803 244.781717 
L 155.990803 244.71001 
L 157.272146 244.614402 
L 157.358125 244.470989 
L 157.613546 244.37538 
L 157.697862 244.064652 
L 157.809652 243.969044 
L 157.920731 243.801729 
L 158.140788 243.70612 
L 158.140788 243.658316 
L 158.358103 243.658316 
L 158.465753 243.395392 
L 158.51933 243.395392 
L 158.625992 243.03686 
L 158.811096 242.989055 
L 158.83738 242.845642 
L 159.882266 242.773936 
L 159.956318 242.511012 
L 161.030947 242.463208 
L 161.100288 242.176382 
L 162.130378 242.080773 
L 162.238764 241.913458 
L 162.496175 241.841752 
L 162.559939 241.554926 
L 162.644595 241.48322 
L 162.644595 241.387611 
L 163.061823 241.315904 
L 163.123555 241.076883 
L 163.205526 240.981274 
L 163.307451 240.742253 
L 163.408783 240.646644 
L 163.408783 240.551036 
L 164.237502 240.455427 
L 164.333587 240.216405 
L 165.138764 240.144699 
L 165.248216 239.905677 
L 165.338904 239.857873 
L 165.338904 239.786167 
L 166.117256 239.690558 
L 166.220754 239.618851 
L 166.357802 239.523243 
L 166.425924 239.37983 
L 166.7626 239.308123 
L 166.862349 239.093004 
L 166.928532 239.021298 
L 167.010909 238.877885 
L 167.719528 238.806178 
L 167.829655 238.567157 
L 168.46108 238.519352 
L 168.506396 238.399842 
L 169.186895 238.328135 
L 169.27373 238.16082 
L 169.446113 238.089114 
L 169.53167 237.897896 
L 169.855803 237.82619 
L 169.953269 237.49156 
L 170.58055 237.395951 
L 170.634045 237.252538 
L 171.289242 237.180832 
L 171.391826 237.085223 
L 171.93311 237.013517 
L 172.019658 236.726691 
L 172.118046 236.631082 
L 172.167033 236.511571 
L 172.409924 236.487669 
L 172.494143 236.296452 
L 173.084161 236.200843 
L 173.176739 235.93792 
L 173.688525 235.890115 
L 173.777957 235.746702 
L 174.380694 235.651094 
L 174.455933 235.435974 
L 174.66913 235.412072 
L 174.774759 235.149149 
L 175.283289 235.05354 
L 175.364924 234.838421 
L 175.797284 234.766714 
L 175.876553 234.623301 
L 176.296562 234.527692 
L 176.383205 234.432084 
L 176.478973 234.336475 
L 176.478973 234.240867 
L 176.706692 234.145258 
L 176.810078 233.930139 
L 177.226752 233.858432 
L 177.290683 233.738921 
L 177.678338 233.667215 
L 177.678338 233.619411 
L 178.135904 233.571606 
L 178.239812 233.380389 
L 178.291535 233.28478 
L 178.291535 233.236976 
L 178.513913 233.16527 
L 178.607149 232.974052 
L 178.966907 232.878444 
L 179.024776 232.806737 
L 179.744273 232.735031 
L 179.744273 232.61552 
L 179.9098 232.567716 
L 179.933319 232.448205 
L 180.089306 232.400401 
L 180.159048 232.089673 
L 180.518792 232.041868 
L 180.601926 231.659434 
L 181.311118 231.587727 
L 181.38336 231.492119 
L 181.576933 231.468217 
L 181.669373 231.276999 
L 182.006511 231.181391 
L 182.006511 231.157489 
L 182.695307 231.085782 
L 182.795322 230.990174 
L 182.947573 230.894565 
L 182.987073 230.846761 
L 183.332159 230.798956 
L 183.37723 230.655543 
L 183.946572 230.655543 
L 183.983875 230.51213 
L 184.218294 230.440424 
L 184.297772 230.249207 
L 184.879635 230.1775 
L 184.926769 230.034087 
L 185.247406 229.938479 
L 185.356816 229.699457 
L 185.476949 229.603849 
L 185.499738 229.532142 
L 186.004772 229.436533 
L 186.004772 229.412631 
L 186.511716 229.317023 
L 186.58142 229.221414 
L 187.417244 229.125805 
L 187.518961 229.030197 
L 187.850478 228.934588 
L 187.885272 228.862882 
L 188.326548 228.767273 
L 188.408661 228.599958 
L 188.609886 228.504349 
L 188.61941 228.432643 
L 189.268932 228.384839 
L 189.378671 228.169719 
L 189.505833 228.074111 
L 189.528443 228.026306 
L 190.162992 227.978502 
L 190.254263 227.811187 
L 191.013442 227.715578 
L 191.112764 227.548263 
L 191.435761 227.476557 
L 191.468138 227.40485 
L 192.021307 227.333144 
L 192.056526 227.237535 
L 192.821362 227.141927 
L 192.821362 227.094122 
L 193.341096 226.998514 
L 193.428039 226.879003 
L 193.521741 226.831199 
L 193.546882 226.711688 
L 194.073618 226.616079 
L 194.136187 226.520471 
L 194.736424 226.424862 
L 194.736424 226.40096 
L 194.903245 226.305351 
L 194.903245 226.281449 
L 195.53581 226.18584 
L 195.583777 226.114134 
L 196.164774 226.042427 
L 196.217205 225.946819 
L 196.658113 225.85121 
L 196.733018 225.803406 
L 197.850486 225.707797 
L 197.870105 225.612189 
L 198.23049 225.51658 
L 198.23049 225.492678 
L 198.770784 225.397069 
L 198.770784 225.373167 
L 199.461823 225.277559 
L 199.461823 225.253656 
L 200.467713 225.158048 
L 200.484598 225.110243 
L 201.014146 225.014635 
L 201.025836 224.966831 
L 201.587033 224.895124 
L 201.591559 224.823418 
L 202.898974 224.727809 
L 202.898974 224.703907 
L 204.007151 224.608298 
L 204.015029 224.560494 
L 205.967261 224.464885 
L 205.967261 224.440983 
L 207.549992 224.345374 
L 207.549992 224.321472 
L 212.758451 224.225864 
L 212.760836 224.178059 
L 338.688 224.130255 
L 338.688 224.130255 
" style="fill:none;stroke:#00bfbf;stroke-linecap:square;stroke-width:1.5;"/>
   </g>
   <g id="line2d_31">
    <defs>
     <path d="M -6 0 
L 6 0 
M 0 6 
L 0 -6 
" id="m5b9f2ec8a8" style="stroke:#00bfbf;stroke-width:1.5;"/>
    </defs>
    <g>
     <use style="fill-opacity:0;stroke:#00bfbf;stroke-width:1.5;" x="81.775977" xlink:href="#m5b9f2ec8a8" y="274.492096"/>
     <use style="fill-opacity:0;stroke:#00bfbf;stroke-width:1.5;" x="140.574203" xlink:href="#m5b9f2ec8a8" y="252.239189"/>
     <use style="fill-opacity:0;stroke:#00bfbf;stroke-width:1.5;" x="184.255021" xlink:href="#m5b9f2ec8a8" y="230.368718"/>
     <use style="fill-opacity:0;stroke:#00bfbf;stroke-width:1.5;" x="215.090571" xlink:href="#m5b9f2ec8a8" y="224.130255"/>
     <use style="fill-opacity:0;stroke:#00bfbf;stroke-width:1.5;" x="215.090571" xlink:href="#m5b9f2ec8a8" y="224.130255"/>
     <use style="fill-opacity:0;stroke:#00bfbf;stroke-width:1.5;" x="338.688" xlink:href="#m5b9f2ec8a8" y="224.130255"/>
    </g>
   </g>
   <g id="line2d_32">
    <path style="fill:none;stroke:#00bfbf;stroke-linecap:square;stroke-width:1.5;"/>
    <g/>
   </g>
   <g id="line2d_33">
    <path clip-path="url(#p5810c145e9)" d="M 137.910857 255.203056 
" style="fill:none;stroke:#00bfbf;stroke-linecap:square;stroke-width:1.5;"/>
    <defs>
     <path d="M -12 12 
L 12 -12 
M -12 -12 
L 12 12 
" id="me75b43c62a" style="stroke:#00bfbf;"/>
    </defs>
    <g clip-path="url(#p5810c145e9)">
     <use style="fill:#00bfbf;stroke:#00bfbf;" x="137.910857" xlink:href="#me75b43c62a" y="255.203056"/>
    </g>
   </g>
   <g id="line2d_34">
    <defs>
     <path d="M 0 1.5 
C 0.397805 1.5 0.77937 1.341951 1.06066 1.06066 
C 1.341951 0.77937 1.5 0.397805 1.5 0 
C 1.5 -0.397805 1.341951 -0.77937 1.06066 -1.06066 
C 0.77937 -1.341951 0.397805 -1.5 0 -1.5 
C -0.397805 -1.5 -0.77937 -1.341951 -1.06066 -1.06066 
C -1.341951 -0.77937 -1.5 -0.397805 -1.5 0 
C -1.5 0.397805 -1.341951 0.77937 -1.06066 1.06066 
C -0.77937 1.341951 -0.397805 1.5 0 1.5 
z
" id="mc83bf52360" style="stroke:#008000;"/>
    </defs>
    <g>
     <use style="fill:#008000;stroke:#008000;" x="216.579559" xlink:href="#mc83bf52360" y="251.378712"/>
     <use style="fill:#008000;stroke:#008000;" x="216.579559" xlink:href="#mc83bf52360" y="251.378712"/>
    </g>
   </g>
   <g id="line2d_35">
    <path d="M 38.440992 298.944 
L 38.440992 289.359236 
L 50.52898 289.359236 
L 50.52898 287.662183 
L 57.6 287.662183 
L 57.6 286.347564 
L 62.616969 286.347564 
L 62.616969 284.387588 
L 66.508432 284.387588 
L 66.508432 283.670523 
L 69.687988 283.670523 
L 69.687988 282.64273 
L 72.376266 282.64273 
L 72.376266 282.260296 
L 74.704957 282.260296 
L 74.704957 281.710546 
L 76.759008 281.710546 
L 76.759008 281.42372 
L 78.59642 281.42372 
L 78.59642 281.160797 
L 80.258561 281.160797 
L 80.258561 280.443732 
L 81.775977 280.443732 
L 81.775977 280.156906 
L 83.171864 280.156906 
L 83.171864 279.846178 
L 84.464254 279.846178 
L 84.464254 279.631059 
L 85.66744 279.631059 
L 85.66744 279.20082 
L 86.792945 279.20082 
L 86.792945 279.009603 
L 87.850195 279.009603 
L 87.850195 278.459853 
L 89.78989 278.412049 
L 89.78989 278.101321 
L 90.684409 278.101321 
L 90.684409 277.718886 
L 92.34655 277.671082 
L 92.34655 277.432061 
L 93.863965 277.432061 
L 93.863965 277.264745 
L 94.575872 277.264745 
L 94.575872 277.145235 
L 96.552242 277.049626 
L 96.552242 276.954017 
L 98.32726 276.858409 
L 98.32726 276.834507 
L 98.880934 276.834507 
L 98.880934 276.571583 
L 100.443706 276.499877 
L 100.443706 276.165246 
L 100.934985 276.165246 
L 100.934985 276.045736 
L 101.412804 276.045736 
L 101.412804 275.926225 
L 102.772397 275.830616 
L 102.772397 275.806714 
L 103.203018 275.806714 
L 103.203018 275.663301 
L 103.623262 275.663301 
L 103.623262 275.495986 
L 104.033617 275.495986 
L 104.033617 275.376475 
L 105.951954 275.280867 
L 105.951954 275.185258 
L 106.66386 275.161356 
L 106.66386 275.041845 
L 107.347841 275.041845 
L 107.347841 274.850628 
L 107.680028 274.850628 
L 107.680028 274.659411 
L 108.326001 274.587704 
L 108.326001 274.420389 
L 108.640231 274.420389 
L 108.640231 274.300878 
L 109.252198 274.276976 
L 109.252198 274.181368 
L 109.550313 274.181368 
L 109.550313 274.014052 
L 110.131676 273.942346 
L 110.131676 273.775031 
L 110.968922 273.679422 
L 110.968922 273.65552 
L 119.267333 273.583814 
L 119.267333 273.536009 
L 119.602714 273.488205 
L 119.602714 273.392596 
L 119.768017 273.392596 
L 119.768017 273.225281 
L 120.254726 273.177477 
L 120.254726 273.081868 
L 120.571812 272.98626 
L 120.571812 272.890651 
L 126.053856 272.795043 
L 126.053856 272.723336 
L 126.281824 272.699434 
L 126.281824 272.460412 
L 126.618283 272.412608 
L 126.729009 272.197489 
L 127.05703 272.125782 
L 127.165014 272.054076 
L 131.099484 271.958467 
L 131.185181 271.719446 
L 131.270459 271.719446 
L 131.355321 271.480424 
L 131.60746 271.408718 
L 131.690703 271.2175 
L 131.938072 271.193598 
L 132.019755 271.026283 
L 135.076644 270.954577 
L 135.144899 270.763359 
L 135.615352 270.739457 
L 135.615352 270.572142 
L 137.968891 270.572142 
L 138.026733 270.285316 
L 138.084384 270.285316 
L 138.141844 269.807273 
L 138.199116 269.807273 
L 138.256201 269.353132 
L 138.369812 269.281426 
L 138.426341 269.138013 
L 138.538853 269.066306 
L 138.594838 268.922893 
L 138.706272 268.851187 
L 138.816998 268.612165 
L 138.872098 268.612165 
L 138.981779 268.253633 
L 139.036363 268.253633 
L 139.145019 268.086318 
L 139.413734 267.990709 
L 139.520072 267.919003 
L 139.835248 267.823394 
L 139.939053 267.417058 
L 140.195896 267.369253 
L 140.297583 267.178036 
L 140.698504 267.154134 
L 140.747977 266.986819 
L 140.89556 266.939015 
L 140.993259 266.843406 
L 141.090414 266.747797 
L 141.187031 266.55658 
L 143.187472 266.484874 
L 143.187472 266.437069 
L 143.44331 266.341461 
L 143.527762 266.269754 
L 145.136208 266.245852 
L 145.212864 265.935124 
L 145.516164 265.839515 
L 145.516164 265.815613 
L 147.096109 265.720005 
L 147.096109 265.6722 
L 148.79566 265.576592 
L 148.888835 265.409277 
L 150.027887 265.409277 
L 150.114722 265.050744 
L 150.172372 265.00294 
L 150.229833 264.787821 
L 150.401087 264.692212 
L 150.486088 264.548799 
L 150.570677 264.45319 
L 150.570677 264.33368 
L 151.015013 264.261973 
L 151.042412 264.166365 
L 151.205907 264.142462 
L 151.233007 263.975147 
L 151.713753 263.879539 
L 151.713753 263.831734 
L 152.909913 263.736126 
L 153.008024 263.664419 
L 155.081089 263.568811 
L 155.189341 263.353691 
L 156.277034 263.281985 
L 156.337763 263.162474 
L 157.147202 263.090768 
L 157.243392 262.827844 
L 157.396202 262.756137 
L 157.453162 262.56492 
L 157.67916 262.469312 
L 157.772468 262.23029 
L 157.883783 262.206388 
L 157.976006 262.039073 
L 158.231665 261.943464 
L 158.231665 261.919562 
L 159.080804 261.823953 
L 159.115303 261.752247 
L 160.632719 261.68054 
L 160.727241 261.489323 
L 162.101361 261.393715 
L 162.188268 261.106889 
L 162.332157 261.035182 
L 162.375093 260.867867 
L 162.700806 260.772259 
L 162.71483 260.724454 
L 163.50953 260.628846 
L 163.603039 260.533237 
L 164.812441 260.437628 
L 164.824867 260.365922 
L 166.013141 260.294215 
L 166.105719 260.00739 
L 166.174831 259.983487 
L 166.255117 259.744466 
L 166.380539 259.720564 
L 166.48249 259.45764 
L 167.169078 259.362031 
L 167.201624 259.12301 
L 168.78575 259.051303 
L 168.795644 258.979597 
L 169.264103 258.883988 
L 169.350555 258.716673 
L 169.503198 258.621065 
L 169.550626 258.57326 
L 170.155732 258.477652 
L 170.164879 258.334239 
L 171.030109 258.23863 
L 171.108254 258.143022 
L 171.871027 258.047413 
L 171.937241 257.975706 
L 172.011434 257.904 
L 172.109868 257.808391 
L 172.329335 257.712783 
L 172.329335 257.688881 
L 173.462916 257.617174 
L 173.523365 257.473761 
L 174.297915 257.402055 
L 174.40581 257.330348 
L 174.598353 257.23474 
L 174.598353 257.210838 
L 175.597519 257.139131 
L 175.651014 257.01962 
L 176.254691 256.971816 
L 176.357578 256.756697 
L 176.466234 256.661088 
L 176.504422 256.589381 
L 177.196227 256.493773 
L 177.196227 256.469871 
L 178.101129 256.374262 
L 178.182162 256.230849 
L 178.268566 256.206947 
L 178.314474 256.01573 
L 179.213577 255.967925 
L 179.224459 255.872317 
L 179.75483 255.776708 
L 179.828547 255.609393 
L 180.279789 255.513785 
L 180.295143 255.442078 
L 181.065678 255.346469 
L 181.065678 255.298665 
L 181.751918 255.203056 
L 181.751918 255.179154 
L 182.659607 255.107448 
L 182.717582 255.035741 
L 182.797538 255.011839 
L 182.877129 254.844524 
L 184.004565 254.748916 
L 184.111757 254.509894 
L 184.761242 254.414285 
L 184.76916 254.294775 
L 185.203063 254.199166 
L 185.276265 254.031851 
L 186.988663 253.936242 
L 186.995632 253.864536 
L 187.688856 253.768927 
L 187.688856 253.745025 
L 188.42953 253.697221 
L 188.432739 253.57771 
L 189.136944 253.482101 
L 189.136944 253.434297 
L 189.393858 253.338688 
L 189.393858 253.314786 
L 190.27881 253.24308 
L 190.27881 253.195275 
L 191.016209 253.123569 
L 191.016209 253.075765 
L 191.900765 252.980156 
L 191.908652 252.932352 
L 193.4184 252.836743 
L 193.4184 252.812841 
L 194.126931 252.741135 
L 194.126931 252.69333 
L 195.17996 252.597722 
L 195.17996 252.573819 
L 196.094621 252.478211 
L 196.094621 252.382602 
L 196.84527 252.286994 
L 196.85121 252.215287 
L 197.862634 252.143581 
L 197.864502 252.071874 
L 198.94898 251.976266 
L 198.950736 251.904559 
L 200.912495 251.80895 
L 200.912495 251.785048 
L 203.116641 251.68944 
L 203.116641 251.665538 
L 205.906707 251.569929 
L 205.906707 251.546027 
L 209.888864 251.450418 
L 209.888864 251.426516 
L 338.688 251.378712 
L 338.688 251.378712 
" style="fill:none;stroke:#008000;stroke-linecap:square;stroke-width:1.5;"/>
   </g>
   <g id="line2d_36">
    <defs>
     <path d="M -0 6 
L 6 -6 
L -6 -6 
z
" id="m755f5e10fe" style="stroke:#008000;stroke-linejoin:miter;stroke-width:1.5;"/>
    </defs>
    <g>
     <use style="fill-opacity:0;stroke:#008000;stroke-linejoin:miter;stroke-width:1.5;" x="121.036887" xlink:href="#m755f5e10fe" y="272.795043"/>
     <use style="fill-opacity:0;stroke:#008000;stroke-linejoin:miter;stroke-width:1.5;" x="203.552083" xlink:href="#m755f5e10fe" y="251.641635"/>
     <use style="fill-opacity:0;stroke:#008000;stroke-linejoin:miter;stroke-width:1.5;" x="216.579559" xlink:href="#m755f5e10fe" y="251.402614"/>
     <use style="fill-opacity:0;stroke:#008000;stroke-linejoin:miter;stroke-width:1.5;" x="216.579559" xlink:href="#m755f5e10fe" y="251.378712"/>
     <use style="fill-opacity:0;stroke:#008000;stroke-linejoin:miter;stroke-width:1.5;" x="338.688" xlink:href="#m755f5e10fe" y="251.378712"/>
    </g>
   </g>
   <g id="line2d_37">
    <path style="fill:none;stroke:#008000;stroke-linecap:square;stroke-width:1.5;"/>
    <g/>
   </g>
   <g id="line2d_38">
    <path clip-path="url(#p5810c145e9)" d="M 137.910857 270.572142 
" style="fill:none;stroke:#008000;stroke-linecap:square;stroke-width:1.5;"/>
    <defs>
     <path d="M -12 12 
L 12 -12 
M -12 -12 
L 12 12 
" id="meff0980fb6" style="stroke:#008000;"/>
    </defs>
    <g clip-path="url(#p5810c145e9)">
     <use style="fill:#008000;stroke:#008000;" x="137.910857" xlink:href="#meff0980fb6" y="270.572142"/>
    </g>
   </g>
   <g id="line2d_39">
    <defs>
     <path d="M 0 1.5 
C 0.397805 1.5 0.77937 1.341951 1.06066 1.06066 
C 1.341951 0.77937 1.5 0.397805 1.5 0 
C 1.5 -0.397805 1.341951 -0.77937 1.06066 -1.06066 
C 0.77937 -1.341951 0.397805 -1.5 0 -1.5 
C -0.397805 -1.5 -0.77937 -1.341951 -1.06066 -1.06066 
C -1.341951 -0.77937 -1.5 -0.397805 -1.5 0 
C -1.5 0.397805 -1.341951 0.77937 -1.06066 1.06066 
C -0.77937 1.341951 -0.397805 1.5 0 1.5 
z
" id="mdd879afdbb" style="stroke:#0000ff;"/>
    </defs>
    <g>
     <use style="fill:#0000ff;stroke:#0000ff;" x="230.970024" xlink:href="#mdd879afdbb" y="268.588263"/>
     <use style="fill:#0000ff;stroke:#0000ff;" x="230.970024" xlink:href="#mdd879afdbb" y="268.588263"/>
    </g>
   </g>
   <g id="line2d_40">
    <path d="M 29.53256 298.944 
L 29.53256 292.39481 
L 41.620548 292.39481 
L 41.620548 291.199702 
L 48.691568 291.199702 
L 48.691568 290.721659 
L 53.708537 290.721659 
L 53.708537 289.885083 
L 57.6 289.885083 
L 57.6 289.550453 
L 60.779557 289.550453 
L 60.779557 288.857291 
L 63.467834 288.857291 
L 63.467834 288.474856 
L 65.796525 288.474856 
L 65.796525 288.092422 
L 67.850577 288.092422 
L 67.850577 287.901204 
L 69.687988 287.901204 
L 69.687988 287.686085 
L 71.35013 287.686085 
L 71.35013 287.542672 
L 74.263433 287.494868 
L 74.263433 287.231944 
L 75.555822 287.231944 
L 75.555822 287.064629 
L 76.759008 287.064629 
L 76.759008 286.921216 
L 78.941764 286.84951 
L 78.941764 286.729999 
L 80.881459 286.658292 
L 80.881459 286.490977 
L 81.775977 286.490977 
L 81.775977 286.323662 
L 83.438118 286.228054 
L 83.438118 286.108543 
L 84.955534 286.108543 
L 84.955534 285.941228 
L 85.66744 285.941228 
L 85.66744 285.797815 
L 87.643811 285.726108 
L 87.643811 285.678304 
L 88.846997 285.582695 
L 88.846997 285.510989 
L 89.972502 285.463185 
L 89.972502 285.29587 
L 91.535274 285.248065 
L 91.535274 285.08075 
L 94.294587 284.985142 
L 94.294587 284.937337 
L 95.526106 284.841729 
L 95.526106 284.817826 
L 96.301313 284.770022 
L 96.301313 284.626609 
L 97.403108 284.554903 
L 97.403108 284.459294 
L 98.43941 284.459294 
L 98.43941 284.244175 
L 99.41757 284.172468 
L 99.41757 284.100762 
L 100.040467 284.005153 
L 100.040467 283.957349 
L 100.641881 283.909545 
L 100.641881 283.837838 
L 101.506816 283.766132 
L 101.506816 283.670523 
L 110.358901 283.598817 
L 110.358901 283.551012 
L 111.023335 283.455404 
L 111.023335 283.431501 
L 111.663381 283.335893 
L 111.663381 283.288089 
L 112.128456 283.19248 
L 112.128456 283.072969 
L 117.709852 283.025165 
L 117.820578 282.881752 
L 122.104932 282.786143 
L 122.191052 282.666632 
L 122.531342 282.618828 
L 122.615387 282.499317 
L 122.865118 282.403709 
L 122.947573 282.260296 
L 126.099688 282.188589 
L 126.168212 282.021274 
L 126.50685 281.925666 
L 126.50685 281.877861 
L 129.233413 281.830057 
L 129.290685 281.686644 
L 129.574256 281.614938 
L 129.630422 281.495427 
L 131.888878 281.399818 
L 131.987128 281.256405 
L 132.133473 281.160797 
L 132.230358 281.041286 
L 134.407429 280.945677 
L 134.450015 280.897873 
L 136.342635 280.802264 
L 136.342635 280.75446 
L 137.945701 280.75446 
L 138.049816 280.372026 
L 138.118883 280.372026 
L 138.221972 279.917885 
L 138.392446 279.822276 
L 138.493936 279.75057 
L 138.728473 279.654961 
L 138.761723 279.53545 
L 139.090775 279.439842 
L 139.090775 279.368135 
L 139.445704 279.320331 
L 139.541262 279.20082 
L 139.636299 279.176918 
L 139.667863 279.057407 
L 139.856059 278.961798 
L 139.9494 278.842288 
L 141.435758 278.770581 
L 141.492656 278.555462 
L 142.673105 278.507658 
L 142.778958 278.31644 
L 143.952218 278.220832 
L 144.050606 278.125223 
L 144.099593 278.077419 
L 144.099593 278.005712 
L 145.258697 277.910104 
L 145.258697 277.886202 
L 146.237689 277.790593 
L 146.345539 277.527669 
L 147.348313 277.455963 
L 147.348313 277.408158 
L 150.016276 277.336452 
L 150.120495 277.049626 
L 150.241302 276.954017 
L 150.241302 276.930115 
L 150.632448 276.834507 
L 150.632448 276.786702 
L 150.998554 276.691094 
L 151.015013 276.571583 
L 151.881541 276.499877 
L 151.881541 276.356464 
L 153.279836 276.284757 
L 153.337534 276.069638 
L 153.946025 276.069638 
L 153.946025 275.950127 
L 154.68128 275.854518 
L 154.761093 275.639399 
L 155.34833 275.591595 
L 155.34833 275.519888 
L 157.081488 275.448182 
L 157.174189 275.233062 
L 157.289376 275.137454 
L 157.380981 275.041845 
L 157.596634 274.946236 
L 157.596634 274.898432 
L 158.774233 274.802824 
L 158.805835 274.731117 
L 159.3651 274.659411 
L 159.3651 274.611606 
L 160.288133 274.515998 
L 160.355672 274.300878 
L 161.681046 274.20527 
L 161.725614 274.157465 
L 162.147765 274.085759 
L 162.182487 273.966248 
L 162.534461 273.894542 
L 162.568423 273.798933 
L 164.554485 273.703324 
L 164.607388 273.631618 
L 165.367825 273.536009 
L 165.367825 273.464303 
L 166.020101 273.368694 
L 166.08262 273.273086 
L 166.749257 273.177477 
L 166.749257 273.153575 
L 167.665786 273.081868 
L 167.684773 272.98626 
L 168.306117 272.890651 
L 168.31222 272.842847 
L 169.360135 272.747238 
L 169.423227 272.699434 
L 170.04743 272.603825 
L 170.075029 272.556021 
L 170.878029 272.460412 
L 170.878029 272.43651 
L 171.63055 272.340902 
L 171.63055 272.316999 
L 172.122951 272.221391 
L 172.152351 272.173586 
L 172.635197 272.077978 
L 172.635197 272.054076 
L 173.307818 271.958467 
L 173.307818 271.934565 
L 173.548992 271.862858 
L 173.571573 271.76725 
L 174.400072 271.671641 
L 174.400072 271.647739 
L 175.240277 271.576033 
L 175.248478 271.480424 
L 176.240496 271.384815 
L 176.240496 271.360913 
L 177.035393 271.265305 
L 177.035393 271.241402 
L 177.394299 271.145794 
L 177.394299 271.121892 
L 178.090684 271.026283 
L 178.160204 270.978479 
L 179.272262 270.88287 
L 179.29178 270.787262 
L 180.083094 270.691653 
L 180.0862 270.643849 
L 180.846003 270.572142 
L 180.846003 270.524338 
L 182.409455 270.428729 
L 182.409455 270.357023 
L 183.579257 270.261414 
L 183.579257 270.237512 
L 185.146604 270.141903 
L 185.153575 270.094099 
L 186.278064 269.99849 
L 186.278064 269.974588 
L 187.530114 269.87898 
L 187.639236 269.831175 
L 189.101166 269.735567 
L 189.101166 269.711665 
L 190.350233 269.616056 
L 190.351957 269.568252 
L 193.123294 269.472643 
L 193.123294 269.448741 
L 195.204781 269.353132 
L 195.204781 269.32923 
L 196.769455 269.233621 
L 196.769455 269.209719 
L 198.736702 269.114111 
L 198.736702 269.090209 
L 199.772491 268.9946 
L 199.772491 268.970698 
L 202.548238 268.875089 
L 202.548238 268.851187 
L 206.556859 268.755578 
L 206.556859 268.731676 
L 211.251723 268.636068 
L 211.251723 268.612165 
L 338.688 268.588263 
L 338.688 268.588263 
" style="fill:none;stroke:#0000ff;stroke-linecap:square;stroke-width:1.5;"/>
   </g>
   <g id="line2d_41">
    <defs>
     <path d="M 0 -6 
L -1.347084 -1.854102 
L -5.706339 -1.854102 
L -2.179628 0.708204 
L -3.526712 4.854102 
L -0 2.291796 
L 3.526712 4.854102 
L 2.179628 0.708204 
L 5.706339 -1.854102 
L 1.347084 -1.854102 
z
" id="maf03787d66" style="stroke:#0000ff;stroke-linejoin:bevel;stroke-width:1.5;"/>
    </defs>
    <g>
     <use style="fill-opacity:0;stroke:#0000ff;stroke-linejoin:bevel;stroke-width:1.5;" x="118.256582" xlink:href="#maf03787d66" y="282.833948"/>
     <use style="fill-opacity:0;stroke:#0000ff;stroke-linejoin:bevel;stroke-width:1.5;" x="180.391053" xlink:href="#maf03787d66" y="270.619946"/>
     <use style="fill-opacity:0;stroke:#0000ff;stroke-linejoin:bevel;stroke-width:1.5;" x="230.970024" xlink:href="#maf03787d66" y="268.612165"/>
     <use style="fill-opacity:0;stroke:#0000ff;stroke-linejoin:bevel;stroke-width:1.5;" x="230.970024" xlink:href="#maf03787d66" y="268.588263"/>
     <use style="fill-opacity:0;stroke:#0000ff;stroke-linejoin:bevel;stroke-width:1.5;" x="230.970024" xlink:href="#maf03787d66" y="268.588263"/>
     <use style="fill-opacity:0;stroke:#0000ff;stroke-linejoin:bevel;stroke-width:1.5;" x="338.688" xlink:href="#maf03787d66" y="268.588263"/>
    </g>
   </g>
   <g id="line2d_42">
    <path style="fill:none;stroke:#0000ff;stroke-linecap:square;stroke-width:1.5;"/>
    <g/>
   </g>
   <g id="line2d_43">
    <path clip-path="url(#p5810c145e9)" d="M 137.910857 280.75446 
" style="fill:none;stroke:#0000ff;stroke-linecap:square;stroke-width:1.5;"/>
    <defs>
     <path d="M -12 12 
L 12 -12 
M -12 -12 
L 12 12 
" id="mc416a7bcd2" style="stroke:#0000ff;"/>
    </defs>
    <g clip-path="url(#p5810c145e9)">
     <use style="fill:#0000ff;stroke:#0000ff;" x="137.910857" xlink:href="#mc416a7bcd2" y="280.75446"/>
    </g>
   </g>
   <g id="line2d_44">
    <defs>
     <path d="M 0 1.5 
C 0.397805 1.5 0.77937 1.341951 1.06066 1.06066 
C 1.341951 0.77937 1.5 0.397805 1.5 0 
C 1.5 -0.397805 1.341951 -0.77937 1.06066 -1.06066 
C 0.77937 -1.341951 0.397805 -1.5 0 -1.5 
C -0.397805 -1.5 -0.77937 -1.341951 -1.06066 -1.06066 
C -1.341951 -0.77937 -1.5 -0.397805 -1.5 0 
C -1.5 0.397805 -1.341951 0.77937 -1.06066 1.06066 
C -0.77937 1.341951 -0.397805 1.5 0 1.5 
z
" id="m6db2ebdfd5" style="stroke:#000000;"/>
    </defs>
    <g>
     <use style="stroke:#000000;" x="218.232872" xlink:href="#m6db2ebdfd5" y="283.407599"/>
     <use style="stroke:#000000;" x="218.232872" xlink:href="#m6db2ebdfd5" y="283.407599"/>
    </g>
   </g>
   <g id="line2d_45">
    <path d="M 17.444571 298.944 
L 17.444571 294.665514 
L 29.53256 294.665514 
L 29.53256 293.828939 
L 36.60358 293.828939 
L 36.60358 293.494309 
L 41.620548 293.494309 
L 41.620548 293.087972 
L 45.512012 293.087972 
L 45.512012 292.896755 
L 48.691568 292.896755 
L 48.691568 292.657733 
L 51.379845 292.657733 
L 51.379845 292.51432 
L 53.708537 292.51432 
L 53.708537 292.251397 
L 55.762588 292.251397 
L 55.762588 292.131886 
L 59.262141 292.060179 
L 59.262141 292.012375 
L 63.467834 291.940669 
L 63.467834 291.84506 
L 65.796525 291.773354 
L 65.796525 291.653843 
L 70.538854 291.582136 
L 70.538854 291.51043 
L 74.263433 291.438723 
L 74.263433 291.367017 
L 77.884514 291.271408 
L 77.884514 291.199702 
L 82.626842 291.127995 
L 82.626842 291.032387 
L 84.955534 290.936778 
L 84.955534 290.888974 
L 87.329581 290.793365 
L 87.329581 290.769463 
L 88.553893 290.673854 
L 88.553893 290.649952 
L 99.097574 290.554344 
L 99.097574 290.530441 
L 105.171792 290.434833 
L 105.171792 290.387029 
L 110.274038 290.29142 
L 110.274038 290.243616 
L 114.685115 290.148007 
L 114.685115 290.124105 
L 122.018385 290.028496 
L 122.061712 289.932888 
L 122.531342 289.837279 
L 122.531342 289.813377 
L 126.168212 289.74167 
L 126.236468 289.646062 
L 129.290685 289.550453 
L 129.290685 289.502649 
L 133.147807 289.40704 
L 133.216421 289.335334 
L 137.928288 289.239725 
L 138.032507 289.024606 
L 138.358484 288.928997 
L 138.460171 288.857291 
L 138.828032 288.785584 
L 138.910565 288.689976 
L 141.871938 288.594367 
L 141.913576 288.52266 
L 145.621085 288.427052 
L 145.710517 288.355345 
L 148.258051 288.259737 
L 148.258051 288.235835 
L 150.016276 288.140226 
L 150.094499 287.949009 
L 150.932558 287.8534 
L 150.932558 287.805596 
L 153.192929 287.757791 
L 153.192929 287.638281 
L 157.075678 287.566574 
L 157.156845 287.423161 
L 159.262876 287.327553 
L 159.324282 287.208042 
L 160.292966 287.112433 
L 160.292966 287.088531 
L 162.10862 286.992923 
L 162.117326 286.897314 
L 163.7569 286.801705 
L 163.804376 286.729999 
L 166.016622 286.63439 
L 166.051389 286.586586 
L 167.3269 286.514879 
L 167.365597 286.347564 
L 169.178188 286.251956 
L 169.178188 286.228054 
L 170.288808 286.180249 
L 170.288808 286.084641 
L 170.84376 286.012934 
L 170.84376 285.96513 
L 172.470121 285.869521 
L 172.470121 285.845619 
L 172.848191 285.75001 
L 172.937347 285.678304 
L 175.02984 285.606598 
L 175.133313 285.487087 
L 176.539989 285.391478 
L 176.539989 285.367576 
L 177.013177 285.271967 
L 177.013177 285.248065 
L 178.346538 285.200261 
L 178.346538 285.128554 
L 179.820138 285.032946 
L 179.820138 285.009044 
L 180.354384 284.985142 
L 180.430691 284.865631 
L 182.106394 284.770022 
L 182.106394 284.74612 
L 184.01366 284.650511 
L 184.01366 284.626609 
L 185.598525 284.531001 
L 185.598525 284.507098 
L 188.702054 284.41149 
L 188.702054 284.339783 
L 189.624885 284.291979 
L 189.624885 284.19637 
L 192.893797 284.148566 
L 192.893797 284.029055 
L 194.997293 283.933447 
L 194.997293 283.909545 
L 198.568516 283.813936 
L 198.679572 283.766132 
L 201.737126 283.670523 
L 201.737126 283.622719 
L 203.52942 283.52711 
L 203.52942 283.503208 
L 338.688 283.407599 
L 338.688 283.407599 
" style="fill:none;stroke:#000000;stroke-linecap:square;stroke-width:1.5;"/>
   </g>
   <g id="line2d_46">
    <defs>
     <path d="M 0 6 
C 1.591219 6 3.117479 5.367802 4.242641 4.242641 
C 5.367802 3.117479 6 1.591219 6 0 
C 6 -1.591219 5.367802 -3.117479 4.242641 -4.242641 
C 3.117479 -5.367802 1.591219 -6 0 -6 
C -1.591219 -6 -3.117479 -5.367802 -4.242641 -4.242641 
C -5.367802 -3.117479 -6 -1.591219 -6 0 
C -6 1.591219 -5.367802 3.117479 -4.242641 4.242641 
C -3.117479 5.367802 -1.591219 6 0 6 
z
" id="m943874cee7" style="stroke:#000000;stroke-width:1.5;"/>
    </defs>
    <g>
     <use style="fill-opacity:0;stroke:#000000;stroke-width:1.5;" x="126.236468" xlink:href="#m943874cee7" y="289.646062"/>
     <use style="fill-opacity:0;stroke:#000000;stroke-width:1.5;" x="192.893797" xlink:href="#m943874cee7" y="284.029055"/>
     <use style="fill-opacity:0;stroke:#000000;stroke-width:1.5;" x="218.232872" xlink:href="#m943874cee7" y="283.431501"/>
     <use style="fill-opacity:0;stroke:#000000;stroke-width:1.5;" x="218.232872" xlink:href="#m943874cee7" y="283.407599"/>
     <use style="fill-opacity:0;stroke:#000000;stroke-width:1.5;" x="218.232872" xlink:href="#m943874cee7" y="283.407599"/>
     <use style="fill-opacity:0;stroke:#000000;stroke-width:1.5;" x="338.688" xlink:href="#m943874cee7" y="283.407599"/>
    </g>
   </g>
   <g id="line2d_47">
    <path style="fill:none;stroke:#000000;stroke-linecap:square;stroke-width:1.5;"/>
    <g/>
   </g>
   <g id="line2d_48">
    <path clip-path="url(#p5810c145e9)" d="M 137.910857 289.239725 
" style="fill:none;stroke:#000000;stroke-linecap:square;stroke-width:1.5;"/>
    <defs>
     <path d="M -12 12 
L 12 -12 
M -12 -12 
L 12 12 
" id="m34957a68ad" style="stroke:#000000;"/>
    </defs>
    <g clip-path="url(#p5810c145e9)">
     <use style="stroke:#000000;" x="137.910857" xlink:href="#m34957a68ad" y="289.239725"/>
    </g>
   </g>
   <g id="line2d_49">
    <defs>
     <path d="M 0 1.5 
C 0.397805 1.5 0.77937 1.341951 1.06066 1.06066 
C 1.341951 0.77937 1.5 0.397805 1.5 0 
C 1.5 -0.397805 1.341951 -0.77937 1.06066 -1.06066 
C 0.77937 -1.341951 0.397805 -1.5 0 -1.5 
C -0.397805 -1.5 -0.77937 -1.341951 -1.06066 -1.06066 
C -1.341951 -0.77937 -1.5 -0.397805 -1.5 0 
C -1.5 0.397805 -1.341951 0.77937 -1.06066 1.06066 
C -0.77937 1.341951 -0.397805 1.5 0 1.5 
z
" id="m10f094bcd0" style="stroke:#ff0000;"/>
    </defs>
    <g>
     <use style="fill:#ff0000;stroke:#ff0000;" x="211.872029" xlink:href="#m10f094bcd0" y="290.100203"/>
     <use style="fill:#ff0000;stroke:#ff0000;" x="211.872029" xlink:href="#m10f094bcd0" y="290.100203"/>
    </g>
   </g>
   <g id="line2d_50">
    <path d="M 5.356583 298.944 
L 5.356583 295.310872 
L 17.444571 295.310872 
L 17.444571 294.665514 
L 24.515591 294.665514 
L 24.515591 294.546003 
L 29.53256 294.546003 
L 29.53256 294.330884 
L 36.60358 294.235275 
L 36.60358 294.091863 
L 39.291857 294.091863 
L 39.291857 293.876743 
L 41.620548 293.876743 
L 41.620548 293.73333 
L 43.6746 293.73333 
L 43.6746 293.613819 
L 50.087456 293.518211 
L 50.087456 293.470407 
L 55.762588 293.3987 
L 55.762588 293.350896 
L 64.079801 293.255287 
L 64.079801 293.231385 
L 70.11861 293.135776 
L 70.11861 293.111874 
L 74.921597 293.016266 
L 74.921597 292.968461 
L 86.012784 292.896755 
L 86.012784 292.801146 
L 86.847358 292.705538 
L 86.847358 292.681635 
L 97.928955 292.586027 
L 97.928955 292.562125 
L 101.923711 292.490418 
L 101.923711 292.442614 
L 108.102622 292.347005 
L 108.102622 292.323103 
L 117.202696 292.227494 
L 117.202696 292.203592 
L 124.235556 292.107984 
L 124.235556 292.084082 
L 129.161557 291.988473 
L 129.161557 291.964571 
L 137.971788 291.892864 
L 138.041164 291.821158 
L 138.794909 291.725549 
L 138.794909 291.701647 
L 140.775127 291.606038 
L 140.804698 291.558234 
L 144.46866 291.462626 
L 144.46866 291.438723 
L 150.476193 291.343115 
L 150.476193 291.319213 
L 153.587744 291.223604 
L 153.587744 291.199702 
L 157.130797 291.104093 
L 157.130797 291.032387 
L 162.307779 290.936778 
L 162.327141 290.865072 
L 164.164122 290.769463 
L 164.166057 290.697757 
L 169.305462 290.602148 
L 169.305462 290.554344 
L 173.969801 290.458735 
L 173.969801 290.434833 
L 179.809095 290.363126 
L 179.809095 290.315322 
L 187.3723 290.219713 
L 187.3723 290.195811 
L 338.688 290.100203 
L 338.688 290.100203 
" style="fill:none;stroke:#ff0000;stroke-linecap:square;stroke-width:1.5;"/>
   </g>
   <g id="line2d_51">
    <defs>
     <path d="M -6 6 
L 6 6 
L 6 -6 
L -6 -6 
z
" id="m7b1c25285c" style="stroke:#ff0000;stroke-linejoin:miter;stroke-width:1.5;"/>
    </defs>
    <g>
     <use style="fill-opacity:0;stroke:#ff0000;stroke-linejoin:miter;stroke-width:1.5;" x="121.036887" xlink:href="#m7b1c25285c" y="292.131886"/>
     <use style="fill-opacity:0;stroke:#ff0000;stroke-linejoin:miter;stroke-width:1.5;" x="198.61152" xlink:href="#m7b1c25285c" y="290.148007"/>
     <use style="fill-opacity:0;stroke:#ff0000;stroke-linejoin:miter;stroke-width:1.5;" x="211.872029" xlink:href="#m7b1c25285c" y="290.124105"/>
     <use style="fill-opacity:0;stroke:#ff0000;stroke-linejoin:miter;stroke-width:1.5;" x="211.872029" xlink:href="#m7b1c25285c" y="290.100203"/>
     <use style="fill-opacity:0;stroke:#ff0000;stroke-linejoin:miter;stroke-width:1.5;" x="211.872029" xlink:href="#m7b1c25285c" y="290.100203"/>
     <use style="fill-opacity:0;stroke:#ff0000;stroke-linejoin:miter;stroke-width:1.5;" x="338.688" xlink:href="#m7b1c25285c" y="290.100203"/>
    </g>
   </g>
   <g id="line2d_52">
    <path style="fill:none;stroke:#ff0000;stroke-linecap:square;stroke-width:1.5;"/>
    <g/>
   </g>
   <g id="line2d_53">
    <path clip-path="url(#p5810c145e9)" d="M 137.910857 291.892864 
" style="fill:none;stroke:#ff0000;stroke-linecap:square;stroke-width:1.5;"/>
    <defs>
     <path d="M -12 12 
L 12 -12 
M -12 -12 
L 12 12 
" id="m7614f9a16d" style="stroke:#ff0000;"/>
    </defs>
    <g clip-path="url(#p5810c145e9)">
     <use style="fill:#ff0000;stroke:#ff0000;" x="137.910857" xlink:href="#m7614f9a16d" y="291.892864"/>
    </g>
   </g>
   <g id="line2d_54">
    <defs>
     <path d="M 0 1.5 
C 0.397805 1.5 0.77937 1.341951 1.06066 1.06066 
C 1.341951 0.77937 1.5 0.397805 1.5 0 
C 1.5 -0.397805 1.341951 -0.77937 1.06066 -1.06066 
C 0.77937 -1.341951 0.397805 -1.5 0 -1.5 
C -0.397805 -1.5 -0.77937 -1.341951 -1.06066 -1.06066 
C -1.341951 -0.77937 -1.5 -0.397805 -1.5 0 
C -1.5 0.397805 -1.341951 0.77937 -1.06066 1.06066 
C -0.77937 1.341951 -0.397805 1.5 0 1.5 
z
" id="m9f19e6f3d5" style="stroke:#bf00bf;"/>
    </defs>
    <g>
     <use style="fill:#bf00bf;stroke:#bf00bf;" x="200.924685" xlink:href="#m9f19e6f3d5" y="291.773354"/>
     <use style="fill:#bf00bf;stroke:#bf00bf;" x="200.924685" xlink:href="#m9f19e6f3d5" y="291.773354"/>
    </g>
   </g>
   <g id="line2d_55">
    <path d="M -1 295.788916 
L 5.356583 295.788916 
L 5.356583 295.358677 
L 17.444571 295.263068 
L 17.444571 295.143557 
L 24.515591 295.071851 
L 24.515591 294.904536 
L 29.53256 294.808927 
L 29.53256 294.713319 
L 31.586611 294.713319 
L 31.586611 294.593808 
L 36.60358 294.546003 
L 36.60358 294.474297 
L 54.245172 294.378688 
L 54.245172 294.354786 
L 62.507631 294.259178 
L 62.507631 294.235275 
L 63.153604 294.139667 
L 63.153604 294.115765 
L 64.079801 294.044058 
L 64.079801 293.996254 
L 75.082329 293.900645 
L 75.082329 293.852841 
L 89.766929 293.757232 
L 89.766929 293.73333 
L 95.526106 293.637722 
L 95.526106 293.613819 
L 98.100772 293.518211 
L 98.143463 293.470407 
L 107.589306 293.374798 
L 107.589306 293.350896 
L 117.709852 293.255287 
L 117.709852 293.231385 
L 129.074938 293.135776 
L 129.074938 293.111874 
L 138.153314 293.016266 
L 138.153314 292.992363 
L 138.988612 292.896755 
L 138.988612 292.872853 
L 139.409734 292.825048 
L 139.409734 292.72944 
L 143.34036 292.633831 
L 143.34036 292.609929 
L 150.234852 292.538222 
L 150.234852 292.490418 
L 150.868386 292.39481 
L 150.868386 292.370907 
L 158.206267 292.275299 
L 158.206267 292.251397 
L 169.172381 292.155788 
L 169.238325 292.107984 
L 178.221241 292.012375 
L 178.221241 291.988473 
L 185.255203 291.916766 
L 185.255203 291.84506 
L 338.688 291.773354 
L 338.688 291.773354 
" style="fill:none;stroke:#bf00bf;stroke-linecap:square;stroke-width:1.5;"/>
   </g>
   <g id="line2d_56">
    <defs>
     <path d="M -0 8.485281 
L 8.485281 0 
L 0 -8.485281 
L -8.485281 -0 
z
" id="m9b957227c3" style="stroke:#bf00bf;stroke-linejoin:miter;stroke-width:1.5;"/>
    </defs>
    <g>
     <use style="fill-opacity:0;stroke:#bf00bf;stroke-linejoin:miter;stroke-width:1.5;" x="98.143463" xlink:href="#m9b957227c3" y="293.494309"/>
     <use style="fill-opacity:0;stroke:#bf00bf;stroke-linejoin:miter;stroke-width:1.5;" x="178.221241" xlink:href="#m9b957227c3" y="292.012375"/>
     <use style="fill-opacity:0;stroke:#bf00bf;stroke-linejoin:miter;stroke-width:1.5;" x="200.924685" xlink:href="#m9b957227c3" y="291.797256"/>
     <use style="fill-opacity:0;stroke:#bf00bf;stroke-linejoin:miter;stroke-width:1.5;" x="200.924685" xlink:href="#m9b957227c3" y="291.773354"/>
     <use style="fill-opacity:0;stroke:#bf00bf;stroke-linejoin:miter;stroke-width:1.5;" x="200.924685" xlink:href="#m9b957227c3" y="291.773354"/>
     <use style="fill-opacity:0;stroke:#bf00bf;stroke-linejoin:miter;stroke-width:1.5;" x="338.688" xlink:href="#m9b957227c3" y="291.773354"/>
    </g>
   </g>
   <g id="line2d_57">
    <path style="fill:none;stroke:#bf00bf;stroke-linecap:square;stroke-width:1.5;"/>
    <g/>
   </g>
   <g id="line2d_58">
    <path clip-path="url(#p5810c145e9)" d="M 137.910857 293.087972 
" style="fill:none;stroke:#bf00bf;stroke-linecap:square;stroke-width:1.5;"/>
    <defs>
     <path d="M -12 12 
L 12 -12 
M -12 -12 
L 12 12 
" id="mff5c05f789" style="stroke:#bf00bf;"/>
    </defs>
    <g clip-path="url(#p5810c145e9)">
     <use style="fill:#bf00bf;stroke:#bf00bf;" x="137.910857" xlink:href="#mff5c05f789" y="293.087972"/>
    </g>
   </g>
   <g id="line2d_59">
    <path d="M 338.688 291.773354 
L 369.60768 293.092752 
" style="fill:none;stroke:#bf00bf;stroke-linecap:square;stroke-width:1.5;"/>
    <g>
     <use style="fill-opacity:0;stroke:#bf00bf;stroke-linejoin:miter;stroke-width:1.5;" x="338.688" xlink:href="#m9b957227c3" y="291.773354"/>
     <use style="fill-opacity:0;stroke:#bf00bf;stroke-linejoin:miter;stroke-width:1.5;" x="369.60768" xlink:href="#m9b957227c3" y="293.092752"/>
    </g>
   </g>
   <g id="line2d_60">
    <path d="M 338.688 290.100203 
L 369.60768 236.920776 
" style="fill:none;stroke:#ff0000;stroke-linecap:square;stroke-width:1.5;"/>
    <g>
     <use style="fill-opacity:0;stroke:#ff0000;stroke-linejoin:miter;stroke-width:1.5;" x="338.688" xlink:href="#m7b1c25285c" y="290.100203"/>
     <use style="fill-opacity:0;stroke:#ff0000;stroke-linejoin:miter;stroke-width:1.5;" x="369.60768" xlink:href="#m7b1c25285c" y="236.920776"/>
    </g>
   </g>
   <g id="line2d_61">
    <path d="M 338.688 283.407599 
L 369.60768 180.7488 
" style="fill:none;stroke:#000000;stroke-linecap:square;stroke-width:1.5;"/>
    <g>
     <use style="fill-opacity:0;stroke:#000000;stroke-width:1.5;" x="338.688" xlink:href="#m943874cee7" y="283.407599"/>
     <use style="fill-opacity:0;stroke:#000000;stroke-width:1.5;" x="369.60768" xlink:href="#m943874cee7" y="180.7488"/>
    </g>
   </g>
   <g id="line2d_62">
    <path d="M 338.688 268.588263 
L 369.60768 124.576824 
" style="fill:none;stroke:#0000ff;stroke-linecap:square;stroke-width:1.5;"/>
    <g>
     <use style="fill-opacity:0;stroke:#0000ff;stroke-linejoin:bevel;stroke-width:1.5;" x="338.688" xlink:href="#maf03787d66" y="268.588263"/>
     <use style="fill-opacity:0;stroke:#0000ff;stroke-linejoin:bevel;stroke-width:1.5;" x="369.60768" xlink:href="#maf03787d66" y="124.576824"/>
    </g>
   </g>
   <g id="line2d_63">
    <path d="M 338.688 251.378712 
L 369.60768 68.404848 
" style="fill:none;stroke:#008000;stroke-linecap:square;stroke-width:1.5;"/>
    <g>
     <use style="fill-opacity:0;stroke:#008000;stroke-linejoin:miter;stroke-width:1.5;" x="338.688" xlink:href="#m755f5e10fe" y="251.378712"/>
     <use style="fill-opacity:0;stroke:#008000;stroke-linejoin:miter;stroke-width:1.5;" x="369.60768" xlink:href="#m755f5e10fe" y="68.404848"/>
    </g>
   </g>
   <g id="line2d_64">
    <path d="M 338.688 224.130255 
L 369.60768 12.232871 
" style="fill:none;stroke:#00bfbf;stroke-linecap:square;stroke-width:1.5;"/>
    <g>
     <use style="fill-opacity:0;stroke:#00bfbf;stroke-width:1.5;" x="338.688" xlink:href="#m5b9f2ec8a8" y="224.130255"/>
     <use style="fill-opacity:0;stroke:#00bfbf;stroke-width:1.5;" x="369.60768" xlink:href="#m5b9f2ec8a8" y="12.232871"/>
    </g>
   </g>
   <g id="line2d_65">
    <path d="M 338.688 298.944 
L 338.688 6.381624 
" style="fill:none;stroke:#000000;stroke-linecap:square;stroke-width:1.5;"/>
   </g>
   <g id="patch_3">
    <path d="M 57.6 298.944 
L 57.6 3.456 
" style="fill:none;stroke:#000000;stroke-linecap:square;stroke-linejoin:miter;stroke-width:0.8;"/>
   </g>
   <g id="patch_4">
    <path d="M 338.688 298.944 
L 338.688 3.456 
" style="fill:none;stroke:#000000;stroke-linecap:square;stroke-linejoin:miter;stroke-width:0.8;"/>
   </g>
   <g id="patch_5">
    <path d="M 57.6 298.944 
L 338.688 298.944 
" style="fill:none;stroke:#000000;stroke-linecap:square;stroke-linejoin:miter;stroke-width:0.8;"/>
   </g>
   <g id="patch_6">
    <path d="M 57.6 3.456 
L 338.688 3.456 
" style="fill:none;stroke:#000000;stroke-linecap:square;stroke-linejoin:miter;stroke-width:0.8;"/>
   </g>
   <g id="text_13">
    <!-- 40-D -->
    <defs>
     <path d="M 19.671875 64.796875 
L 19.671875 8.109375 
L 31.59375 8.109375 
Q 46.6875 8.109375 53.6875 14.9375 
Q 60.6875 21.78125 60.6875 36.53125 
Q 60.6875 51.171875 53.6875 57.984375 
Q 46.6875 64.796875 31.59375 64.796875 
z
M 9.8125 72.90625 
L 30.078125 72.90625 
Q 51.265625 72.90625 61.171875 64.09375 
Q 71.09375 55.28125 71.09375 36.53125 
Q 71.09375 17.671875 61.125 8.828125 
Q 51.171875 0 30.078125 0 
L 9.8125 0 
z
" id="DejaVuSans-68"/>
    </defs>
    <g transform="translate(375.22944 297.78369)scale(0.17 -0.17)">
     <use xlink:href="#DejaVuSans-52"/>
     <use x="63.623047" xlink:href="#DejaVuSans-48"/>
     <use x="127.246094" xlink:href="#DejaVuSans-45"/>
     <use x="163.330078" xlink:href="#DejaVuSans-68"/>
    </g>
   </g>
   <g id="text_14">
    <!-- 20-D -->
    <g transform="translate(375.22944 241.611714)scale(0.17 -0.17)">
     <use xlink:href="#DejaVuSans-50"/>
     <use x="63.623047" xlink:href="#DejaVuSans-48"/>
     <use x="127.246094" xlink:href="#DejaVuSans-45"/>
     <use x="163.330078" xlink:href="#DejaVuSans-68"/>
    </g>
   </g>
   <g id="text_15">
    <!-- 10-D -->
    <g transform="translate(375.22944 185.439737)scale(0.17 -0.17)">
     <use xlink:href="#DejaVuSans-49"/>
     <use x="63.623047" xlink:href="#DejaVuSans-48"/>
     <use x="127.246094" xlink:href="#DejaVuSans-45"/>
     <use x="163.330078" xlink:href="#DejaVuSans-68"/>
    </g>
   </g>
   <g id="text_16">
    <!-- 5-D -->
    <defs>
     <path d="M 10.796875 72.90625 
L 49.515625 72.90625 
L 49.515625 64.59375 
L 19.828125 64.59375 
L 19.828125 46.734375 
Q 21.96875 47.46875 24.109375 47.828125 
Q 26.265625 48.1875 28.421875 48.1875 
Q 40.625 48.1875 47.75 41.5 
Q 54.890625 34.8125 54.890625 23.390625 
Q 54.890625 11.625 47.5625 5.09375 
Q 40.234375 -1.421875 26.90625 -1.421875 
Q 22.3125 -1.421875 17.546875 -0.640625 
Q 12.796875 0.140625 7.71875 1.703125 
L 7.71875 11.625 
Q 12.109375 9.234375 16.796875 8.0625 
Q 21.484375 6.890625 26.703125 6.890625 
Q 35.15625 6.890625 40.078125 11.328125 
Q 45.015625 15.765625 45.015625 23.390625 
Q 45.015625 31 40.078125 35.4375 
Q 35.15625 39.890625 26.703125 39.890625 
Q 22.75 39.890625 18.8125 39.015625 
Q 14.890625 38.140625 10.796875 36.28125 
z
" id="DejaVuSans-53"/>
    </defs>
    <g transform="translate(375.22944 129.267761)scale(0.17 -0.17)">
     <use xlink:href="#DejaVuSans-53"/>
     <use x="63.623047" xlink:href="#DejaVuSans-45"/>
     <use x="99.707031" xlink:href="#DejaVuSans-68"/>
    </g>
   </g>
   <g id="text_17">
    <!-- 3-D -->
    <defs>
     <path d="M 40.578125 39.3125 
Q 47.65625 37.796875 51.625 33 
Q 55.609375 28.21875 55.609375 21.1875 
Q 55.609375 10.40625 48.1875 4.484375 
Q 40.765625 -1.421875 27.09375 -1.421875 
Q 22.515625 -1.421875 17.65625 -0.515625 
Q 12.796875 0.390625 7.625 2.203125 
L 7.625 11.71875 
Q 11.71875 9.328125 16.59375 8.109375 
Q 21.484375 6.890625 26.8125 6.890625 
Q 36.078125 6.890625 40.9375 10.546875 
Q 45.796875 14.203125 45.796875 21.1875 
Q 45.796875 27.640625 41.28125 31.265625 
Q 36.765625 34.90625 28.71875 34.90625 
L 20.21875 34.90625 
L 20.21875 43.015625 
L 29.109375 43.015625 
Q 36.375 43.015625 40.234375 45.921875 
Q 44.09375 48.828125 44.09375 54.296875 
Q 44.09375 59.90625 40.109375 62.90625 
Q 36.140625 65.921875 28.71875 65.921875 
Q 24.65625 65.921875 20.015625 65.03125 
Q 15.375 64.15625 9.8125 62.3125 
L 9.8125 71.09375 
Q 15.4375 72.65625 20.34375 73.4375 
Q 25.25 74.21875 29.59375 74.21875 
Q 40.828125 74.21875 47.359375 69.109375 
Q 53.90625 64.015625 53.90625 55.328125 
Q 53.90625 49.265625 50.4375 45.09375 
Q 46.96875 40.921875 40.578125 39.3125 
z
" id="DejaVuSans-51"/>
    </defs>
    <g transform="translate(375.22944 73.095785)scale(0.17 -0.17)">
     <use xlink:href="#DejaVuSans-51"/>
     <use x="63.623047" xlink:href="#DejaVuSans-45"/>
     <use x="99.707031" xlink:href="#DejaVuSans-68"/>
    </g>
   </g>
   <g id="text_18">
    <!-- 2-D -->
    <g transform="translate(375.22944 16.923809)scale(0.17 -0.17)">
     <use xlink:href="#DejaVuSans-50"/>
     <use x="63.623047" xlink:href="#DejaVuSans-45"/>
     <use x="99.707031" xlink:href="#DejaVuSans-68"/>
    </g>
   </g>
   <g id="text_19">
    <!-- bbob f1-f24 -->
    <defs>
     <path d="M 48.6875 27.296875 
Q 48.6875 37.203125 44.609375 42.84375 
Q 40.53125 48.484375 33.40625 48.484375 
Q 26.265625 48.484375 22.1875 42.84375 
Q 18.109375 37.203125 18.109375 27.296875 
Q 18.109375 17.390625 22.1875 11.75 
Q 26.265625 6.109375 33.40625 6.109375 
Q 40.53125 6.109375 44.609375 11.75 
Q 48.6875 17.390625 48.6875 27.296875 
z
M 18.109375 46.390625 
Q 20.953125 51.265625 25.265625 53.625 
Q 29.59375 56 35.59375 56 
Q 45.5625 56 51.78125 48.09375 
Q 58.015625 40.1875 58.015625 27.296875 
Q 58.015625 14.40625 51.78125 6.484375 
Q 45.5625 -1.421875 35.59375 -1.421875 
Q 29.59375 -1.421875 25.265625 0.953125 
Q 20.953125 3.328125 18.109375 8.203125 
L 18.109375 0 
L 9.078125 0 
L 9.078125 75.984375 
L 18.109375 75.984375 
z
" id="DejaVuSans-98"/>
    </defs>
    <g transform="translate(60.41088 14.161286)scale(0.102 -0.102)">
     <use xlink:href="#DejaVuSans-98"/>
     <use x="63.476562" xlink:href="#DejaVuSans-98"/>
     <use x="126.953125" xlink:href="#DejaVuSans-111"/>
     <use x="188.134766" xlink:href="#DejaVuSans-98"/>
     <use x="251.611328" xlink:href="#DejaVuSans-32"/>
     <use x="283.398438" xlink:href="#DejaVuSans-102"/>
     <use x="318.603516" xlink:href="#DejaVuSans-49"/>
     <use x="382.226562" xlink:href="#DejaVuSans-45"/>
     <use x="418.310547" xlink:href="#DejaVuSans-102"/>
     <use x="453.515625" xlink:href="#DejaVuSans-50"/>
     <use x="517.138672" xlink:href="#DejaVuSans-52"/>
    </g>
    <!-- 51 targets: 100..1e-08 -->
    <defs>
     <path d="M 11.71875 12.40625 
L 22.015625 12.40625 
L 22.015625 0 
L 11.71875 0 
z
M 11.71875 51.703125 
L 22.015625 51.703125 
L 22.015625 39.3125 
L 11.71875 39.3125 
z
" id="DejaVuSans-58"/>
    </defs>
    <g transform="translate(60.41088 25.583055)scale(0.102 -0.102)">
     <use xlink:href="#DejaVuSans-53"/>
     <use x="63.623047" xlink:href="#DejaVuSans-49"/>
     <use x="127.246094" xlink:href="#DejaVuSans-32"/>
     <use x="159.033203" xlink:href="#DejaVuSans-116"/>
     <use x="198.242188" xlink:href="#DejaVuSans-97"/>
     <use x="259.521484" xlink:href="#DejaVuSans-114"/>
     <use x="300.619141" xlink:href="#DejaVuSans-103"/>
     <use x="364.095703" xlink:href="#DejaVuSans-101"/>
     <use x="425.619141" xlink:href="#DejaVuSans-116"/>
     <use x="464.828125" xlink:href="#DejaVuSans-115"/>
     <use x="516.927734" xlink:href="#DejaVuSans-58"/>
     <use x="550.619141" xlink:href="#DejaVuSans-32"/>
     <use x="582.40625" xlink:href="#DejaVuSans-49"/>
     <use x="646.029297" xlink:href="#DejaVuSans-48"/>
     <use x="709.652344" xlink:href="#DejaVuSans-48"/>
     <use x="773.275391" xlink:href="#DejaVuSans-46"/>
     <use x="805.0625" xlink:href="#DejaVuSans-46"/>
     <use x="836.849609" xlink:href="#DejaVuSans-49"/>
     <use x="900.472656" xlink:href="#DejaVuSans-101"/>
     <use x="961.996094" xlink:href="#DejaVuSans-45"/>
     <use x="998.080078" xlink:href="#DejaVuSans-48"/>
     <use x="1061.703125" xlink:href="#DejaVuSans-56"/>
    </g>
    <!-- 15 instances -->
    <g transform="translate(60.41088 37.004824)scale(0.102 -0.102)">
     <use xlink:href="#DejaVuSans-49"/>
     <use x="63.623047" xlink:href="#DejaVuSans-53"/>
     <use x="127.246094" xlink:href="#DejaVuSans-32"/>
     <use x="159.033203" xlink:href="#DejaVuSans-105"/>
     <use x="186.816406" xlink:href="#DejaVuSans-110"/>
     <use x="250.195312" xlink:href="#DejaVuSans-115"/>
     <use x="302.294922" xlink:href="#DejaVuSans-116"/>
     <use x="341.503906" xlink:href="#DejaVuSans-97"/>
     <use x="402.783203" xlink:href="#DejaVuSans-110"/>
     <use x="466.162109" xlink:href="#DejaVuSans-99"/>
     <use x="521.142578" xlink:href="#DejaVuSans-101"/>
     <use x="582.666016" xlink:href="#DejaVuSans-115"/>
    </g>
   </g>
   <g id="text_20">
    <!-- v2.4 -->
    <g style="fill:#808080;" transform="translate(187.233062 293.909432)scale(0.1 -0.1)">
     <use xlink:href="#DejaVuSans-118"/>
     <use x="59.179688" xlink:href="#DejaVuSans-50"/>
     <use x="122.802734" xlink:href="#DejaVuSans-46"/>
     <use x="154.589844" xlink:href="#DejaVuSans-52"/>
    </g>
   </g>
  </g>
 </g>
 <defs>
  <clipPath id="p5810c145e9">
   <rect height="295.488" width="281.088" x="57.6" y="3.456"/>
  </clipPath>
 </defs>
</svg>
