<?xml version="1.0" encoding="utf-8" standalone="no"?>
<!DOCTYPE svg PUBLIC "-//W3C//DTD SVG 1.1//EN"
  "http://www.w3.org/Graphics/SVG/1.1/DTD/svg11.dtd">
<!-- Created with matplotlib (https://matplotlib.org/) -->
<svg height="345.6pt" version="1.1" viewBox="0 0 460.8 345.6" width="460.8pt" xmlns="http://www.w3.org/2000/svg" xmlns:xlink="http://www.w3.org/1999/xlink">
 <defs>
  <style type="text/css">
*{stroke-linecap:butt;stroke-linejoin:round;}
  </style>
 </defs>
 <g id="figure_1">
  <g id="patch_1">
   <path d="M 0 345.6 
L 460.8 345.6 
L 460.8 0 
L 0 0 
z
" style="fill:#ffffff;"/>
  </g>
  <g id="axes_1">
   <g id="patch_2">
    <path d="M 0 293.76 
L 460.8 293.76 
L 460.8 3.456 
L 0 3.456 
z
" style="fill:#ffffff;"/>
   </g>
   <g id="matplotlib.axis_1">
    <g id="xtick_1">
     <g id="line2d_1">
      <path clip-path="url(#pcac60aba7f)" d="M 102.57697 293.76 
L 102.57697 3.456 
" style="fill:none;stroke:#b0b0b0;stroke-linecap:square;stroke-width:0.8;"/>
     </g>
     <g id="line2d_2">
      <defs>
       <path d="M 0 0 
L 0 3.5 
" id="m9d5036a97e" style="stroke:#000000;stroke-width:0.8;"/>
      </defs>
      <g>
       <use style="stroke:#000000;stroke-width:0.8;" x="102.57697" xlink:href="#m9d5036a97e" y="293.76"/>
      </g>
     </g>
     <g id="text_1">
      <!-- -4 -->
      <defs>
       <path d="M 4.890625 31.390625 
L 31.203125 31.390625 
L 31.203125 23.390625 
L 4.890625 23.390625 
z
" id="DejaVuSans-45"/>
       <path d="M 37.796875 64.3125 
L 12.890625 25.390625 
L 37.796875 25.390625 
z
M 35.203125 72.90625 
L 47.609375 72.90625 
L 47.609375 25.390625 
L 58.015625 25.390625 
L 58.015625 17.1875 
L 47.609375 17.1875 
L 47.609375 0 
L 37.796875 0 
L 37.796875 17.1875 
L 4.890625 17.1875 
L 4.890625 26.703125 
z
" id="DejaVuSans-52"/>
      </defs>
      <g transform="translate(92.606657 315.956875)scale(0.2 -0.2)">
       <use xlink:href="#DejaVuSans-45"/>
       <use x="36.083984" xlink:href="#DejaVuSans-52"/>
      </g>
     </g>
    </g>
    <g id="xtick_2">
     <g id="line2d_3">
      <path clip-path="url(#pcac60aba7f)" d="M 205.264877 293.76 
L 205.264877 3.456 
" style="fill:none;stroke:#b0b0b0;stroke-linecap:square;stroke-width:0.8;"/>
     </g>
     <g id="line2d_4">
      <g>
       <use style="stroke:#000000;stroke-width:0.8;" x="205.264877" xlink:href="#m9d5036a97e" y="293.76"/>
      </g>
     </g>
     <g id="text_2">
      <!-- 0 -->
      <defs>
       <path d="M 31.78125 66.40625 
Q 24.171875 66.40625 20.328125 58.90625 
Q 16.5 51.421875 16.5 36.375 
Q 16.5 21.390625 20.328125 13.890625 
Q 24.171875 6.390625 31.78125 6.390625 
Q 39.453125 6.390625 43.28125 13.890625 
Q 47.125 21.390625 47.125 36.375 
Q 47.125 51.421875 43.28125 58.90625 
Q 39.453125 66.40625 31.78125 66.40625 
z
M 31.78125 74.21875 
Q 44.046875 74.21875 50.515625 64.515625 
Q 56.984375 54.828125 56.984375 36.375 
Q 56.984375 17.96875 50.515625 8.265625 
Q 44.046875 -1.421875 31.78125 -1.421875 
Q 19.53125 -1.421875 13.0625 8.265625 
Q 6.59375 17.96875 6.59375 36.375 
Q 6.59375 54.828125 13.0625 64.515625 
Q 19.53125 74.21875 31.78125 74.21875 
z
" id="DejaVuSans-48"/>
      </defs>
      <g transform="translate(198.902377 315.956875)scale(0.2 -0.2)">
       <use xlink:href="#DejaVuSans-48"/>
      </g>
     </g>
    </g>
    <g id="xtick_3">
     <g id="line2d_5">
      <path clip-path="url(#pcac60aba7f)" d="M 307.952785 293.76 
L 307.952785 3.456 
" style="fill:none;stroke:#b0b0b0;stroke-linecap:square;stroke-width:0.8;"/>
     </g>
     <g id="line2d_6">
      <g>
       <use style="stroke:#000000;stroke-width:0.8;" x="307.952785" xlink:href="#m9d5036a97e" y="293.76"/>
      </g>
     </g>
     <g id="text_3">
      <!-- 4 -->
      <g transform="translate(301.590285 315.956875)scale(0.2 -0.2)">
       <use xlink:href="#DejaVuSans-52"/>
      </g>
     </g>
    </g>
    <g id="xtick_4">
     <g id="line2d_7">
      <path clip-path="url(#pcac60aba7f)" d="M 410.640693 293.76 
L 410.640693 3.456 
" style="fill:none;stroke:#b0b0b0;stroke-linecap:square;stroke-width:0.8;"/>
     </g>
     <g id="line2d_8">
      <g>
       <use style="stroke:#000000;stroke-width:0.8;" x="410.640693" xlink:href="#m9d5036a97e" y="293.76"/>
      </g>
     </g>
     <g id="text_4">
      <!-- 8 -->
      <defs>
       <path d="M 31.78125 34.625 
Q 24.75 34.625 20.71875 30.859375 
Q 16.703125 27.09375 16.703125 20.515625 
Q 16.703125 13.921875 20.71875 10.15625 
Q 24.75 6.390625 31.78125 6.390625 
Q 38.8125 6.390625 42.859375 10.171875 
Q 46.921875 13.96875 46.921875 20.515625 
Q 46.921875 27.09375 42.890625 30.859375 
Q 38.875 34.625 31.78125 34.625 
z
M 21.921875 38.8125 
Q 15.578125 40.375 12.03125 44.71875 
Q 8.5 49.078125 8.5 55.328125 
Q 8.5 64.0625 14.71875 69.140625 
Q 20.953125 74.21875 31.78125 74.21875 
Q 42.671875 74.21875 48.875 69.140625 
Q 55.078125 64.0625 55.078125 55.328125 
Q 55.078125 49.078125 51.53125 44.71875 
Q 48 40.375 41.703125 38.8125 
Q 48.828125 37.15625 52.796875 32.3125 
Q 56.78125 27.484375 56.78125 20.515625 
Q 56.78125 9.90625 50.3125 4.234375 
Q 43.84375 -1.421875 31.78125 -1.421875 
Q 19.734375 -1.421875 13.25 4.234375 
Q 6.78125 9.90625 6.78125 20.515625 
Q 6.78125 27.484375 10.78125 32.3125 
Q 14.796875 37.15625 21.921875 38.8125 
z
M 18.3125 54.390625 
Q 18.3125 48.734375 21.84375 45.5625 
Q 25.390625 42.390625 31.78125 42.390625 
Q 38.140625 42.390625 41.71875 45.5625 
Q 45.3125 48.734375 45.3125 54.390625 
Q 45.3125 60.0625 41.71875 63.234375 
Q 38.140625 66.40625 31.78125 66.40625 
Q 25.390625 66.40625 21.84375 63.234375 
Q 18.3125 60.0625 18.3125 54.390625 
z
" id="DejaVuSans-56"/>
      </defs>
      <g transform="translate(404.278193 315.956875)scale(0.2 -0.2)">
       <use xlink:href="#DejaVuSans-56"/>
      </g>
     </g>
    </g>
    <g id="text_5">
     <!-- log10 of Df -->
     <defs>
      <path d="M 9.421875 75.984375 
L 18.40625 75.984375 
L 18.40625 0 
L 9.421875 0 
z
" id="DejaVuSans-108"/>
      <path d="M 30.609375 48.390625 
Q 23.390625 48.390625 19.1875 42.75 
Q 14.984375 37.109375 14.984375 27.296875 
Q 14.984375 17.484375 19.15625 11.84375 
Q 23.34375 6.203125 30.609375 6.203125 
Q 37.796875 6.203125 41.984375 11.859375 
Q 46.1875 17.53125 46.1875 27.296875 
Q 46.1875 37.015625 41.984375 42.703125 
Q 37.796875 48.390625 30.609375 48.390625 
z
M 30.609375 56 
Q 42.328125 56 49.015625 48.375 
Q 55.71875 40.765625 55.71875 27.296875 
Q 55.71875 13.875 49.015625 6.21875 
Q 42.328125 -1.421875 30.609375 -1.421875 
Q 18.84375 -1.421875 12.171875 6.21875 
Q 5.515625 13.875 5.515625 27.296875 
Q 5.515625 40.765625 12.171875 48.375 
Q 18.84375 56 30.609375 56 
z
" id="DejaVuSans-111"/>
      <path d="M 45.40625 27.984375 
Q 45.40625 37.75 41.375 43.109375 
Q 37.359375 48.484375 30.078125 48.484375 
Q 22.859375 48.484375 18.828125 43.109375 
Q 14.796875 37.75 14.796875 27.984375 
Q 14.796875 18.265625 18.828125 12.890625 
Q 22.859375 7.515625 30.078125 7.515625 
Q 37.359375 7.515625 41.375 12.890625 
Q 45.40625 18.265625 45.40625 27.984375 
z
M 54.390625 6.78125 
Q 54.390625 -7.171875 48.1875 -13.984375 
Q 42 -20.796875 29.203125 -20.796875 
Q 24.46875 -20.796875 20.265625 -20.09375 
Q 16.0625 -19.390625 12.109375 -17.921875 
L 12.109375 -9.1875 
Q 16.0625 -11.328125 19.921875 -12.34375 
Q 23.78125 -13.375 27.78125 -13.375 
Q 36.625 -13.375 41.015625 -8.765625 
Q 45.40625 -4.15625 45.40625 5.171875 
L 45.40625 9.625 
Q 42.625 4.78125 38.28125 2.390625 
Q 33.9375 0 27.875 0 
Q 17.828125 0 11.671875 7.65625 
Q 5.515625 15.328125 5.515625 27.984375 
Q 5.515625 40.671875 11.671875 48.328125 
Q 17.828125 56 27.875 56 
Q 33.9375 56 38.28125 53.609375 
Q 42.625 51.21875 45.40625 46.390625 
L 45.40625 54.6875 
L 54.390625 54.6875 
z
" id="DejaVuSans-103"/>
      <path d="M 12.40625 8.296875 
L 28.515625 8.296875 
L 28.515625 63.921875 
L 10.984375 60.40625 
L 10.984375 69.390625 
L 28.421875 72.90625 
L 38.28125 72.90625 
L 38.28125 8.296875 
L 54.390625 8.296875 
L 54.390625 0 
L 12.40625 0 
z
" id="DejaVuSans-49"/>
      <path id="DejaVuSans-32"/>
      <path d="M 37.109375 75.984375 
L 37.109375 68.5 
L 28.515625 68.5 
Q 23.6875 68.5 21.796875 66.546875 
Q 19.921875 64.59375 19.921875 59.515625 
L 19.921875 54.6875 
L 34.71875 54.6875 
L 34.71875 47.703125 
L 19.921875 47.703125 
L 19.921875 0 
L 10.890625 0 
L 10.890625 47.703125 
L 2.296875 47.703125 
L 2.296875 54.6875 
L 10.890625 54.6875 
L 10.890625 58.5 
Q 10.890625 67.625 15.140625 71.796875 
Q 19.390625 75.984375 28.609375 75.984375 
z
" id="DejaVuSans-102"/>
      <path d="M 19.671875 64.796875 
L 19.671875 8.109375 
L 31.59375 8.109375 
Q 46.6875 8.109375 53.6875 14.9375 
Q 60.6875 21.78125 60.6875 36.53125 
Q 60.6875 51.171875 53.6875 57.984375 
Q 46.6875 64.796875 31.59375 64.796875 
z
M 9.8125 72.90625 
L 30.078125 72.90625 
Q 51.265625 72.90625 61.171875 64.09375 
Q 71.09375 55.28125 71.09375 36.53125 
Q 71.09375 17.671875 61.125 8.828125 
Q 51.171875 0 30.078125 0 
L 9.8125 0 
z
" id="DejaVuSans-68"/>
     </defs>
     <g transform="translate(175.214063 339.313125)scale(0.2 -0.2)">
      <use xlink:href="#DejaVuSans-108"/>
      <use x="27.783203" xlink:href="#DejaVuSans-111"/>
      <use x="88.964844" xlink:href="#DejaVuSans-103"/>
      <use x="152.441406" xlink:href="#DejaVuSans-49"/>
      <use x="216.064453" xlink:href="#DejaVuSans-48"/>
      <use x="279.6875" xlink:href="#DejaVuSans-32"/>
      <use x="311.474609" xlink:href="#DejaVuSans-111"/>
      <use x="372.65625" xlink:href="#DejaVuSans-102"/>
      <use x="407.861328" xlink:href="#DejaVuSans-32"/>
      <use x="439.648438" xlink:href="#DejaVuSans-68"/>
      <use x="516.650391" xlink:href="#DejaVuSans-102"/>
     </g>
    </g>
   </g>
   <g id="matplotlib.axis_2">
    <g id="ytick_1">
     <g id="line2d_9">
      <path clip-path="url(#pcac60aba7f)" d="M 0 293.76 
L 460.8 293.76 
" style="fill:none;stroke:#b0b0b0;stroke-linecap:square;stroke-width:0.8;"/>
     </g>
     <g id="line2d_10">
      <defs>
       <path d="M 0 0 
L -3.5 0 
" id="m4a09c4ae23" style="stroke:#000000;stroke-width:0.8;"/>
      </defs>
      <g>
       <use style="stroke:#000000;stroke-width:0.8;" x="0" xlink:href="#m4a09c4ae23" y="293.76"/>
      </g>
     </g>
    </g>
    <g id="ytick_2">
     <g id="line2d_11">
      <path clip-path="url(#pcac60aba7f)" d="M 0 236.274059 
L 460.8 236.274059 
" style="fill:none;stroke:#b0b0b0;stroke-linecap:square;stroke-width:0.8;"/>
     </g>
     <g id="line2d_12">
      <g>
       <use style="stroke:#000000;stroke-width:0.8;" x="0" xlink:href="#m4a09c4ae23" y="236.274059"/>
      </g>
     </g>
    </g>
    <g id="ytick_3">
     <g id="line2d_13">
      <path clip-path="url(#pcac60aba7f)" d="M 0 178.788119 
L 460.8 178.788119 
" style="fill:none;stroke:#b0b0b0;stroke-linecap:square;stroke-width:0.8;"/>
     </g>
     <g id="line2d_14">
      <g>
       <use style="stroke:#000000;stroke-width:0.8;" x="0" xlink:href="#m4a09c4ae23" y="178.788119"/>
      </g>
     </g>
    </g>
    <g id="ytick_4">
     <g id="line2d_15">
      <path clip-path="url(#pcac60aba7f)" d="M 0 121.302178 
L 460.8 121.302178 
" style="fill:none;stroke:#b0b0b0;stroke-linecap:square;stroke-width:0.8;"/>
     </g>
     <g id="line2d_16">
      <g>
       <use style="stroke:#000000;stroke-width:0.8;" x="0" xlink:href="#m4a09c4ae23" y="121.302178"/>
      </g>
     </g>
    </g>
    <g id="ytick_5">
     <g id="line2d_17">
      <path clip-path="url(#pcac60aba7f)" d="M 0 63.816238 
L 460.8 63.816238 
" style="fill:none;stroke:#b0b0b0;stroke-linecap:square;stroke-width:0.8;"/>
     </g>
     <g id="line2d_18">
      <g>
       <use style="stroke:#000000;stroke-width:0.8;" x="0" xlink:href="#m4a09c4ae23" y="63.816238"/>
      </g>
     </g>
    </g>
    <g id="ytick_6">
     <g id="line2d_19">
      <path clip-path="url(#pcac60aba7f)" d="M 0 6.330297 
L 460.8 6.330297 
" style="fill:none;stroke:#b0b0b0;stroke-linecap:square;stroke-width:0.8;"/>
     </g>
     <g id="line2d_20">
      <g>
       <use style="stroke:#000000;stroke-width:0.8;" x="0" xlink:href="#m4a09c4ae23" y="6.330297"/>
      </g>
     </g>
    </g>
   </g>
   <g id="line2d_21">
    <path clip-path="url(#pcac60aba7f)" d="M -1 289.927604 
L 253.499326 289.927604 
L 253.499326 286.095208 
L 256.129818 286.095208 
L 256.129818 282.262812 
L 256.608396 282.262812 
L 256.608396 278.430416 
L 258.60831 278.430416 
L 258.60831 274.59802 
L 259.094857 274.59802 
L 259.094857 270.765624 
L 259.744728 270.765624 
L 259.795986 263.100832 
L 260.444671 263.100832 
L 260.444671 259.268436 
L 260.568657 259.268436 
L 260.665495 251.603644 
L 260.988555 251.603644 
L 260.988555 247.771248 
L 261.786883 247.771248 
L 261.786883 243.938851 
L 262.826868 243.938851 
L 262.826868 240.106455 
L 263.071877 240.106455 
L 263.071877 236.274059 
L 265.553653 236.274059 
L 265.553653 232.441663 
L 266.269102 232.441663 
L 266.358053 220.944475 
L 266.805475 220.944475 
L 266.805475 217.112079 
L 267.2898 217.112079 
L 267.392607 209.447287 
L 267.701038 209.447287 
L 267.701038 205.614891 
L 267.990331 205.614891 
L 267.990331 201.782495 
L 268.443695 201.782495 
L 268.443695 197.950099 
L 268.724256 197.950099 
L 268.724256 194.117703 
L 268.847629 194.117703 
L 268.847629 190.285307 
L 269.285156 190.285307 
L 269.285156 186.452911 
L 269.533145 186.452911 
L 269.54615 178.788119 
L 278.130235 178.788119 
L 278.130235 174.955723 
L 279.074967 174.955723 
L 279.074967 171.123327 
L 279.409994 171.123327 
L 279.444929 163.458535 
L 280.018829 163.458535 
L 280.018829 159.626139 
L 281.093933 159.626139 
L 281.193478 151.961347 
L 281.70125 151.961347 
L 281.807274 140.464158 
L 282.132088 140.464158 
L 282.132088 136.631762 
L 282.447844 136.631762 
L 282.447844 132.799366 
L 282.569946 132.799366 
L 282.569946 128.96697 
L 282.75608 128.96697 
L 282.788489 121.302178 
L 283.003381 121.302178 
L 283.003381 117.469782 
L 283.302913 117.469782 
L 283.302913 113.637386 
L 283.637898 113.637386 
L 283.637898 109.80499 
L 284.548851 109.80499 
L 284.576417 102.140198 
L 284.838727 102.140198 
L 284.922199 94.475406 
L 285.226028 94.475406 
L 285.226028 90.64301 
L 285.659724 90.64301 
L 285.736602 82.978218 
L 286.848758 82.978218 
L 286.848758 79.145822 
L 288.551263 79.145822 
L 288.551263 75.313426 
L 289.311728 75.313426 
L 289.311728 71.48103 
L 289.543533 71.48103 
L 289.543533 67.648634 
L 291.804229 67.648634 
L 291.804229 63.816238 
L 354.213265 63.816238 
L 354.213265 59.983842 
L 366.872279 59.983842 
L 366.872279 56.151446 
L 367.50546 56.151446 
L 367.50546 52.31905 
L 369.05322 52.31905 
L 369.05322 48.486653 
L 369.186704 48.486653 
L 369.229883 40.821861 
L 372.625429 40.821861 
L 372.625429 36.989465 
L 373.667431 36.989465 
L 373.667431 33.157069 
L 375.209076 33.157069 
L 375.209076 29.324673 
L 375.466303 29.324673 
L 375.466303 25.492277 
L 375.609429 25.492277 
L 375.609429 21.659881 
L 378.382285 21.659881 
L 378.382285 17.827485 
L 380.400096 17.827485 
L 380.400096 13.995089 
L 382.062227 13.995089 
L 382.062227 10.162693 
L 382.43207 10.162693 
L 382.43207 6.330297 
L 382.43207 6.330297 
L 460.8 6.330297 
L 460.8 6.330297 
" style="fill:none;stroke:#ff0000;stroke-linecap:square;stroke-width:3;"/>
   </g>
   <g id="line2d_22">
    <path clip-path="url(#pcac60aba7f)" d="M 253.499326 293.76 
L 253.499326 289.927604 
L 256.129818 289.927604 
L 256.129818 286.095208 
L 258.60831 286.095208 
L 258.60831 282.262812 
L 259.744728 282.262812 
L 259.744728 278.430416 
L 260.665495 278.430416 
L 260.665495 274.59802 
L 261.016267 274.59802 
L 261.116617 266.933228 
L 261.785673 266.933228 
L 261.786883 259.268436 
L 262.512981 259.268436 
L 262.512981 255.43604 
L 262.649982 255.43604 
L 262.649982 251.603644 
L 262.847148 251.603644 
L 262.847148 247.771248 
L 264.329247 247.771248 
L 264.329247 243.938851 
L 265.402665 243.938851 
L 265.402665 240.106455 
L 266.269102 240.106455 
L 266.358053 232.441663 
L 268.613173 232.441663 
L 268.613173 228.609267 
L 268.86724 228.609267 
L 268.86724 224.776871 
L 269.047486 224.776871 
L 269.047486 220.944475 
L 269.372801 220.944475 
L 269.401487 213.279683 
L 269.65648 213.279683 
L 269.686616 201.782495 
L 269.915717 201.782495 
L 270.012847 194.117703 
L 270.225589 194.117703 
L 270.225589 190.285307 
L 270.348676 190.285307 
L 270.348676 186.452911 
L 270.92843 186.452911 
L 270.960986 178.788119 
L 279.444929 178.788119 
L 279.444929 174.955723 
L 280.018829 174.955723 
L 280.018829 171.123327 
L 280.440091 171.123327 
L 280.440091 167.290931 
L 280.945165 167.290931 
L 280.945165 163.458535 
L 281.193478 163.458535 
L 281.193478 159.626139 
L 281.581062 159.626139 
L 281.581062 155.793743 
L 281.807274 155.793743 
L 281.807274 151.961347 
L 281.941257 151.961347 
L 281.941257 148.12895 
L 282.307565 148.12895 
L 282.307565 144.296554 
L 282.569946 144.296554 
L 282.569946 140.464158 
L 283.003381 140.464158 
L 283.003381 136.631762 
L 283.314182 136.631762 
L 283.314182 132.799366 
L 283.748421 132.799366 
L 283.748421 128.96697 
L 284.007974 128.96697 
L 284.007974 125.134574 
L 284.548851 125.134574 
L 284.576417 117.469782 
L 284.838727 117.469782 
L 284.838727 113.637386 
L 285.106798 113.637386 
L 285.106798 109.80499 
L 285.723236 109.80499 
L 285.736602 102.140198 
L 285.963333 102.140198 
L 285.963333 98.307802 
L 286.187909 98.307802 
L 286.187909 94.475406 
L 286.626675 94.475406 
L 286.626675 90.64301 
L 286.848758 90.64301 
L 286.848758 86.810614 
L 288.551263 86.810614 
L 288.551263 82.978218 
L 289.640943 82.978218 
L 289.640943 79.145822 
L 290.299363 79.145822 
L 290.299363 75.313426 
L 291.804229 75.313426 
L 291.909808 67.648634 
L 293.07399 67.648634 
L 293.07399 63.816238 
L 354.213265 63.816238 
L 354.213265 59.983842 
L 366.872279 59.983842 
L 366.872279 56.151446 
L 367.50546 56.151446 
L 367.50546 52.31905 
L 369.186704 52.31905 
L 369.229883 44.654257 
L 373.667431 44.654257 
L 373.667431 40.821861 
L 375.466303 40.821861 
L 375.466303 36.989465 
L 375.625755 36.989465 
L 375.625755 33.157069 
L 378.382285 33.157069 
L 378.382285 29.324673 
L 379.728753 29.324673 
L 379.728753 25.492277 
L 382.365877 25.492277 
L 382.365877 21.659881 
L 383.319223 21.659881 
L 383.319223 17.827485 
L 383.86001 17.827485 
L 383.86001 13.995089 
L 385.950778 13.995089 
L 385.950778 10.162693 
L 386.849196 10.162693 
L 386.849196 6.330297 
L 386.849196 6.330297 
L 460.8 6.330297 
L 460.8 6.330297 
" style="fill:none;stroke:#00bfbf;stroke-linecap:square;stroke-width:1.5;"/>
   </g>
   <g id="line2d_23">
    <path clip-path="url(#pcac60aba7f)" d="M 253.499326 293.76 
L 253.499326 289.927604 
L 256.129818 289.927604 
L 256.129818 286.095208 
L 258.60831 286.095208 
L 258.60831 282.262812 
L 259.094857 282.262812 
L 259.094857 278.430416 
L 259.744728 278.430416 
L 259.795986 270.765624 
L 260.444671 270.765624 
L 260.444671 266.933228 
L 260.568657 266.933228 
L 260.665495 259.268436 
L 260.988555 259.268436 
L 260.988555 255.43604 
L 261.58832 255.43604 
L 261.58832 251.603644 
L 261.785673 251.603644 
L 261.786883 243.938851 
L 262.847148 243.938851 
L 262.847148 240.106455 
L 263.071877 240.106455 
L 263.071877 236.274059 
L 266.269102 236.274059 
L 266.358053 228.609267 
L 266.805475 228.609267 
L 266.845625 220.944475 
L 267.222648 220.944475 
L 267.2898 213.279683 
L 267.990331 213.279683 
L 268.044153 205.614891 
L 268.360316 205.614891 
L 268.360316 201.782495 
L 268.724256 201.782495 
L 268.724256 197.950099 
L 268.847629 197.950099 
L 268.847629 194.117703 
L 269.285156 194.117703 
L 269.285156 190.285307 
L 269.533145 190.285307 
L 269.54615 182.620515 
L 269.665815 182.620515 
L 269.665815 178.788119 
L 278.130235 178.788119 
L 278.130235 174.955723 
L 279.074967 174.955723 
L 279.074967 171.123327 
L 279.444929 171.123327 
L 279.444929 167.290931 
L 280.018829 167.290931 
L 280.018829 163.458535 
L 281.093933 163.458535 
L 281.193478 155.793743 
L 281.581062 155.793743 
L 281.581062 151.961347 
L 281.731795 151.961347 
L 281.807274 144.296554 
L 282.132088 144.296554 
L 282.132088 140.464158 
L 282.569946 140.464158 
L 282.569946 136.631762 
L 283.003381 136.631762 
L 283.003381 132.799366 
L 283.314182 132.799366 
L 283.314182 128.96697 
L 283.748421 128.96697 
L 283.748421 125.134574 
L 284.548851 125.134574 
L 284.576417 117.469782 
L 284.838727 117.469782 
L 284.922199 109.80499 
L 285.236829 109.80499 
L 285.236829 105.972594 
L 285.723236 105.972594 
L 285.736602 98.307802 
L 286.187909 98.307802 
L 286.187909 94.475406 
L 286.626675 94.475406 
L 286.626675 90.64301 
L 286.848758 90.64301 
L 286.848758 86.810614 
L 288.551263 86.810614 
L 288.551263 82.978218 
L 289.311728 82.978218 
L 289.311728 79.145822 
L 289.543533 79.145822 
L 289.543533 75.313426 
L 290.299363 75.313426 
L 290.299363 71.48103 
L 291.804229 71.48103 
L 291.909808 63.816238 
L 354.213265 63.816238 
L 354.213265 59.983842 
L 366.872279 59.983842 
L 366.872279 56.151446 
L 367.50546 56.151446 
L 367.50546 52.31905 
L 369.186704 52.31905 
L 369.229883 44.654257 
L 372.625429 44.654257 
L 372.625429 40.821861 
L 373.667431 40.821861 
L 373.667431 36.989465 
L 375.209076 36.989465 
L 375.209076 33.157069 
L 375.466303 33.157069 
L 375.466303 29.324673 
L 375.625755 29.324673 
L 375.625755 25.492277 
L 378.382285 25.492277 
L 378.382285 21.659881 
L 381.832468 21.659881 
L 381.832468 17.827485 
L 382.43207 17.827485 
L 382.43207 13.995089 
L 382.759944 13.995089 
L 382.759944 10.162693 
L 383.319223 10.162693 
L 383.319223 6.330297 
L 383.319223 6.330297 
L 460.8 6.330297 
L 460.8 6.330297 
" style="fill:none;stroke:#bf00bf;stroke-linecap:square;stroke-width:1.5;"/>
   </g>
   <g id="line2d_24">
    <path clip-path="url(#pcac60aba7f)" d="M 253.499326 293.76 
L 253.499326 289.927604 
L 256.129818 289.927604 
L 256.129818 286.095208 
L 256.608396 286.095208 
L 256.608396 282.262812 
L 258.60831 282.262812 
L 258.60831 278.430416 
L 259.094857 278.430416 
L 259.094857 274.59802 
L 259.744728 274.59802 
L 259.795986 266.933228 
L 260.22379 266.933228 
L 260.22379 263.100832 
L 260.444671 263.100832 
L 260.444671 259.268436 
L 260.568657 259.268436 
L 260.665495 251.603644 
L 260.988555 251.603644 
L 260.988555 247.771248 
L 261.786883 247.771248 
L 261.786883 243.938851 
L 262.826868 243.938851 
L 262.826868 240.106455 
L 263.071877 240.106455 
L 263.071877 236.274059 
L 265.553653 236.274059 
L 265.553653 232.441663 
L 266.269102 232.441663 
L 266.358053 220.944475 
L 266.805475 220.944475 
L 266.805475 217.112079 
L 267.2898 217.112079 
L 267.392607 209.447287 
L 267.701038 209.447287 
L 267.701038 205.614891 
L 267.990331 205.614891 
L 267.990331 201.782495 
L 268.443695 201.782495 
L 268.443695 197.950099 
L 268.724256 197.950099 
L 268.724256 194.117703 
L 268.847629 194.117703 
L 268.847629 190.285307 
L 269.285156 190.285307 
L 269.285156 186.452911 
L 269.533145 186.452911 
L 269.54615 178.788119 
L 278.130235 178.788119 
L 278.130235 174.955723 
L 279.074967 174.955723 
L 279.074967 171.123327 
L 279.409994 171.123327 
L 279.444929 163.458535 
L 280.018829 163.458535 
L 280.018829 159.626139 
L 281.093933 159.626139 
L 281.193478 151.961347 
L 281.70125 151.961347 
L 281.807274 140.464158 
L 282.132088 140.464158 
L 282.132088 136.631762 
L 282.447844 136.631762 
L 282.447844 132.799366 
L 282.569946 132.799366 
L 282.569946 128.96697 
L 282.75608 128.96697 
L 282.788489 121.302178 
L 283.003381 121.302178 
L 283.003381 117.469782 
L 283.302913 117.469782 
L 283.302913 113.637386 
L 283.637898 113.637386 
L 283.637898 109.80499 
L 284.548851 109.80499 
L 284.576417 102.140198 
L 284.838727 102.140198 
L 284.922199 94.475406 
L 285.226028 94.475406 
L 285.226028 90.64301 
L 285.659724 90.64301 
L 285.736602 82.978218 
L 286.848758 82.978218 
L 286.848758 79.145822 
L 288.551263 79.145822 
L 288.551263 75.313426 
L 289.311728 75.313426 
L 289.311728 71.48103 
L 289.543533 71.48103 
L 289.543533 67.648634 
L 291.804229 67.648634 
L 291.804229 63.816238 
L 354.213265 63.816238 
L 354.213265 59.983842 
L 366.872279 59.983842 
L 366.872279 56.151446 
L 367.50546 56.151446 
L 367.50546 52.31905 
L 369.05322 52.31905 
L 369.05322 48.486653 
L 369.186704 48.486653 
L 369.229883 40.821861 
L 372.625429 40.821861 
L 372.625429 36.989465 
L 373.667431 36.989465 
L 373.667431 33.157069 
L 375.209076 33.157069 
L 375.209076 29.324673 
L 375.466303 29.324673 
L 375.466303 25.492277 
L 375.609429 25.492277 
L 375.609429 21.659881 
L 378.382285 21.659881 
L 378.382285 17.827485 
L 380.400096 17.827485 
L 380.400096 13.995089 
L 382.062227 13.995089 
L 382.062227 10.162693 
L 382.43207 10.162693 
L 382.43207 6.330297 
L 382.43207 6.330297 
L 460.8 6.330297 
L 460.8 6.330297 
" style="fill:none;stroke:#000000;stroke-linecap:square;stroke-width:1.5;"/>
   </g>
   <g id="line2d_25">
    <path clip-path="url(#pcac60aba7f)" d="M 252.10397 293.76 
L 252.10397 289.927604 
L 253.499326 289.927604 
L 253.499326 286.095208 
L 256.129818 286.095208 
L 256.129818 282.262812 
L 256.608396 282.262812 
L 256.608396 278.430416 
L 258.60831 278.430416 
L 258.60831 274.59802 
L 259.094857 274.59802 
L 259.094857 270.765624 
L 259.744728 270.765624 
L 259.795986 263.100832 
L 260.444671 263.100832 
L 260.444671 259.268436 
L 260.568657 259.268436 
L 260.665495 251.603644 
L 260.988555 251.603644 
L 260.988555 247.771248 
L 261.786883 247.771248 
L 261.786883 243.938851 
L 262.826868 243.938851 
L 262.826868 240.106455 
L 263.071877 240.106455 
L 263.071877 236.274059 
L 265.553653 236.274059 
L 265.553653 232.441663 
L 266.269102 232.441663 
L 266.358053 220.944475 
L 266.805475 220.944475 
L 266.805475 217.112079 
L 267.2898 217.112079 
L 267.392607 209.447287 
L 267.701038 209.447287 
L 267.701038 205.614891 
L 267.990331 205.614891 
L 267.990331 201.782495 
L 268.443695 201.782495 
L 268.443695 197.950099 
L 268.724256 197.950099 
L 268.724256 194.117703 
L 268.847629 194.117703 
L 268.847629 190.285307 
L 269.285156 190.285307 
L 269.285156 186.452911 
L 269.533145 186.452911 
L 269.54615 178.788119 
L 278.130235 178.788119 
L 278.130235 174.955723 
L 279.074967 174.955723 
L 279.074967 171.123327 
L 279.409994 171.123327 
L 279.444929 163.458535 
L 280.018829 163.458535 
L 280.018829 159.626139 
L 281.093933 159.626139 
L 281.193478 151.961347 
L 281.70125 151.961347 
L 281.807274 140.464158 
L 282.132088 140.464158 
L 282.132088 136.631762 
L 282.447844 136.631762 
L 282.447844 132.799366 
L 282.569946 132.799366 
L 282.569946 128.96697 
L 282.75608 128.96697 
L 282.788489 121.302178 
L 283.003381 121.302178 
L 283.003381 117.469782 
L 283.302913 117.469782 
L 283.302913 113.637386 
L 283.637898 113.637386 
L 283.637898 109.80499 
L 284.548851 109.80499 
L 284.576417 102.140198 
L 284.838727 102.140198 
L 284.922199 94.475406 
L 285.226028 94.475406 
L 285.226028 90.64301 
L 285.659724 90.64301 
L 285.736602 82.978218 
L 286.848758 82.978218 
L 286.848758 79.145822 
L 288.551263 79.145822 
L 288.551263 75.313426 
L 289.311728 75.313426 
L 289.311728 71.48103 
L 289.543533 71.48103 
L 289.543533 67.648634 
L 291.804229 67.648634 
L 291.804229 63.816238 
L 354.213265 63.816238 
L 354.213265 59.983842 
L 366.872279 59.983842 
L 366.872279 56.151446 
L 367.50546 56.151446 
L 367.50546 52.31905 
L 369.05322 52.31905 
L 369.05322 48.486653 
L 369.186704 48.486653 
L 369.229883 40.821861 
L 372.625429 40.821861 
L 372.625429 36.989465 
L 373.667431 36.989465 
L 373.667431 33.157069 
L 375.209076 33.157069 
L 375.209076 29.324673 
L 375.466303 29.324673 
L 375.466303 25.492277 
L 375.609429 25.492277 
L 375.609429 21.659881 
L 378.382285 21.659881 
L 378.382285 17.827485 
L 380.400096 17.827485 
L 380.400096 13.995089 
L 382.062227 13.995089 
L 382.062227 10.162693 
L 382.43207 10.162693 
L 382.43207 6.330297 
L 382.43207 6.330297 
L 460.8 6.330297 
L 460.8 6.330297 
" style="fill:none;stroke:#00bfbf;stroke-linecap:square;stroke-width:1.5;"/>
   </g>
   <g id="line2d_26">
    <path clip-path="url(#pcac60aba7f)" d="M 237.283136 293.76 
L 237.283136 289.927604 
L 253.499326 289.927604 
L 253.499326 286.095208 
L 256.129818 286.095208 
L 256.129818 282.262812 
L 256.608396 282.262812 
L 256.608396 278.430416 
L 258.60831 278.430416 
L 258.60831 274.59802 
L 259.094857 274.59802 
L 259.094857 270.765624 
L 259.744728 270.765624 
L 259.795986 263.100832 
L 260.444671 263.100832 
L 260.444671 259.268436 
L 260.568657 259.268436 
L 260.665495 251.603644 
L 260.988555 251.603644 
L 260.988555 247.771248 
L 261.786883 247.771248 
L 261.786883 243.938851 
L 262.826868 243.938851 
L 262.826868 240.106455 
L 263.071877 240.106455 
L 263.071877 236.274059 
L 265.553653 236.274059 
L 265.553653 232.441663 
L 266.269102 232.441663 
L 266.358053 220.944475 
L 266.805475 220.944475 
L 266.805475 217.112079 
L 267.2898 217.112079 
L 267.392607 209.447287 
L 267.701038 209.447287 
L 267.701038 205.614891 
L 267.990331 205.614891 
L 267.990331 201.782495 
L 268.443695 201.782495 
L 268.443695 197.950099 
L 268.724256 197.950099 
L 268.724256 194.117703 
L 268.847629 194.117703 
L 268.847629 190.285307 
L 269.285156 190.285307 
L 269.285156 186.452911 
L 269.533145 186.452911 
L 269.54615 178.788119 
L 278.130235 178.788119 
L 278.130235 174.955723 
L 279.074967 174.955723 
L 279.074967 171.123327 
L 279.409994 171.123327 
L 279.444929 163.458535 
L 280.018829 163.458535 
L 280.018829 159.626139 
L 281.093933 159.626139 
L 281.193478 151.961347 
L 281.70125 151.961347 
L 281.807274 140.464158 
L 282.132088 140.464158 
L 282.132088 136.631762 
L 282.447844 136.631762 
L 282.447844 132.799366 
L 282.569946 132.799366 
L 282.569946 128.96697 
L 282.75608 128.96697 
L 282.788489 121.302178 
L 283.003381 121.302178 
L 283.003381 117.469782 
L 283.302913 117.469782 
L 283.302913 113.637386 
L 283.637898 113.637386 
L 283.637898 109.80499 
L 284.548851 109.80499 
L 284.576417 102.140198 
L 284.838727 102.140198 
L 284.922199 94.475406 
L 285.226028 94.475406 
L 285.226028 90.64301 
L 285.659724 90.64301 
L 285.736602 82.978218 
L 286.848758 82.978218 
L 286.848758 79.145822 
L 288.551263 79.145822 
L 288.551263 75.313426 
L 289.311728 75.313426 
L 289.311728 71.48103 
L 289.543533 71.48103 
L 289.543533 67.648634 
L 291.804229 67.648634 
L 291.804229 63.816238 
L 354.213265 63.816238 
L 354.213265 59.983842 
L 366.872279 59.983842 
L 366.872279 56.151446 
L 367.50546 56.151446 
L 367.50546 52.31905 
L 369.05322 52.31905 
L 369.05322 48.486653 
L 369.186704 48.486653 
L 369.229883 40.821861 
L 372.625429 40.821861 
L 372.625429 36.989465 
L 373.667431 36.989465 
L 373.667431 33.157069 
L 375.209076 33.157069 
L 375.209076 29.324673 
L 375.466303 29.324673 
L 375.466303 25.492277 
L 375.609429 25.492277 
L 375.609429 21.659881 
L 378.382285 21.659881 
L 378.382285 17.827485 
L 380.400096 17.827485 
L 380.400096 13.995089 
L 382.062227 13.995089 
L 382.062227 10.162693 
L 382.43207 10.162693 
L 382.43207 6.330297 
L 382.43207 6.330297 
L 460.8 6.330297 
L 460.8 6.330297 
" style="fill:none;stroke:#bf00bf;stroke-linecap:square;stroke-width:1.5;"/>
   </g>
   <g id="line2d_27">
    <path clip-path="url(#pcac60aba7f)" d="M 231.854933 293.76 
L 231.854933 289.927604 
L 253.499326 289.927604 
L 253.499326 286.095208 
L 256.129818 286.095208 
L 256.129818 282.262812 
L 256.608396 282.262812 
L 256.608396 278.430416 
L 258.60831 278.430416 
L 258.60831 274.59802 
L 259.094857 274.59802 
L 259.094857 270.765624 
L 259.744728 270.765624 
L 259.795986 263.100832 
L 260.444671 263.100832 
L 260.444671 259.268436 
L 260.568657 259.268436 
L 260.665495 251.603644 
L 260.988555 251.603644 
L 260.988555 247.771248 
L 261.786883 247.771248 
L 261.786883 243.938851 
L 262.826868 243.938851 
L 262.826868 240.106455 
L 263.071877 240.106455 
L 263.071877 236.274059 
L 265.553653 236.274059 
L 265.553653 232.441663 
L 266.269102 232.441663 
L 266.358053 220.944475 
L 266.805475 220.944475 
L 266.805475 217.112079 
L 267.2898 217.112079 
L 267.392607 209.447287 
L 267.701038 209.447287 
L 267.701038 205.614891 
L 267.990331 205.614891 
L 267.990331 201.782495 
L 268.443695 201.782495 
L 268.443695 197.950099 
L 268.724256 197.950099 
L 268.724256 194.117703 
L 268.847629 194.117703 
L 268.847629 190.285307 
L 269.285156 190.285307 
L 269.285156 186.452911 
L 269.533145 186.452911 
L 269.54615 178.788119 
L 278.130235 178.788119 
L 278.130235 174.955723 
L 279.074967 174.955723 
L 279.074967 171.123327 
L 279.409994 171.123327 
L 279.444929 163.458535 
L 280.018829 163.458535 
L 280.018829 159.626139 
L 281.093933 159.626139 
L 281.193478 151.961347 
L 281.70125 151.961347 
L 281.807274 140.464158 
L 282.132088 140.464158 
L 282.132088 136.631762 
L 282.447844 136.631762 
L 282.447844 132.799366 
L 282.569946 132.799366 
L 282.569946 128.96697 
L 282.75608 128.96697 
L 282.788489 121.302178 
L 283.003381 121.302178 
L 283.003381 117.469782 
L 283.302913 117.469782 
L 283.302913 113.637386 
L 283.637898 113.637386 
L 283.637898 109.80499 
L 284.548851 109.80499 
L 284.576417 102.140198 
L 284.838727 102.140198 
L 284.922199 94.475406 
L 285.226028 94.475406 
L 285.226028 90.64301 
L 285.659724 90.64301 
L 285.736602 82.978218 
L 286.848758 82.978218 
L 286.848758 79.145822 
L 288.551263 79.145822 
L 288.551263 75.313426 
L 289.311728 75.313426 
L 289.311728 71.48103 
L 289.543533 71.48103 
L 289.543533 67.648634 
L 291.804229 67.648634 
L 291.804229 63.816238 
L 354.213265 63.816238 
L 354.213265 59.983842 
L 366.872279 59.983842 
L 366.872279 56.151446 
L 367.50546 56.151446 
L 367.50546 52.31905 
L 369.05322 52.31905 
L 369.05322 48.486653 
L 369.186704 48.486653 
L 369.229883 40.821861 
L 372.625429 40.821861 
L 372.625429 36.989465 
L 373.667431 36.989465 
L 373.667431 33.157069 
L 375.209076 33.157069 
L 375.209076 29.324673 
L 375.466303 29.324673 
L 375.466303 25.492277 
L 375.609429 25.492277 
L 375.609429 21.659881 
L 378.382285 21.659881 
L 378.382285 17.827485 
L 380.400096 17.827485 
L 380.400096 13.995089 
L 382.062227 13.995089 
L 382.062227 10.162693 
L 382.43207 10.162693 
L 382.43207 6.330297 
L 382.43207 6.330297 
L 460.8 6.330297 
L 460.8 6.330297 
" style="fill:none;stroke:#000000;stroke-linecap:square;stroke-width:1.5;"/>
   </g>
   <g id="line2d_28">
    <path clip-path="url(#pcac60aba7f)" d="M 170.438377 293.76 
L 170.438377 289.927604 
L 253.499326 289.927604 
L 253.499326 286.095208 
L 256.129818 286.095208 
L 256.129818 282.262812 
L 256.608396 282.262812 
L 256.608396 278.430416 
L 258.60831 278.430416 
L 258.60831 274.59802 
L 259.094857 274.59802 
L 259.094857 270.765624 
L 259.744728 270.765624 
L 259.795986 263.100832 
L 260.444671 263.100832 
L 260.444671 259.268436 
L 260.568657 259.268436 
L 260.665495 251.603644 
L 260.988555 251.603644 
L 260.988555 247.771248 
L 261.786883 247.771248 
L 261.786883 243.938851 
L 262.826868 243.938851 
L 262.826868 240.106455 
L 263.071877 240.106455 
L 263.071877 236.274059 
L 265.553653 236.274059 
L 265.553653 232.441663 
L 266.269102 232.441663 
L 266.358053 220.944475 
L 266.805475 220.944475 
L 266.805475 217.112079 
L 267.2898 217.112079 
L 267.392607 209.447287 
L 267.701038 209.447287 
L 267.701038 205.614891 
L 267.990331 205.614891 
L 267.990331 201.782495 
L 268.443695 201.782495 
L 268.443695 197.950099 
L 268.724256 197.950099 
L 268.724256 194.117703 
L 268.847629 194.117703 
L 268.847629 190.285307 
L 269.285156 190.285307 
L 269.285156 186.452911 
L 269.533145 186.452911 
L 269.54615 178.788119 
L 278.130235 178.788119 
L 278.130235 174.955723 
L 279.074967 174.955723 
L 279.074967 171.123327 
L 279.409994 171.123327 
L 279.444929 163.458535 
L 280.018829 163.458535 
L 280.018829 159.626139 
L 281.093933 159.626139 
L 281.193478 151.961347 
L 281.70125 151.961347 
L 281.807274 140.464158 
L 282.132088 140.464158 
L 282.132088 136.631762 
L 282.447844 136.631762 
L 282.447844 132.799366 
L 282.569946 132.799366 
L 282.569946 128.96697 
L 282.75608 128.96697 
L 282.788489 121.302178 
L 283.003381 121.302178 
L 283.003381 117.469782 
L 283.302913 117.469782 
L 283.302913 113.637386 
L 283.637898 113.637386 
L 283.637898 109.80499 
L 284.548851 109.80499 
L 284.576417 102.140198 
L 284.838727 102.140198 
L 284.922199 94.475406 
L 285.226028 94.475406 
L 285.226028 90.64301 
L 285.659724 90.64301 
L 285.736602 82.978218 
L 286.848758 82.978218 
L 286.848758 79.145822 
L 288.551263 79.145822 
L 288.551263 75.313426 
L 289.311728 75.313426 
L 289.311728 71.48103 
L 289.543533 71.48103 
L 289.543533 67.648634 
L 291.804229 67.648634 
L 291.804229 63.816238 
L 354.213265 63.816238 
L 354.213265 59.983842 
L 366.872279 59.983842 
L 366.872279 56.151446 
L 367.50546 56.151446 
L 367.50546 52.31905 
L 369.05322 52.31905 
L 369.05322 48.486653 
L 369.186704 48.486653 
L 369.229883 40.821861 
L 372.625429 40.821861 
L 372.625429 36.989465 
L 373.667431 36.989465 
L 373.667431 33.157069 
L 375.209076 33.157069 
L 375.209076 29.324673 
L 375.466303 29.324673 
L 375.466303 25.492277 
L 375.609429 25.492277 
L 375.609429 21.659881 
L 378.382285 21.659881 
L 378.382285 17.827485 
L 380.400096 17.827485 
L 380.400096 13.995089 
L 382.062227 13.995089 
L 382.062227 10.162693 
L 382.43207 10.162693 
L 382.43207 6.330297 
L 382.43207 6.330297 
L 460.8 6.330297 
L 460.8 6.330297 
" style="fill:none;stroke:#00bfbf;stroke-linecap:square;stroke-width:1.5;"/>
   </g>
   <g id="line2d_29">
    <path clip-path="url(#pcac60aba7f)" d="M 93.744625 293.76 
L 93.744625 289.927604 
L 253.499326 289.927604 
L 253.499326 286.095208 
L 256.129818 286.095208 
L 256.129818 282.262812 
L 256.608396 282.262812 
L 256.608396 278.430416 
L 258.60831 278.430416 
L 258.60831 274.59802 
L 259.094857 274.59802 
L 259.094857 270.765624 
L 259.744728 270.765624 
L 259.795986 263.100832 
L 260.444671 263.100832 
L 260.444671 259.268436 
L 260.568657 259.268436 
L 260.665495 251.603644 
L 260.988555 251.603644 
L 260.988555 247.771248 
L 261.786883 247.771248 
L 261.786883 243.938851 
L 262.826868 243.938851 
L 262.826868 240.106455 
L 263.071877 240.106455 
L 263.071877 236.274059 
L 265.553653 236.274059 
L 265.553653 232.441663 
L 266.269102 232.441663 
L 266.358053 220.944475 
L 266.805475 220.944475 
L 266.805475 217.112079 
L 267.2898 217.112079 
L 267.392607 209.447287 
L 267.701038 209.447287 
L 267.701038 205.614891 
L 267.990331 205.614891 
L 267.990331 201.782495 
L 268.443695 201.782495 
L 268.443695 197.950099 
L 268.724256 197.950099 
L 268.724256 194.117703 
L 268.847629 194.117703 
L 268.847629 190.285307 
L 269.285156 190.285307 
L 269.285156 186.452911 
L 269.533145 186.452911 
L 269.54615 178.788119 
L 278.130235 178.788119 
L 278.130235 174.955723 
L 279.074967 174.955723 
L 279.074967 171.123327 
L 279.409994 171.123327 
L 279.444929 163.458535 
L 280.018829 163.458535 
L 280.018829 159.626139 
L 281.093933 159.626139 
L 281.193478 151.961347 
L 281.70125 151.961347 
L 281.807274 140.464158 
L 282.132088 140.464158 
L 282.132088 136.631762 
L 282.447844 136.631762 
L 282.447844 132.799366 
L 282.569946 132.799366 
L 282.569946 128.96697 
L 282.75608 128.96697 
L 282.788489 121.302178 
L 283.003381 121.302178 
L 283.003381 117.469782 
L 283.302913 117.469782 
L 283.302913 113.637386 
L 283.637898 113.637386 
L 283.637898 109.80499 
L 284.548851 109.80499 
L 284.576417 102.140198 
L 284.838727 102.140198 
L 284.922199 94.475406 
L 285.226028 94.475406 
L 285.226028 90.64301 
L 285.659724 90.64301 
L 285.736602 82.978218 
L 286.848758 82.978218 
L 286.848758 79.145822 
L 288.551263 79.145822 
L 288.551263 75.313426 
L 289.311728 75.313426 
L 289.311728 71.48103 
L 289.543533 71.48103 
L 289.543533 67.648634 
L 291.804229 67.648634 
L 291.804229 63.816238 
L 354.213265 63.816238 
L 354.213265 59.983842 
L 366.872279 59.983842 
L 366.872279 56.151446 
L 367.50546 56.151446 
L 367.50546 52.31905 
L 369.05322 52.31905 
L 369.05322 48.486653 
L 369.186704 48.486653 
L 369.229883 40.821861 
L 372.625429 40.821861 
L 372.625429 36.989465 
L 373.667431 36.989465 
L 373.667431 33.157069 
L 375.209076 33.157069 
L 375.209076 29.324673 
L 375.466303 29.324673 
L 375.466303 25.492277 
L 375.609429 25.492277 
L 375.609429 21.659881 
L 378.382285 21.659881 
L 378.382285 17.827485 
L 380.400096 17.827485 
L 380.400096 13.995089 
L 382.062227 13.995089 
L 382.062227 10.162693 
L 382.43207 10.162693 
L 382.43207 6.330297 
L 382.43207 6.330297 
L 460.8 6.330297 
L 460.8 6.330297 
" style="fill:none;stroke:#bf00bf;stroke-linecap:square;stroke-width:1.5;"/>
   </g>
   <g id="patch_3">
    <path d="M 0 293.76 
L 0 3.456 
" style="fill:none;stroke:#000000;stroke-linecap:square;stroke-linejoin:miter;stroke-width:0.8;"/>
   </g>
   <g id="patch_4">
    <path d="M 460.8 293.76 
L 460.8 3.456 
" style="fill:none;stroke:#000000;stroke-linecap:square;stroke-linejoin:miter;stroke-width:0.8;"/>
   </g>
   <g id="patch_5">
    <path d="M 0 293.76 
L 460.8 293.76 
" style="fill:none;stroke:#000000;stroke-linecap:square;stroke-linejoin:miter;stroke-width:0.8;"/>
   </g>
   <g id="patch_6">
    <path d="M 0 3.456 
L 460.8 3.456 
" style="fill:none;stroke:#000000;stroke-linecap:square;stroke-linejoin:miter;stroke-width:0.8;"/>
   </g>
   <g id="text_6">
    <!-- {f1-f5}, 20-D -->
    <defs>
     <path d="M 51.125 -9.28125 
L 51.125 -16.3125 
L 48.09375 -16.3125 
Q 35.9375 -16.3125 31.8125 -12.6875 
Q 27.6875 -9.078125 27.6875 1.703125 
L 27.6875 13.375 
Q 27.6875 20.75 25.046875 23.578125 
Q 22.40625 26.421875 15.484375 26.421875 
L 12.5 26.421875 
L 12.5 33.40625 
L 15.484375 33.40625 
Q 22.46875 33.40625 25.078125 36.203125 
Q 27.6875 39.015625 27.6875 46.296875 
L 27.6875 58.015625 
Q 27.6875 68.796875 31.8125 72.390625 
Q 35.9375 75.984375 48.09375 75.984375 
L 51.125 75.984375 
L 51.125 69 
L 47.796875 69 
Q 40.921875 69 38.8125 66.84375 
Q 36.71875 64.703125 36.71875 57.8125 
L 36.71875 45.703125 
Q 36.71875 38.03125 34.5 34.5625 
Q 32.28125 31.109375 26.90625 29.890625 
Q 32.328125 28.5625 34.515625 25.09375 
Q 36.71875 21.625 36.71875 14.015625 
L 36.71875 1.90625 
Q 36.71875 -4.984375 38.8125 -7.125 
Q 40.921875 -9.28125 47.796875 -9.28125 
z
" id="DejaVuSans-123"/>
     <path d="M 10.796875 72.90625 
L 49.515625 72.90625 
L 49.515625 64.59375 
L 19.828125 64.59375 
L 19.828125 46.734375 
Q 21.96875 47.46875 24.109375 47.828125 
Q 26.265625 48.1875 28.421875 48.1875 
Q 40.625 48.1875 47.75 41.5 
Q 54.890625 34.8125 54.890625 23.390625 
Q 54.890625 11.625 47.5625 5.09375 
Q 40.234375 -1.421875 26.90625 -1.421875 
Q 22.3125 -1.421875 17.546875 -0.640625 
Q 12.796875 0.140625 7.71875 1.703125 
L 7.71875 11.625 
Q 12.109375 9.234375 16.796875 8.0625 
Q 21.484375 6.890625 26.703125 6.890625 
Q 35.15625 6.890625 40.078125 11.328125 
Q 45.015625 15.765625 45.015625 23.390625 
Q 45.015625 31 40.078125 35.4375 
Q 35.15625 39.890625 26.703125 39.890625 
Q 22.75 39.890625 18.8125 39.015625 
Q 14.890625 38.140625 10.796875 36.28125 
z
" id="DejaVuSans-53"/>
     <path d="M 12.5 -9.28125 
L 15.921875 -9.28125 
Q 22.75 -9.28125 24.828125 -7.171875 
Q 26.90625 -5.078125 26.90625 1.90625 
L 26.90625 14.015625 
Q 26.90625 21.625 29.09375 25.09375 
Q 31.296875 28.5625 36.71875 29.890625 
Q 31.296875 31.109375 29.09375 34.5625 
Q 26.90625 38.03125 26.90625 45.703125 
L 26.90625 57.8125 
Q 26.90625 64.75 24.828125 66.875 
Q 22.75 69 15.921875 69 
L 12.5 69 
L 12.5 75.984375 
L 15.578125 75.984375 
Q 27.734375 75.984375 31.8125 72.390625 
Q 35.890625 68.796875 35.890625 58.015625 
L 35.890625 46.296875 
Q 35.890625 39.015625 38.515625 36.203125 
Q 41.15625 33.40625 48.09375 33.40625 
L 51.125 33.40625 
L 51.125 26.421875 
L 48.09375 26.421875 
Q 41.15625 26.421875 38.515625 23.578125 
Q 35.890625 20.75 35.890625 13.375 
L 35.890625 1.703125 
Q 35.890625 -9.078125 31.8125 -12.6875 
Q 27.734375 -16.3125 15.578125 -16.3125 
L 12.5 -16.3125 
z
" id="DejaVuSans-125"/>
     <path d="M 11.71875 12.40625 
L 22.015625 12.40625 
L 22.015625 4 
L 14.015625 -11.625 
L 7.71875 -11.625 
L 11.71875 4 
z
" id="DejaVuSans-44"/>
     <path d="M 19.1875 8.296875 
L 53.609375 8.296875 
L 53.609375 0 
L 7.328125 0 
L 7.328125 8.296875 
Q 12.9375 14.109375 22.625 23.890625 
Q 32.328125 33.6875 34.8125 36.53125 
Q 39.546875 41.84375 41.421875 45.53125 
Q 43.3125 49.21875 43.3125 52.78125 
Q 43.3125 58.59375 39.234375 62.25 
Q 35.15625 65.921875 28.609375 65.921875 
Q 23.96875 65.921875 18.8125 64.3125 
Q 13.671875 62.703125 7.8125 59.421875 
L 7.8125 69.390625 
Q 13.765625 71.78125 18.9375 73 
Q 24.125 74.21875 28.421875 74.21875 
Q 39.75 74.21875 46.484375 68.546875 
Q 53.21875 62.890625 53.21875 53.421875 
Q 53.21875 48.921875 51.53125 44.890625 
Q 49.859375 40.875 45.40625 35.40625 
Q 44.1875 33.984375 37.640625 27.21875 
Q 31.109375 20.453125 19.1875 8.296875 
z
" id="DejaVuSans-50"/>
    </defs>
    <g transform="translate(318.609 287.95392)scale(0.2 -0.2)">
     <use xlink:href="#DejaVuSans-123"/>
     <use x="63.623047" xlink:href="#DejaVuSans-102"/>
     <use x="98.828125" xlink:href="#DejaVuSans-49"/>
     <use x="162.451172" xlink:href="#DejaVuSans-45"/>
     <use x="198.535156" xlink:href="#DejaVuSans-102"/>
     <use x="233.740234" xlink:href="#DejaVuSans-53"/>
     <use x="297.363281" xlink:href="#DejaVuSans-125"/>
     <use x="360.986328" xlink:href="#DejaVuSans-44"/>
     <use x="392.773438" xlink:href="#DejaVuSans-32"/>
     <use x="424.560547" xlink:href="#DejaVuSans-50"/>
     <use x="488.183594" xlink:href="#DejaVuSans-48"/>
     <use x="551.806641" xlink:href="#DejaVuSans-45"/>
     <use x="587.890625" xlink:href="#DejaVuSans-68"/>
    </g>
   </g>
   <g id="text_7">
    <!-- v2.4 -->
    <defs>
     <path d="M 2.984375 54.6875 
L 12.5 54.6875 
L 29.59375 8.796875 
L 46.6875 54.6875 
L 56.203125 54.6875 
L 35.6875 0 
L 23.484375 0 
z
" id="DejaVuSans-118"/>
     <path d="M 10.6875 12.40625 
L 21 12.40625 
L 21 0 
L 10.6875 0 
z
" id="DejaVuSans-46"/>
    </defs>
    <g style="fill:#808080;" transform="translate(219.489063 288.777272)scale(0.1 -0.1)">
     <use xlink:href="#DejaVuSans-118"/>
     <use x="59.179688" xlink:href="#DejaVuSans-50"/>
     <use x="122.802734" xlink:href="#DejaVuSans-46"/>
     <use x="154.589844" xlink:href="#DejaVuSans-52"/>
    </g>
   </g>
  </g>
 </g>
 <defs>
  <clipPath id="pcac60aba7f">
   <rect height="290.304" width="460.8" x="0" y="3.456"/>
  </clipPath>
 </defs>
</svg>
