<?xml version="1.0" encoding="utf-8" standalone="no"?>
<!DOCTYPE svg PUBLIC "-//W3C//DTD SVG 1.1//EN"
  "http://www.w3.org/Graphics/SVG/1.1/DTD/svg11.dtd">
<!-- Created with matplotlib (https://matplotlib.org/) -->
<svg height="345.6pt" version="1.1" viewBox="0 0 460.8 345.6" width="460.8pt" xmlns="http://www.w3.org/2000/svg" xmlns:xlink="http://www.w3.org/1999/xlink">
 <defs>
  <style type="text/css">
*{stroke-linecap:butt;stroke-linejoin:round;}
  </style>
 </defs>
 <g id="figure_1">
  <g id="patch_1">
   <path d="M 0 345.6 
L 460.8 345.6 
L 460.8 0 
L 0 0 
z
" style="fill:#ffffff;"/>
  </g>
  <g id="axes_1">
   <g id="patch_2">
    <path d="M 0 293.76 
L 460.8 293.76 
L 460.8 3.456 
L 0 3.456 
z
" style="fill:#ffffff;"/>
   </g>
   <g id="matplotlib.axis_1">
    <g id="xtick_1">
     <g id="line2d_1">
      <path clip-path="url(#ped9503a712)" d="M 108.103435 293.76 
L 108.103435 3.456 
" style="fill:none;stroke:#b0b0b0;stroke-linecap:square;stroke-width:0.8;"/>
     </g>
     <g id="line2d_2">
      <defs>
       <path d="M 0 0 
L 0 3.5 
" id="m8aea272e4e" style="stroke:#000000;stroke-width:0.8;"/>
      </defs>
      <g>
       <use style="stroke:#000000;stroke-width:0.8;" x="108.103435" xlink:href="#m8aea272e4e" y="293.76"/>
      </g>
     </g>
     <g id="text_1">
      <!-- -4 -->
      <defs>
       <path d="M 4.890625 31.390625 
L 31.203125 31.390625 
L 31.203125 23.390625 
L 4.890625 23.390625 
z
" id="DejaVuSans-45"/>
       <path d="M 37.796875 64.3125 
L 12.890625 25.390625 
L 37.796875 25.390625 
z
M 35.203125 72.90625 
L 47.609375 72.90625 
L 47.609375 25.390625 
L 58.015625 25.390625 
L 58.015625 17.1875 
L 47.609375 17.1875 
L 47.609375 0 
L 37.796875 0 
L 37.796875 17.1875 
L 4.890625 17.1875 
L 4.890625 26.703125 
z
" id="DejaVuSans-52"/>
      </defs>
      <g transform="translate(98.133123 315.956875)scale(0.2 -0.2)">
       <use xlink:href="#DejaVuSans-45"/>
       <use x="36.083984" xlink:href="#DejaVuSans-52"/>
      </g>
     </g>
    </g>
    <g id="xtick_2">
     <g id="line2d_3">
      <path clip-path="url(#ped9503a712)" d="M 216.323786 293.76 
L 216.323786 3.456 
" style="fill:none;stroke:#b0b0b0;stroke-linecap:square;stroke-width:0.8;"/>
     </g>
     <g id="line2d_4">
      <g>
       <use style="stroke:#000000;stroke-width:0.8;" x="216.323786" xlink:href="#m8aea272e4e" y="293.76"/>
      </g>
     </g>
     <g id="text_2">
      <!-- 0 -->
      <defs>
       <path d="M 31.78125 66.40625 
Q 24.171875 66.40625 20.328125 58.90625 
Q 16.5 51.421875 16.5 36.375 
Q 16.5 21.390625 20.328125 13.890625 
Q 24.171875 6.390625 31.78125 6.390625 
Q 39.453125 6.390625 43.28125 13.890625 
Q 47.125 21.390625 47.125 36.375 
Q 47.125 51.421875 43.28125 58.90625 
Q 39.453125 66.40625 31.78125 66.40625 
z
M 31.78125 74.21875 
Q 44.046875 74.21875 50.515625 64.515625 
Q 56.984375 54.828125 56.984375 36.375 
Q 56.984375 17.96875 50.515625 8.265625 
Q 44.046875 -1.421875 31.78125 -1.421875 
Q 19.53125 -1.421875 13.0625 8.265625 
Q 6.59375 17.96875 6.59375 36.375 
Q 6.59375 54.828125 13.0625 64.515625 
Q 19.53125 74.21875 31.78125 74.21875 
z
" id="DejaVuSans-48"/>
      </defs>
      <g transform="translate(209.961286 315.956875)scale(0.2 -0.2)">
       <use xlink:href="#DejaVuSans-48"/>
      </g>
     </g>
    </g>
    <g id="xtick_3">
     <g id="line2d_5">
      <path clip-path="url(#ped9503a712)" d="M 324.544137 293.76 
L 324.544137 3.456 
" style="fill:none;stroke:#b0b0b0;stroke-linecap:square;stroke-width:0.8;"/>
     </g>
     <g id="line2d_6">
      <g>
       <use style="stroke:#000000;stroke-width:0.8;" x="324.544137" xlink:href="#m8aea272e4e" y="293.76"/>
      </g>
     </g>
     <g id="text_3">
      <!-- 4 -->
      <g transform="translate(318.181637 315.956875)scale(0.2 -0.2)">
       <use xlink:href="#DejaVuSans-52"/>
      </g>
     </g>
    </g>
    <g id="xtick_4">
     <g id="line2d_7">
      <path clip-path="url(#ped9503a712)" d="M 432.764487 293.76 
L 432.764487 3.456 
" style="fill:none;stroke:#b0b0b0;stroke-linecap:square;stroke-width:0.8;"/>
     </g>
     <g id="line2d_8">
      <g>
       <use style="stroke:#000000;stroke-width:0.8;" x="432.764487" xlink:href="#m8aea272e4e" y="293.76"/>
      </g>
     </g>
     <g id="text_4">
      <!-- 8 -->
      <defs>
       <path d="M 31.78125 34.625 
Q 24.75 34.625 20.71875 30.859375 
Q 16.703125 27.09375 16.703125 20.515625 
Q 16.703125 13.921875 20.71875 10.15625 
Q 24.75 6.390625 31.78125 6.390625 
Q 38.8125 6.390625 42.859375 10.171875 
Q 46.921875 13.96875 46.921875 20.515625 
Q 46.921875 27.09375 42.890625 30.859375 
Q 38.875 34.625 31.78125 34.625 
z
M 21.921875 38.8125 
Q 15.578125 40.375 12.03125 44.71875 
Q 8.5 49.078125 8.5 55.328125 
Q 8.5 64.0625 14.71875 69.140625 
Q 20.953125 74.21875 31.78125 74.21875 
Q 42.671875 74.21875 48.875 69.140625 
Q 55.078125 64.0625 55.078125 55.328125 
Q 55.078125 49.078125 51.53125 44.71875 
Q 48 40.375 41.703125 38.8125 
Q 48.828125 37.15625 52.796875 32.3125 
Q 56.78125 27.484375 56.78125 20.515625 
Q 56.78125 9.90625 50.3125 4.234375 
Q 43.84375 -1.421875 31.78125 -1.421875 
Q 19.734375 -1.421875 13.25 4.234375 
Q 6.78125 9.90625 6.78125 20.515625 
Q 6.78125 27.484375 10.78125 32.3125 
Q 14.796875 37.15625 21.921875 38.8125 
z
M 18.3125 54.390625 
Q 18.3125 48.734375 21.84375 45.5625 
Q 25.390625 42.390625 31.78125 42.390625 
Q 38.140625 42.390625 41.71875 45.5625 
Q 45.3125 48.734375 45.3125 54.390625 
Q 45.3125 60.0625 41.71875 63.234375 
Q 38.140625 66.40625 31.78125 66.40625 
Q 25.390625 66.40625 21.84375 63.234375 
Q 18.3125 60.0625 18.3125 54.390625 
z
" id="DejaVuSans-56"/>
      </defs>
      <g transform="translate(426.401987 315.956875)scale(0.2 -0.2)">
       <use xlink:href="#DejaVuSans-56"/>
      </g>
     </g>
    </g>
    <g id="text_5">
     <!-- log10 of Df -->
     <defs>
      <path d="M 9.421875 75.984375 
L 18.40625 75.984375 
L 18.40625 0 
L 9.421875 0 
z
" id="DejaVuSans-108"/>
      <path d="M 30.609375 48.390625 
Q 23.390625 48.390625 19.1875 42.75 
Q 14.984375 37.109375 14.984375 27.296875 
Q 14.984375 17.484375 19.15625 11.84375 
Q 23.34375 6.203125 30.609375 6.203125 
Q 37.796875 6.203125 41.984375 11.859375 
Q 46.1875 17.53125 46.1875 27.296875 
Q 46.1875 37.015625 41.984375 42.703125 
Q 37.796875 48.390625 30.609375 48.390625 
z
M 30.609375 56 
Q 42.328125 56 49.015625 48.375 
Q 55.71875 40.765625 55.71875 27.296875 
Q 55.71875 13.875 49.015625 6.21875 
Q 42.328125 -1.421875 30.609375 -1.421875 
Q 18.84375 -1.421875 12.171875 6.21875 
Q 5.515625 13.875 5.515625 27.296875 
Q 5.515625 40.765625 12.171875 48.375 
Q 18.84375 56 30.609375 56 
z
" id="DejaVuSans-111"/>
      <path d="M 45.40625 27.984375 
Q 45.40625 37.75 41.375 43.109375 
Q 37.359375 48.484375 30.078125 48.484375 
Q 22.859375 48.484375 18.828125 43.109375 
Q 14.796875 37.75 14.796875 27.984375 
Q 14.796875 18.265625 18.828125 12.890625 
Q 22.859375 7.515625 30.078125 7.515625 
Q 37.359375 7.515625 41.375 12.890625 
Q 45.40625 18.265625 45.40625 27.984375 
z
M 54.390625 6.78125 
Q 54.390625 -7.171875 48.1875 -13.984375 
Q 42 -20.796875 29.203125 -20.796875 
Q 24.46875 -20.796875 20.265625 -20.09375 
Q 16.0625 -19.390625 12.109375 -17.921875 
L 12.109375 -9.1875 
Q 16.0625 -11.328125 19.921875 -12.34375 
Q 23.78125 -13.375 27.78125 -13.375 
Q 36.625 -13.375 41.015625 -8.765625 
Q 45.40625 -4.15625 45.40625 5.171875 
L 45.40625 9.625 
Q 42.625 4.78125 38.28125 2.390625 
Q 33.9375 0 27.875 0 
Q 17.828125 0 11.671875 7.65625 
Q 5.515625 15.328125 5.515625 27.984375 
Q 5.515625 40.671875 11.671875 48.328125 
Q 17.828125 56 27.875 56 
Q 33.9375 56 38.28125 53.609375 
Q 42.625 51.21875 45.40625 46.390625 
L 45.40625 54.6875 
L 54.390625 54.6875 
z
" id="DejaVuSans-103"/>
      <path d="M 12.40625 8.296875 
L 28.515625 8.296875 
L 28.515625 63.921875 
L 10.984375 60.40625 
L 10.984375 69.390625 
L 28.421875 72.90625 
L 38.28125 72.90625 
L 38.28125 8.296875 
L 54.390625 8.296875 
L 54.390625 0 
L 12.40625 0 
z
" id="DejaVuSans-49"/>
      <path id="DejaVuSans-32"/>
      <path d="M 37.109375 75.984375 
L 37.109375 68.5 
L 28.515625 68.5 
Q 23.6875 68.5 21.796875 66.546875 
Q 19.921875 64.59375 19.921875 59.515625 
L 19.921875 54.6875 
L 34.71875 54.6875 
L 34.71875 47.703125 
L 19.921875 47.703125 
L 19.921875 0 
L 10.890625 0 
L 10.890625 47.703125 
L 2.296875 47.703125 
L 2.296875 54.6875 
L 10.890625 54.6875 
L 10.890625 58.5 
Q 10.890625 67.625 15.140625 71.796875 
Q 19.390625 75.984375 28.609375 75.984375 
z
" id="DejaVuSans-102"/>
      <path d="M 19.671875 64.796875 
L 19.671875 8.109375 
L 31.59375 8.109375 
Q 46.6875 8.109375 53.6875 14.9375 
Q 60.6875 21.78125 60.6875 36.53125 
Q 60.6875 51.171875 53.6875 57.984375 
Q 46.6875 64.796875 31.59375 64.796875 
z
M 9.8125 72.90625 
L 30.078125 72.90625 
Q 51.265625 72.90625 61.171875 64.09375 
Q 71.09375 55.28125 71.09375 36.53125 
Q 71.09375 17.671875 61.125 8.828125 
Q 51.171875 0 30.078125 0 
L 9.8125 0 
z
" id="DejaVuSans-68"/>
     </defs>
     <g transform="translate(175.214063 339.313125)scale(0.2 -0.2)">
      <use xlink:href="#DejaVuSans-108"/>
      <use x="27.783203" xlink:href="#DejaVuSans-111"/>
      <use x="88.964844" xlink:href="#DejaVuSans-103"/>
      <use x="152.441406" xlink:href="#DejaVuSans-49"/>
      <use x="216.064453" xlink:href="#DejaVuSans-48"/>
      <use x="279.6875" xlink:href="#DejaVuSans-32"/>
      <use x="311.474609" xlink:href="#DejaVuSans-111"/>
      <use x="372.65625" xlink:href="#DejaVuSans-102"/>
      <use x="407.861328" xlink:href="#DejaVuSans-32"/>
      <use x="439.648438" xlink:href="#DejaVuSans-68"/>
      <use x="516.650391" xlink:href="#DejaVuSans-102"/>
     </g>
    </g>
   </g>
   <g id="matplotlib.axis_2">
    <g id="ytick_1">
     <g id="line2d_9">
      <path clip-path="url(#ped9503a712)" d="M 0 293.76 
L 460.8 293.76 
" style="fill:none;stroke:#b0b0b0;stroke-linecap:square;stroke-width:0.8;"/>
     </g>
     <g id="line2d_10">
      <defs>
       <path d="M 0 0 
L -3.5 0 
" id="m7434faa37e" style="stroke:#000000;stroke-width:0.8;"/>
      </defs>
      <g>
       <use style="stroke:#000000;stroke-width:0.8;" x="0" xlink:href="#m7434faa37e" y="293.76"/>
      </g>
     </g>
    </g>
    <g id="ytick_2">
     <g id="line2d_11">
      <path clip-path="url(#ped9503a712)" d="M 0 236.274059 
L 460.8 236.274059 
" style="fill:none;stroke:#b0b0b0;stroke-linecap:square;stroke-width:0.8;"/>
     </g>
     <g id="line2d_12">
      <g>
       <use style="stroke:#000000;stroke-width:0.8;" x="0" xlink:href="#m7434faa37e" y="236.274059"/>
      </g>
     </g>
    </g>
    <g id="ytick_3">
     <g id="line2d_13">
      <path clip-path="url(#ped9503a712)" d="M 0 178.788119 
L 460.8 178.788119 
" style="fill:none;stroke:#b0b0b0;stroke-linecap:square;stroke-width:0.8;"/>
     </g>
     <g id="line2d_14">
      <g>
       <use style="stroke:#000000;stroke-width:0.8;" x="0" xlink:href="#m7434faa37e" y="178.788119"/>
      </g>
     </g>
    </g>
    <g id="ytick_4">
     <g id="line2d_15">
      <path clip-path="url(#ped9503a712)" d="M 0 121.302178 
L 460.8 121.302178 
" style="fill:none;stroke:#b0b0b0;stroke-linecap:square;stroke-width:0.8;"/>
     </g>
     <g id="line2d_16">
      <g>
       <use style="stroke:#000000;stroke-width:0.8;" x="0" xlink:href="#m7434faa37e" y="121.302178"/>
      </g>
     </g>
    </g>
    <g id="ytick_5">
     <g id="line2d_17">
      <path clip-path="url(#ped9503a712)" d="M 0 63.816238 
L 460.8 63.816238 
" style="fill:none;stroke:#b0b0b0;stroke-linecap:square;stroke-width:0.8;"/>
     </g>
     <g id="line2d_18">
      <g>
       <use style="stroke:#000000;stroke-width:0.8;" x="0" xlink:href="#m7434faa37e" y="63.816238"/>
      </g>
     </g>
    </g>
    <g id="ytick_6">
     <g id="line2d_19">
      <path clip-path="url(#ped9503a712)" d="M 0 6.330297 
L 460.8 6.330297 
" style="fill:none;stroke:#b0b0b0;stroke-linecap:square;stroke-width:0.8;"/>
     </g>
     <g id="line2d_20">
      <g>
       <use style="stroke:#000000;stroke-width:0.8;" x="0" xlink:href="#m7434faa37e" y="6.330297"/>
      </g>
     </g>
    </g>
   </g>
   <g id="line2d_21">
    <path clip-path="url(#ped9503a712)" d="M 224.620377 293.76 
L 224.620377 289.927604 
L 228.667622 289.927604 
L 228.667622 286.095208 
L 230.284027 286.095208 
L 230.284027 282.262812 
L 233.394796 282.262812 
L 233.394796 278.430416 
L 236.299856 278.430416 
L 236.299856 274.59802 
L 237.358091 274.59802 
L 237.358091 270.765624 
L 237.588696 270.765624 
L 237.588696 266.933228 
L 239.640217 266.933228 
L 239.640217 263.100832 
L 241.246175 263.100832 
L 241.306209 255.43604 
L 243.577053 255.43604 
L 243.577053 251.603644 
L 244.436267 251.603644 
L 244.436267 247.771248 
L 246.219657 247.771248 
L 246.219657 243.938851 
L 246.94608 243.938851 
L 246.94608 240.106455 
L 247.586075 240.106455 
L 247.586075 236.274059 
L 267.295374 236.274059 
L 267.295374 232.441663 
L 275.89749 232.441663 
L 275.89749 228.609267 
L 284.837468 228.609267 
L 284.837468 224.776871 
L 287.180387 224.776871 
L 287.180387 220.944475 
L 287.987744 220.944475 
L 288.088155 213.279683 
L 288.234753 213.279683 
L 288.234753 209.447287 
L 289.099548 209.447287 
L 289.172431 201.782495 
L 289.360519 201.782495 
L 289.471572 194.117703 
L 289.702308 194.117703 
L 289.799484 186.452911 
L 289.966061 186.452911 
L 289.966061 182.620515 
L 291.872562 182.620515 
L 291.872562 178.788119 
L 293.237131 178.788119 
L 293.237131 174.955723 
L 293.616766 174.955723 
L 293.616766 171.123327 
L 294.693886 171.123327 
L 294.693886 167.290931 
L 297.20182 167.290931 
L 297.20182 163.458535 
L 302.264408 163.458535 
L 302.264408 159.626139 
L 308.415588 159.626139 
L 308.415588 155.793743 
L 316.610998 155.793743 
L 316.610998 151.961347 
L 337.115847 151.961347 
L 337.115847 148.12895 
L 338.351459 148.12895 
L 338.351459 144.296554 
L 341.332808 144.296554 
L 341.332808 140.464158 
L 341.666331 140.464158 
L 341.73871 132.799366 
L 345.110931 132.799366 
L 345.110931 128.96697 
L 345.823529 128.96697 
L 345.823529 125.134574 
L 347.118056 125.134574 
L 347.118056 121.302178 
L 352.107993 121.302178 
L 352.107993 117.469782 
L 353.847085 117.469782 
L 353.847085 113.637386 
L 354.624612 113.637386 
L 354.656059 105.972594 
L 355.960524 105.972594 
L 355.960524 102.140198 
L 356.810477 102.140198 
L 356.810477 98.307802 
L 357.553682 98.307802 
L 357.553682 94.475406 
L 361.356856 94.475406 
L 361.406676 82.978218 
L 362.315761 82.978218 
L 362.315761 79.145822 
L 363.813567 79.145822 
L 363.813567 75.313426 
L 364.907784 75.313426 
L 364.907784 71.48103 
L 370.415739 71.48103 
L 370.415739 67.648634 
L 371.783908 67.648634 
L 371.783908 63.816238 
L 385.708277 63.816238 
L 385.708277 59.983842 
L 393.937195 59.983842 
L 393.937195 56.151446 
L 397.971907 56.151446 
L 397.971907 52.31905 
L 398.937266 52.31905 
L 398.987028 44.654257 
L 403.16588 44.654257 
L 403.16588 40.821861 
L 403.562748 40.821861 
L 403.616381 33.157069 
L 404.194676 33.157069 
L 404.194676 29.324673 
L 404.309934 29.324673 
L 404.309934 25.492277 
L 409.142994 25.492277 
L 409.142994 21.659881 
L 409.447115 21.659881 
L 409.447115 17.827485 
L 412.918929 17.827485 
L 412.918929 13.995089 
L 415.115869 13.995089 
L 415.115869 10.162693 
L 418.479614 10.162693 
L 418.479614 6.330297 
L 418.479614 6.330297 
L 460.8 6.330297 
L 460.8 6.330297 
" style="fill:none;stroke:#ff0000;stroke-linecap:square;stroke-width:3;"/>
   </g>
   <g id="line2d_22">
    <path clip-path="url(#ped9503a712)" d="M 231.402011 293.76 
L 231.402011 289.927604 
L 246.998159 289.927604 
L 246.998159 286.095208 
L 249.251932 286.095208 
L 249.251932 282.262812 
L 251.460019 282.262812 
L 251.460019 278.430416 
L 252.082754 278.430416 
L 252.082754 274.59802 
L 252.640263 274.59802 
L 252.640263 270.765624 
L 253.726271 270.765624 
L 253.726271 266.933228 
L 257.275072 266.933228 
L 257.275072 263.100832 
L 258.946995 263.100832 
L 258.946995 259.268436 
L 259.349273 259.268436 
L 259.349273 255.43604 
L 260.870605 255.43604 
L 260.870605 251.603644 
L 264.886978 251.603644 
L 264.886978 247.771248 
L 265.568173 247.771248 
L 265.568173 243.938851 
L 266.25281 243.938851 
L 266.25281 240.106455 
L 268.633961 240.106455 
L 268.633961 236.274059 
L 290.515689 236.274059 
L 290.515689 232.441663 
L 291.158152 232.441663 
L 291.158152 228.609267 
L 291.710038 228.609267 
L 291.710038 224.776871 
L 293.616766 224.776871 
L 293.616766 220.944475 
L 294.195151 220.944475 
L 294.195151 217.112079 
L 294.331779 217.112079 
L 294.331779 213.279683 
L 296.284903 213.279683 
L 296.284903 209.447287 
L 296.783635 209.447287 
L 296.783635 205.614891 
L 297.055266 205.614891 
L 297.055266 201.782495 
L 297.683156 201.782495 
L 297.683156 197.950099 
L 298.786277 197.950099 
L 298.786277 194.117703 
L 299.68978 194.117703 
L 299.68978 190.285307 
L 300.969055 190.285307 
L 300.969055 186.452911 
L 305.065583 186.452911 
L 305.065583 182.620515 
L 307.371853 182.620515 
L 307.371853 178.788119 
L 353.111643 178.788119 
L 353.111643 174.955723 
L 357.470002 174.955723 
L 357.470002 171.123327 
L 361.398483 171.123327 
L 361.398483 167.290931 
L 362.315761 167.290931 
L 362.315761 163.458535 
L 366.925831 163.458535 
L 366.925831 159.626139 
L 368.25701 159.626139 
L 368.25701 155.793743 
L 371.856218 155.793743 
L 371.856218 151.961347 
L 372.036739 151.961347 
L 372.036739 148.12895 
L 372.243932 148.12895 
L 372.243932 144.296554 
L 380.526687 144.296554 
L 380.526687 140.464158 
L 384.174099 140.464158 
L 384.174099 136.631762 
L 387.049179 136.631762 
L 387.049179 132.799366 
L 388.475111 132.799366 
L 388.475111 128.96697 
L 388.66762 128.96697 
L 388.66762 125.134574 
L 389.335878 125.134574 
L 389.335878 121.302178 
L 392.836679 121.302178 
L 392.836679 117.469782 
L 394.292083 117.469782 
L 394.292083 113.637386 
L 394.404404 113.637386 
L 394.404404 109.80499 
L 395.178719 109.80499 
L 395.178719 105.972594 
L 395.522407 105.972594 
L 395.522407 102.140198 
L 396.73281 102.140198 
L 396.73281 98.307802 
L 397.971907 98.307802 
L 397.971907 94.475406 
L 399.735114 94.475406 
L 399.735114 90.64301 
L 401.442997 90.64301 
L 401.442997 86.810614 
L 404.455255 86.810614 
L 404.455255 82.978218 
L 405.240591 82.978218 
L 405.240591 79.145822 
L 406.807651 79.145822 
L 406.807651 75.313426 
L 407.341412 75.313426 
L 407.341412 71.48103 
L 409.549546 71.48103 
L 409.549546 67.648634 
L 409.943918 67.648634 
L 409.986442 59.983842 
L 414.408923 59.983842 
L 414.408923 56.151446 
L 417.935702 56.151446 
L 417.935702 52.31905 
L 418.38421 52.31905 
L 418.38421 48.486653 
L 419.266841 48.486653 
L 419.266841 44.654257 
L 422.455239 44.654257 
L 422.455239 40.821861 
L 422.974703 40.821861 
L 422.974703 36.989465 
L 423.089884 36.989465 
L 423.089884 33.157069 
L 426.613108 33.157069 
L 426.613108 29.324673 
L 427.450291 29.324673 
L 427.529344 21.659881 
L 427.985148 21.659881 
L 427.985148 17.827485 
L 431.709697 17.827485 
L 431.709697 13.995089 
L 432.988543 13.995089 
L 432.988543 10.162693 
L 438.766742 10.162693 
L 438.766742 6.330297 
L 438.766742 6.330297 
L 460.8 6.330297 
L 460.8 6.330297 
" style="fill:none;stroke:#00bfbf;stroke-linecap:square;stroke-width:1.5;"/>
   </g>
   <g id="line2d_23">
    <path clip-path="url(#ped9503a712)" d="M 231.402011 293.76 
L 231.402011 289.927604 
L 234.799105 289.927604 
L 234.799105 286.095208 
L 238.159498 286.095208 
L 238.159498 282.262812 
L 243.577053 282.262812 
L 243.577053 278.430416 
L 246.998159 278.430416 
L 246.998159 274.59802 
L 249.251932 274.59802 
L 249.251932 270.765624 
L 252.082754 270.765624 
L 252.082754 266.933228 
L 252.246188 266.933228 
L 252.246188 263.100832 
L 252.51444 263.100832 
L 252.51444 259.268436 
L 252.640263 259.268436 
L 252.640263 255.43604 
L 252.82269 255.43604 
L 252.82269 251.603644 
L 253.726271 251.603644 
L 253.726271 247.771248 
L 253.844104 247.771248 
L 253.844104 243.938851 
L 255.60438 243.938851 
L 255.60438 240.106455 
L 257.275561 240.106455 
L 257.275561 236.274059 
L 275.89749 236.274059 
L 275.89749 232.441663 
L 289.099548 232.441663 
L 289.099548 228.609267 
L 290.515689 228.609267 
L 290.515689 224.776871 
L 291.158152 224.776871 
L 291.158152 220.944475 
L 291.710038 220.944475 
L 291.710038 217.112079 
L 292.237273 217.112079 
L 292.237273 213.279683 
L 293.616766 213.279683 
L 293.616766 209.447287 
L 294.195151 209.447287 
L 294.195151 205.614891 
L 294.331779 205.614891 
L 294.331779 201.782495 
L 295.428983 201.782495 
L 295.428983 197.950099 
L 296.232627 197.950099 
L 296.284903 190.285307 
L 297.683156 190.285307 
L 297.683156 186.452911 
L 298.786277 186.452911 
L 298.786277 182.620515 
L 300.942379 182.620515 
L 300.969055 174.955723 
L 316.610998 174.955723 
L 316.610998 171.123327 
L 329.485891 171.123327 
L 329.485891 167.290931 
L 336.875033 167.290931 
L 336.875033 163.458535 
L 341.245536 163.458535 
L 341.245536 159.626139 
L 352.107993 159.626139 
L 352.107993 155.793743 
L 353.847085 155.793743 
L 353.847085 151.961347 
L 357.470002 151.961347 
L 357.553682 144.296554 
L 358.45219 144.296554 
L 358.45219 140.464158 
L 360.387954 140.464158 
L 360.387954 136.631762 
L 361.398483 136.631762 
L 361.398483 132.799366 
L 362.315761 132.799366 
L 362.315761 128.96697 
L 364.907784 128.96697 
L 364.907784 125.134574 
L 366.925831 125.134574 
L 367.012445 117.469782 
L 369.529216 117.469782 
L 369.529216 113.637386 
L 370.427584 113.637386 
L 370.427584 109.80499 
L 371.705915 109.80499 
L 371.705915 105.972594 
L 371.901876 105.972594 
L 371.901876 102.140198 
L 372.243932 102.140198 
L 372.243932 98.307802 
L 374.723504 98.307802 
L 374.723504 94.475406 
L 380.526687 94.475406 
L 380.526687 90.64301 
L 382.787011 90.64301 
L 382.787011 86.810614 
L 383.544443 86.810614 
L 383.544443 82.978218 
L 384.174099 82.978218 
L 384.174099 79.145822 
L 385.990138 79.145822 
L 385.990138 75.313426 
L 387.049179 75.313426 
L 387.049179 71.48103 
L 388.536819 71.48103 
L 388.536819 67.648634 
L 391.373109 67.648634 
L 391.373109 63.816238 
L 397.971907 63.816238 
L 397.971907 59.983842 
L 403.616381 59.983842 
L 403.616381 56.151446 
L 404.250176 56.151446 
L 404.309934 48.486653 
L 406.945067 48.486653 
L 406.945067 44.654257 
L 407.148319 44.654257 
L 407.148319 40.821861 
L 414.811175 40.821861 
L 414.811175 36.989465 
L 418.38421 36.989465 
L 418.38421 33.157069 
L 419.266841 33.157069 
L 419.266841 29.324673 
L 422.359702 29.324673 
L 422.359702 25.492277 
L 423.089884 25.492277 
L 423.089884 21.659881 
L 426.613108 21.659881 
L 426.613108 17.827485 
L 427.985148 17.827485 
L 427.985148 13.995089 
L 428.442856 13.995089 
L 428.442856 10.162693 
L 432.988543 10.162693 
L 432.988543 6.330297 
L 432.988543 6.330297 
L 460.8 6.330297 
L 460.8 6.330297 
" style="fill:none;stroke:#bf00bf;stroke-linecap:square;stroke-width:1.5;"/>
   </g>
   <g id="line2d_24">
    <path clip-path="url(#ped9503a712)" d="M 228.667622 293.76 
L 228.667622 289.927604 
L 230.284027 289.927604 
L 230.284027 286.095208 
L 234.799105 286.095208 
L 234.799105 282.262812 
L 237.358091 282.262812 
L 237.358091 278.430416 
L 238.159498 278.430416 
L 238.159498 274.59802 
L 240.90653 274.59802 
L 240.90653 270.765624 
L 241.306209 270.765624 
L 241.306209 266.933228 
L 242.40551 266.933228 
L 242.40551 263.100832 
L 243.376944 263.100832 
L 243.376944 259.268436 
L 243.577053 259.268436 
L 243.577053 255.43604 
L 244.336757 255.43604 
L 244.336757 251.603644 
L 246.219657 251.603644 
L 246.219657 247.771248 
L 247.586075 247.771248 
L 247.586075 243.938851 
L 250.274822 243.938851 
L 250.274822 240.106455 
L 252.246188 240.106455 
L 252.246188 236.274059 
L 267.295374 236.274059 
L 267.295374 232.441663 
L 275.89749 232.441663 
L 275.89749 228.609267 
L 284.837468 228.609267 
L 284.837468 224.776871 
L 289.099548 224.776871 
L 289.172431 217.112079 
L 289.360519 217.112079 
L 289.471572 209.447287 
L 289.702308 209.447287 
L 289.702308 205.614891 
L 291.509183 205.614891 
L 291.509183 201.782495 
L 291.710038 201.782495 
L 291.710038 197.950099 
L 291.99694 197.950099 
L 291.99694 194.117703 
L 292.358193 194.117703 
L 292.358193 190.285307 
L 293.616766 190.285307 
L 293.616766 186.452911 
L 294.906506 186.452911 
L 294.906506 182.620515 
L 296.232627 182.620515 
L 296.232627 178.788119 
L 298.786277 178.788119 
L 298.786277 174.955723 
L 300.942379 174.955723 
L 300.942379 171.123327 
L 302.264408 171.123327 
L 302.264408 167.290931 
L 316.610998 167.290931 
L 316.610998 163.458535 
L 329.485891 163.458535 
L 329.485891 159.626139 
L 335.610633 159.626139 
L 335.610633 155.793743 
L 338.351459 155.793743 
L 338.351459 151.961347 
L 341.666331 151.961347 
L 341.666331 148.12895 
L 342.161769 148.12895 
L 342.161769 144.296554 
L 345.110931 144.296554 
L 345.110931 140.464158 
L 352.107993 140.464158 
L 352.107993 136.631762 
L 353.847085 136.631762 
L 353.847085 132.799366 
L 355.807744 132.799366 
L 355.807744 128.96697 
L 357.133658 128.96697 
L 357.133658 125.134574 
L 357.305379 125.134574 
L 357.305379 121.302178 
L 357.553682 121.302178 
L 357.553682 117.469782 
L 358.45219 117.469782 
L 358.45219 113.637386 
L 360.387954 113.637386 
L 360.387954 109.80499 
L 361.070981 109.80499 
L 361.070981 105.972594 
L 361.398483 105.972594 
L 361.406676 98.307802 
L 362.315761 98.307802 
L 362.315761 94.475406 
L 363.813567 94.475406 
L 363.813567 90.64301 
L 364.521183 90.64301 
L 364.521183 86.810614 
L 364.907784 86.810614 
L 364.907784 82.978218 
L 370.112676 82.978218 
L 370.150846 75.313426 
L 371.901876 75.313426 
L 371.901876 71.48103 
L 372.243932 71.48103 
L 372.243932 67.648634 
L 374.723504 67.648634 
L 374.723504 63.816238 
L 397.971907 63.816238 
L 397.971907 59.983842 
L 398.937266 59.983842 
L 398.937266 56.151446 
L 403.16588 56.151446 
L 403.16588 52.31905 
L 403.616381 52.31905 
L 403.616381 48.486653 
L 404.250176 48.486653 
L 404.309934 40.821861 
L 405.405001 40.821861 
L 405.405001 36.989465 
L 406.945067 36.989465 
L 406.945067 33.157069 
L 407.148319 33.157069 
L 407.148319 29.324673 
L 409.447115 29.324673 
L 409.447115 25.492277 
L 414.811175 25.492277 
L 414.893379 17.827485 
L 418.479614 17.827485 
L 418.479614 13.995089 
L 423.089884 13.995089 
L 423.089884 10.162693 
L 427.039329 10.162693 
L 427.039329 6.330297 
L 427.039329 6.330297 
L 460.8 6.330297 
L 460.8 6.330297 
" style="fill:none;stroke:#000000;stroke-linecap:square;stroke-width:1.5;"/>
   </g>
   <g id="line2d_25">
    <path clip-path="url(#ped9503a712)" d="M 224.620377 293.76 
L 224.620377 289.927604 
L 228.667622 289.927604 
L 228.667622 286.095208 
L 230.284027 286.095208 
L 230.284027 282.262812 
L 233.394796 282.262812 
L 233.394796 278.430416 
L 236.299856 278.430416 
L 236.299856 274.59802 
L 237.358091 274.59802 
L 237.358091 270.765624 
L 237.588696 270.765624 
L 237.588696 266.933228 
L 239.640217 266.933228 
L 239.640217 263.100832 
L 241.246175 263.100832 
L 241.306209 255.43604 
L 243.577053 255.43604 
L 243.577053 251.603644 
L 244.436267 251.603644 
L 244.436267 247.771248 
L 246.219657 247.771248 
L 246.219657 243.938851 
L 246.94608 243.938851 
L 246.94608 240.106455 
L 247.586075 240.106455 
L 247.586075 236.274059 
L 267.295374 236.274059 
L 267.295374 232.441663 
L 275.89749 232.441663 
L 275.89749 228.609267 
L 284.837468 228.609267 
L 284.837468 224.776871 
L 287.180387 224.776871 
L 287.180387 220.944475 
L 287.987744 220.944475 
L 288.088155 213.279683 
L 288.234753 213.279683 
L 288.234753 209.447287 
L 289.099548 209.447287 
L 289.172431 201.782495 
L 289.360519 201.782495 
L 289.471572 194.117703 
L 289.702308 194.117703 
L 289.799484 186.452911 
L 289.966061 186.452911 
L 289.966061 182.620515 
L 291.872562 182.620515 
L 291.872562 178.788119 
L 293.237131 178.788119 
L 293.237131 174.955723 
L 293.616766 174.955723 
L 293.616766 171.123327 
L 294.693886 171.123327 
L 294.693886 167.290931 
L 302.264408 167.290931 
L 302.264408 163.458535 
L 308.415588 163.458535 
L 308.415588 159.626139 
L 316.610998 159.626139 
L 316.610998 155.793743 
L 337.115847 155.793743 
L 337.115847 151.961347 
L 338.351459 151.961347 
L 338.351459 148.12895 
L 341.332808 148.12895 
L 341.332808 144.296554 
L 341.666331 144.296554 
L 341.73871 136.631762 
L 345.110931 136.631762 
L 345.110931 132.799366 
L 345.823529 132.799366 
L 345.823529 128.96697 
L 347.118056 128.96697 
L 347.118056 125.134574 
L 352.107993 125.134574 
L 352.107993 121.302178 
L 353.847085 121.302178 
L 353.847085 117.469782 
L 354.624612 117.469782 
L 354.656059 109.80499 
L 355.960524 109.80499 
L 355.960524 105.972594 
L 356.810477 105.972594 
L 356.810477 102.140198 
L 357.553682 102.140198 
L 357.553682 98.307802 
L 360.387954 98.307802 
L 360.387954 94.475406 
L 361.356856 94.475406 
L 361.406676 82.978218 
L 362.315761 82.978218 
L 362.315761 79.145822 
L 363.813567 79.145822 
L 363.813567 75.313426 
L 364.907784 75.313426 
L 364.907784 71.48103 
L 370.415739 71.48103 
L 370.415739 67.648634 
L 371.783908 67.648634 
L 371.783908 63.816238 
L 385.708277 63.816238 
L 385.708277 59.983842 
L 393.937195 59.983842 
L 393.937195 56.151446 
L 397.971907 56.151446 
L 397.971907 52.31905 
L 398.937266 52.31905 
L 398.987028 44.654257 
L 403.16588 44.654257 
L 403.16588 40.821861 
L 403.562748 40.821861 
L 403.616381 33.157069 
L 404.194676 33.157069 
L 404.194676 29.324673 
L 404.309934 29.324673 
L 404.309934 25.492277 
L 409.142994 25.492277 
L 409.142994 21.659881 
L 409.447115 21.659881 
L 409.447115 17.827485 
L 412.918929 17.827485 
L 412.918929 13.995089 
L 415.115869 13.995089 
L 415.115869 10.162693 
L 418.479614 10.162693 
L 418.479614 6.330297 
L 418.479614 6.330297 
L 460.8 6.330297 
L 460.8 6.330297 
" style="fill:none;stroke:#00bfbf;stroke-linecap:square;stroke-width:1.5;"/>
   </g>
   <g id="line2d_26">
    <path clip-path="url(#ped9503a712)" d="M 224.620377 293.76 
L 224.620377 289.927604 
L 228.667622 289.927604 
L 228.667622 286.095208 
L 230.284027 286.095208 
L 230.284027 282.262812 
L 233.394796 282.262812 
L 233.394796 278.430416 
L 236.299856 278.430416 
L 236.299856 274.59802 
L 237.358091 274.59802 
L 237.358091 270.765624 
L 237.588696 270.765624 
L 237.588696 266.933228 
L 239.640217 266.933228 
L 239.640217 263.100832 
L 241.246175 263.100832 
L 241.306209 255.43604 
L 243.577053 255.43604 
L 243.577053 251.603644 
L 244.436267 251.603644 
L 244.436267 247.771248 
L 246.219657 247.771248 
L 246.219657 243.938851 
L 246.94608 243.938851 
L 246.94608 240.106455 
L 247.586075 240.106455 
L 247.586075 236.274059 
L 267.295374 236.274059 
L 267.295374 232.441663 
L 275.89749 232.441663 
L 275.89749 228.609267 
L 284.837468 228.609267 
L 284.837468 224.776871 
L 287.180387 224.776871 
L 287.180387 220.944475 
L 287.987744 220.944475 
L 288.088155 213.279683 
L 288.234753 213.279683 
L 288.234753 209.447287 
L 289.099548 209.447287 
L 289.172431 201.782495 
L 289.360519 201.782495 
L 289.471572 194.117703 
L 289.702308 194.117703 
L 289.799484 186.452911 
L 289.966061 186.452911 
L 289.966061 182.620515 
L 291.872562 182.620515 
L 291.872562 178.788119 
L 293.237131 178.788119 
L 293.237131 174.955723 
L 293.616766 174.955723 
L 293.616766 171.123327 
L 294.693886 171.123327 
L 294.693886 167.290931 
L 297.20182 167.290931 
L 297.20182 163.458535 
L 302.264408 163.458535 
L 302.264408 159.626139 
L 308.415588 159.626139 
L 308.415588 155.793743 
L 316.610998 155.793743 
L 316.610998 151.961347 
L 337.115847 151.961347 
L 337.115847 148.12895 
L 338.351459 148.12895 
L 338.351459 144.296554 
L 341.332808 144.296554 
L 341.332808 140.464158 
L 341.666331 140.464158 
L 341.73871 132.799366 
L 345.110931 132.799366 
L 345.110931 128.96697 
L 345.823529 128.96697 
L 345.823529 125.134574 
L 347.118056 125.134574 
L 347.118056 121.302178 
L 352.107993 121.302178 
L 352.107993 117.469782 
L 353.847085 117.469782 
L 353.847085 113.637386 
L 354.624612 113.637386 
L 354.656059 105.972594 
L 355.960524 105.972594 
L 355.960524 102.140198 
L 356.810477 102.140198 
L 356.810477 98.307802 
L 357.553682 98.307802 
L 357.553682 94.475406 
L 361.356856 94.475406 
L 361.406676 82.978218 
L 362.315761 82.978218 
L 362.315761 79.145822 
L 363.813567 79.145822 
L 363.813567 75.313426 
L 364.907784 75.313426 
L 364.907784 71.48103 
L 370.415739 71.48103 
L 370.415739 67.648634 
L 371.783908 67.648634 
L 371.783908 63.816238 
L 385.708277 63.816238 
L 385.708277 59.983842 
L 393.937195 59.983842 
L 393.937195 56.151446 
L 397.971907 56.151446 
L 397.971907 52.31905 
L 398.937266 52.31905 
L 398.987028 44.654257 
L 403.16588 44.654257 
L 403.16588 40.821861 
L 403.562748 40.821861 
L 403.616381 33.157069 
L 404.194676 33.157069 
L 404.194676 29.324673 
L 404.309934 29.324673 
L 404.309934 25.492277 
L 409.142994 25.492277 
L 409.142994 21.659881 
L 409.447115 21.659881 
L 409.447115 17.827485 
L 412.918929 17.827485 
L 412.918929 13.995089 
L 415.115869 13.995089 
L 415.115869 10.162693 
L 418.479614 10.162693 
L 418.479614 6.330297 
L 418.479614 6.330297 
L 460.8 6.330297 
L 460.8 6.330297 
" style="fill:none;stroke:#bf00bf;stroke-linecap:square;stroke-width:1.5;"/>
   </g>
   <g id="patch_3">
    <path d="M 0 293.76 
L 0 3.456 
" style="fill:none;stroke:#000000;stroke-linecap:square;stroke-linejoin:miter;stroke-width:0.8;"/>
   </g>
   <g id="patch_4">
    <path d="M 460.8 293.76 
L 460.8 3.456 
" style="fill:none;stroke:#000000;stroke-linecap:square;stroke-linejoin:miter;stroke-width:0.8;"/>
   </g>
   <g id="patch_5">
    <path d="M 0 293.76 
L 460.8 293.76 
" style="fill:none;stroke:#000000;stroke-linecap:square;stroke-linejoin:miter;stroke-width:0.8;"/>
   </g>
   <g id="patch_6">
    <path d="M 0 3.456 
L 460.8 3.456 
" style="fill:none;stroke:#000000;stroke-linecap:square;stroke-linejoin:miter;stroke-width:0.8;"/>
   </g>
   <g id="text_6">
    <!-- {f10-f14}, 5-D -->
    <defs>
     <path d="M 51.125 -9.28125 
L 51.125 -16.3125 
L 48.09375 -16.3125 
Q 35.9375 -16.3125 31.8125 -12.6875 
Q 27.6875 -9.078125 27.6875 1.703125 
L 27.6875 13.375 
Q 27.6875 20.75 25.046875 23.578125 
Q 22.40625 26.421875 15.484375 26.421875 
L 12.5 26.421875 
L 12.5 33.40625 
L 15.484375 33.40625 
Q 22.46875 33.40625 25.078125 36.203125 
Q 27.6875 39.015625 27.6875 46.296875 
L 27.6875 58.015625 
Q 27.6875 68.796875 31.8125 72.390625 
Q 35.9375 75.984375 48.09375 75.984375 
L 51.125 75.984375 
L 51.125 69 
L 47.796875 69 
Q 40.921875 69 38.8125 66.84375 
Q 36.71875 64.703125 36.71875 57.8125 
L 36.71875 45.703125 
Q 36.71875 38.03125 34.5 34.5625 
Q 32.28125 31.109375 26.90625 29.890625 
Q 32.328125 28.5625 34.515625 25.09375 
Q 36.71875 21.625 36.71875 14.015625 
L 36.71875 1.90625 
Q 36.71875 -4.984375 38.8125 -7.125 
Q 40.921875 -9.28125 47.796875 -9.28125 
z
" id="DejaVuSans-123"/>
     <path d="M 12.5 -9.28125 
L 15.921875 -9.28125 
Q 22.75 -9.28125 24.828125 -7.171875 
Q 26.90625 -5.078125 26.90625 1.90625 
L 26.90625 14.015625 
Q 26.90625 21.625 29.09375 25.09375 
Q 31.296875 28.5625 36.71875 29.890625 
Q 31.296875 31.109375 29.09375 34.5625 
Q 26.90625 38.03125 26.90625 45.703125 
L 26.90625 57.8125 
Q 26.90625 64.75 24.828125 66.875 
Q 22.75 69 15.921875 69 
L 12.5 69 
L 12.5 75.984375 
L 15.578125 75.984375 
Q 27.734375 75.984375 31.8125 72.390625 
Q 35.890625 68.796875 35.890625 58.015625 
L 35.890625 46.296875 
Q 35.890625 39.015625 38.515625 36.203125 
Q 41.15625 33.40625 48.09375 33.40625 
L 51.125 33.40625 
L 51.125 26.421875 
L 48.09375 26.421875 
Q 41.15625 26.421875 38.515625 23.578125 
Q 35.890625 20.75 35.890625 13.375 
L 35.890625 1.703125 
Q 35.890625 -9.078125 31.8125 -12.6875 
Q 27.734375 -16.3125 15.578125 -16.3125 
L 12.5 -16.3125 
z
" id="DejaVuSans-125"/>
     <path d="M 11.71875 12.40625 
L 22.015625 12.40625 
L 22.015625 4 
L 14.015625 -11.625 
L 7.71875 -11.625 
L 11.71875 4 
z
" id="DejaVuSans-44"/>
     <path d="M 10.796875 72.90625 
L 49.515625 72.90625 
L 49.515625 64.59375 
L 19.828125 64.59375 
L 19.828125 46.734375 
Q 21.96875 47.46875 24.109375 47.828125 
Q 26.265625 48.1875 28.421875 48.1875 
Q 40.625 48.1875 47.75 41.5 
Q 54.890625 34.8125 54.890625 23.390625 
Q 54.890625 11.625 47.5625 5.09375 
Q 40.234375 -1.421875 26.90625 -1.421875 
Q 22.3125 -1.421875 17.546875 -0.640625 
Q 12.796875 0.140625 7.71875 1.703125 
L 7.71875 11.625 
Q 12.109375 9.234375 16.796875 8.0625 
Q 21.484375 6.890625 26.703125 6.890625 
Q 35.15625 6.890625 40.078125 11.328125 
Q 45.015625 15.765625 45.015625 23.390625 
Q 45.015625 31 40.078125 35.4375 
Q 35.15625 39.890625 26.703125 39.890625 
Q 22.75 39.890625 18.8125 39.015625 
Q 14.890625 38.140625 10.796875 36.28125 
z
" id="DejaVuSans-53"/>
    </defs>
    <g transform="translate(305.884 287.95392)scale(0.2 -0.2)">
     <use xlink:href="#DejaVuSans-123"/>
     <use x="63.623047" xlink:href="#DejaVuSans-102"/>
     <use x="98.828125" xlink:href="#DejaVuSans-49"/>
     <use x="162.451172" xlink:href="#DejaVuSans-48"/>
     <use x="226.074219" xlink:href="#DejaVuSans-45"/>
     <use x="262.158203" xlink:href="#DejaVuSans-102"/>
     <use x="297.363281" xlink:href="#DejaVuSans-49"/>
     <use x="360.986328" xlink:href="#DejaVuSans-52"/>
     <use x="424.609375" xlink:href="#DejaVuSans-125"/>
     <use x="488.232422" xlink:href="#DejaVuSans-44"/>
     <use x="520.019531" xlink:href="#DejaVuSans-32"/>
     <use x="551.806641" xlink:href="#DejaVuSans-53"/>
     <use x="615.429688" xlink:href="#DejaVuSans-45"/>
     <use x="651.513672" xlink:href="#DejaVuSans-68"/>
    </g>
   </g>
   <g id="text_7">
    <!-- v2.4 -->
    <defs>
     <path d="M 2.984375 54.6875 
L 12.5 54.6875 
L 29.59375 8.796875 
L 46.6875 54.6875 
L 56.203125 54.6875 
L 35.6875 0 
L 23.484375 0 
z
" id="DejaVuSans-118"/>
     <path d="M 19.1875 8.296875 
L 53.609375 8.296875 
L 53.609375 0 
L 7.328125 0 
L 7.328125 8.296875 
Q 12.9375 14.109375 22.625 23.890625 
Q 32.328125 33.6875 34.8125 36.53125 
Q 39.546875 41.84375 41.421875 45.53125 
Q 43.3125 49.21875 43.3125 52.78125 
Q 43.3125 58.59375 39.234375 62.25 
Q 35.15625 65.921875 28.609375 65.921875 
Q 23.96875 65.921875 18.8125 64.3125 
Q 13.671875 62.703125 7.8125 59.421875 
L 7.8125 69.390625 
Q 13.765625 71.78125 18.9375 73 
Q 24.125 74.21875 28.421875 74.21875 
Q 39.75 74.21875 46.484375 68.546875 
Q 53.21875 62.890625 53.21875 53.421875 
Q 53.21875 48.921875 51.53125 44.890625 
Q 49.859375 40.875 45.40625 35.40625 
Q 44.1875 33.984375 37.640625 27.21875 
Q 31.109375 20.453125 19.1875 8.296875 
z
" id="DejaVuSans-50"/>
     <path d="M 10.6875 12.40625 
L 21 12.40625 
L 21 0 
L 10.6875 0 
z
" id="DejaVuSans-46"/>
    </defs>
    <g style="fill:#808080;" transform="translate(219.489063 288.777272)scale(0.1 -0.1)">
     <use xlink:href="#DejaVuSans-118"/>
     <use x="59.179688" xlink:href="#DejaVuSans-50"/>
     <use x="122.802734" xlink:href="#DejaVuSans-46"/>
     <use x="154.589844" xlink:href="#DejaVuSans-52"/>
    </g>
   </g>
  </g>
 </g>
 <defs>
  <clipPath id="ped9503a712">
   <rect height="290.304" width="460.8" x="0" y="3.456"/>
  </clipPath>
 </defs>
</svg>
