<?xml version="1.0" encoding="utf-8" standalone="no"?>
<!DOCTYPE svg PUBLIC "-//W3C//DTD SVG 1.1//EN"
  "http://www.w3.org/Graphics/SVG/1.1/DTD/svg11.dtd">
<!-- Created with matplotlib (https://matplotlib.org/) -->
<svg height="345.6pt" version="1.1" viewBox="0 0 460.8 345.6" width="460.8pt" xmlns="http://www.w3.org/2000/svg" xmlns:xlink="http://www.w3.org/1999/xlink">
 <defs>
  <style type="text/css">
*{stroke-linecap:butt;stroke-linejoin:round;}
  </style>
 </defs>
 <g id="figure_1">
  <g id="patch_1">
   <path d="M 0 345.6 
L 460.8 345.6 
L 460.8 0 
L 0 0 
z
" style="fill:#ffffff;"/>
  </g>
  <g id="axes_1">
   <g id="patch_2">
    <path d="M 0 293.76 
L 460.8 293.76 
L 460.8 3.456 
L 0 3.456 
z
" style="fill:#ffffff;"/>
   </g>
   <g id="matplotlib.axis_1">
    <g id="xtick_1">
     <g id="line2d_1">
      <path clip-path="url(#pdaab2664a6)" d="M 108.103435 293.76 
L 108.103435 3.456 
" style="fill:none;stroke:#b0b0b0;stroke-linecap:square;stroke-width:0.8;"/>
     </g>
     <g id="line2d_2">
      <defs>
       <path d="M 0 0 
L 0 3.5 
" id="mf96f8da4f5" style="stroke:#000000;stroke-width:0.8;"/>
      </defs>
      <g>
       <use style="stroke:#000000;stroke-width:0.8;" x="108.103435" xlink:href="#mf96f8da4f5" y="293.76"/>
      </g>
     </g>
     <g id="text_1">
      <!-- -4 -->
      <defs>
       <path d="M 4.890625 31.390625 
L 31.203125 31.390625 
L 31.203125 23.390625 
L 4.890625 23.390625 
z
" id="DejaVuSans-45"/>
       <path d="M 37.796875 64.3125 
L 12.890625 25.390625 
L 37.796875 25.390625 
z
M 35.203125 72.90625 
L 47.609375 72.90625 
L 47.609375 25.390625 
L 58.015625 25.390625 
L 58.015625 17.1875 
L 47.609375 17.1875 
L 47.609375 0 
L 37.796875 0 
L 37.796875 17.1875 
L 4.890625 17.1875 
L 4.890625 26.703125 
z
" id="DejaVuSans-52"/>
      </defs>
      <g transform="translate(98.133123 315.956875)scale(0.2 -0.2)">
       <use xlink:href="#DejaVuSans-45"/>
       <use x="36.083984" xlink:href="#DejaVuSans-52"/>
      </g>
     </g>
    </g>
    <g id="xtick_2">
     <g id="line2d_3">
      <path clip-path="url(#pdaab2664a6)" d="M 216.323786 293.76 
L 216.323786 3.456 
" style="fill:none;stroke:#b0b0b0;stroke-linecap:square;stroke-width:0.8;"/>
     </g>
     <g id="line2d_4">
      <g>
       <use style="stroke:#000000;stroke-width:0.8;" x="216.323786" xlink:href="#mf96f8da4f5" y="293.76"/>
      </g>
     </g>
     <g id="text_2">
      <!-- 0 -->
      <defs>
       <path d="M 31.78125 66.40625 
Q 24.171875 66.40625 20.328125 58.90625 
Q 16.5 51.421875 16.5 36.375 
Q 16.5 21.390625 20.328125 13.890625 
Q 24.171875 6.390625 31.78125 6.390625 
Q 39.453125 6.390625 43.28125 13.890625 
Q 47.125 21.390625 47.125 36.375 
Q 47.125 51.421875 43.28125 58.90625 
Q 39.453125 66.40625 31.78125 66.40625 
z
M 31.78125 74.21875 
Q 44.046875 74.21875 50.515625 64.515625 
Q 56.984375 54.828125 56.984375 36.375 
Q 56.984375 17.96875 50.515625 8.265625 
Q 44.046875 -1.421875 31.78125 -1.421875 
Q 19.53125 -1.421875 13.0625 8.265625 
Q 6.59375 17.96875 6.59375 36.375 
Q 6.59375 54.828125 13.0625 64.515625 
Q 19.53125 74.21875 31.78125 74.21875 
z
" id="DejaVuSans-48"/>
      </defs>
      <g transform="translate(209.961286 315.956875)scale(0.2 -0.2)">
       <use xlink:href="#DejaVuSans-48"/>
      </g>
     </g>
    </g>
    <g id="xtick_3">
     <g id="line2d_5">
      <path clip-path="url(#pdaab2664a6)" d="M 324.544137 293.76 
L 324.544137 3.456 
" style="fill:none;stroke:#b0b0b0;stroke-linecap:square;stroke-width:0.8;"/>
     </g>
     <g id="line2d_6">
      <g>
       <use style="stroke:#000000;stroke-width:0.8;" x="324.544137" xlink:href="#mf96f8da4f5" y="293.76"/>
      </g>
     </g>
     <g id="text_3">
      <!-- 4 -->
      <g transform="translate(318.181637 315.956875)scale(0.2 -0.2)">
       <use xlink:href="#DejaVuSans-52"/>
      </g>
     </g>
    </g>
    <g id="xtick_4">
     <g id="line2d_7">
      <path clip-path="url(#pdaab2664a6)" d="M 432.764487 293.76 
L 432.764487 3.456 
" style="fill:none;stroke:#b0b0b0;stroke-linecap:square;stroke-width:0.8;"/>
     </g>
     <g id="line2d_8">
      <g>
       <use style="stroke:#000000;stroke-width:0.8;" x="432.764487" xlink:href="#mf96f8da4f5" y="293.76"/>
      </g>
     </g>
     <g id="text_4">
      <!-- 8 -->
      <defs>
       <path d="M 31.78125 34.625 
Q 24.75 34.625 20.71875 30.859375 
Q 16.703125 27.09375 16.703125 20.515625 
Q 16.703125 13.921875 20.71875 10.15625 
Q 24.75 6.390625 31.78125 6.390625 
Q 38.8125 6.390625 42.859375 10.171875 
Q 46.921875 13.96875 46.921875 20.515625 
Q 46.921875 27.09375 42.890625 30.859375 
Q 38.875 34.625 31.78125 34.625 
z
M 21.921875 38.8125 
Q 15.578125 40.375 12.03125 44.71875 
Q 8.5 49.078125 8.5 55.328125 
Q 8.5 64.0625 14.71875 69.140625 
Q 20.953125 74.21875 31.78125 74.21875 
Q 42.671875 74.21875 48.875 69.140625 
Q 55.078125 64.0625 55.078125 55.328125 
Q 55.078125 49.078125 51.53125 44.71875 
Q 48 40.375 41.703125 38.8125 
Q 48.828125 37.15625 52.796875 32.3125 
Q 56.78125 27.484375 56.78125 20.515625 
Q 56.78125 9.90625 50.3125 4.234375 
Q 43.84375 -1.421875 31.78125 -1.421875 
Q 19.734375 -1.421875 13.25 4.234375 
Q 6.78125 9.90625 6.78125 20.515625 
Q 6.78125 27.484375 10.78125 32.3125 
Q 14.796875 37.15625 21.921875 38.8125 
z
M 18.3125 54.390625 
Q 18.3125 48.734375 21.84375 45.5625 
Q 25.390625 42.390625 31.78125 42.390625 
Q 38.140625 42.390625 41.71875 45.5625 
Q 45.3125 48.734375 45.3125 54.390625 
Q 45.3125 60.0625 41.71875 63.234375 
Q 38.140625 66.40625 31.78125 66.40625 
Q 25.390625 66.40625 21.84375 63.234375 
Q 18.3125 60.0625 18.3125 54.390625 
z
" id="DejaVuSans-56"/>
      </defs>
      <g transform="translate(426.401987 315.956875)scale(0.2 -0.2)">
       <use xlink:href="#DejaVuSans-56"/>
      </g>
     </g>
    </g>
    <g id="text_5">
     <!-- log10 of Df -->
     <defs>
      <path d="M 9.421875 75.984375 
L 18.40625 75.984375 
L 18.40625 0 
L 9.421875 0 
z
" id="DejaVuSans-108"/>
      <path d="M 30.609375 48.390625 
Q 23.390625 48.390625 19.1875 42.75 
Q 14.984375 37.109375 14.984375 27.296875 
Q 14.984375 17.484375 19.15625 11.84375 
Q 23.34375 6.203125 30.609375 6.203125 
Q 37.796875 6.203125 41.984375 11.859375 
Q 46.1875 17.53125 46.1875 27.296875 
Q 46.1875 37.015625 41.984375 42.703125 
Q 37.796875 48.390625 30.609375 48.390625 
z
M 30.609375 56 
Q 42.328125 56 49.015625 48.375 
Q 55.71875 40.765625 55.71875 27.296875 
Q 55.71875 13.875 49.015625 6.21875 
Q 42.328125 -1.421875 30.609375 -1.421875 
Q 18.84375 -1.421875 12.171875 6.21875 
Q 5.515625 13.875 5.515625 27.296875 
Q 5.515625 40.765625 12.171875 48.375 
Q 18.84375 56 30.609375 56 
z
" id="DejaVuSans-111"/>
      <path d="M 45.40625 27.984375 
Q 45.40625 37.75 41.375 43.109375 
Q 37.359375 48.484375 30.078125 48.484375 
Q 22.859375 48.484375 18.828125 43.109375 
Q 14.796875 37.75 14.796875 27.984375 
Q 14.796875 18.265625 18.828125 12.890625 
Q 22.859375 7.515625 30.078125 7.515625 
Q 37.359375 7.515625 41.375 12.890625 
Q 45.40625 18.265625 45.40625 27.984375 
z
M 54.390625 6.78125 
Q 54.390625 -7.171875 48.1875 -13.984375 
Q 42 -20.796875 29.203125 -20.796875 
Q 24.46875 -20.796875 20.265625 -20.09375 
Q 16.0625 -19.390625 12.109375 -17.921875 
L 12.109375 -9.1875 
Q 16.0625 -11.328125 19.921875 -12.34375 
Q 23.78125 -13.375 27.78125 -13.375 
Q 36.625 -13.375 41.015625 -8.765625 
Q 45.40625 -4.15625 45.40625 5.171875 
L 45.40625 9.625 
Q 42.625 4.78125 38.28125 2.390625 
Q 33.9375 0 27.875 0 
Q 17.828125 0 11.671875 7.65625 
Q 5.515625 15.328125 5.515625 27.984375 
Q 5.515625 40.671875 11.671875 48.328125 
Q 17.828125 56 27.875 56 
Q 33.9375 56 38.28125 53.609375 
Q 42.625 51.21875 45.40625 46.390625 
L 45.40625 54.6875 
L 54.390625 54.6875 
z
" id="DejaVuSans-103"/>
      <path d="M 12.40625 8.296875 
L 28.515625 8.296875 
L 28.515625 63.921875 
L 10.984375 60.40625 
L 10.984375 69.390625 
L 28.421875 72.90625 
L 38.28125 72.90625 
L 38.28125 8.296875 
L 54.390625 8.296875 
L 54.390625 0 
L 12.40625 0 
z
" id="DejaVuSans-49"/>
      <path id="DejaVuSans-32"/>
      <path d="M 37.109375 75.984375 
L 37.109375 68.5 
L 28.515625 68.5 
Q 23.6875 68.5 21.796875 66.546875 
Q 19.921875 64.59375 19.921875 59.515625 
L 19.921875 54.6875 
L 34.71875 54.6875 
L 34.71875 47.703125 
L 19.921875 47.703125 
L 19.921875 0 
L 10.890625 0 
L 10.890625 47.703125 
L 2.296875 47.703125 
L 2.296875 54.6875 
L 10.890625 54.6875 
L 10.890625 58.5 
Q 10.890625 67.625 15.140625 71.796875 
Q 19.390625 75.984375 28.609375 75.984375 
z
" id="DejaVuSans-102"/>
      <path d="M 19.671875 64.796875 
L 19.671875 8.109375 
L 31.59375 8.109375 
Q 46.6875 8.109375 53.6875 14.9375 
Q 60.6875 21.78125 60.6875 36.53125 
Q 60.6875 51.171875 53.6875 57.984375 
Q 46.6875 64.796875 31.59375 64.796875 
z
M 9.8125 72.90625 
L 30.078125 72.90625 
Q 51.265625 72.90625 61.171875 64.09375 
Q 71.09375 55.28125 71.09375 36.53125 
Q 71.09375 17.671875 61.125 8.828125 
Q 51.171875 0 30.078125 0 
L 9.8125 0 
z
" id="DejaVuSans-68"/>
     </defs>
     <g transform="translate(175.214063 339.313125)scale(0.2 -0.2)">
      <use xlink:href="#DejaVuSans-108"/>
      <use x="27.783203" xlink:href="#DejaVuSans-111"/>
      <use x="88.964844" xlink:href="#DejaVuSans-103"/>
      <use x="152.441406" xlink:href="#DejaVuSans-49"/>
      <use x="216.064453" xlink:href="#DejaVuSans-48"/>
      <use x="279.6875" xlink:href="#DejaVuSans-32"/>
      <use x="311.474609" xlink:href="#DejaVuSans-111"/>
      <use x="372.65625" xlink:href="#DejaVuSans-102"/>
      <use x="407.861328" xlink:href="#DejaVuSans-32"/>
      <use x="439.648438" xlink:href="#DejaVuSans-68"/>
      <use x="516.650391" xlink:href="#DejaVuSans-102"/>
     </g>
    </g>
   </g>
   <g id="matplotlib.axis_2">
    <g id="ytick_1">
     <g id="line2d_9">
      <path clip-path="url(#pdaab2664a6)" d="M 0 293.76 
L 460.8 293.76 
" style="fill:none;stroke:#b0b0b0;stroke-linecap:square;stroke-width:0.8;"/>
     </g>
     <g id="line2d_10">
      <defs>
       <path d="M 0 0 
L -3.5 0 
" id="mb8296d15d9" style="stroke:#000000;stroke-width:0.8;"/>
      </defs>
      <g>
       <use style="stroke:#000000;stroke-width:0.8;" x="0" xlink:href="#mb8296d15d9" y="293.76"/>
      </g>
     </g>
    </g>
    <g id="ytick_2">
     <g id="line2d_11">
      <path clip-path="url(#pdaab2664a6)" d="M 0 236.274059 
L 460.8 236.274059 
" style="fill:none;stroke:#b0b0b0;stroke-linecap:square;stroke-width:0.8;"/>
     </g>
     <g id="line2d_12">
      <g>
       <use style="stroke:#000000;stroke-width:0.8;" x="0" xlink:href="#mb8296d15d9" y="236.274059"/>
      </g>
     </g>
    </g>
    <g id="ytick_3">
     <g id="line2d_13">
      <path clip-path="url(#pdaab2664a6)" d="M 0 178.788119 
L 460.8 178.788119 
" style="fill:none;stroke:#b0b0b0;stroke-linecap:square;stroke-width:0.8;"/>
     </g>
     <g id="line2d_14">
      <g>
       <use style="stroke:#000000;stroke-width:0.8;" x="0" xlink:href="#mb8296d15d9" y="178.788119"/>
      </g>
     </g>
    </g>
    <g id="ytick_4">
     <g id="line2d_15">
      <path clip-path="url(#pdaab2664a6)" d="M 0 121.302178 
L 460.8 121.302178 
" style="fill:none;stroke:#b0b0b0;stroke-linecap:square;stroke-width:0.8;"/>
     </g>
     <g id="line2d_16">
      <g>
       <use style="stroke:#000000;stroke-width:0.8;" x="0" xlink:href="#mb8296d15d9" y="121.302178"/>
      </g>
     </g>
    </g>
    <g id="ytick_5">
     <g id="line2d_17">
      <path clip-path="url(#pdaab2664a6)" d="M 0 63.816238 
L 460.8 63.816238 
" style="fill:none;stroke:#b0b0b0;stroke-linecap:square;stroke-width:0.8;"/>
     </g>
     <g id="line2d_18">
      <g>
       <use style="stroke:#000000;stroke-width:0.8;" x="0" xlink:href="#mb8296d15d9" y="63.816238"/>
      </g>
     </g>
    </g>
    <g id="ytick_6">
     <g id="line2d_19">
      <path clip-path="url(#pdaab2664a6)" d="M 0 6.330297 
L 460.8 6.330297 
" style="fill:none;stroke:#b0b0b0;stroke-linecap:square;stroke-width:0.8;"/>
     </g>
     <g id="line2d_20">
      <g>
       <use style="stroke:#000000;stroke-width:0.8;" x="0" xlink:href="#mb8296d15d9" y="6.330297"/>
      </g>
     </g>
    </g>
   </g>
   <g id="line2d_21">
    <path clip-path="url(#pdaab2664a6)" d="M 229.051121 293.76 
L 229.051121 289.927604 
L 232.072856 289.927604 
L 232.072856 286.095208 
L 233.390544 286.095208 
L 233.390544 282.262812 
L 234.001335 282.262812 
L 234.001335 278.430416 
L 235.848775 278.430416 
L 235.945226 270.765624 
L 235.992629 270.765624 
L 235.992629 266.933228 
L 236.320007 266.933228 
L 236.418922 259.268436 
L 236.444271 259.268436 
L 236.444271 255.43604 
L 237.861739 255.43604 
L 237.861739 251.603644 
L 238.197611 251.603644 
L 238.197611 247.771248 
L 238.43243 247.771248 
L 238.502207 236.274059 
L 238.906573 236.274059 
L 238.906573 232.441663 
L 239.300343 232.441663 
L 239.300343 228.609267 
L 239.420183 228.609267 
L 239.420183 224.776871 
L 240.094055 224.776871 
L 240.094055 220.944475 
L 240.260652 220.944475 
L 240.260652 217.112079 
L 242.01048 217.112079 
L 242.01048 213.279683 
L 242.284469 213.279683 
L 242.284469 209.447287 
L 242.494185 209.447287 
L 242.494185 205.614891 
L 242.741347 205.614891 
L 242.741347 201.782495 
L 242.877653 201.782495 
L 242.877653 197.950099 
L 243.098786 197.950099 
L 243.098786 194.117703 
L 244.807925 194.117703 
L 244.807925 190.285307 
L 245.705251 190.285307 
L 245.705251 186.452911 
L 246.365857 186.452911 
L 246.365857 182.620515 
L 246.927197 182.620515 
L 246.927197 178.788119 
L 247.34165 178.788119 
L 247.34165 174.955723 
L 247.888235 174.955723 
L 247.888235 171.123327 
L 248.423846 171.123327 
L 248.443855 163.458535 
L 249.862253 163.458535 
L 249.862253 159.626139 
L 250.396253 159.626139 
L 250.396253 155.793743 
L 250.994734 155.793743 
L 250.994734 151.961347 
L 251.381318 151.961347 
L 251.482134 144.296554 
L 252.579334 144.296554 
L 252.597409 132.799366 
L 252.753109 132.799366 
L 252.753109 128.96697 
L 253.149853 128.96697 
L 253.149853 125.134574 
L 253.443468 125.134574 
L 253.443468 121.302178 
L 253.654768 121.302178 
L 253.654768 117.469782 
L 253.791651 117.469782 
L 253.876344 109.80499 
L 254.564907 109.80499 
L 254.564907 105.972594 
L 254.847202 105.972594 
L 254.951769 94.475406 
L 255.656454 94.475406 
L 255.656454 90.64301 
L 255.931019 90.64301 
L 255.931019 86.810614 
L 256.917604 86.810614 
L 256.917604 82.978218 
L 257.474648 82.978218 
L 257.474648 79.145822 
L 258.158757 79.145822 
L 258.158757 75.313426 
L 259.31215 75.313426 
L 259.380127 67.648634 
L 259.889871 67.648634 
L 259.889871 63.816238 
L 265.96919 63.816238 
L 265.96919 59.983842 
L 266.185092 59.983842 
L 266.185092 56.151446 
L 266.690929 56.151446 
L 266.690929 52.31905 
L 267.525289 52.31905 
L 267.525289 48.486653 
L 269.049488 48.486653 
L 269.059157 40.821861 
L 269.823041 40.821861 
L 269.823041 36.989465 
L 270.165346 36.989465 
L 270.165346 33.157069 
L 270.890244 33.157069 
L 270.890244 29.324673 
L 271.360106 29.324673 
L 271.360106 25.492277 
L 271.942347 25.492277 
L 271.942347 21.659881 
L 272.183428 21.659881 
L 272.183428 17.827485 
L 272.428011 17.827485 
L 272.428011 13.995089 
L 273.280569 13.995089 
L 273.280569 10.162693 
L 274.348965 10.162693 
L 274.348965 6.330297 
L 274.348965 6.330297 
L 460.8 6.330297 
L 460.8 6.330297 
" style="fill:none;stroke:#ff0000;stroke-linecap:square;stroke-width:3;"/>
   </g>
   <g id="line2d_22">
    <path clip-path="url(#pdaab2664a6)" d="M 234.001335 293.76 
L 234.001335 289.927604 
L 238.197611 289.927604 
L 238.197611 286.095208 
L 242.785477 286.095208 
L 242.785477 282.262812 
L 243.08383 282.262812 
L 243.08383 278.430416 
L 245.701372 278.430416 
L 245.739583 270.765624 
L 246.294296 270.765624 
L 246.294296 266.933228 
L 246.617827 266.933228 
L 246.617827 263.100832 
L 246.832695 263.100832 
L 246.832695 259.268436 
L 247.711027 259.268436 
L 247.711027 255.43604 
L 248.628886 255.43604 
L 248.628886 251.603644 
L 248.788458 251.603644 
L 248.788458 247.771248 
L 248.908655 247.771248 
L 248.908655 243.938851 
L 249.428425 243.938851 
L 249.516503 236.274059 
L 249.850389 236.274059 
L 249.850389 232.441663 
L 250.330521 232.441663 
L 250.330521 228.609267 
L 250.786229 228.609267 
L 250.786229 224.776871 
L 250.994734 224.776871 
L 250.994734 220.944475 
L 251.189848 220.944475 
L 251.189848 217.112079 
L 251.348376 217.112079 
L 251.457193 209.447287 
L 251.570818 209.447287 
L 251.570818 205.614891 
L 252.141121 205.614891 
L 252.141121 201.782495 
L 252.446865 201.782495 
L 252.446865 197.950099 
L 253.355573 197.950099 
L 253.355573 194.117703 
L 254.235553 194.117703 
L 254.235553 190.285307 
L 254.393608 190.285307 
L 254.451552 182.620515 
L 255.907437 182.620515 
L 255.907437 178.788119 
L 257.343642 178.788119 
L 257.343642 174.955723 
L 257.474648 174.955723 
L 257.474648 171.123327 
L 258.884352 171.123327 
L 258.884352 167.290931 
L 259.234549 167.290931 
L 259.234549 163.458535 
L 259.757646 163.458535 
L 259.789318 155.793743 
L 259.889871 155.793743 
L 259.889871 151.961347 
L 260.614008 151.961347 
L 260.614008 148.12895 
L 260.970806 148.12895 
L 260.970806 144.296554 
L 262.831741 144.296554 
L 262.831741 140.464158 
L 263.094974 140.464158 
L 263.094974 136.631762 
L 264.81493 136.631762 
L 264.81493 132.799366 
L 265.312023 132.799366 
L 265.312023 128.96697 
L 265.670059 128.96697 
L 265.670059 125.134574 
L 265.830088 125.134574 
L 265.830088 121.302178 
L 266.041351 121.302178 
L 266.041351 117.469782 
L 266.444995 117.469782 
L 266.444995 113.637386 
L 266.634662 113.637386 
L 266.634662 109.80499 
L 267.128777 109.80499 
L 267.128777 105.972594 
L 267.525289 105.972594 
L 267.525289 102.140198 
L 267.825803 102.140198 
L 267.825803 98.307802 
L 268.440269 98.307802 
L 268.440269 94.475406 
L 268.583761 94.475406 
L 268.583761 90.64301 
L 269.37966 90.64301 
L 269.481782 82.978218 
L 269.823041 82.978218 
L 269.823041 79.145822 
L 270.661987 79.145822 
L 270.661987 75.313426 
L 271.073286 75.313426 
L 271.181964 67.648634 
L 271.93189 67.648634 
L 271.93189 63.816238 
L 272.126271 63.816238 
L 272.126271 59.983842 
L 273.767498 59.983842 
L 273.767498 56.151446 
L 274.714198 56.151446 
L 274.714198 52.31905 
L 274.890706 52.31905 
L 274.890706 48.486653 
L 275.915441 48.486653 
L 275.915441 44.654257 
L 278.091544 44.654257 
L 278.091544 40.821861 
L 278.39831 40.821861 
L 278.39831 36.989465 
L 279.234417 36.989465 
L 279.234417 33.157069 
L 279.487515 33.157069 
L 279.487515 29.324673 
L 279.783634 29.324673 
L 279.783634 25.492277 
L 285.966804 25.492277 
L 285.966804 21.659881 
L 287.913215 21.659881 
L 287.913215 17.827485 
L 288.184698 17.827485 
L 288.184698 13.995089 
L 290.599778 13.995089 
L 290.599778 10.162693 
L 295.002857 10.162693 
L 295.002857 6.330297 
L 295.002857 6.330297 
L 460.8 6.330297 
L 460.8 6.330297 
" style="fill:none;stroke:#00bfbf;stroke-linecap:square;stroke-width:1.5;"/>
   </g>
   <g id="line2d_23">
    <path clip-path="url(#pdaab2664a6)" d="M 234.001335 293.76 
L 234.001335 289.927604 
L 238.197611 289.927604 
L 238.197611 286.095208 
L 238.785196 286.095208 
L 238.785196 282.262812 
L 240.094055 282.262812 
L 240.094055 278.430416 
L 242.01048 278.430416 
L 242.01048 274.59802 
L 242.494185 274.59802 
L 242.494185 270.765624 
L 242.785477 270.765624 
L 242.785477 266.933228 
L 243.08383 266.933228 
L 243.08383 263.100832 
L 245.701372 263.100832 
L 245.739583 255.43604 
L 245.99776 255.43604 
L 245.99776 251.603644 
L 246.331076 251.603644 
L 246.331076 247.771248 
L 246.617827 247.771248 
L 246.617827 243.938851 
L 246.832695 243.938851 
L 246.832695 240.106455 
L 248.628886 240.106455 
L 248.628886 236.274059 
L 248.788458 236.274059 
L 248.788458 232.441663 
L 248.908655 232.441663 
L 248.976448 224.776871 
L 249.428425 224.776871 
L 249.49583 217.112079 
L 249.850389 217.112079 
L 249.886578 209.447287 
L 250.330521 209.447287 
L 250.330521 205.614891 
L 250.786229 205.614891 
L 250.786229 201.782495 
L 250.994734 201.782495 
L 250.994734 197.950099 
L 251.189848 197.950099 
L 251.189848 194.117703 
L 251.348376 194.117703 
L 251.457193 186.452911 
L 251.536461 186.452911 
L 251.536461 182.620515 
L 252.141121 182.620515 
L 252.160655 174.955723 
L 254.235553 174.955723 
L 254.3099 167.290931 
L 254.591568 167.290931 
L 254.591568 163.458535 
L 255.27022 163.458535 
L 255.27022 159.626139 
L 255.61444 159.626139 
L 255.61444 155.793743 
L 255.988597 155.793743 
L 255.988597 151.961347 
L 256.688882 151.961347 
L 256.744477 144.296554 
L 256.917604 144.296554 
L 256.917604 140.464158 
L 257.343642 140.464158 
L 257.343642 136.631762 
L 257.474648 136.631762 
L 257.474648 132.799366 
L 259.344145 132.799366 
L 259.344145 128.96697 
L 259.889871 128.96697 
L 259.889871 125.134574 
L 260.309577 125.134574 
L 260.309577 121.302178 
L 260.71978 121.302178 
L 260.71978 117.469782 
L 260.970806 117.469782 
L 260.970806 113.637386 
L 262.375565 113.637386 
L 262.375565 109.80499 
L 263.094974 109.80499 
L 263.094974 105.972594 
L 264.131171 105.972594 
L 264.131171 102.140198 
L 264.771684 102.140198 
L 264.81493 94.475406 
L 265.747038 94.475406 
L 265.830088 86.810614 
L 266.041351 86.810614 
L 266.041351 82.978218 
L 266.444995 82.978218 
L 266.444995 79.145822 
L 266.987565 79.145822 
L 266.987565 75.313426 
L 267.525289 75.313426 
L 267.525289 71.48103 
L 268.124459 71.48103 
L 268.124459 67.648634 
L 269.37966 67.648634 
L 269.37966 63.816238 
L 269.823041 63.816238 
L 269.823041 59.983842 
L 270.165346 59.983842 
L 270.165346 56.151446 
L 270.385339 56.151446 
L 270.385339 52.31905 
L 270.661987 52.31905 
L 270.661987 48.486653 
L 271.181964 48.486653 
L 271.181964 44.654257 
L 271.942347 44.654257 
L 271.942347 40.821861 
L 273.767498 40.821861 
L 273.767498 36.989465 
L 274.890706 36.989465 
L 274.890706 33.157069 
L 275.18382 33.157069 
L 275.18382 29.324673 
L 276.093464 29.324673 
L 276.093464 25.492277 
L 277.295858 25.492277 
L 277.295858 21.659881 
L 278.091544 21.659881 
L 278.091544 17.827485 
L 279.234417 17.827485 
L 279.234417 13.995089 
L 279.487515 13.995089 
L 279.487515 10.162693 
L 279.783634 10.162693 
L 279.783634 6.330297 
L 279.783634 6.330297 
L 460.8 6.330297 
L 460.8 6.330297 
" style="fill:none;stroke:#bf00bf;stroke-linecap:square;stroke-width:1.5;"/>
   </g>
   <g id="line2d_24">
    <path clip-path="url(#pdaab2664a6)" d="M 232.876505 293.76 
L 232.876505 289.927604 
L 233.390544 289.927604 
L 233.390544 286.095208 
L 234.001335 286.095208 
L 234.001335 282.262812 
L 236.320007 282.262812 
L 236.320007 278.430416 
L 236.444271 278.430416 
L 236.444271 274.59802 
L 237.899499 274.59802 
L 237.899499 270.765624 
L 238.197611 270.765624 
L 238.197611 266.933228 
L 238.502207 266.933228 
L 238.502207 263.100832 
L 239.420183 263.100832 
L 239.504996 255.43604 
L 240.094055 255.43604 
L 240.094055 251.603644 
L 242.01048 251.603644 
L 242.01048 247.771248 
L 242.284469 247.771248 
L 242.284469 243.938851 
L 242.494185 243.938851 
L 242.494185 240.106455 
L 242.839072 240.106455 
L 242.839072 236.274059 
L 243.08383 236.274059 
L 243.08383 232.441663 
L 243.669288 232.441663 
L 243.669288 228.609267 
L 244.807925 228.609267 
L 244.807925 224.776871 
L 245.420223 224.776871 
L 245.420223 220.944475 
L 245.697237 220.944475 
L 245.701372 213.279683 
L 245.895288 213.279683 
L 245.99776 205.614891 
L 246.365857 205.614891 
L 246.365857 201.782495 
L 246.832695 201.782495 
L 246.832695 197.950099 
L 247.078244 197.950099 
L 247.078244 194.117703 
L 248.628886 194.117703 
L 248.675112 186.452911 
L 248.788458 186.452911 
L 248.788458 182.620515 
L 248.976448 182.620515 
L 248.976448 178.788119 
L 250.994734 178.788119 
L 250.994734 174.955723 
L 251.348376 174.955723 
L 251.457193 163.458535 
L 251.482134 163.458535 
L 251.482134 159.626139 
L 252.597409 159.626139 
L 252.597409 155.793743 
L 253.149853 155.793743 
L 253.149853 151.961347 
L 253.745206 151.961347 
L 253.745206 148.12895 
L 254.08493 148.12895 
L 254.08493 144.296554 
L 254.235553 144.296554 
L 254.235553 140.464158 
L 254.564907 140.464158 
L 254.591568 132.799366 
L 255.27022 132.799366 
L 255.27022 128.96697 
L 255.61444 128.96697 
L 255.61444 125.134574 
L 255.931019 125.134574 
L 255.988597 117.469782 
L 256.12051 117.469782 
L 256.12051 113.637386 
L 256.744477 113.637386 
L 256.744477 109.80499 
L 256.917604 109.80499 
L 256.917604 105.972594 
L 257.343642 105.972594 
L 257.343642 102.140198 
L 257.474648 102.140198 
L 257.474648 98.307802 
L 257.95982 98.307802 
L 257.95982 94.475406 
L 259.17348 94.475406 
L 259.17348 90.64301 
L 259.31215 90.64301 
L 259.380127 79.145822 
L 259.889871 79.145822 
L 259.889871 75.313426 
L 263.67849 75.313426 
L 263.67849 71.48103 
L 264.771684 71.48103 
L 264.771684 67.648634 
L 265.96919 67.648634 
L 265.96919 63.816238 
L 266.444995 63.816238 
L 266.444995 59.983842 
L 267.525289 59.983842 
L 267.525289 56.151446 
L 268.624442 56.151446 
L 268.624442 52.31905 
L 269.049488 52.31905 
L 269.059157 44.654257 
L 269.823041 44.654257 
L 269.823041 40.821861 
L 270.165346 40.821861 
L 270.165346 36.989465 
L 271.722768 36.989465 
L 271.722768 33.157069 
L 271.942347 33.157069 
L 271.942347 29.324673 
L 273.70529 29.324673 
L 273.70529 25.492277 
L 274.044176 25.492277 
L 274.044176 21.659881 
L 275.903478 21.659881 
L 275.903478 17.827485 
L 276.093464 17.827485 
L 276.093464 13.995089 
L 277.362553 13.995089 
L 277.362553 10.162693 
L 278.091544 10.162693 
L 278.091544 6.330297 
L 278.091544 6.330297 
L 460.8 6.330297 
L 460.8 6.330297 
" style="fill:none;stroke:#000000;stroke-linecap:square;stroke-width:1.5;"/>
   </g>
   <g id="line2d_25">
    <path clip-path="url(#pdaab2664a6)" d="M 229.051121 293.76 
L 229.051121 289.927604 
L 232.072856 289.927604 
L 232.072856 286.095208 
L 233.390544 286.095208 
L 233.390544 282.262812 
L 234.001335 282.262812 
L 234.001335 278.430416 
L 235.848775 278.430416 
L 235.945226 270.765624 
L 235.992629 270.765624 
L 235.992629 266.933228 
L 236.320007 266.933228 
L 236.418922 259.268436 
L 236.444271 259.268436 
L 236.444271 255.43604 
L 237.861739 255.43604 
L 237.861739 251.603644 
L 238.197611 251.603644 
L 238.197611 247.771248 
L 238.43243 247.771248 
L 238.502207 236.274059 
L 238.906573 236.274059 
L 238.906573 232.441663 
L 239.300343 232.441663 
L 239.300343 228.609267 
L 239.420183 228.609267 
L 239.420183 224.776871 
L 240.094055 224.776871 
L 240.094055 220.944475 
L 240.260652 220.944475 
L 240.260652 217.112079 
L 242.01048 217.112079 
L 242.01048 213.279683 
L 242.284469 213.279683 
L 242.284469 209.447287 
L 242.494185 209.447287 
L 242.494185 205.614891 
L 242.741347 205.614891 
L 242.741347 201.782495 
L 242.877653 201.782495 
L 242.877653 197.950099 
L 243.098786 197.950099 
L 243.098786 194.117703 
L 244.807925 194.117703 
L 244.807925 190.285307 
L 245.705251 190.285307 
L 245.705251 186.452911 
L 246.365857 186.452911 
L 246.365857 182.620515 
L 246.927197 182.620515 
L 246.927197 178.788119 
L 247.34165 178.788119 
L 247.34165 174.955723 
L 247.888235 174.955723 
L 247.888235 171.123327 
L 248.423846 171.123327 
L 248.443855 163.458535 
L 249.862253 163.458535 
L 249.862253 159.626139 
L 250.396253 159.626139 
L 250.396253 155.793743 
L 250.994734 155.793743 
L 250.994734 151.961347 
L 251.381318 151.961347 
L 251.482134 144.296554 
L 252.579334 144.296554 
L 252.597409 132.799366 
L 252.753109 132.799366 
L 252.753109 128.96697 
L 253.149853 128.96697 
L 253.149853 125.134574 
L 253.443468 125.134574 
L 253.443468 121.302178 
L 253.654768 121.302178 
L 253.654768 117.469782 
L 253.791651 117.469782 
L 253.876344 109.80499 
L 254.564907 109.80499 
L 254.564907 105.972594 
L 254.847202 105.972594 
L 254.951769 94.475406 
L 255.656454 94.475406 
L 255.656454 90.64301 
L 255.931019 90.64301 
L 255.931019 86.810614 
L 256.917604 86.810614 
L 256.917604 82.978218 
L 257.474648 82.978218 
L 257.474648 79.145822 
L 258.158757 79.145822 
L 258.158757 75.313426 
L 259.31215 75.313426 
L 259.380127 67.648634 
L 259.889871 67.648634 
L 259.889871 63.816238 
L 265.96919 63.816238 
L 265.96919 59.983842 
L 266.185092 59.983842 
L 266.185092 56.151446 
L 266.690929 56.151446 
L 266.690929 52.31905 
L 267.525289 52.31905 
L 267.525289 48.486653 
L 269.049488 48.486653 
L 269.059157 40.821861 
L 269.823041 40.821861 
L 269.823041 36.989465 
L 270.165346 36.989465 
L 270.165346 33.157069 
L 270.890244 33.157069 
L 270.890244 29.324673 
L 271.360106 29.324673 
L 271.360106 25.492277 
L 271.942347 25.492277 
L 271.942347 21.659881 
L 272.183428 21.659881 
L 272.183428 17.827485 
L 272.428011 17.827485 
L 272.428011 13.995089 
L 273.280569 13.995089 
L 273.280569 10.162693 
L 274.348965 10.162693 
L 274.348965 6.330297 
L 274.348965 6.330297 
L 460.8 6.330297 
L 460.8 6.330297 
" style="fill:none;stroke:#00bfbf;stroke-linecap:square;stroke-width:1.5;"/>
   </g>
   <g id="line2d_26">
    <path clip-path="url(#pdaab2664a6)" d="M 229.051121 293.76 
L 229.051121 289.927604 
L 232.072856 289.927604 
L 232.072856 286.095208 
L 233.390544 286.095208 
L 233.390544 282.262812 
L 234.001335 282.262812 
L 234.001335 278.430416 
L 235.848775 278.430416 
L 235.945226 270.765624 
L 235.992629 270.765624 
L 235.992629 266.933228 
L 236.320007 266.933228 
L 236.418922 259.268436 
L 236.444271 259.268436 
L 236.444271 255.43604 
L 237.861739 255.43604 
L 237.861739 251.603644 
L 238.197611 251.603644 
L 238.197611 247.771248 
L 238.43243 247.771248 
L 238.502207 236.274059 
L 238.906573 236.274059 
L 238.906573 232.441663 
L 239.300343 232.441663 
L 239.300343 228.609267 
L 239.420183 228.609267 
L 239.420183 224.776871 
L 240.094055 224.776871 
L 240.094055 220.944475 
L 240.260652 220.944475 
L 240.260652 217.112079 
L 242.01048 217.112079 
L 242.01048 213.279683 
L 242.284469 213.279683 
L 242.284469 209.447287 
L 242.494185 209.447287 
L 242.494185 205.614891 
L 242.741347 205.614891 
L 242.741347 201.782495 
L 242.877653 201.782495 
L 242.877653 197.950099 
L 243.098786 197.950099 
L 243.098786 194.117703 
L 244.807925 194.117703 
L 244.807925 190.285307 
L 245.705251 190.285307 
L 245.705251 186.452911 
L 246.365857 186.452911 
L 246.365857 182.620515 
L 246.927197 182.620515 
L 246.927197 178.788119 
L 247.34165 178.788119 
L 247.34165 174.955723 
L 247.888235 174.955723 
L 247.888235 171.123327 
L 248.423846 171.123327 
L 248.443855 163.458535 
L 249.862253 163.458535 
L 249.862253 159.626139 
L 250.396253 159.626139 
L 250.396253 155.793743 
L 250.994734 155.793743 
L 250.994734 151.961347 
L 251.381318 151.961347 
L 251.482134 144.296554 
L 252.579334 144.296554 
L 252.597409 132.799366 
L 252.753109 132.799366 
L 252.753109 128.96697 
L 253.149853 128.96697 
L 253.149853 125.134574 
L 253.443468 125.134574 
L 253.443468 121.302178 
L 253.654768 121.302178 
L 253.654768 117.469782 
L 253.791651 117.469782 
L 253.876344 109.80499 
L 254.564907 109.80499 
L 254.564907 105.972594 
L 254.847202 105.972594 
L 254.951769 94.475406 
L 255.656454 94.475406 
L 255.656454 90.64301 
L 255.931019 90.64301 
L 255.931019 86.810614 
L 256.917604 86.810614 
L 256.917604 82.978218 
L 257.474648 82.978218 
L 257.474648 79.145822 
L 258.158757 79.145822 
L 258.158757 75.313426 
L 259.31215 75.313426 
L 259.380127 67.648634 
L 259.889871 67.648634 
L 259.889871 63.816238 
L 265.96919 63.816238 
L 265.96919 59.983842 
L 266.185092 59.983842 
L 266.185092 56.151446 
L 266.690929 56.151446 
L 266.690929 52.31905 
L 267.525289 52.31905 
L 267.525289 48.486653 
L 269.049488 48.486653 
L 269.059157 40.821861 
L 269.823041 40.821861 
L 269.823041 36.989465 
L 270.165346 36.989465 
L 270.165346 33.157069 
L 270.890244 33.157069 
L 270.890244 29.324673 
L 271.360106 29.324673 
L 271.360106 25.492277 
L 271.942347 25.492277 
L 271.942347 21.659881 
L 272.183428 21.659881 
L 272.183428 17.827485 
L 272.428011 17.827485 
L 272.428011 13.995089 
L 273.280569 13.995089 
L 273.280569 10.162693 
L 274.348965 10.162693 
L 274.348965 6.330297 
L 274.348965 6.330297 
L 460.8 6.330297 
L 460.8 6.330297 
" style="fill:none;stroke:#bf00bf;stroke-linecap:square;stroke-width:1.5;"/>
   </g>
   <g id="patch_3">
    <path d="M 0 293.76 
L 0 3.456 
" style="fill:none;stroke:#000000;stroke-linecap:square;stroke-linejoin:miter;stroke-width:0.8;"/>
   </g>
   <g id="patch_4">
    <path d="M 460.8 293.76 
L 460.8 3.456 
" style="fill:none;stroke:#000000;stroke-linecap:square;stroke-linejoin:miter;stroke-width:0.8;"/>
   </g>
   <g id="patch_5">
    <path d="M 0 293.76 
L 460.8 293.76 
" style="fill:none;stroke:#000000;stroke-linecap:square;stroke-linejoin:miter;stroke-width:0.8;"/>
   </g>
   <g id="patch_6">
    <path d="M 0 3.456 
L 460.8 3.456 
" style="fill:none;stroke:#000000;stroke-linecap:square;stroke-linejoin:miter;stroke-width:0.8;"/>
   </g>
   <g id="text_6">
    <!-- {f15-f19}, 5-D -->
    <defs>
     <path d="M 51.125 -9.28125 
L 51.125 -16.3125 
L 48.09375 -16.3125 
Q 35.9375 -16.3125 31.8125 -12.6875 
Q 27.6875 -9.078125 27.6875 1.703125 
L 27.6875 13.375 
Q 27.6875 20.75 25.046875 23.578125 
Q 22.40625 26.421875 15.484375 26.421875 
L 12.5 26.421875 
L 12.5 33.40625 
L 15.484375 33.40625 
Q 22.46875 33.40625 25.078125 36.203125 
Q 27.6875 39.015625 27.6875 46.296875 
L 27.6875 58.015625 
Q 27.6875 68.796875 31.8125 72.390625 
Q 35.9375 75.984375 48.09375 75.984375 
L 51.125 75.984375 
L 51.125 69 
L 47.796875 69 
Q 40.921875 69 38.8125 66.84375 
Q 36.71875 64.703125 36.71875 57.8125 
L 36.71875 45.703125 
Q 36.71875 38.03125 34.5 34.5625 
Q 32.28125 31.109375 26.90625 29.890625 
Q 32.328125 28.5625 34.515625 25.09375 
Q 36.71875 21.625 36.71875 14.015625 
L 36.71875 1.90625 
Q 36.71875 -4.984375 38.8125 -7.125 
Q 40.921875 -9.28125 47.796875 -9.28125 
z
" id="DejaVuSans-123"/>
     <path d="M 10.796875 72.90625 
L 49.515625 72.90625 
L 49.515625 64.59375 
L 19.828125 64.59375 
L 19.828125 46.734375 
Q 21.96875 47.46875 24.109375 47.828125 
Q 26.265625 48.1875 28.421875 48.1875 
Q 40.625 48.1875 47.75 41.5 
Q 54.890625 34.8125 54.890625 23.390625 
Q 54.890625 11.625 47.5625 5.09375 
Q 40.234375 -1.421875 26.90625 -1.421875 
Q 22.3125 -1.421875 17.546875 -0.640625 
Q 12.796875 0.140625 7.71875 1.703125 
L 7.71875 11.625 
Q 12.109375 9.234375 16.796875 8.0625 
Q 21.484375 6.890625 26.703125 6.890625 
Q 35.15625 6.890625 40.078125 11.328125 
Q 45.015625 15.765625 45.015625 23.390625 
Q 45.015625 31 40.078125 35.4375 
Q 35.15625 39.890625 26.703125 39.890625 
Q 22.75 39.890625 18.8125 39.015625 
Q 14.890625 38.140625 10.796875 36.28125 
z
" id="DejaVuSans-53"/>
     <path d="M 10.984375 1.515625 
L 10.984375 10.5 
Q 14.703125 8.734375 18.5 7.8125 
Q 22.3125 6.890625 25.984375 6.890625 
Q 35.75 6.890625 40.890625 13.453125 
Q 46.046875 20.015625 46.78125 33.40625 
Q 43.953125 29.203125 39.59375 26.953125 
Q 35.25 24.703125 29.984375 24.703125 
Q 19.046875 24.703125 12.671875 31.3125 
Q 6.296875 37.9375 6.296875 49.421875 
Q 6.296875 60.640625 12.9375 67.421875 
Q 19.578125 74.21875 30.609375 74.21875 
Q 43.265625 74.21875 49.921875 64.515625 
Q 56.59375 54.828125 56.59375 36.375 
Q 56.59375 19.140625 48.40625 8.859375 
Q 40.234375 -1.421875 26.421875 -1.421875 
Q 22.703125 -1.421875 18.890625 -0.6875 
Q 15.09375 0.046875 10.984375 1.515625 
z
M 30.609375 32.421875 
Q 37.25 32.421875 41.125 36.953125 
Q 45.015625 41.5 45.015625 49.421875 
Q 45.015625 57.28125 41.125 61.84375 
Q 37.25 66.40625 30.609375 66.40625 
Q 23.96875 66.40625 20.09375 61.84375 
Q 16.21875 57.28125 16.21875 49.421875 
Q 16.21875 41.5 20.09375 36.953125 
Q 23.96875 32.421875 30.609375 32.421875 
z
" id="DejaVuSans-57"/>
     <path d="M 12.5 -9.28125 
L 15.921875 -9.28125 
Q 22.75 -9.28125 24.828125 -7.171875 
Q 26.90625 -5.078125 26.90625 1.90625 
L 26.90625 14.015625 
Q 26.90625 21.625 29.09375 25.09375 
Q 31.296875 28.5625 36.71875 29.890625 
Q 31.296875 31.109375 29.09375 34.5625 
Q 26.90625 38.03125 26.90625 45.703125 
L 26.90625 57.8125 
Q 26.90625 64.75 24.828125 66.875 
Q 22.75 69 15.921875 69 
L 12.5 69 
L 12.5 75.984375 
L 15.578125 75.984375 
Q 27.734375 75.984375 31.8125 72.390625 
Q 35.890625 68.796875 35.890625 58.015625 
L 35.890625 46.296875 
Q 35.890625 39.015625 38.515625 36.203125 
Q 41.15625 33.40625 48.09375 33.40625 
L 51.125 33.40625 
L 51.125 26.421875 
L 48.09375 26.421875 
Q 41.15625 26.421875 38.515625 23.578125 
Q 35.890625 20.75 35.890625 13.375 
L 35.890625 1.703125 
Q 35.890625 -9.078125 31.8125 -12.6875 
Q 27.734375 -16.3125 15.578125 -16.3125 
L 12.5 -16.3125 
z
" id="DejaVuSans-125"/>
     <path d="M 11.71875 12.40625 
L 22.015625 12.40625 
L 22.015625 4 
L 14.015625 -11.625 
L 7.71875 -11.625 
L 11.71875 4 
z
" id="DejaVuSans-44"/>
    </defs>
    <g transform="translate(305.884 287.95392)scale(0.2 -0.2)">
     <use xlink:href="#DejaVuSans-123"/>
     <use x="63.623047" xlink:href="#DejaVuSans-102"/>
     <use x="98.828125" xlink:href="#DejaVuSans-49"/>
     <use x="162.451172" xlink:href="#DejaVuSans-53"/>
     <use x="226.074219" xlink:href="#DejaVuSans-45"/>
     <use x="262.158203" xlink:href="#DejaVuSans-102"/>
     <use x="297.363281" xlink:href="#DejaVuSans-49"/>
     <use x="360.986328" xlink:href="#DejaVuSans-57"/>
     <use x="424.609375" xlink:href="#DejaVuSans-125"/>
     <use x="488.232422" xlink:href="#DejaVuSans-44"/>
     <use x="520.019531" xlink:href="#DejaVuSans-32"/>
     <use x="551.806641" xlink:href="#DejaVuSans-53"/>
     <use x="615.429688" xlink:href="#DejaVuSans-45"/>
     <use x="651.513672" xlink:href="#DejaVuSans-68"/>
    </g>
   </g>
   <g id="text_7">
    <!-- v2.4 -->
    <defs>
     <path d="M 2.984375 54.6875 
L 12.5 54.6875 
L 29.59375 8.796875 
L 46.6875 54.6875 
L 56.203125 54.6875 
L 35.6875 0 
L 23.484375 0 
z
" id="DejaVuSans-118"/>
     <path d="M 19.1875 8.296875 
L 53.609375 8.296875 
L 53.609375 0 
L 7.328125 0 
L 7.328125 8.296875 
Q 12.9375 14.109375 22.625 23.890625 
Q 32.328125 33.6875 34.8125 36.53125 
Q 39.546875 41.84375 41.421875 45.53125 
Q 43.3125 49.21875 43.3125 52.78125 
Q 43.3125 58.59375 39.234375 62.25 
Q 35.15625 65.921875 28.609375 65.921875 
Q 23.96875 65.921875 18.8125 64.3125 
Q 13.671875 62.703125 7.8125 59.421875 
L 7.8125 69.390625 
Q 13.765625 71.78125 18.9375 73 
Q 24.125 74.21875 28.421875 74.21875 
Q 39.75 74.21875 46.484375 68.546875 
Q 53.21875 62.890625 53.21875 53.421875 
Q 53.21875 48.921875 51.53125 44.890625 
Q 49.859375 40.875 45.40625 35.40625 
Q 44.1875 33.984375 37.640625 27.21875 
Q 31.109375 20.453125 19.1875 8.296875 
z
" id="DejaVuSans-50"/>
     <path d="M 10.6875 12.40625 
L 21 12.40625 
L 21 0 
L 10.6875 0 
z
" id="DejaVuSans-46"/>
    </defs>
    <g style="fill:#808080;" transform="translate(219.489063 288.777272)scale(0.1 -0.1)">
     <use xlink:href="#DejaVuSans-118"/>
     <use x="59.179688" xlink:href="#DejaVuSans-50"/>
     <use x="122.802734" xlink:href="#DejaVuSans-46"/>
     <use x="154.589844" xlink:href="#DejaVuSans-52"/>
    </g>
   </g>
  </g>
 </g>
 <defs>
  <clipPath id="pdaab2664a6">
   <rect height="290.304" width="460.8" x="0" y="3.456"/>
  </clipPath>
 </defs>
</svg>
