<?xml version="1.0" encoding="utf-8" standalone="no"?>
<!DOCTYPE svg PUBLIC "-//W3C//DTD SVG 1.1//EN"
  "http://www.w3.org/Graphics/SVG/1.1/DTD/svg11.dtd">
<!-- Created with matplotlib (https://matplotlib.org/) -->
<svg height="345.6pt" version="1.1" viewBox="0 0 460.8 345.6" width="460.8pt" xmlns="http://www.w3.org/2000/svg" xmlns:xlink="http://www.w3.org/1999/xlink">
 <defs>
  <style type="text/css">
*{stroke-linecap:butt;stroke-linejoin:round;}
  </style>
 </defs>
 <g id="figure_1">
  <g id="patch_1">
   <path d="M 0 345.6 
L 460.8 345.6 
L 460.8 0 
L 0 0 
z
" style="fill:#ffffff;"/>
  </g>
  <g id="axes_1">
   <g id="patch_2">
    <path d="M 0 293.76 
L 460.8 293.76 
L 460.8 3.456 
L 0 3.456 
z
" style="fill:#ffffff;"/>
   </g>
   <g id="matplotlib.axis_1">
    <g id="xtick_1">
     <g id="line2d_1">
      <path clip-path="url(#p1ff3ef5db2)" d="M 108.103435 293.76 
L 108.103435 3.456 
" style="fill:none;stroke:#b0b0b0;stroke-linecap:square;stroke-width:0.8;"/>
     </g>
     <g id="line2d_2">
      <defs>
       <path d="M 0 0 
L 0 3.5 
" id="mdd47600296" style="stroke:#000000;stroke-width:0.8;"/>
      </defs>
      <g>
       <use style="stroke:#000000;stroke-width:0.8;" x="108.103435" xlink:href="#mdd47600296" y="293.76"/>
      </g>
     </g>
     <g id="text_1">
      <!-- -4 -->
      <defs>
       <path d="M 4.890625 31.390625 
L 31.203125 31.390625 
L 31.203125 23.390625 
L 4.890625 23.390625 
z
" id="DejaVuSans-45"/>
       <path d="M 37.796875 64.3125 
L 12.890625 25.390625 
L 37.796875 25.390625 
z
M 35.203125 72.90625 
L 47.609375 72.90625 
L 47.609375 25.390625 
L 58.015625 25.390625 
L 58.015625 17.1875 
L 47.609375 17.1875 
L 47.609375 0 
L 37.796875 0 
L 37.796875 17.1875 
L 4.890625 17.1875 
L 4.890625 26.703125 
z
" id="DejaVuSans-52"/>
      </defs>
      <g transform="translate(98.133123 315.956875)scale(0.2 -0.2)">
       <use xlink:href="#DejaVuSans-45"/>
       <use x="36.083984" xlink:href="#DejaVuSans-52"/>
      </g>
     </g>
    </g>
    <g id="xtick_2">
     <g id="line2d_3">
      <path clip-path="url(#p1ff3ef5db2)" d="M 216.323786 293.76 
L 216.323786 3.456 
" style="fill:none;stroke:#b0b0b0;stroke-linecap:square;stroke-width:0.8;"/>
     </g>
     <g id="line2d_4">
      <g>
       <use style="stroke:#000000;stroke-width:0.8;" x="216.323786" xlink:href="#mdd47600296" y="293.76"/>
      </g>
     </g>
     <g id="text_2">
      <!-- 0 -->
      <defs>
       <path d="M 31.78125 66.40625 
Q 24.171875 66.40625 20.328125 58.90625 
Q 16.5 51.421875 16.5 36.375 
Q 16.5 21.390625 20.328125 13.890625 
Q 24.171875 6.390625 31.78125 6.390625 
Q 39.453125 6.390625 43.28125 13.890625 
Q 47.125 21.390625 47.125 36.375 
Q 47.125 51.421875 43.28125 58.90625 
Q 39.453125 66.40625 31.78125 66.40625 
z
M 31.78125 74.21875 
Q 44.046875 74.21875 50.515625 64.515625 
Q 56.984375 54.828125 56.984375 36.375 
Q 56.984375 17.96875 50.515625 8.265625 
Q 44.046875 -1.421875 31.78125 -1.421875 
Q 19.53125 -1.421875 13.0625 8.265625 
Q 6.59375 17.96875 6.59375 36.375 
Q 6.59375 54.828125 13.0625 64.515625 
Q 19.53125 74.21875 31.78125 74.21875 
z
" id="DejaVuSans-48"/>
      </defs>
      <g transform="translate(209.961286 315.956875)scale(0.2 -0.2)">
       <use xlink:href="#DejaVuSans-48"/>
      </g>
     </g>
    </g>
    <g id="xtick_3">
     <g id="line2d_5">
      <path clip-path="url(#p1ff3ef5db2)" d="M 324.544137 293.76 
L 324.544137 3.456 
" style="fill:none;stroke:#b0b0b0;stroke-linecap:square;stroke-width:0.8;"/>
     </g>
     <g id="line2d_6">
      <g>
       <use style="stroke:#000000;stroke-width:0.8;" x="324.544137" xlink:href="#mdd47600296" y="293.76"/>
      </g>
     </g>
     <g id="text_3">
      <!-- 4 -->
      <g transform="translate(318.181637 315.956875)scale(0.2 -0.2)">
       <use xlink:href="#DejaVuSans-52"/>
      </g>
     </g>
    </g>
    <g id="xtick_4">
     <g id="line2d_7">
      <path clip-path="url(#p1ff3ef5db2)" d="M 432.764487 293.76 
L 432.764487 3.456 
" style="fill:none;stroke:#b0b0b0;stroke-linecap:square;stroke-width:0.8;"/>
     </g>
     <g id="line2d_8">
      <g>
       <use style="stroke:#000000;stroke-width:0.8;" x="432.764487" xlink:href="#mdd47600296" y="293.76"/>
      </g>
     </g>
     <g id="text_4">
      <!-- 8 -->
      <defs>
       <path d="M 31.78125 34.625 
Q 24.75 34.625 20.71875 30.859375 
Q 16.703125 27.09375 16.703125 20.515625 
Q 16.703125 13.921875 20.71875 10.15625 
Q 24.75 6.390625 31.78125 6.390625 
Q 38.8125 6.390625 42.859375 10.171875 
Q 46.921875 13.96875 46.921875 20.515625 
Q 46.921875 27.09375 42.890625 30.859375 
Q 38.875 34.625 31.78125 34.625 
z
M 21.921875 38.8125 
Q 15.578125 40.375 12.03125 44.71875 
Q 8.5 49.078125 8.5 55.328125 
Q 8.5 64.0625 14.71875 69.140625 
Q 20.953125 74.21875 31.78125 74.21875 
Q 42.671875 74.21875 48.875 69.140625 
Q 55.078125 64.0625 55.078125 55.328125 
Q 55.078125 49.078125 51.53125 44.71875 
Q 48 40.375 41.703125 38.8125 
Q 48.828125 37.15625 52.796875 32.3125 
Q 56.78125 27.484375 56.78125 20.515625 
Q 56.78125 9.90625 50.3125 4.234375 
Q 43.84375 -1.421875 31.78125 -1.421875 
Q 19.734375 -1.421875 13.25 4.234375 
Q 6.78125 9.90625 6.78125 20.515625 
Q 6.78125 27.484375 10.78125 32.3125 
Q 14.796875 37.15625 21.921875 38.8125 
z
M 18.3125 54.390625 
Q 18.3125 48.734375 21.84375 45.5625 
Q 25.390625 42.390625 31.78125 42.390625 
Q 38.140625 42.390625 41.71875 45.5625 
Q 45.3125 48.734375 45.3125 54.390625 
Q 45.3125 60.0625 41.71875 63.234375 
Q 38.140625 66.40625 31.78125 66.40625 
Q 25.390625 66.40625 21.84375 63.234375 
Q 18.3125 60.0625 18.3125 54.390625 
z
" id="DejaVuSans-56"/>
      </defs>
      <g transform="translate(426.401987 315.956875)scale(0.2 -0.2)">
       <use xlink:href="#DejaVuSans-56"/>
      </g>
     </g>
    </g>
    <g id="text_5">
     <!-- log10 of Df -->
     <defs>
      <path d="M 9.421875 75.984375 
L 18.40625 75.984375 
L 18.40625 0 
L 9.421875 0 
z
" id="DejaVuSans-108"/>
      <path d="M 30.609375 48.390625 
Q 23.390625 48.390625 19.1875 42.75 
Q 14.984375 37.109375 14.984375 27.296875 
Q 14.984375 17.484375 19.15625 11.84375 
Q 23.34375 6.203125 30.609375 6.203125 
Q 37.796875 6.203125 41.984375 11.859375 
Q 46.1875 17.53125 46.1875 27.296875 
Q 46.1875 37.015625 41.984375 42.703125 
Q 37.796875 48.390625 30.609375 48.390625 
z
M 30.609375 56 
Q 42.328125 56 49.015625 48.375 
Q 55.71875 40.765625 55.71875 27.296875 
Q 55.71875 13.875 49.015625 6.21875 
Q 42.328125 -1.421875 30.609375 -1.421875 
Q 18.84375 -1.421875 12.171875 6.21875 
Q 5.515625 13.875 5.515625 27.296875 
Q 5.515625 40.765625 12.171875 48.375 
Q 18.84375 56 30.609375 56 
z
" id="DejaVuSans-111"/>
      <path d="M 45.40625 27.984375 
Q 45.40625 37.75 41.375 43.109375 
Q 37.359375 48.484375 30.078125 48.484375 
Q 22.859375 48.484375 18.828125 43.109375 
Q 14.796875 37.75 14.796875 27.984375 
Q 14.796875 18.265625 18.828125 12.890625 
Q 22.859375 7.515625 30.078125 7.515625 
Q 37.359375 7.515625 41.375 12.890625 
Q 45.40625 18.265625 45.40625 27.984375 
z
M 54.390625 6.78125 
Q 54.390625 -7.171875 48.1875 -13.984375 
Q 42 -20.796875 29.203125 -20.796875 
Q 24.46875 -20.796875 20.265625 -20.09375 
Q 16.0625 -19.390625 12.109375 -17.921875 
L 12.109375 -9.1875 
Q 16.0625 -11.328125 19.921875 -12.34375 
Q 23.78125 -13.375 27.78125 -13.375 
Q 36.625 -13.375 41.015625 -8.765625 
Q 45.40625 -4.15625 45.40625 5.171875 
L 45.40625 9.625 
Q 42.625 4.78125 38.28125 2.390625 
Q 33.9375 0 27.875 0 
Q 17.828125 0 11.671875 7.65625 
Q 5.515625 15.328125 5.515625 27.984375 
Q 5.515625 40.671875 11.671875 48.328125 
Q 17.828125 56 27.875 56 
Q 33.9375 56 38.28125 53.609375 
Q 42.625 51.21875 45.40625 46.390625 
L 45.40625 54.6875 
L 54.390625 54.6875 
z
" id="DejaVuSans-103"/>
      <path d="M 12.40625 8.296875 
L 28.515625 8.296875 
L 28.515625 63.921875 
L 10.984375 60.40625 
L 10.984375 69.390625 
L 28.421875 72.90625 
L 38.28125 72.90625 
L 38.28125 8.296875 
L 54.390625 8.296875 
L 54.390625 0 
L 12.40625 0 
z
" id="DejaVuSans-49"/>
      <path id="DejaVuSans-32"/>
      <path d="M 37.109375 75.984375 
L 37.109375 68.5 
L 28.515625 68.5 
Q 23.6875 68.5 21.796875 66.546875 
Q 19.921875 64.59375 19.921875 59.515625 
L 19.921875 54.6875 
L 34.71875 54.6875 
L 34.71875 47.703125 
L 19.921875 47.703125 
L 19.921875 0 
L 10.890625 0 
L 10.890625 47.703125 
L 2.296875 47.703125 
L 2.296875 54.6875 
L 10.890625 54.6875 
L 10.890625 58.5 
Q 10.890625 67.625 15.140625 71.796875 
Q 19.390625 75.984375 28.609375 75.984375 
z
" id="DejaVuSans-102"/>
      <path d="M 19.671875 64.796875 
L 19.671875 8.109375 
L 31.59375 8.109375 
Q 46.6875 8.109375 53.6875 14.9375 
Q 60.6875 21.78125 60.6875 36.53125 
Q 60.6875 51.171875 53.6875 57.984375 
Q 46.6875 64.796875 31.59375 64.796875 
z
M 9.8125 72.90625 
L 30.078125 72.90625 
Q 51.265625 72.90625 61.171875 64.09375 
Q 71.09375 55.28125 71.09375 36.53125 
Q 71.09375 17.671875 61.125 8.828125 
Q 51.171875 0 30.078125 0 
L 9.8125 0 
z
" id="DejaVuSans-68"/>
     </defs>
     <g transform="translate(175.214063 339.313125)scale(0.2 -0.2)">
      <use xlink:href="#DejaVuSans-108"/>
      <use x="27.783203" xlink:href="#DejaVuSans-111"/>
      <use x="88.964844" xlink:href="#DejaVuSans-103"/>
      <use x="152.441406" xlink:href="#DejaVuSans-49"/>
      <use x="216.064453" xlink:href="#DejaVuSans-48"/>
      <use x="279.6875" xlink:href="#DejaVuSans-32"/>
      <use x="311.474609" xlink:href="#DejaVuSans-111"/>
      <use x="372.65625" xlink:href="#DejaVuSans-102"/>
      <use x="407.861328" xlink:href="#DejaVuSans-32"/>
      <use x="439.648438" xlink:href="#DejaVuSans-68"/>
      <use x="516.650391" xlink:href="#DejaVuSans-102"/>
     </g>
    </g>
   </g>
   <g id="matplotlib.axis_2">
    <g id="ytick_1">
     <g id="line2d_9">
      <path clip-path="url(#p1ff3ef5db2)" d="M 0 293.76 
L 460.8 293.76 
" style="fill:none;stroke:#b0b0b0;stroke-linecap:square;stroke-width:0.8;"/>
     </g>
     <g id="line2d_10">
      <defs>
       <path d="M 0 0 
L -3.5 0 
" id="mc17f54c1cb" style="stroke:#000000;stroke-width:0.8;"/>
      </defs>
      <g>
       <use style="stroke:#000000;stroke-width:0.8;" x="0" xlink:href="#mc17f54c1cb" y="293.76"/>
      </g>
     </g>
    </g>
    <g id="ytick_2">
     <g id="line2d_11">
      <path clip-path="url(#p1ff3ef5db2)" d="M 0 236.274059 
L 460.8 236.274059 
" style="fill:none;stroke:#b0b0b0;stroke-linecap:square;stroke-width:0.8;"/>
     </g>
     <g id="line2d_12">
      <g>
       <use style="stroke:#000000;stroke-width:0.8;" x="0" xlink:href="#mc17f54c1cb" y="236.274059"/>
      </g>
     </g>
    </g>
    <g id="ytick_3">
     <g id="line2d_13">
      <path clip-path="url(#p1ff3ef5db2)" d="M 0 178.788119 
L 460.8 178.788119 
" style="fill:none;stroke:#b0b0b0;stroke-linecap:square;stroke-width:0.8;"/>
     </g>
     <g id="line2d_14">
      <g>
       <use style="stroke:#000000;stroke-width:0.8;" x="0" xlink:href="#mc17f54c1cb" y="178.788119"/>
      </g>
     </g>
    </g>
    <g id="ytick_4">
     <g id="line2d_15">
      <path clip-path="url(#p1ff3ef5db2)" d="M 0 121.302178 
L 460.8 121.302178 
" style="fill:none;stroke:#b0b0b0;stroke-linecap:square;stroke-width:0.8;"/>
     </g>
     <g id="line2d_16">
      <g>
       <use style="stroke:#000000;stroke-width:0.8;" x="0" xlink:href="#mc17f54c1cb" y="121.302178"/>
      </g>
     </g>
    </g>
    <g id="ytick_5">
     <g id="line2d_17">
      <path clip-path="url(#p1ff3ef5db2)" d="M 0 63.816238 
L 460.8 63.816238 
" style="fill:none;stroke:#b0b0b0;stroke-linecap:square;stroke-width:0.8;"/>
     </g>
     <g id="line2d_18">
      <g>
       <use style="stroke:#000000;stroke-width:0.8;" x="0" xlink:href="#mc17f54c1cb" y="63.816238"/>
      </g>
     </g>
    </g>
    <g id="ytick_6">
     <g id="line2d_19">
      <path clip-path="url(#p1ff3ef5db2)" d="M 0 6.330297 
L 460.8 6.330297 
" style="fill:none;stroke:#b0b0b0;stroke-linecap:square;stroke-width:0.8;"/>
     </g>
     <g id="line2d_20">
      <g>
       <use style="stroke:#000000;stroke-width:0.8;" x="0" xlink:href="#mc17f54c1cb" y="6.330297"/>
      </g>
     </g>
    </g>
   </g>
   <g id="line2d_21">
    <path clip-path="url(#p1ff3ef5db2)" d="M -1 289.927604 
L 231.890008 289.927604 
L 231.890008 286.095208 
L 235.02488 286.095208 
L 235.02488 282.262812 
L 237.303419 282.262812 
L 237.303419 278.430416 
L 242.708091 278.430416 
L 242.708091 274.59802 
L 244.329532 274.59802 
L 244.329532 270.765624 
L 245.766097 270.765624 
L 245.766097 266.933228 
L 248.211298 266.933228 
L 248.211298 263.100832 
L 248.461492 263.100832 
L 248.461492 259.268436 
L 250.015634 259.268436 
L 250.015634 255.43604 
L 250.729102 255.43604 
L 250.729102 251.603644 
L 253.943693 251.603644 
L 253.943693 247.771248 
L 254.335411 247.771248 
L 254.335411 243.938851 
L 254.962622 243.938851 
L 254.962622 240.106455 
L 256.89801 240.106455 
L 256.89801 236.274059 
L 257.860152 236.274059 
L 257.860152 232.441663 
L 259.056531 232.441663 
L 259.056531 228.609267 
L 259.490123 228.609267 
L 259.490123 224.776871 
L 259.724285 224.776871 
L 259.724285 220.944475 
L 260.414634 220.944475 
L 260.414634 217.112079 
L 260.731863 217.112079 
L 260.731863 213.279683 
L 261.587664 213.279683 
L 261.587664 205.614891 
L 261.996699 205.614891 
L 261.996699 201.782495 
L 262.679122 201.782495 
L 262.679122 194.117703 
L 262.856397 194.117703 
L 262.856397 190.285307 
L 263.04411 190.285307 
L 263.07616 178.788119 
L 263.87521 178.788119 
L 263.87521 174.955723 
L 264.659114 174.955723 
L 264.659114 171.123327 
L 265.94077 171.123327 
L 265.94077 167.290931 
L 266.213156 167.290931 
L 266.213156 163.458535 
L 267.216329 163.458535 
L 267.216329 159.626139 
L 267.382697 159.626139 
L 267.455087 151.961347 
L 267.948298 151.961347 
L 267.953419 144.296554 
L 268.307599 144.296554 
L 268.307599 140.464158 
L 268.529068 140.464158 
L 268.529068 136.631762 
L 268.846199 136.631762 
L 268.872946 128.96697 
L 269.280349 128.96697 
L 269.280349 125.134574 
L 269.654297 125.134574 
L 269.654297 121.302178 
L 270.220415 121.302178 
L 270.220415 117.469782 
L 270.440944 117.469782 
L 270.485252 109.80499 
L 270.673039 109.80499 
L 270.673039 105.972594 
L 270.8158 105.972594 
L 270.8158 102.140198 
L 271.890366 102.140198 
L 271.890366 98.307802 
L 272.352798 98.307802 
L 272.352798 94.475406 
L 272.789277 94.475406 
L 272.891698 82.978218 
L 273.253354 82.978218 
L 273.253354 79.145822 
L 273.734689 79.145822 
L 273.734689 75.313426 
L 274.007347 75.313426 
L 274.007347 71.48103 
L 274.736772 71.48103 
L 274.736772 67.648634 
L 275.734178 67.648634 
L 275.734178 63.816238 
L 335.312382 63.816238 
L 335.312382 59.983842 
L 338.472315 59.983842 
L 338.472315 56.151446 
L 339.249524 56.151446 
L 339.249524 52.31905 
L 340.026429 52.31905 
L 340.026429 48.486653 
L 342.639137 48.486653 
L 342.639137 44.654257 
L 343.068486 44.654257 
L 343.068486 40.821861 
L 344.155827 40.821861 
L 344.155827 36.989465 
L 352.4386 36.989465 
L 352.4386 33.157069 
L 353.113114 33.157069 
L 353.113114 29.324673 
L 358.639089 29.324673 
L 358.639089 25.492277 
L 363.707988 25.492277 
L 363.707988 21.659881 
L 366.311809 21.659881 
L 366.372353 13.995089 
L 375.709283 13.995089 
L 375.709283 10.162693 
L 380.353756 10.162693 
L 380.353756 6.330297 
L 380.353756 6.330297 
L 460.8 6.330297 
L 460.8 6.330297 
" style="fill:none;stroke:#ff0000;stroke-linecap:square;stroke-width:3;"/>
   </g>
   <g id="line2d_22">
    <path clip-path="url(#p1ff3ef5db2)" d="M 246.663668 293.76 
L 246.663668 289.927604 
L 251.831768 289.927604 
L 251.831768 286.095208 
L 252.756528 286.095208 
L 252.756528 282.262812 
L 254.968903 282.262812 
L 254.968903 278.430416 
L 255.728788 278.430416 
L 255.728788 274.59802 
L 256.303589 274.59802 
L 256.303589 270.765624 
L 257.91835 270.765624 
L 257.91835 266.933228 
L 258.41055 266.933228 
L 258.41055 263.100832 
L 260.731863 263.100832 
L 260.731863 259.268436 
L 261.481485 259.268436 
L 261.481485 255.43604 
L 262.232945 255.43604 
L 262.232945 251.603644 
L 262.362418 251.603644 
L 262.362418 247.771248 
L 263.04411 247.771248 
L 263.04411 240.106455 
L 263.16516 240.106455 
L 263.16516 236.274059 
L 264.002215 236.274059 
L 264.002215 232.441663 
L 264.226299 232.441663 
L 264.226299 224.776871 
L 264.730414 224.776871 
L 264.730414 220.944475 
L 264.91452 220.944475 
L 264.956466 209.447287 
L 267.382697 209.447287 
L 267.455087 201.782495 
L 267.786879 201.782495 
L 267.786879 197.950099 
L 269.081 197.950099 
L 269.081 194.117703 
L 269.211859 194.117703 
L 269.292399 182.620515 
L 269.540775 182.620515 
L 269.540775 178.788119 
L 269.831164 178.788119 
L 269.831164 174.955723 
L 272.948421 174.955723 
L 272.948421 171.123327 
L 273.082606 171.123327 
L 273.082606 167.290931 
L 273.522322 167.290931 
L 273.522322 163.458535 
L 275.736422 163.458535 
L 275.736422 159.626139 
L 276.820465 159.626139 
L 276.820465 155.793743 
L 276.965855 155.793743 
L 276.965855 151.961347 
L 278.140065 151.961347 
L 278.140065 148.12895 
L 279.551629 148.12895 
L 279.605059 140.464158 
L 280.931139 140.464158 
L 280.931139 136.631762 
L 282.232582 136.631762 
L 282.232582 132.799366 
L 282.625127 132.799366 
L 282.625127 128.96697 
L 284.425845 128.96697 
L 284.425845 125.134574 
L 284.58422 125.134574 
L 284.58422 121.302178 
L 285.019584 121.302178 
L 285.019584 117.469782 
L 285.164039 117.469782 
L 285.164039 113.637386 
L 285.427758 113.637386 
L 285.427758 109.80499 
L 285.689573 109.80499 
L 285.689573 105.972594 
L 286.6151 105.972594 
L 286.6151 102.140198 
L 287.004093 102.140198 
L 287.044697 94.475406 
L 287.186808 94.475406 
L 287.186808 90.64301 
L 287.959884 90.64301 
L 287.959884 86.810614 
L 290.246849 86.810614 
L 290.246849 82.978218 
L 290.531438 82.978218 
L 290.531438 79.145822 
L 290.908326 79.145822 
L 290.908326 75.313426 
L 291.63379 75.313426 
L 291.63379 71.48103 
L 297.110073 71.48103 
L 297.110073 67.648634 
L 297.259566 67.648634 
L 297.259566 63.816238 
L 342.639137 63.816238 
L 342.639137 59.983842 
L 366.673444 59.983842 
L 366.673444 56.151446 
L 372.79005 56.151446 
L 372.79005 52.31905 
L 374.111931 52.31905 
L 374.111931 48.486653 
L 378.648297 48.486653 
L 378.680813 40.821861 
L 378.820419 40.821861 
L 378.820419 36.989465 
L 391.060692 36.989465 
L 391.060692 33.157069 
L 391.638971 33.157069 
L 391.638971 29.324673 
L 395.495102 29.324673 
L 395.495102 25.492277 
L 405.9514 25.492277 
L 405.9514 21.659881 
L 406.375466 21.659881 
L 406.375466 17.827485 
L 409.215993 17.827485 
L 409.215993 13.995089 
L 411.635093 13.995089 
L 411.635093 10.162693 
L 416.363112 10.162693 
L 416.363112 6.330297 
L 416.363112 6.330297 
L 460.8 6.330297 
L 460.8 6.330297 
" style="fill:none;stroke:#00bfbf;stroke-linecap:square;stroke-width:1.5;"/>
   </g>
   <g id="line2d_23">
    <path clip-path="url(#p1ff3ef5db2)" d="M 231.890008 293.76 
L 231.890008 289.927604 
L 244.329532 289.927604 
L 244.329532 286.095208 
L 246.663668 286.095208 
L 246.663668 282.262812 
L 248.211298 282.262812 
L 248.211298 278.430416 
L 249.583864 278.430416 
L 249.583864 274.59802 
L 254.242631 274.59802 
L 254.335411 266.933228 
L 254.443689 266.933228 
L 254.443689 263.100832 
L 254.968903 263.100832 
L 254.968903 259.268436 
L 256.303589 259.268436 
L 256.303589 255.43604 
L 257.148293 255.43604 
L 257.148293 251.603644 
L 259.686206 251.603644 
L 259.686206 247.771248 
L 260.504974 247.771248 
L 260.504974 243.938851 
L 260.731863 243.938851 
L 260.731863 240.106455 
L 261.031427 240.106455 
L 261.031427 236.274059 
L 261.307237 236.274059 
L 261.392016 228.609267 
L 262.073275 228.609267 
L 262.073275 224.776871 
L 262.679122 224.776871 
L 262.679122 217.112079 
L 263.04411 217.112079 
L 263.04411 209.447287 
L 264.226299 209.447287 
L 264.226299 205.614891 
L 264.956466 205.614891 
L 264.956466 201.782495 
L 265.176857 201.782495 
L 265.176857 197.950099 
L 266.233194 197.950099 
L 266.233194 194.117703 
L 267.382697 194.117703 
L 267.455087 186.452911 
L 267.948298 186.452911 
L 267.948298 182.620515 
L 268.182896 182.620515 
L 268.182896 178.788119 
L 269.211859 178.788119 
L 269.211859 171.123327 
L 270.440944 171.123327 
L 270.440944 167.290931 
L 271.764397 167.290931 
L 271.764397 163.458535 
L 272.311029 163.458535 
L 272.311029 159.626139 
L 272.478203 159.626139 
L 272.478203 155.793743 
L 272.609731 155.793743 
L 272.609731 151.961347 
L 272.847533 151.961347 
L 272.847533 148.12895 
L 274.584545 148.12895 
L 274.584545 144.296554 
L 276.448715 144.296554 
L 276.448715 140.464158 
L 276.820465 140.464158 
L 276.820465 136.631762 
L 276.965855 136.631762 
L 276.965855 132.799366 
L 277.153061 132.799366 
L 277.153061 128.96697 
L 278.140065 128.96697 
L 278.140065 125.134574 
L 278.737048 125.134574 
L 278.737048 121.302178 
L 279.455629 121.302178 
L 279.525055 113.637386 
L 280.931139 113.637386 
L 280.931139 109.80499 
L 282.232582 109.80499 
L 282.232582 105.972594 
L 282.550457 105.972594 
L 282.550457 102.140198 
L 284.149043 102.140198 
L 284.149043 98.307802 
L 284.425845 98.307802 
L 284.425845 94.475406 
L 284.58422 94.475406 
L 284.58422 90.64301 
L 285.427758 90.64301 
L 285.427758 86.810614 
L 285.689573 86.810614 
L 285.689573 82.978218 
L 286.6151 82.978218 
L 286.6151 79.145822 
L 287.004093 79.145822 
L 287.004093 75.313426 
L 287.186808 75.313426 
L 287.186808 71.48103 
L 287.959884 71.48103 
L 287.959884 67.648634 
L 290.531438 67.648634 
L 290.531438 63.816238 
L 335.312382 63.816238 
L 335.312382 59.983842 
L 342.639137 59.983842 
L 342.639137 56.151446 
L 366.673444 56.151446 
L 366.673444 52.31905 
L 367.820778 52.31905 
L 367.820778 48.486653 
L 369.577534 48.486653 
L 369.577534 44.654257 
L 373.214204 44.654257 
L 373.214204 40.821861 
L 375.348246 40.821861 
L 375.348246 36.989465 
L 378.648297 36.989465 
L 378.680813 29.324673 
L 380.77738 29.324673 
L 380.77738 25.492277 
L 381.856792 25.492277 
L 381.890422 17.827485 
L 383.032304 17.827485 
L 383.032304 13.995089 
L 389.503546 13.995089 
L 389.503546 10.162693 
L 399.503389 10.162693 
L 399.503389 6.330297 
L 399.503389 6.330297 
L 460.8 6.330297 
L 460.8 6.330297 
" style="fill:none;stroke:#bf00bf;stroke-linecap:square;stroke-width:1.5;"/>
   </g>
   <g id="line2d_24">
    <path clip-path="url(#p1ff3ef5db2)" d="M 231.890008 293.76 
L 231.890008 289.927604 
L 235.02488 289.927604 
L 235.02488 286.095208 
L 237.303419 286.095208 
L 237.303419 282.262812 
L 242.708091 282.262812 
L 242.708091 278.430416 
L 244.329532 278.430416 
L 244.329532 274.59802 
L 247.353559 274.59802 
L 247.353559 270.765624 
L 248.211298 270.765624 
L 248.211298 266.933228 
L 248.461492 266.933228 
L 248.461492 263.100832 
L 252.300536 263.100832 
L 252.300536 259.268436 
L 252.840002 259.268436 
L 252.840002 255.43604 
L 253.943693 255.43604 
L 253.943693 251.603644 
L 254.335411 251.603644 
L 254.335411 247.771248 
L 257.148293 247.771248 
L 257.148293 243.938851 
L 258.282867 243.938851 
L 258.282867 240.106455 
L 260.731863 240.106455 
L 260.731863 236.274059 
L 261.031427 236.274059 
L 261.031427 232.441663 
L 261.307237 232.441663 
L 261.392016 224.776871 
L 261.76394 224.776871 
L 261.76394 220.944475 
L 262.073275 220.944475 
L 262.073275 217.112079 
L 262.679122 217.112079 
L 262.679122 209.447287 
L 263.04411 209.447287 
L 263.132935 194.117703 
L 263.87521 194.117703 
L 263.87521 190.285307 
L 264.226299 190.285307 
L 264.226299 186.452911 
L 264.659114 186.452911 
L 264.659114 182.620515 
L 264.817488 182.620515 
L 264.817488 178.788119 
L 267.216329 178.788119 
L 267.216329 174.955723 
L 267.382697 174.955723 
L 267.455087 167.290931 
L 267.621808 167.290931 
L 267.621808 163.458535 
L 267.948298 163.458535 
L 267.953419 155.793743 
L 268.307599 155.793743 
L 268.307599 151.961347 
L 268.529068 151.961347 
L 268.529068 148.12895 
L 268.872946 148.12895 
L 268.872946 144.296554 
L 269.164283 144.296554 
L 269.164283 140.464158 
L 269.519905 140.464158 
L 269.519905 136.631762 
L 270.440944 136.631762 
L 270.440944 132.799366 
L 270.583817 132.799366 
L 270.603143 125.134574 
L 270.905425 125.134574 
L 270.936244 117.469782 
L 272.670004 117.469782 
L 272.670004 113.637386 
L 273.253354 113.637386 
L 273.316122 98.307802 
L 273.904598 98.307802 
L 273.904598 94.475406 
L 275.310072 94.475406 
L 275.310072 90.64301 
L 276.306158 90.64301 
L 276.414693 82.978218 
L 276.965855 82.978218 
L 276.965855 79.145822 
L 277.493483 79.145822 
L 277.493483 75.313426 
L 278.052589 75.313426 
L 278.052589 71.48103 
L 282.445529 71.48103 
L 282.445529 67.648634 
L 285.23368 67.648634 
L 285.23368 63.816238 
L 335.312382 63.816238 
L 335.312382 59.983842 
L 338.472315 59.983842 
L 338.472315 56.151446 
L 342.639137 56.151446 
L 342.639137 52.31905 
L 343.068486 52.31905 
L 343.068486 48.486653 
L 344.155827 48.486653 
L 344.155827 44.654257 
L 352.4386 44.654257 
L 352.4386 40.821861 
L 353.113114 40.821861 
L 353.113114 36.989465 
L 356.068324 36.989465 
L 356.068324 33.157069 
L 358.639089 33.157069 
L 358.639089 29.324673 
L 363.707988 29.324673 
L 363.707988 25.492277 
L 364.951932 25.492277 
L 364.951932 21.659881 
L 366.311809 21.659881 
L 366.372353 13.995089 
L 375.709283 13.995089 
L 375.709283 10.162693 
L 381.530045 10.162693 
L 381.530045 6.330297 
L 381.530045 6.330297 
L 460.8 6.330297 
L 460.8 6.330297 
" style="fill:none;stroke:#000000;stroke-linecap:square;stroke-width:1.5;"/>
   </g>
   <g id="line2d_25">
    <path clip-path="url(#p1ff3ef5db2)" d="M 231.890008 293.76 
L 231.890008 289.927604 
L 235.02488 289.927604 
L 235.02488 286.095208 
L 237.303419 286.095208 
L 237.303419 282.262812 
L 242.708091 282.262812 
L 242.708091 278.430416 
L 244.329532 278.430416 
L 244.329532 274.59802 
L 245.766097 274.59802 
L 245.766097 270.765624 
L 246.060477 270.765624 
L 246.060477 266.933228 
L 248.211298 266.933228 
L 248.211298 263.100832 
L 248.461492 263.100832 
L 248.461492 259.268436 
L 250.015634 259.268436 
L 250.015634 255.43604 
L 250.729102 255.43604 
L 250.729102 251.603644 
L 253.943693 251.603644 
L 253.943693 247.771248 
L 254.335411 247.771248 
L 254.335411 243.938851 
L 254.962622 243.938851 
L 254.962622 240.106455 
L 256.89801 240.106455 
L 256.89801 236.274059 
L 257.860152 236.274059 
L 257.860152 232.441663 
L 259.056531 232.441663 
L 259.056531 228.609267 
L 259.490123 228.609267 
L 259.490123 224.776871 
L 259.724285 224.776871 
L 259.724285 220.944475 
L 260.414634 220.944475 
L 260.414634 217.112079 
L 260.731863 217.112079 
L 260.731863 213.279683 
L 261.587664 213.279683 
L 261.587664 205.614891 
L 261.996699 205.614891 
L 261.996699 201.782495 
L 262.679122 201.782495 
L 262.679122 194.117703 
L 262.856397 194.117703 
L 262.856397 190.285307 
L 263.04411 190.285307 
L 263.07616 178.788119 
L 263.87521 178.788119 
L 263.87521 174.955723 
L 264.659114 174.955723 
L 264.659114 171.123327 
L 265.94077 171.123327 
L 265.94077 167.290931 
L 266.213156 167.290931 
L 266.213156 163.458535 
L 267.216329 163.458535 
L 267.216329 159.626139 
L 267.382697 159.626139 
L 267.455087 151.961347 
L 267.948298 151.961347 
L 267.953419 144.296554 
L 268.307599 144.296554 
L 268.307599 140.464158 
L 268.529068 140.464158 
L 268.529068 136.631762 
L 268.846199 136.631762 
L 268.872946 128.96697 
L 269.280349 128.96697 
L 269.280349 125.134574 
L 269.654297 125.134574 
L 269.654297 121.302178 
L 270.220415 121.302178 
L 270.220415 117.469782 
L 270.440944 117.469782 
L 270.485252 109.80499 
L 270.673039 109.80499 
L 270.673039 105.972594 
L 270.8158 105.972594 
L 270.8158 102.140198 
L 271.890366 102.140198 
L 271.890366 98.307802 
L 272.352798 98.307802 
L 272.352798 94.475406 
L 272.789277 94.475406 
L 272.891698 82.978218 
L 273.253354 82.978218 
L 273.253354 79.145822 
L 273.734689 79.145822 
L 273.734689 75.313426 
L 274.007347 75.313426 
L 274.007347 71.48103 
L 274.736772 71.48103 
L 274.736772 67.648634 
L 275.734178 67.648634 
L 275.734178 63.816238 
L 335.312382 63.816238 
L 335.312382 59.983842 
L 338.472315 59.983842 
L 338.472315 56.151446 
L 339.249524 56.151446 
L 339.249524 52.31905 
L 340.026429 52.31905 
L 340.026429 48.486653 
L 342.639137 48.486653 
L 342.639137 44.654257 
L 343.068486 44.654257 
L 343.068486 40.821861 
L 344.155827 40.821861 
L 344.155827 36.989465 
L 352.4386 36.989465 
L 352.4386 33.157069 
L 353.113114 33.157069 
L 353.113114 29.324673 
L 358.639089 29.324673 
L 358.639089 25.492277 
L 363.707988 25.492277 
L 363.707988 21.659881 
L 366.311809 21.659881 
L 366.372353 13.995089 
L 375.709283 13.995089 
L 375.709283 10.162693 
L 380.353756 10.162693 
L 380.353756 6.330297 
L 380.353756 6.330297 
L 460.8 6.330297 
L 460.8 6.330297 
" style="fill:none;stroke:#00bfbf;stroke-linecap:square;stroke-width:1.5;"/>
   </g>
   <g id="line2d_26">
    <path clip-path="url(#p1ff3ef5db2)" d="M 221.693924 293.76 
L 221.693924 289.927604 
L 231.890008 289.927604 
L 231.890008 286.095208 
L 235.02488 286.095208 
L 235.02488 282.262812 
L 237.303419 282.262812 
L 237.303419 278.430416 
L 242.708091 278.430416 
L 242.708091 274.59802 
L 244.329532 274.59802 
L 244.329532 270.765624 
L 245.766097 270.765624 
L 245.766097 266.933228 
L 248.211298 266.933228 
L 248.211298 263.100832 
L 248.461492 263.100832 
L 248.461492 259.268436 
L 250.015634 259.268436 
L 250.015634 255.43604 
L 250.729102 255.43604 
L 250.729102 251.603644 
L 253.943693 251.603644 
L 253.943693 247.771248 
L 254.335411 247.771248 
L 254.335411 243.938851 
L 254.962622 243.938851 
L 254.962622 240.106455 
L 256.89801 240.106455 
L 256.89801 236.274059 
L 257.860152 236.274059 
L 257.860152 232.441663 
L 259.056531 232.441663 
L 259.056531 228.609267 
L 259.490123 228.609267 
L 259.490123 224.776871 
L 259.724285 224.776871 
L 259.724285 220.944475 
L 260.414634 220.944475 
L 260.414634 217.112079 
L 260.731863 217.112079 
L 260.731863 213.279683 
L 261.587664 213.279683 
L 261.587664 205.614891 
L 261.996699 205.614891 
L 261.996699 201.782495 
L 262.679122 201.782495 
L 262.679122 194.117703 
L 262.856397 194.117703 
L 262.856397 190.285307 
L 263.04411 190.285307 
L 263.07616 178.788119 
L 263.87521 178.788119 
L 263.87521 174.955723 
L 264.659114 174.955723 
L 264.659114 171.123327 
L 265.94077 171.123327 
L 265.94077 167.290931 
L 266.213156 167.290931 
L 266.213156 163.458535 
L 267.216329 163.458535 
L 267.216329 159.626139 
L 267.382697 159.626139 
L 267.455087 151.961347 
L 267.948298 151.961347 
L 267.953419 144.296554 
L 268.307599 144.296554 
L 268.307599 140.464158 
L 268.529068 140.464158 
L 268.529068 136.631762 
L 268.846199 136.631762 
L 268.872946 128.96697 
L 269.280349 128.96697 
L 269.280349 125.134574 
L 269.654297 125.134574 
L 269.654297 121.302178 
L 270.220415 121.302178 
L 270.220415 117.469782 
L 270.440944 117.469782 
L 270.485252 109.80499 
L 270.673039 109.80499 
L 270.673039 105.972594 
L 270.8158 105.972594 
L 270.8158 102.140198 
L 271.890366 102.140198 
L 271.890366 98.307802 
L 272.352798 98.307802 
L 272.352798 94.475406 
L 272.789277 94.475406 
L 272.891698 82.978218 
L 273.253354 82.978218 
L 273.253354 79.145822 
L 273.734689 79.145822 
L 273.734689 75.313426 
L 274.007347 75.313426 
L 274.007347 71.48103 
L 274.736772 71.48103 
L 274.736772 67.648634 
L 275.734178 67.648634 
L 275.734178 63.816238 
L 335.312382 63.816238 
L 335.312382 59.983842 
L 338.472315 59.983842 
L 338.472315 56.151446 
L 339.249524 56.151446 
L 339.249524 52.31905 
L 340.026429 52.31905 
L 340.026429 48.486653 
L 342.639137 48.486653 
L 342.639137 44.654257 
L 343.068486 44.654257 
L 343.068486 40.821861 
L 344.155827 40.821861 
L 344.155827 36.989465 
L 352.4386 36.989465 
L 352.4386 33.157069 
L 353.113114 33.157069 
L 353.113114 29.324673 
L 358.639089 29.324673 
L 358.639089 25.492277 
L 363.707988 25.492277 
L 363.707988 21.659881 
L 366.311809 21.659881 
L 366.372353 13.995089 
L 375.709283 13.995089 
L 375.709283 10.162693 
L 380.353756 10.162693 
L 380.353756 6.330297 
L 380.353756 6.330297 
L 460.8 6.330297 
L 460.8 6.330297 
" style="fill:none;stroke:#bf00bf;stroke-linecap:square;stroke-width:1.5;"/>
   </g>
   <g id="line2d_27">
    <path clip-path="url(#p1ff3ef5db2)" d="M 191.513186 293.76 
L 191.513186 289.927604 
L 231.890008 289.927604 
L 231.890008 286.095208 
L 235.02488 286.095208 
L 235.02488 282.262812 
L 237.303419 282.262812 
L 237.303419 278.430416 
L 242.708091 278.430416 
L 242.708091 274.59802 
L 244.329532 274.59802 
L 244.329532 270.765624 
L 245.766097 270.765624 
L 245.766097 266.933228 
L 248.211298 266.933228 
L 248.211298 263.100832 
L 248.461492 263.100832 
L 248.461492 259.268436 
L 250.015634 259.268436 
L 250.015634 255.43604 
L 250.729102 255.43604 
L 250.729102 251.603644 
L 253.943693 251.603644 
L 253.943693 247.771248 
L 254.335411 247.771248 
L 254.335411 243.938851 
L 254.962622 243.938851 
L 254.962622 240.106455 
L 256.89801 240.106455 
L 256.89801 236.274059 
L 257.860152 236.274059 
L 257.860152 232.441663 
L 259.056531 232.441663 
L 259.056531 228.609267 
L 259.490123 228.609267 
L 259.490123 224.776871 
L 259.724285 224.776871 
L 259.724285 220.944475 
L 260.414634 220.944475 
L 260.414634 217.112079 
L 260.731863 217.112079 
L 260.731863 213.279683 
L 261.587664 213.279683 
L 261.587664 205.614891 
L 261.996699 205.614891 
L 261.996699 201.782495 
L 262.679122 201.782495 
L 262.679122 194.117703 
L 262.856397 194.117703 
L 262.856397 190.285307 
L 263.04411 190.285307 
L 263.07616 178.788119 
L 263.87521 178.788119 
L 263.87521 174.955723 
L 264.659114 174.955723 
L 264.659114 171.123327 
L 265.94077 171.123327 
L 265.94077 167.290931 
L 266.213156 167.290931 
L 266.213156 163.458535 
L 267.216329 163.458535 
L 267.216329 159.626139 
L 267.382697 159.626139 
L 267.455087 151.961347 
L 267.948298 151.961347 
L 267.953419 144.296554 
L 268.307599 144.296554 
L 268.307599 140.464158 
L 268.529068 140.464158 
L 268.529068 136.631762 
L 268.846199 136.631762 
L 268.872946 128.96697 
L 269.280349 128.96697 
L 269.280349 125.134574 
L 269.654297 125.134574 
L 269.654297 121.302178 
L 270.220415 121.302178 
L 270.220415 117.469782 
L 270.440944 117.469782 
L 270.485252 109.80499 
L 270.673039 109.80499 
L 270.673039 105.972594 
L 270.8158 105.972594 
L 270.8158 102.140198 
L 271.890366 102.140198 
L 271.890366 98.307802 
L 272.352798 98.307802 
L 272.352798 94.475406 
L 272.789277 94.475406 
L 272.891698 82.978218 
L 273.253354 82.978218 
L 273.253354 79.145822 
L 273.734689 79.145822 
L 273.734689 75.313426 
L 274.007347 75.313426 
L 274.007347 71.48103 
L 274.736772 71.48103 
L 274.736772 67.648634 
L 275.734178 67.648634 
L 275.734178 63.816238 
L 335.312382 63.816238 
L 335.312382 59.983842 
L 338.472315 59.983842 
L 338.472315 56.151446 
L 339.249524 56.151446 
L 339.249524 52.31905 
L 340.026429 52.31905 
L 340.026429 48.486653 
L 342.639137 48.486653 
L 342.639137 44.654257 
L 343.068486 44.654257 
L 343.068486 40.821861 
L 344.155827 40.821861 
L 344.155827 36.989465 
L 352.4386 36.989465 
L 352.4386 33.157069 
L 353.113114 33.157069 
L 353.113114 29.324673 
L 358.639089 29.324673 
L 358.639089 25.492277 
L 363.707988 25.492277 
L 363.707988 21.659881 
L 366.311809 21.659881 
L 366.372353 13.995089 
L 375.709283 13.995089 
L 375.709283 10.162693 
L 380.353756 10.162693 
L 380.353756 6.330297 
L 380.353756 6.330297 
L 460.8 6.330297 
L 460.8 6.330297 
" style="fill:none;stroke:#000000;stroke-linecap:square;stroke-width:1.5;"/>
   </g>
   <g id="line2d_28">
    <path clip-path="url(#p1ff3ef5db2)" d="M 33.682432 293.76 
L 33.682432 289.927604 
L 231.890008 289.927604 
L 231.890008 286.095208 
L 235.02488 286.095208 
L 235.02488 282.262812 
L 237.303419 282.262812 
L 237.303419 278.430416 
L 242.708091 278.430416 
L 242.708091 274.59802 
L 244.329532 274.59802 
L 244.329532 270.765624 
L 245.766097 270.765624 
L 245.766097 266.933228 
L 248.211298 266.933228 
L 248.211298 263.100832 
L 248.461492 263.100832 
L 248.461492 259.268436 
L 250.015634 259.268436 
L 250.015634 255.43604 
L 250.729102 255.43604 
L 250.729102 251.603644 
L 253.943693 251.603644 
L 253.943693 247.771248 
L 254.335411 247.771248 
L 254.335411 243.938851 
L 254.962622 243.938851 
L 254.962622 240.106455 
L 256.89801 240.106455 
L 256.89801 236.274059 
L 257.860152 236.274059 
L 257.860152 232.441663 
L 259.056531 232.441663 
L 259.056531 228.609267 
L 259.490123 228.609267 
L 259.490123 224.776871 
L 259.724285 224.776871 
L 259.724285 220.944475 
L 260.414634 220.944475 
L 260.414634 217.112079 
L 260.731863 217.112079 
L 260.731863 213.279683 
L 261.587664 213.279683 
L 261.587664 205.614891 
L 261.996699 205.614891 
L 261.996699 201.782495 
L 262.679122 201.782495 
L 262.679122 194.117703 
L 262.856397 194.117703 
L 262.856397 190.285307 
L 263.04411 190.285307 
L 263.07616 178.788119 
L 263.87521 178.788119 
L 263.87521 174.955723 
L 264.659114 174.955723 
L 264.659114 171.123327 
L 265.94077 171.123327 
L 265.94077 167.290931 
L 266.213156 167.290931 
L 266.213156 163.458535 
L 267.216329 163.458535 
L 267.216329 159.626139 
L 267.382697 159.626139 
L 267.455087 151.961347 
L 267.948298 151.961347 
L 267.953419 144.296554 
L 268.307599 144.296554 
L 268.307599 140.464158 
L 268.529068 140.464158 
L 268.529068 136.631762 
L 268.846199 136.631762 
L 268.872946 128.96697 
L 269.280349 128.96697 
L 269.280349 125.134574 
L 269.654297 125.134574 
L 269.654297 121.302178 
L 270.220415 121.302178 
L 270.220415 117.469782 
L 270.440944 117.469782 
L 270.485252 109.80499 
L 270.673039 109.80499 
L 270.673039 105.972594 
L 270.8158 105.972594 
L 270.8158 102.140198 
L 271.890366 102.140198 
L 271.890366 98.307802 
L 272.352798 98.307802 
L 272.352798 94.475406 
L 272.789277 94.475406 
L 272.891698 82.978218 
L 273.253354 82.978218 
L 273.253354 79.145822 
L 273.734689 79.145822 
L 273.734689 75.313426 
L 274.007347 75.313426 
L 274.007347 71.48103 
L 274.736772 71.48103 
L 274.736772 67.648634 
L 275.734178 67.648634 
L 275.734178 63.816238 
L 335.312382 63.816238 
L 335.312382 59.983842 
L 338.472315 59.983842 
L 338.472315 56.151446 
L 339.249524 56.151446 
L 339.249524 52.31905 
L 340.026429 52.31905 
L 340.026429 48.486653 
L 342.639137 48.486653 
L 342.639137 44.654257 
L 343.068486 44.654257 
L 343.068486 40.821861 
L 344.155827 40.821861 
L 344.155827 36.989465 
L 352.4386 36.989465 
L 352.4386 33.157069 
L 353.113114 33.157069 
L 353.113114 29.324673 
L 358.639089 29.324673 
L 358.639089 25.492277 
L 363.707988 25.492277 
L 363.707988 21.659881 
L 366.311809 21.659881 
L 366.372353 13.995089 
L 375.709283 13.995089 
L 375.709283 10.162693 
L 380.353756 10.162693 
L 380.353756 6.330297 
L 380.353756 6.330297 
L 460.8 6.330297 
L 460.8 6.330297 
" style="fill:none;stroke:#00bfbf;stroke-linecap:square;stroke-width:1.5;"/>
   </g>
   <g id="patch_3">
    <path d="M 0 293.76 
L 0 3.456 
" style="fill:none;stroke:#000000;stroke-linecap:square;stroke-linejoin:miter;stroke-width:0.8;"/>
   </g>
   <g id="patch_4">
    <path d="M 460.8 293.76 
L 460.8 3.456 
" style="fill:none;stroke:#000000;stroke-linecap:square;stroke-linejoin:miter;stroke-width:0.8;"/>
   </g>
   <g id="patch_5">
    <path d="M 0 293.76 
L 460.8 293.76 
" style="fill:none;stroke:#000000;stroke-linecap:square;stroke-linejoin:miter;stroke-width:0.8;"/>
   </g>
   <g id="patch_6">
    <path d="M 0 3.456 
L 460.8 3.456 
" style="fill:none;stroke:#000000;stroke-linecap:square;stroke-linejoin:miter;stroke-width:0.8;"/>
   </g>
   <g id="text_6">
    <!-- {f1-f5}, 5-D -->
    <defs>
     <path d="M 51.125 -9.28125 
L 51.125 -16.3125 
L 48.09375 -16.3125 
Q 35.9375 -16.3125 31.8125 -12.6875 
Q 27.6875 -9.078125 27.6875 1.703125 
L 27.6875 13.375 
Q 27.6875 20.75 25.046875 23.578125 
Q 22.40625 26.421875 15.484375 26.421875 
L 12.5 26.421875 
L 12.5 33.40625 
L 15.484375 33.40625 
Q 22.46875 33.40625 25.078125 36.203125 
Q 27.6875 39.015625 27.6875 46.296875 
L 27.6875 58.015625 
Q 27.6875 68.796875 31.8125 72.390625 
Q 35.9375 75.984375 48.09375 75.984375 
L 51.125 75.984375 
L 51.125 69 
L 47.796875 69 
Q 40.921875 69 38.8125 66.84375 
Q 36.71875 64.703125 36.71875 57.8125 
L 36.71875 45.703125 
Q 36.71875 38.03125 34.5 34.5625 
Q 32.28125 31.109375 26.90625 29.890625 
Q 32.328125 28.5625 34.515625 25.09375 
Q 36.71875 21.625 36.71875 14.015625 
L 36.71875 1.90625 
Q 36.71875 -4.984375 38.8125 -7.125 
Q 40.921875 -9.28125 47.796875 -9.28125 
z
" id="DejaVuSans-123"/>
     <path d="M 10.796875 72.90625 
L 49.515625 72.90625 
L 49.515625 64.59375 
L 19.828125 64.59375 
L 19.828125 46.734375 
Q 21.96875 47.46875 24.109375 47.828125 
Q 26.265625 48.1875 28.421875 48.1875 
Q 40.625 48.1875 47.75 41.5 
Q 54.890625 34.8125 54.890625 23.390625 
Q 54.890625 11.625 47.5625 5.09375 
Q 40.234375 -1.421875 26.90625 -1.421875 
Q 22.3125 -1.421875 17.546875 -0.640625 
Q 12.796875 0.140625 7.71875 1.703125 
L 7.71875 11.625 
Q 12.109375 9.234375 16.796875 8.0625 
Q 21.484375 6.890625 26.703125 6.890625 
Q 35.15625 6.890625 40.078125 11.328125 
Q 45.015625 15.765625 45.015625 23.390625 
Q 45.015625 31 40.078125 35.4375 
Q 35.15625 39.890625 26.703125 39.890625 
Q 22.75 39.890625 18.8125 39.015625 
Q 14.890625 38.140625 10.796875 36.28125 
z
" id="DejaVuSans-53"/>
     <path d="M 12.5 -9.28125 
L 15.921875 -9.28125 
Q 22.75 -9.28125 24.828125 -7.171875 
Q 26.90625 -5.078125 26.90625 1.90625 
L 26.90625 14.015625 
Q 26.90625 21.625 29.09375 25.09375 
Q 31.296875 28.5625 36.71875 29.890625 
Q 31.296875 31.109375 29.09375 34.5625 
Q 26.90625 38.03125 26.90625 45.703125 
L 26.90625 57.8125 
Q 26.90625 64.75 24.828125 66.875 
Q 22.75 69 15.921875 69 
L 12.5 69 
L 12.5 75.984375 
L 15.578125 75.984375 
Q 27.734375 75.984375 31.8125 72.390625 
Q 35.890625 68.796875 35.890625 58.015625 
L 35.890625 46.296875 
Q 35.890625 39.015625 38.515625 36.203125 
Q 41.15625 33.40625 48.09375 33.40625 
L 51.125 33.40625 
L 51.125 26.421875 
L 48.09375 26.421875 
Q 41.15625 26.421875 38.515625 23.578125 
Q 35.890625 20.75 35.890625 13.375 
L 35.890625 1.703125 
Q 35.890625 -9.078125 31.8125 -12.6875 
Q 27.734375 -16.3125 15.578125 -16.3125 
L 12.5 -16.3125 
z
" id="DejaVuSans-125"/>
     <path d="M 11.71875 12.40625 
L 22.015625 12.40625 
L 22.015625 4 
L 14.015625 -11.625 
L 7.71875 -11.625 
L 11.71875 4 
z
" id="DejaVuSans-44"/>
    </defs>
    <g transform="translate(331.334 287.95392)scale(0.2 -0.2)">
     <use xlink:href="#DejaVuSans-123"/>
     <use x="63.623047" xlink:href="#DejaVuSans-102"/>
     <use x="98.828125" xlink:href="#DejaVuSans-49"/>
     <use x="162.451172" xlink:href="#DejaVuSans-45"/>
     <use x="198.535156" xlink:href="#DejaVuSans-102"/>
     <use x="233.740234" xlink:href="#DejaVuSans-53"/>
     <use x="297.363281" xlink:href="#DejaVuSans-125"/>
     <use x="360.986328" xlink:href="#DejaVuSans-44"/>
     <use x="392.773438" xlink:href="#DejaVuSans-32"/>
     <use x="424.560547" xlink:href="#DejaVuSans-53"/>
     <use x="488.183594" xlink:href="#DejaVuSans-45"/>
     <use x="524.267578" xlink:href="#DejaVuSans-68"/>
    </g>
   </g>
   <g id="text_7">
    <!-- v2.4 -->
    <defs>
     <path d="M 2.984375 54.6875 
L 12.5 54.6875 
L 29.59375 8.796875 
L 46.6875 54.6875 
L 56.203125 54.6875 
L 35.6875 0 
L 23.484375 0 
z
" id="DejaVuSans-118"/>
     <path d="M 19.1875 8.296875 
L 53.609375 8.296875 
L 53.609375 0 
L 7.328125 0 
L 7.328125 8.296875 
Q 12.9375 14.109375 22.625 23.890625 
Q 32.328125 33.6875 34.8125 36.53125 
Q 39.546875 41.84375 41.421875 45.53125 
Q 43.3125 49.21875 43.3125 52.78125 
Q 43.3125 58.59375 39.234375 62.25 
Q 35.15625 65.921875 28.609375 65.921875 
Q 23.96875 65.921875 18.8125 64.3125 
Q 13.671875 62.703125 7.8125 59.421875 
L 7.8125 69.390625 
Q 13.765625 71.78125 18.9375 73 
Q 24.125 74.21875 28.421875 74.21875 
Q 39.75 74.21875 46.484375 68.546875 
Q 53.21875 62.890625 53.21875 53.421875 
Q 53.21875 48.921875 51.53125 44.890625 
Q 49.859375 40.875 45.40625 35.40625 
Q 44.1875 33.984375 37.640625 27.21875 
Q 31.109375 20.453125 19.1875 8.296875 
z
" id="DejaVuSans-50"/>
     <path d="M 10.6875 12.40625 
L 21 12.40625 
L 21 0 
L 10.6875 0 
z
" id="DejaVuSans-46"/>
    </defs>
    <g style="fill:#808080;" transform="translate(219.489063 288.777272)scale(0.1 -0.1)">
     <use xlink:href="#DejaVuSans-118"/>
     <use x="59.179688" xlink:href="#DejaVuSans-50"/>
     <use x="122.802734" xlink:href="#DejaVuSans-46"/>
     <use x="154.589844" xlink:href="#DejaVuSans-52"/>
    </g>
   </g>
  </g>
 </g>
 <defs>
  <clipPath id="p1ff3ef5db2">
   <rect height="290.304" width="460.8" x="0" y="3.456"/>
  </clipPath>
 </defs>
</svg>
