<?xml version="1.0" encoding="utf-8" standalone="no"?>
<!DOCTYPE svg PUBLIC "-//W3C//DTD SVG 1.1//EN"
  "http://www.w3.org/Graphics/SVG/1.1/DTD/svg11.dtd">
<!-- Created with matplotlib (https://matplotlib.org/) -->
<svg height="345.6pt" version="1.1" viewBox="0 0 460.8 345.6" width="460.8pt" xmlns="http://www.w3.org/2000/svg" xmlns:xlink="http://www.w3.org/1999/xlink">
 <defs>
  <style type="text/css">
*{stroke-linecap:butt;stroke-linejoin:round;}
  </style>
 </defs>
 <g id="figure_1">
  <g id="patch_1">
   <path d="M 0 345.6 
L 460.8 345.6 
L 460.8 0 
L 0 0 
z
" style="fill:#ffffff;"/>
  </g>
  <g id="axes_1">
   <g id="patch_2">
    <path d="M 62.208 293.76 
L 460.8 293.76 
L 460.8 3.456 
L 62.208 3.456 
z
" style="fill:#ffffff;"/>
   </g>
   <g id="line2d_1">
    <path clip-path="url(#pe552503848)" d="M 227.344277 293.76 
L 227.344277 288.969505 
L 229.828814 288.969505 
L 229.828814 284.17901 
L 230.770121 284.17901 
L 230.770121 279.388515 
L 230.770121 279.388515 
L 230.770121 274.59802 
L 231.230408 274.59802 
L 231.230408 269.807525 
L 231.382351 269.807525 
L 231.382351 265.01703 
L 231.533563 265.01703 
L 231.533563 260.226535 
L 232.278898 260.226535 
L 232.278898 255.43604 
L 232.71776 255.43604 
L 232.71776 250.645545 
L 232.862695 250.645545 
L 232.862695 245.85505 
L 232.862695 245.85505 
L 232.862695 241.064554 
L 233.006966 241.064554 
L 233.006966 236.274059 
L 233.006966 236.274059 
L 233.006966 231.483564 
L 233.435845 231.483564 
L 233.435845 226.693069 
L 233.435845 226.693069 
L 233.435845 221.902574 
L 234.414373 221.902574 
L 234.414373 217.112079 
L 234.688446 217.112079 
L 234.688446 212.321584 
L 234.824591 212.321584 
L 234.824591 207.531089 
L 234.960149 207.531089 
L 234.960149 202.740594 
L 235.095125 202.740594 
L 235.095125 197.950099 
L 235.496609 197.950099 
L 235.496609 193.159604 
L 235.496609 193.159604 
L 235.496609 188.369109 
L 235.629305 188.369109 
L 235.629305 183.578614 
L 237.92674 183.578614 
L 237.92674 178.788119 
L 239.134065 178.788119 
L 239.134065 173.997624 
L 239.370063 173.997624 
L 239.370063 169.207129 
L 253.741509 169.207129 
L 253.741509 164.416634 
L 256.331866 164.416634 
L 256.331866 159.626139 
L 259.130467 159.626139 
L 259.130467 154.835644 
L 265.327903 154.835644 
L 265.327903 150.045149 
L 265.327903 150.045149 
L 265.327903 150.045149 
L 460.8 150.045149 
" style="fill:none;stroke:#f5deb3;stroke-linecap:square;stroke-width:1.5;"/>
   </g>
   <g id="line2d_2"/>
   <g id="line2d_3">
    <path clip-path="url(#pe552503848)" d="M 227.849071 293.76 
L 227.849071 288.969505 
L 233.130101 288.969505 
L 233.130101 284.17901 
L 235.692297 284.17901 
L 235.692297 279.388515 
L 239.787128 279.388515 
L 239.787128 274.59802 
L 240.280409 274.59802 
L 240.280409 269.807525 
L 240.534967 269.807525 
L 240.534967 265.01703 
L 240.556536 265.01703 
L 240.556536 260.226535 
L 240.642667 260.226535 
L 240.642667 255.43604 
L 241.35489 255.43604 
L 241.35489 250.645545 
L 241.865737 250.645545 
L 241.865737 245.85505 
L 242.010181 245.85505 
L 242.010181 241.064554 
L 242.271582 241.064554 
L 242.271582 236.274059 
L 242.434495 236.274059 
L 242.434495 231.483564 
L 242.475091 231.483564 
L 242.475091 226.693069 
L 242.500437 226.693069 
L 242.500437 221.902574 
L 242.525763 221.902574 
L 242.525763 217.112079 
L 242.606669 217.112079 
L 242.606669 212.321584 
L 243.980144 212.321584 
L 243.980144 207.531089 
L 244.46464 207.531089 
L 244.46464 202.740594 
L 244.927711 202.740594 
L 244.927711 197.950099 
L 245.31927 197.950099 
L 245.31927 193.159604 
L 246.101607 193.159604 
L 246.101607 188.369109 
L 246.456564 188.369109 
L 246.456564 183.578614 
L 252.153572 183.578614 
L 252.153572 178.788119 
L 252.737003 178.788119 
L 252.737003 173.997624 
L 253.089892 173.997624 
L 253.089892 169.207129 
L 253.635025 169.207129 
L 253.635025 164.416634 
L 253.688312 164.416634 
L 253.688312 159.626139 
L 253.709601 159.626139 
L 253.709601 154.835644 
L 254.786959 154.835644 
L 254.786959 150.045149 
L 254.893033 150.045149 
L 254.893033 145.254653 
L 255.705681 145.254653 
L 255.705681 140.464158 
L 256.194516 140.464158 
L 256.194516 135.673663 
L 256.282881 135.673663 
L 256.282881 130.883168 
L 256.868924 130.883168 
L 256.868924 126.092673 
L 257.29902 126.092673 
L 257.29902 121.302178 
L 258.261857 121.302178 
L 258.261857 116.511683 
L 260.152472 116.511683 
L 260.152472 111.721188 
L 261.680838 111.721188 
L 261.680838 106.930693 
L 267.269019 106.930693 
L 267.269019 102.140198 
L 269.513954 102.140198 
L 269.513954 97.349703 
L 269.665894 97.349703 
L 269.665894 92.559208 
L 270.514664 92.559208 
L 270.514664 87.768713 
L 270.767157 87.768713 
L 270.767157 82.978218 
L 271.140095 82.978218 
L 271.140095 78.187723 
L 271.140095 78.187723 
L 271.140095 78.187723 
L 460.8 78.187723 
" style="fill:none;stroke:#f5deb3;stroke-linecap:square;stroke-width:1.5;"/>
   </g>
   <g id="line2d_4">
    <path clip-path="url(#pe552503848)" d="M 267.94146 293.76 
L 267.94146 288.969505 
L 271.639249 288.969505 
L 271.639249 284.17901 
L 273.869833 284.17901 
L 273.869833 279.388515 
L 274.259588 279.388515 
L 274.259588 274.59802 
L 276.828098 274.59802 
L 276.828098 269.807525 
L 276.843392 269.807525 
L 276.843392 265.01703 
L 278.157678 265.01703 
L 278.157678 260.226535 
L 278.722837 260.226535 
L 278.722837 255.43604 
L 278.735637 255.43604 
L 278.735637 250.645545 
L 279.07453 250.645545 
L 279.07453 245.85505 
L 279.517656 245.85505 
L 279.517656 241.064554 
L 279.825094 241.064554 
L 279.825094 236.274059 
L 280.744777 236.274059 
L 280.744777 231.483564 
L 281.070214 231.483564 
L 281.070214 226.693069 
L 281.212464 226.693069 
L 281.212464 221.902574 
L 283.006801 221.902574 
L 283.006801 217.112079 
L 284.023495 217.112079 
L 284.023495 212.321584 
L 284.451826 212.321584 
L 284.451826 207.531089 
L 284.734612 207.531089 
L 284.734612 202.740594 
L 287.157855 202.740594 
L 287.157855 197.950099 
L 293.80032 197.950099 
L 293.80032 193.159604 
L 296.078957 193.159604 
L 296.078957 188.369109 
L 298.853649 188.369109 
L 298.853649 183.578614 
L 300.706458 183.578614 
L 300.706458 178.788119 
L 301.838671 178.788119 
L 301.838671 173.997624 
L 304.277786 173.997624 
L 304.277786 169.207129 
L 306.832991 169.207129 
L 306.832991 164.416634 
L 310.388009 164.416634 
L 310.388009 159.626139 
L 310.884209 159.626139 
L 310.884209 154.835644 
L 312.279086 154.835644 
L 312.279086 150.045149 
L 312.279086 150.045149 
L 312.279086 150.045149 
L 460.8 150.045149 
" style="fill:none;stroke:#f5deb3;stroke-linecap:square;stroke-width:1.5;"/>
   </g>
   <g id="line2d_5"/>
   <g id="line2d_6"/>
   <g id="line2d_7">
    <path clip-path="url(#pe552503848)" d="M 255.891541 293.76 
L 255.891541 288.969505 
L 256.240366 288.969505 
L 256.240366 284.17901 
L 257.704574 284.17901 
L 257.704574 279.388515 
L 258.154268 279.388515 
L 258.154268 274.59802 
L 258.405757 274.59802 
L 258.405757 269.807525 
L 258.621897 269.807525 
L 258.621897 265.01703 
L 259.17223 265.01703 
L 259.17223 260.226535 
L 259.436435 260.226535 
L 259.436435 255.43604 
L 259.669107 255.43604 
L 259.669107 250.645545 
L 260.488745 250.645545 
L 260.488745 245.85505 
L 260.534452 245.85505 
L 260.534452 241.064554 
L 261.212207 241.064554 
L 261.212207 236.274059 
L 262.337262 236.274059 
L 262.337262 231.483564 
L 262.461011 231.483564 
L 262.461011 226.693069 
L 263.934823 226.693069 
L 263.934823 221.902574 
L 280.184596 221.902574 
L 280.184596 217.112079 
L 281.671837 217.112079 
L 281.671837 212.321584 
L 282.074287 212.321584 
L 282.074287 207.531089 
L 282.873865 207.531089 
L 282.873865 202.740594 
L 282.967678 202.740594 
L 282.967678 197.950099 
L 283.478018 197.950099 
L 283.478018 193.159604 
L 283.639921 193.159604 
L 283.639921 188.369109 
L 284.958498 188.369109 
L 284.958498 183.578614 
L 285.260185 183.578614 
L 285.260185 178.788119 
L 285.977207 178.788119 
L 285.977207 173.997624 
L 286.044469 173.997624 
L 286.044469 169.207129 
L 286.122969 169.207129 
L 286.122969 164.416634 
L 286.167198 164.416634 
L 286.167198 159.626139 
L 287.353023 159.626139 
L 287.353023 154.835644 
L 287.951647 154.835644 
L 287.951647 150.045149 
L 288.138404 150.045149 
L 288.138404 145.254653 
L 289.113438 145.254653 
L 289.113438 140.464158 
L 289.24653 140.464158 
L 289.24653 135.673663 
L 289.6628 135.673663 
L 289.6628 130.883168 
L 289.769953 130.883168 
L 289.769953 126.092673 
L 290.129338 126.092673 
L 290.129338 121.302178 
L 290.614274 121.302178 
L 290.614274 116.511683 
L 291.275916 116.511683 
L 291.275916 111.721188 
L 291.439706 111.721188 
L 291.439706 106.930693 
L 292.257539 106.930693 
L 292.257539 102.140198 
L 292.530989 102.140198 
L 292.530989 97.349703 
L 292.733501 97.349703 
L 292.733501 92.559208 
L 293.215483 92.559208 
L 293.215483 87.768713 
L 315.05788 87.768713 
L 315.05788 82.978218 
L 335.553778 82.978218 
L 335.553778 78.187723 
L 396.244619 78.187723 
L 396.244619 73.397228 
L 410.469316 73.397228 
L 410.469316 68.606733 
L 414.452806 68.606733 
L 414.452806 63.816238 
L 420.075096 63.816238 
L 420.075096 59.025743 
L 428.872721 59.025743 
L 428.872721 54.235248 
L 435.484976 54.235248 
L 435.484976 49.444752 
L 439.341826 49.444752 
L 439.341826 44.654257 
L 443.92799 44.654257 
L 443.92799 39.863762 
L 452.431028 39.863762 
L 452.431028 35.073267 
L 461.8 35.073267 
" style="fill:none;stroke:#f5deb3;stroke-linecap:square;stroke-width:1.5;"/>
   </g>
   <g id="line2d_8">
    <path clip-path="url(#pe552503848)" d="M 357.862296 293.76 
L 357.862296 288.969505 
L 357.91797 288.969505 
L 357.91797 284.17901 
L 357.961076 284.17901 
L 357.961076 279.388515 
L 358.328856 279.388515 
L 358.328856 274.59802 
L 358.340673 274.59802 
L 358.340673 269.807525 
L 358.365691 269.807525 
L 358.365691 265.01703 
L 358.418454 265.01703 
L 358.418454 260.226535 
L 358.420101 260.226535 
L 358.420101 255.43604 
L 358.434924 255.43604 
L 358.434924 250.645545 
L 358.510576 250.645545 
L 358.510576 245.85505 
L 358.551868 245.85505 
L 358.551868 241.064554 
L 358.924562 241.064554 
L 358.924562 236.274059 
L 358.925809 236.274059 
L 358.925809 231.483564 
L 359.07534 231.483564 
L 359.07534 226.693069 
L 359.987919 226.693069 
L 359.987919 221.902574 
L 359.987919 221.902574 
L 359.987919 221.902574 
L 460.8 221.902574 
" style="fill:none;stroke:#f5deb3;stroke-linecap:square;stroke-width:1.5;"/>
   </g>
   <g id="line2d_9">
    <path clip-path="url(#pe552503848)" d="M 255.110897 293.76 
L 255.110897 288.969505 
L 256.958614 288.969505 
L 256.958614 284.17901 
L 257.070368 284.17901 
L 257.070368 279.388515 
L 258.545961 279.388515 
L 258.545961 274.59802 
L 258.764161 274.59802 
L 258.764161 269.807525 
L 258.827519 269.807525 
L 258.827519 265.01703 
L 259.049766 265.01703 
L 259.049766 260.226535 
L 259.365407 260.226535 
L 259.365407 255.43604 
L 259.929185 255.43604 
L 259.929185 250.645545 
L 260.045376 250.645545 
L 260.045376 245.85505 
L 260.313872 245.85505 
L 260.313872 241.064554 
L 261.595398 241.064554 
L 261.595398 236.274059 
L 261.913925 236.274059 
L 261.913925 231.483564 
L 262.707057 231.483564 
L 262.707057 226.693069 
L 264.485896 226.693069 
L 264.485896 221.902574 
L 265.210043 221.902574 
L 265.210043 217.112079 
L 277.328914 217.112079 
L 277.328914 212.321584 
L 277.505742 212.321584 
L 277.505742 207.531089 
L 277.925455 207.531089 
L 277.925455 202.740594 
L 277.928738 202.740594 
L 277.928738 197.950099 
L 278.41245 197.950099 
L 278.41245 193.159604 
L 278.485095 193.159604 
L 278.485095 188.369109 
L 279.345548 188.369109 
L 279.345548 183.578614 
L 279.659327 183.578614 
L 279.659327 178.788119 
L 279.722949 178.788119 
L 279.722949 173.997624 
L 279.784895 173.997624 
L 279.784895 169.207129 
L 279.820459 169.207129 
L 279.820459 164.416634 
L 279.937689 164.416634 
L 279.937689 159.626139 
L 280.137205 159.626139 
L 280.137205 154.835644 
L 280.577768 154.835644 
L 280.577768 150.045149 
L 280.677178 150.045149 
L 280.677178 145.254653 
L 281.131046 145.254653 
L 281.131046 140.464158 
L 281.500907 140.464158 
L 281.500907 135.673663 
L 281.876601 135.673663 
L 281.876601 130.883168 
L 281.902645 130.883168 
L 281.902645 126.092673 
L 282.219233 126.092673 
L 282.219233 121.302178 
L 282.644455 121.302178 
L 282.644455 116.511683 
L 283.57142 116.511683 
L 283.57142 111.721188 
L 283.988325 111.721188 
L 283.988325 106.930693 
L 284.743862 106.930693 
L 284.743862 102.140198 
L 285.174284 102.140198 
L 285.174284 97.349703 
L 286.685688 97.349703 
L 286.685688 92.559208 
L 287.318956 92.559208 
L 287.318956 87.768713 
L 287.348158 87.768713 
L 287.348158 82.978218 
L 292.830695 82.978218 
L 292.830695 78.187723 
L 294.416264 78.187723 
L 294.416264 73.397228 
L 295.532567 73.397228 
L 295.532567 68.606733 
L 295.714823 68.606733 
L 295.714823 63.816238 
L 295.953423 63.816238 
L 295.953423 59.025743 
L 296.139697 59.025743 
L 296.139697 54.235248 
L 297.316322 54.235248 
L 297.316322 49.444752 
L 297.786602 49.444752 
L 297.786602 44.654257 
L 298.645495 44.654257 
L 298.645495 39.863762 
L 299.306624 39.863762 
L 299.306624 35.073267 
L 300.318462 35.073267 
L 300.318462 30.282772 
L 301.236256 30.282772 
L 301.236256 25.492277 
L 301.445078 25.492277 
L 301.445078 20.701782 
L 302.045827 20.701782 
L 302.045827 15.911287 
L 302.134083 15.911287 
L 302.134083 11.120792 
L 307.683036 11.120792 
L 307.683036 6.330297 
L 307.683036 6.330297 
L 307.683036 6.330297 
L 460.8 6.330297 
" style="fill:none;stroke:#f5deb3;stroke-linecap:square;stroke-width:1.5;"/>
   </g>
   <g id="line2d_10">
    <path clip-path="url(#pe552503848)" d="M 413.709203 293.76 
L 413.709203 288.969505 
L 414.043705 288.969505 
L 414.043705 284.17901 
L 414.48209 284.17901 
L 414.48209 279.388515 
L 416.119104 279.388515 
L 416.119104 274.59802 
L 416.222795 274.59802 
L 416.222795 269.807525 
L 416.923946 269.807525 
L 416.923946 265.01703 
L 417.029436 265.01703 
L 417.029436 260.226535 
L 418.04933 260.226535 
L 418.04933 255.43604 
L 422.571891 255.43604 
L 422.571891 250.645545 
L 422.668158 250.645545 
L 422.668158 245.85505 
L 422.668158 245.85505 
L 422.668158 245.85505 
L 460.8 245.85505 
" style="fill:none;stroke:#f5deb3;stroke-linecap:square;stroke-width:1.5;"/>
   </g>
   <g id="line2d_11">
    <path clip-path="url(#pe552503848)" d="M 263.703402 293.76 
L 263.703402 288.969505 
L 266.209956 288.969505 
L 266.209956 284.17901 
L 269.755429 284.17901 
L 269.755429 279.388515 
L 275.060872 279.388515 
L 275.060872 274.59802 
L 275.824688 274.59802 
L 275.824688 269.807525 
L 276.222281 269.807525 
L 276.222281 265.01703 
L 278.904745 265.01703 
L 278.904745 260.226535 
L 278.946085 260.226535 
L 278.946085 255.43604 
L 279.389446 255.43604 
L 279.389446 250.645545 
L 288.137218 250.645545 
L 288.137218 245.85505 
L 288.582378 245.85505 
L 288.582378 241.064554 
L 290.909937 241.064554 
L 290.909937 236.274059 
L 292.346879 236.274059 
L 292.346879 231.483564 
L 303.064557 231.483564 
L 303.064557 226.693069 
L 370.825309 226.693069 
L 370.825309 221.902574 
L 389.60988 221.902574 
L 389.60988 217.112079 
L 390.500077 217.112079 
L 390.500077 212.321584 
L 392.33316 212.321584 
L 392.33316 207.531089 
L 392.454089 207.531089 
L 392.454089 202.740594 
L 392.486596 202.740594 
L 392.486596 197.950099 
L 392.663717 197.950099 
L 392.663717 193.159604 
L 392.775867 193.159604 
L 392.775867 188.369109 
L 392.80363 188.369109 
L 392.80363 183.578614 
L 392.829927 183.578614 
L 392.829927 178.788119 
L 392.910335 178.788119 
L 392.910335 173.997624 
L 392.927373 173.997624 
L 392.927373 169.207129 
L 392.934304 169.207129 
L 392.934304 164.416634 
L 392.943472 164.416634 
L 392.943472 159.626139 
L 392.967162 159.626139 
L 392.967162 154.835644 
L 392.969652 154.835644 
L 392.969652 150.045149 
L 392.9894 150.045149 
L 392.9894 145.254653 
L 393.006437 145.254653 
L 393.006437 140.464158 
L 393.023591 140.464158 
L 393.023591 135.673663 
L 393.025908 135.673663 
L 393.025908 130.883168 
L 393.046757 130.883168 
L 393.046757 126.092673 
L 393.105523 126.092673 
L 393.105523 121.302178 
L 393.232397 121.302178 
L 393.232397 116.511683 
L 393.321134 116.511683 
L 393.321134 111.721188 
L 393.504044 111.721188 
L 393.504044 106.930693 
L 415.848386 106.930693 
L 415.848386 102.140198 
L 418.467825 102.140198 
L 418.467825 97.349703 
L 418.932171 97.349703 
L 418.932171 92.559208 
L 419.037789 92.559208 
L 419.037789 87.768713 
L 422.12311 87.768713 
L 422.12311 82.978218 
L 444.645802 82.978218 
L 444.645802 78.187723 
L 444.645802 78.187723 
L 444.645802 78.187723 
L 460.8 78.187723 
" style="fill:none;stroke:#f5deb3;stroke-linecap:square;stroke-width:1.5;"/>
   </g>
   <g id="line2d_12">
    <path clip-path="url(#pe552503848)" d="M 229.783279 293.76 
L 229.783279 288.969505 
L 233.678316 288.969505 
L 233.678316 284.17901 
L 233.818899 284.17901 
L 233.818899 279.388515 
L 235.056619 279.388515 
L 235.056619 274.59802 
L 235.325172 274.59802 
L 235.325172 269.807525 
L 235.855489 269.807525 
L 235.855489 265.01703 
L 236.247435 265.01703 
L 236.247435 260.226535 
L 236.247435 260.226535 
L 236.247435 255.43604 
L 236.506043 255.43604 
L 236.506043 250.645545 
L 236.506043 250.645545 
L 236.506043 245.85505 
L 236.634553 245.85505 
L 236.634553 241.064554 
L 236.76254 241.064554 
L 236.76254 236.274059 
L 236.890007 236.274059 
L 236.890007 231.483564 
L 237.01696 231.483564 
L 237.01696 226.693069 
L 237.01696 226.693069 
L 237.01696 221.902574 
L 237.394771 221.902574 
L 237.394771 217.112079 
L 237.394771 217.112079 
L 237.394771 212.321584 
L 237.394771 212.321584 
L 237.394771 207.531089 
L 237.768093 207.531089 
L 237.768093 202.740594 
L 237.768093 202.740594 
L 237.768093 197.950099 
L 237.768093 197.950099 
L 237.768093 193.159604 
L 238.137032 193.159604 
L 238.137032 188.369109 
L 238.259056 188.369109 
L 238.259056 183.578614 
L 240.378143 183.578614 
L 240.378143 178.788119 
L 244.028449 178.788119 
L 244.028449 173.997624 
L 257.437938 173.997624 
L 257.437938 169.207129 
L 259.672041 169.207129 
L 259.672041 164.416634 
L 259.978618 164.416634 
L 259.978618 159.626139 
L 260.342606 159.626139 
L 260.342606 154.835644 
L 268.105663 154.835644 
L 268.105663 150.045149 
L 268.105663 150.045149 
L 268.105663 150.045149 
L 460.8 150.045149 
" style="fill:none;stroke:#f5deb3;stroke-linecap:square;stroke-width:1.5;"/>
   </g>
   <g id="line2d_13"/>
   <g id="line2d_14"/>
   <g id="line2d_15"/>
   <g id="line2d_16">
    <path clip-path="url(#pe552503848)" d="M 344.451684 293.76 
L 344.451684 288.969505 
L 345.147725 288.969505 
L 345.147725 284.17901 
L 349.878845 284.17901 
L 349.878845 279.388515 
L 365.902896 279.388515 
L 365.902896 274.59802 
L 365.97512 274.59802 
L 365.97512 269.807525 
L 366.26454 269.807525 
L 366.26454 265.01703 
L 377.5563 265.01703 
L 377.5563 260.226535 
L 380.314713 260.226535 
L 380.314713 255.43604 
L 381.503353 255.43604 
L 381.503353 250.645545 
L 385.077158 250.645545 
L 385.077158 245.85505 
L 386.986879 245.85505 
L 386.986879 241.064554 
L 388.5874 241.064554 
L 388.5874 236.274059 
L 396.285324 236.274059 
L 396.285324 231.483564 
L 402.766477 231.483564 
L 402.766477 226.693069 
L 403.015318 226.693069 
L 403.015318 221.902574 
L 426.187862 221.902574 
L 426.187862 217.112079 
L 429.351552 217.112079 
L 429.351552 212.321584 
L 429.403181 212.321584 
L 429.403181 207.531089 
L 430.5414 207.531089 
L 430.5414 202.740594 
L 431.948872 202.740594 
L 431.948872 197.950099 
L 432.28757 197.950099 
L 432.28757 193.159604 
L 432.517043 193.159604 
L 432.517043 188.369109 
L 434.110927 188.369109 
L 434.110927 183.578614 
L 434.533511 183.578614 
L 434.533511 178.788119 
L 435.142833 178.788119 
L 435.142833 173.997624 
L 435.258848 173.997624 
L 435.258848 169.207129 
L 435.33871 169.207129 
L 435.33871 164.416634 
L 436.776984 164.416634 
L 436.776984 159.626139 
L 439.523108 159.626139 
L 439.523108 154.835644 
L 441.738838 154.835644 
L 441.738838 150.045149 
L 461.8 150.045149 
" style="fill:none;stroke:#f5deb3;stroke-linecap:square;stroke-width:1.5;"/>
   </g>
   <g id="line2d_17">
    <path clip-path="url(#pe552503848)" d="M 346.240634 293.76 
L 346.240634 288.969505 
L 348.293814 288.969505 
L 348.293814 284.17901 
L 349.875685 284.17901 
L 349.875685 279.388515 
L 350.054131 279.388515 
L 350.054131 274.59802 
L 353.238763 274.59802 
L 353.238763 269.807525 
L 353.958941 269.807525 
L 353.958941 265.01703 
L 354.005934 265.01703 
L 354.005934 260.226535 
L 357.939209 260.226535 
L 357.939209 255.43604 
L 358.504637 255.43604 
L 358.504637 250.645545 
L 358.567638 250.645545 
L 358.567638 245.85505 
L 360.026954 245.85505 
L 360.026954 241.064554 
L 361.70266 241.064554 
L 361.70266 236.274059 
L 361.976458 236.274059 
L 361.976458 231.483564 
L 367.890744 231.483564 
L 367.890744 226.693069 
L 372.309189 226.693069 
L 372.309189 221.902574 
L 391.509251 221.902574 
L 391.509251 217.112079 
L 396.580875 217.112079 
L 396.580875 212.321584 
L 398.100385 212.321584 
L 398.100385 207.531089 
L 399.01672 207.531089 
L 399.01672 202.740594 
L 399.838679 202.740594 
L 399.838679 197.950099 
L 400.118975 197.950099 
L 400.118975 193.159604 
L 400.929804 193.159604 
L 400.929804 188.369109 
L 401.212787 188.369109 
L 401.212787 183.578614 
L 402.005439 183.578614 
L 402.005439 178.788119 
L 402.178593 178.788119 
L 402.178593 173.997624 
L 402.178593 173.997624 
L 402.178593 173.997624 
L 460.8 173.997624 
" style="fill:none;stroke:#f5deb3;stroke-linecap:square;stroke-width:1.5;"/>
   </g>
   <g id="line2d_18">
    <path clip-path="url(#pe552503848)" d="M 210.551547 293.76 
L 210.551547 288.969505 
L 217.687244 288.969505 
L 217.687244 284.17901 
L 217.809765 284.17901 
L 217.809765 279.388515 
L 218.284183 279.388515 
L 218.284183 274.59802 
L 218.458899 274.59802 
L 218.458899 269.807525 
L 220.554446 269.807525 
L 220.554446 265.01703 
L 220.625674 265.01703 
L 220.625674 260.226535 
L 220.696741 260.226535 
L 220.696741 255.43604 
L 220.737279 255.43604 
L 220.737279 250.645545 
L 221.069734 250.645545 
L 221.069734 245.85505 
L 221.319274 245.85505 
L 221.319274 241.064554 
L 221.418538 241.064554 
L 221.418538 236.274059 
L 221.448256 236.274059 
L 221.448256 231.483564 
L 221.596426 231.483564 
L 221.596426 226.693069 
L 221.841834 226.693069 
L 221.841834 221.902574 
L 221.958953 221.902574 
L 221.958953 217.112079 
L 222.823702 217.112079 
L 222.823702 212.321584 
L 223.087953 212.321584 
L 223.087953 207.531089 
L 223.106743 207.531089 
L 223.106743 202.740594 
L 223.15367 202.740594 
L 223.15367 197.950099 
L 223.830939 197.950099 
L 223.830939 193.159604 
L 225.545555 193.159604 
L 225.545555 188.369109 
L 225.762083 188.369109 
L 225.762083 183.578614 
L 229.646276 183.578614 
L 229.646276 178.788119 
L 240.728562 178.788119 
L 240.728562 173.997624 
L 244.23052 173.997624 
L 244.23052 169.207129 
L 245.586812 169.207129 
L 245.586812 164.416634 
L 246.36708 164.416634 
L 246.36708 159.626139 
L 247.666112 159.626139 
L 247.666112 154.835644 
L 247.952843 154.835644 
L 247.952843 150.045149 
L 248.50602 150.045149 
L 248.50602 145.254653 
L 248.839111 145.254653 
L 248.839111 140.464158 
L 249.608252 140.464158 
L 249.608252 135.673663 
L 251.011204 135.673663 
L 251.011204 130.883168 
L 254.473498 130.883168 
L 254.473498 126.092673 
L 255.884922 126.092673 
L 255.884922 121.302178 
L 257.975162 121.302178 
L 257.975162 116.511683 
L 258.320109 116.511683 
L 258.320109 111.721188 
L 260.928764 111.721188 
L 260.928764 106.930693 
L 261.187053 106.930693 
L 261.187053 102.140198 
L 262.586949 102.140198 
L 262.586949 97.349703 
L 267.585377 97.349703 
L 267.585377 92.559208 
L 276.707182 92.559208 
L 276.707182 87.768713 
L 278.281265 87.768713 
L 278.281265 82.978218 
L 283.670014 82.978218 
L 283.670014 78.187723 
L 283.670014 78.187723 
L 283.670014 78.187723 
L 460.8 78.187723 
" style="fill:none;stroke:#f5deb3;stroke-linecap:square;stroke-width:1.5;"/>
   </g>
   <g id="line2d_19"/>
   <g id="line2d_20">
    <path clip-path="url(#pe552503848)" d="M 274.230062 293.76 
L 274.230062 288.969505 
L 277.310507 288.969505 
L 277.310507 284.17901 
L 280.668153 284.17901 
L 280.668153 279.388515 
L 283.905657 279.388515 
L 283.905657 274.59802 
L 285.439042 274.59802 
L 285.439042 269.807525 
L 286.611073 269.807525 
L 286.611073 265.01703 
L 288.105179 265.01703 
L 288.105179 260.226535 
L 288.77241 260.226535 
L 288.77241 255.43604 
L 289.831823 255.43604 
L 289.831823 250.645545 
L 290.123772 250.645545 
L 290.123772 245.85505 
L 290.294769 245.85505 
L 290.294769 241.064554 
L 292.784693 241.064554 
L 292.784693 236.274059 
L 292.826609 236.274059 
L 292.826609 231.483564 
L 294.076437 231.483564 
L 294.076437 226.693069 
L 294.512271 226.693069 
L 294.512271 221.902574 
L 295.302071 221.902574 
L 295.302071 217.112079 
L 296.870354 217.112079 
L 296.870354 212.321584 
L 296.984231 212.321584 
L 296.984231 207.531089 
L 298.699782 207.531089 
L 298.699782 202.740594 
L 301.069293 202.740594 
L 301.069293 197.950099 
L 305.283441 197.950099 
L 305.283441 193.159604 
L 307.138345 193.159604 
L 307.138345 188.369109 
L 315.999456 188.369109 
L 315.999456 183.578614 
L 323.651605 183.578614 
L 323.651605 178.788119 
L 326.303684 178.788119 
L 326.303684 173.997624 
L 326.345557 173.997624 
L 326.345557 169.207129 
L 327.617026 169.207129 
L 327.617026 164.416634 
L 330.448792 164.416634 
L 330.448792 159.626139 
L 354.031152 159.626139 
L 354.031152 154.835644 
L 354.655129 154.835644 
L 354.655129 150.045149 
L 354.655129 150.045149 
L 354.655129 150.045149 
L 460.8 150.045149 
" style="fill:none;stroke:#f5deb3;stroke-linecap:square;stroke-width:1.5;"/>
   </g>
   <g id="line2d_21"/>
   <g id="line2d_22">
    <path clip-path="url(#pe552503848)" d="M 277.727864 293.76 
L 277.727864 288.969505 
L 277.917247 288.969505 
L 277.917247 284.17901 
L 278.947674 284.17901 
L 278.947674 279.388515 
L 279.645344 279.388515 
L 279.645344 274.59802 
L 279.953081 274.59802 
L 279.953081 269.807525 
L 280.020719 269.807525 
L 280.020719 265.01703 
L 280.37041 265.01703 
L 280.37041 260.226535 
L 280.67417 260.226535 
L 280.67417 255.43604 
L 281.105837 255.43604 
L 281.105837 250.645545 
L 281.418765 250.645545 
L 281.418765 245.85505 
L 282.110227 245.85505 
L 282.110227 241.064554 
L 282.814913 241.064554 
L 282.814913 236.274059 
L 282.889286 236.274059 
L 282.889286 231.483564 
L 283.859485 231.483564 
L 283.859485 226.693069 
L 284.089669 226.693069 
L 284.089669 221.902574 
L 284.531742 221.902574 
L 284.531742 217.112079 
L 284.554348 217.112079 
L 284.554348 212.321584 
L 284.751789 212.321584 
L 284.751789 207.531089 
L 285.400246 207.531089 
L 285.400246 202.740594 
L 286.073613 202.740594 
L 286.073613 197.950099 
L 286.382395 197.950099 
L 286.382395 193.159604 
L 286.715485 193.159604 
L 286.715485 188.369109 
L 287.249491 188.369109 
L 287.249491 183.578614 
L 288.516825 183.578614 
L 288.516825 178.788119 
L 289.393878 178.788119 
L 289.393878 173.997624 
L 290.112636 173.997624 
L 290.112636 169.207129 
L 290.115977 169.207129 
L 290.115977 164.416634 
L 292.592806 164.416634 
L 292.592806 159.626139 
L 293.359452 159.626139 
L 293.359452 154.835644 
L 294.298522 154.835644 
L 294.298522 150.045149 
L 305.744665 150.045149 
L 305.744665 145.254653 
L 308.061547 145.254653 
L 308.061547 140.464158 
L 308.738731 140.464158 
L 308.738731 135.673663 
L 309.176547 135.673663 
L 309.176547 130.883168 
L 310.457461 130.883168 
L 310.457461 126.092673 
L 311.083144 126.092673 
L 311.083144 121.302178 
L 311.557878 121.302178 
L 311.557878 116.511683 
L 321.84689 116.511683 
L 321.84689 111.721188 
L 323.6742 111.721188 
L 323.6742 106.930693 
L 327.858895 106.930693 
L 327.858895 102.140198 
L 331.291884 102.140198 
L 331.291884 97.349703 
L 337.810234 97.349703 
L 337.810234 92.559208 
L 342.644445 92.559208 
L 342.644445 87.768713 
L 348.708376 87.768713 
L 348.708376 82.978218 
L 348.708376 82.978218 
L 348.708376 82.978218 
L 460.8 82.978218 
" style="fill:none;stroke:#f5deb3;stroke-linecap:square;stroke-width:1.5;"/>
   </g>
   <g id="line2d_23">
    <path clip-path="url(#pe552503848)" d="M 386.234306 293.76 
L 386.234306 288.969505 
L 393.83087 288.969505 
L 393.83087 284.17901 
L 404.341249 284.17901 
L 404.341249 279.388515 
L 407.827181 279.388515 
L 407.827181 274.59802 
L 414.094154 274.59802 
L 414.094154 269.807525 
L 418.987957 269.807525 
L 418.987957 265.01703 
L 418.987957 265.01703 
L 418.987957 265.01703 
L 460.8 265.01703 
" style="fill:none;stroke:#f5deb3;stroke-linecap:square;stroke-width:1.5;"/>
   </g>
   <g id="line2d_24">
    <path clip-path="url(#pe552503848)" d="M 263.316486 293.76 
L 263.316486 288.969505 
L 270.347988 288.969505 
L 270.347988 284.17901 
L 271.587078 284.17901 
L 271.587078 279.388515 
L 273.079346 279.388515 
L 273.079346 274.59802 
L 273.108059 274.59802 
L 273.108059 269.807525 
L 273.699427 269.807525 
L 273.699427 265.01703 
L 274.294615 265.01703 
L 274.294615 260.226535 
L 277.044917 260.226535 
L 277.044917 255.43604 
L 277.716299 255.43604 
L 277.716299 250.645545 
L 277.954987 250.645545 
L 277.954987 245.85505 
L 278.769212 245.85505 
L 278.769212 241.064554 
L 279.110906 241.064554 
L 279.110906 236.274059 
L 279.123549 236.274059 
L 279.123549 231.483564 
L 280.577768 231.483564 
L 280.577768 226.693069 
L 280.711746 226.693069 
L 280.711746 221.902574 
L 325.575972 221.902574 
L 325.575972 217.112079 
L 325.753843 217.112079 
L 325.753843 212.321584 
L 326.093126 212.321584 
L 326.093126 207.531089 
L 327.202657 207.531089 
L 327.202657 202.740594 
L 327.222839 202.740594 
L 327.222839 197.950099 
L 327.512505 197.950099 
L 327.512505 193.159604 
L 327.903097 193.159604 
L 327.903097 188.369109 
L 328.057985 188.369109 
L 328.057985 183.578614 
L 328.16403 183.578614 
L 328.16403 178.788119 
L 328.214764 178.788119 
L 328.214764 173.997624 
L 328.699392 173.997624 
L 328.699392 169.207129 
L 328.937312 169.207129 
L 328.937312 164.416634 
L 328.941522 164.416634 
L 328.941522 159.626139 
L 329.016544 159.626139 
L 329.016544 154.835644 
L 329.103307 154.835644 
L 329.103307 150.045149 
L 329.10846 150.045149 
L 329.10846 145.254653 
L 329.260098 145.254653 
L 329.260098 140.464158 
L 329.306855 140.464158 
L 329.306855 135.673663 
L 329.487464 135.673663 
L 329.487464 130.883168 
L 329.60719 130.883168 
L 329.60719 126.092673 
L 329.634755 126.092673 
L 329.634755 121.302178 
L 329.714144 121.302178 
L 329.714144 116.511683 
L 330.05941 116.511683 
L 330.05941 111.721188 
L 330.231407 111.721188 
L 330.231407 106.930693 
L 330.872708 106.930693 
L 330.872708 102.140198 
L 331.302097 102.140198 
L 331.302097 97.349703 
L 331.611114 97.349703 
L 331.611114 92.559208 
L 332.026489 92.559208 
L 332.026489 87.768713 
L 333.495162 87.768713 
L 333.495162 82.978218 
L 334.560282 82.978218 
L 334.560282 78.187723 
L 338.760372 78.187723 
L 338.760372 73.397228 
L 340.646474 73.397228 
L 340.646474 68.606733 
L 341.213535 68.606733 
L 341.213535 63.816238 
L 341.403571 63.816238 
L 341.403571 59.025743 
L 341.759351 59.025743 
L 341.759351 54.235248 
L 341.888923 54.235248 
L 341.888923 49.444752 
L 342.732246 49.444752 
L 342.732246 44.654257 
L 343.605753 44.654257 
L 343.605753 39.863762 
L 343.653836 39.863762 
L 343.653836 35.073267 
L 344.00782 35.073267 
L 344.00782 30.282772 
L 344.237501 30.282772 
L 344.237501 25.492277 
L 344.737947 25.492277 
L 344.737947 20.701782 
L 345.181537 20.701782 
L 345.181537 15.911287 
L 345.563488 15.911287 
L 345.563488 11.120792 
L 346.259859 11.120792 
L 346.259859 6.330297 
L 346.259859 6.330297 
L 346.259859 6.330297 
L 460.8 6.330297 
" style="fill:none;stroke:#f5deb3;stroke-linecap:square;stroke-width:1.5;"/>
   </g>
   <g id="line2d_25">
    <path clip-path="url(#pe552503848)" d="M 362.724651 293.76 
L 362.724651 288.969505 
L 363.166515 288.969505 
L 363.166515 284.17901 
L 363.307733 284.17901 
L 363.307733 279.388515 
L 363.309035 279.388515 
L 363.309035 274.59802 
L 363.987055 274.59802 
L 363.987055 269.807525 
L 364.219404 269.807525 
L 364.219404 265.01703 
L 364.344647 265.01703 
L 364.344647 260.226535 
L 364.576044 260.226535 
L 364.576044 255.43604 
L 364.958955 255.43604 
L 364.958955 250.645545 
L 365.133838 250.645545 
L 365.133838 245.85505 
L 365.283214 245.85505 
L 365.283214 241.064554 
L 365.583385 241.064554 
L 365.583385 236.274059 
L 365.805069 236.274059 
L 365.805069 231.483564 
L 366.233622 231.483564 
L 366.233622 226.693069 
L 367.209347 226.693069 
L 367.209347 221.902574 
L 367.209347 221.902574 
L 367.209347 221.902574 
L 460.8 221.902574 
" style="fill:none;stroke:#f5deb3;stroke-linecap:square;stroke-width:1.5;"/>
   </g>
   <g id="line2d_26">
    <path clip-path="url(#pe552503848)" d="M 289.473546 293.76 
L 289.473546 288.969505 
L 292.557791 288.969505 
L 292.557791 284.17901 
L 293.607578 284.17901 
L 293.607578 279.388515 
L 294.466728 279.388515 
L 294.466728 274.59802 
L 294.777429 274.59802 
L 294.777429 269.807525 
L 295.467823 269.807525 
L 295.467823 265.01703 
L 295.624294 265.01703 
L 295.624294 260.226535 
L 296.64407 260.226535 
L 296.64407 255.43604 
L 298.115545 255.43604 
L 298.115545 250.645545 
L 298.404316 250.645545 
L 298.404316 245.85505 
L 299.743327 245.85505 
L 299.743327 241.064554 
L 300.730301 241.064554 
L 300.730301 236.274059 
L 302.06563 236.274059 
L 302.06563 231.483564 
L 302.231183 231.483564 
L 302.231183 226.693069 
L 303.581759 226.693069 
L 303.581759 221.902574 
L 303.594817 221.902574 
L 303.594817 217.112079 
L 304.461759 217.112079 
L 304.461759 212.321584 
L 305.064803 212.321584 
L 305.064803 207.531089 
L 305.817729 207.531089 
L 305.817729 202.740594 
L 308.480286 202.740594 
L 308.480286 197.950099 
L 309.079239 197.950099 
L 309.079239 193.159604 
L 309.524382 193.159604 
L 309.524382 188.369109 
L 309.561594 188.369109 
L 309.561594 183.578614 
L 310.179317 183.578614 
L 310.179317 178.788119 
L 310.241014 178.788119 
L 310.241014 173.997624 
L 310.814542 173.997624 
L 310.814542 169.207129 
L 310.848531 169.207129 
L 310.848531 164.416634 
L 311.256967 164.416634 
L 311.256967 159.626139 
L 311.43379 159.626139 
L 311.43379 154.835644 
L 311.900512 154.835644 
L 311.900512 150.045149 
L 312.855821 150.045149 
L 312.855821 145.254653 
L 312.881198 145.254653 
L 312.881198 140.464158 
L 312.93189 140.464158 
L 312.93189 135.673663 
L 312.959359 135.673663 
L 312.959359 130.883168 
L 313.065239 130.883168 
L 313.065239 126.092673 
L 313.589356 126.092673 
L 313.589356 121.302178 
L 313.914829 121.302178 
L 313.914829 116.511683 
L 314.57016 116.511683 
L 314.57016 111.721188 
L 317.403509 111.721188 
L 317.403509 106.930693 
L 345.539059 106.930693 
L 345.539059 102.140198 
L 354.11904 102.140198 
L 354.11904 97.349703 
L 354.665412 97.349703 
L 354.665412 92.559208 
L 355.084163 92.559208 
L 355.084163 87.768713 
L 357.904834 87.768713 
L 357.904834 82.978218 
L 361.536471 82.978218 
L 361.536471 78.187723 
L 381.816275 78.187723 
L 381.816275 73.397228 
L 387.158024 73.397228 
L 387.158024 68.606733 
L 400.849331 68.606733 
L 400.849331 63.816238 
L 414.017078 63.816238 
L 414.017078 59.025743 
L 414.017078 59.025743 
L 414.017078 59.025743 
L 460.8 59.025743 
" style="fill:none;stroke:#f5deb3;stroke-linecap:square;stroke-width:1.5;"/>
   </g>
   <g id="line2d_27">
    <path clip-path="url(#pe552503848)" d="M 258.890749 293.76 
L 258.890749 288.969505 
L 260.679703 288.969505 
L 260.679703 284.17901 
L 262.455641 284.17901 
L 262.455641 279.388515 
L 262.59497 279.388515 
L 262.59497 274.59802 
L 263.888675 274.59802 
L 263.888675 269.807525 
L 264.230608 269.807525 
L 264.230608 265.01703 
L 265.623061 265.01703 
L 265.623061 260.226535 
L 265.963545 260.226535 
L 265.963545 255.43604 
L 266.013941 255.43604 
L 266.013941 250.645545 
L 266.052284 250.645545 
L 266.052284 245.85505 
L 266.532383 245.85505 
L 266.532383 241.064554 
L 267.830758 241.064554 
L 267.830758 236.274059 
L 268.063008 236.274059 
L 268.063008 231.483564 
L 268.464805 231.483564 
L 268.464805 226.693069 
L 268.469241 226.693069 
L 268.469241 221.902574 
L 268.683623 221.902574 
L 268.683623 217.112079 
L 268.769408 217.112079 
L 268.769408 212.321584 
L 269.110224 212.321584 
L 269.110224 207.531089 
L 269.207853 207.531089 
L 269.207853 202.740594 
L 269.389287 202.740594 
L 269.389287 197.950099 
L 269.419424 197.950099 
L 269.419424 193.159604 
L 269.48176 193.159604 
L 269.48176 188.369109 
L 269.804352 188.369109 
L 269.804352 183.578614 
L 269.893494 183.578614 
L 269.893494 178.788119 
L 270.232882 178.788119 
L 270.232882 173.997624 
L 271.219437 173.997624 
L 271.219437 169.207129 
L 271.55493 169.207129 
L 271.55493 164.416634 
L 271.633233 164.416634 
L 271.633233 159.626139 
L 271.795243 159.626139 
L 271.795243 154.835644 
L 272.12665 154.835644 
L 272.12665 150.045149 
L 273.399448 150.045149 
L 273.399448 145.254653 
L 274.041178 145.254653 
L 274.041178 140.464158 
L 274.137614 140.464158 
L 274.137614 135.673663 
L 274.760964 135.673663 
L 274.760964 130.883168 
L 274.969036 130.883168 
L 274.969036 126.092673 
L 277.300462 126.092673 
L 277.300462 121.302178 
L 277.355669 121.302178 
L 277.355669 116.511683 
L 277.755931 116.511683 
L 277.755931 111.721188 
L 293.733888 111.721188 
L 293.733888 106.930693 
L 294.478363 106.930693 
L 294.478363 102.140198 
L 303.035039 102.140198 
L 303.035039 97.349703 
L 303.714257 97.349703 
L 303.714257 92.559208 
L 307.393881 92.559208 
L 307.393881 87.768713 
L 309.20204 87.768713 
L 309.20204 82.978218 
L 313.670514 82.978218 
L 313.670514 78.187723 
L 313.670514 78.187723 
L 313.670514 78.187723 
L 460.8 78.187723 
" style="fill:none;stroke:#f5deb3;stroke-linecap:square;stroke-width:1.5;"/>
   </g>
   <g id="line2d_28">
    <path clip-path="url(#pe552503848)" d="M 244.739526 293.76 
L 244.739526 288.969505 
L 246.407379 288.969505 
L 246.407379 284.17901 
L 247.180879 284.17901 
L 247.180879 279.388515 
L 247.5757 279.388515 
L 247.5757 274.59802 
L 249.262832 274.59802 
L 249.262832 269.807525 
L 249.425856 269.807525 
L 249.425856 265.01703 
L 249.729264 265.01703 
L 249.729264 260.226535 
L 250.017807 260.226535 
L 250.017807 255.43604 
L 290.382129 255.43604 
L 290.382129 250.645545 
L 290.429578 250.645545 
L 290.429578 245.85505 
L 290.579177 245.85505 
L 290.579177 241.064554 
L 290.675599 241.064554 
L 290.675599 236.274059 
L 290.975023 236.274059 
L 290.975023 231.483564 
L 299.255042 231.483564 
L 299.255042 226.693069 
L 300.591758 226.693069 
L 300.591758 221.902574 
L 300.812817 221.902574 
L 300.812817 217.112079 
L 300.879307 217.112079 
L 300.879307 212.321584 
L 300.979568 212.321584 
L 300.979568 207.531089 
L 301.318236 207.531089 
L 301.318236 202.740594 
L 301.804907 202.740594 
L 301.804907 197.950099 
L 302.207694 197.950099 
L 302.207694 193.159604 
L 302.379287 193.159604 
L 302.379287 188.369109 
L 302.818715 188.369109 
L 302.818715 183.578614 
L 303.178677 183.578614 
L 303.178677 178.788119 
L 303.244017 178.788119 
L 303.244017 173.997624 
L 303.271874 173.997624 
L 303.271874 169.207129 
L 303.748918 169.207129 
L 303.748918 164.416634 
L 303.979737 164.416634 
L 303.979737 159.626139 
L 304.011244 159.626139 
L 304.011244 154.835644 
L 304.146223 154.835644 
L 304.146223 150.045149 
L 304.768571 150.045149 
L 304.768571 145.254653 
L 304.994128 145.254653 
L 304.994128 140.464158 
L 305.087635 140.464158 
L 305.087635 135.673663 
L 305.141534 135.673663 
L 305.141534 130.883168 
L 305.16293 130.883168 
L 305.16293 126.092673 
L 305.816378 126.092673 
L 305.816378 121.302178 
L 306.10361 121.302178 
L 306.10361 116.511683 
L 306.149779 116.511683 
L 306.149779 111.721188 
L 306.197884 111.721188 
L 306.197884 106.930693 
L 306.275896 106.930693 
L 306.275896 102.140198 
L 306.362351 102.140198 
L 306.362351 97.349703 
L 306.720258 97.349703 
L 306.720258 92.559208 
L 307.960719 92.559208 
L 307.960719 87.768713 
L 309.099942 87.768713 
L 309.099942 82.978218 
L 309.222663 82.978218 
L 309.222663 78.187723 
L 310.743565 78.187723 
L 310.743565 73.397228 
L 310.807624 73.397228 
L 310.807624 68.606733 
L 311.016781 68.606733 
L 311.016781 63.816238 
L 311.504355 63.816238 
L 311.504355 59.025743 
L 312.366439 59.025743 
L 312.366439 54.235248 
L 312.832046 54.235248 
L 312.832046 49.444752 
L 313.637865 49.444752 
L 313.637865 44.654257 
L 313.910129 44.654257 
L 313.910129 39.863762 
L 314.684522 39.863762 
L 314.684522 35.073267 
L 315.634709 35.073267 
L 315.634709 30.282772 
L 317.881717 30.282772 
L 317.881717 25.492277 
L 318.975953 25.492277 
L 318.975953 20.701782 
L 319.303222 20.701782 
L 319.303222 15.911287 
L 334.751393 15.911287 
L 334.751393 11.120792 
L 335.902049 11.120792 
L 335.902049 6.330297 
L 335.902049 6.330297 
L 335.902049 6.330297 
L 460.8 6.330297 
" style="fill:none;stroke:#f5deb3;stroke-linecap:square;stroke-width:1.5;"/>
   </g>
   <g id="line2d_29">
    <path clip-path="url(#pe552503848)" d="M 215.563625 293.76 
L 215.563625 288.969505 
L 215.563625 288.969505 
L 215.563625 284.17901 
L 215.563625 284.17901 
L 215.563625 279.388515 
L 224.655267 279.388515 
L 224.655267 274.59802 
L 224.655267 274.59802 
L 224.655267 269.807525 
L 224.655267 269.807525 
L 224.655267 265.01703 
L 239.403632 265.01703 
L 239.403632 260.226535 
L 239.403632 260.226535 
L 239.403632 255.43604 
L 239.403632 255.43604 
L 239.403632 250.645545 
L 239.935927 250.645545 
L 239.935927 245.85505 
L 239.935927 245.85505 
L 239.935927 241.064554 
L 239.935927 241.064554 
L 239.935927 236.274059 
L 249.458359 236.274059 
L 249.458359 231.483564 
L 249.458359 231.483564 
L 249.458359 226.693069 
L 249.458359 226.693069 
L 249.458359 221.902574 
L 250.704371 221.902574 
L 250.704371 217.112079 
L 250.704371 217.112079 
L 250.704371 212.321584 
L 250.704371 212.321584 
L 250.704371 207.531089 
L 250.96866 207.531089 
L 250.96866 202.740594 
L 250.96866 202.740594 
L 250.96866 197.950099 
L 250.96866 197.950099 
L 250.96866 193.159604 
L 251.850218 193.159604 
L 251.850218 188.369109 
L 251.850218 188.369109 
L 251.850218 183.578614 
L 251.850218 183.578614 
L 251.850218 178.788119 
L 251.895345 178.788119 
L 251.895345 173.997624 
L 251.895345 173.997624 
L 251.895345 169.207129 
L 251.895345 169.207129 
L 251.895345 164.416634 
L 268.121363 164.416634 
L 268.121363 159.626139 
L 268.121363 159.626139 
L 268.121363 154.835644 
L 268.121363 154.835644 
L 268.121363 150.045149 
L 268.121363 150.045149 
L 268.121363 150.045149 
L 460.8 150.045149 
" style="fill:none;stroke:#f5deb3;stroke-linecap:square;stroke-width:1.5;"/>
   </g>
   <g id="line2d_30"/>
   <g id="matplotlib.axis_1">
    <g id="xtick_1">
     <g id="line2d_31">
      <path clip-path="url(#pe552503848)" d="M 134.570958 293.76 
L 134.570958 3.456 
" style="fill:none;stroke:#b0b0b0;stroke-linecap:square;stroke-width:0.8;"/>
     </g>
     <g id="line2d_32">
      <defs>
       <path d="M 0 0 
L 0 3.5 
" id="m740ea11f3c" style="stroke:#000000;stroke-width:0.8;"/>
      </defs>
      <g>
       <use style="stroke:#000000;stroke-width:0.8;" x="134.570958" xlink:href="#m740ea11f3c" y="293.76"/>
      </g>
     </g>
     <g id="text_1">
      <!-- 1 -->
      <defs>
       <path d="M 12.40625 8.296875 
L 28.515625 8.296875 
L 28.515625 63.921875 
L 10.984375 60.40625 
L 10.984375 69.390625 
L 28.421875 72.90625 
L 38.28125 72.90625 
L 38.28125 8.296875 
L 54.390625 8.296875 
L 54.390625 0 
L 12.40625 0 
z
" id="DejaVuSans-49"/>
      </defs>
      <g transform="translate(128.208458 315.956875)scale(0.2 -0.2)">
       <use xlink:href="#DejaVuSans-49"/>
      </g>
     </g>
    </g>
    <g id="xtick_2">
     <g id="line2d_33">
      <path clip-path="url(#pe552503848)" d="M 279.296874 293.76 
L 279.296874 3.456 
" style="fill:none;stroke:#b0b0b0;stroke-linecap:square;stroke-width:0.8;"/>
     </g>
     <g id="line2d_34">
      <g>
       <use style="stroke:#000000;stroke-width:0.8;" x="279.296874" xlink:href="#m740ea11f3c" y="293.76"/>
      </g>
     </g>
     <g id="text_2">
      <!-- 3 -->
      <defs>
       <path d="M 40.578125 39.3125 
Q 47.65625 37.796875 51.625 33 
Q 55.609375 28.21875 55.609375 21.1875 
Q 55.609375 10.40625 48.1875 4.484375 
Q 40.765625 -1.421875 27.09375 -1.421875 
Q 22.515625 -1.421875 17.65625 -0.515625 
Q 12.796875 0.390625 7.625 2.203125 
L 7.625 11.71875 
Q 11.71875 9.328125 16.59375 8.109375 
Q 21.484375 6.890625 26.8125 6.890625 
Q 36.078125 6.890625 40.9375 10.546875 
Q 45.796875 14.203125 45.796875 21.1875 
Q 45.796875 27.640625 41.28125 31.265625 
Q 36.765625 34.90625 28.71875 34.90625 
L 20.21875 34.90625 
L 20.21875 43.015625 
L 29.109375 43.015625 
Q 36.375 43.015625 40.234375 45.921875 
Q 44.09375 48.828125 44.09375 54.296875 
Q 44.09375 59.90625 40.109375 62.90625 
Q 36.140625 65.921875 28.71875 65.921875 
Q 24.65625 65.921875 20.015625 65.03125 
Q 15.375 64.15625 9.8125 62.3125 
L 9.8125 71.09375 
Q 15.4375 72.65625 20.34375 73.4375 
Q 25.25 74.21875 29.59375 74.21875 
Q 40.828125 74.21875 47.359375 69.109375 
Q 53.90625 64.015625 53.90625 55.328125 
Q 53.90625 49.265625 50.4375 45.09375 
Q 46.96875 40.921875 40.578125 39.3125 
z
" id="DejaVuSans-51"/>
      </defs>
      <g transform="translate(272.934374 315.956875)scale(0.2 -0.2)">
       <use xlink:href="#DejaVuSans-51"/>
      </g>
     </g>
    </g>
    <g id="xtick_3">
     <g id="line2d_35">
      <path clip-path="url(#pe552503848)" d="M 424.02279 293.76 
L 424.02279 3.456 
" style="fill:none;stroke:#b0b0b0;stroke-linecap:square;stroke-width:0.8;"/>
     </g>
     <g id="line2d_36">
      <g>
       <use style="stroke:#000000;stroke-width:0.8;" x="424.02279" xlink:href="#m740ea11f3c" y="293.76"/>
      </g>
     </g>
     <g id="text_3">
      <!-- 5 -->
      <defs>
       <path d="M 10.796875 72.90625 
L 49.515625 72.90625 
L 49.515625 64.59375 
L 19.828125 64.59375 
L 19.828125 46.734375 
Q 21.96875 47.46875 24.109375 47.828125 
Q 26.265625 48.1875 28.421875 48.1875 
Q 40.625 48.1875 47.75 41.5 
Q 54.890625 34.8125 54.890625 23.390625 
Q 54.890625 11.625 47.5625 5.09375 
Q 40.234375 -1.421875 26.90625 -1.421875 
Q 22.3125 -1.421875 17.546875 -0.640625 
Q 12.796875 0.140625 7.71875 1.703125 
L 7.71875 11.625 
Q 12.109375 9.234375 16.796875 8.0625 
Q 21.484375 6.890625 26.703125 6.890625 
Q 35.15625 6.890625 40.078125 11.328125 
Q 45.015625 15.765625 45.015625 23.390625 
Q 45.015625 31 40.078125 35.4375 
Q 35.15625 39.890625 26.703125 39.890625 
Q 22.75 39.890625 18.8125 39.015625 
Q 14.890625 38.140625 10.796875 36.28125 
z
" id="DejaVuSans-53"/>
      </defs>
      <g transform="translate(417.66029 315.956875)scale(0.2 -0.2)">
       <use xlink:href="#DejaVuSans-53"/>
      </g>
     </g>
    </g>
    <g id="text_4">
     <!-- log10 of FEvals / DIM -->
     <defs>
      <path d="M 9.421875 75.984375 
L 18.40625 75.984375 
L 18.40625 0 
L 9.421875 0 
z
" id="DejaVuSans-108"/>
      <path d="M 30.609375 48.390625 
Q 23.390625 48.390625 19.1875 42.75 
Q 14.984375 37.109375 14.984375 27.296875 
Q 14.984375 17.484375 19.15625 11.84375 
Q 23.34375 6.203125 30.609375 6.203125 
Q 37.796875 6.203125 41.984375 11.859375 
Q 46.1875 17.53125 46.1875 27.296875 
Q 46.1875 37.015625 41.984375 42.703125 
Q 37.796875 48.390625 30.609375 48.390625 
z
M 30.609375 56 
Q 42.328125 56 49.015625 48.375 
Q 55.71875 40.765625 55.71875 27.296875 
Q 55.71875 13.875 49.015625 6.21875 
Q 42.328125 -1.421875 30.609375 -1.421875 
Q 18.84375 -1.421875 12.171875 6.21875 
Q 5.515625 13.875 5.515625 27.296875 
Q 5.515625 40.765625 12.171875 48.375 
Q 18.84375 56 30.609375 56 
z
" id="DejaVuSans-111"/>
      <path d="M 45.40625 27.984375 
Q 45.40625 37.75 41.375 43.109375 
Q 37.359375 48.484375 30.078125 48.484375 
Q 22.859375 48.484375 18.828125 43.109375 
Q 14.796875 37.75 14.796875 27.984375 
Q 14.796875 18.265625 18.828125 12.890625 
Q 22.859375 7.515625 30.078125 7.515625 
Q 37.359375 7.515625 41.375 12.890625 
Q 45.40625 18.265625 45.40625 27.984375 
z
M 54.390625 6.78125 
Q 54.390625 -7.171875 48.1875 -13.984375 
Q 42 -20.796875 29.203125 -20.796875 
Q 24.46875 -20.796875 20.265625 -20.09375 
Q 16.0625 -19.390625 12.109375 -17.921875 
L 12.109375 -9.1875 
Q 16.0625 -11.328125 19.921875 -12.34375 
Q 23.78125 -13.375 27.78125 -13.375 
Q 36.625 -13.375 41.015625 -8.765625 
Q 45.40625 -4.15625 45.40625 5.171875 
L 45.40625 9.625 
Q 42.625 4.78125 38.28125 2.390625 
Q 33.9375 0 27.875 0 
Q 17.828125 0 11.671875 7.65625 
Q 5.515625 15.328125 5.515625 27.984375 
Q 5.515625 40.671875 11.671875 48.328125 
Q 17.828125 56 27.875 56 
Q 33.9375 56 38.28125 53.609375 
Q 42.625 51.21875 45.40625 46.390625 
L 45.40625 54.6875 
L 54.390625 54.6875 
z
" id="DejaVuSans-103"/>
      <path d="M 31.78125 66.40625 
Q 24.171875 66.40625 20.328125 58.90625 
Q 16.5 51.421875 16.5 36.375 
Q 16.5 21.390625 20.328125 13.890625 
Q 24.171875 6.390625 31.78125 6.390625 
Q 39.453125 6.390625 43.28125 13.890625 
Q 47.125 21.390625 47.125 36.375 
Q 47.125 51.421875 43.28125 58.90625 
Q 39.453125 66.40625 31.78125 66.40625 
z
M 31.78125 74.21875 
Q 44.046875 74.21875 50.515625 64.515625 
Q 56.984375 54.828125 56.984375 36.375 
Q 56.984375 17.96875 50.515625 8.265625 
Q 44.046875 -1.421875 31.78125 -1.421875 
Q 19.53125 -1.421875 13.0625 8.265625 
Q 6.59375 17.96875 6.59375 36.375 
Q 6.59375 54.828125 13.0625 64.515625 
Q 19.53125 74.21875 31.78125 74.21875 
z
" id="DejaVuSans-48"/>
      <path id="DejaVuSans-32"/>
      <path d="M 37.109375 75.984375 
L 37.109375 68.5 
L 28.515625 68.5 
Q 23.6875 68.5 21.796875 66.546875 
Q 19.921875 64.59375 19.921875 59.515625 
L 19.921875 54.6875 
L 34.71875 54.6875 
L 34.71875 47.703125 
L 19.921875 47.703125 
L 19.921875 0 
L 10.890625 0 
L 10.890625 47.703125 
L 2.296875 47.703125 
L 2.296875 54.6875 
L 10.890625 54.6875 
L 10.890625 58.5 
Q 10.890625 67.625 15.140625 71.796875 
Q 19.390625 75.984375 28.609375 75.984375 
z
" id="DejaVuSans-102"/>
      <path d="M 9.8125 72.90625 
L 51.703125 72.90625 
L 51.703125 64.59375 
L 19.671875 64.59375 
L 19.671875 43.109375 
L 48.578125 43.109375 
L 48.578125 34.8125 
L 19.671875 34.8125 
L 19.671875 0 
L 9.8125 0 
z
" id="DejaVuSans-70"/>
      <path d="M 9.8125 72.90625 
L 55.90625 72.90625 
L 55.90625 64.59375 
L 19.671875 64.59375 
L 19.671875 43.015625 
L 54.390625 43.015625 
L 54.390625 34.71875 
L 19.671875 34.71875 
L 19.671875 8.296875 
L 56.78125 8.296875 
L 56.78125 0 
L 9.8125 0 
z
" id="DejaVuSans-69"/>
      <path d="M 2.984375 54.6875 
L 12.5 54.6875 
L 29.59375 8.796875 
L 46.6875 54.6875 
L 56.203125 54.6875 
L 35.6875 0 
L 23.484375 0 
z
" id="DejaVuSans-118"/>
      <path d="M 34.28125 27.484375 
Q 23.390625 27.484375 19.1875 25 
Q 14.984375 22.515625 14.984375 16.5 
Q 14.984375 11.71875 18.140625 8.90625 
Q 21.296875 6.109375 26.703125 6.109375 
Q 34.1875 6.109375 38.703125 11.40625 
Q 43.21875 16.703125 43.21875 25.484375 
L 43.21875 27.484375 
z
M 52.203125 31.203125 
L 52.203125 0 
L 43.21875 0 
L 43.21875 8.296875 
Q 40.140625 3.328125 35.546875 0.953125 
Q 30.953125 -1.421875 24.3125 -1.421875 
Q 15.921875 -1.421875 10.953125 3.296875 
Q 6 8.015625 6 15.921875 
Q 6 25.140625 12.171875 29.828125 
Q 18.359375 34.515625 30.609375 34.515625 
L 43.21875 34.515625 
L 43.21875 35.40625 
Q 43.21875 41.609375 39.140625 45 
Q 35.0625 48.390625 27.6875 48.390625 
Q 23 48.390625 18.546875 47.265625 
Q 14.109375 46.140625 10.015625 43.890625 
L 10.015625 52.203125 
Q 14.9375 54.109375 19.578125 55.046875 
Q 24.21875 56 28.609375 56 
Q 40.484375 56 46.34375 49.84375 
Q 52.203125 43.703125 52.203125 31.203125 
z
" id="DejaVuSans-97"/>
      <path d="M 44.28125 53.078125 
L 44.28125 44.578125 
Q 40.484375 46.53125 36.375 47.5 
Q 32.28125 48.484375 27.875 48.484375 
Q 21.1875 48.484375 17.84375 46.4375 
Q 14.5 44.390625 14.5 40.28125 
Q 14.5 37.15625 16.890625 35.375 
Q 19.28125 33.59375 26.515625 31.984375 
L 29.59375 31.296875 
Q 39.15625 29.25 43.1875 25.515625 
Q 47.21875 21.78125 47.21875 15.09375 
Q 47.21875 7.46875 41.1875 3.015625 
Q 35.15625 -1.421875 24.609375 -1.421875 
Q 20.21875 -1.421875 15.453125 -0.5625 
Q 10.6875 0.296875 5.421875 2 
L 5.421875 11.28125 
Q 10.40625 8.6875 15.234375 7.390625 
Q 20.0625 6.109375 24.8125 6.109375 
Q 31.15625 6.109375 34.5625 8.28125 
Q 37.984375 10.453125 37.984375 14.40625 
Q 37.984375 18.0625 35.515625 20.015625 
Q 33.0625 21.96875 24.703125 23.78125 
L 21.578125 24.515625 
Q 13.234375 26.265625 9.515625 29.90625 
Q 5.8125 33.546875 5.8125 39.890625 
Q 5.8125 47.609375 11.28125 51.796875 
Q 16.75 56 26.8125 56 
Q 31.78125 56 36.171875 55.265625 
Q 40.578125 54.546875 44.28125 53.078125 
z
" id="DejaVuSans-115"/>
      <path d="M 25.390625 72.90625 
L 33.6875 72.90625 
L 8.296875 -9.28125 
L 0 -9.28125 
z
" id="DejaVuSans-47"/>
      <path d="M 19.671875 64.796875 
L 19.671875 8.109375 
L 31.59375 8.109375 
Q 46.6875 8.109375 53.6875 14.9375 
Q 60.6875 21.78125 60.6875 36.53125 
Q 60.6875 51.171875 53.6875 57.984375 
Q 46.6875 64.796875 31.59375 64.796875 
z
M 9.8125 72.90625 
L 30.078125 72.90625 
Q 51.265625 72.90625 61.171875 64.09375 
Q 71.09375 55.28125 71.09375 36.53125 
Q 71.09375 17.671875 61.125 8.828125 
Q 51.171875 0 30.078125 0 
L 9.8125 0 
z
" id="DejaVuSans-68"/>
      <path d="M 9.8125 72.90625 
L 19.671875 72.90625 
L 19.671875 0 
L 9.8125 0 
z
" id="DejaVuSans-73"/>
      <path d="M 9.8125 72.90625 
L 24.515625 72.90625 
L 43.109375 23.296875 
L 61.8125 72.90625 
L 76.515625 72.90625 
L 76.515625 0 
L 66.890625 0 
L 66.890625 64.015625 
L 48.09375 14.015625 
L 38.1875 14.015625 
L 19.390625 64.015625 
L 19.390625 0 
L 9.8125 0 
z
" id="DejaVuSans-77"/>
     </defs>
     <g transform="translate(156.430563 339.313125)scale(0.2 -0.2)">
      <use xlink:href="#DejaVuSans-108"/>
      <use x="27.783203" xlink:href="#DejaVuSans-111"/>
      <use x="88.964844" xlink:href="#DejaVuSans-103"/>
      <use x="152.441406" xlink:href="#DejaVuSans-49"/>
      <use x="216.064453" xlink:href="#DejaVuSans-48"/>
      <use x="279.6875" xlink:href="#DejaVuSans-32"/>
      <use x="311.474609" xlink:href="#DejaVuSans-111"/>
      <use x="372.65625" xlink:href="#DejaVuSans-102"/>
      <use x="407.861328" xlink:href="#DejaVuSans-32"/>
      <use x="439.648438" xlink:href="#DejaVuSans-70"/>
      <use x="497.167969" xlink:href="#DejaVuSans-69"/>
      <use x="560.351562" xlink:href="#DejaVuSans-118"/>
      <use x="619.53125" xlink:href="#DejaVuSans-97"/>
      <use x="680.810547" xlink:href="#DejaVuSans-108"/>
      <use x="708.59375" xlink:href="#DejaVuSans-115"/>
      <use x="760.693359" xlink:href="#DejaVuSans-32"/>
      <use x="792.480469" xlink:href="#DejaVuSans-47"/>
      <use x="826.171875" xlink:href="#DejaVuSans-32"/>
      <use x="857.958984" xlink:href="#DejaVuSans-68"/>
      <use x="934.960938" xlink:href="#DejaVuSans-73"/>
      <use x="964.453125" xlink:href="#DejaVuSans-77"/>
     </g>
    </g>
   </g>
   <g id="matplotlib.axis_2">
    <g id="ytick_1">
     <g id="line2d_37">
      <path clip-path="url(#pe552503848)" d="M 62.208 293.76 
L 460.8 293.76 
" style="fill:none;stroke:#b0b0b0;stroke-linecap:square;stroke-width:0.8;"/>
     </g>
     <g id="line2d_38">
      <defs>
       <path d="M 0 0 
L -3.5 0 
" id="mce58d85079" style="stroke:#000000;stroke-width:0.8;"/>
      </defs>
      <g>
       <use style="stroke:#000000;stroke-width:0.8;" x="62.208" xlink:href="#mce58d85079" y="293.76"/>
      </g>
     </g>
     <g id="text_5">
      <!-- 0.0 -->
      <defs>
       <path d="M 10.6875 12.40625 
L 21 12.40625 
L 21 0 
L 10.6875 0 
z
" id="DejaVuSans-46"/>
      </defs>
      <g transform="translate(29.763 299.83875)scale(0.16 -0.16)">
       <use xlink:href="#DejaVuSans-48"/>
       <use x="63.623047" xlink:href="#DejaVuSans-46"/>
       <use x="95.410156" xlink:href="#DejaVuSans-48"/>
      </g>
     </g>
    </g>
    <g id="ytick_2">
     <g id="line2d_39">
      <path clip-path="url(#pe552503848)" d="M 62.208 236.274059 
L 460.8 236.274059 
" style="fill:none;stroke:#b0b0b0;stroke-linecap:square;stroke-width:0.8;"/>
     </g>
     <g id="line2d_40">
      <g>
       <use style="stroke:#000000;stroke-width:0.8;" x="62.208" xlink:href="#mce58d85079" y="236.274059"/>
      </g>
     </g>
     <g id="text_6">
      <!-- 0.2 -->
      <defs>
       <path d="M 19.1875 8.296875 
L 53.609375 8.296875 
L 53.609375 0 
L 7.328125 0 
L 7.328125 8.296875 
Q 12.9375 14.109375 22.625 23.890625 
Q 32.328125 33.6875 34.8125 36.53125 
Q 39.546875 41.84375 41.421875 45.53125 
Q 43.3125 49.21875 43.3125 52.78125 
Q 43.3125 58.59375 39.234375 62.25 
Q 35.15625 65.921875 28.609375 65.921875 
Q 23.96875 65.921875 18.8125 64.3125 
Q 13.671875 62.703125 7.8125 59.421875 
L 7.8125 69.390625 
Q 13.765625 71.78125 18.9375 73 
Q 24.125 74.21875 28.421875 74.21875 
Q 39.75 74.21875 46.484375 68.546875 
Q 53.21875 62.890625 53.21875 53.421875 
Q 53.21875 48.921875 51.53125 44.890625 
Q 49.859375 40.875 45.40625 35.40625 
Q 44.1875 33.984375 37.640625 27.21875 
Q 31.109375 20.453125 19.1875 8.296875 
z
" id="DejaVuSans-50"/>
      </defs>
      <g transform="translate(29.763 242.352809)scale(0.16 -0.16)">
       <use xlink:href="#DejaVuSans-48"/>
       <use x="63.623047" xlink:href="#DejaVuSans-46"/>
       <use x="95.410156" xlink:href="#DejaVuSans-50"/>
      </g>
     </g>
    </g>
    <g id="ytick_3">
     <g id="line2d_41">
      <path clip-path="url(#pe552503848)" d="M 62.208 178.788119 
L 460.8 178.788119 
" style="fill:none;stroke:#b0b0b0;stroke-linecap:square;stroke-width:0.8;"/>
     </g>
     <g id="line2d_42">
      <g>
       <use style="stroke:#000000;stroke-width:0.8;" x="62.208" xlink:href="#mce58d85079" y="178.788119"/>
      </g>
     </g>
     <g id="text_7">
      <!-- 0.4 -->
      <defs>
       <path d="M 37.796875 64.3125 
L 12.890625 25.390625 
L 37.796875 25.390625 
z
M 35.203125 72.90625 
L 47.609375 72.90625 
L 47.609375 25.390625 
L 58.015625 25.390625 
L 58.015625 17.1875 
L 47.609375 17.1875 
L 47.609375 0 
L 37.796875 0 
L 37.796875 17.1875 
L 4.890625 17.1875 
L 4.890625 26.703125 
z
" id="DejaVuSans-52"/>
      </defs>
      <g transform="translate(29.763 184.866869)scale(0.16 -0.16)">
       <use xlink:href="#DejaVuSans-48"/>
       <use x="63.623047" xlink:href="#DejaVuSans-46"/>
       <use x="95.410156" xlink:href="#DejaVuSans-52"/>
      </g>
     </g>
    </g>
    <g id="ytick_4">
     <g id="line2d_43">
      <path clip-path="url(#pe552503848)" d="M 62.208 121.302178 
L 460.8 121.302178 
" style="fill:none;stroke:#b0b0b0;stroke-linecap:square;stroke-width:0.8;"/>
     </g>
     <g id="line2d_44">
      <g>
       <use style="stroke:#000000;stroke-width:0.8;" x="62.208" xlink:href="#mce58d85079" y="121.302178"/>
      </g>
     </g>
     <g id="text_8">
      <!-- 0.6 -->
      <defs>
       <path d="M 33.015625 40.375 
Q 26.375 40.375 22.484375 35.828125 
Q 18.609375 31.296875 18.609375 23.390625 
Q 18.609375 15.53125 22.484375 10.953125 
Q 26.375 6.390625 33.015625 6.390625 
Q 39.65625 6.390625 43.53125 10.953125 
Q 47.40625 15.53125 47.40625 23.390625 
Q 47.40625 31.296875 43.53125 35.828125 
Q 39.65625 40.375 33.015625 40.375 
z
M 52.59375 71.296875 
L 52.59375 62.3125 
Q 48.875 64.0625 45.09375 64.984375 
Q 41.3125 65.921875 37.59375 65.921875 
Q 27.828125 65.921875 22.671875 59.328125 
Q 17.53125 52.734375 16.796875 39.40625 
Q 19.671875 43.65625 24.015625 45.921875 
Q 28.375 48.1875 33.59375 48.1875 
Q 44.578125 48.1875 50.953125 41.515625 
Q 57.328125 34.859375 57.328125 23.390625 
Q 57.328125 12.15625 50.6875 5.359375 
Q 44.046875 -1.421875 33.015625 -1.421875 
Q 20.359375 -1.421875 13.671875 8.265625 
Q 6.984375 17.96875 6.984375 36.375 
Q 6.984375 53.65625 15.1875 63.9375 
Q 23.390625 74.21875 37.203125 74.21875 
Q 40.921875 74.21875 44.703125 73.484375 
Q 48.484375 72.75 52.59375 71.296875 
z
" id="DejaVuSans-54"/>
      </defs>
      <g transform="translate(29.763 127.380928)scale(0.16 -0.16)">
       <use xlink:href="#DejaVuSans-48"/>
       <use x="63.623047" xlink:href="#DejaVuSans-46"/>
       <use x="95.410156" xlink:href="#DejaVuSans-54"/>
      </g>
     </g>
    </g>
    <g id="ytick_5">
     <g id="line2d_45">
      <path clip-path="url(#pe552503848)" d="M 62.208 63.816238 
L 460.8 63.816238 
" style="fill:none;stroke:#b0b0b0;stroke-linecap:square;stroke-width:0.8;"/>
     </g>
     <g id="line2d_46">
      <g>
       <use style="stroke:#000000;stroke-width:0.8;" x="62.208" xlink:href="#mce58d85079" y="63.816238"/>
      </g>
     </g>
     <g id="text_9">
      <!-- 0.8 -->
      <defs>
       <path d="M 31.78125 34.625 
Q 24.75 34.625 20.71875 30.859375 
Q 16.703125 27.09375 16.703125 20.515625 
Q 16.703125 13.921875 20.71875 10.15625 
Q 24.75 6.390625 31.78125 6.390625 
Q 38.8125 6.390625 42.859375 10.171875 
Q 46.921875 13.96875 46.921875 20.515625 
Q 46.921875 27.09375 42.890625 30.859375 
Q 38.875 34.625 31.78125 34.625 
z
M 21.921875 38.8125 
Q 15.578125 40.375 12.03125 44.71875 
Q 8.5 49.078125 8.5 55.328125 
Q 8.5 64.0625 14.71875 69.140625 
Q 20.953125 74.21875 31.78125 74.21875 
Q 42.671875 74.21875 48.875 69.140625 
Q 55.078125 64.0625 55.078125 55.328125 
Q 55.078125 49.078125 51.53125 44.71875 
Q 48 40.375 41.703125 38.8125 
Q 48.828125 37.15625 52.796875 32.3125 
Q 56.78125 27.484375 56.78125 20.515625 
Q 56.78125 9.90625 50.3125 4.234375 
Q 43.84375 -1.421875 31.78125 -1.421875 
Q 19.734375 -1.421875 13.25 4.234375 
Q 6.78125 9.90625 6.78125 20.515625 
Q 6.78125 27.484375 10.78125 32.3125 
Q 14.796875 37.15625 21.921875 38.8125 
z
M 18.3125 54.390625 
Q 18.3125 48.734375 21.84375 45.5625 
Q 25.390625 42.390625 31.78125 42.390625 
Q 38.140625 42.390625 41.71875 45.5625 
Q 45.3125 48.734375 45.3125 54.390625 
Q 45.3125 60.0625 41.71875 63.234375 
Q 38.140625 66.40625 31.78125 66.40625 
Q 25.390625 66.40625 21.84375 63.234375 
Q 18.3125 60.0625 18.3125 54.390625 
z
" id="DejaVuSans-56"/>
      </defs>
      <g transform="translate(29.763 69.894988)scale(0.16 -0.16)">
       <use xlink:href="#DejaVuSans-48"/>
       <use x="63.623047" xlink:href="#DejaVuSans-46"/>
       <use x="95.410156" xlink:href="#DejaVuSans-56"/>
      </g>
     </g>
    </g>
    <g id="ytick_6">
     <g id="line2d_47">
      <path clip-path="url(#pe552503848)" d="M 62.208 6.330297 
L 460.8 6.330297 
" style="fill:none;stroke:#b0b0b0;stroke-linecap:square;stroke-width:0.8;"/>
     </g>
     <g id="line2d_48">
      <g>
       <use style="stroke:#000000;stroke-width:0.8;" x="62.208" xlink:href="#mce58d85079" y="6.330297"/>
      </g>
     </g>
     <g id="text_10">
      <!-- 1.0 -->
      <g transform="translate(29.763 12.409047)scale(0.16 -0.16)">
       <use xlink:href="#DejaVuSans-49"/>
       <use x="63.623047" xlink:href="#DejaVuSans-46"/>
       <use x="95.410156" xlink:href="#DejaVuSans-48"/>
      </g>
     </g>
    </g>
    <g id="text_11">
     <!-- proportion of trials -->
     <defs>
      <path d="M 18.109375 8.203125 
L 18.109375 -20.796875 
L 9.078125 -20.796875 
L 9.078125 54.6875 
L 18.109375 54.6875 
L 18.109375 46.390625 
Q 20.953125 51.265625 25.265625 53.625 
Q 29.59375 56 35.59375 56 
Q 45.5625 56 51.78125 48.09375 
Q 58.015625 40.1875 58.015625 27.296875 
Q 58.015625 14.40625 51.78125 6.484375 
Q 45.5625 -1.421875 35.59375 -1.421875 
Q 29.59375 -1.421875 25.265625 0.953125 
Q 20.953125 3.328125 18.109375 8.203125 
z
M 48.6875 27.296875 
Q 48.6875 37.203125 44.609375 42.84375 
Q 40.53125 48.484375 33.40625 48.484375 
Q 26.265625 48.484375 22.1875 42.84375 
Q 18.109375 37.203125 18.109375 27.296875 
Q 18.109375 17.390625 22.1875 11.75 
Q 26.265625 6.109375 33.40625 6.109375 
Q 40.53125 6.109375 44.609375 11.75 
Q 48.6875 17.390625 48.6875 27.296875 
z
" id="DejaVuSans-112"/>
      <path d="M 41.109375 46.296875 
Q 39.59375 47.171875 37.8125 47.578125 
Q 36.03125 48 33.890625 48 
Q 26.265625 48 22.1875 43.046875 
Q 18.109375 38.09375 18.109375 28.8125 
L 18.109375 0 
L 9.078125 0 
L 9.078125 54.6875 
L 18.109375 54.6875 
L 18.109375 46.1875 
Q 20.953125 51.171875 25.484375 53.578125 
Q 30.03125 56 36.53125 56 
Q 37.453125 56 38.578125 55.875 
Q 39.703125 55.765625 41.0625 55.515625 
z
" id="DejaVuSans-114"/>
      <path d="M 18.3125 70.21875 
L 18.3125 54.6875 
L 36.8125 54.6875 
L 36.8125 47.703125 
L 18.3125 47.703125 
L 18.3125 18.015625 
Q 18.3125 11.328125 20.140625 9.421875 
Q 21.96875 7.515625 27.59375 7.515625 
L 36.8125 7.515625 
L 36.8125 0 
L 27.59375 0 
Q 17.1875 0 13.234375 3.875 
Q 9.28125 7.765625 9.28125 18.015625 
L 9.28125 47.703125 
L 2.6875 47.703125 
L 2.6875 54.6875 
L 9.28125 54.6875 
L 9.28125 70.21875 
z
" id="DejaVuSans-116"/>
      <path d="M 9.421875 54.6875 
L 18.40625 54.6875 
L 18.40625 0 
L 9.421875 0 
z
M 9.421875 75.984375 
L 18.40625 75.984375 
L 18.40625 64.59375 
L 9.421875 64.59375 
z
" id="DejaVuSans-105"/>
      <path d="M 54.890625 33.015625 
L 54.890625 0 
L 45.90625 0 
L 45.90625 32.71875 
Q 45.90625 40.484375 42.875 44.328125 
Q 39.84375 48.1875 33.796875 48.1875 
Q 26.515625 48.1875 22.3125 43.546875 
Q 18.109375 38.921875 18.109375 30.90625 
L 18.109375 0 
L 9.078125 0 
L 9.078125 54.6875 
L 18.109375 54.6875 
L 18.109375 46.1875 
Q 21.34375 51.125 25.703125 53.5625 
Q 30.078125 56 35.796875 56 
Q 45.21875 56 50.046875 50.171875 
Q 54.890625 44.34375 54.890625 33.015625 
z
" id="DejaVuSans-110"/>
     </defs>
     <g transform="translate(21.603625 241.836125)rotate(-90)scale(0.2 -0.2)">
      <use xlink:href="#DejaVuSans-112"/>
      <use x="63.476562" xlink:href="#DejaVuSans-114"/>
      <use x="104.558594" xlink:href="#DejaVuSans-111"/>
      <use x="165.740234" xlink:href="#DejaVuSans-112"/>
      <use x="229.216797" xlink:href="#DejaVuSans-111"/>
      <use x="290.398438" xlink:href="#DejaVuSans-114"/>
      <use x="331.511719" xlink:href="#DejaVuSans-116"/>
      <use x="370.720703" xlink:href="#DejaVuSans-105"/>
      <use x="398.503906" xlink:href="#DejaVuSans-111"/>
      <use x="459.685547" xlink:href="#DejaVuSans-110"/>
      <use x="523.064453" xlink:href="#DejaVuSans-32"/>
      <use x="554.851562" xlink:href="#DejaVuSans-111"/>
      <use x="616.033203" xlink:href="#DejaVuSans-102"/>
      <use x="651.238281" xlink:href="#DejaVuSans-32"/>
      <use x="683.025391" xlink:href="#DejaVuSans-116"/>
      <use x="722.234375" xlink:href="#DejaVuSans-114"/>
      <use x="763.347656" xlink:href="#DejaVuSans-105"/>
      <use x="791.130859" xlink:href="#DejaVuSans-97"/>
      <use x="852.410156" xlink:href="#DejaVuSans-108"/>
      <use x="880.193359" xlink:href="#DejaVuSans-115"/>
     </g>
    </g>
   </g>
   <g id="line2d_49"/>
   <g id="line2d_50"/>
   <g id="line2d_51"/>
   <g id="line2d_52"/>
   <g id="line2d_53">
    <path clip-path="url(#pe552503848)" d="M 207.090658 293.76 
L 207.090658 3.456 
" style="fill:none;stroke:#000000;stroke-linecap:square;stroke-width:1.5;"/>
   </g>
   <g id="patch_3">
    <path d="M 62.208 293.76 
L 62.208 3.456 
" style="fill:none;stroke:#000000;stroke-linecap:square;stroke-linejoin:miter;stroke-width:0.8;"/>
   </g>
   <g id="patch_4">
    <path d="M 460.8 293.76 
L 460.8 3.456 
" style="fill:none;stroke:#000000;stroke-linecap:square;stroke-linejoin:miter;stroke-width:0.8;"/>
   </g>
   <g id="patch_5">
    <path d="M 62.208 293.76 
L 460.8 293.76 
" style="fill:none;stroke:#000000;stroke-linecap:square;stroke-linejoin:miter;stroke-width:0.8;"/>
   </g>
   <g id="patch_6">
    <path d="M 62.208 3.456 
L 460.8 3.456 
" style="fill:none;stroke:#000000;stroke-linecap:square;stroke-linejoin:miter;stroke-width:0.8;"/>
   </g>
   <g id="text_12">
    <!-- {f6-f9}, 20-D -->
    <defs>
     <path d="M 51.125 -9.28125 
L 51.125 -16.3125 
L 48.09375 -16.3125 
Q 35.9375 -16.3125 31.8125 -12.6875 
Q 27.6875 -9.078125 27.6875 1.703125 
L 27.6875 13.375 
Q 27.6875 20.75 25.046875 23.578125 
Q 22.40625 26.421875 15.484375 26.421875 
L 12.5 26.421875 
L 12.5 33.40625 
L 15.484375 33.40625 
Q 22.46875 33.40625 25.078125 36.203125 
Q 27.6875 39.015625 27.6875 46.296875 
L 27.6875 58.015625 
Q 27.6875 68.796875 31.8125 72.390625 
Q 35.9375 75.984375 48.09375 75.984375 
L 51.125 75.984375 
L 51.125 69 
L 47.796875 69 
Q 40.921875 69 38.8125 66.84375 
Q 36.71875 64.703125 36.71875 57.8125 
L 36.71875 45.703125 
Q 36.71875 38.03125 34.5 34.5625 
Q 32.28125 31.109375 26.90625 29.890625 
Q 32.328125 28.5625 34.515625 25.09375 
Q 36.71875 21.625 36.71875 14.015625 
L 36.71875 1.90625 
Q 36.71875 -4.984375 38.8125 -7.125 
Q 40.921875 -9.28125 47.796875 -9.28125 
z
" id="DejaVuSans-123"/>
     <path d="M 4.890625 31.390625 
L 31.203125 31.390625 
L 31.203125 23.390625 
L 4.890625 23.390625 
z
" id="DejaVuSans-45"/>
     <path d="M 10.984375 1.515625 
L 10.984375 10.5 
Q 14.703125 8.734375 18.5 7.8125 
Q 22.3125 6.890625 25.984375 6.890625 
Q 35.75 6.890625 40.890625 13.453125 
Q 46.046875 20.015625 46.78125 33.40625 
Q 43.953125 29.203125 39.59375 26.953125 
Q 35.25 24.703125 29.984375 24.703125 
Q 19.046875 24.703125 12.671875 31.3125 
Q 6.296875 37.9375 6.296875 49.421875 
Q 6.296875 60.640625 12.9375 67.421875 
Q 19.578125 74.21875 30.609375 74.21875 
Q 43.265625 74.21875 49.921875 64.515625 
Q 56.59375 54.828125 56.59375 36.375 
Q 56.59375 19.140625 48.40625 8.859375 
Q 40.234375 -1.421875 26.421875 -1.421875 
Q 22.703125 -1.421875 18.890625 -0.6875 
Q 15.09375 0.046875 10.984375 1.515625 
z
M 30.609375 32.421875 
Q 37.25 32.421875 41.125 36.953125 
Q 45.015625 41.5 45.015625 49.421875 
Q 45.015625 57.28125 41.125 61.84375 
Q 37.25 66.40625 30.609375 66.40625 
Q 23.96875 66.40625 20.09375 61.84375 
Q 16.21875 57.28125 16.21875 49.421875 
Q 16.21875 41.5 20.09375 36.953125 
Q 23.96875 32.421875 30.609375 32.421875 
z
" id="DejaVuSans-57"/>
     <path d="M 12.5 -9.28125 
L 15.921875 -9.28125 
Q 22.75 -9.28125 24.828125 -7.171875 
Q 26.90625 -5.078125 26.90625 1.90625 
L 26.90625 14.015625 
Q 26.90625 21.625 29.09375 25.09375 
Q 31.296875 28.5625 36.71875 29.890625 
Q 31.296875 31.109375 29.09375 34.5625 
Q 26.90625 38.03125 26.90625 45.703125 
L 26.90625 57.8125 
Q 26.90625 64.75 24.828125 66.875 
Q 22.75 69 15.921875 69 
L 12.5 69 
L 12.5 75.984375 
L 15.578125 75.984375 
Q 27.734375 75.984375 31.8125 72.390625 
Q 35.890625 68.796875 35.890625 58.015625 
L 35.890625 46.296875 
Q 35.890625 39.015625 38.515625 36.203125 
Q 41.15625 33.40625 48.09375 33.40625 
L 51.125 33.40625 
L 51.125 26.421875 
L 48.09375 26.421875 
Q 41.15625 26.421875 38.515625 23.578125 
Q 35.890625 20.75 35.890625 13.375 
L 35.890625 1.703125 
Q 35.890625 -9.078125 31.8125 -12.6875 
Q 27.734375 -16.3125 15.578125 -16.3125 
L 12.5 -16.3125 
z
" id="DejaVuSans-125"/>
     <path d="M 11.71875 12.40625 
L 22.015625 12.40625 
L 22.015625 4 
L 14.015625 -11.625 
L 7.71875 -11.625 
L 11.71875 4 
z
" id="DejaVuSans-44"/>
    </defs>
    <g transform="translate(195.0165 24.458955)scale(0.2 -0.2)">
     <use xlink:href="#DejaVuSans-123"/>
     <use x="63.623047" xlink:href="#DejaVuSans-102"/>
     <use x="98.828125" xlink:href="#DejaVuSans-54"/>
     <use x="162.451172" xlink:href="#DejaVuSans-45"/>
     <use x="198.535156" xlink:href="#DejaVuSans-102"/>
     <use x="233.740234" xlink:href="#DejaVuSans-57"/>
     <use x="297.363281" xlink:href="#DejaVuSans-125"/>
     <use x="360.986328" xlink:href="#DejaVuSans-44"/>
     <use x="392.773438" xlink:href="#DejaVuSans-32"/>
     <use x="424.560547" xlink:href="#DejaVuSans-50"/>
     <use x="488.183594" xlink:href="#DejaVuSans-48"/>
     <use x="551.806641" xlink:href="#DejaVuSans-45"/>
     <use x="587.890625" xlink:href="#DejaVuSans-68"/>
    </g>
   </g>
   <g id="text_13">
    <!-- absolute targets -->
    <defs>
     <path d="M 48.6875 27.296875 
Q 48.6875 37.203125 44.609375 42.84375 
Q 40.53125 48.484375 33.40625 48.484375 
Q 26.265625 48.484375 22.1875 42.84375 
Q 18.109375 37.203125 18.109375 27.296875 
Q 18.109375 17.390625 22.1875 11.75 
Q 26.265625 6.109375 33.40625 6.109375 
Q 40.53125 6.109375 44.609375 11.75 
Q 48.6875 17.390625 48.6875 27.296875 
z
M 18.109375 46.390625 
Q 20.953125 51.265625 25.265625 53.625 
Q 29.59375 56 35.59375 56 
Q 45.5625 56 51.78125 48.09375 
Q 58.015625 40.1875 58.015625 27.296875 
Q 58.015625 14.40625 51.78125 6.484375 
Q 45.5625 -1.421875 35.59375 -1.421875 
Q 29.59375 -1.421875 25.265625 0.953125 
Q 20.953125 3.328125 18.109375 8.203125 
L 18.109375 0 
L 9.078125 0 
L 9.078125 75.984375 
L 18.109375 75.984375 
z
" id="DejaVuSans-98"/>
     <path d="M 8.5 21.578125 
L 8.5 54.6875 
L 17.484375 54.6875 
L 17.484375 21.921875 
Q 17.484375 14.15625 20.5 10.265625 
Q 23.53125 6.390625 29.59375 6.390625 
Q 36.859375 6.390625 41.078125 11.03125 
Q 45.3125 15.671875 45.3125 23.6875 
L 45.3125 54.6875 
L 54.296875 54.6875 
L 54.296875 0 
L 45.3125 0 
L 45.3125 8.40625 
Q 42.046875 3.421875 37.71875 1 
Q 33.40625 -1.421875 27.6875 -1.421875 
Q 18.265625 -1.421875 13.375 4.4375 
Q 8.5 10.296875 8.5 21.578125 
z
M 31.109375 56 
z
" id="DejaVuSans-117"/>
     <path d="M 56.203125 29.59375 
L 56.203125 25.203125 
L 14.890625 25.203125 
Q 15.484375 15.921875 20.484375 11.0625 
Q 25.484375 6.203125 34.421875 6.203125 
Q 39.59375 6.203125 44.453125 7.46875 
Q 49.3125 8.734375 54.109375 11.28125 
L 54.109375 2.78125 
Q 49.265625 0.734375 44.1875 -0.34375 
Q 39.109375 -1.421875 33.890625 -1.421875 
Q 20.796875 -1.421875 13.15625 6.1875 
Q 5.515625 13.8125 5.515625 26.8125 
Q 5.515625 40.234375 12.765625 48.109375 
Q 20.015625 56 32.328125 56 
Q 43.359375 56 49.78125 48.890625 
Q 56.203125 41.796875 56.203125 29.59375 
z
M 47.21875 32.234375 
Q 47.125 39.59375 43.09375 43.984375 
Q 39.0625 48.390625 32.421875 48.390625 
Q 24.90625 48.390625 20.390625 44.140625 
Q 15.875 39.890625 15.1875 32.171875 
z
" id="DejaVuSans-101"/>
    </defs>
    <g transform="translate(62.208 308.131485)scale(0.14 -0.14)">
     <use xlink:href="#DejaVuSans-97"/>
     <use x="61.279297" xlink:href="#DejaVuSans-98"/>
     <use x="124.755859" xlink:href="#DejaVuSans-115"/>
     <use x="176.855469" xlink:href="#DejaVuSans-111"/>
     <use x="238.037109" xlink:href="#DejaVuSans-108"/>
     <use x="265.820312" xlink:href="#DejaVuSans-117"/>
     <use x="329.199219" xlink:href="#DejaVuSans-116"/>
     <use x="368.408203" xlink:href="#DejaVuSans-101"/>
     <use x="429.931641" xlink:href="#DejaVuSans-32"/>
     <use x="461.71875" xlink:href="#DejaVuSans-116"/>
     <use x="500.927734" xlink:href="#DejaVuSans-97"/>
     <use x="562.207031" xlink:href="#DejaVuSans-114"/>
     <use x="603.304688" xlink:href="#DejaVuSans-103"/>
     <use x="666.78125" xlink:href="#DejaVuSans-101"/>
     <use x="728.304688" xlink:href="#DejaVuSans-116"/>
     <use x="767.513672" xlink:href="#DejaVuSans-115"/>
    </g>
   </g>
   <g id="text_14">
    <!-- v2.4 -->
    <g style="fill:#808080;" transform="translate(250.593063 288.777272)scale(0.1 -0.1)">
     <use xlink:href="#DejaVuSans-118"/>
     <use x="59.179688" xlink:href="#DejaVuSans-50"/>
     <use x="122.802734" xlink:href="#DejaVuSans-46"/>
     <use x="154.589844" xlink:href="#DejaVuSans-52"/>
    </g>
   </g>
   <g id="legend_1">
    <g id="patch_7">
     <path d="M 76.208 136.881 
L 205.429875 136.881 
Q 209.429875 136.881 209.429875 132.881 
L 209.429875 17.456 
Q 209.429875 13.456 205.429875 13.456 
L 76.208 13.456 
Q 72.208 13.456 72.208 17.456 
L 72.208 132.881 
Q 72.208 136.881 76.208 136.881 
z
" style="fill:#ffffff;opacity:0.2;stroke:#cccccc;stroke-linejoin:miter;"/>
    </g>
    <g id="line2d_54">
     <path d="M 80.208 29.652875 
L 120.208 29.652875 
" style="fill:none;stroke:#000000;stroke-linecap:square;stroke-width:1.5;"/>
    </g>
    <g id="line2d_55"/>
    <g id="text_15">
     <!-- 1: 0/4 -->
     <defs>
      <path d="M 11.71875 12.40625 
L 22.015625 12.40625 
L 22.015625 0 
L 11.71875 0 
z
M 11.71875 51.703125 
L 22.015625 51.703125 
L 22.015625 39.3125 
L 11.71875 39.3125 
z
" id="DejaVuSans-58"/>
     </defs>
     <g transform="translate(136.208 36.652875)scale(0.2 -0.2)">
      <use xlink:href="#DejaVuSans-49"/>
      <use x="63.623047" xlink:href="#DejaVuSans-58"/>
      <use x="97.314453" xlink:href="#DejaVuSans-32"/>
      <use x="129.101562" xlink:href="#DejaVuSans-48"/>
      <use x="192.724609" xlink:href="#DejaVuSans-47"/>
      <use x="226.416016" xlink:href="#DejaVuSans-52"/>
     </g>
    </g>
    <g id="line2d_56">
     <path d="M 80.208 59.009125 
L 120.208 59.009125 
" style="fill:none;stroke:#00bfbf;stroke-linecap:square;stroke-width:1.5;"/>
    </g>
    <g id="line2d_57"/>
    <g id="text_16">
     <!-- -1: 0/4 -->
     <g transform="translate(136.208 66.009125)scale(0.2 -0.2)">
      <use xlink:href="#DejaVuSans-45"/>
      <use x="36.083984" xlink:href="#DejaVuSans-49"/>
      <use x="99.707031" xlink:href="#DejaVuSans-58"/>
      <use x="133.398438" xlink:href="#DejaVuSans-32"/>
      <use x="165.185547" xlink:href="#DejaVuSans-48"/>
      <use x="228.808594" xlink:href="#DejaVuSans-47"/>
      <use x="262.5" xlink:href="#DejaVuSans-52"/>
     </g>
    </g>
    <g id="line2d_58">
     <path d="M 80.208 88.365375 
L 120.208 88.365375 
" style="fill:none;stroke:#bf00bf;stroke-linecap:square;stroke-width:1.5;"/>
    </g>
    <g id="line2d_59"/>
    <g id="text_17">
     <!-- -4: 0/4 -->
     <g transform="translate(136.208 95.365375)scale(0.2 -0.2)">
      <use xlink:href="#DejaVuSans-45"/>
      <use x="36.083984" xlink:href="#DejaVuSans-52"/>
      <use x="99.707031" xlink:href="#DejaVuSans-58"/>
      <use x="133.398438" xlink:href="#DejaVuSans-32"/>
      <use x="165.185547" xlink:href="#DejaVuSans-48"/>
      <use x="228.808594" xlink:href="#DejaVuSans-47"/>
      <use x="262.5" xlink:href="#DejaVuSans-52"/>
     </g>
    </g>
    <g id="line2d_60">
     <path d="M 80.208 117.721625 
L 120.208 117.721625 
" style="fill:none;stroke:#ff0000;stroke-linecap:square;stroke-width:3;"/>
    </g>
    <g id="line2d_61"/>
    <g id="text_18">
     <!-- -8: 0/4 -->
     <g transform="translate(136.208 124.721625)scale(0.2 -0.2)">
      <use xlink:href="#DejaVuSans-45"/>
      <use x="36.083984" xlink:href="#DejaVuSans-56"/>
      <use x="99.707031" xlink:href="#DejaVuSans-58"/>
      <use x="133.398438" xlink:href="#DejaVuSans-32"/>
      <use x="165.185547" xlink:href="#DejaVuSans-48"/>
      <use x="228.808594" xlink:href="#DejaVuSans-47"/>
      <use x="262.5" xlink:href="#DejaVuSans-52"/>
     </g>
    </g>
   </g>
  </g>
 </g>
 <defs>
  <clipPath id="pe552503848">
   <rect height="290.304" width="398.592" x="62.208" y="3.456"/>
  </clipPath>
 </defs>
</svg>
