<?xml version="1.0" encoding="utf-8" standalone="no"?>
<!DOCTYPE svg PUBLIC "-//W3C//DTD SVG 1.1//EN"
  "http://www.w3.org/Graphics/SVG/1.1/DTD/svg11.dtd">
<!-- Created with matplotlib (https://matplotlib.org/) -->
<svg height="345.6pt" version="1.1" viewBox="0 0 460.8 345.6" width="460.8pt" xmlns="http://www.w3.org/2000/svg" xmlns:xlink="http://www.w3.org/1999/xlink">
 <defs>
  <style type="text/css">
*{stroke-linecap:butt;stroke-linejoin:round;}
  </style>
 </defs>
 <g id="figure_1">
  <g id="patch_1">
   <path d="M 0 345.6 
L 460.8 345.6 
L 460.8 0 
L 0 0 
z
" style="fill:#ffffff;"/>
  </g>
  <g id="axes_1">
   <g id="patch_2">
    <path d="M 62.208 293.76 
L 460.8 293.76 
L 460.8 3.456 
L 62.208 3.456 
z
" style="fill:#ffffff;"/>
   </g>
   <g id="line2d_1">
    <path clip-path="url(#p6b9a5475be)" d="M 247.512118 293.76 
L 247.512118 289.927604 
L 251.446312 289.927604 
L 251.446312 286.095208 
L 252.680372 286.095208 
L 252.680372 282.262812 
L 254.151384 282.262812 
L 254.151384 278.430416 
L 254.331714 278.430416 
L 254.331714 274.59802 
L 254.690083 274.59802 
L 254.690083 270.765624 
L 259.571568 270.765624 
L 259.571568 266.933228 
L 261.740623 266.933228 
L 261.740623 263.100832 
L 264.658146 263.100832 
L 264.658146 259.268436 
L 268.94407 259.268436 
L 268.94407 255.43604 
L 270.13711 255.43604 
L 270.13711 251.603644 
L 277.348762 251.603644 
L 277.348762 247.771248 
L 285.620472 247.771248 
L 285.620472 243.938851 
L 291.427842 243.938851 
L 291.427842 240.106455 
L 292.279915 240.106455 
L 292.279915 236.274059 
L 293.079184 236.274059 
L 293.079184 232.441663 
L 293.898938 232.441663 
L 293.898938 228.609267 
L 294.215435 228.609267 
L 294.215435 224.776871 
L 297.289159 224.776871 
L 297.289159 220.944475 
L 298.287231 220.944475 
L 298.287231 217.112079 
L 312.774043 217.112079 
L 312.774043 213.279683 
L 313.866684 213.279683 
L 313.866684 209.447287 
L 315.209939 209.447287 
L 315.209939 205.614891 
L 318.054894 205.614891 
L 318.054894 201.782495 
L 328.245868 201.782495 
L 328.245868 197.950099 
L 332.773291 197.950099 
L 332.773291 194.117703 
L 336.231651 194.117703 
L 336.231651 190.285307 
L 348.922267 190.285307 
L 348.922267 186.452911 
L 348.922267 186.452911 
L 348.922267 186.452911 
L 460.8 186.452911 
" style="fill:none;stroke:#f5deb3;stroke-linecap:square;stroke-width:1.5;"/>
   </g>
   <g id="line2d_2">
    <path clip-path="url(#p6b9a5475be)" d="M 330.115394 293.76 
L 330.115394 282.262812 
L 349.956842 282.262812 
L 349.956842 270.765624 
L 364.770648 270.765624 
L 364.770648 259.268436 
L 412.237485 259.268436 
L 412.237485 247.771248 
L 446.700705 247.771248 
L 446.700705 236.274059 
L 446.700705 236.274059 
L 446.700705 236.274059 
L 460.8 236.274059 
" style="fill:none;stroke:#f5deb3;stroke-linecap:square;stroke-width:1.5;"/>
   </g>
   <g id="line2d_3">
    <path clip-path="url(#p6b9a5475be)" d="M 205.752628 293.76 
L 205.752628 289.927604 
L 210.827852 289.927604 
L 210.827852 286.095208 
L 250.766593 286.095208 
L 250.766593 282.262812 
L 252.398769 282.262812 
L 252.398769 278.430416 
L 254.868135 278.430416 
L 254.868135 274.59802 
L 262.041602 274.59802 
L 262.041602 270.765624 
L 266.384398 270.765624 
L 266.384398 266.933228 
L 270.13711 266.933228 
L 270.13711 263.100832 
L 273.297463 263.100832 
L 273.297463 259.268436 
L 273.811427 259.268436 
L 273.811427 255.43604 
L 278.583516 255.43604 
L 278.583516 251.603644 
L 280.949857 251.603644 
L 280.949857 247.771248 
L 287.918126 247.771248 
L 287.918126 243.938851 
L 289.942588 243.938851 
L 289.942588 240.106455 
L 297.354266 240.106455 
L 297.354266 236.274059 
L 306.213991 236.274059 
L 306.213991 232.441663 
L 315.760783 232.441663 
L 315.760783 228.609267 
L 327.566729 228.609267 
L 327.566729 224.776871 
L 328.277192 224.776871 
L 328.277192 220.944475 
L 330.518204 220.944475 
L 330.518204 217.112079 
L 334.726418 217.112079 
L 334.726418 213.279683 
L 339.344162 213.279683 
L 339.344162 209.447287 
L 340.320983 209.447287 
L 340.320983 205.614891 
L 354.680503 205.614891 
L 354.680503 201.782495 
L 358.379541 201.782495 
L 358.379541 197.950099 
L 390.868304 197.950099 
L 390.868304 194.117703 
L 393.449769 194.117703 
L 393.449769 190.285307 
L 394.072069 190.285307 
L 394.072069 186.452911 
L 405.540413 186.452911 
L 405.540413 182.620515 
L 423.464255 182.620515 
L 423.464255 178.788119 
L 423.464255 178.788119 
L 423.464255 178.788119 
L 460.8 178.788119 
" style="fill:none;stroke:#f5deb3;stroke-linecap:square;stroke-width:1.5;"/>
   </g>
   <g id="line2d_4">
    <path clip-path="url(#p6b9a5475be)" d="M 238.470574 293.76 
L 238.470574 289.927604 
L 260.437013 289.927604 
L 260.437013 286.095208 
L 260.514818 286.095208 
L 260.514818 282.262812 
L 263.515176 282.262812 
L 263.515176 278.430416 
L 296.962109 278.430416 
L 296.962109 274.59802 
L 298.191666 274.59802 
L 298.191666 270.765624 
L 302.752188 270.765624 
L 302.752188 266.933228 
L 303.037529 266.933228 
L 303.037529 263.100832 
L 307.281975 263.100832 
L 307.281975 259.268436 
L 319.273293 259.268436 
L 319.273293 255.43604 
L 320.85129 255.43604 
L 320.85129 251.603644 
L 324.187245 251.603644 
L 324.187245 247.771248 
L 324.307796 247.771248 
L 324.307796 243.938851 
L 328.558068 243.938851 
L 328.558068 240.106455 
L 329.359163 240.106455 
L 329.359163 236.274059 
L 330.93192 236.274059 
L 330.93192 232.441663 
L 336.127751 232.441663 
L 336.127751 228.609267 
L 352.335874 228.609267 
L 352.335874 224.776871 
L 363.673258 224.776871 
L 363.673258 220.944475 
L 364.16525 220.944475 
L 364.16525 217.112079 
L 369.913994 217.112079 
L 369.913994 213.279683 
L 371.834916 213.279683 
L 371.834916 209.447287 
L 382.645749 209.447287 
L 382.645749 205.614891 
L 386.213264 205.614891 
L 386.213264 201.782495 
L 390.341207 201.782495 
L 390.341207 197.950099 
L 394.420791 197.950099 
L 394.420791 194.117703 
L 407.901339 194.117703 
L 407.901339 190.285307 
L 413.120386 190.285307 
L 413.120386 186.452911 
L 430.103986 186.452911 
L 430.103986 182.620515 
L 431.076215 182.620515 
L 431.076215 178.788119 
L 432.945542 178.788119 
L 432.945542 174.955723 
L 436.371863 174.955723 
L 436.371863 171.123327 
L 442.992236 171.123327 
L 442.992236 167.290931 
L 442.992236 167.290931 
L 442.992236 167.290931 
L 460.8 167.290931 
" style="fill:none;stroke:#f5deb3;stroke-linecap:square;stroke-width:1.5;"/>
   </g>
   <g id="line2d_5">
    <path clip-path="url(#p6b9a5475be)" d="M 357.044904 293.76 
L 357.044904 289.927604 
L 357.044904 289.927604 
L 357.044904 289.927604 
L 460.8 289.927604 
" style="fill:none;stroke:#f5deb3;stroke-linecap:square;stroke-width:1.5;"/>
   </g>
   <g id="line2d_6"/>
   <g id="line2d_7">
    <path clip-path="url(#p6b9a5475be)" d="M 264.090523 293.76 
L 264.090523 289.927604 
L 271.477742 289.927604 
L 271.477742 286.095208 
L 273.640799 286.095208 
L 273.640799 282.262812 
L 278.124698 282.262812 
L 278.124698 278.430416 
L 287.468474 278.430416 
L 287.468474 274.59802 
L 348.439089 274.59802 
L 348.439089 270.765624 
L 364.084767 270.765624 
L 364.084767 266.933228 
L 367.94456 266.933228 
L 367.94456 263.100832 
L 368.871857 263.100832 
L 368.871857 259.268436 
L 373.52762 259.268436 
L 373.52762 255.43604 
L 385.231291 255.43604 
L 385.231291 251.603644 
L 387.871037 251.603644 
L 387.871037 247.771248 
L 389.237266 247.771248 
L 389.237266 243.938851 
L 389.480998 243.938851 
L 389.480998 240.106455 
L 391.099295 240.106455 
L 391.099295 236.274059 
L 393.082768 236.274059 
L 393.082768 232.441663 
L 398.296935 232.441663 
L 398.296935 228.609267 
L 399.632775 228.609267 
L 399.632775 224.776871 
L 401.020303 224.776871 
L 401.020303 220.944475 
L 407.887045 220.944475 
L 407.887045 217.112079 
L 409.616824 217.112079 
L 409.616824 213.279683 
L 411.324774 213.279683 
L 411.324774 209.447287 
L 416.066112 209.447287 
L 416.066112 205.614891 
L 419.984978 205.614891 
L 419.984978 201.782495 
L 424.05036 201.782495 
L 424.05036 197.950099 
L 436.826218 197.950099 
L 436.826218 194.117703 
L 436.97739 194.117703 
L 436.97739 190.285307 
L 442.678381 190.285307 
L 442.678381 186.452911 
L 460.266886 186.452911 
L 460.266886 182.620515 
L 461.8 182.620515 
" style="fill:none;stroke:#f5deb3;stroke-linecap:square;stroke-width:1.5;"/>
   </g>
   <g id="line2d_8">
    <path clip-path="url(#p6b9a5475be)" d="M 405.454689 293.76 
L 405.454689 289.927604 
L 412.837315 289.927604 
L 412.837315 286.095208 
L 415.887033 286.095208 
L 415.887033 282.262812 
L 418.533779 282.262812 
L 418.533779 278.430416 
L 419.210037 278.430416 
L 419.210037 274.59802 
L 420.23483 274.59802 
L 420.23483 270.765624 
L 424.73897 270.765624 
L 424.73897 266.933228 
L 451.085448 266.933228 
L 451.085448 263.100832 
L 451.286574 263.100832 
L 451.286574 259.268436 
L 451.307914 259.268436 
L 451.307914 255.43604 
L 452.336443 255.43604 
L 452.336443 251.603644 
L 453.256691 251.603644 
L 453.256691 247.771248 
L 454.014293 247.771248 
L 454.014293 243.938851 
L 461.8 243.938851 
" style="fill:none;stroke:#f5deb3;stroke-linecap:square;stroke-width:1.5;"/>
   </g>
   <g id="line2d_9">
    <path clip-path="url(#p6b9a5475be)" d="M 254.060929 293.76 
L 254.060929 289.927604 
L 259.172251 289.927604 
L 259.172251 286.095208 
L 272.835302 286.095208 
L 272.835302 282.262812 
L 273.924798 282.262812 
L 273.924798 278.430416 
L 315.145915 278.430416 
L 315.145915 274.59802 
L 320.136134 274.59802 
L 320.136134 270.765624 
L 325.175869 270.765624 
L 325.175869 266.933228 
L 329.037469 266.933228 
L 329.037469 263.100832 
L 335.512128 263.100832 
L 335.512128 259.268436 
L 351.548611 259.268436 
L 351.548611 255.43604 
L 352.978002 255.43604 
L 352.978002 251.603644 
L 353.012907 251.603644 
L 353.012907 247.771248 
L 365.400052 247.771248 
L 365.400052 243.938851 
L 368.649466 243.938851 
L 368.649466 240.106455 
L 380.310068 240.106455 
L 380.310068 236.274059 
L 384.969905 236.274059 
L 384.969905 232.441663 
L 387.763797 232.441663 
L 387.763797 228.609267 
L 389.466266 228.609267 
L 389.466266 224.776871 
L 393.893306 224.776871 
L 393.893306 220.944475 
L 396.638635 220.944475 
L 396.638635 217.112079 
L 400.356438 217.112079 
L 400.356438 213.279683 
L 400.359285 213.279683 
L 400.359285 209.447287 
L 403.512834 209.447287 
L 403.512834 205.614891 
L 409.366772 205.614891 
L 409.366772 201.782495 
L 412.215981 201.782495 
L 412.215981 197.950099 
L 415.118875 197.950099 
L 415.118875 194.117703 
L 418.944866 194.117703 
L 418.944866 190.285307 
L 428.175409 190.285307 
L 428.175409 186.452911 
L 429.782924 186.452911 
L 429.782924 182.620515 
L 431.354824 182.620515 
L 431.354824 178.788119 
L 440.108907 178.788119 
L 440.108907 174.955723 
L 442.276684 174.955723 
L 442.276684 171.123327 
L 447.819166 171.123327 
L 447.819166 167.290931 
L 459.98493 167.290931 
L 459.98493 163.458535 
L 460.165958 163.458535 
L 460.165958 159.626139 
L 461.8 159.626139 
" style="fill:none;stroke:#f5deb3;stroke-linecap:square;stroke-width:1.5;"/>
   </g>
   <g id="line2d_10">
    <path clip-path="url(#p6b9a5475be)" d="M 387.211821 293.76 
L 387.211821 289.927604 
L 405.558041 289.927604 
L 405.558041 286.095208 
L 410.582386 286.095208 
L 410.582386 282.262812 
L 414.491696 282.262812 
L 414.491696 278.430416 
L 426.863373 278.430416 
L 426.863373 274.59802 
L 429.498016 274.59802 
L 429.498016 270.765624 
L 430.900975 270.765624 
L 430.900975 266.933228 
L 431.957871 266.933228 
L 431.957871 263.100832 
L 435.846198 263.100832 
L 435.846198 259.268436 
L 461.8 259.268436 
" style="fill:none;stroke:#f5deb3;stroke-linecap:square;stroke-width:1.5;"/>
   </g>
   <g id="line2d_11">
    <path clip-path="url(#p6b9a5475be)" d="M 326.665596 293.76 
L 326.665596 289.927604 
L 362.267227 289.927604 
L 362.267227 286.095208 
L 378.329573 286.095208 
L 378.329573 282.262812 
L 385.945887 282.262812 
L 385.945887 278.430416 
L 389.602339 278.430416 
L 389.602339 274.59802 
L 393.436357 274.59802 
L 393.436357 270.765624 
L 394.880246 270.765624 
L 394.880246 266.933228 
L 396.260775 266.933228 
L 396.260775 263.100832 
L 406.986359 263.100832 
L 406.986359 259.268436 
L 408.855202 259.268436 
L 408.855202 255.43604 
L 408.92036 255.43604 
L 408.92036 251.603644 
L 411.517647 251.603644 
L 411.517647 247.771248 
L 418.546744 247.771248 
L 418.546744 243.938851 
L 419.034662 243.938851 
L 419.034662 240.106455 
L 422.368728 240.106455 
L 422.368728 236.274059 
L 423.141557 236.274059 
L 423.141557 232.441663 
L 423.75996 232.441663 
L 423.75996 228.609267 
L 424.254726 228.609267 
L 424.254726 224.776871 
L 425.165508 224.776871 
L 425.165508 220.944475 
L 430.20953 220.944475 
L 430.20953 217.112079 
L 443.19226 217.112079 
L 443.19226 213.279683 
L 443.91498 213.279683 
L 443.91498 209.447287 
L 446.238554 209.447287 
L 446.238554 205.614891 
L 450.878188 205.614891 
L 450.878188 201.782495 
L 452.366416 201.782495 
L 452.366416 197.950099 
L 454.520363 197.950099 
L 454.520363 194.117703 
L 461.8 194.117703 
" style="fill:none;stroke:#f5deb3;stroke-linecap:square;stroke-width:1.5;"/>
   </g>
   <g id="line2d_12">
    <path clip-path="url(#p6b9a5475be)" d="M 257.868493 293.76 
L 257.868493 289.927604 
L 261.665043 289.927604 
L 261.665043 286.095208 
L 263.442704 286.095208 
L 263.442704 282.262812 
L 278.936964 282.262812 
L 278.936964 278.430416 
L 279.237586 278.430416 
L 279.237586 274.59802 
L 295.458253 274.59802 
L 295.458253 270.765624 
L 297.646016 270.765624 
L 297.646016 266.933228 
L 299.168904 266.933228 
L 299.168904 263.100832 
L 300.093591 263.100832 
L 300.093591 259.268436 
L 305.415089 259.268436 
L 305.415089 255.43604 
L 312.796626 255.43604 
L 312.796626 251.603644 
L 315.038994 251.603644 
L 315.038994 247.771248 
L 316.67694 247.771248 
L 316.67694 243.938851 
L 318.727392 243.938851 
L 318.727392 240.106455 
L 318.844965 240.106455 
L 318.844965 236.274059 
L 319.079137 236.274059 
L 319.079137 232.441663 
L 321.130293 232.441663 
L 321.130293 228.609267 
L 325.861037 228.609267 
L 325.861037 224.776871 
L 334.874018 224.776871 
L 334.874018 220.944475 
L 344.146426 220.944475 
L 344.146426 217.112079 
L 353.747906 217.112079 
L 353.747906 213.279683 
L 358.647595 213.279683 
L 358.647595 209.447287 
L 362.7896 209.447287 
L 362.7896 205.614891 
L 365.601313 205.614891 
L 365.601313 201.782495 
L 378.981221 201.782495 
L 378.981221 197.950099 
L 384.793374 197.950099 
L 384.793374 194.117703 
L 391.364265 194.117703 
L 391.364265 190.285307 
L 392.118231 190.285307 
L 392.118231 186.452911 
L 405.434493 186.452911 
L 405.434493 182.620515 
L 405.97642 182.620515 
L 405.97642 178.788119 
L 405.97642 178.788119 
L 405.97642 178.788119 
L 460.8 178.788119 
" style="fill:none;stroke:#f5deb3;stroke-linecap:square;stroke-width:1.5;"/>
   </g>
   <g id="line2d_13">
    <path clip-path="url(#p6b9a5475be)" d="M 326.844126 293.76 
L 326.844126 289.927604 
L 341.471018 289.927604 
L 341.471018 286.095208 
L 347.015871 286.095208 
L 347.015871 282.262812 
L 348.273543 282.262812 
L 348.273543 278.430416 
L 353.995776 278.430416 
L 353.995776 274.59802 
L 358.601764 274.59802 
L 358.601764 270.765624 
L 362.393186 270.765624 
L 362.393186 266.933228 
L 362.692579 266.933228 
L 362.692579 263.100832 
L 362.692579 263.100832 
L 362.692579 259.268436 
L 365.380525 259.268436 
L 365.380525 255.43604 
L 380.73786 255.43604 
L 380.73786 251.603644 
L 380.73786 251.603644 
L 380.73786 251.603644 
L 460.8 251.603644 
" style="fill:none;stroke:#f5deb3;stroke-linecap:square;stroke-width:1.5;"/>
   </g>
   <g id="line2d_14">
    <path clip-path="url(#p6b9a5475be)" d="M 219.45075 293.76 
L 219.45075 289.927604 
L 231.358672 289.927604 
L 231.358672 286.095208 
L 294.633779 286.095208 
L 294.633779 282.262812 
L 335.007754 282.262812 
L 335.007754 278.430416 
L 344.882246 278.430416 
L 344.882246 274.59802 
L 349.862974 274.59802 
L 349.862974 270.765624 
L 351.194968 270.765624 
L 351.194968 266.933228 
L 359.246458 266.933228 
L 359.246458 263.100832 
L 360.213832 263.100832 
L 360.213832 259.268436 
L 365.452082 259.268436 
L 365.452082 255.43604 
L 368.377404 255.43604 
L 368.377404 251.603644 
L 368.961684 251.603644 
L 368.961684 247.771248 
L 369.289425 247.771248 
L 369.289425 243.938851 
L 371.458777 243.938851 
L 371.458777 240.106455 
L 374.69278 240.106455 
L 374.69278 236.274059 
L 378.877252 236.274059 
L 378.877252 232.441663 
L 382.917555 232.441663 
L 382.917555 228.609267 
L 403.245099 228.609267 
L 403.245099 224.776871 
L 403.84448 224.776871 
L 403.84448 220.944475 
L 405.343493 220.944475 
L 405.343493 217.112079 
L 406.306685 217.112079 
L 406.306685 213.279683 
L 417.876643 213.279683 
L 417.876643 209.447287 
L 421.794703 209.447287 
L 421.794703 205.614891 
L 426.629981 205.614891 
L 426.629981 201.782495 
L 429.384947 201.782495 
L 429.384947 197.950099 
L 433.053435 197.950099 
L 433.053435 194.117703 
L 444.316587 194.117703 
L 444.316587 190.285307 
L 444.316587 190.285307 
L 444.316587 190.285307 
L 460.8 190.285307 
" style="fill:none;stroke:#f5deb3;stroke-linecap:square;stroke-width:1.5;"/>
   </g>
   <g id="line2d_15">
    <path clip-path="url(#p6b9a5475be)" style="fill:none;stroke:#f5deb3;stroke-linecap:square;stroke-width:1.5;"/>
   </g>
   <g id="line2d_16">
    <path clip-path="url(#p6b9a5475be)" d="M 333.151672 293.76 
L 333.151672 289.927604 
L 419.34291 289.927604 
L 419.34291 286.095208 
L 447.209604 286.095208 
L 447.209604 282.262812 
L 448.16529 282.262812 
L 448.16529 278.430416 
L 456.766862 278.430416 
L 456.766862 274.59802 
L 461.8 274.59802 
" style="fill:none;stroke:#f5deb3;stroke-linecap:square;stroke-width:1.5;"/>
   </g>
   <g id="line2d_17">
    <path clip-path="url(#p6b9a5475be)" d="M 343.244001 293.76 
L 343.244001 289.927604 
L 345.771437 289.927604 
L 345.771437 286.095208 
L 365.846719 286.095208 
L 365.846719 282.262812 
L 442.486421 282.262812 
L 442.486421 278.430416 
L 461.8 278.430416 
" style="fill:none;stroke:#f5deb3;stroke-linecap:square;stroke-width:1.5;"/>
   </g>
   <g id="line2d_18">
    <path clip-path="url(#p6b9a5475be)" d="M 230.260238 293.76 
L 230.260238 289.927604 
L 250.274302 289.927604 
L 250.274302 286.095208 
L 258.606796 286.095208 
L 258.606796 282.262812 
L 260.359064 282.262812 
L 260.359064 278.430416 
L 260.74738 278.430416 
L 260.74738 274.59802 
L 273.640799 274.59802 
L 273.640799 270.765624 
L 281.56859 270.765624 
L 281.56859 266.933228 
L 283.09973 266.933228 
L 283.09973 263.100832 
L 286.174928 263.100832 
L 286.174928 259.268436 
L 290.481778 259.268436 
L 290.481778 255.43604 
L 299.633775 255.43604 
L 299.633775 251.603644 
L 300.578612 251.603644 
L 300.578612 247.771248 
L 302.378343 247.771248 
L 302.378343 243.938851 
L 303.009081 243.938851 
L 303.009081 240.106455 
L 315.380195 240.106455 
L 315.380195 236.274059 
L 317.249781 236.274059 
L 317.249781 232.441663 
L 317.694489 232.441663 
L 317.694489 228.609267 
L 318.214094 228.609267 
L 318.214094 224.776871 
L 319.273293 224.776871 
L 319.273293 220.944475 
L 331.631864 220.944475 
L 331.631864 217.112079 
L 332.405696 217.112079 
L 332.405696 213.279683 
L 338.516643 213.279683 
L 338.516643 209.447287 
L 341.699599 209.447287 
L 341.699599 205.614891 
L 348.758605 205.614891 
L 348.758605 201.782495 
L 359.643525 201.782495 
L 359.643525 197.950099 
L 363.680036 197.950099 
L 363.680036 194.117703 
L 367.152848 194.117703 
L 367.152848 190.285307 
L 372.024521 190.285307 
L 372.024521 186.452911 
L 389.277986 186.452911 
L 389.277986 182.620515 
L 396.037473 182.620515 
L 396.037473 178.788119 
L 396.037473 178.788119 
L 396.037473 178.788119 
L 460.8 178.788119 
" style="fill:none;stroke:#f5deb3;stroke-linecap:square;stroke-width:1.5;"/>
   </g>
   <g id="line2d_19">
    <path clip-path="url(#p6b9a5475be)" d="M 385.190556 293.76 
L 385.190556 289.553712 
L 389.047961 289.553712 
L 389.047961 285.347423 
L 392.739837 285.347423 
L 392.739837 281.141135 
L 397.317122 281.141135 
L 397.317122 276.934847 
L 398.437201 276.934847 
L 398.437201 272.728558 
L 398.787323 272.728558 
L 398.787323 268.52227 
L 402.233213 268.52227 
L 402.233213 264.315982 
L 402.393603 264.315982 
L 402.393603 260.109693 
L 403.175902 260.109693 
L 403.175902 255.903405 
L 404.91366 255.903405 
L 404.91366 251.697117 
L 407.100606 251.697117 
L 407.100606 247.490828 
L 407.846518 247.490828 
L 407.846518 243.28454 
L 408.029771 243.28454 
L 408.029771 239.078252 
L 408.483284 239.078252 
L 408.483284 234.871963 
L 410.727454 234.871963 
L 410.727454 230.665675 
L 418.090586 230.665675 
L 418.090586 226.459387 
L 419.704822 226.459387 
L 419.704822 222.253098 
L 425.705209 222.253098 
L 425.705209 218.04681 
L 430.012301 218.04681 
L 430.012301 213.840522 
L 431.358927 213.840522 
L 431.358927 209.634233 
L 432.166386 209.634233 
L 432.166386 205.427945 
L 432.564406 205.427945 
L 432.567064 197.015368 
L 435.44948 197.015368 
L 435.530113 188.602792 
L 437.057556 188.602792 
L 437.057556 184.396503 
L 440.303087 184.396503 
L 440.303087 180.190215 
L 443.624302 180.190215 
L 443.624302 175.983927 
L 445.005646 175.983927 
L 445.005646 171.777638 
L 445.184555 171.777638 
L 445.184555 167.57135 
L 455.385468 167.57135 
L 455.385468 163.365062 
L 457.178128 163.365062 
L 457.212282 154.952485 
L 458.606608 154.952485 
L 458.606608 150.746197 
L 460.211613 150.746197 
L 460.211613 146.539908 
L 461.8 146.539908 
L 461.8 146.539908 
" style="fill:none;stroke:#f5deb3;stroke-linecap:square;stroke-width:1.5;"/>
   </g>
   <g id="line2d_20">
    <path clip-path="url(#p6b9a5475be)" d="M 225.199948 293.76 
L 225.199948 289.927604 
L 225.199948 289.927604 
L 225.199948 286.095208 
L 229.619509 286.095208 
L 229.619509 282.262812 
L 231.973771 282.262812 
L 231.973771 278.430416 
L 245.895845 278.430416 
L 245.895845 274.59802 
L 265.218251 274.59802 
L 265.218251 270.765624 
L 270.075151 270.765624 
L 270.075151 266.933228 
L 277.505092 266.933228 
L 277.505092 263.100832 
L 286.638471 263.100832 
L 286.638471 259.268436 
L 297.06049 259.268436 
L 297.06049 255.43604 
L 298.477715 255.43604 
L 298.477715 251.603644 
L 300.668937 251.603644 
L 300.668937 247.771248 
L 302.378343 247.771248 
L 302.378343 243.938851 
L 306.002422 243.938851 
L 306.002422 240.106455 
L 306.108339 240.106455 
L 306.108339 236.274059 
L 313.245779 236.274059 
L 313.245779 232.441663 
L 316.615101 232.441663 
L 316.615101 228.609267 
L 317.37153 228.609267 
L 317.37153 224.776871 
L 318.134569 224.776871 
L 318.134569 220.944475 
L 319.21514 220.944475 
L 319.21514 217.112079 
L 322.605899 217.112079 
L 322.605899 213.279683 
L 326.567897 213.279683 
L 326.567897 209.447287 
L 333.235299 209.447287 
L 333.235299 205.614891 
L 333.249221 205.614891 
L 333.249221 201.782495 
L 334.967678 201.782495 
L 334.967678 197.950099 
L 346.662592 197.950099 
L 346.662592 194.117703 
L 347.881446 194.117703 
L 347.881446 190.285307 
L 349.504365 190.285307 
L 349.504365 186.452911 
L 370.356188 186.452911 
L 370.356188 182.620515 
L 372.174486 182.620515 
L 372.174486 178.788119 
L 461.8 178.788119 
" style="fill:none;stroke:#f5deb3;stroke-linecap:square;stroke-width:1.5;"/>
   </g>
   <g id="line2d_21">
    <path clip-path="url(#p6b9a5475be)" d="M 409.609961 293.76 
L 409.609961 289.927604 
L 431.767293 289.927604 
L 431.767293 286.095208 
L 439.200604 286.095208 
L 439.200604 282.262812 
L 439.200604 282.262812 
L 439.200604 282.262812 
L 460.8 282.262812 
" style="fill:none;stroke:#f5deb3;stroke-linecap:square;stroke-width:1.5;"/>
   </g>
   <g id="line2d_22">
    <path clip-path="url(#p6b9a5475be)" d="M 209.550193 293.76 
L 209.550193 289.927604 
L 216.031733 289.927604 
L 216.031733 286.095208 
L 224.477071 286.095208 
L 224.477071 282.262812 
L 225.556805 282.262812 
L 225.556805 278.430416 
L 231.973771 278.430416 
L 231.973771 274.59802 
L 235.48754 274.59802 
L 235.48754 270.765624 
L 288.64376 270.765624 
L 288.64376 266.933228 
L 315.209939 266.933228 
L 315.209939 263.100832 
L 317.37153 263.100832 
L 317.37153 259.268436 
L 321.370615 259.268436 
L 321.370615 255.43604 
L 323.893042 255.43604 
L 323.893042 251.603644 
L 331.848242 251.603644 
L 331.848242 247.771248 
L 335.472527 247.771248 
L 335.472527 243.938851 
L 343.648667 243.938851 
L 343.648667 240.106455 
L 348.293052 240.106455 
L 348.293052 236.274059 
L 353.26511 236.274059 
L 353.26511 232.441663 
L 374.193576 232.441663 
L 374.193576 228.609267 
L 374.807549 228.609267 
L 374.807549 224.776871 
L 378.32478 224.776871 
L 378.32478 220.944475 
L 379.706579 220.944475 
L 379.706579 217.112079 
L 383.072092 217.112079 
L 383.072092 213.279683 
L 392.920138 213.279683 
L 392.920138 209.447287 
L 403.610492 209.447287 
L 403.610492 205.614891 
L 410.47718 205.614891 
L 410.47718 201.782495 
L 411.37088 201.782495 
L 411.37088 197.950099 
L 412.157866 197.950099 
L 412.157866 194.117703 
L 426.799433 194.117703 
L 426.799433 190.285307 
L 437.892002 190.285307 
L 437.892002 186.452911 
L 444.884627 186.452911 
L 444.884627 182.620515 
L 455.593417 182.620515 
L 455.593417 178.788119 
L 458.955601 178.788119 
L 458.955601 174.955723 
L 461.8 174.955723 
" style="fill:none;stroke:#f5deb3;stroke-linecap:square;stroke-width:1.5;"/>
   </g>
   <g id="line2d_23">
    <path clip-path="url(#p6b9a5475be)" d="M 335.643865 293.76 
L 335.643865 289.927604 
L 342.276947 289.927604 
L 342.276947 286.095208 
L 345.313485 286.095208 
L 345.313485 282.262812 
L 346.132209 282.262812 
L 346.132209 278.430416 
L 347.684026 278.430416 
L 347.684026 274.59802 
L 350.783209 274.59802 
L 350.783209 270.765624 
L 366.707219 270.765624 
L 366.707219 266.933228 
L 370.793806 266.933228 
L 370.793806 263.100832 
L 371.028022 263.100832 
L 371.028022 259.268436 
L 372.758148 259.268436 
L 372.758148 255.43604 
L 380.583626 255.43604 
L 380.583626 251.603644 
L 383.557767 251.603644 
L 383.557767 247.771248 
L 390.221971 247.771248 
L 390.221971 243.938851 
L 396.908249 243.938851 
L 396.908249 240.106455 
L 399.661729 240.106455 
L 399.661729 236.274059 
L 404.880414 236.274059 
L 404.880414 232.441663 
L 418.932023 232.441663 
L 418.932023 228.609267 
L 418.970542 228.609267 
L 418.970542 224.776871 
L 421.870093 224.776871 
L 421.870093 220.944475 
L 426.995514 220.944475 
L 426.995514 217.112079 
L 444.617559 217.112079 
L 444.617559 213.279683 
L 444.617559 213.279683 
L 444.617559 213.279683 
L 460.8 213.279683 
" style="fill:none;stroke:#f5deb3;stroke-linecap:square;stroke-width:1.5;"/>
   </g>
   <g id="line2d_24">
    <path clip-path="url(#p6b9a5475be)" d="M 290.634578 293.76 
L 290.634578 289.927604 
L 292.059285 289.927604 
L 292.059285 286.095208 
L 298.793293 286.095208 
L 298.793293 282.262812 
L 299.940874 282.262812 
L 299.940874 278.430416 
L 306.371976 278.430416 
L 306.371976 274.59802 
L 307.333388 274.59802 
L 307.333388 270.765624 
L 316.984784 270.765624 
L 316.984784 266.933228 
L 342.265702 266.933228 
L 342.265702 263.100832 
L 370.158936 263.100832 
L 370.158936 259.268436 
L 371.13044 259.268436 
L 371.13044 255.43604 
L 372.571812 255.43604 
L 372.571812 251.603644 
L 374.002854 251.603644 
L 374.002854 247.771248 
L 375.913062 247.771248 
L 375.913062 243.938851 
L 376.811918 243.938851 
L 376.811918 240.106455 
L 377.054678 240.106455 
L 377.054678 236.274059 
L 379.845545 236.274059 
L 379.845545 232.441663 
L 389.159419 232.441663 
L 389.159419 228.609267 
L 389.924223 228.609267 
L 389.924223 224.776871 
L 391.092206 224.776871 
L 391.092206 220.944475 
L 401.213262 220.944475 
L 401.213262 217.112079 
L 407.020422 217.112079 
L 407.020422 213.279683 
L 408.200409 213.279683 
L 408.200409 209.447287 
L 409.557312 209.447287 
L 409.557312 205.614891 
L 409.744718 205.614891 
L 409.744718 201.782495 
L 412.451924 201.782495 
L 412.451924 197.950099 
L 419.319279 197.950099 
L 419.319279 194.117703 
L 421.129237 194.117703 
L 421.129237 190.285307 
L 421.806706 190.285307 
L 421.806706 186.452911 
L 428.042472 186.452911 
L 428.042472 182.620515 
L 431.964614 182.620515 
L 431.964614 178.788119 
L 433.825595 178.788119 
L 433.825595 174.955723 
L 438.449702 174.955723 
L 438.449702 171.123327 
L 440.136702 171.123327 
L 440.136702 167.290931 
L 444.880653 167.290931 
L 444.880653 163.458535 
L 451.388057 163.458535 
L 451.388057 159.626139 
L 452.922053 159.626139 
L 452.922053 155.793743 
L 458.537613 155.793743 
L 458.537613 151.961347 
L 461.8 151.961347 
" style="fill:none;stroke:#f5deb3;stroke-linecap:square;stroke-width:1.5;"/>
   </g>
   <g id="line2d_25">
    <path clip-path="url(#p6b9a5475be)" d="M 430.502264 293.76 
L 430.502264 289.927604 
L 433.383295 289.927604 
L 433.383295 286.095208 
L 437.626295 286.095208 
L 437.626295 282.262812 
L 438.733286 282.262812 
L 438.733286 278.430416 
L 438.767739 278.430416 
L 438.767739 274.59802 
L 439.668434 274.59802 
L 439.668434 270.765624 
L 439.838907 270.765624 
L 439.838907 266.933228 
L 440.489767 266.933228 
L 440.489767 263.100832 
L 441.687252 263.100832 
L 441.687252 259.268436 
L 442.947542 259.268436 
L 442.947542 255.43604 
L 443.431457 255.43604 
L 443.431457 251.603644 
L 443.497205 251.603644 
L 443.497205 247.771248 
L 443.557727 247.771248 
L 443.557727 243.938851 
L 443.628396 243.938851 
L 443.628396 240.106455 
L 444.040829 240.106455 
L 444.040829 236.274059 
L 444.607561 236.274059 
L 444.607561 232.441663 
L 444.88264 232.441663 
L 444.88264 228.609267 
L 445.544032 228.609267 
L 445.544032 224.776871 
L 446.705462 224.776871 
L 446.705462 220.944475 
L 447.132434 220.944475 
L 447.132434 217.112079 
L 448.43925 217.112079 
L 448.43925 213.279683 
L 448.545971 213.279683 
L 448.545971 209.447287 
L 450.54236 209.447287 
L 450.54236 205.614891 
L 450.755591 205.614891 
L 450.755591 201.782495 
L 461.8 201.782495 
" style="fill:none;stroke:#f5deb3;stroke-linecap:square;stroke-width:1.5;"/>
   </g>
   <g id="line2d_26">
    <path clip-path="url(#p6b9a5475be)" d="M 307.281975 293.76 
L 307.281975 289.927604 
L 308.822621 289.927604 
L 308.822621 286.095208 
L 309.193023 286.095208 
L 309.193023 282.262812 
L 309.681899 282.262812 
L 309.681899 278.430416 
L 309.875878 278.430416 
L 309.875878 274.59802 
L 310.974311 274.59802 
L 310.974311 270.765624 
L 311.768243 270.765624 
L 311.768243 266.933228 
L 312.044933 266.933228 
L 312.044933 263.100832 
L 315.443864 263.100832 
L 315.443864 259.268436 
L 325.478043 259.268436 
L 325.478043 255.43604 
L 326.453629 255.43604 
L 326.453629 251.603644 
L 327.646262 251.603644 
L 327.646262 247.771248 
L 328.088899 247.771248 
L 328.088899 243.938851 
L 331.239572 243.938851 
L 331.239572 240.106455 
L 339.596481 240.106455 
L 339.596481 236.274059 
L 340.379822 236.274059 
L 340.379822 232.441663 
L 340.403334 232.441663 
L 340.403334 228.609267 
L 340.998529 228.609267 
L 340.998529 224.776871 
L 342.835425 224.776871 
L 342.835425 220.944475 
L 343.111922 220.944475 
L 343.111922 217.112079 
L 344.092604 217.112079 
L 344.092604 213.279683 
L 355.952522 213.279683 
L 355.952522 209.447287 
L 358.822825 209.447287 
L 358.822825 205.614891 
L 358.929131 205.614891 
L 358.929131 201.782495 
L 359.933343 201.782495 
L 359.933343 197.950099 
L 361.610392 197.950099 
L 361.610392 194.117703 
L 367.327306 194.117703 
L 367.327306 190.285307 
L 367.544371 190.285307 
L 367.544371 186.452911 
L 371.056496 186.452911 
L 371.056496 182.620515 
L 372.141206 182.620515 
L 372.141206 178.788119 
L 382.732226 178.788119 
L 382.732226 174.955723 
L 384.0086 174.955723 
L 384.0086 171.123327 
L 388.225291 171.123327 
L 388.225291 167.290931 
L 391.145342 167.290931 
L 391.145342 163.458535 
L 411.302801 163.458535 
L 411.302801 159.626139 
L 413.664282 159.626139 
L 413.664282 155.793743 
L 441.796394 155.793743 
L 441.796394 151.961347 
L 442.178308 151.961347 
L 442.178308 148.12895 
L 458.984791 148.12895 
L 458.984791 144.296554 
L 461.8 144.296554 
" style="fill:none;stroke:#f5deb3;stroke-linecap:square;stroke-width:1.5;"/>
   </g>
   <g id="line2d_27">
    <path clip-path="url(#p6b9a5475be)" d="M 248.966861 293.76 
L 248.966861 289.927604 
L 258.930839 289.927604 
L 258.930839 286.095208 
L 296.994928 286.095208 
L 296.994928 282.262812 
L 311.021428 282.262812 
L 311.021428 278.430416 
L 337.370643 278.430416 
L 337.370643 274.59802 
L 354.114919 274.59802 
L 354.114919 270.765624 
L 359.747791 270.765624 
L 359.747791 266.933228 
L 360.805579 266.933228 
L 360.805579 263.100832 
L 361.245813 263.100832 
L 361.245813 259.268436 
L 370.419809 259.268436 
L 370.419809 255.43604 
L 373.301484 255.43604 
L 373.301484 251.603644 
L 373.31228 251.603644 
L 373.31228 247.771248 
L 376.512749 247.771248 
L 376.512749 243.938851 
L 379.91024 243.938851 
L 379.91024 240.106455 
L 382.628432 240.106455 
L 382.628432 236.274059 
L 385.604226 236.274059 
L 385.604226 232.441663 
L 385.729152 232.441663 
L 385.729152 228.609267 
L 387.409507 228.609267 
L 387.409507 224.776871 
L 391.198411 224.776871 
L 391.198411 220.944475 
L 395.949085 220.944475 
L 395.949085 217.112079 
L 401.521838 217.112079 
L 401.521838 213.279683 
L 405.252296 213.279683 
L 405.252296 209.447287 
L 405.683739 209.447287 
L 405.683739 205.614891 
L 418.821775 205.614891 
L 418.821775 201.782495 
L 419.301091 201.782495 
L 419.301091 197.950099 
L 420.55568 197.950099 
L 420.55568 194.117703 
L 423.553184 194.117703 
L 423.553184 190.285307 
L 426.194858 190.285307 
L 426.194858 186.452911 
L 427.359418 186.452911 
L 427.359418 182.620515 
L 432.675926 182.620515 
L 432.675926 178.788119 
L 461.8 178.788119 
" style="fill:none;stroke:#f5deb3;stroke-linecap:square;stroke-width:1.5;"/>
   </g>
   <g id="line2d_28">
    <path clip-path="url(#p6b9a5475be)" d="M 266.248862 293.76 
L 266.248862 289.927604 
L 266.922241 289.927604 
L 266.922241 286.095208 
L 275.752825 286.095208 
L 275.752825 282.262812 
L 285.834586 282.262812 
L 285.834586 278.430416 
L 306.266718 278.430416 
L 306.266718 274.59802 
L 331.761823 274.59802 
L 331.761823 270.765624 
L 346.945451 270.765624 
L 346.945451 266.933228 
L 371.588277 266.933228 
L 371.588277 263.100832 
L 374.066523 263.100832 
L 374.066523 259.268436 
L 376.236639 259.268436 
L 376.236639 255.43604 
L 376.271881 255.43604 
L 376.271881 251.603644 
L 378.219181 251.603644 
L 378.219181 247.771248 
L 378.620964 247.771248 
L 378.620964 243.938851 
L 381.309046 243.938851 
L 381.309046 240.106455 
L 386.727281 240.106455 
L 386.727281 236.274059 
L 388.202525 236.274059 
L 388.202525 232.441663 
L 406.61475 232.441663 
L 406.61475 228.609267 
L 407.887045 228.609267 
L 407.887045 224.776871 
L 408.523205 224.776871 
L 408.523205 220.944475 
L 408.883139 220.944475 
L 408.883139 217.112079 
L 409.603098 217.112079 
L 409.603098 213.279683 
L 410.734138 213.279683 
L 410.734138 209.447287 
L 411.874761 209.447287 
L 411.874761 205.614891 
L 412.411264 205.614891 
L 412.411264 201.782495 
L 413.105646 201.782495 
L 413.105646 197.950099 
L 418.092457 197.950099 
L 418.092457 194.117703 
L 418.185947 194.117703 
L 418.185947 190.285307 
L 422.846499 190.285307 
L 422.846499 186.452911 
L 424.011321 186.452911 
L 424.011321 182.620515 
L 424.160775 182.620515 
L 424.160775 178.788119 
L 427.949167 178.788119 
L 427.949167 174.955723 
L 428.252028 174.955723 
L 428.252028 171.123327 
L 441.577827 171.123327 
L 441.577827 167.290931 
L 445.927624 167.290931 
L 445.927624 163.458535 
L 449.612835 163.458535 
L 449.612835 159.626139 
L 451.642821 159.626139 
L 451.642821 155.793743 
L 452.450395 155.793743 
L 452.450395 151.961347 
L 455.245747 151.961347 
L 455.245747 148.12895 
L 461.8 148.12895 
" style="fill:none;stroke:#f5deb3;stroke-linecap:square;stroke-width:1.5;"/>
   </g>
   <g id="line2d_29">
    <path clip-path="url(#p6b9a5475be)" d="M 261.966558 293.76 
L 261.966558 289.927604 
L 261.966558 289.927604 
L 261.966558 286.095208 
L 261.966558 286.095208 
L 261.966558 282.262812 
L 291.614542 282.262812 
L 291.614542 278.430416 
L 291.614542 278.430416 
L 291.614542 274.59802 
L 291.614542 274.59802 
L 291.614542 270.765624 
L 297.839403 270.765624 
L 297.839403 266.933228 
L 297.839403 266.933228 
L 297.839403 263.100832 
L 297.839403 263.100832 
L 297.839403 259.268436 
L 334.927563 259.268436 
L 334.927563 255.43604 
L 334.927563 255.43604 
L 334.927563 251.603644 
L 334.927563 251.603644 
L 334.927563 247.771248 
L 375.165501 247.771248 
L 375.165501 243.938851 
L 375.165501 243.938851 
L 375.165501 240.106455 
L 375.165501 240.106455 
L 375.165501 236.274059 
L 391.251414 236.274059 
L 391.251414 232.441663 
L 391.251414 232.441663 
L 391.251414 228.609267 
L 391.251414 228.609267 
L 391.251414 224.776871 
L 399.667518 224.776871 
L 399.667518 220.944475 
L 399.667518 220.944475 
L 399.667518 217.112079 
L 399.667518 217.112079 
L 399.667518 213.279683 
L 402.355599 213.279683 
L 402.355599 209.447287 
L 403.245099 209.447287 
L 403.245099 205.614891 
L 414.770016 205.614891 
L 414.770016 201.782495 
L 415.924486 201.782495 
L 415.924486 197.950099 
L 416.199437 197.950099 
L 416.199437 194.117703 
L 424.983005 194.117703 
L 424.983005 190.285307 
L 428.129667 190.285307 
L 428.129667 186.452911 
L 432.155649 186.452911 
L 432.155649 182.620515 
L 447.958879 182.620515 
L 447.958879 178.788119 
L 447.958879 178.788119 
L 447.958879 178.788119 
L 460.8 178.788119 
" style="fill:none;stroke:#f5deb3;stroke-linecap:square;stroke-width:1.5;"/>
   </g>
   <g id="line2d_30">
    <path clip-path="url(#p6b9a5475be)" d="M 365.833839 293.76 
L 365.833839 289.927604 
L 368.474338 289.927604 
L 368.474338 286.095208 
L 413.036086 286.095208 
L 413.036086 282.262812 
L 425.389777 282.262812 
L 425.389777 278.430416 
L 442.74531 278.430416 
L 442.74531 274.59802 
L 448.797565 274.59802 
L 448.797565 270.765624 
L 450.111767 270.765624 
L 450.111767 266.933228 
L 450.453631 266.933228 
L 450.453631 263.100832 
L 450.802255 263.100832 
L 450.802255 259.268436 
L 451.166869 259.268436 
L 451.166869 255.43604 
L 451.166869 255.43604 
L 451.166869 255.43604 
L 460.8 255.43604 
" style="fill:none;stroke:#f5deb3;stroke-linecap:square;stroke-width:1.5;"/>
   </g>
   <g id="matplotlib.axis_1">
    <g id="xtick_1">
     <g id="line2d_31">
      <path clip-path="url(#p6b9a5475be)" d="M 62.208 293.76 
L 62.208 3.456 
" style="fill:none;stroke:#b0b0b0;stroke-linecap:square;stroke-width:0.8;"/>
     </g>
     <g id="line2d_32">
      <defs>
       <path d="M 0 0 
L 0 3.5 
" id="m1d0e4d2991" style="stroke:#000000;stroke-width:0.8;"/>
      </defs>
      <g>
       <use style="stroke:#000000;stroke-width:0.8;" x="62.208" xlink:href="#m1d0e4d2991" y="293.76"/>
      </g>
     </g>
     <g id="text_1">
      <!-- 0 -->
      <defs>
       <path d="M 31.78125 66.40625 
Q 24.171875 66.40625 20.328125 58.90625 
Q 16.5 51.421875 16.5 36.375 
Q 16.5 21.390625 20.328125 13.890625 
Q 24.171875 6.390625 31.78125 6.390625 
Q 39.453125 6.390625 43.28125 13.890625 
Q 47.125 21.390625 47.125 36.375 
Q 47.125 51.421875 43.28125 58.90625 
Q 39.453125 66.40625 31.78125 66.40625 
z
M 31.78125 74.21875 
Q 44.046875 74.21875 50.515625 64.515625 
Q 56.984375 54.828125 56.984375 36.375 
Q 56.984375 17.96875 50.515625 8.265625 
Q 44.046875 -1.421875 31.78125 -1.421875 
Q 19.53125 -1.421875 13.0625 8.265625 
Q 6.59375 17.96875 6.59375 36.375 
Q 6.59375 54.828125 13.0625 64.515625 
Q 19.53125 74.21875 31.78125 74.21875 
z
" id="DejaVuSans-48"/>
      </defs>
      <g transform="translate(55.8455 315.956875)scale(0.2 -0.2)">
       <use xlink:href="#DejaVuSans-48"/>
      </g>
     </g>
    </g>
    <g id="xtick_2">
     <g id="line2d_33">
      <path clip-path="url(#p6b9a5475be)" d="M 256.948258 293.76 
L 256.948258 3.456 
" style="fill:none;stroke:#b0b0b0;stroke-linecap:square;stroke-width:0.8;"/>
     </g>
     <g id="line2d_34">
      <g>
       <use style="stroke:#000000;stroke-width:0.8;" x="256.948258" xlink:href="#m1d0e4d2991" y="293.76"/>
      </g>
     </g>
     <g id="text_2">
      <!-- 2 -->
      <defs>
       <path d="M 19.1875 8.296875 
L 53.609375 8.296875 
L 53.609375 0 
L 7.328125 0 
L 7.328125 8.296875 
Q 12.9375 14.109375 22.625 23.890625 
Q 32.328125 33.6875 34.8125 36.53125 
Q 39.546875 41.84375 41.421875 45.53125 
Q 43.3125 49.21875 43.3125 52.78125 
Q 43.3125 58.59375 39.234375 62.25 
Q 35.15625 65.921875 28.609375 65.921875 
Q 23.96875 65.921875 18.8125 64.3125 
Q 13.671875 62.703125 7.8125 59.421875 
L 7.8125 69.390625 
Q 13.765625 71.78125 18.9375 73 
Q 24.125 74.21875 28.421875 74.21875 
Q 39.75 74.21875 46.484375 68.546875 
Q 53.21875 62.890625 53.21875 53.421875 
Q 53.21875 48.921875 51.53125 44.890625 
Q 49.859375 40.875 45.40625 35.40625 
Q 44.1875 33.984375 37.640625 27.21875 
Q 31.109375 20.453125 19.1875 8.296875 
z
" id="DejaVuSans-50"/>
      </defs>
      <g transform="translate(250.585758 315.956875)scale(0.2 -0.2)">
       <use xlink:href="#DejaVuSans-50"/>
      </g>
     </g>
    </g>
    <g id="xtick_3">
     <g id="line2d_35">
      <path clip-path="url(#p6b9a5475be)" d="M 451.688516 293.76 
L 451.688516 3.456 
" style="fill:none;stroke:#b0b0b0;stroke-linecap:square;stroke-width:0.8;"/>
     </g>
     <g id="line2d_36">
      <g>
       <use style="stroke:#000000;stroke-width:0.8;" x="451.688516" xlink:href="#m1d0e4d2991" y="293.76"/>
      </g>
     </g>
     <g id="text_3">
      <!-- 4 -->
      <defs>
       <path d="M 37.796875 64.3125 
L 12.890625 25.390625 
L 37.796875 25.390625 
z
M 35.203125 72.90625 
L 47.609375 72.90625 
L 47.609375 25.390625 
L 58.015625 25.390625 
L 58.015625 17.1875 
L 47.609375 17.1875 
L 47.609375 0 
L 37.796875 0 
L 37.796875 17.1875 
L 4.890625 17.1875 
L 4.890625 26.703125 
z
" id="DejaVuSans-52"/>
      </defs>
      <g transform="translate(445.326016 315.956875)scale(0.2 -0.2)">
       <use xlink:href="#DejaVuSans-52"/>
      </g>
     </g>
    </g>
    <g id="xtick_4">
     <g id="line2d_37">
      <path clip-path="url(#p6b9a5475be)" d="M 91.51933 293.76 
L 91.51933 3.456 
" style="fill:none;stroke:#b0b0b0;stroke-linecap:square;stroke-width:0.8;"/>
     </g>
     <g id="line2d_38">
      <defs>
       <path d="M 0 0 
L 0 2 
" id="me95afcdf46" style="stroke:#000000;stroke-width:0.6;"/>
      </defs>
      <g>
       <use style="stroke:#000000;stroke-width:0.6;" x="91.51933" xlink:href="#me95afcdf46" y="293.76"/>
      </g>
     </g>
    </g>
    <g id="xtick_5">
     <g id="line2d_39">
      <path clip-path="url(#p6b9a5475be)" d="M 108.665358 293.76 
L 108.665358 3.456 
" style="fill:none;stroke:#b0b0b0;stroke-linecap:square;stroke-width:0.8;"/>
     </g>
     <g id="line2d_40">
      <g>
       <use style="stroke:#000000;stroke-width:0.6;" x="108.665358" xlink:href="#me95afcdf46" y="293.76"/>
      </g>
     </g>
    </g>
    <g id="xtick_6">
     <g id="line2d_41">
      <path clip-path="url(#p6b9a5475be)" d="M 120.830659 293.76 
L 120.830659 3.456 
" style="fill:none;stroke:#b0b0b0;stroke-linecap:square;stroke-width:0.8;"/>
     </g>
     <g id="line2d_42">
      <g>
       <use style="stroke:#000000;stroke-width:0.6;" x="120.830659" xlink:href="#me95afcdf46" y="293.76"/>
      </g>
     </g>
    </g>
    <g id="xtick_7">
     <g id="line2d_43">
      <path clip-path="url(#p6b9a5475be)" d="M 130.266799 293.76 
L 130.266799 3.456 
" style="fill:none;stroke:#b0b0b0;stroke-linecap:square;stroke-width:0.8;"/>
     </g>
     <g id="line2d_44">
      <g>
       <use style="stroke:#000000;stroke-width:0.6;" x="130.266799" xlink:href="#me95afcdf46" y="293.76"/>
      </g>
     </g>
    </g>
    <g id="xtick_8">
     <g id="line2d_45">
      <path clip-path="url(#p6b9a5475be)" d="M 137.976688 293.76 
L 137.976688 3.456 
" style="fill:none;stroke:#b0b0b0;stroke-linecap:square;stroke-width:0.8;"/>
     </g>
     <g id="line2d_46">
      <g>
       <use style="stroke:#000000;stroke-width:0.6;" x="137.976688" xlink:href="#me95afcdf46" y="293.76"/>
      </g>
     </g>
    </g>
    <g id="xtick_9">
     <g id="line2d_47">
      <path clip-path="url(#p6b9a5475be)" d="M 144.495305 293.76 
L 144.495305 3.456 
" style="fill:none;stroke:#b0b0b0;stroke-linecap:square;stroke-width:0.8;"/>
     </g>
     <g id="line2d_48">
      <g>
       <use style="stroke:#000000;stroke-width:0.6;" x="144.495305" xlink:href="#me95afcdf46" y="293.76"/>
      </g>
     </g>
    </g>
    <g id="xtick_10">
     <g id="line2d_49">
      <path clip-path="url(#p6b9a5475be)" d="M 150.141989 293.76 
L 150.141989 3.456 
" style="fill:none;stroke:#b0b0b0;stroke-linecap:square;stroke-width:0.8;"/>
     </g>
     <g id="line2d_50">
      <g>
       <use style="stroke:#000000;stroke-width:0.6;" x="150.141989" xlink:href="#me95afcdf46" y="293.76"/>
      </g>
     </g>
    </g>
    <g id="xtick_11">
     <g id="line2d_51">
      <path clip-path="url(#p6b9a5475be)" d="M 155.122716 293.76 
L 155.122716 3.456 
" style="fill:none;stroke:#b0b0b0;stroke-linecap:square;stroke-width:0.8;"/>
     </g>
     <g id="line2d_52">
      <g>
       <use style="stroke:#000000;stroke-width:0.6;" x="155.122716" xlink:href="#me95afcdf46" y="293.76"/>
      </g>
     </g>
    </g>
    <g id="xtick_12">
     <g id="line2d_53">
      <path clip-path="url(#p6b9a5475be)" d="M 188.889458 293.76 
L 188.889458 3.456 
" style="fill:none;stroke:#b0b0b0;stroke-linecap:square;stroke-width:0.8;"/>
     </g>
     <g id="line2d_54">
      <g>
       <use style="stroke:#000000;stroke-width:0.6;" x="188.889458" xlink:href="#me95afcdf46" y="293.76"/>
      </g>
     </g>
    </g>
    <g id="xtick_13">
     <g id="line2d_55">
      <path clip-path="url(#p6b9a5475be)" d="M 206.035487 293.76 
L 206.035487 3.456 
" style="fill:none;stroke:#b0b0b0;stroke-linecap:square;stroke-width:0.8;"/>
     </g>
     <g id="line2d_56">
      <g>
       <use style="stroke:#000000;stroke-width:0.6;" x="206.035487" xlink:href="#me95afcdf46" y="293.76"/>
      </g>
     </g>
    </g>
    <g id="xtick_14">
     <g id="line2d_57">
      <path clip-path="url(#p6b9a5475be)" d="M 218.200788 293.76 
L 218.200788 3.456 
" style="fill:none;stroke:#b0b0b0;stroke-linecap:square;stroke-width:0.8;"/>
     </g>
     <g id="line2d_58">
      <g>
       <use style="stroke:#000000;stroke-width:0.6;" x="218.200788" xlink:href="#me95afcdf46" y="293.76"/>
      </g>
     </g>
    </g>
    <g id="xtick_15">
     <g id="line2d_59">
      <path clip-path="url(#p6b9a5475be)" d="M 227.636928 293.76 
L 227.636928 3.456 
" style="fill:none;stroke:#b0b0b0;stroke-linecap:square;stroke-width:0.8;"/>
     </g>
     <g id="line2d_60">
      <g>
       <use style="stroke:#000000;stroke-width:0.6;" x="227.636928" xlink:href="#me95afcdf46" y="293.76"/>
      </g>
     </g>
    </g>
    <g id="xtick_16">
     <g id="line2d_61">
      <path clip-path="url(#p6b9a5475be)" d="M 235.346817 293.76 
L 235.346817 3.456 
" style="fill:none;stroke:#b0b0b0;stroke-linecap:square;stroke-width:0.8;"/>
     </g>
     <g id="line2d_62">
      <g>
       <use style="stroke:#000000;stroke-width:0.6;" x="235.346817" xlink:href="#me95afcdf46" y="293.76"/>
      </g>
     </g>
    </g>
    <g id="xtick_17">
     <g id="line2d_63">
      <path clip-path="url(#p6b9a5475be)" d="M 241.865434 293.76 
L 241.865434 3.456 
" style="fill:none;stroke:#b0b0b0;stroke-linecap:square;stroke-width:0.8;"/>
     </g>
     <g id="line2d_64">
      <g>
       <use style="stroke:#000000;stroke-width:0.6;" x="241.865434" xlink:href="#me95afcdf46" y="293.76"/>
      </g>
     </g>
    </g>
    <g id="xtick_18">
     <g id="line2d_65">
      <path clip-path="url(#p6b9a5475be)" d="M 247.512118 293.76 
L 247.512118 3.456 
" style="fill:none;stroke:#b0b0b0;stroke-linecap:square;stroke-width:0.8;"/>
     </g>
     <g id="line2d_66">
      <g>
       <use style="stroke:#000000;stroke-width:0.6;" x="247.512118" xlink:href="#me95afcdf46" y="293.76"/>
      </g>
     </g>
    </g>
    <g id="xtick_19">
     <g id="line2d_67">
      <path clip-path="url(#p6b9a5475be)" d="M 252.492845 293.76 
L 252.492845 3.456 
" style="fill:none;stroke:#b0b0b0;stroke-linecap:square;stroke-width:0.8;"/>
     </g>
     <g id="line2d_68">
      <g>
       <use style="stroke:#000000;stroke-width:0.6;" x="252.492845" xlink:href="#me95afcdf46" y="293.76"/>
      </g>
     </g>
    </g>
    <g id="xtick_20">
     <g id="line2d_69">
      <path clip-path="url(#p6b9a5475be)" d="M 286.259587 293.76 
L 286.259587 3.456 
" style="fill:none;stroke:#b0b0b0;stroke-linecap:square;stroke-width:0.8;"/>
     </g>
     <g id="line2d_70">
      <g>
       <use style="stroke:#000000;stroke-width:0.6;" x="286.259587" xlink:href="#me95afcdf46" y="293.76"/>
      </g>
     </g>
    </g>
    <g id="xtick_21">
     <g id="line2d_71">
      <path clip-path="url(#p6b9a5475be)" d="M 303.405616 293.76 
L 303.405616 3.456 
" style="fill:none;stroke:#b0b0b0;stroke-linecap:square;stroke-width:0.8;"/>
     </g>
     <g id="line2d_72">
      <g>
       <use style="stroke:#000000;stroke-width:0.6;" x="303.405616" xlink:href="#me95afcdf46" y="293.76"/>
      </g>
     </g>
    </g>
    <g id="xtick_22">
     <g id="line2d_73">
      <path clip-path="url(#p6b9a5475be)" d="M 315.570917 293.76 
L 315.570917 3.456 
" style="fill:none;stroke:#b0b0b0;stroke-linecap:square;stroke-width:0.8;"/>
     </g>
     <g id="line2d_74">
      <g>
       <use style="stroke:#000000;stroke-width:0.6;" x="315.570917" xlink:href="#me95afcdf46" y="293.76"/>
      </g>
     </g>
    </g>
    <g id="xtick_23">
     <g id="line2d_75">
      <path clip-path="url(#p6b9a5475be)" d="M 325.007057 293.76 
L 325.007057 3.456 
" style="fill:none;stroke:#b0b0b0;stroke-linecap:square;stroke-width:0.8;"/>
     </g>
     <g id="line2d_76">
      <g>
       <use style="stroke:#000000;stroke-width:0.6;" x="325.007057" xlink:href="#me95afcdf46" y="293.76"/>
      </g>
     </g>
    </g>
    <g id="xtick_24">
     <g id="line2d_77">
      <path clip-path="url(#p6b9a5475be)" d="M 332.716946 293.76 
L 332.716946 3.456 
" style="fill:none;stroke:#b0b0b0;stroke-linecap:square;stroke-width:0.8;"/>
     </g>
     <g id="line2d_78">
      <g>
       <use style="stroke:#000000;stroke-width:0.6;" x="332.716946" xlink:href="#me95afcdf46" y="293.76"/>
      </g>
     </g>
    </g>
    <g id="xtick_25">
     <g id="line2d_79">
      <path clip-path="url(#p6b9a5475be)" d="M 339.235563 293.76 
L 339.235563 3.456 
" style="fill:none;stroke:#b0b0b0;stroke-linecap:square;stroke-width:0.8;"/>
     </g>
     <g id="line2d_80">
      <g>
       <use style="stroke:#000000;stroke-width:0.6;" x="339.235563" xlink:href="#me95afcdf46" y="293.76"/>
      </g>
     </g>
    </g>
    <g id="xtick_26">
     <g id="line2d_81">
      <path clip-path="url(#p6b9a5475be)" d="M 344.882246 293.76 
L 344.882246 3.456 
" style="fill:none;stroke:#b0b0b0;stroke-linecap:square;stroke-width:0.8;"/>
     </g>
     <g id="line2d_82">
      <g>
       <use style="stroke:#000000;stroke-width:0.6;" x="344.882246" xlink:href="#me95afcdf46" y="293.76"/>
      </g>
     </g>
    </g>
    <g id="xtick_27">
     <g id="line2d_83">
      <path clip-path="url(#p6b9a5475be)" d="M 349.862974 293.76 
L 349.862974 3.456 
" style="fill:none;stroke:#b0b0b0;stroke-linecap:square;stroke-width:0.8;"/>
     </g>
     <g id="line2d_84">
      <g>
       <use style="stroke:#000000;stroke-width:0.6;" x="349.862974" xlink:href="#me95afcdf46" y="293.76"/>
      </g>
     </g>
    </g>
    <g id="xtick_28">
     <g id="line2d_85">
      <path clip-path="url(#p6b9a5475be)" d="M 383.629716 293.76 
L 383.629716 3.456 
" style="fill:none;stroke:#b0b0b0;stroke-linecap:square;stroke-width:0.8;"/>
     </g>
     <g id="line2d_86">
      <g>
       <use style="stroke:#000000;stroke-width:0.6;" x="383.629716" xlink:href="#me95afcdf46" y="293.76"/>
      </g>
     </g>
    </g>
    <g id="xtick_29">
     <g id="line2d_87">
      <path clip-path="url(#p6b9a5475be)" d="M 400.775745 293.76 
L 400.775745 3.456 
" style="fill:none;stroke:#b0b0b0;stroke-linecap:square;stroke-width:0.8;"/>
     </g>
     <g id="line2d_88">
      <g>
       <use style="stroke:#000000;stroke-width:0.6;" x="400.775745" xlink:href="#me95afcdf46" y="293.76"/>
      </g>
     </g>
    </g>
    <g id="xtick_30">
     <g id="line2d_89">
      <path clip-path="url(#p6b9a5475be)" d="M 412.941046 293.76 
L 412.941046 3.456 
" style="fill:none;stroke:#b0b0b0;stroke-linecap:square;stroke-width:0.8;"/>
     </g>
     <g id="line2d_90">
      <g>
       <use style="stroke:#000000;stroke-width:0.6;" x="412.941046" xlink:href="#me95afcdf46" y="293.76"/>
      </g>
     </g>
    </g>
    <g id="xtick_31">
     <g id="line2d_91">
      <path clip-path="url(#p6b9a5475be)" d="M 422.377186 293.76 
L 422.377186 3.456 
" style="fill:none;stroke:#b0b0b0;stroke-linecap:square;stroke-width:0.8;"/>
     </g>
     <g id="line2d_92">
      <g>
       <use style="stroke:#000000;stroke-width:0.6;" x="422.377186" xlink:href="#me95afcdf46" y="293.76"/>
      </g>
     </g>
    </g>
    <g id="xtick_32">
     <g id="line2d_93">
      <path clip-path="url(#p6b9a5475be)" d="M 430.087075 293.76 
L 430.087075 3.456 
" style="fill:none;stroke:#b0b0b0;stroke-linecap:square;stroke-width:0.8;"/>
     </g>
     <g id="line2d_94">
      <g>
       <use style="stroke:#000000;stroke-width:0.6;" x="430.087075" xlink:href="#me95afcdf46" y="293.76"/>
      </g>
     </g>
    </g>
    <g id="xtick_33">
     <g id="line2d_95">
      <path clip-path="url(#p6b9a5475be)" d="M 436.605692 293.76 
L 436.605692 3.456 
" style="fill:none;stroke:#b0b0b0;stroke-linecap:square;stroke-width:0.8;"/>
     </g>
     <g id="line2d_96">
      <g>
       <use style="stroke:#000000;stroke-width:0.6;" x="436.605692" xlink:href="#me95afcdf46" y="293.76"/>
      </g>
     </g>
    </g>
    <g id="xtick_34">
     <g id="line2d_97">
      <path clip-path="url(#p6b9a5475be)" d="M 442.252375 293.76 
L 442.252375 3.456 
" style="fill:none;stroke:#b0b0b0;stroke-linecap:square;stroke-width:0.8;"/>
     </g>
     <g id="line2d_98">
      <g>
       <use style="stroke:#000000;stroke-width:0.6;" x="442.252375" xlink:href="#me95afcdf46" y="293.76"/>
      </g>
     </g>
    </g>
    <g id="xtick_35">
     <g id="line2d_99">
      <path clip-path="url(#p6b9a5475be)" d="M 447.233103 293.76 
L 447.233103 3.456 
" style="fill:none;stroke:#b0b0b0;stroke-linecap:square;stroke-width:0.8;"/>
     </g>
     <g id="line2d_100">
      <g>
       <use style="stroke:#000000;stroke-width:0.6;" x="447.233103" xlink:href="#me95afcdf46" y="293.76"/>
      </g>
     </g>
    </g>
    <g id="text_4">
     <!-- log10 of FEvals / DIM -->
     <defs>
      <path d="M 9.421875 75.984375 
L 18.40625 75.984375 
L 18.40625 0 
L 9.421875 0 
z
" id="DejaVuSans-108"/>
      <path d="M 30.609375 48.390625 
Q 23.390625 48.390625 19.1875 42.75 
Q 14.984375 37.109375 14.984375 27.296875 
Q 14.984375 17.484375 19.15625 11.84375 
Q 23.34375 6.203125 30.609375 6.203125 
Q 37.796875 6.203125 41.984375 11.859375 
Q 46.1875 17.53125 46.1875 27.296875 
Q 46.1875 37.015625 41.984375 42.703125 
Q 37.796875 48.390625 30.609375 48.390625 
z
M 30.609375 56 
Q 42.328125 56 49.015625 48.375 
Q 55.71875 40.765625 55.71875 27.296875 
Q 55.71875 13.875 49.015625 6.21875 
Q 42.328125 -1.421875 30.609375 -1.421875 
Q 18.84375 -1.421875 12.171875 6.21875 
Q 5.515625 13.875 5.515625 27.296875 
Q 5.515625 40.765625 12.171875 48.375 
Q 18.84375 56 30.609375 56 
z
" id="DejaVuSans-111"/>
      <path d="M 45.40625 27.984375 
Q 45.40625 37.75 41.375 43.109375 
Q 37.359375 48.484375 30.078125 48.484375 
Q 22.859375 48.484375 18.828125 43.109375 
Q 14.796875 37.75 14.796875 27.984375 
Q 14.796875 18.265625 18.828125 12.890625 
Q 22.859375 7.515625 30.078125 7.515625 
Q 37.359375 7.515625 41.375 12.890625 
Q 45.40625 18.265625 45.40625 27.984375 
z
M 54.390625 6.78125 
Q 54.390625 -7.171875 48.1875 -13.984375 
Q 42 -20.796875 29.203125 -20.796875 
Q 24.46875 -20.796875 20.265625 -20.09375 
Q 16.0625 -19.390625 12.109375 -17.921875 
L 12.109375 -9.1875 
Q 16.0625 -11.328125 19.921875 -12.34375 
Q 23.78125 -13.375 27.78125 -13.375 
Q 36.625 -13.375 41.015625 -8.765625 
Q 45.40625 -4.15625 45.40625 5.171875 
L 45.40625 9.625 
Q 42.625 4.78125 38.28125 2.390625 
Q 33.9375 0 27.875 0 
Q 17.828125 0 11.671875 7.65625 
Q 5.515625 15.328125 5.515625 27.984375 
Q 5.515625 40.671875 11.671875 48.328125 
Q 17.828125 56 27.875 56 
Q 33.9375 56 38.28125 53.609375 
Q 42.625 51.21875 45.40625 46.390625 
L 45.40625 54.6875 
L 54.390625 54.6875 
z
" id="DejaVuSans-103"/>
      <path d="M 12.40625 8.296875 
L 28.515625 8.296875 
L 28.515625 63.921875 
L 10.984375 60.40625 
L 10.984375 69.390625 
L 28.421875 72.90625 
L 38.28125 72.90625 
L 38.28125 8.296875 
L 54.390625 8.296875 
L 54.390625 0 
L 12.40625 0 
z
" id="DejaVuSans-49"/>
      <path id="DejaVuSans-32"/>
      <path d="M 37.109375 75.984375 
L 37.109375 68.5 
L 28.515625 68.5 
Q 23.6875 68.5 21.796875 66.546875 
Q 19.921875 64.59375 19.921875 59.515625 
L 19.921875 54.6875 
L 34.71875 54.6875 
L 34.71875 47.703125 
L 19.921875 47.703125 
L 19.921875 0 
L 10.890625 0 
L 10.890625 47.703125 
L 2.296875 47.703125 
L 2.296875 54.6875 
L 10.890625 54.6875 
L 10.890625 58.5 
Q 10.890625 67.625 15.140625 71.796875 
Q 19.390625 75.984375 28.609375 75.984375 
z
" id="DejaVuSans-102"/>
      <path d="M 9.8125 72.90625 
L 51.703125 72.90625 
L 51.703125 64.59375 
L 19.671875 64.59375 
L 19.671875 43.109375 
L 48.578125 43.109375 
L 48.578125 34.8125 
L 19.671875 34.8125 
L 19.671875 0 
L 9.8125 0 
z
" id="DejaVuSans-70"/>
      <path d="M 9.8125 72.90625 
L 55.90625 72.90625 
L 55.90625 64.59375 
L 19.671875 64.59375 
L 19.671875 43.015625 
L 54.390625 43.015625 
L 54.390625 34.71875 
L 19.671875 34.71875 
L 19.671875 8.296875 
L 56.78125 8.296875 
L 56.78125 0 
L 9.8125 0 
z
" id="DejaVuSans-69"/>
      <path d="M 2.984375 54.6875 
L 12.5 54.6875 
L 29.59375 8.796875 
L 46.6875 54.6875 
L 56.203125 54.6875 
L 35.6875 0 
L 23.484375 0 
z
" id="DejaVuSans-118"/>
      <path d="M 34.28125 27.484375 
Q 23.390625 27.484375 19.1875 25 
Q 14.984375 22.515625 14.984375 16.5 
Q 14.984375 11.71875 18.140625 8.90625 
Q 21.296875 6.109375 26.703125 6.109375 
Q 34.1875 6.109375 38.703125 11.40625 
Q 43.21875 16.703125 43.21875 25.484375 
L 43.21875 27.484375 
z
M 52.203125 31.203125 
L 52.203125 0 
L 43.21875 0 
L 43.21875 8.296875 
Q 40.140625 3.328125 35.546875 0.953125 
Q 30.953125 -1.421875 24.3125 -1.421875 
Q 15.921875 -1.421875 10.953125 3.296875 
Q 6 8.015625 6 15.921875 
Q 6 25.140625 12.171875 29.828125 
Q 18.359375 34.515625 30.609375 34.515625 
L 43.21875 34.515625 
L 43.21875 35.40625 
Q 43.21875 41.609375 39.140625 45 
Q 35.0625 48.390625 27.6875 48.390625 
Q 23 48.390625 18.546875 47.265625 
Q 14.109375 46.140625 10.015625 43.890625 
L 10.015625 52.203125 
Q 14.9375 54.109375 19.578125 55.046875 
Q 24.21875 56 28.609375 56 
Q 40.484375 56 46.34375 49.84375 
Q 52.203125 43.703125 52.203125 31.203125 
z
" id="DejaVuSans-97"/>
      <path d="M 44.28125 53.078125 
L 44.28125 44.578125 
Q 40.484375 46.53125 36.375 47.5 
Q 32.28125 48.484375 27.875 48.484375 
Q 21.1875 48.484375 17.84375 46.4375 
Q 14.5 44.390625 14.5 40.28125 
Q 14.5 37.15625 16.890625 35.375 
Q 19.28125 33.59375 26.515625 31.984375 
L 29.59375 31.296875 
Q 39.15625 29.25 43.1875 25.515625 
Q 47.21875 21.78125 47.21875 15.09375 
Q 47.21875 7.46875 41.1875 3.015625 
Q 35.15625 -1.421875 24.609375 -1.421875 
Q 20.21875 -1.421875 15.453125 -0.5625 
Q 10.6875 0.296875 5.421875 2 
L 5.421875 11.28125 
Q 10.40625 8.6875 15.234375 7.390625 
Q 20.0625 6.109375 24.8125 6.109375 
Q 31.15625 6.109375 34.5625 8.28125 
Q 37.984375 10.453125 37.984375 14.40625 
Q 37.984375 18.0625 35.515625 20.015625 
Q 33.0625 21.96875 24.703125 23.78125 
L 21.578125 24.515625 
Q 13.234375 26.265625 9.515625 29.90625 
Q 5.8125 33.546875 5.8125 39.890625 
Q 5.8125 47.609375 11.28125 51.796875 
Q 16.75 56 26.8125 56 
Q 31.78125 56 36.171875 55.265625 
Q 40.578125 54.546875 44.28125 53.078125 
z
" id="DejaVuSans-115"/>
      <path d="M 25.390625 72.90625 
L 33.6875 72.90625 
L 8.296875 -9.28125 
L 0 -9.28125 
z
" id="DejaVuSans-47"/>
      <path d="M 19.671875 64.796875 
L 19.671875 8.109375 
L 31.59375 8.109375 
Q 46.6875 8.109375 53.6875 14.9375 
Q 60.6875 21.78125 60.6875 36.53125 
Q 60.6875 51.171875 53.6875 57.984375 
Q 46.6875 64.796875 31.59375 64.796875 
z
M 9.8125 72.90625 
L 30.078125 72.90625 
Q 51.265625 72.90625 61.171875 64.09375 
Q 71.09375 55.28125 71.09375 36.53125 
Q 71.09375 17.671875 61.125 8.828125 
Q 51.171875 0 30.078125 0 
L 9.8125 0 
z
" id="DejaVuSans-68"/>
      <path d="M 9.8125 72.90625 
L 19.671875 72.90625 
L 19.671875 0 
L 9.8125 0 
z
" id="DejaVuSans-73"/>
      <path d="M 9.8125 72.90625 
L 24.515625 72.90625 
L 43.109375 23.296875 
L 61.8125 72.90625 
L 76.515625 72.90625 
L 76.515625 0 
L 66.890625 0 
L 66.890625 64.015625 
L 48.09375 14.015625 
L 38.1875 14.015625 
L 19.390625 64.015625 
L 19.390625 0 
L 9.8125 0 
z
" id="DejaVuSans-77"/>
     </defs>
     <g transform="translate(156.430563 339.313125)scale(0.2 -0.2)">
      <use xlink:href="#DejaVuSans-108"/>
      <use x="27.783203" xlink:href="#DejaVuSans-111"/>
      <use x="88.964844" xlink:href="#DejaVuSans-103"/>
      <use x="152.441406" xlink:href="#DejaVuSans-49"/>
      <use x="216.064453" xlink:href="#DejaVuSans-48"/>
      <use x="279.6875" xlink:href="#DejaVuSans-32"/>
      <use x="311.474609" xlink:href="#DejaVuSans-111"/>
      <use x="372.65625" xlink:href="#DejaVuSans-102"/>
      <use x="407.861328" xlink:href="#DejaVuSans-32"/>
      <use x="439.648438" xlink:href="#DejaVuSans-70"/>
      <use x="497.167969" xlink:href="#DejaVuSans-69"/>
      <use x="560.351562" xlink:href="#DejaVuSans-118"/>
      <use x="619.53125" xlink:href="#DejaVuSans-97"/>
      <use x="680.810547" xlink:href="#DejaVuSans-108"/>
      <use x="708.59375" xlink:href="#DejaVuSans-115"/>
      <use x="760.693359" xlink:href="#DejaVuSans-32"/>
      <use x="792.480469" xlink:href="#DejaVuSans-47"/>
      <use x="826.171875" xlink:href="#DejaVuSans-32"/>
      <use x="857.958984" xlink:href="#DejaVuSans-68"/>
      <use x="934.960938" xlink:href="#DejaVuSans-73"/>
      <use x="964.453125" xlink:href="#DejaVuSans-77"/>
     </g>
    </g>
   </g>
   <g id="matplotlib.axis_2">
    <g id="ytick_1">
     <g id="line2d_101">
      <path clip-path="url(#p6b9a5475be)" d="M 62.208 293.76 
L 460.8 293.76 
" style="fill:none;stroke:#b0b0b0;stroke-linecap:square;stroke-width:0.8;"/>
     </g>
     <g id="line2d_102">
      <defs>
       <path d="M 0 0 
L -3.5 0 
" id="me9d25b4d11" style="stroke:#000000;stroke-width:0.8;"/>
      </defs>
      <g>
       <use style="stroke:#000000;stroke-width:0.8;" x="62.208" xlink:href="#me9d25b4d11" y="293.76"/>
      </g>
     </g>
     <g id="text_5">
      <!-- 0.0 -->
      <defs>
       <path d="M 10.6875 12.40625 
L 21 12.40625 
L 21 0 
L 10.6875 0 
z
" id="DejaVuSans-46"/>
      </defs>
      <g transform="translate(29.763 299.83875)scale(0.16 -0.16)">
       <use xlink:href="#DejaVuSans-48"/>
       <use x="63.623047" xlink:href="#DejaVuSans-46"/>
       <use x="95.410156" xlink:href="#DejaVuSans-48"/>
      </g>
     </g>
    </g>
    <g id="ytick_2">
     <g id="line2d_103">
      <path clip-path="url(#p6b9a5475be)" d="M 62.208 236.274059 
L 460.8 236.274059 
" style="fill:none;stroke:#b0b0b0;stroke-linecap:square;stroke-width:0.8;"/>
     </g>
     <g id="line2d_104">
      <g>
       <use style="stroke:#000000;stroke-width:0.8;" x="62.208" xlink:href="#me9d25b4d11" y="236.274059"/>
      </g>
     </g>
     <g id="text_6">
      <!-- 0.2 -->
      <g transform="translate(29.763 242.352809)scale(0.16 -0.16)">
       <use xlink:href="#DejaVuSans-48"/>
       <use x="63.623047" xlink:href="#DejaVuSans-46"/>
       <use x="95.410156" xlink:href="#DejaVuSans-50"/>
      </g>
     </g>
    </g>
    <g id="ytick_3">
     <g id="line2d_105">
      <path clip-path="url(#p6b9a5475be)" d="M 62.208 178.788119 
L 460.8 178.788119 
" style="fill:none;stroke:#b0b0b0;stroke-linecap:square;stroke-width:0.8;"/>
     </g>
     <g id="line2d_106">
      <g>
       <use style="stroke:#000000;stroke-width:0.8;" x="62.208" xlink:href="#me9d25b4d11" y="178.788119"/>
      </g>
     </g>
     <g id="text_7">
      <!-- 0.4 -->
      <g transform="translate(29.763 184.866869)scale(0.16 -0.16)">
       <use xlink:href="#DejaVuSans-48"/>
       <use x="63.623047" xlink:href="#DejaVuSans-46"/>
       <use x="95.410156" xlink:href="#DejaVuSans-52"/>
      </g>
     </g>
    </g>
    <g id="ytick_4">
     <g id="line2d_107">
      <path clip-path="url(#p6b9a5475be)" d="M 62.208 121.302178 
L 460.8 121.302178 
" style="fill:none;stroke:#b0b0b0;stroke-linecap:square;stroke-width:0.8;"/>
     </g>
     <g id="line2d_108">
      <g>
       <use style="stroke:#000000;stroke-width:0.8;" x="62.208" xlink:href="#me9d25b4d11" y="121.302178"/>
      </g>
     </g>
     <g id="text_8">
      <!-- 0.6 -->
      <defs>
       <path d="M 33.015625 40.375 
Q 26.375 40.375 22.484375 35.828125 
Q 18.609375 31.296875 18.609375 23.390625 
Q 18.609375 15.53125 22.484375 10.953125 
Q 26.375 6.390625 33.015625 6.390625 
Q 39.65625 6.390625 43.53125 10.953125 
Q 47.40625 15.53125 47.40625 23.390625 
Q 47.40625 31.296875 43.53125 35.828125 
Q 39.65625 40.375 33.015625 40.375 
z
M 52.59375 71.296875 
L 52.59375 62.3125 
Q 48.875 64.0625 45.09375 64.984375 
Q 41.3125 65.921875 37.59375 65.921875 
Q 27.828125 65.921875 22.671875 59.328125 
Q 17.53125 52.734375 16.796875 39.40625 
Q 19.671875 43.65625 24.015625 45.921875 
Q 28.375 48.1875 33.59375 48.1875 
Q 44.578125 48.1875 50.953125 41.515625 
Q 57.328125 34.859375 57.328125 23.390625 
Q 57.328125 12.15625 50.6875 5.359375 
Q 44.046875 -1.421875 33.015625 -1.421875 
Q 20.359375 -1.421875 13.671875 8.265625 
Q 6.984375 17.96875 6.984375 36.375 
Q 6.984375 53.65625 15.1875 63.9375 
Q 23.390625 74.21875 37.203125 74.21875 
Q 40.921875 74.21875 44.703125 73.484375 
Q 48.484375 72.75 52.59375 71.296875 
z
" id="DejaVuSans-54"/>
      </defs>
      <g transform="translate(29.763 127.380928)scale(0.16 -0.16)">
       <use xlink:href="#DejaVuSans-48"/>
       <use x="63.623047" xlink:href="#DejaVuSans-46"/>
       <use x="95.410156" xlink:href="#DejaVuSans-54"/>
      </g>
     </g>
    </g>
    <g id="ytick_5">
     <g id="line2d_109">
      <path clip-path="url(#p6b9a5475be)" d="M 62.208 63.816238 
L 460.8 63.816238 
" style="fill:none;stroke:#b0b0b0;stroke-linecap:square;stroke-width:0.8;"/>
     </g>
     <g id="line2d_110">
      <g>
       <use style="stroke:#000000;stroke-width:0.8;" x="62.208" xlink:href="#me9d25b4d11" y="63.816238"/>
      </g>
     </g>
     <g id="text_9">
      <!-- 0.8 -->
      <defs>
       <path d="M 31.78125 34.625 
Q 24.75 34.625 20.71875 30.859375 
Q 16.703125 27.09375 16.703125 20.515625 
Q 16.703125 13.921875 20.71875 10.15625 
Q 24.75 6.390625 31.78125 6.390625 
Q 38.8125 6.390625 42.859375 10.171875 
Q 46.921875 13.96875 46.921875 20.515625 
Q 46.921875 27.09375 42.890625 30.859375 
Q 38.875 34.625 31.78125 34.625 
z
M 21.921875 38.8125 
Q 15.578125 40.375 12.03125 44.71875 
Q 8.5 49.078125 8.5 55.328125 
Q 8.5 64.0625 14.71875 69.140625 
Q 20.953125 74.21875 31.78125 74.21875 
Q 42.671875 74.21875 48.875 69.140625 
Q 55.078125 64.0625 55.078125 55.328125 
Q 55.078125 49.078125 51.53125 44.71875 
Q 48 40.375 41.703125 38.8125 
Q 48.828125 37.15625 52.796875 32.3125 
Q 56.78125 27.484375 56.78125 20.515625 
Q 56.78125 9.90625 50.3125 4.234375 
Q 43.84375 -1.421875 31.78125 -1.421875 
Q 19.734375 -1.421875 13.25 4.234375 
Q 6.78125 9.90625 6.78125 20.515625 
Q 6.78125 27.484375 10.78125 32.3125 
Q 14.796875 37.15625 21.921875 38.8125 
z
M 18.3125 54.390625 
Q 18.3125 48.734375 21.84375 45.5625 
Q 25.390625 42.390625 31.78125 42.390625 
Q 38.140625 42.390625 41.71875 45.5625 
Q 45.3125 48.734375 45.3125 54.390625 
Q 45.3125 60.0625 41.71875 63.234375 
Q 38.140625 66.40625 31.78125 66.40625 
Q 25.390625 66.40625 21.84375 63.234375 
Q 18.3125 60.0625 18.3125 54.390625 
z
" id="DejaVuSans-56"/>
      </defs>
      <g transform="translate(29.763 69.894988)scale(0.16 -0.16)">
       <use xlink:href="#DejaVuSans-48"/>
       <use x="63.623047" xlink:href="#DejaVuSans-46"/>
       <use x="95.410156" xlink:href="#DejaVuSans-56"/>
      </g>
     </g>
    </g>
    <g id="ytick_6">
     <g id="line2d_111">
      <path clip-path="url(#p6b9a5475be)" d="M 62.208 6.330297 
L 460.8 6.330297 
" style="fill:none;stroke:#b0b0b0;stroke-linecap:square;stroke-width:0.8;"/>
     </g>
     <g id="line2d_112">
      <g>
       <use style="stroke:#000000;stroke-width:0.8;" x="62.208" xlink:href="#me9d25b4d11" y="6.330297"/>
      </g>
     </g>
     <g id="text_10">
      <!-- 1.0 -->
      <g transform="translate(29.763 12.409047)scale(0.16 -0.16)">
       <use xlink:href="#DejaVuSans-49"/>
       <use x="63.623047" xlink:href="#DejaVuSans-46"/>
       <use x="95.410156" xlink:href="#DejaVuSans-48"/>
      </g>
     </g>
    </g>
    <g id="text_11">
     <!-- proportion of trials -->
     <defs>
      <path d="M 18.109375 8.203125 
L 18.109375 -20.796875 
L 9.078125 -20.796875 
L 9.078125 54.6875 
L 18.109375 54.6875 
L 18.109375 46.390625 
Q 20.953125 51.265625 25.265625 53.625 
Q 29.59375 56 35.59375 56 
Q 45.5625 56 51.78125 48.09375 
Q 58.015625 40.1875 58.015625 27.296875 
Q 58.015625 14.40625 51.78125 6.484375 
Q 45.5625 -1.421875 35.59375 -1.421875 
Q 29.59375 -1.421875 25.265625 0.953125 
Q 20.953125 3.328125 18.109375 8.203125 
z
M 48.6875 27.296875 
Q 48.6875 37.203125 44.609375 42.84375 
Q 40.53125 48.484375 33.40625 48.484375 
Q 26.265625 48.484375 22.1875 42.84375 
Q 18.109375 37.203125 18.109375 27.296875 
Q 18.109375 17.390625 22.1875 11.75 
Q 26.265625 6.109375 33.40625 6.109375 
Q 40.53125 6.109375 44.609375 11.75 
Q 48.6875 17.390625 48.6875 27.296875 
z
" id="DejaVuSans-112"/>
      <path d="M 41.109375 46.296875 
Q 39.59375 47.171875 37.8125 47.578125 
Q 36.03125 48 33.890625 48 
Q 26.265625 48 22.1875 43.046875 
Q 18.109375 38.09375 18.109375 28.8125 
L 18.109375 0 
L 9.078125 0 
L 9.078125 54.6875 
L 18.109375 54.6875 
L 18.109375 46.1875 
Q 20.953125 51.171875 25.484375 53.578125 
Q 30.03125 56 36.53125 56 
Q 37.453125 56 38.578125 55.875 
Q 39.703125 55.765625 41.0625 55.515625 
z
" id="DejaVuSans-114"/>
      <path d="M 18.3125 70.21875 
L 18.3125 54.6875 
L 36.8125 54.6875 
L 36.8125 47.703125 
L 18.3125 47.703125 
L 18.3125 18.015625 
Q 18.3125 11.328125 20.140625 9.421875 
Q 21.96875 7.515625 27.59375 7.515625 
L 36.8125 7.515625 
L 36.8125 0 
L 27.59375 0 
Q 17.1875 0 13.234375 3.875 
Q 9.28125 7.765625 9.28125 18.015625 
L 9.28125 47.703125 
L 2.6875 47.703125 
L 2.6875 54.6875 
L 9.28125 54.6875 
L 9.28125 70.21875 
z
" id="DejaVuSans-116"/>
      <path d="M 9.421875 54.6875 
L 18.40625 54.6875 
L 18.40625 0 
L 9.421875 0 
z
M 9.421875 75.984375 
L 18.40625 75.984375 
L 18.40625 64.59375 
L 9.421875 64.59375 
z
" id="DejaVuSans-105"/>
      <path d="M 54.890625 33.015625 
L 54.890625 0 
L 45.90625 0 
L 45.90625 32.71875 
Q 45.90625 40.484375 42.875 44.328125 
Q 39.84375 48.1875 33.796875 48.1875 
Q 26.515625 48.1875 22.3125 43.546875 
Q 18.109375 38.921875 18.109375 30.90625 
L 18.109375 0 
L 9.078125 0 
L 9.078125 54.6875 
L 18.109375 54.6875 
L 18.109375 46.1875 
Q 21.34375 51.125 25.703125 53.5625 
Q 30.078125 56 35.796875 56 
Q 45.21875 56 50.046875 50.171875 
Q 54.890625 44.34375 54.890625 33.015625 
z
" id="DejaVuSans-110"/>
     </defs>
     <g transform="translate(21.603625 241.836125)rotate(-90)scale(0.2 -0.2)">
      <use xlink:href="#DejaVuSans-112"/>
      <use x="63.476562" xlink:href="#DejaVuSans-114"/>
      <use x="104.558594" xlink:href="#DejaVuSans-111"/>
      <use x="165.740234" xlink:href="#DejaVuSans-112"/>
      <use x="229.216797" xlink:href="#DejaVuSans-111"/>
      <use x="290.398438" xlink:href="#DejaVuSans-114"/>
      <use x="331.511719" xlink:href="#DejaVuSans-116"/>
      <use x="370.720703" xlink:href="#DejaVuSans-105"/>
      <use x="398.503906" xlink:href="#DejaVuSans-111"/>
      <use x="459.685547" xlink:href="#DejaVuSans-110"/>
      <use x="523.064453" xlink:href="#DejaVuSans-32"/>
      <use x="554.851562" xlink:href="#DejaVuSans-111"/>
      <use x="616.033203" xlink:href="#DejaVuSans-102"/>
      <use x="651.238281" xlink:href="#DejaVuSans-32"/>
      <use x="683.025391" xlink:href="#DejaVuSans-116"/>
      <use x="722.234375" xlink:href="#DejaVuSans-114"/>
      <use x="763.347656" xlink:href="#DejaVuSans-105"/>
      <use x="791.130859" xlink:href="#DejaVuSans-97"/>
      <use x="852.410156" xlink:href="#DejaVuSans-108"/>
      <use x="880.193359" xlink:href="#DejaVuSans-115"/>
     </g>
    </g>
   </g>
   <g id="line2d_113">
    <path clip-path="url(#p6b9a5475be)" d="M -1 274.59802 
L 23.46053 274.59802 
L 23.46053 270.765624 
L 40.606559 270.765624 
L 40.606559 266.933228 
L 40.606559 266.933228 
L 40.606559 263.100832 
L 52.77186 263.100832 
L 52.77186 259.268436 
L 62.208 259.268436 
L 62.208 255.43604 
L 62.208 255.43604 
L 62.208 251.603644 
L 76.436506 251.603644 
L 76.436506 247.771248 
L 76.436506 247.771248 
L 76.436506 243.938851 
L 91.51933 243.938851 
L 91.51933 240.106455 
L 91.51933 240.106455 
L 91.51933 236.274059 
L 91.51933 236.274059 
L 91.51933 232.441663 
L 130.266799 232.441663 
L 130.266799 228.609267 
L 131.925338 228.609267 
L 131.925338 224.776871 
L 131.925338 224.776871 
L 131.925338 224.776871 
L 460.8 224.776871 
" style="fill:none;stroke:#000000;stroke-linecap:square;stroke-width:1.5;"/>
   </g>
   <g id="line2d_114">
    <path clip-path="url(#p6b9a5475be)" style="fill:none;stroke:#000000;stroke-linecap:square;stroke-width:1.5;"/>
   </g>
   <g id="line2d_115"/>
   <g id="line2d_116"/>
   <g id="line2d_117"/>
   <g id="line2d_118">
    <path clip-path="url(#p6b9a5475be)" d="M 257.785658 293.76 
L 257.785658 3.456 
" style="fill:none;stroke:#000000;stroke-linecap:square;stroke-width:1.5;"/>
   </g>
   <g id="patch_3">
    <path d="M 62.208 293.76 
L 62.208 3.456 
" style="fill:none;stroke:#000000;stroke-linecap:square;stroke-linejoin:miter;stroke-width:0.8;"/>
   </g>
   <g id="patch_4">
    <path d="M 460.8 293.76 
L 460.8 3.456 
" style="fill:none;stroke:#000000;stroke-linecap:square;stroke-linejoin:miter;stroke-width:0.8;"/>
   </g>
   <g id="patch_5">
    <path d="M 62.208 293.76 
L 460.8 293.76 
" style="fill:none;stroke:#000000;stroke-linecap:square;stroke-linejoin:miter;stroke-width:0.8;"/>
   </g>
   <g id="patch_6">
    <path d="M 62.208 3.456 
L 460.8 3.456 
" style="fill:none;stroke:#000000;stroke-linecap:square;stroke-linejoin:miter;stroke-width:0.8;"/>
   </g>
   <g id="text_12">
    <!-- {f20-f24}, 5-D -->
    <defs>
     <path d="M 51.125 -9.28125 
L 51.125 -16.3125 
L 48.09375 -16.3125 
Q 35.9375 -16.3125 31.8125 -12.6875 
Q 27.6875 -9.078125 27.6875 1.703125 
L 27.6875 13.375 
Q 27.6875 20.75 25.046875 23.578125 
Q 22.40625 26.421875 15.484375 26.421875 
L 12.5 26.421875 
L 12.5 33.40625 
L 15.484375 33.40625 
Q 22.46875 33.40625 25.078125 36.203125 
Q 27.6875 39.015625 27.6875 46.296875 
L 27.6875 58.015625 
Q 27.6875 68.796875 31.8125 72.390625 
Q 35.9375 75.984375 48.09375 75.984375 
L 51.125 75.984375 
L 51.125 69 
L 47.796875 69 
Q 40.921875 69 38.8125 66.84375 
Q 36.71875 64.703125 36.71875 57.8125 
L 36.71875 45.703125 
Q 36.71875 38.03125 34.5 34.5625 
Q 32.28125 31.109375 26.90625 29.890625 
Q 32.328125 28.5625 34.515625 25.09375 
Q 36.71875 21.625 36.71875 14.015625 
L 36.71875 1.90625 
Q 36.71875 -4.984375 38.8125 -7.125 
Q 40.921875 -9.28125 47.796875 -9.28125 
z
" id="DejaVuSans-123"/>
     <path d="M 4.890625 31.390625 
L 31.203125 31.390625 
L 31.203125 23.390625 
L 4.890625 23.390625 
z
" id="DejaVuSans-45"/>
     <path d="M 12.5 -9.28125 
L 15.921875 -9.28125 
Q 22.75 -9.28125 24.828125 -7.171875 
Q 26.90625 -5.078125 26.90625 1.90625 
L 26.90625 14.015625 
Q 26.90625 21.625 29.09375 25.09375 
Q 31.296875 28.5625 36.71875 29.890625 
Q 31.296875 31.109375 29.09375 34.5625 
Q 26.90625 38.03125 26.90625 45.703125 
L 26.90625 57.8125 
Q 26.90625 64.75 24.828125 66.875 
Q 22.75 69 15.921875 69 
L 12.5 69 
L 12.5 75.984375 
L 15.578125 75.984375 
Q 27.734375 75.984375 31.8125 72.390625 
Q 35.890625 68.796875 35.890625 58.015625 
L 35.890625 46.296875 
Q 35.890625 39.015625 38.515625 36.203125 
Q 41.15625 33.40625 48.09375 33.40625 
L 51.125 33.40625 
L 51.125 26.421875 
L 48.09375 26.421875 
Q 41.15625 26.421875 38.515625 23.578125 
Q 35.890625 20.75 35.890625 13.375 
L 35.890625 1.703125 
Q 35.890625 -9.078125 31.8125 -12.6875 
Q 27.734375 -16.3125 15.578125 -16.3125 
L 12.5 -16.3125 
z
" id="DejaVuSans-125"/>
     <path d="M 11.71875 12.40625 
L 22.015625 12.40625 
L 22.015625 4 
L 14.015625 -11.625 
L 7.71875 -11.625 
L 11.71875 4 
z
" id="DejaVuSans-44"/>
     <path d="M 10.796875 72.90625 
L 49.515625 72.90625 
L 49.515625 64.59375 
L 19.828125 64.59375 
L 19.828125 46.734375 
Q 21.96875 47.46875 24.109375 47.828125 
Q 26.265625 48.1875 28.421875 48.1875 
Q 40.625 48.1875 47.75 41.5 
Q 54.890625 34.8125 54.890625 23.390625 
Q 54.890625 11.625 47.5625 5.09375 
Q 40.234375 -1.421875 26.90625 -1.421875 
Q 22.3125 -1.421875 17.546875 -0.640625 
Q 12.796875 0.140625 7.71875 1.703125 
L 7.71875 11.625 
Q 12.109375 9.234375 16.796875 8.0625 
Q 21.484375 6.890625 26.703125 6.890625 
Q 35.15625 6.890625 40.078125 11.328125 
Q 45.015625 15.765625 45.015625 23.390625 
Q 45.015625 31 40.078125 35.4375 
Q 35.15625 39.890625 26.703125 39.890625 
Q 22.75 39.890625 18.8125 39.015625 
Q 14.890625 38.140625 10.796875 36.28125 
z
" id="DejaVuSans-53"/>
    </defs>
    <g transform="translate(188.654 24.458955)scale(0.2 -0.2)">
     <use xlink:href="#DejaVuSans-123"/>
     <use x="63.623047" xlink:href="#DejaVuSans-102"/>
     <use x="98.828125" xlink:href="#DejaVuSans-50"/>
     <use x="162.451172" xlink:href="#DejaVuSans-48"/>
     <use x="226.074219" xlink:href="#DejaVuSans-45"/>
     <use x="262.158203" xlink:href="#DejaVuSans-102"/>
     <use x="297.363281" xlink:href="#DejaVuSans-50"/>
     <use x="360.986328" xlink:href="#DejaVuSans-52"/>
     <use x="424.609375" xlink:href="#DejaVuSans-125"/>
     <use x="488.232422" xlink:href="#DejaVuSans-44"/>
     <use x="520.019531" xlink:href="#DejaVuSans-32"/>
     <use x="551.806641" xlink:href="#DejaVuSans-53"/>
     <use x="615.429688" xlink:href="#DejaVuSans-45"/>
     <use x="651.513672" xlink:href="#DejaVuSans-68"/>
    </g>
   </g>
   <g id="text_13">
    <!-- absolute targets -->
    <defs>
     <path d="M 48.6875 27.296875 
Q 48.6875 37.203125 44.609375 42.84375 
Q 40.53125 48.484375 33.40625 48.484375 
Q 26.265625 48.484375 22.1875 42.84375 
Q 18.109375 37.203125 18.109375 27.296875 
Q 18.109375 17.390625 22.1875 11.75 
Q 26.265625 6.109375 33.40625 6.109375 
Q 40.53125 6.109375 44.609375 11.75 
Q 48.6875 17.390625 48.6875 27.296875 
z
M 18.109375 46.390625 
Q 20.953125 51.265625 25.265625 53.625 
Q 29.59375 56 35.59375 56 
Q 45.5625 56 51.78125 48.09375 
Q 58.015625 40.1875 58.015625 27.296875 
Q 58.015625 14.40625 51.78125 6.484375 
Q 45.5625 -1.421875 35.59375 -1.421875 
Q 29.59375 -1.421875 25.265625 0.953125 
Q 20.953125 3.328125 18.109375 8.203125 
L 18.109375 0 
L 9.078125 0 
L 9.078125 75.984375 
L 18.109375 75.984375 
z
" id="DejaVuSans-98"/>
     <path d="M 8.5 21.578125 
L 8.5 54.6875 
L 17.484375 54.6875 
L 17.484375 21.921875 
Q 17.484375 14.15625 20.5 10.265625 
Q 23.53125 6.390625 29.59375 6.390625 
Q 36.859375 6.390625 41.078125 11.03125 
Q 45.3125 15.671875 45.3125 23.6875 
L 45.3125 54.6875 
L 54.296875 54.6875 
L 54.296875 0 
L 45.3125 0 
L 45.3125 8.40625 
Q 42.046875 3.421875 37.71875 1 
Q 33.40625 -1.421875 27.6875 -1.421875 
Q 18.265625 -1.421875 13.375 4.4375 
Q 8.5 10.296875 8.5 21.578125 
z
M 31.109375 56 
z
" id="DejaVuSans-117"/>
     <path d="M 56.203125 29.59375 
L 56.203125 25.203125 
L 14.890625 25.203125 
Q 15.484375 15.921875 20.484375 11.0625 
Q 25.484375 6.203125 34.421875 6.203125 
Q 39.59375 6.203125 44.453125 7.46875 
Q 49.3125 8.734375 54.109375 11.28125 
L 54.109375 2.78125 
Q 49.265625 0.734375 44.1875 -0.34375 
Q 39.109375 -1.421875 33.890625 -1.421875 
Q 20.796875 -1.421875 13.15625 6.1875 
Q 5.515625 13.8125 5.515625 26.8125 
Q 5.515625 40.234375 12.765625 48.109375 
Q 20.015625 56 32.328125 56 
Q 43.359375 56 49.78125 48.890625 
Q 56.203125 41.796875 56.203125 29.59375 
z
M 47.21875 32.234375 
Q 47.125 39.59375 43.09375 43.984375 
Q 39.0625 48.390625 32.421875 48.390625 
Q 24.90625 48.390625 20.390625 44.140625 
Q 15.875 39.890625 15.1875 32.171875 
z
" id="DejaVuSans-101"/>
    </defs>
    <g transform="translate(62.208 607.633236)scale(0.14 -0.14)">
     <use xlink:href="#DejaVuSans-97"/>
     <use x="61.279297" xlink:href="#DejaVuSans-98"/>
     <use x="124.755859" xlink:href="#DejaVuSans-115"/>
     <use x="176.855469" xlink:href="#DejaVuSans-111"/>
     <use x="238.037109" xlink:href="#DejaVuSans-108"/>
     <use x="265.820312" xlink:href="#DejaVuSans-117"/>
     <use x="329.199219" xlink:href="#DejaVuSans-116"/>
     <use x="368.408203" xlink:href="#DejaVuSans-101"/>
     <use x="429.931641" xlink:href="#DejaVuSans-32"/>
     <use x="461.71875" xlink:href="#DejaVuSans-116"/>
     <use x="500.927734" xlink:href="#DejaVuSans-97"/>
     <use x="562.207031" xlink:href="#DejaVuSans-114"/>
     <use x="603.304688" xlink:href="#DejaVuSans-103"/>
     <use x="666.78125" xlink:href="#DejaVuSans-101"/>
     <use x="728.304688" xlink:href="#DejaVuSans-116"/>
     <use x="767.513672" xlink:href="#DejaVuSans-115"/>
    </g>
   </g>
   <g id="text_14">
    <!-- v2.4 -->
    <g style="fill:#808080;" transform="translate(250.593063 288.777272)scale(0.1 -0.1)">
     <use xlink:href="#DejaVuSans-118"/>
     <use x="59.179688" xlink:href="#DejaVuSans-50"/>
     <use x="122.802734" xlink:href="#DejaVuSans-46"/>
     <use x="154.589844" xlink:href="#DejaVuSans-52"/>
    </g>
   </g>
   <g id="legend_1">
    <g id="patch_7">
     <path d="M 317.578125 136.881 
L 446.8 136.881 
Q 450.8 136.881 450.8 132.881 
L 450.8 17.456 
Q 450.8 13.456 446.8 13.456 
L 317.578125 13.456 
Q 313.578125 13.456 313.578125 17.456 
L 313.578125 132.881 
Q 313.578125 136.881 317.578125 136.881 
z
" style="fill:#ffffff;opacity:0.2;stroke:#cccccc;stroke-linejoin:miter;"/>
    </g>
    <g id="line2d_119">
     <path d="M 321.578125 29.652875 
L 361.578125 29.652875 
" style="fill:none;stroke:#000000;stroke-linecap:square;stroke-width:1.5;"/>
    </g>
    <g id="line2d_120"/>
    <g id="text_15">
     <!-- 1: 2/5 -->
     <defs>
      <path d="M 11.71875 12.40625 
L 22.015625 12.40625 
L 22.015625 0 
L 11.71875 0 
z
M 11.71875 51.703125 
L 22.015625 51.703125 
L 22.015625 39.3125 
L 11.71875 39.3125 
z
" id="DejaVuSans-58"/>
     </defs>
     <g transform="translate(377.578125 36.652875)scale(0.2 -0.2)">
      <use xlink:href="#DejaVuSans-49"/>
      <use x="63.623047" xlink:href="#DejaVuSans-58"/>
      <use x="97.314453" xlink:href="#DejaVuSans-32"/>
      <use x="129.101562" xlink:href="#DejaVuSans-50"/>
      <use x="192.724609" xlink:href="#DejaVuSans-47"/>
      <use x="226.416016" xlink:href="#DejaVuSans-53"/>
     </g>
    </g>
    <g id="line2d_121">
     <path d="M 321.578125 59.009125 
L 361.578125 59.009125 
" style="fill:none;stroke:#00bfbf;stroke-linecap:square;stroke-width:1.5;"/>
    </g>
    <g id="line2d_122"/>
    <g id="text_16">
     <!-- -1: 0/5 -->
     <g transform="translate(377.578125 66.009125)scale(0.2 -0.2)">
      <use xlink:href="#DejaVuSans-45"/>
      <use x="36.083984" xlink:href="#DejaVuSans-49"/>
      <use x="99.707031" xlink:href="#DejaVuSans-58"/>
      <use x="133.398438" xlink:href="#DejaVuSans-32"/>
      <use x="165.185547" xlink:href="#DejaVuSans-48"/>
      <use x="228.808594" xlink:href="#DejaVuSans-47"/>
      <use x="262.5" xlink:href="#DejaVuSans-53"/>
     </g>
    </g>
    <g id="line2d_123">
     <path d="M 321.578125 88.365375 
L 361.578125 88.365375 
" style="fill:none;stroke:#bf00bf;stroke-linecap:square;stroke-width:1.5;"/>
    </g>
    <g id="line2d_124"/>
    <g id="text_17">
     <!-- -4: 0/5 -->
     <g transform="translate(377.578125 95.365375)scale(0.2 -0.2)">
      <use xlink:href="#DejaVuSans-45"/>
      <use x="36.083984" xlink:href="#DejaVuSans-52"/>
      <use x="99.707031" xlink:href="#DejaVuSans-58"/>
      <use x="133.398438" xlink:href="#DejaVuSans-32"/>
      <use x="165.185547" xlink:href="#DejaVuSans-48"/>
      <use x="228.808594" xlink:href="#DejaVuSans-47"/>
      <use x="262.5" xlink:href="#DejaVuSans-53"/>
     </g>
    </g>
    <g id="line2d_125">
     <path d="M 321.578125 117.721625 
L 361.578125 117.721625 
" style="fill:none;stroke:#ff0000;stroke-linecap:square;stroke-width:3;"/>
    </g>
    <g id="line2d_126"/>
    <g id="text_18">
     <!-- -8: 0/5 -->
     <g transform="translate(377.578125 124.721625)scale(0.2 -0.2)">
      <use xlink:href="#DejaVuSans-45"/>
      <use x="36.083984" xlink:href="#DejaVuSans-56"/>
      <use x="99.707031" xlink:href="#DejaVuSans-58"/>
      <use x="133.398438" xlink:href="#DejaVuSans-32"/>
      <use x="165.185547" xlink:href="#DejaVuSans-48"/>
      <use x="228.808594" xlink:href="#DejaVuSans-47"/>
      <use x="262.5" xlink:href="#DejaVuSans-53"/>
     </g>
    </g>
   </g>
  </g>
 </g>
 <defs>
  <clipPath id="p6b9a5475be">
   <rect height="290.304" width="398.592" x="62.208" y="3.456"/>
  </clipPath>
 </defs>
</svg>
