<?xml version="1.0" encoding="utf-8" standalone="no"?>
<!DOCTYPE svg PUBLIC "-//W3C//DTD SVG 1.1//EN"
  "http://www.w3.org/Graphics/SVG/1.1/DTD/svg11.dtd">
<!-- Created with matplotlib (https://matplotlib.org/) -->
<svg height="345.6pt" version="1.1" viewBox="0 0 460.8 345.6" width="460.8pt" xmlns="http://www.w3.org/2000/svg" xmlns:xlink="http://www.w3.org/1999/xlink">
 <defs>
  <style type="text/css">
*{stroke-linecap:butt;stroke-linejoin:round;}
  </style>
 </defs>
 <g id="figure_1">
  <g id="patch_1">
   <path d="M 0 345.6 
L 460.8 345.6 
L 460.8 0 
L 0 0 
z
" style="fill:#ffffff;"/>
  </g>
  <g id="axes_1">
   <g id="patch_2">
    <path d="M 62.208 293.76 
L 460.8 293.76 
L 460.8 3.456 
L 62.208 3.456 
z
" style="fill:#ffffff;"/>
   </g>
   <g id="line2d_1"/>
   <g id="line2d_2"/>
   <g id="line2d_3"/>
   <g id="line2d_4">
    <path clip-path="url(#p7d18d81a29)" d="M 272.569648 293.76 
L 272.585215 286.095208 
L 273.283597 286.095208 
L 273.283597 282.262812 
L 273.783809 282.262812 
L 273.783809 278.430416 
L 274.113533 278.430416 
L 274.113533 274.59802 
L 274.421488 274.59802 
L 274.449001 266.933228 
L 274.535055 266.933228 
L 274.535055 263.100832 
L 275.071659 263.100832 
L 275.109383 251.603644 
L 276.331261 251.603644 
L 276.331261 247.771248 
L 276.742995 247.771248 
L 276.742995 243.938851 
L 277.407442 243.938851 
L 277.407442 240.106455 
L 277.522372 240.106455 
L 277.522372 236.274059 
L 278.21628 236.274059 
L 278.21628 232.441663 
L 278.677997 232.441663 
L 278.677997 228.609267 
L 279.348685 228.609267 
L 279.348685 224.776871 
L 279.502048 224.776871 
L 279.502048 220.944475 
L 279.903799 220.944475 
L 279.903799 217.112079 
L 280.265453 217.112079 
L 280.265453 213.279683 
L 281.759134 213.279683 
L 281.788179 205.614891 
L 282.927107 205.614891 
L 282.927107 201.782495 
L 283.856766 201.782495 
L 283.856766 197.950099 
L 284.916476 197.950099 
L 284.967682 190.285307 
L 285.506174 190.285307 
L 285.506174 186.452911 
L 285.769441 186.452911 
L 285.769441 182.620515 
L 288.165671 182.620515 
L 288.165671 178.788119 
L 289.980933 178.788119 
L 289.980933 174.955723 
L 290.559418 174.955723 
L 290.559418 171.123327 
L 290.707309 171.123327 
L 290.707309 167.290931 
L 291.53885 167.290931 
L 291.53885 163.458535 
L 291.878671 163.458535 
L 291.878671 159.626139 
L 292.792876 159.626139 
L 292.792876 155.793743 
L 292.975416 155.793743 
L 292.981517 148.12895 
L 293.176104 148.12895 
L 293.176104 144.296554 
L 293.492763 144.296554 
L 293.561702 136.631762 
L 293.846838 136.631762 
L 293.846838 132.799366 
L 294.17055 132.799366 
L 294.20577 125.134574 
L 294.551946 125.134574 
L 294.551946 121.302178 
L 295.131643 121.302178 
L 295.131643 117.469782 
L 296.448026 117.469782 
L 296.448026 113.637386 
L 298.415436 113.637386 
L 298.415436 109.80499 
L 304.516742 109.80499 
L 304.516742 105.972594 
L 304.957342 105.972594 
L 305.045418 98.307802 
L 305.354841 98.307802 
L 305.354841 94.475406 
L 307.660103 94.475406 
L 307.660103 90.64301 
L 313.028195 90.64301 
L 313.028195 86.810614 
L 316.804741 86.810614 
L 316.804741 82.978218 
L 320.177897 82.978218 
L 320.177897 79.145822 
L 320.556849 79.145822 
L 320.556849 75.313426 
L 320.767939 75.313426 
L 320.767939 71.48103 
L 320.893246 71.48103 
L 320.893246 67.648634 
L 321.54355 67.648634 
L 321.54355 63.816238 
L 322.488288 63.816238 
L 322.488288 59.983842 
L 336.833746 59.983842 
L 336.833746 56.151446 
L 346.556813 56.151446 
L 346.556813 52.31905 
L 348.507512 52.31905 
L 348.507512 48.486653 
L 348.507512 48.486653 
L 460.8 48.486653 
L 460.8 48.486653 
" style="fill:none;stroke:#f5deb3;stroke-linecap:square;stroke-width:1.5;"/>
   </g>
   <g id="line2d_5"/>
   <g id="line2d_6"/>
   <g id="line2d_7">
    <path clip-path="url(#p7d18d81a29)" d="M 271.811199 293.76 
L 271.910739 282.262812 
L 272.085168 282.262812 
L 272.085168 278.430416 
L 272.362648 278.430416 
L 272.362648 274.59802 
L 272.53849 274.59802 
L 272.53849 270.765624 
L 272.765624 270.765624 
L 272.765624 266.933228 
L 272.918064 266.933228 
L 272.952694 259.268436 
L 273.319727 259.268436 
L 273.391864 247.771248 
L 273.452482 247.771248 
L 273.452482 243.938851 
L 274.733723 243.938851 
L 274.733723 240.106455 
L 280.677178 240.106455 
L 280.677178 236.274059 
L 280.816723 236.274059 
L 280.816723 232.441663 
L 280.967573 232.441663 
L 280.967573 228.609267 
L 281.339352 228.609267 
L 281.443724 220.944475 
L 281.471595 220.944475 
L 281.471595 217.112079 
L 281.812846 217.112079 
L 281.812846 213.279683 
L 282.501461 213.279683 
L 282.501461 209.447287 
L 282.917306 209.447287 
L 282.917306 205.614891 
L 283.777839 205.614891 
L 283.839093 197.950099 
L 284.359671 197.950099 
L 284.359671 194.117703 
L 284.796669 194.117703 
L 284.796669 190.285307 
L 284.987355 190.285307 
L 284.987355 186.452911 
L 286.144459 186.452911 
L 286.144459 182.620515 
L 286.54751 182.620515 
L 286.578684 174.955723 
L 287.620621 174.955723 
L 287.620621 171.123327 
L 287.815341 171.123327 
L 287.815341 167.290931 
L 288.295749 167.290931 
L 288.295749 163.458535 
L 288.702593 163.458535 
L 288.702593 159.626139 
L 289.768827 159.626139 
L 289.768827 155.793743 
L 289.889084 155.793743 
L 289.889084 151.961347 
L 290.222709 151.961347 
L 290.222709 148.12895 
L 291.563321 148.12895 
L 291.563321 144.296554 
L 292.182547 144.296554 
L 292.182547 140.464158 
L 292.457681 140.464158 
L 292.457681 136.631762 
L 293.816164 136.631762 
L 293.816164 132.799366 
L 294.18523 132.799366 
L 294.230205 125.134574 
L 295.446211 125.134574 
L 295.446211 121.302178 
L 296.101978 121.302178 
L 296.101978 117.469782 
L 303.598443 117.469782 
L 303.598443 113.637386 
L 309.935461 113.637386 
L 309.935461 109.80499 
L 314.429704 109.80499 
L 314.429704 105.972594 
L 317.512219 105.972594 
L 317.512219 102.140198 
L 325.010199 102.140198 
L 325.010199 98.307802 
L 325.547852 98.307802 
L 325.547852 94.475406 
L 326.060142 94.475406 
L 326.060142 90.64301 
L 327.031789 90.64301 
L 327.031789 86.810614 
L 327.524361 86.810614 
L 327.524361 82.978218 
L 327.692915 82.978218 
L 327.692915 79.145822 
L 337.572017 79.145822 
L 337.572017 75.313426 
L 340.408438 75.313426 
L 340.408438 71.48103 
L 340.687495 71.48103 
L 340.687495 67.648634 
L 341.017714 67.648634 
L 341.017714 63.816238 
L 459.709453 63.816238 
L 459.709453 59.983842 
L 461.8 59.983842 
L 461.8 59.983842 
" style="fill:none;stroke:#f5deb3;stroke-linecap:square;stroke-width:1.5;"/>
   </g>
   <g id="line2d_8"/>
   <g id="line2d_9">
    <path clip-path="url(#p7d18d81a29)" d="M 270.435603 293.76 
L 270.435603 289.927604 
L 270.705256 289.927604 
L 270.705256 286.095208 
L 270.847445 286.095208 
L 270.847445 282.262812 
L 270.991041 282.262812 
L 270.991041 278.430416 
L 271.27425 278.430416 
L 271.27425 274.59802 
L 271.440134 274.59802 
L 271.440134 270.765624 
L 271.735337 270.765624 
L 271.845078 263.100832 
L 271.972296 263.100832 
L 272.075283 251.603644 
L 272.130598 251.603644 
L 272.144412 240.106455 
L 272.48584 240.106455 
L 272.48584 236.274059 
L 274.655499 236.274059 
L 274.655499 232.441663 
L 277.698118 232.441663 
L 277.698118 228.609267 
L 278.076105 228.609267 
L 278.134859 217.112079 
L 278.31695 217.112079 
L 278.391433 209.447287 
L 278.535041 209.447287 
L 278.573655 197.950099 
L 278.655552 197.950099 
L 278.764418 190.285307 
L 279.233957 190.285307 
L 279.233957 186.452911 
L 279.40511 186.452911 
L 279.40511 182.620515 
L 279.726049 182.620515 
L 279.834364 174.955723 
L 280.097403 174.955723 
L 280.097403 171.123327 
L 280.888504 171.123327 
L 280.888504 167.290931 
L 281.040498 167.290931 
L 281.040498 163.458535 
L 281.795436 163.458535 
L 281.795436 159.626139 
L 282.532664 159.626139 
L 282.532664 155.793743 
L 283.034716 155.793743 
L 283.034716 151.961347 
L 283.161418 151.961347 
L 283.161418 148.12895 
L 283.405027 148.12895 
L 283.450494 140.464158 
L 283.517885 140.464158 
L 283.517885 136.631762 
L 283.806439 136.631762 
L 283.806439 132.799366 
L 284.046469 132.799366 
L 284.122031 121.302178 
L 284.332909 121.302178 
L 284.369033 113.637386 
L 284.515775 113.637386 
L 284.515775 109.80499 
L 284.676404 109.80499 
L 284.676404 105.972594 
L 284.849388 105.972594 
L 284.849388 102.140198 
L 288.008863 102.140198 
L 288.039811 94.475406 
L 290.915366 94.475406 
L 290.915366 90.64301 
L 291.261959 90.64301 
L 291.261959 86.810614 
L 294.579012 86.810614 
L 294.579012 82.978218 
L 296.511693 82.978218 
L 296.57251 75.313426 
L 299.648084 75.313426 
L 299.648084 71.48103 
L 300.839747 71.48103 
L 300.839747 67.648634 
L 303.849076 67.648634 
L 303.849076 63.816238 
L 306.30718 63.816238 
L 306.30718 59.983842 
L 309.870191 59.983842 
L 309.870191 56.151446 
L 311.214882 56.151446 
L 311.214882 52.31905 
L 311.374393 52.31905 
L 311.374393 48.486653 
L 311.864855 48.486653 
L 311.864855 44.654257 
L 312.10033 44.654257 
L 312.10033 40.821861 
L 321.888655 40.821861 
L 321.888655 36.989465 
L 329.821995 36.989465 
L 329.821995 33.157069 
L 339.899713 33.157069 
L 339.899713 29.324673 
L 341.920429 29.324673 
L 341.920429 25.492277 
L 342.463472 25.492277 
L 342.463472 21.659881 
L 342.767923 21.659881 
L 342.767923 17.827485 
L 343.400833 17.827485 
L 343.400833 13.995089 
L 345.128001 13.995089 
L 345.128001 10.162693 
L 345.683826 10.162693 
L 345.683826 6.330297 
L 345.683826 6.330297 
L 460.8 6.330297 
L 460.8 6.330297 
" style="fill:none;stroke:#f5deb3;stroke-linecap:square;stroke-width:1.5;"/>
   </g>
   <g id="line2d_10"/>
   <g id="line2d_11">
    <path clip-path="url(#p7d18d81a29)" d="M 429.580044 293.76 
L 429.580044 289.927604 
L 461.8 289.927604 
" style="fill:none;stroke:#f5deb3;stroke-linecap:square;stroke-width:1.5;"/>
   </g>
   <g id="line2d_12">
    <path clip-path="url(#p7d18d81a29)" d="M 336.210556 293.76 
L 336.210556 289.927604 
L 336.210556 289.927604 
L 336.210556 289.927604 
L 460.8 289.927604 
" style="fill:none;stroke:#f5deb3;stroke-linecap:square;stroke-width:1.5;"/>
   </g>
   <g id="line2d_13"/>
   <g id="line2d_14"/>
   <g id="line2d_15"/>
   <g id="line2d_16">
    <path clip-path="url(#p7d18d81a29)" style="fill:none;stroke:#f5deb3;stroke-linecap:square;stroke-width:1.5;"/>
   </g>
   <g id="line2d_17">
    <path clip-path="url(#p7d18d81a29)" d="M 363.69678 293.76 
L 363.69678 289.927604 
L 365.975518 289.927604 
L 365.975518 286.095208 
L 369.568913 286.095208 
L 369.568913 282.262812 
L 369.735556 282.262812 
L 369.735556 278.430416 
L 370.217714 278.430416 
L 370.217714 274.59802 
L 370.259996 274.59802 
L 370.259996 270.765624 
L 370.40148 270.765624 
L 370.40148 266.933228 
L 370.940718 266.933228 
L 370.940718 263.100832 
L 371.269441 263.100832 
L 371.269441 259.268436 
L 371.601509 259.268436 
L 371.601509 255.43604 
L 372.007013 255.43604 
L 372.007013 251.603644 
L 372.165338 251.603644 
L 372.165338 247.771248 
L 372.704594 247.771248 
L 372.704594 243.938851 
L 372.73185 243.938851 
L 372.73185 240.106455 
L 372.780674 240.106455 
L 372.780674 236.274059 
L 373.010923 236.274059 
L 373.010923 232.441663 
L 373.310982 232.441663 
L 373.310982 228.609267 
L 373.775557 228.609267 
L 373.775557 224.776871 
L 374.545021 224.776871 
L 374.545021 220.944475 
L 375.396816 220.944475 
L 375.396816 217.112079 
L 375.427957 217.112079 
L 375.427957 213.279683 
L 376.578658 213.279683 
L 376.578658 209.447287 
L 377.582827 209.447287 
L 377.582827 205.614891 
L 377.900841 205.614891 
L 377.900841 201.782495 
L 378.130102 201.782495 
L 378.130102 197.950099 
L 378.61627 197.950099 
L 378.61627 194.117703 
L 379.419364 194.117703 
L 379.419364 190.285307 
L 379.512705 190.285307 
L 379.512705 186.452911 
L 379.566223 186.452911 
L 379.566223 182.620515 
L 379.696755 182.620515 
L 379.696755 178.788119 
L 380.328474 178.788119 
L 380.328474 174.955723 
L 380.521248 174.955723 
L 380.521248 171.123327 
L 380.664182 171.123327 
L 380.664182 167.290931 
L 380.766601 167.290931 
L 380.766601 163.458535 
L 382.037598 163.458535 
L 382.037598 159.626139 
L 382.261173 159.626139 
L 382.261173 155.793743 
L 382.298953 155.793743 
L 382.298953 151.961347 
L 382.563618 151.961347 
L 382.563618 148.12895 
L 382.999756 148.12895 
L 382.999756 144.296554 
L 383.04459 144.296554 
L 383.04459 140.464158 
L 383.293315 140.464158 
L 383.293315 136.631762 
L 383.980505 136.631762 
L 383.980505 132.799366 
L 384.114838 132.799366 
L 384.114838 128.96697 
L 384.822962 128.96697 
L 384.822962 125.134574 
L 386.090737 125.134574 
L 386.090737 121.302178 
L 386.437398 121.302178 
L 386.437398 117.469782 
L 390.792213 117.469782 
L 390.792213 113.637386 
L 391.804638 113.637386 
L 391.804638 109.80499 
L 391.936165 109.80499 
L 391.936165 105.972594 
L 391.941443 105.972594 
L 391.941443 102.140198 
L 392.141812 102.140198 
L 392.141812 98.307802 
L 392.255232 98.307802 
L 392.255232 94.475406 
L 393.188542 94.475406 
L 393.188542 90.64301 
L 393.569044 90.64301 
L 393.569044 86.810614 
L 393.810905 86.810614 
L 393.810905 82.978218 
L 394.07603 82.978218 
L 394.07603 79.145822 
L 395.32704 79.145822 
L 395.32704 75.313426 
L 395.663714 75.313426 
L 395.663714 71.48103 
L 395.823964 71.48103 
L 395.823964 67.648634 
L 396.152829 67.648634 
L 396.152829 63.816238 
L 396.152829 63.816238 
L 396.152829 63.816238 
L 460.8 63.816238 
" style="fill:none;stroke:#f5deb3;stroke-linecap:square;stroke-width:1.5;"/>
   </g>
   <g id="line2d_18">
    <path clip-path="url(#p7d18d81a29)" d="M 252.915762 293.76 
L 252.915762 289.927604 
L 257.657685 289.927604 
L 257.657685 286.095208 
L 258.833546 286.095208 
L 258.833546 282.262812 
L 259.557404 282.262812 
L 259.557404 278.430416 
L 259.80672 278.430416 
L 259.80672 274.59802 
L 261.234549 274.59802 
L 261.234549 270.765624 
L 265.259205 270.765624 
L 265.259205 266.933228 
L 268.806728 266.933228 
L 268.806728 263.100832 
L 268.990486 263.100832 
L 268.990486 259.268436 
L 269.031901 259.268436 
L 269.031901 255.43604 
L 272.877614 255.43604 
L 272.877614 251.603644 
L 276.482857 251.603644 
L 276.482857 247.771248 
L 278.69562 247.771248 
L 278.69562 243.938851 
L 281.122151 243.938851 
L 281.122151 240.106455 
L 287.084353 240.106455 
L 287.084353 236.274059 
L 326.974971 236.274059 
L 326.974971 232.441663 
L 327.579857 232.441663 
L 327.579857 228.609267 
L 328.748293 228.609267 
L 328.748293 224.776871 
L 328.967735 224.776871 
L 328.967735 220.944475 
L 330.192541 220.944475 
L 330.192541 217.112079 
L 330.37031 217.112079 
L 330.37031 213.279683 
L 330.547388 213.279683 
L 330.547388 209.447287 
L 330.910439 209.447287 
L 330.910439 205.614891 
L 330.955413 205.614891 
L 330.955413 201.782495 
L 331.353112 201.782495 
L 331.353112 197.950099 
L 331.729254 197.950099 
L 331.729254 194.117703 
L 331.825987 194.117703 
L 331.825987 190.285307 
L 331.937731 190.285307 
L 331.937731 186.452911 
L 331.978027 186.452911 
L 331.978027 182.620515 
L 332.24846 182.620515 
L 332.24846 178.788119 
L 332.30029 178.788119 
L 332.30029 174.955723 
L 332.581243 174.955723 
L 332.581243 171.123327 
L 332.774993 171.123327 
L 332.774993 167.290931 
L 332.79562 167.290931 
L 332.79562 163.458535 
L 333.504684 163.458535 
L 333.504684 159.626139 
L 333.528195 159.626139 
L 333.528195 155.793743 
L 336.852126 155.793743 
L 336.852126 151.961347 
L 340.783372 151.961347 
L 340.783372 148.12895 
L 349.433523 148.12895 
L 349.433523 144.296554 
L 354.72633 144.296554 
L 354.72633 140.464158 
L 355.161991 140.464158 
L 355.161991 136.631762 
L 356.933386 136.631762 
L 356.933386 132.799366 
L 369.765511 132.799366 
L 369.765511 128.96697 
L 384.99833 128.96697 
L 384.99833 125.134574 
L 393.755832 125.134574 
L 393.755832 121.302178 
L 393.755832 121.302178 
L 393.755832 121.302178 
L 460.8 121.302178 
" style="fill:none;stroke:#f5deb3;stroke-linecap:square;stroke-width:1.5;"/>
   </g>
   <g id="line2d_19"/>
   <g id="line2d_20"/>
   <g id="line2d_21"/>
   <g id="line2d_22"/>
   <g id="line2d_23"/>
   <g id="line2d_24">
    <path clip-path="url(#p7d18d81a29)" d="M 286.411227 293.76 
L 286.411227 289.927604 
L 287.448942 289.927604 
L 287.448942 286.095208 
L 288.155004 286.095208 
L 288.155004 282.262812 
L 288.68628 282.262812 
L 288.68628 278.430416 
L 289.153654 278.430416 
L 289.153654 274.59802 
L 290.756452 274.59802 
L 290.756452 270.765624 
L 291.257664 270.765624 
L 291.257664 266.933228 
L 291.566511 266.933228 
L 291.615392 259.268436 
L 292.195058 259.268436 
L 292.195058 255.43604 
L 292.829674 255.43604 
L 292.829674 251.603644 
L 293.735873 251.603644 
L 293.77654 243.938851 
L 294.204792 243.938851 
L 294.216524 236.274059 
L 294.78415 236.274059 
L 294.78415 232.441663 
L 295.568167 232.441663 
L 295.615881 224.776871 
L 295.78836 224.776871 
L 295.801374 217.112079 
L 296.602422 217.112079 
L 296.602422 213.279683 
L 296.835301 213.279683 
L 296.835301 209.447287 
L 297.313665 209.447287 
L 297.407411 197.950099 
L 297.674725 197.950099 
L 297.674725 194.117703 
L 298.357229 194.117703 
L 298.430826 186.452911 
L 298.482924 186.452911 
L 298.482924 182.620515 
L 298.80723 182.620515 
L 298.80723 178.788119 
L 298.957211 178.788119 
L 298.957211 174.955723 
L 300.054135 174.955723 
L 300.054135 171.123327 
L 300.48865 171.123327 
L 300.48865 167.290931 
L 300.792208 167.290931 
L 300.792208 163.458535 
L 300.936976 163.458535 
L 301.034693 155.793743 
L 301.32915 155.793743 
L 301.32915 151.961347 
L 302.800125 151.961347 
L 302.812024 144.296554 
L 303.252817 144.296554 
L 303.252817 140.464158 
L 303.958237 140.464158 
L 303.958237 136.631762 
L 304.707028 136.631762 
L 304.753895 128.96697 
L 305.115978 128.96697 
L 305.115978 125.134574 
L 305.503981 125.134574 
L 305.503981 121.302178 
L 310.241014 121.302178 
L 310.241014 117.469782 
L 310.438217 117.469782 
L 310.438217 113.637386 
L 310.924441 113.637386 
L 310.924441 109.80499 
L 311.149367 109.80499 
L 311.15906 102.140198 
L 311.676431 102.140198 
L 311.676431 98.307802 
L 311.835854 98.307802 
L 311.835854 94.475406 
L 312.276885 94.475406 
L 312.276885 90.64301 
L 312.858522 90.64301 
L 312.882817 82.978218 
L 313.681565 82.978218 
L 313.681565 79.145822 
L 313.801821 79.145822 
L 313.823827 71.48103 
L 315.179514 71.48103 
L 315.179514 67.648634 
L 318.669043 67.648634 
L 318.669043 63.816238 
L 325.725164 63.816238 
L 325.725164 59.983842 
L 332.73542 59.983842 
L 332.73542 56.151446 
L 333.252231 56.151446 
L 333.252231 52.31905 
L 335.499167 52.31905 
L 335.546432 44.654257 
L 335.973313 44.654257 
L 335.973313 40.821861 
L 336.17997 40.821861 
L 336.17997 36.989465 
L 336.462591 36.989465 
L 336.462591 33.157069 
L 336.726524 33.157069 
L 336.735873 25.492277 
L 337.033588 25.492277 
L 337.033588 21.659881 
L 339.958141 21.659881 
L 339.958141 17.827485 
L 340.136178 17.827485 
L 340.136178 13.995089 
L 340.807795 13.995089 
L 340.807795 10.162693 
L 341.439048 10.162693 
L 341.439048 6.330297 
L 341.439048 6.330297 
L 460.8 6.330297 
L 460.8 6.330297 
" style="fill:none;stroke:#f5deb3;stroke-linecap:square;stroke-width:1.5;"/>
   </g>
   <g id="line2d_25"/>
   <g id="line2d_26">
    <path clip-path="url(#p7d18d81a29)" d="M 290.396482 293.76 
L 290.396482 289.927604 
L 303.664364 289.927604 
L 303.664364 286.095208 
L 303.731592 286.095208 
L 303.731592 282.262812 
L 307.586094 282.262812 
L 307.586094 278.430416 
L 309.664598 278.430416 
L 309.664598 274.59802 
L 310.169905 274.59802 
L 310.169905 270.765624 
L 311.243893 270.765624 
L 311.243893 266.933228 
L 311.392507 266.933228 
L 311.392507 263.100832 
L 311.43379 263.100832 
L 311.43379 259.268436 
L 311.789509 259.268436 
L 311.789509 255.43604 
L 311.876559 255.43604 
L 311.876559 251.603644 
L 312.346682 251.603644 
L 312.346682 247.771248 
L 312.43111 247.771248 
L 312.43111 243.938851 
L 312.481439 243.938851 
L 312.481439 240.106455 
L 312.536599 240.106455 
L 312.536599 236.274059 
L 312.870402 236.274059 
L 312.870402 232.441663 
L 312.963666 232.441663 
L 312.963666 228.609267 
L 313.046991 228.609267 
L 313.046991 224.776871 
L 313.574049 224.776871 
L 313.574049 220.944475 
L 314.121481 220.944475 
L 314.121481 217.112079 
L 314.565045 217.112079 
L 314.565045 213.279683 
L 314.572206 213.279683 
L 314.572206 209.447287 
L 314.629435 209.447287 
L 314.629435 205.614891 
L 315.408932 205.614891 
L 315.408932 201.782495 
L 315.485531 201.782495 
L 315.485531 197.950099 
L 315.528721 197.950099 
L 315.528721 194.117703 
L 315.628281 194.117703 
L 315.628281 190.285307 
L 316.5402 190.285307 
L 316.5402 186.452911 
L 316.860426 186.452911 
L 316.860426 182.620515 
L 318.381313 182.620515 
L 318.381313 178.788119 
L 318.766309 178.788119 
L 318.766309 174.955723 
L 319.589212 174.955723 
L 319.589212 171.123327 
L 321.349167 171.123327 
L 321.349167 167.290931 
L 321.423693 167.290931 
L 321.423693 163.458535 
L 325.985181 163.458535 
L 325.985181 159.626139 
L 328.906212 159.626139 
L 328.906212 155.793743 
L 335.527535 155.793743 
L 335.527535 151.961347 
L 339.679634 151.961347 
L 339.679634 148.12895 
L 341.512487 148.12895 
L 341.512487 144.296554 
L 342.736004 144.296554 
L 342.736004 140.464158 
L 342.803352 140.464158 
L 342.803352 136.631762 
L 343.954855 136.631762 
L 343.954855 132.799366 
L 344.019644 132.799366 
L 344.019644 128.96697 
L 344.229341 128.96697 
L 344.229341 125.134574 
L 345.519006 125.134574 
L 345.519006 121.302178 
L 351.559105 121.302178 
L 351.559105 117.469782 
L 351.877181 117.469782 
L 351.877181 113.637386 
L 352.339882 113.637386 
L 352.339882 109.80499 
L 358.430617 109.80499 
L 358.430617 105.972594 
L 359.059327 105.972594 
L 359.059327 102.140198 
L 359.664988 102.140198 
L 359.664988 98.307802 
L 360.164157 98.307802 
L 360.164157 94.475406 
L 369.824278 94.475406 
L 369.824278 90.64301 
L 376.327933 90.64301 
L 376.327933 86.810614 
L 403.122416 86.810614 
L 403.122416 82.978218 
L 406.923727 82.978218 
L 406.923727 79.145822 
L 407.823972 79.145822 
L 407.823972 75.313426 
L 410.087916 75.313426 
L 410.087916 71.48103 
L 416.771941 71.48103 
L 416.771941 67.648634 
L 416.771941 67.648634 
L 416.771941 67.648634 
L 460.8 67.648634 
" style="fill:none;stroke:#f5deb3;stroke-linecap:square;stroke-width:1.5;"/>
   </g>
   <g id="line2d_27">
    <path clip-path="url(#p7d18d81a29)" d="M 266.570099 293.76 
L 266.570099 289.927604 
L 266.760344 289.927604 
L 266.760344 286.095208 
L 267.081838 286.095208 
L 267.081838 282.262812 
L 267.710579 282.262812 
L 267.710579 278.430416 
L 268.387079 278.430416 
L 268.387079 274.59802 
L 271.601132 274.59802 
L 271.601132 270.765624 
L 273.289304 270.765624 
L 273.289304 266.933228 
L 274.377416 266.933228 
L 274.377416 263.100832 
L 277.110683 263.100832 
L 277.110683 259.268436 
L 277.335605 259.268436 
L 277.335605 255.43604 
L 281.987862 255.43604 
L 281.987862 251.603644 
L 282.64728 251.603644 
L 282.64728 247.771248 
L 284.355658 247.771248 
L 284.355658 243.938851 
L 285.751531 243.938851 
L 285.751531 240.106455 
L 286.910945 240.106455 
L 286.910945 236.274059 
L 332.99688 236.274059 
L 332.99688 232.441663 
L 335.993496 232.441663 
L 335.993496 228.609267 
L 336.576811 228.609267 
L 336.576811 224.776871 
L 336.590266 224.776871 
L 336.590266 220.944475 
L 336.800735 220.944475 
L 336.800735 217.112079 
L 336.947631 217.112079 
L 336.947631 213.279683 
L 337.617496 213.279683 
L 337.617496 209.447287 
L 338.124831 209.447287 
L 338.124831 205.614891 
L 338.337309 205.614891 
L 338.337309 201.782495 
L 338.486293 201.782495 
L 338.486293 197.950099 
L 339.237833 197.950099 
L 339.237833 194.117703 
L 339.812783 194.117703 
L 339.812783 190.285307 
L 340.570534 190.285307 
L 340.570534 186.452911 
L 340.679027 186.452911 
L 340.679027 182.620515 
L 342.436089 182.620515 
L 342.436089 178.788119 
L 350.474166 178.788119 
L 350.474166 174.955723 
L 367.86514 174.955723 
L 367.86514 171.123327 
L 370.543191 171.123327 
L 370.543191 167.290931 
L 371.431935 167.290931 
L 371.431935 163.458535 
L 373.214657 163.458535 
L 373.214657 159.626139 
L 374.218803 159.626139 
L 374.218803 155.793743 
L 374.321502 155.793743 
L 374.321502 151.961347 
L 375.334588 151.961347 
L 375.334588 148.12895 
L 375.601474 148.12895 
L 375.601474 144.296554 
L 375.814573 144.296554 
L 375.814573 140.464158 
L 375.911977 140.464158 
L 375.911977 136.631762 
L 375.914665 136.631762 
L 375.914665 132.799366 
L 380.95591 132.799366 
L 380.95591 128.96697 
L 381.221103 128.96697 
L 381.221103 125.134574 
L 381.784598 125.134574 
L 381.784598 121.302178 
L 386.197729 121.302178 
L 386.197729 117.469782 
L 386.197729 117.469782 
L 386.197729 117.469782 
L 460.8 117.469782 
" style="fill:none;stroke:#f5deb3;stroke-linecap:square;stroke-width:1.5;"/>
   </g>
   <g id="line2d_28">
    <path clip-path="url(#p7d18d81a29)" d="M 270.628744 293.76 
L 270.684596 286.095208 
L 270.793942 286.095208 
L 270.793942 282.262812 
L 271.054424 282.262812 
L 271.099328 274.59802 
L 271.320867 274.59802 
L 271.320867 270.765624 
L 271.444169 270.765624 
L 271.444169 266.933228 
L 271.960391 266.933228 
L 272.055504 259.268436 
L 272.097026 259.268436 
L 272.097026 255.43604 
L 272.662937 255.43604 
L 272.662937 251.603644 
L 272.964229 251.603644 
L 272.964229 247.771248 
L 273.395656 247.771248 
L 273.456267 236.274059 
L 273.582794 236.274059 
L 273.582794 232.441663 
L 273.82311 232.441663 
L 273.82311 228.609267 
L 274.261433 228.609267 
L 274.261433 224.776871 
L 274.648213 224.776871 
L 274.648213 220.944475 
L 274.777298 220.944475 
L 274.777298 217.112079 
L 275.416668 217.112079 
L 275.416668 213.279683 
L 275.664585 213.279683 
L 275.664585 209.447287 
L 276.06942 209.447287 
L 276.06942 205.614891 
L 276.348525 205.614891 
L 276.348525 201.782495 
L 276.807694 201.782495 
L 276.807694 197.950099 
L 277.813639 197.950099 
L 277.846568 190.285307 
L 278.15116 190.285307 
L 278.15116 186.452911 
L 278.263408 186.452911 
L 278.263408 182.620515 
L 278.829875 182.620515 
L 278.829875 178.788119 
L 279.603357 178.788119 
L 279.637573 171.123327 
L 280.131085 171.123327 
L 280.195287 155.793743 
L 280.976512 155.793743 
L 280.976512 151.961347 
L 281.175482 151.961347 
L 281.175482 148.12895 
L 281.489186 148.12895 
L 281.489186 144.296554 
L 281.748962 144.296554 
L 281.748962 140.464158 
L 282.09873 140.464158 
L 282.10879 132.799366 
L 282.998422 132.799366 
L 282.998422 128.96697 
L 283.432591 128.96697 
L 283.432591 125.134574 
L 284.570295 125.134574 
L 284.570295 121.302178 
L 290.95009 121.302178 
L 290.95009 117.469782 
L 291.317747 117.469782 
L 291.317747 113.637386 
L 292.151248 113.637386 
L 292.151248 109.80499 
L 292.529958 109.80499 
L 292.529958 105.972594 
L 292.688383 105.972594 
L 292.688383 102.140198 
L 293.319247 102.140198 
L 293.319247 98.307802 
L 293.541735 98.307802 
L 293.541735 94.475406 
L 293.92586 94.475406 
L 293.92586 90.64301 
L 294.478363 90.64301 
L 294.478363 86.810614 
L 294.688971 86.810614 
L 294.688971 82.978218 
L 295.657923 82.978218 
L 295.657923 79.145822 
L 297.27733 79.145822 
L 297.27733 75.313426 
L 297.397695 75.313426 
L 297.397695 71.48103 
L 300.315242 71.48103 
L 300.315242 67.648634 
L 301.077152 67.648634 
L 301.077152 63.816238 
L 304.28772 63.816238 
L 304.28772 59.983842 
L 305.363754 59.983842 
L 305.363754 56.151446 
L 309.785733 56.151446 
L 309.785733 52.31905 
L 310.504065 52.31905 
L 310.504065 48.486653 
L 311.340969 48.486653 
L 311.406651 40.821861 
L 311.467116 40.821861 
L 311.467116 36.989465 
L 311.814086 36.989465 
L 311.814086 33.157069 
L 311.931122 33.157069 
L 311.931122 29.324673 
L 313.138127 29.324673 
L 313.185734 21.659881 
L 314.846162 21.659881 
L 314.846162 17.827485 
L 315.802861 17.827485 
L 315.802861 13.995089 
L 316.894645 13.995089 
L 316.894645 10.162693 
L 317.689639 10.162693 
L 317.689639 6.330297 
L 317.689639 6.330297 
L 460.8 6.330297 
L 460.8 6.330297 
" style="fill:none;stroke:#f5deb3;stroke-linecap:square;stroke-width:1.5;"/>
   </g>
   <g id="line2d_29"/>
   <g id="line2d_30"/>
   <g id="matplotlib.axis_1">
    <g id="xtick_1">
     <g id="line2d_31">
      <path clip-path="url(#p7d18d81a29)" d="M 134.570958 293.76 
L 134.570958 3.456 
" style="fill:none;stroke:#b0b0b0;stroke-linecap:square;stroke-width:0.8;"/>
     </g>
     <g id="line2d_32">
      <defs>
       <path d="M 0 0 
L 0 3.5 
" id="mf6589e3aa3" style="stroke:#000000;stroke-width:0.8;"/>
      </defs>
      <g>
       <use style="stroke:#000000;stroke-width:0.8;" x="134.570958" xlink:href="#mf6589e3aa3" y="293.76"/>
      </g>
     </g>
     <g id="text_1">
      <!-- 1 -->
      <defs>
       <path d="M 12.40625 8.296875 
L 28.515625 8.296875 
L 28.515625 63.921875 
L 10.984375 60.40625 
L 10.984375 69.390625 
L 28.421875 72.90625 
L 38.28125 72.90625 
L 38.28125 8.296875 
L 54.390625 8.296875 
L 54.390625 0 
L 12.40625 0 
z
" id="DejaVuSans-49"/>
      </defs>
      <g transform="translate(128.208458 315.956875)scale(0.2 -0.2)">
       <use xlink:href="#DejaVuSans-49"/>
      </g>
     </g>
    </g>
    <g id="xtick_2">
     <g id="line2d_33">
      <path clip-path="url(#p7d18d81a29)" d="M 279.296874 293.76 
L 279.296874 3.456 
" style="fill:none;stroke:#b0b0b0;stroke-linecap:square;stroke-width:0.8;"/>
     </g>
     <g id="line2d_34">
      <g>
       <use style="stroke:#000000;stroke-width:0.8;" x="279.296874" xlink:href="#mf6589e3aa3" y="293.76"/>
      </g>
     </g>
     <g id="text_2">
      <!-- 3 -->
      <defs>
       <path d="M 40.578125 39.3125 
Q 47.65625 37.796875 51.625 33 
Q 55.609375 28.21875 55.609375 21.1875 
Q 55.609375 10.40625 48.1875 4.484375 
Q 40.765625 -1.421875 27.09375 -1.421875 
Q 22.515625 -1.421875 17.65625 -0.515625 
Q 12.796875 0.390625 7.625 2.203125 
L 7.625 11.71875 
Q 11.71875 9.328125 16.59375 8.109375 
Q 21.484375 6.890625 26.8125 6.890625 
Q 36.078125 6.890625 40.9375 10.546875 
Q 45.796875 14.203125 45.796875 21.1875 
Q 45.796875 27.640625 41.28125 31.265625 
Q 36.765625 34.90625 28.71875 34.90625 
L 20.21875 34.90625 
L 20.21875 43.015625 
L 29.109375 43.015625 
Q 36.375 43.015625 40.234375 45.921875 
Q 44.09375 48.828125 44.09375 54.296875 
Q 44.09375 59.90625 40.109375 62.90625 
Q 36.140625 65.921875 28.71875 65.921875 
Q 24.65625 65.921875 20.015625 65.03125 
Q 15.375 64.15625 9.8125 62.3125 
L 9.8125 71.09375 
Q 15.4375 72.65625 20.34375 73.4375 
Q 25.25 74.21875 29.59375 74.21875 
Q 40.828125 74.21875 47.359375 69.109375 
Q 53.90625 64.015625 53.90625 55.328125 
Q 53.90625 49.265625 50.4375 45.09375 
Q 46.96875 40.921875 40.578125 39.3125 
z
" id="DejaVuSans-51"/>
      </defs>
      <g transform="translate(272.934374 315.956875)scale(0.2 -0.2)">
       <use xlink:href="#DejaVuSans-51"/>
      </g>
     </g>
    </g>
    <g id="xtick_3">
     <g id="line2d_35">
      <path clip-path="url(#p7d18d81a29)" d="M 424.02279 293.76 
L 424.02279 3.456 
" style="fill:none;stroke:#b0b0b0;stroke-linecap:square;stroke-width:0.8;"/>
     </g>
     <g id="line2d_36">
      <g>
       <use style="stroke:#000000;stroke-width:0.8;" x="424.02279" xlink:href="#mf6589e3aa3" y="293.76"/>
      </g>
     </g>
     <g id="text_3">
      <!-- 5 -->
      <defs>
       <path d="M 10.796875 72.90625 
L 49.515625 72.90625 
L 49.515625 64.59375 
L 19.828125 64.59375 
L 19.828125 46.734375 
Q 21.96875 47.46875 24.109375 47.828125 
Q 26.265625 48.1875 28.421875 48.1875 
Q 40.625 48.1875 47.75 41.5 
Q 54.890625 34.8125 54.890625 23.390625 
Q 54.890625 11.625 47.5625 5.09375 
Q 40.234375 -1.421875 26.90625 -1.421875 
Q 22.3125 -1.421875 17.546875 -0.640625 
Q 12.796875 0.140625 7.71875 1.703125 
L 7.71875 11.625 
Q 12.109375 9.234375 16.796875 8.0625 
Q 21.484375 6.890625 26.703125 6.890625 
Q 35.15625 6.890625 40.078125 11.328125 
Q 45.015625 15.765625 45.015625 23.390625 
Q 45.015625 31 40.078125 35.4375 
Q 35.15625 39.890625 26.703125 39.890625 
Q 22.75 39.890625 18.8125 39.015625 
Q 14.890625 38.140625 10.796875 36.28125 
z
" id="DejaVuSans-53"/>
      </defs>
      <g transform="translate(417.66029 315.956875)scale(0.2 -0.2)">
       <use xlink:href="#DejaVuSans-53"/>
      </g>
     </g>
    </g>
    <g id="text_4">
     <!-- log10 of FEvals / DIM -->
     <defs>
      <path d="M 9.421875 75.984375 
L 18.40625 75.984375 
L 18.40625 0 
L 9.421875 0 
z
" id="DejaVuSans-108"/>
      <path d="M 30.609375 48.390625 
Q 23.390625 48.390625 19.1875 42.75 
Q 14.984375 37.109375 14.984375 27.296875 
Q 14.984375 17.484375 19.15625 11.84375 
Q 23.34375 6.203125 30.609375 6.203125 
Q 37.796875 6.203125 41.984375 11.859375 
Q 46.1875 17.53125 46.1875 27.296875 
Q 46.1875 37.015625 41.984375 42.703125 
Q 37.796875 48.390625 30.609375 48.390625 
z
M 30.609375 56 
Q 42.328125 56 49.015625 48.375 
Q 55.71875 40.765625 55.71875 27.296875 
Q 55.71875 13.875 49.015625 6.21875 
Q 42.328125 -1.421875 30.609375 -1.421875 
Q 18.84375 -1.421875 12.171875 6.21875 
Q 5.515625 13.875 5.515625 27.296875 
Q 5.515625 40.765625 12.171875 48.375 
Q 18.84375 56 30.609375 56 
z
" id="DejaVuSans-111"/>
      <path d="M 45.40625 27.984375 
Q 45.40625 37.75 41.375 43.109375 
Q 37.359375 48.484375 30.078125 48.484375 
Q 22.859375 48.484375 18.828125 43.109375 
Q 14.796875 37.75 14.796875 27.984375 
Q 14.796875 18.265625 18.828125 12.890625 
Q 22.859375 7.515625 30.078125 7.515625 
Q 37.359375 7.515625 41.375 12.890625 
Q 45.40625 18.265625 45.40625 27.984375 
z
M 54.390625 6.78125 
Q 54.390625 -7.171875 48.1875 -13.984375 
Q 42 -20.796875 29.203125 -20.796875 
Q 24.46875 -20.796875 20.265625 -20.09375 
Q 16.0625 -19.390625 12.109375 -17.921875 
L 12.109375 -9.1875 
Q 16.0625 -11.328125 19.921875 -12.34375 
Q 23.78125 -13.375 27.78125 -13.375 
Q 36.625 -13.375 41.015625 -8.765625 
Q 45.40625 -4.15625 45.40625 5.171875 
L 45.40625 9.625 
Q 42.625 4.78125 38.28125 2.390625 
Q 33.9375 0 27.875 0 
Q 17.828125 0 11.671875 7.65625 
Q 5.515625 15.328125 5.515625 27.984375 
Q 5.515625 40.671875 11.671875 48.328125 
Q 17.828125 56 27.875 56 
Q 33.9375 56 38.28125 53.609375 
Q 42.625 51.21875 45.40625 46.390625 
L 45.40625 54.6875 
L 54.390625 54.6875 
z
" id="DejaVuSans-103"/>
      <path d="M 31.78125 66.40625 
Q 24.171875 66.40625 20.328125 58.90625 
Q 16.5 51.421875 16.5 36.375 
Q 16.5 21.390625 20.328125 13.890625 
Q 24.171875 6.390625 31.78125 6.390625 
Q 39.453125 6.390625 43.28125 13.890625 
Q 47.125 21.390625 47.125 36.375 
Q 47.125 51.421875 43.28125 58.90625 
Q 39.453125 66.40625 31.78125 66.40625 
z
M 31.78125 74.21875 
Q 44.046875 74.21875 50.515625 64.515625 
Q 56.984375 54.828125 56.984375 36.375 
Q 56.984375 17.96875 50.515625 8.265625 
Q 44.046875 -1.421875 31.78125 -1.421875 
Q 19.53125 -1.421875 13.0625 8.265625 
Q 6.59375 17.96875 6.59375 36.375 
Q 6.59375 54.828125 13.0625 64.515625 
Q 19.53125 74.21875 31.78125 74.21875 
z
" id="DejaVuSans-48"/>
      <path id="DejaVuSans-32"/>
      <path d="M 37.109375 75.984375 
L 37.109375 68.5 
L 28.515625 68.5 
Q 23.6875 68.5 21.796875 66.546875 
Q 19.921875 64.59375 19.921875 59.515625 
L 19.921875 54.6875 
L 34.71875 54.6875 
L 34.71875 47.703125 
L 19.921875 47.703125 
L 19.921875 0 
L 10.890625 0 
L 10.890625 47.703125 
L 2.296875 47.703125 
L 2.296875 54.6875 
L 10.890625 54.6875 
L 10.890625 58.5 
Q 10.890625 67.625 15.140625 71.796875 
Q 19.390625 75.984375 28.609375 75.984375 
z
" id="DejaVuSans-102"/>
      <path d="M 9.8125 72.90625 
L 51.703125 72.90625 
L 51.703125 64.59375 
L 19.671875 64.59375 
L 19.671875 43.109375 
L 48.578125 43.109375 
L 48.578125 34.8125 
L 19.671875 34.8125 
L 19.671875 0 
L 9.8125 0 
z
" id="DejaVuSans-70"/>
      <path d="M 9.8125 72.90625 
L 55.90625 72.90625 
L 55.90625 64.59375 
L 19.671875 64.59375 
L 19.671875 43.015625 
L 54.390625 43.015625 
L 54.390625 34.71875 
L 19.671875 34.71875 
L 19.671875 8.296875 
L 56.78125 8.296875 
L 56.78125 0 
L 9.8125 0 
z
" id="DejaVuSans-69"/>
      <path d="M 2.984375 54.6875 
L 12.5 54.6875 
L 29.59375 8.796875 
L 46.6875 54.6875 
L 56.203125 54.6875 
L 35.6875 0 
L 23.484375 0 
z
" id="DejaVuSans-118"/>
      <path d="M 34.28125 27.484375 
Q 23.390625 27.484375 19.1875 25 
Q 14.984375 22.515625 14.984375 16.5 
Q 14.984375 11.71875 18.140625 8.90625 
Q 21.296875 6.109375 26.703125 6.109375 
Q 34.1875 6.109375 38.703125 11.40625 
Q 43.21875 16.703125 43.21875 25.484375 
L 43.21875 27.484375 
z
M 52.203125 31.203125 
L 52.203125 0 
L 43.21875 0 
L 43.21875 8.296875 
Q 40.140625 3.328125 35.546875 0.953125 
Q 30.953125 -1.421875 24.3125 -1.421875 
Q 15.921875 -1.421875 10.953125 3.296875 
Q 6 8.015625 6 15.921875 
Q 6 25.140625 12.171875 29.828125 
Q 18.359375 34.515625 30.609375 34.515625 
L 43.21875 34.515625 
L 43.21875 35.40625 
Q 43.21875 41.609375 39.140625 45 
Q 35.0625 48.390625 27.6875 48.390625 
Q 23 48.390625 18.546875 47.265625 
Q 14.109375 46.140625 10.015625 43.890625 
L 10.015625 52.203125 
Q 14.9375 54.109375 19.578125 55.046875 
Q 24.21875 56 28.609375 56 
Q 40.484375 56 46.34375 49.84375 
Q 52.203125 43.703125 52.203125 31.203125 
z
" id="DejaVuSans-97"/>
      <path d="M 44.28125 53.078125 
L 44.28125 44.578125 
Q 40.484375 46.53125 36.375 47.5 
Q 32.28125 48.484375 27.875 48.484375 
Q 21.1875 48.484375 17.84375 46.4375 
Q 14.5 44.390625 14.5 40.28125 
Q 14.5 37.15625 16.890625 35.375 
Q 19.28125 33.59375 26.515625 31.984375 
L 29.59375 31.296875 
Q 39.15625 29.25 43.1875 25.515625 
Q 47.21875 21.78125 47.21875 15.09375 
Q 47.21875 7.46875 41.1875 3.015625 
Q 35.15625 -1.421875 24.609375 -1.421875 
Q 20.21875 -1.421875 15.453125 -0.5625 
Q 10.6875 0.296875 5.421875 2 
L 5.421875 11.28125 
Q 10.40625 8.6875 15.234375 7.390625 
Q 20.0625 6.109375 24.8125 6.109375 
Q 31.15625 6.109375 34.5625 8.28125 
Q 37.984375 10.453125 37.984375 14.40625 
Q 37.984375 18.0625 35.515625 20.015625 
Q 33.0625 21.96875 24.703125 23.78125 
L 21.578125 24.515625 
Q 13.234375 26.265625 9.515625 29.90625 
Q 5.8125 33.546875 5.8125 39.890625 
Q 5.8125 47.609375 11.28125 51.796875 
Q 16.75 56 26.8125 56 
Q 31.78125 56 36.171875 55.265625 
Q 40.578125 54.546875 44.28125 53.078125 
z
" id="DejaVuSans-115"/>
      <path d="M 25.390625 72.90625 
L 33.6875 72.90625 
L 8.296875 -9.28125 
L 0 -9.28125 
z
" id="DejaVuSans-47"/>
      <path d="M 19.671875 64.796875 
L 19.671875 8.109375 
L 31.59375 8.109375 
Q 46.6875 8.109375 53.6875 14.9375 
Q 60.6875 21.78125 60.6875 36.53125 
Q 60.6875 51.171875 53.6875 57.984375 
Q 46.6875 64.796875 31.59375 64.796875 
z
M 9.8125 72.90625 
L 30.078125 72.90625 
Q 51.265625 72.90625 61.171875 64.09375 
Q 71.09375 55.28125 71.09375 36.53125 
Q 71.09375 17.671875 61.125 8.828125 
Q 51.171875 0 30.078125 0 
L 9.8125 0 
z
" id="DejaVuSans-68"/>
      <path d="M 9.8125 72.90625 
L 19.671875 72.90625 
L 19.671875 0 
L 9.8125 0 
z
" id="DejaVuSans-73"/>
      <path d="M 9.8125 72.90625 
L 24.515625 72.90625 
L 43.109375 23.296875 
L 61.8125 72.90625 
L 76.515625 72.90625 
L 76.515625 0 
L 66.890625 0 
L 66.890625 64.015625 
L 48.09375 14.015625 
L 38.1875 14.015625 
L 19.390625 64.015625 
L 19.390625 0 
L 9.8125 0 
z
" id="DejaVuSans-77"/>
     </defs>
     <g transform="translate(156.430563 339.313125)scale(0.2 -0.2)">
      <use xlink:href="#DejaVuSans-108"/>
      <use x="27.783203" xlink:href="#DejaVuSans-111"/>
      <use x="88.964844" xlink:href="#DejaVuSans-103"/>
      <use x="152.441406" xlink:href="#DejaVuSans-49"/>
      <use x="216.064453" xlink:href="#DejaVuSans-48"/>
      <use x="279.6875" xlink:href="#DejaVuSans-32"/>
      <use x="311.474609" xlink:href="#DejaVuSans-111"/>
      <use x="372.65625" xlink:href="#DejaVuSans-102"/>
      <use x="407.861328" xlink:href="#DejaVuSans-32"/>
      <use x="439.648438" xlink:href="#DejaVuSans-70"/>
      <use x="497.167969" xlink:href="#DejaVuSans-69"/>
      <use x="560.351562" xlink:href="#DejaVuSans-118"/>
      <use x="619.53125" xlink:href="#DejaVuSans-97"/>
      <use x="680.810547" xlink:href="#DejaVuSans-108"/>
      <use x="708.59375" xlink:href="#DejaVuSans-115"/>
      <use x="760.693359" xlink:href="#DejaVuSans-32"/>
      <use x="792.480469" xlink:href="#DejaVuSans-47"/>
      <use x="826.171875" xlink:href="#DejaVuSans-32"/>
      <use x="857.958984" xlink:href="#DejaVuSans-68"/>
      <use x="934.960938" xlink:href="#DejaVuSans-73"/>
      <use x="964.453125" xlink:href="#DejaVuSans-77"/>
     </g>
    </g>
   </g>
   <g id="matplotlib.axis_2">
    <g id="ytick_1">
     <g id="line2d_37">
      <path clip-path="url(#p7d18d81a29)" d="M 62.208 293.76 
L 460.8 293.76 
" style="fill:none;stroke:#b0b0b0;stroke-linecap:square;stroke-width:0.8;"/>
     </g>
     <g id="line2d_38">
      <defs>
       <path d="M 0 0 
L -3.5 0 
" id="m82af53c795" style="stroke:#000000;stroke-width:0.8;"/>
      </defs>
      <g>
       <use style="stroke:#000000;stroke-width:0.8;" x="62.208" xlink:href="#m82af53c795" y="293.76"/>
      </g>
     </g>
     <g id="text_5">
      <!-- 0.0 -->
      <defs>
       <path d="M 10.6875 12.40625 
L 21 12.40625 
L 21 0 
L 10.6875 0 
z
" id="DejaVuSans-46"/>
      </defs>
      <g transform="translate(29.763 299.83875)scale(0.16 -0.16)">
       <use xlink:href="#DejaVuSans-48"/>
       <use x="63.623047" xlink:href="#DejaVuSans-46"/>
       <use x="95.410156" xlink:href="#DejaVuSans-48"/>
      </g>
     </g>
    </g>
    <g id="ytick_2">
     <g id="line2d_39">
      <path clip-path="url(#p7d18d81a29)" d="M 62.208 236.274059 
L 460.8 236.274059 
" style="fill:none;stroke:#b0b0b0;stroke-linecap:square;stroke-width:0.8;"/>
     </g>
     <g id="line2d_40">
      <g>
       <use style="stroke:#000000;stroke-width:0.8;" x="62.208" xlink:href="#m82af53c795" y="236.274059"/>
      </g>
     </g>
     <g id="text_6">
      <!-- 0.2 -->
      <defs>
       <path d="M 19.1875 8.296875 
L 53.609375 8.296875 
L 53.609375 0 
L 7.328125 0 
L 7.328125 8.296875 
Q 12.9375 14.109375 22.625 23.890625 
Q 32.328125 33.6875 34.8125 36.53125 
Q 39.546875 41.84375 41.421875 45.53125 
Q 43.3125 49.21875 43.3125 52.78125 
Q 43.3125 58.59375 39.234375 62.25 
Q 35.15625 65.921875 28.609375 65.921875 
Q 23.96875 65.921875 18.8125 64.3125 
Q 13.671875 62.703125 7.8125 59.421875 
L 7.8125 69.390625 
Q 13.765625 71.78125 18.9375 73 
Q 24.125 74.21875 28.421875 74.21875 
Q 39.75 74.21875 46.484375 68.546875 
Q 53.21875 62.890625 53.21875 53.421875 
Q 53.21875 48.921875 51.53125 44.890625 
Q 49.859375 40.875 45.40625 35.40625 
Q 44.1875 33.984375 37.640625 27.21875 
Q 31.109375 20.453125 19.1875 8.296875 
z
" id="DejaVuSans-50"/>
      </defs>
      <g transform="translate(29.763 242.352809)scale(0.16 -0.16)">
       <use xlink:href="#DejaVuSans-48"/>
       <use x="63.623047" xlink:href="#DejaVuSans-46"/>
       <use x="95.410156" xlink:href="#DejaVuSans-50"/>
      </g>
     </g>
    </g>
    <g id="ytick_3">
     <g id="line2d_41">
      <path clip-path="url(#p7d18d81a29)" d="M 62.208 178.788119 
L 460.8 178.788119 
" style="fill:none;stroke:#b0b0b0;stroke-linecap:square;stroke-width:0.8;"/>
     </g>
     <g id="line2d_42">
      <g>
       <use style="stroke:#000000;stroke-width:0.8;" x="62.208" xlink:href="#m82af53c795" y="178.788119"/>
      </g>
     </g>
     <g id="text_7">
      <!-- 0.4 -->
      <defs>
       <path d="M 37.796875 64.3125 
L 12.890625 25.390625 
L 37.796875 25.390625 
z
M 35.203125 72.90625 
L 47.609375 72.90625 
L 47.609375 25.390625 
L 58.015625 25.390625 
L 58.015625 17.1875 
L 47.609375 17.1875 
L 47.609375 0 
L 37.796875 0 
L 37.796875 17.1875 
L 4.890625 17.1875 
L 4.890625 26.703125 
z
" id="DejaVuSans-52"/>
      </defs>
      <g transform="translate(29.763 184.866869)scale(0.16 -0.16)">
       <use xlink:href="#DejaVuSans-48"/>
       <use x="63.623047" xlink:href="#DejaVuSans-46"/>
       <use x="95.410156" xlink:href="#DejaVuSans-52"/>
      </g>
     </g>
    </g>
    <g id="ytick_4">
     <g id="line2d_43">
      <path clip-path="url(#p7d18d81a29)" d="M 62.208 121.302178 
L 460.8 121.302178 
" style="fill:none;stroke:#b0b0b0;stroke-linecap:square;stroke-width:0.8;"/>
     </g>
     <g id="line2d_44">
      <g>
       <use style="stroke:#000000;stroke-width:0.8;" x="62.208" xlink:href="#m82af53c795" y="121.302178"/>
      </g>
     </g>
     <g id="text_8">
      <!-- 0.6 -->
      <defs>
       <path d="M 33.015625 40.375 
Q 26.375 40.375 22.484375 35.828125 
Q 18.609375 31.296875 18.609375 23.390625 
Q 18.609375 15.53125 22.484375 10.953125 
Q 26.375 6.390625 33.015625 6.390625 
Q 39.65625 6.390625 43.53125 10.953125 
Q 47.40625 15.53125 47.40625 23.390625 
Q 47.40625 31.296875 43.53125 35.828125 
Q 39.65625 40.375 33.015625 40.375 
z
M 52.59375 71.296875 
L 52.59375 62.3125 
Q 48.875 64.0625 45.09375 64.984375 
Q 41.3125 65.921875 37.59375 65.921875 
Q 27.828125 65.921875 22.671875 59.328125 
Q 17.53125 52.734375 16.796875 39.40625 
Q 19.671875 43.65625 24.015625 45.921875 
Q 28.375 48.1875 33.59375 48.1875 
Q 44.578125 48.1875 50.953125 41.515625 
Q 57.328125 34.859375 57.328125 23.390625 
Q 57.328125 12.15625 50.6875 5.359375 
Q 44.046875 -1.421875 33.015625 -1.421875 
Q 20.359375 -1.421875 13.671875 8.265625 
Q 6.984375 17.96875 6.984375 36.375 
Q 6.984375 53.65625 15.1875 63.9375 
Q 23.390625 74.21875 37.203125 74.21875 
Q 40.921875 74.21875 44.703125 73.484375 
Q 48.484375 72.75 52.59375 71.296875 
z
" id="DejaVuSans-54"/>
      </defs>
      <g transform="translate(29.763 127.380928)scale(0.16 -0.16)">
       <use xlink:href="#DejaVuSans-48"/>
       <use x="63.623047" xlink:href="#DejaVuSans-46"/>
       <use x="95.410156" xlink:href="#DejaVuSans-54"/>
      </g>
     </g>
    </g>
    <g id="ytick_5">
     <g id="line2d_45">
      <path clip-path="url(#p7d18d81a29)" d="M 62.208 63.816238 
L 460.8 63.816238 
" style="fill:none;stroke:#b0b0b0;stroke-linecap:square;stroke-width:0.8;"/>
     </g>
     <g id="line2d_46">
      <g>
       <use style="stroke:#000000;stroke-width:0.8;" x="62.208" xlink:href="#m82af53c795" y="63.816238"/>
      </g>
     </g>
     <g id="text_9">
      <!-- 0.8 -->
      <defs>
       <path d="M 31.78125 34.625 
Q 24.75 34.625 20.71875 30.859375 
Q 16.703125 27.09375 16.703125 20.515625 
Q 16.703125 13.921875 20.71875 10.15625 
Q 24.75 6.390625 31.78125 6.390625 
Q 38.8125 6.390625 42.859375 10.171875 
Q 46.921875 13.96875 46.921875 20.515625 
Q 46.921875 27.09375 42.890625 30.859375 
Q 38.875 34.625 31.78125 34.625 
z
M 21.921875 38.8125 
Q 15.578125 40.375 12.03125 44.71875 
Q 8.5 49.078125 8.5 55.328125 
Q 8.5 64.0625 14.71875 69.140625 
Q 20.953125 74.21875 31.78125 74.21875 
Q 42.671875 74.21875 48.875 69.140625 
Q 55.078125 64.0625 55.078125 55.328125 
Q 55.078125 49.078125 51.53125 44.71875 
Q 48 40.375 41.703125 38.8125 
Q 48.828125 37.15625 52.796875 32.3125 
Q 56.78125 27.484375 56.78125 20.515625 
Q 56.78125 9.90625 50.3125 4.234375 
Q 43.84375 -1.421875 31.78125 -1.421875 
Q 19.734375 -1.421875 13.25 4.234375 
Q 6.78125 9.90625 6.78125 20.515625 
Q 6.78125 27.484375 10.78125 32.3125 
Q 14.796875 37.15625 21.921875 38.8125 
z
M 18.3125 54.390625 
Q 18.3125 48.734375 21.84375 45.5625 
Q 25.390625 42.390625 31.78125 42.390625 
Q 38.140625 42.390625 41.71875 45.5625 
Q 45.3125 48.734375 45.3125 54.390625 
Q 45.3125 60.0625 41.71875 63.234375 
Q 38.140625 66.40625 31.78125 66.40625 
Q 25.390625 66.40625 21.84375 63.234375 
Q 18.3125 60.0625 18.3125 54.390625 
z
" id="DejaVuSans-56"/>
      </defs>
      <g transform="translate(29.763 69.894988)scale(0.16 -0.16)">
       <use xlink:href="#DejaVuSans-48"/>
       <use x="63.623047" xlink:href="#DejaVuSans-46"/>
       <use x="95.410156" xlink:href="#DejaVuSans-56"/>
      </g>
     </g>
    </g>
    <g id="ytick_6">
     <g id="line2d_47">
      <path clip-path="url(#p7d18d81a29)" d="M 62.208 6.330297 
L 460.8 6.330297 
" style="fill:none;stroke:#b0b0b0;stroke-linecap:square;stroke-width:0.8;"/>
     </g>
     <g id="line2d_48">
      <g>
       <use style="stroke:#000000;stroke-width:0.8;" x="62.208" xlink:href="#m82af53c795" y="6.330297"/>
      </g>
     </g>
     <g id="text_10">
      <!-- 1.0 -->
      <g transform="translate(29.763 12.409047)scale(0.16 -0.16)">
       <use xlink:href="#DejaVuSans-49"/>
       <use x="63.623047" xlink:href="#DejaVuSans-46"/>
       <use x="95.410156" xlink:href="#DejaVuSans-48"/>
      </g>
     </g>
    </g>
    <g id="text_11">
     <!-- proportion of trials -->
     <defs>
      <path d="M 18.109375 8.203125 
L 18.109375 -20.796875 
L 9.078125 -20.796875 
L 9.078125 54.6875 
L 18.109375 54.6875 
L 18.109375 46.390625 
Q 20.953125 51.265625 25.265625 53.625 
Q 29.59375 56 35.59375 56 
Q 45.5625 56 51.78125 48.09375 
Q 58.015625 40.1875 58.015625 27.296875 
Q 58.015625 14.40625 51.78125 6.484375 
Q 45.5625 -1.421875 35.59375 -1.421875 
Q 29.59375 -1.421875 25.265625 0.953125 
Q 20.953125 3.328125 18.109375 8.203125 
z
M 48.6875 27.296875 
Q 48.6875 37.203125 44.609375 42.84375 
Q 40.53125 48.484375 33.40625 48.484375 
Q 26.265625 48.484375 22.1875 42.84375 
Q 18.109375 37.203125 18.109375 27.296875 
Q 18.109375 17.390625 22.1875 11.75 
Q 26.265625 6.109375 33.40625 6.109375 
Q 40.53125 6.109375 44.609375 11.75 
Q 48.6875 17.390625 48.6875 27.296875 
z
" id="DejaVuSans-112"/>
      <path d="M 41.109375 46.296875 
Q 39.59375 47.171875 37.8125 47.578125 
Q 36.03125 48 33.890625 48 
Q 26.265625 48 22.1875 43.046875 
Q 18.109375 38.09375 18.109375 28.8125 
L 18.109375 0 
L 9.078125 0 
L 9.078125 54.6875 
L 18.109375 54.6875 
L 18.109375 46.1875 
Q 20.953125 51.171875 25.484375 53.578125 
Q 30.03125 56 36.53125 56 
Q 37.453125 56 38.578125 55.875 
Q 39.703125 55.765625 41.0625 55.515625 
z
" id="DejaVuSans-114"/>
      <path d="M 18.3125 70.21875 
L 18.3125 54.6875 
L 36.8125 54.6875 
L 36.8125 47.703125 
L 18.3125 47.703125 
L 18.3125 18.015625 
Q 18.3125 11.328125 20.140625 9.421875 
Q 21.96875 7.515625 27.59375 7.515625 
L 36.8125 7.515625 
L 36.8125 0 
L 27.59375 0 
Q 17.1875 0 13.234375 3.875 
Q 9.28125 7.765625 9.28125 18.015625 
L 9.28125 47.703125 
L 2.6875 47.703125 
L 2.6875 54.6875 
L 9.28125 54.6875 
L 9.28125 70.21875 
z
" id="DejaVuSans-116"/>
      <path d="M 9.421875 54.6875 
L 18.40625 54.6875 
L 18.40625 0 
L 9.421875 0 
z
M 9.421875 75.984375 
L 18.40625 75.984375 
L 18.40625 64.59375 
L 9.421875 64.59375 
z
" id="DejaVuSans-105"/>
      <path d="M 54.890625 33.015625 
L 54.890625 0 
L 45.90625 0 
L 45.90625 32.71875 
Q 45.90625 40.484375 42.875 44.328125 
Q 39.84375 48.1875 33.796875 48.1875 
Q 26.515625 48.1875 22.3125 43.546875 
Q 18.109375 38.921875 18.109375 30.90625 
L 18.109375 0 
L 9.078125 0 
L 9.078125 54.6875 
L 18.109375 54.6875 
L 18.109375 46.1875 
Q 21.34375 51.125 25.703125 53.5625 
Q 30.078125 56 35.796875 56 
Q 45.21875 56 50.046875 50.171875 
Q 54.890625 44.34375 54.890625 33.015625 
z
" id="DejaVuSans-110"/>
     </defs>
     <g transform="translate(21.603625 241.836125)rotate(-90)scale(0.2 -0.2)">
      <use xlink:href="#DejaVuSans-112"/>
      <use x="63.476562" xlink:href="#DejaVuSans-114"/>
      <use x="104.558594" xlink:href="#DejaVuSans-111"/>
      <use x="165.740234" xlink:href="#DejaVuSans-112"/>
      <use x="229.216797" xlink:href="#DejaVuSans-111"/>
      <use x="290.398438" xlink:href="#DejaVuSans-114"/>
      <use x="331.511719" xlink:href="#DejaVuSans-116"/>
      <use x="370.720703" xlink:href="#DejaVuSans-105"/>
      <use x="398.503906" xlink:href="#DejaVuSans-111"/>
      <use x="459.685547" xlink:href="#DejaVuSans-110"/>
      <use x="523.064453" xlink:href="#DejaVuSans-32"/>
      <use x="554.851562" xlink:href="#DejaVuSans-111"/>
      <use x="616.033203" xlink:href="#DejaVuSans-102"/>
      <use x="651.238281" xlink:href="#DejaVuSans-32"/>
      <use x="683.025391" xlink:href="#DejaVuSans-116"/>
      <use x="722.234375" xlink:href="#DejaVuSans-114"/>
      <use x="763.347656" xlink:href="#DejaVuSans-105"/>
      <use x="791.130859" xlink:href="#DejaVuSans-97"/>
      <use x="852.410156" xlink:href="#DejaVuSans-108"/>
      <use x="880.193359" xlink:href="#DejaVuSans-115"/>
     </g>
    </g>
   </g>
   <g id="line2d_49"/>
   <g id="line2d_50"/>
   <g id="line2d_51"/>
   <g id="line2d_52"/>
   <g id="line2d_53">
    <path clip-path="url(#p7d18d81a29)" d="M 207.090658 293.76 
L 207.090658 3.456 
" style="fill:none;stroke:#000000;stroke-linecap:square;stroke-width:1.5;"/>
   </g>
   <g id="patch_3">
    <path d="M 62.208 293.76 
L 62.208 3.456 
" style="fill:none;stroke:#000000;stroke-linecap:square;stroke-linejoin:miter;stroke-width:0.8;"/>
   </g>
   <g id="patch_4">
    <path d="M 460.8 293.76 
L 460.8 3.456 
" style="fill:none;stroke:#000000;stroke-linecap:square;stroke-linejoin:miter;stroke-width:0.8;"/>
   </g>
   <g id="patch_5">
    <path d="M 62.208 293.76 
L 460.8 293.76 
" style="fill:none;stroke:#000000;stroke-linecap:square;stroke-linejoin:miter;stroke-width:0.8;"/>
   </g>
   <g id="patch_6">
    <path d="M 62.208 3.456 
L 460.8 3.456 
" style="fill:none;stroke:#000000;stroke-linecap:square;stroke-linejoin:miter;stroke-width:0.8;"/>
   </g>
   <g id="text_12">
    <!-- {f10-f14}, 20-D -->
    <defs>
     <path d="M 51.125 -9.28125 
L 51.125 -16.3125 
L 48.09375 -16.3125 
Q 35.9375 -16.3125 31.8125 -12.6875 
Q 27.6875 -9.078125 27.6875 1.703125 
L 27.6875 13.375 
Q 27.6875 20.75 25.046875 23.578125 
Q 22.40625 26.421875 15.484375 26.421875 
L 12.5 26.421875 
L 12.5 33.40625 
L 15.484375 33.40625 
Q 22.46875 33.40625 25.078125 36.203125 
Q 27.6875 39.015625 27.6875 46.296875 
L 27.6875 58.015625 
Q 27.6875 68.796875 31.8125 72.390625 
Q 35.9375 75.984375 48.09375 75.984375 
L 51.125 75.984375 
L 51.125 69 
L 47.796875 69 
Q 40.921875 69 38.8125 66.84375 
Q 36.71875 64.703125 36.71875 57.8125 
L 36.71875 45.703125 
Q 36.71875 38.03125 34.5 34.5625 
Q 32.28125 31.109375 26.90625 29.890625 
Q 32.328125 28.5625 34.515625 25.09375 
Q 36.71875 21.625 36.71875 14.015625 
L 36.71875 1.90625 
Q 36.71875 -4.984375 38.8125 -7.125 
Q 40.921875 -9.28125 47.796875 -9.28125 
z
" id="DejaVuSans-123"/>
     <path d="M 4.890625 31.390625 
L 31.203125 31.390625 
L 31.203125 23.390625 
L 4.890625 23.390625 
z
" id="DejaVuSans-45"/>
     <path d="M 12.5 -9.28125 
L 15.921875 -9.28125 
Q 22.75 -9.28125 24.828125 -7.171875 
Q 26.90625 -5.078125 26.90625 1.90625 
L 26.90625 14.015625 
Q 26.90625 21.625 29.09375 25.09375 
Q 31.296875 28.5625 36.71875 29.890625 
Q 31.296875 31.109375 29.09375 34.5625 
Q 26.90625 38.03125 26.90625 45.703125 
L 26.90625 57.8125 
Q 26.90625 64.75 24.828125 66.875 
Q 22.75 69 15.921875 69 
L 12.5 69 
L 12.5 75.984375 
L 15.578125 75.984375 
Q 27.734375 75.984375 31.8125 72.390625 
Q 35.890625 68.796875 35.890625 58.015625 
L 35.890625 46.296875 
Q 35.890625 39.015625 38.515625 36.203125 
Q 41.15625 33.40625 48.09375 33.40625 
L 51.125 33.40625 
L 51.125 26.421875 
L 48.09375 26.421875 
Q 41.15625 26.421875 38.515625 23.578125 
Q 35.890625 20.75 35.890625 13.375 
L 35.890625 1.703125 
Q 35.890625 -9.078125 31.8125 -12.6875 
Q 27.734375 -16.3125 15.578125 -16.3125 
L 12.5 -16.3125 
z
" id="DejaVuSans-125"/>
     <path d="M 11.71875 12.40625 
L 22.015625 12.40625 
L 22.015625 4 
L 14.015625 -11.625 
L 7.71875 -11.625 
L 11.71875 4 
z
" id="DejaVuSans-44"/>
    </defs>
    <g transform="translate(182.2915 24.458955)scale(0.2 -0.2)">
     <use xlink:href="#DejaVuSans-123"/>
     <use x="63.623047" xlink:href="#DejaVuSans-102"/>
     <use x="98.828125" xlink:href="#DejaVuSans-49"/>
     <use x="162.451172" xlink:href="#DejaVuSans-48"/>
     <use x="226.074219" xlink:href="#DejaVuSans-45"/>
     <use x="262.158203" xlink:href="#DejaVuSans-102"/>
     <use x="297.363281" xlink:href="#DejaVuSans-49"/>
     <use x="360.986328" xlink:href="#DejaVuSans-52"/>
     <use x="424.609375" xlink:href="#DejaVuSans-125"/>
     <use x="488.232422" xlink:href="#DejaVuSans-44"/>
     <use x="520.019531" xlink:href="#DejaVuSans-32"/>
     <use x="551.806641" xlink:href="#DejaVuSans-50"/>
     <use x="615.429688" xlink:href="#DejaVuSans-48"/>
     <use x="679.052734" xlink:href="#DejaVuSans-45"/>
     <use x="715.136719" xlink:href="#DejaVuSans-68"/>
    </g>
   </g>
   <g id="text_13">
    <!-- absolute targets -->
    <defs>
     <path d="M 48.6875 27.296875 
Q 48.6875 37.203125 44.609375 42.84375 
Q 40.53125 48.484375 33.40625 48.484375 
Q 26.265625 48.484375 22.1875 42.84375 
Q 18.109375 37.203125 18.109375 27.296875 
Q 18.109375 17.390625 22.1875 11.75 
Q 26.265625 6.109375 33.40625 6.109375 
Q 40.53125 6.109375 44.609375 11.75 
Q 48.6875 17.390625 48.6875 27.296875 
z
M 18.109375 46.390625 
Q 20.953125 51.265625 25.265625 53.625 
Q 29.59375 56 35.59375 56 
Q 45.5625 56 51.78125 48.09375 
Q 58.015625 40.1875 58.015625 27.296875 
Q 58.015625 14.40625 51.78125 6.484375 
Q 45.5625 -1.421875 35.59375 -1.421875 
Q 29.59375 -1.421875 25.265625 0.953125 
Q 20.953125 3.328125 18.109375 8.203125 
L 18.109375 0 
L 9.078125 0 
L 9.078125 75.984375 
L 18.109375 75.984375 
z
" id="DejaVuSans-98"/>
     <path d="M 8.5 21.578125 
L 8.5 54.6875 
L 17.484375 54.6875 
L 17.484375 21.921875 
Q 17.484375 14.15625 20.5 10.265625 
Q 23.53125 6.390625 29.59375 6.390625 
Q 36.859375 6.390625 41.078125 11.03125 
Q 45.3125 15.671875 45.3125 23.6875 
L 45.3125 54.6875 
L 54.296875 54.6875 
L 54.296875 0 
L 45.3125 0 
L 45.3125 8.40625 
Q 42.046875 3.421875 37.71875 1 
Q 33.40625 -1.421875 27.6875 -1.421875 
Q 18.265625 -1.421875 13.375 4.4375 
Q 8.5 10.296875 8.5 21.578125 
z
M 31.109375 56 
z
" id="DejaVuSans-117"/>
     <path d="M 56.203125 29.59375 
L 56.203125 25.203125 
L 14.890625 25.203125 
Q 15.484375 15.921875 20.484375 11.0625 
Q 25.484375 6.203125 34.421875 6.203125 
Q 39.59375 6.203125 44.453125 7.46875 
Q 49.3125 8.734375 54.109375 11.28125 
L 54.109375 2.78125 
Q 49.265625 0.734375 44.1875 -0.34375 
Q 39.109375 -1.421875 33.890625 -1.421875 
Q 20.796875 -1.421875 13.15625 6.1875 
Q 5.515625 13.8125 5.515625 26.8125 
Q 5.515625 40.234375 12.765625 48.109375 
Q 20.015625 56 32.328125 56 
Q 43.359375 56 49.78125 48.890625 
Q 56.203125 41.796875 56.203125 29.59375 
z
M 47.21875 32.234375 
Q 47.125 39.59375 43.09375 43.984375 
Q 39.0625 48.390625 32.421875 48.390625 
Q 24.90625 48.390625 20.390625 44.140625 
Q 15.875 39.890625 15.1875 32.171875 
z
" id="DejaVuSans-101"/>
    </defs>
    <g transform="translate(62.208 308.131485)scale(0.14 -0.14)">
     <use xlink:href="#DejaVuSans-97"/>
     <use x="61.279297" xlink:href="#DejaVuSans-98"/>
     <use x="124.755859" xlink:href="#DejaVuSans-115"/>
     <use x="176.855469" xlink:href="#DejaVuSans-111"/>
     <use x="238.037109" xlink:href="#DejaVuSans-108"/>
     <use x="265.820312" xlink:href="#DejaVuSans-117"/>
     <use x="329.199219" xlink:href="#DejaVuSans-116"/>
     <use x="368.408203" xlink:href="#DejaVuSans-101"/>
     <use x="429.931641" xlink:href="#DejaVuSans-32"/>
     <use x="461.71875" xlink:href="#DejaVuSans-116"/>
     <use x="500.927734" xlink:href="#DejaVuSans-97"/>
     <use x="562.207031" xlink:href="#DejaVuSans-114"/>
     <use x="603.304688" xlink:href="#DejaVuSans-103"/>
     <use x="666.78125" xlink:href="#DejaVuSans-101"/>
     <use x="728.304688" xlink:href="#DejaVuSans-116"/>
     <use x="767.513672" xlink:href="#DejaVuSans-115"/>
    </g>
   </g>
   <g id="text_14">
    <!-- v2.4 -->
    <g style="fill:#808080;" transform="translate(250.593063 288.777272)scale(0.1 -0.1)">
     <use xlink:href="#DejaVuSans-118"/>
     <use x="59.179688" xlink:href="#DejaVuSans-50"/>
     <use x="122.802734" xlink:href="#DejaVuSans-46"/>
     <use x="154.589844" xlink:href="#DejaVuSans-52"/>
    </g>
   </g>
   <g id="legend_1">
    <g id="patch_7">
     <path d="M 76.208 136.881 
L 205.429875 136.881 
Q 209.429875 136.881 209.429875 132.881 
L 209.429875 17.456 
Q 209.429875 13.456 205.429875 13.456 
L 76.208 13.456 
Q 72.208 13.456 72.208 17.456 
L 72.208 132.881 
Q 72.208 136.881 76.208 136.881 
z
" style="fill:#ffffff;opacity:0.2;stroke:#cccccc;stroke-linejoin:miter;"/>
    </g>
    <g id="line2d_54">
     <path d="M 80.208 29.652875 
L 120.208 29.652875 
" style="fill:none;stroke:#000000;stroke-linecap:square;stroke-width:1.5;"/>
    </g>
    <g id="line2d_55"/>
    <g id="text_15">
     <!-- 1: 0/5 -->
     <defs>
      <path d="M 11.71875 12.40625 
L 22.015625 12.40625 
L 22.015625 0 
L 11.71875 0 
z
M 11.71875 51.703125 
L 22.015625 51.703125 
L 22.015625 39.3125 
L 11.71875 39.3125 
z
" id="DejaVuSans-58"/>
     </defs>
     <g transform="translate(136.208 36.652875)scale(0.2 -0.2)">
      <use xlink:href="#DejaVuSans-49"/>
      <use x="63.623047" xlink:href="#DejaVuSans-58"/>
      <use x="97.314453" xlink:href="#DejaVuSans-32"/>
      <use x="129.101562" xlink:href="#DejaVuSans-48"/>
      <use x="192.724609" xlink:href="#DejaVuSans-47"/>
      <use x="226.416016" xlink:href="#DejaVuSans-53"/>
     </g>
    </g>
    <g id="line2d_56">
     <path d="M 80.208 59.009125 
L 120.208 59.009125 
" style="fill:none;stroke:#00bfbf;stroke-linecap:square;stroke-width:1.5;"/>
    </g>
    <g id="line2d_57"/>
    <g id="text_16">
     <!-- -1: 0/5 -->
     <g transform="translate(136.208 66.009125)scale(0.2 -0.2)">
      <use xlink:href="#DejaVuSans-45"/>
      <use x="36.083984" xlink:href="#DejaVuSans-49"/>
      <use x="99.707031" xlink:href="#DejaVuSans-58"/>
      <use x="133.398438" xlink:href="#DejaVuSans-32"/>
      <use x="165.185547" xlink:href="#DejaVuSans-48"/>
      <use x="228.808594" xlink:href="#DejaVuSans-47"/>
      <use x="262.5" xlink:href="#DejaVuSans-53"/>
     </g>
    </g>
    <g id="line2d_58">
     <path d="M 80.208 88.365375 
L 120.208 88.365375 
" style="fill:none;stroke:#bf00bf;stroke-linecap:square;stroke-width:1.5;"/>
    </g>
    <g id="line2d_59"/>
    <g id="text_17">
     <!-- -4: 0/5 -->
     <g transform="translate(136.208 95.365375)scale(0.2 -0.2)">
      <use xlink:href="#DejaVuSans-45"/>
      <use x="36.083984" xlink:href="#DejaVuSans-52"/>
      <use x="99.707031" xlink:href="#DejaVuSans-58"/>
      <use x="133.398438" xlink:href="#DejaVuSans-32"/>
      <use x="165.185547" xlink:href="#DejaVuSans-48"/>
      <use x="228.808594" xlink:href="#DejaVuSans-47"/>
      <use x="262.5" xlink:href="#DejaVuSans-53"/>
     </g>
    </g>
    <g id="line2d_60">
     <path d="M 80.208 117.721625 
L 120.208 117.721625 
" style="fill:none;stroke:#ff0000;stroke-linecap:square;stroke-width:3;"/>
    </g>
    <g id="line2d_61"/>
    <g id="text_18">
     <!-- -8: 0/5 -->
     <g transform="translate(136.208 124.721625)scale(0.2 -0.2)">
      <use xlink:href="#DejaVuSans-45"/>
      <use x="36.083984" xlink:href="#DejaVuSans-56"/>
      <use x="99.707031" xlink:href="#DejaVuSans-58"/>
      <use x="133.398438" xlink:href="#DejaVuSans-32"/>
      <use x="165.185547" xlink:href="#DejaVuSans-48"/>
      <use x="228.808594" xlink:href="#DejaVuSans-47"/>
      <use x="262.5" xlink:href="#DejaVuSans-53"/>
     </g>
    </g>
   </g>
  </g>
 </g>
 <defs>
  <clipPath id="p7d18d81a29">
   <rect height="290.304" width="398.592" x="62.208" y="3.456"/>
  </clipPath>
 </defs>
</svg>
