<?xml version="1.0" encoding="utf-8" standalone="no"?>
<!DOCTYPE svg PUBLIC "-//W3C//DTD SVG 1.1//EN"
  "http://www.w3.org/Graphics/SVG/1.1/DTD/svg11.dtd">
<!-- Created with matplotlib (https://matplotlib.org/) -->
<svg height="345.6pt" version="1.1" viewBox="0 0 460.8 345.6" width="460.8pt" xmlns="http://www.w3.org/2000/svg" xmlns:xlink="http://www.w3.org/1999/xlink">
 <defs>
  <style type="text/css">
*{stroke-linecap:butt;stroke-linejoin:round;}
  </style>
 </defs>
 <g id="figure_1">
  <g id="patch_1">
   <path d="M 0 345.6 
L 460.8 345.6 
L 460.8 0 
L 0 0 
z
" style="fill:#ffffff;"/>
  </g>
  <g id="axes_1">
   <g id="patch_2">
    <path d="M 62.208 293.76 
L 460.8 293.76 
L 460.8 3.456 
L 62.208 3.456 
z
" style="fill:#ffffff;"/>
   </g>
   <g id="line2d_1">
    <path clip-path="url(#p2819464ddc)" d="M 277.557074 293.76 
L 277.557074 289.927604 
L 280.757641 289.927604 
L 280.757641 286.095208 
L 281.898042 286.095208 
L 281.898042 282.262812 
L 282.317887 282.262812 
L 282.317887 278.430416 
L 282.687614 278.430416 
L 282.687614 274.59802 
L 283.41751 274.59802 
L 283.41751 270.765624 
L 283.462713 270.765624 
L 283.462713 266.933228 
L 283.732921 266.933228 
L 283.732921 263.100832 
L 285.534523 263.100832 
L 285.534523 259.268436 
L 286.638471 259.268436 
L 286.638471 255.43604 
L 287.096987 255.43604 
L 287.096987 251.603644 
L 287.386203 251.603644 
L 287.386203 247.771248 
L 301.591173 247.771248 
L 301.591173 243.938851 
L 307.256245 243.938851 
L 307.256245 240.106455 
L 307.563977 240.106455 
L 307.563977 236.274059 
L 312.182602 236.274059 
L 312.182602 232.441663 
L 312.524827 232.441663 
L 312.524827 228.609267 
L 318.233952 228.609267 
L 318.233952 224.776871 
L 328.6047 224.776871 
L 328.6047 220.944475 
L 329.098933 220.944475 
L 329.098933 217.112079 
L 332.419894 217.112079 
L 332.419894 213.279683 
L 342.724318 213.279683 
L 342.724318 209.447287 
L 351.222277 209.447287 
L 351.222277 205.614891 
L 372.621216 205.614891 
L 372.621216 201.782495 
L 376.135787 201.782495 
L 376.135787 197.950099 
L 381.48736 197.950099 
L 381.48736 194.117703 
L 403.149258 194.117703 
L 403.149258 190.285307 
L 413.372285 190.285307 
L 413.372285 186.452911 
L 418.56896 186.452911 
L 418.56896 182.620515 
L 418.56896 182.620515 
L 418.56896 182.620515 
L 460.8 182.620515 
" style="fill:none;stroke:#f5deb3;stroke-linecap:square;stroke-width:1.5;"/>
   </g>
   <g id="line2d_2"/>
   <g id="line2d_3">
    <path clip-path="url(#p2819464ddc)" d="M 173.806635 293.76 
L 173.806635 289.927604 
L 174.997905 289.927604 
L 174.997905 286.095208 
L 185.820639 286.095208 
L 185.820639 282.262812 
L 255.920985 282.262812 
L 255.920985 278.430416 
L 273.640799 278.430416 
L 273.640799 274.59802 
L 311.721952 274.59802 
L 311.721952 270.765624 
L 322.083493 270.765624 
L 322.083493 266.933228 
L 327.34324 266.933228 
L 327.34324 263.100832 
L 338.467458 263.100832 
L 338.467458 259.268436 
L 340.426834 259.268436 
L 340.426834 255.43604 
L 345.750729 255.43604 
L 345.750729 251.603644 
L 352.273785 251.603644 
L 352.273785 247.771248 
L 357.431669 247.771248 
L 357.431669 243.938851 
L 359.784966 243.938851 
L 359.784966 240.106455 
L 364.505606 240.106455 
L 364.505606 236.274059 
L 386.109706 236.274059 
L 386.109706 232.441663 
L 388.467365 232.441663 
L 388.467365 228.609267 
L 389.847632 228.609267 
L 389.847632 224.776871 
L 390.221971 224.776871 
L 390.221971 220.944475 
L 390.896802 220.944475 
L 390.896802 217.112079 
L 391.152422 217.112079 
L 391.152422 213.279683 
L 392.664769 213.279683 
L 392.664769 209.447287 
L 392.777321 209.447287 
L 392.777321 205.614891 
L 394.407684 205.614891 
L 394.407684 201.782495 
L 394.558173 201.782495 
L 394.558173 197.950099 
L 397.15159 197.950099 
L 397.15159 194.117703 
L 397.685701 194.117703 
L 397.685701 190.285307 
L 398.165198 190.285307 
L 398.165198 186.452911 
L 398.207159 186.452911 
L 398.207159 182.620515 
L 399.219475 182.620515 
L 399.219475 178.788119 
L 399.452817 178.788119 
L 399.452817 174.955723 
L 400.820828 174.955723 
L 400.820828 171.123327 
L 408.864517 171.123327 
L 408.864517 167.290931 
L 410.633775 167.290931 
L 410.633775 163.458535 
L 415.279229 163.458535 
L 415.279229 159.626139 
L 419.368345 159.626139 
L 419.368345 155.793743 
L 430.167344 155.793743 
L 430.167344 151.961347 
L 439.251707 151.961347 
L 439.251707 148.12895 
L 443.874303 148.12895 
L 443.874303 144.296554 
L 447.036245 144.296554 
L 447.036245 140.464158 
L 447.036245 140.464158 
L 447.036245 140.464158 
L 460.8 140.464158 
" style="fill:none;stroke:#f5deb3;stroke-linecap:square;stroke-width:1.5;"/>
   </g>
   <g id="line2d_4">
    <path clip-path="url(#p2819464ddc)" d="M 289.5923 293.76 
L 289.5923 289.927604 
L 295.52624 289.927604 
L 295.52624 286.095208 
L 296.665586 286.095208 
L 296.764658 278.430416 
L 296.896395 278.430416 
L 296.896395 274.59802 
L 298.604229 274.59802 
L 298.604229 270.765624 
L 299.32443 270.765624 
L 299.32443 266.933228 
L 300.819052 266.933228 
L 300.819052 263.100832 
L 301.058133 263.100832 
L 301.058133 259.268436 
L 302.580055 259.268436 
L 302.580055 255.43604 
L 303.602498 255.43604 
L 303.602498 251.603644 
L 304.215368 251.603644 
L 304.215368 247.771248 
L 304.873977 247.771248 
L 304.873977 243.938851 
L 305.064155 243.938851 
L 305.064155 240.106455 
L 305.441963 240.106455 
L 305.441963 236.274059 
L 305.709775 236.274059 
L 305.816426 224.776871 
L 306.108339 224.776871 
L 306.213991 217.112079 
L 306.424507 217.112079 
L 306.424507 213.279683 
L 307.436027 213.279683 
L 307.436027 209.447287 
L 308.248293 209.447287 
L 308.248293 205.614891 
L 308.573871 205.614891 
L 308.573871 201.782495 
L 308.723296 201.782495 
L 308.723296 197.950099 
L 309.413717 197.950099 
L 309.511434 190.285307 
L 311.162464 190.285307 
L 311.162464 186.452911 
L 311.582772 186.452911 
L 311.582772 182.620515 
L 311.906814 182.620515 
L 311.906814 178.788119 
L 312.319824 178.788119 
L 312.319824 174.955723 
L 312.954373 174.955723 
L 313.04425 167.290931 
L 313.290432 167.290931 
L 313.290432 163.458535 
L 314.042423 163.458535 
L 314.042423 159.626139 
L 314.695018 159.626139 
L 314.695018 155.793743 
L 315.038994 155.793743 
L 315.145915 148.12895 
L 315.188608 148.12895 
L 315.188608 144.296554 
L 315.528609 144.296554 
L 315.549768 136.631762 
L 316.158833 136.631762 
L 316.221342 128.96697 
L 316.573825 128.96697 
L 316.615101 121.302178 
L 317.20912 121.302178 
L 317.229455 113.637386 
L 317.47272 113.637386 
L 317.513128 105.972594 
L 318.214094 105.972594 
L 318.214094 102.140198 
L 318.491259 102.140198 
L 318.491259 98.307802 
L 320.720457 98.307802 
L 320.720457 94.475406 
L 323.333631 94.475406 
L 323.333631 90.64301 
L 324.837569 90.64301 
L 324.837569 86.810614 
L 326.25702 86.810614 
L 326.25702 82.978218 
L 330.369462 82.978218 
L 330.369462 79.145822 
L 338.712816 79.145822 
L 338.712816 75.313426 
L 339.066075 75.313426 
L 339.066075 71.48103 
L 340.415086 71.48103 
L 340.415086 67.648634 
L 340.894102 67.648634 
L 340.894102 63.816238 
L 341.160461 63.816238 
L 341.160461 59.983842 
L 344.328907 59.983842 
L 344.328907 56.151446 
L 347.753228 56.151446 
L 347.753228 52.31905 
L 356.317105 52.31905 
L 356.317105 48.486653 
L 360.986558 48.486653 
L 360.986558 44.654257 
L 366.826933 44.654257 
L 366.826933 40.821861 
L 367.021531 40.821861 
L 367.021531 36.989465 
L 371.441856 36.989465 
L 371.441856 33.157069 
L 377.672595 33.157069 
L 377.672595 29.324673 
L 380.828324 29.324673 
L 380.828324 25.492277 
L 394.289535 25.492277 
L 394.289535 21.659881 
L 400.464495 21.659881 
L 400.464495 17.827485 
L 403.781509 17.827485 
L 403.781509 13.995089 
L 405.738928 13.995089 
L 405.738928 10.162693 
L 414.518184 10.162693 
L 414.518184 6.330297 
L 414.518184 6.330297 
L 460.8 6.330297 
L 460.8 6.330297 
" style="fill:none;stroke:#f5deb3;stroke-linecap:square;stroke-width:1.5;"/>
   </g>
   <g id="line2d_5"/>
   <g id="line2d_6"/>
   <g id="line2d_7">
    <path clip-path="url(#p2819464ddc)" d="M 318.727392 293.76 
L 318.727392 289.927604 
L 319.408675 289.927604 
L 319.408675 286.095208 
L 320.003065 286.095208 
L 320.003065 282.262812 
L 320.626755 282.262812 
L 320.626755 278.430416 
L 320.757879 278.430416 
L 320.757879 274.59802 
L 322.784553 274.59802 
L 322.784553 270.765624 
L 322.944698 270.765624 
L 322.944698 266.933228 
L 323.579284 266.933228 
L 323.579284 263.100832 
L 323.96245 263.100832 
L 323.997112 255.43604 
L 324.221724 255.43604 
L 324.290595 243.938851 
L 324.376528 243.938851 
L 324.479417 236.274059 
L 324.837569 236.274059 
L 324.905446 228.609267 
L 324.973214 228.609267 
L 325.023969 220.944475 
L 325.192713 220.944475 
L 325.243206 205.614891 
L 325.794678 205.614891 
L 325.794678 201.782495 
L 325.960381 201.782495 
L 325.960381 197.950099 
L 326.273439 197.950099 
L 326.273439 194.117703 
L 327.005775 194.117703 
L 327.005775 190.285307 
L 327.263135 190.285307 
L 327.263135 186.452911 
L 327.534875 186.452911 
L 327.566729 178.788119 
L 327.693909 178.788119 
L 327.693909 174.955723 
L 327.836531 174.955723 
L 327.836531 171.123327 
L 328.198839 171.123327 
L 328.277192 163.458535 
L 328.806179 163.458535 
L 328.821638 155.793743 
L 329.068212 155.793743 
L 329.068212 151.961347 
L 330.025357 151.961347 
L 330.025357 148.12895 
L 330.666425 148.12895 
L 330.666425 144.296554 
L 331.181144 144.296554 
L 331.28334 136.631762 
L 331.312494 136.631762 
L 331.312494 132.799366 
L 331.516008 132.799366 
L 331.516008 128.96697 
L 331.718548 128.96697 
L 331.718548 125.134574 
L 332.716946 125.134574 
L 332.787366 117.469782 
L 333.678537 117.469782 
L 333.678537 113.637386 
L 336.951891 113.637386 
L 336.951891 109.80499 
L 337.231519 109.80499 
L 337.231519 105.972594 
L 341.436624 105.972594 
L 341.436624 102.140198 
L 341.59689 102.140198 
L 341.59689 98.307802 
L 343.46322 98.307802 
L 343.46322 94.475406 
L 344.702142 94.475406 
L 344.702142 90.64301 
L 344.861098 90.64301 
L 344.861098 86.810614 
L 346.101406 86.810614 
L 346.183497 79.145822 
L 346.864827 79.145822 
L 346.864827 75.313426 
L 347.03597 75.313426 
L 347.076138 67.648634 
L 347.881446 67.648634 
L 347.881446 63.816238 
L 349.133129 63.816238 
L 349.133129 59.983842 
L 349.532787 59.983842 
L 349.532787 56.151446 
L 350.939234 56.151446 
L 350.939234 52.31905 
L 353.455438 52.31905 
L 353.455438 48.486653 
L 354.063899 48.486653 
L 354.063899 44.654257 
L 356.333236 44.654257 
L 356.333236 40.821861 
L 358.723871 40.821861 
L 358.723871 36.989465 
L 365.079965 36.989465 
L 365.079965 33.157069 
L 373.084987 33.157069 
L 373.084987 29.324673 
L 383.033511 29.324673 
L 383.033511 25.492277 
L 385.575966 25.492277 
L 385.575966 21.659881 
L 389.085147 21.659881 
L 389.085147 17.827485 
L 389.767244 17.827485 
L 389.767244 13.995089 
L 399.391689 13.995089 
L 399.391689 10.162693 
L 444.070207 10.162693 
L 444.070207 6.330297 
L 444.070207 6.330297 
L 460.8 6.330297 
L 460.8 6.330297 
" style="fill:none;stroke:#f5deb3;stroke-linecap:square;stroke-width:1.5;"/>
   </g>
   <g id="line2d_8">
    <path clip-path="url(#p2819464ddc)" style="fill:none;stroke:#f5deb3;stroke-linecap:square;stroke-width:1.5;"/>
   </g>
   <g id="line2d_9">
    <path clip-path="url(#p2819464ddc)" d="M 313.290432 293.76 
L 313.290432 289.927604 
L 314.348221 289.927604 
L 314.348221 286.095208 
L 315.167267 286.095208 
L 315.167267 282.262812 
L 316.511835 282.262812 
L 316.511835 278.430416 
L 316.861915 278.430416 
L 316.861915 274.59802 
L 316.984784 274.59802 
L 316.984784 270.765624 
L 317.654254 270.765624 
L 317.654254 266.933228 
L 318.372696 266.933228 
L 318.372696 263.100832 
L 318.844965 263.100832 
L 318.844965 259.268436 
L 319.079137 259.268436 
L 319.156906 251.603644 
L 319.195738 251.603644 
L 319.21514 243.938851 
L 319.831359 243.938851 
L 319.831359 240.106455 
L 320.079156 240.106455 
L 320.079156 236.274059 
L 320.268785 236.274059 
L 320.287702 228.609267 
L 320.438728 228.609267 
L 320.438728 224.776871 
L 320.570435 224.776871 
L 320.570435 220.944475 
L 320.832625 220.944475 
L 320.925871 213.279683 
L 321.481074 213.279683 
L 321.481074 209.447287 
L 321.938238 209.447287 
L 321.938238 205.614891 
L 322.155934 205.614891 
L 322.155934 201.782495 
L 322.336495 201.782495 
L 322.336495 197.950099 
L 322.623798 197.950099 
L 322.713182 186.452911 
L 322.962455 186.452911 
L 323.051126 167.290931 
L 323.10424 167.290931 
L 323.10424 163.458535 
L 323.386391 163.458535 
L 323.386391 159.626139 
L 323.64921 159.626139 
L 323.666673 151.961347 
L 324.307796 151.961347 
L 324.359355 144.296554 
L 324.854548 144.296554 
L 324.854548 140.464158 
L 325.226382 140.464158 
L 325.310435 132.799366 
L 325.778072 132.799366 
L 325.877611 125.134574 
L 326.158371 125.134574 
L 326.158371 121.302178 
L 327.214999 121.302178 
L 327.311216 109.80499 
L 328.371025 109.80499 
L 328.371025 105.972594 
L 329.098933 105.972594 
L 329.098933 102.140198 
L 334.591788 102.140198 
L 334.591788 98.307802 
L 335.287231 98.307802 
L 335.287231 94.475406 
L 336.049658 94.475406 
L 336.049658 90.64301 
L 337.320106 90.64301 
L 337.320106 86.810614 
L 337.572192 86.810614 
L 337.572192 82.978218 
L 339.066075 82.978218 
L 339.066075 79.145822 
L 340.661113 79.145822 
L 340.661113 75.313426 
L 340.882483 75.313426 
L 340.882483 71.48103 
L 341.264234 71.48103 
L 341.264234 67.648634 
L 343.244001 67.648634 
L 343.244001 63.816238 
L 344.286041 63.816238 
L 344.286041 59.983842 
L 344.977286 59.983842 
L 344.977286 56.151446 
L 347.475738 56.151446 
L 347.475738 52.31905 
L 355.436767 52.31905 
L 355.436767 48.486653 
L 355.617587 48.486653 
L 355.617587 44.654257 
L 356.638561 44.654257 
L 356.638561 40.821861 
L 362.218141 40.821861 
L 362.218141 36.989465 
L 368.079155 36.989465 
L 368.079155 33.157069 
L 369.461216 33.157069 
L 369.461216 29.324673 
L 370.385118 29.324673 
L 370.385118 25.492277 
L 370.759421 25.492277 
L 370.759421 21.659881 
L 372.196657 21.659881 
L 372.196657 17.827485 
L 374.029394 17.827485 
L 374.029394 13.995089 
L 377.687198 13.995089 
L 377.687198 10.162693 
L 380.437949 10.162693 
L 380.437949 6.330297 
L 380.437949 6.330297 
L 460.8 6.330297 
L 460.8 6.330297 
" style="fill:none;stroke:#f5deb3;stroke-linecap:square;stroke-width:1.5;"/>
   </g>
   <g id="line2d_10">
    <path clip-path="url(#p2819464ddc)" style="fill:none;stroke:#f5deb3;stroke-linecap:square;stroke-width:1.5;"/>
   </g>
   <g id="line2d_11">
    <path clip-path="url(#p2819464ddc)" style="fill:none;stroke:#f5deb3;stroke-linecap:square;stroke-width:1.5;"/>
   </g>
   <g id="line2d_12">
    <path clip-path="url(#p2819464ddc)" d="M 278.634189 293.76 
L 278.634189 289.927604 
L 329.481073 289.927604 
L 329.481073 286.095208 
L 332.0492 286.095208 
L 332.0492 282.262812 
L 391.763866 282.262812 
L 391.763866 278.430416 
L 400.930515 278.430416 
L 400.930515 274.59802 
L 426.100479 274.59802 
L 426.100479 270.765624 
L 440.202225 270.765624 
L 440.202225 266.933228 
L 444.360864 266.933228 
L 444.360864 263.100832 
L 447.312904 263.100832 
L 447.312904 259.268436 
L 461.8 259.268436 
" style="fill:none;stroke:#f5deb3;stroke-linecap:square;stroke-width:1.5;"/>
   </g>
   <g id="line2d_13"/>
   <g id="line2d_14">
    <path clip-path="url(#p2819464ddc)" d="M 306.868404 293.76 
L 306.868404 289.927604 
L 312.570248 289.927604 
L 312.570248 286.095208 
L 324.445148 286.095208 
L 324.445148 282.262812 
L 325.877611 282.262812 
L 325.877611 278.430416 
L 330.887787 278.430416 
L 330.887787 274.59802 
L 331.239572 274.59802 
L 331.239572 270.765624 
L 334.021613 270.765624 
L 334.021613 266.933228 
L 337.395889 266.933228 
L 337.395889 263.100832 
L 338.294856 263.100832 
L 338.294856 259.268436 
L 343.089869 259.268436 
L 343.089869 255.43604 
L 344.146426 255.43604 
L 344.146426 251.603644 
L 345.636649 251.603644 
L 345.636649 247.771248 
L 346.662592 247.771248 
L 346.662592 243.938851 
L 351.240473 243.938851 
L 351.240473 240.106455 
L 354.881274 240.106455 
L 354.881274 236.274059 
L 355.37907 236.274059 
L 355.37907 232.441663 
L 356.70256 232.441663 
L 356.70256 228.609267 
L 357.266346 228.609267 
L 357.266346 224.776871 
L 365.885338 224.776871 
L 365.885338 220.944475 
L 366.958855 220.944475 
L 366.958855 217.112079 
L 371.243948 217.112079 
L 371.243948 213.279683 
L 374.430776 213.279683 
L 374.430776 209.447287 
L 375.04652 209.447287 
L 375.04652 205.614891 
L 377.227229 205.614891 
L 377.227229 201.782495 
L 379.60903 201.782495 
L 379.60903 197.950099 
L 381.36708 197.950099 
L 381.36708 194.117703 
L 382.39396 194.117703 
L 382.39396 190.285307 
L 385.381672 190.285307 
L 385.381672 186.452911 
L 386.181427 186.452911 
L 386.181427 182.620515 
L 394.371618 182.620515 
L 394.371618 178.788119 
L 395.936443 178.788119 
L 395.936443 174.955723 
L 398.135201 174.955723 
L 398.135201 171.123327 
L 412.293344 171.123327 
L 412.293344 167.290931 
L 427.184652 167.290931 
L 427.184652 163.458535 
L 429.666344 163.458535 
L 429.666344 159.626139 
L 434.587711 159.626139 
L 434.587711 155.793743 
L 439.634706 155.793743 
L 439.634706 151.961347 
L 447.928385 151.961347 
L 447.928385 148.12895 
L 448.488539 148.12895 
L 448.488539 144.296554 
L 448.488539 144.296554 
L 448.488539 144.296554 
L 460.8 144.296554 
" style="fill:none;stroke:#f5deb3;stroke-linecap:square;stroke-width:1.5;"/>
   </g>
   <g id="line2d_15"/>
   <g id="line2d_16"/>
   <g id="line2d_17">
    <path clip-path="url(#p2819464ddc)" d="M 376.286975 293.76 
L 376.286975 289.927604 
L 377.657987 289.927604 
L 377.657987 286.095208 
L 378.896174 286.095208 
L 378.896174 282.262812 
L 379.375862 282.262812 
L 379.375862 278.430416 
L 381.425036 278.430416 
L 381.425036 274.59802 
L 381.903464 274.59802 
L 381.903464 270.765624 
L 382.066133 270.765624 
L 382.066133 266.933228 
L 382.341679 266.933228 
L 382.341679 263.100832 
L 383.080661 263.100832 
L 383.132038 255.43604 
L 384.0086 255.43604 
L 384.071418 240.106455 
L 385.41817 240.106455 
L 385.462736 232.441663 
L 385.692921 232.441663 
L 385.713053 224.776871 
L 386.069809 224.776871 
L 386.069809 220.944475 
L 386.316568 220.944475 
L 386.316568 217.112079 
L 386.754783 217.112079 
L 386.754783 213.279683 
L 387.044423 213.279683 
L 387.044423 209.447287 
L 387.536931 209.447287 
L 387.536931 205.614891 
L 387.855734 205.614891 
L 387.855734 201.782495 
L 388.820419 201.782495 
L 388.820419 197.950099 
L 389.044241 197.950099 
L 389.044241 194.117703 
L 389.252078 194.117703 
L 389.252078 190.285307 
L 389.39991 190.285307 
L 389.455214 182.620515 
L 389.664712 182.620515 
L 389.723332 174.955723 
L 389.891415 174.955723 
L 389.891415 171.123327 
L 390.370062 171.123327 
L 390.370062 167.290931 
L 390.600198 167.290931 
L 390.600198 163.458535 
L 391.237287 163.458535 
L 391.237287 159.626139 
L 391.756888 159.626139 
L 391.756888 155.793743 
L 391.910141 155.793743 
L 391.983089 148.12895 
L 393.008307 148.12895 
L 393.008307 144.296554 
L 393.810288 144.296554 
L 393.810288 140.464158 
L 393.99933 140.464158 
L 393.99933 136.631762 
L 394.378178 136.631762 
L 394.378178 132.799366 
L 395.523509 132.799366 
L 395.523509 128.96697 
L 398.069132 128.96697 
L 398.069132 125.134574 
L 398.565124 125.134574 
L 398.565124 121.302178 
L 402.355599 121.302178 
L 402.371891 113.637386 
L 404.523297 113.637386 
L 404.523297 109.80499 
L 406.16794 109.80499 
L 406.16794 105.972594 
L 406.538559 105.972594 
L 406.575443 98.307802 
L 407.679233 98.307802 
L 407.679233 94.475406 
L 408.280749 94.475406 
L 408.280749 90.64301 
L 408.941282 90.64301 
L 408.955224 82.978218 
L 409.357567 82.978218 
L 409.357567 79.145822 
L 409.495423 79.145822 
L 409.495423 75.313426 
L 410.098969 75.313426 
L 410.098969 71.48103 
L 412.678049 71.48103 
L 412.678049 67.648634 
L 412.841554 67.648634 
L 412.841554 63.816238 
L 413.139331 63.816238 
L 413.139331 59.983842 
L 413.330406 59.983842 
L 413.330406 56.151446 
L 414.761916 56.151446 
L 414.761916 52.31905 
L 416.113216 52.31905 
L 416.113216 48.486653 
L 418.303451 48.486653 
L 418.303451 44.654257 
L 418.424344 44.654257 
L 418.424344 40.821861 
L 420.744216 40.821861 
L 420.744216 36.989465 
L 423.70918 36.989465 
L 423.70918 33.157069 
L 425.949965 33.157069 
L 425.949965 29.324673 
L 427.629185 29.324673 
L 427.629185 25.492277 
L 430.279747 25.492277 
L 430.279747 21.659881 
L 435.049004 21.659881 
L 435.049004 17.827485 
L 435.181668 17.827485 
L 435.181668 13.995089 
L 437.990337 13.995089 
L 437.990337 10.162693 
L 440.800539 10.162693 
L 440.800539 6.330297 
L 440.800539 6.330297 
L 460.8 6.330297 
L 460.8 6.330297 
" style="fill:none;stroke:#f5deb3;stroke-linecap:square;stroke-width:1.5;"/>
   </g>
   <g id="line2d_18">
    <path clip-path="url(#p2819464ddc)" d="M 236.596779 293.76 
L 236.596779 289.927604 
L 266.11289 289.927604 
L 266.11289 286.095208 
L 267.453329 286.095208 
L 267.453329 282.262812 
L 274.542963 282.262812 
L 274.542963 278.430416 
L 275.37161 278.430416 
L 275.37161 274.59802 
L 288.363047 274.59802 
L 288.363047 270.765624 
L 291.948537 270.765624 
L 291.948537 266.933228 
L 306.240363 266.933228 
L 306.240363 263.100832 
L 309.730477 263.100832 
L 309.730477 259.268436 
L 323.701578 259.268436 
L 323.701578 255.43604 
L 324.238952 255.43604 
L 324.238952 251.603644 
L 330.503354 251.603644 
L 330.503354 247.771248 
L 334.375484 247.771248 
L 334.375484 243.938851 
L 336.036629 243.938851 
L 336.036629 240.106455 
L 336.2057 240.106455 
L 336.2057 236.274059 
L 336.309409 236.274059 
L 336.309409 232.441663 
L 340.963749 232.441663 
L 340.963749 228.609267 
L 341.733779 228.609267 
L 341.733779 224.776871 
L 342.310665 224.776871 
L 342.310665 220.944475 
L 342.422862 220.944475 
L 342.422862 217.112079 
L 342.990486 217.112079 
L 342.990486 213.279683 
L 343.626892 213.279683 
L 343.626892 209.447287 
L 348.156295 209.447287 
L 348.156295 205.614891 
L 352.565697 205.614891 
L 352.565697 201.782495 
L 352.741638 201.782495 
L 352.741638 197.950099 
L 356.292897 197.950099 
L 356.292897 194.117703 
L 357.752592 194.117703 
L 357.752592 190.285307 
L 358.951877 190.285307 
L 358.951877 186.452911 
L 371.823736 186.452911 
L 371.823736 182.620515 
L 376.014446 182.620515 
L 376.014446 178.788119 
L 390.029763 178.788119 
L 390.029763 174.955723 
L 394.108391 174.955723 
L 394.108391 171.123327 
L 396.8928 171.123327 
L 396.8928 167.290931 
L 402.58041 167.290931 
L 402.58041 163.458535 
L 407.107888 163.458535 
L 407.107888 159.626139 
L 408.504423 159.626139 
L 408.504423 155.793743 
L 410.575679 155.793743 
L 410.575679 151.961347 
L 415.434991 151.961347 
L 415.434991 148.12895 
L 425.572104 148.12895 
L 425.572104 144.296554 
L 439.47244 144.296554 
L 439.47244 140.464158 
L 443.044147 140.464158 
L 443.044147 136.631762 
L 449.237199 136.631762 
L 449.237199 132.799366 
L 450.126688 132.799366 
L 450.126688 128.96697 
L 450.560605 128.96697 
L 450.560605 125.134574 
L 461.8 125.134574 
" style="fill:none;stroke:#f5deb3;stroke-linecap:square;stroke-width:1.5;"/>
   </g>
   <g id="line2d_19">
    <path clip-path="url(#p2819464ddc)" style="fill:none;stroke:#f5deb3;stroke-linecap:square;stroke-width:1.5;"/>
   </g>
   <g id="line2d_20">
    <path clip-path="url(#p2819464ddc)" d="M 252.115277 293.76 
L 252.115277 289.927604 
L 256.77877 289.927604 
L 256.77877 286.095208 
L 260.437013 286.095208 
L 260.437013 282.262812 
L 261.2851 282.262812 
L 261.2851 278.430416 
L 263.005246 278.430416 
L 263.005246 270.765624 
L 263.297387 270.765624 
L 263.297387 266.933228 
L 264.019031 266.933228 
L 264.019031 263.100832 
L 264.375287 263.100832 
L 264.375287 259.268436 
L 265.839627 259.268436 
L 265.908108 251.603644 
L 266.988993 251.603644 
L 266.988993 247.771248 
L 267.847313 247.771248 
L 267.847313 243.938851 
L 270.568303 243.938851 
L 270.568303 240.106455 
L 271.477742 240.106455 
L 271.477742 232.441663 
L 273.58377 232.441663 
L 273.58377 228.609267 
L 275.535409 228.609267 
L 275.535409 224.776871 
L 278.583516 224.776871 
L 278.583516 217.112079 
L 278.936964 217.112079 
L 278.936964 213.279683 
L 279.536086 213.279683 
L 279.536086 209.447287 
L 279.979922 209.447287 
L 279.979922 205.614891 
L 280.709451 205.614891 
L 280.709451 201.782495 
L 282.871273 201.782495 
L 282.871273 197.950099 
L 283.552974 197.950099 
L 283.552974 194.117703 
L 284.35677 194.117703 
L 284.35677 190.285307 
L 285.188965 190.285307 
L 285.188965 186.452911 
L 287.877445 186.452911 
L 287.877445 182.620515 
L 287.99937 182.620515 
L 288.039933 174.955723 
L 288.443441 174.955723 
L 288.443441 171.123327 
L 289.357152 171.123327 
L 289.396435 163.458535 
L 291.20271 163.458535 
L 291.20271 159.626139 
L 294.180385 159.626139 
L 294.180385 155.793743 
L 294.633779 155.793743 
L 294.633779 151.961347 
L 296.499948 151.961347 
L 296.599409 144.296554 
L 301.443779 144.296554 
L 301.443779 140.464158 
L 302.088505 140.464158 
L 302.088505 136.631762 
L 302.233672 136.631762 
L 302.233672 132.799366 
L 302.952129 132.799366 
L 302.952129 128.96697 
L 303.320957 128.96697 
L 303.405616 121.302178 
L 309.754745 121.302178 
L 309.754745 117.469782 
L 314.974711 117.469782 
L 314.974711 113.637386 
L 315.6343 113.637386 
L 315.6343 109.80499 
L 317.9351 109.80499 
L 317.9351 105.972594 
L 322.137835 105.972594 
L 322.137835 102.140198 
L 322.713182 102.140198 
L 322.713182 98.307802 
L 324.888487 98.307802 
L 324.888487 94.475406 
L 329.236901 94.475406 
L 329.236901 90.64301 
L 331.588455 90.64301 
L 331.588455 86.810614 
L 333.871003 86.810614 
L 333.871003 82.978218 
L 334.253325 82.978218 
L 334.253325 79.145822 
L 338.059479 79.145822 
L 338.059479 75.313426 
L 338.245412 75.313426 
L 338.245412 71.48103 
L 339.799642 71.48103 
L 339.799642 67.648634 
L 341.28726 67.648634 
L 341.28726 63.816238 
L 342.913026 63.816238 
L 342.913026 59.983842 
L 344.744589 59.983842 
L 344.744589 56.151446 
L 355.255169 56.151446 
L 355.255169 52.31905 
L 358.921547 52.31905 
L 358.921547 48.486653 
L 359.404232 48.486653 
L 359.404232 44.654257 
L 365.276224 44.654257 
L 365.276224 40.821861 
L 370.535237 40.821861 
L 370.535237 36.989465 
L 376.831787 36.989465 
L 376.831787 33.157069 
L 387.993266 33.157069 
L 387.993266 29.324673 
L 393.372593 29.324673 
L 393.372593 25.492277 
L 394.59408 25.492277 
L 394.59408 21.659881 
L 396.623088 21.659881 
L 396.623088 17.827485 
L 398.976013 17.827485 
L 398.976013 13.995089 
L 419.986768 13.995089 
L 419.986768 10.162693 
L 449.469577 10.162693 
L 449.469577 6.330297 
L 449.469577 6.330297 
L 460.8 6.330297 
L 460.8 6.330297 
" style="fill:none;stroke:#f5deb3;stroke-linecap:square;stroke-width:1.5;"/>
   </g>
   <g id="line2d_21"/>
   <g id="line2d_22">
    <path clip-path="url(#p2819464ddc)" d="M 250.668592 293.76 
L 250.668592 289.927604 
L 252.773825 289.927604 
L 252.773825 286.095208 
L 257.201224 286.095208 
L 257.201224 282.262812 
L 257.70266 282.262812 
L 257.70266 278.430416 
L 258.362125 278.430416 
L 258.362125 274.59802 
L 258.525396 274.59802 
L 258.525396 270.765624 
L 258.930839 270.765624 
L 258.930839 266.933228 
L 259.412293 266.933228 
L 259.492006 259.268436 
L 260.437013 259.268436 
L 260.437013 255.43604 
L 261.361362 255.43604 
L 261.361362 251.603644 
L 263.005246 251.603644 
L 263.005246 247.771248 
L 264.161894 247.771248 
L 264.161894 243.938851 
L 265.495546 243.938851 
L 265.495546 240.106455 
L 266.11289 240.106455 
L 266.11289 236.274059 
L 266.248862 236.274059 
L 266.248862 232.441663 
L 266.519502 232.441663 
L 266.519502 228.609267 
L 268.816507 228.609267 
L 268.816507 224.776871 
L 269.888726 224.776871 
L 269.888726 220.944475 
L 270.690697 220.944475 
L 270.690697 217.112079 
L 271.657306 217.112079 
L 271.657306 213.279683 
L 278.380211 213.279683 
L 278.380211 209.447287 
L 278.936964 209.447287 
L 278.936964 205.614891 
L 279.486482 205.614891 
L 279.486482 201.782495 
L 281.615812 201.782495 
L 281.615812 197.950099 
L 283.372259 197.950099 
L 283.372259 194.117703 
L 285.577519 194.117703 
L 285.577519 190.285307 
L 286.59654 190.285307 
L 286.59654 186.452911 
L 288.363047 186.452911 
L 288.363047 182.620515 
L 291.985485 182.620515 
L 291.985485 178.788119 
L 293.508864 178.788119 
L 293.508864 174.955723 
L 294.0047 174.955723 
L 294.0047 171.123327 
L 294.806875 171.123327 
L 294.806875 167.290931 
L 295.082364 167.290931 
L 295.082364 163.458535 
L 296.566281 163.458535 
L 296.566281 159.626139 
L 297.484181 159.626139 
L 297.484181 155.793743 
L 300.578612 155.793743 
L 300.578612 151.961347 
L 304.46355 151.961347 
L 304.46355 148.12895 
L 305.172445 148.12895 
L 305.172445 144.296554 
L 305.789789 144.296554 
L 305.789789 140.464158 
L 307.869485 140.464158 
L 307.869485 136.631762 
L 309.948391 136.631762 
L 309.948391 132.799366 
L 312.205503 132.799366 
L 312.205503 128.96697 
L 313.223434 128.96697 
L 313.223434 125.134574 
L 314.326452 125.134574 
L 314.326452 121.302178 
L 315.549768 121.302178 
L 315.6343 113.637386 
L 315.697589 113.637386 
L 315.697589 109.80499 
L 316.656337 109.80499 
L 316.656337 105.972594 
L 317.330986 105.972594 
L 317.330986 102.140198 
L 318.134569 102.140198 
L 318.134569 98.307802 
L 321.701129 98.307802 
L 321.719416 90.64301 
L 324.290595 90.64301 
L 324.290595 86.810614 
L 325.5449 86.810614 
L 325.5449 82.978218 
L 326.026481 82.978218 
L 326.026481 79.145822 
L 328.542513 79.145822 
L 328.542513 75.313426 
L 329.160308 75.313426 
L 329.160308 71.48103 
L 329.617802 71.48103 
L 329.617802 67.648634 
L 329.95018 67.648634 
L 329.95018 63.816238 
L 330.20524 63.816238 
L 330.20524 59.983842 
L 330.622013 59.983842 
L 330.681219 52.31905 
L 333.485192 52.31905 
L 333.485192 48.486653 
L 340.120317 48.486653 
L 340.120317 44.654257 
L 341.28726 44.654257 
L 341.28726 40.821861 
L 346.0603 40.821861 
L 346.0603 36.989465 
L 346.469568 36.989465 
L 346.469568 33.157069 
L 349.295351 33.157069 
L 349.295351 29.324673 
L 350.022425 29.324673 
L 350.022425 25.492277 
L 351.276841 25.492277 
L 351.276841 21.659881 
L 358.807616 21.659881 
L 358.807616 17.827485 
L 359.456693 17.827485 
L 359.456693 13.995089 
L 372.522349 13.995089 
L 372.522349 10.162693 
L 381.929885 10.162693 
L 381.929885 6.330297 
L 381.929885 6.330297 
L 460.8 6.330297 
L 460.8 6.330297 
" style="fill:none;stroke:#f5deb3;stroke-linecap:square;stroke-width:1.5;"/>
   </g>
   <g id="line2d_23">
    <path clip-path="url(#p2819464ddc)" style="fill:none;stroke:#f5deb3;stroke-linecap:square;stroke-width:1.5;"/>
   </g>
   <g id="line2d_24">
    <path clip-path="url(#p2819464ddc)" d="M 299.510308 293.76 
L 299.510308 289.927604 
L 301.473299 289.927604 
L 301.473299 286.095208 
L 306.450748 286.095208 
L 306.450748 282.262812 
L 307.049839 282.262812 
L 307.153168 274.59802 
L 307.281975 274.59802 
L 307.281975 270.765624 
L 307.793315 270.765624 
L 307.793315 266.933228 
L 308.197981 266.933228 
L 308.197981 263.100832 
L 311.068492 263.100832 
L 311.092005 255.43604 
L 311.443133 255.43604 
L 311.443133 251.603644 
L 311.79137 251.603644 
L 311.79137 247.771248 
L 312.274133 247.771248 
L 312.274133 243.938851 
L 313.021799 243.938851 
L 313.021799 240.106455 
L 313.446351 240.106455 
L 313.446351 236.274059 
L 314.413463 236.274059 
L 314.413463 232.441663 
L 314.802812 232.441663 
L 314.802812 228.609267 
L 316.012619 228.609267 
L 316.012619 224.776871 
L 316.800346 224.776871 
L 316.861915 217.112079 
L 318.154464 217.112079 
L 318.154464 213.279683 
L 319.389361 213.279683 
L 319.389361 209.447287 
L 320.11715 209.447287 
L 320.11715 205.614891 
L 321.554553 205.614891 
L 321.554553 201.782495 
L 321.737694 201.782495 
L 321.828968 194.117703 
L 322.101615 194.117703 
L 322.101615 190.285307 
L 322.64169 190.285307 
L 322.748882 182.620515 
L 323.033407 182.620515 
L 323.10424 174.955723 
L 323.64921 174.955723 
L 323.64921 171.123327 
L 324.324989 171.123327 
L 324.324989 167.290931 
L 324.564967 167.290931 
L 324.564967 163.458535 
L 325.578289 163.458535 
L 325.578289 159.626139 
L 326.404562 159.626139 
L 326.404562 155.793743 
L 326.714361 155.793743 
L 326.779293 148.12895 
L 328.057436 148.12895 
L 328.057436 144.296554 
L 329.252203 144.296554 
L 329.252203 140.464158 
L 329.784317 140.464158 
L 329.784317 136.631762 
L 330.725568 136.631762 
L 330.725568 132.799366 
L 331.239572 132.799366 
L 331.239572 128.96697 
L 331.370741 128.96697 
L 331.370741 125.134574 
L 333.581975 125.134574 
L 333.581975 121.302178 
L 334.321235 121.302178 
L 334.321235 117.469782 
L 336.062684 117.469782 
L 336.062684 113.637386 
L 336.63187 113.637386 
L 336.63187 109.80499 
L 337.218849 109.80499 
L 337.218849 105.972594 
L 337.897673 105.972594 
L 337.897673 102.140198 
L 338.245412 102.140198 
L 338.245412 98.307802 
L 338.602581 98.307802 
L 338.602581 94.475406 
L 340.120317 94.475406 
L 340.120317 90.64301 
L 341.367752 90.64301 
L 341.402202 82.978218 
L 341.505384 82.978218 
L 341.505384 79.145822 
L 342.062777 79.145822 
L 342.062777 75.313426 
L 342.624071 75.313426 
L 342.624071 71.48103 
L 343.517848 71.48103 
L 343.517848 67.648634 
L 343.80078 67.648634 
L 343.80078 63.816238 
L 344.659653 63.816238 
L 344.765796 56.151446 
L 349.085298 56.151446 
L 349.085298 52.31905 
L 350.478684 52.31905 
L 350.478684 48.486653 
L 351.629803 48.486653 
L 351.629803 44.654257 
L 352.051289 44.654257 
L 352.051289 40.821861 
L 360.572791 40.821861 
L 360.572791 36.989465 
L 364.392458 36.989465 
L 364.392458 33.157069 
L 369.73229 33.157069 
L 369.73229 29.324673 
L 382.563431 29.324673 
L 382.563431 25.492277 
L 382.706301 25.492277 
L 382.706301 21.659881 
L 386.276866 21.659881 
L 386.276866 17.827485 
L 389.572954 17.827485 
L 389.572954 13.995089 
L 409.052693 13.995089 
L 409.052693 10.162693 
L 411.131017 10.162693 
L 411.131017 6.330297 
L 411.131017 6.330297 
L 460.8 6.330297 
L 460.8 6.330297 
" style="fill:none;stroke:#f5deb3;stroke-linecap:square;stroke-width:1.5;"/>
   </g>
   <g id="line2d_25"/>
   <g id="line2d_26">
    <path clip-path="url(#p2819464ddc)" d="M 351.304097 293.76 
L 351.304097 289.927604 
L 352.811809 289.927604 
L 352.811809 286.095208 
L 353.747906 286.095208 
L 353.824987 278.430416 
L 353.867749 278.430416 
L 353.867749 274.59802 
L 354.004297 274.59802 
L 354.004297 270.765624 
L 354.123417 270.765624 
L 354.123417 266.933228 
L 358.448632 266.933228 
L 358.479303 259.268436 
L 358.685751 259.268436 
L 358.685751 255.43604 
L 359.110752 255.43604 
L 359.216339 247.771248 
L 359.449203 247.771248 
L 359.531525 240.106455 
L 359.628608 240.106455 
L 359.628608 236.274059 
L 359.777534 236.274059 
L 359.836957 228.609267 
L 360.059055 228.609267 
L 360.154936 220.944475 
L 360.463229 220.944475 
L 360.463229 217.112079 
L 360.616537 217.112079 
L 360.616537 213.279683 
L 360.762029 213.279683 
L 360.762029 209.447287 
L 361.087568 209.447287 
L 361.130785 197.950099 
L 361.396315 197.950099 
L 361.396315 194.117703 
L 361.69572 194.117703 
L 361.787965 178.788119 
L 365.308846 178.788119 
L 365.354474 167.290931 
L 365.646626 167.290931 
L 365.711276 159.626139 
L 366.122709 159.626139 
L 366.122709 155.793743 
L 366.339666 155.793743 
L 366.403266 148.12895 
L 366.965127 148.12895 
L 366.965127 144.296554 
L 367.333523 144.296554 
L 367.333523 140.464158 
L 367.889374 140.464158 
L 367.889374 136.631762 
L 371.560158 136.631762 
L 371.560158 132.799366 
L 372.113453 132.799366 
L 372.124556 125.134574 
L 372.494846 125.134574 
L 372.494846 121.302178 
L 372.801873 121.302178 
L 372.801873 117.469782 
L 377.059618 117.469782 
L 377.059618 113.637386 
L 378.281612 113.637386 
L 378.286411 105.972594 
L 378.444459 105.972594 
L 378.477908 94.475406 
L 378.801476 94.475406 
L 378.801476 90.64301 
L 381.562917 90.64301 
L 381.562917 86.810614 
L 382.118757 86.810614 
L 382.118757 82.978218 
L 382.437479 82.978218 
L 382.528723 71.48103 
L 383.24314 71.48103 
L 383.24314 67.648634 
L 385.89782 67.648634 
L 385.997898 59.983842 
L 386.435453 59.983842 
L 386.435453 56.151446 
L 387.098997 56.151446 
L 387.114577 48.486653 
L 390.854047 48.486653 
L 390.854047 44.654257 
L 393.543533 44.654257 
L 393.543533 40.821861 
L 401.679426 40.821861 
L 401.679426 36.989465 
L 402.431573 36.989465 
L 402.439705 29.324673 
L 402.547981 29.324673 
L 402.547981 25.492277 
L 403.721075 25.492277 
L 403.721075 21.659881 
L 404.783084 21.659881 
L 404.783084 17.827485 
L 409.692237 17.827485 
L 409.692237 13.995089 
L 412.733329 13.995089 
L 412.733329 10.162693 
L 429.961436 10.162693 
L 429.961436 6.330297 
L 429.961436 6.330297 
L 460.8 6.330297 
L 460.8 6.330297 
" style="fill:none;stroke:#f5deb3;stroke-linecap:square;stroke-width:1.5;"/>
   </g>
   <g id="line2d_27">
    <path clip-path="url(#p2819464ddc)" d="M 338.418215 293.76 
L 338.418215 289.927604 
L 339.644372 289.927604 
L 339.644372 286.095208 
L 351.012459 286.095208 
L 351.012459 282.262812 
L 351.719833 282.262812 
L 351.719833 278.430416 
L 352.015581 278.430416 
L 352.015581 274.59802 
L 360.154936 274.59802 
L 360.154936 270.765624 
L 367.370808 270.765624 
L 367.370808 266.933228 
L 376.477708 266.933228 
L 376.477708 263.100832 
L 376.866536 263.100832 
L 376.866536 259.268436 
L 378.573333 259.268436 
L 378.573333 255.43604 
L 384.516837 255.43604 
L 384.516837 251.603644 
L 385.414116 251.603644 
L 385.414116 247.771248 
L 389.451529 247.771248 
L 389.451529 243.938851 
L 391.13472 243.938851 
L 391.13472 240.106455 
L 399.964555 240.106455 
L 399.964555 236.274059 
L 446.745407 236.274059 
L 446.745407 232.441663 
L 451.260951 232.441663 
L 451.260951 228.609267 
L 451.260951 228.609267 
L 451.260951 224.776871 
L 452.066561 224.776871 
L 452.066561 220.944475 
L 455.6897 220.944475 
L 455.6897 217.112079 
L 460.143805 217.112079 
L 460.143805 213.279683 
L 461.48912 213.279683 
L 461.48912 209.447287 
L 461.8 209.447287 
" style="fill:none;stroke:#f5deb3;stroke-linecap:square;stroke-width:1.5;"/>
   </g>
   <g id="line2d_28">
    <path clip-path="url(#p2819464ddc)" d="M 292.754034 293.76 
L 292.754034 289.927604 
L 293.187014 289.927604 
L 293.187014 286.095208 
L 294.285447 286.095208 
L 294.285447 282.262812 
L 296.09975 282.262812 
L 296.09975 278.430416 
L 296.400253 278.430416 
L 296.400253 274.59802 
L 296.830578 274.59802 
L 296.830578 270.765624 
L 298.287231 270.765624 
L 298.287231 266.933228 
L 299.971461 266.933228 
L 299.971461 263.100832 
L 300.124068 263.100832 
L 300.124068 259.268436 
L 301.443779 259.268436 
L 301.443779 255.43604 
L 301.972011 255.43604 
L 301.972011 251.603644 
L 302.204679 251.603644 
L 302.204679 247.771248 
L 303.264423 247.771248 
L 303.264423 243.938851 
L 304.215368 243.938851 
L 304.215368 240.106455 
L 304.380984 240.106455 
L 304.380984 236.274059 
L 304.710284 236.274059 
L 304.710284 232.441663 
L 304.873977 232.441663 
L 304.873977 228.609267 
L 305.280458 228.609267 
L 305.280458 224.776871 
L 305.602854 224.776871 
L 305.602854 220.944475 
L 305.896239 220.944475 
L 305.896239 217.112079 
L 306.081884 217.112079 
L 306.081884 213.279683 
L 306.764376 213.279683 
L 306.764376 209.447287 
L 306.972176 209.447287 
L 306.972176 205.614891 
L 307.127359 205.614891 
L 307.127359 201.782495 
L 308.172803 201.782495 
L 308.172803 197.950099 
L 308.748149 197.950099 
L 308.748149 194.117703 
L 308.946449 194.117703 
L 308.946449 190.285307 
L 309.996664 190.285307 
L 309.996664 186.452911 
L 310.737936 186.452911 
L 310.737936 182.620515 
L 311.652419 182.620515 
L 311.652419 178.788119 
L 312.090873 178.788119 
L 312.090873 174.955723 
L 312.999335 174.955723 
L 312.999335 171.123327 
L 314.217436 171.123327 
L 314.217436 167.290931 
L 314.759727 167.290931 
L 314.759727 163.458535 
L 315.017577 163.458535 
L 315.017577 159.626139 
L 315.209939 159.626139 
L 315.209939 155.793743 
L 316.511835 155.793743 
L 316.511835 151.961347 
L 316.67694 151.961347 
L 316.67694 148.12895 
L 317.16842 148.12895 
L 317.16842 144.296554 
L 317.330986 144.296554 
L 317.330986 140.464158 
L 317.734686 140.464158 
L 317.734686 136.631762 
L 317.9351 136.631762 
L 317.9351 132.799366 
L 318.094751 132.799366 
L 318.094751 128.96697 
L 318.589808 128.96697 
L 318.589808 125.134574 
L 319.331367 125.134574 
L 319.331367 121.302178 
L 319.793108 121.302178 
L 319.793108 117.469782 
L 320.174077 117.469782 
L 320.174077 113.637386 
L 320.287702 113.637386 
L 320.363282 102.140198 
L 321.11175 102.140198 
L 321.11175 98.307802 
L 322.137835 98.307802 
L 322.137835 94.475406 
L 323.210267 94.475406 
L 323.210267 90.64301 
L 323.526764 90.64301 
L 323.526764 86.810614 
L 324.273388 86.810614 
L 324.273388 82.978218 
L 324.513657 82.978218 
L 324.513657 79.145822 
L 325.827871 79.145822 
L 325.827871 75.313426 
L 326.518963 75.313426 
L 326.518963 71.48103 
L 326.925028 71.48103 
L 326.925028 67.648634 
L 327.247096 67.648634 
L 327.247096 63.816238 
L 328.44906 63.816238 
L 328.44906 59.983842 
L 328.806179 59.983842 
L 328.806179 56.151446 
L 329.20628 56.151446 
L 329.20628 52.31905 
L 329.70871 52.31905 
L 329.70871 48.486653 
L 330.040377 48.486653 
L 330.040377 44.654257 
L 330.976008 44.654257 
L 330.976008 40.821861 
L 332.787366 40.821861 
L 332.787366 36.989465 
L 333.137718 36.989465 
L 333.137718 33.157069 
L 333.595783 33.157069 
L 333.595783 29.324673 
L 348.380735 29.324673 
L 348.380735 25.492277 
L 349.123567 25.492277 
L 349.123567 21.659881 
L 351.95302 21.659881 
L 351.95302 17.827485 
L 354.45349 17.827485 
L 354.45349 13.995089 
L 356.90989 13.995089 
L 356.90989 10.162693 
L 370.656099 10.162693 
L 370.656099 6.330297 
L 370.656099 6.330297 
L 460.8 6.330297 
L 460.8 6.330297 
" style="fill:none;stroke:#f5deb3;stroke-linecap:square;stroke-width:1.5;"/>
   </g>
   <g id="line2d_29">
    <path clip-path="url(#p2819464ddc)" d="M 362.316256 293.76 
L 362.316256 289.927604 
L 362.316256 289.927604 
L 362.316256 286.095208 
L 362.316256 286.095208 
L 362.316256 282.262812 
L 390.301499 282.262812 
L 390.301499 278.430416 
L 390.301499 278.430416 
L 390.301499 274.59802 
L 390.301499 274.59802 
L 390.301499 270.765624 
L 390.301499 270.765624 
L 390.301499 270.765624 
L 460.8 270.765624 
" style="fill:none;stroke:#f5deb3;stroke-linecap:square;stroke-width:1.5;"/>
   </g>
   <g id="line2d_30"/>
   <g id="matplotlib.axis_1">
    <g id="xtick_1">
     <g id="line2d_31">
      <path clip-path="url(#p2819464ddc)" d="M 62.208 293.76 
L 62.208 3.456 
" style="fill:none;stroke:#b0b0b0;stroke-linecap:square;stroke-width:0.8;"/>
     </g>
     <g id="line2d_32">
      <defs>
       <path d="M 0 0 
L 0 3.5 
" id="mf346948d94" style="stroke:#000000;stroke-width:0.8;"/>
      </defs>
      <g>
       <use style="stroke:#000000;stroke-width:0.8;" x="62.208" xlink:href="#mf346948d94" y="293.76"/>
      </g>
     </g>
     <g id="text_1">
      <!-- 0 -->
      <defs>
       <path d="M 31.78125 66.40625 
Q 24.171875 66.40625 20.328125 58.90625 
Q 16.5 51.421875 16.5 36.375 
Q 16.5 21.390625 20.328125 13.890625 
Q 24.171875 6.390625 31.78125 6.390625 
Q 39.453125 6.390625 43.28125 13.890625 
Q 47.125 21.390625 47.125 36.375 
Q 47.125 51.421875 43.28125 58.90625 
Q 39.453125 66.40625 31.78125 66.40625 
z
M 31.78125 74.21875 
Q 44.046875 74.21875 50.515625 64.515625 
Q 56.984375 54.828125 56.984375 36.375 
Q 56.984375 17.96875 50.515625 8.265625 
Q 44.046875 -1.421875 31.78125 -1.421875 
Q 19.53125 -1.421875 13.0625 8.265625 
Q 6.59375 17.96875 6.59375 36.375 
Q 6.59375 54.828125 13.0625 64.515625 
Q 19.53125 74.21875 31.78125 74.21875 
z
" id="DejaVuSans-48"/>
      </defs>
      <g transform="translate(55.8455 315.956875)scale(0.2 -0.2)">
       <use xlink:href="#DejaVuSans-48"/>
      </g>
     </g>
    </g>
    <g id="xtick_2">
     <g id="line2d_33">
      <path clip-path="url(#p2819464ddc)" d="M 256.948258 293.76 
L 256.948258 3.456 
" style="fill:none;stroke:#b0b0b0;stroke-linecap:square;stroke-width:0.8;"/>
     </g>
     <g id="line2d_34">
      <g>
       <use style="stroke:#000000;stroke-width:0.8;" x="256.948258" xlink:href="#mf346948d94" y="293.76"/>
      </g>
     </g>
     <g id="text_2">
      <!-- 2 -->
      <defs>
       <path d="M 19.1875 8.296875 
L 53.609375 8.296875 
L 53.609375 0 
L 7.328125 0 
L 7.328125 8.296875 
Q 12.9375 14.109375 22.625 23.890625 
Q 32.328125 33.6875 34.8125 36.53125 
Q 39.546875 41.84375 41.421875 45.53125 
Q 43.3125 49.21875 43.3125 52.78125 
Q 43.3125 58.59375 39.234375 62.25 
Q 35.15625 65.921875 28.609375 65.921875 
Q 23.96875 65.921875 18.8125 64.3125 
Q 13.671875 62.703125 7.8125 59.421875 
L 7.8125 69.390625 
Q 13.765625 71.78125 18.9375 73 
Q 24.125 74.21875 28.421875 74.21875 
Q 39.75 74.21875 46.484375 68.546875 
Q 53.21875 62.890625 53.21875 53.421875 
Q 53.21875 48.921875 51.53125 44.890625 
Q 49.859375 40.875 45.40625 35.40625 
Q 44.1875 33.984375 37.640625 27.21875 
Q 31.109375 20.453125 19.1875 8.296875 
z
" id="DejaVuSans-50"/>
      </defs>
      <g transform="translate(250.585758 315.956875)scale(0.2 -0.2)">
       <use xlink:href="#DejaVuSans-50"/>
      </g>
     </g>
    </g>
    <g id="xtick_3">
     <g id="line2d_35">
      <path clip-path="url(#p2819464ddc)" d="M 451.688516 293.76 
L 451.688516 3.456 
" style="fill:none;stroke:#b0b0b0;stroke-linecap:square;stroke-width:0.8;"/>
     </g>
     <g id="line2d_36">
      <g>
       <use style="stroke:#000000;stroke-width:0.8;" x="451.688516" xlink:href="#mf346948d94" y="293.76"/>
      </g>
     </g>
     <g id="text_3">
      <!-- 4 -->
      <defs>
       <path d="M 37.796875 64.3125 
L 12.890625 25.390625 
L 37.796875 25.390625 
z
M 35.203125 72.90625 
L 47.609375 72.90625 
L 47.609375 25.390625 
L 58.015625 25.390625 
L 58.015625 17.1875 
L 47.609375 17.1875 
L 47.609375 0 
L 37.796875 0 
L 37.796875 17.1875 
L 4.890625 17.1875 
L 4.890625 26.703125 
z
" id="DejaVuSans-52"/>
      </defs>
      <g transform="translate(445.326016 315.956875)scale(0.2 -0.2)">
       <use xlink:href="#DejaVuSans-52"/>
      </g>
     </g>
    </g>
    <g id="xtick_4">
     <g id="line2d_37">
      <path clip-path="url(#p2819464ddc)" d="M 91.51933 293.76 
L 91.51933 3.456 
" style="fill:none;stroke:#b0b0b0;stroke-linecap:square;stroke-width:0.8;"/>
     </g>
     <g id="line2d_38">
      <defs>
       <path d="M 0 0 
L 0 2 
" id="m55b4c97298" style="stroke:#000000;stroke-width:0.6;"/>
      </defs>
      <g>
       <use style="stroke:#000000;stroke-width:0.6;" x="91.51933" xlink:href="#m55b4c97298" y="293.76"/>
      </g>
     </g>
    </g>
    <g id="xtick_5">
     <g id="line2d_39">
      <path clip-path="url(#p2819464ddc)" d="M 108.665358 293.76 
L 108.665358 3.456 
" style="fill:none;stroke:#b0b0b0;stroke-linecap:square;stroke-width:0.8;"/>
     </g>
     <g id="line2d_40">
      <g>
       <use style="stroke:#000000;stroke-width:0.6;" x="108.665358" xlink:href="#m55b4c97298" y="293.76"/>
      </g>
     </g>
    </g>
    <g id="xtick_6">
     <g id="line2d_41">
      <path clip-path="url(#p2819464ddc)" d="M 120.830659 293.76 
L 120.830659 3.456 
" style="fill:none;stroke:#b0b0b0;stroke-linecap:square;stroke-width:0.8;"/>
     </g>
     <g id="line2d_42">
      <g>
       <use style="stroke:#000000;stroke-width:0.6;" x="120.830659" xlink:href="#m55b4c97298" y="293.76"/>
      </g>
     </g>
    </g>
    <g id="xtick_7">
     <g id="line2d_43">
      <path clip-path="url(#p2819464ddc)" d="M 130.266799 293.76 
L 130.266799 3.456 
" style="fill:none;stroke:#b0b0b0;stroke-linecap:square;stroke-width:0.8;"/>
     </g>
     <g id="line2d_44">
      <g>
       <use style="stroke:#000000;stroke-width:0.6;" x="130.266799" xlink:href="#m55b4c97298" y="293.76"/>
      </g>
     </g>
    </g>
    <g id="xtick_8">
     <g id="line2d_45">
      <path clip-path="url(#p2819464ddc)" d="M 137.976688 293.76 
L 137.976688 3.456 
" style="fill:none;stroke:#b0b0b0;stroke-linecap:square;stroke-width:0.8;"/>
     </g>
     <g id="line2d_46">
      <g>
       <use style="stroke:#000000;stroke-width:0.6;" x="137.976688" xlink:href="#m55b4c97298" y="293.76"/>
      </g>
     </g>
    </g>
    <g id="xtick_9">
     <g id="line2d_47">
      <path clip-path="url(#p2819464ddc)" d="M 144.495305 293.76 
L 144.495305 3.456 
" style="fill:none;stroke:#b0b0b0;stroke-linecap:square;stroke-width:0.8;"/>
     </g>
     <g id="line2d_48">
      <g>
       <use style="stroke:#000000;stroke-width:0.6;" x="144.495305" xlink:href="#m55b4c97298" y="293.76"/>
      </g>
     </g>
    </g>
    <g id="xtick_10">
     <g id="line2d_49">
      <path clip-path="url(#p2819464ddc)" d="M 150.141989 293.76 
L 150.141989 3.456 
" style="fill:none;stroke:#b0b0b0;stroke-linecap:square;stroke-width:0.8;"/>
     </g>
     <g id="line2d_50">
      <g>
       <use style="stroke:#000000;stroke-width:0.6;" x="150.141989" xlink:href="#m55b4c97298" y="293.76"/>
      </g>
     </g>
    </g>
    <g id="xtick_11">
     <g id="line2d_51">
      <path clip-path="url(#p2819464ddc)" d="M 155.122716 293.76 
L 155.122716 3.456 
" style="fill:none;stroke:#b0b0b0;stroke-linecap:square;stroke-width:0.8;"/>
     </g>
     <g id="line2d_52">
      <g>
       <use style="stroke:#000000;stroke-width:0.6;" x="155.122716" xlink:href="#m55b4c97298" y="293.76"/>
      </g>
     </g>
    </g>
    <g id="xtick_12">
     <g id="line2d_53">
      <path clip-path="url(#p2819464ddc)" d="M 188.889458 293.76 
L 188.889458 3.456 
" style="fill:none;stroke:#b0b0b0;stroke-linecap:square;stroke-width:0.8;"/>
     </g>
     <g id="line2d_54">
      <g>
       <use style="stroke:#000000;stroke-width:0.6;" x="188.889458" xlink:href="#m55b4c97298" y="293.76"/>
      </g>
     </g>
    </g>
    <g id="xtick_13">
     <g id="line2d_55">
      <path clip-path="url(#p2819464ddc)" d="M 206.035487 293.76 
L 206.035487 3.456 
" style="fill:none;stroke:#b0b0b0;stroke-linecap:square;stroke-width:0.8;"/>
     </g>
     <g id="line2d_56">
      <g>
       <use style="stroke:#000000;stroke-width:0.6;" x="206.035487" xlink:href="#m55b4c97298" y="293.76"/>
      </g>
     </g>
    </g>
    <g id="xtick_14">
     <g id="line2d_57">
      <path clip-path="url(#p2819464ddc)" d="M 218.200788 293.76 
L 218.200788 3.456 
" style="fill:none;stroke:#b0b0b0;stroke-linecap:square;stroke-width:0.8;"/>
     </g>
     <g id="line2d_58">
      <g>
       <use style="stroke:#000000;stroke-width:0.6;" x="218.200788" xlink:href="#m55b4c97298" y="293.76"/>
      </g>
     </g>
    </g>
    <g id="xtick_15">
     <g id="line2d_59">
      <path clip-path="url(#p2819464ddc)" d="M 227.636928 293.76 
L 227.636928 3.456 
" style="fill:none;stroke:#b0b0b0;stroke-linecap:square;stroke-width:0.8;"/>
     </g>
     <g id="line2d_60">
      <g>
       <use style="stroke:#000000;stroke-width:0.6;" x="227.636928" xlink:href="#m55b4c97298" y="293.76"/>
      </g>
     </g>
    </g>
    <g id="xtick_16">
     <g id="line2d_61">
      <path clip-path="url(#p2819464ddc)" d="M 235.346817 293.76 
L 235.346817 3.456 
" style="fill:none;stroke:#b0b0b0;stroke-linecap:square;stroke-width:0.8;"/>
     </g>
     <g id="line2d_62">
      <g>
       <use style="stroke:#000000;stroke-width:0.6;" x="235.346817" xlink:href="#m55b4c97298" y="293.76"/>
      </g>
     </g>
    </g>
    <g id="xtick_17">
     <g id="line2d_63">
      <path clip-path="url(#p2819464ddc)" d="M 241.865434 293.76 
L 241.865434 3.456 
" style="fill:none;stroke:#b0b0b0;stroke-linecap:square;stroke-width:0.8;"/>
     </g>
     <g id="line2d_64">
      <g>
       <use style="stroke:#000000;stroke-width:0.6;" x="241.865434" xlink:href="#m55b4c97298" y="293.76"/>
      </g>
     </g>
    </g>
    <g id="xtick_18">
     <g id="line2d_65">
      <path clip-path="url(#p2819464ddc)" d="M 247.512118 293.76 
L 247.512118 3.456 
" style="fill:none;stroke:#b0b0b0;stroke-linecap:square;stroke-width:0.8;"/>
     </g>
     <g id="line2d_66">
      <g>
       <use style="stroke:#000000;stroke-width:0.6;" x="247.512118" xlink:href="#m55b4c97298" y="293.76"/>
      </g>
     </g>
    </g>
    <g id="xtick_19">
     <g id="line2d_67">
      <path clip-path="url(#p2819464ddc)" d="M 252.492845 293.76 
L 252.492845 3.456 
" style="fill:none;stroke:#b0b0b0;stroke-linecap:square;stroke-width:0.8;"/>
     </g>
     <g id="line2d_68">
      <g>
       <use style="stroke:#000000;stroke-width:0.6;" x="252.492845" xlink:href="#m55b4c97298" y="293.76"/>
      </g>
     </g>
    </g>
    <g id="xtick_20">
     <g id="line2d_69">
      <path clip-path="url(#p2819464ddc)" d="M 286.259587 293.76 
L 286.259587 3.456 
" style="fill:none;stroke:#b0b0b0;stroke-linecap:square;stroke-width:0.8;"/>
     </g>
     <g id="line2d_70">
      <g>
       <use style="stroke:#000000;stroke-width:0.6;" x="286.259587" xlink:href="#m55b4c97298" y="293.76"/>
      </g>
     </g>
    </g>
    <g id="xtick_21">
     <g id="line2d_71">
      <path clip-path="url(#p2819464ddc)" d="M 303.405616 293.76 
L 303.405616 3.456 
" style="fill:none;stroke:#b0b0b0;stroke-linecap:square;stroke-width:0.8;"/>
     </g>
     <g id="line2d_72">
      <g>
       <use style="stroke:#000000;stroke-width:0.6;" x="303.405616" xlink:href="#m55b4c97298" y="293.76"/>
      </g>
     </g>
    </g>
    <g id="xtick_22">
     <g id="line2d_73">
      <path clip-path="url(#p2819464ddc)" d="M 315.570917 293.76 
L 315.570917 3.456 
" style="fill:none;stroke:#b0b0b0;stroke-linecap:square;stroke-width:0.8;"/>
     </g>
     <g id="line2d_74">
      <g>
       <use style="stroke:#000000;stroke-width:0.6;" x="315.570917" xlink:href="#m55b4c97298" y="293.76"/>
      </g>
     </g>
    </g>
    <g id="xtick_23">
     <g id="line2d_75">
      <path clip-path="url(#p2819464ddc)" d="M 325.007057 293.76 
L 325.007057 3.456 
" style="fill:none;stroke:#b0b0b0;stroke-linecap:square;stroke-width:0.8;"/>
     </g>
     <g id="line2d_76">
      <g>
       <use style="stroke:#000000;stroke-width:0.6;" x="325.007057" xlink:href="#m55b4c97298" y="293.76"/>
      </g>
     </g>
    </g>
    <g id="xtick_24">
     <g id="line2d_77">
      <path clip-path="url(#p2819464ddc)" d="M 332.716946 293.76 
L 332.716946 3.456 
" style="fill:none;stroke:#b0b0b0;stroke-linecap:square;stroke-width:0.8;"/>
     </g>
     <g id="line2d_78">
      <g>
       <use style="stroke:#000000;stroke-width:0.6;" x="332.716946" xlink:href="#m55b4c97298" y="293.76"/>
      </g>
     </g>
    </g>
    <g id="xtick_25">
     <g id="line2d_79">
      <path clip-path="url(#p2819464ddc)" d="M 339.235563 293.76 
L 339.235563 3.456 
" style="fill:none;stroke:#b0b0b0;stroke-linecap:square;stroke-width:0.8;"/>
     </g>
     <g id="line2d_80">
      <g>
       <use style="stroke:#000000;stroke-width:0.6;" x="339.235563" xlink:href="#m55b4c97298" y="293.76"/>
      </g>
     </g>
    </g>
    <g id="xtick_26">
     <g id="line2d_81">
      <path clip-path="url(#p2819464ddc)" d="M 344.882246 293.76 
L 344.882246 3.456 
" style="fill:none;stroke:#b0b0b0;stroke-linecap:square;stroke-width:0.8;"/>
     </g>
     <g id="line2d_82">
      <g>
       <use style="stroke:#000000;stroke-width:0.6;" x="344.882246" xlink:href="#m55b4c97298" y="293.76"/>
      </g>
     </g>
    </g>
    <g id="xtick_27">
     <g id="line2d_83">
      <path clip-path="url(#p2819464ddc)" d="M 349.862974 293.76 
L 349.862974 3.456 
" style="fill:none;stroke:#b0b0b0;stroke-linecap:square;stroke-width:0.8;"/>
     </g>
     <g id="line2d_84">
      <g>
       <use style="stroke:#000000;stroke-width:0.6;" x="349.862974" xlink:href="#m55b4c97298" y="293.76"/>
      </g>
     </g>
    </g>
    <g id="xtick_28">
     <g id="line2d_85">
      <path clip-path="url(#p2819464ddc)" d="M 383.629716 293.76 
L 383.629716 3.456 
" style="fill:none;stroke:#b0b0b0;stroke-linecap:square;stroke-width:0.8;"/>
     </g>
     <g id="line2d_86">
      <g>
       <use style="stroke:#000000;stroke-width:0.6;" x="383.629716" xlink:href="#m55b4c97298" y="293.76"/>
      </g>
     </g>
    </g>
    <g id="xtick_29">
     <g id="line2d_87">
      <path clip-path="url(#p2819464ddc)" d="M 400.775745 293.76 
L 400.775745 3.456 
" style="fill:none;stroke:#b0b0b0;stroke-linecap:square;stroke-width:0.8;"/>
     </g>
     <g id="line2d_88">
      <g>
       <use style="stroke:#000000;stroke-width:0.6;" x="400.775745" xlink:href="#m55b4c97298" y="293.76"/>
      </g>
     </g>
    </g>
    <g id="xtick_30">
     <g id="line2d_89">
      <path clip-path="url(#p2819464ddc)" d="M 412.941046 293.76 
L 412.941046 3.456 
" style="fill:none;stroke:#b0b0b0;stroke-linecap:square;stroke-width:0.8;"/>
     </g>
     <g id="line2d_90">
      <g>
       <use style="stroke:#000000;stroke-width:0.6;" x="412.941046" xlink:href="#m55b4c97298" y="293.76"/>
      </g>
     </g>
    </g>
    <g id="xtick_31">
     <g id="line2d_91">
      <path clip-path="url(#p2819464ddc)" d="M 422.377186 293.76 
L 422.377186 3.456 
" style="fill:none;stroke:#b0b0b0;stroke-linecap:square;stroke-width:0.8;"/>
     </g>
     <g id="line2d_92">
      <g>
       <use style="stroke:#000000;stroke-width:0.6;" x="422.377186" xlink:href="#m55b4c97298" y="293.76"/>
      </g>
     </g>
    </g>
    <g id="xtick_32">
     <g id="line2d_93">
      <path clip-path="url(#p2819464ddc)" d="M 430.087075 293.76 
L 430.087075 3.456 
" style="fill:none;stroke:#b0b0b0;stroke-linecap:square;stroke-width:0.8;"/>
     </g>
     <g id="line2d_94">
      <g>
       <use style="stroke:#000000;stroke-width:0.6;" x="430.087075" xlink:href="#m55b4c97298" y="293.76"/>
      </g>
     </g>
    </g>
    <g id="xtick_33">
     <g id="line2d_95">
      <path clip-path="url(#p2819464ddc)" d="M 436.605692 293.76 
L 436.605692 3.456 
" style="fill:none;stroke:#b0b0b0;stroke-linecap:square;stroke-width:0.8;"/>
     </g>
     <g id="line2d_96">
      <g>
       <use style="stroke:#000000;stroke-width:0.6;" x="436.605692" xlink:href="#m55b4c97298" y="293.76"/>
      </g>
     </g>
    </g>
    <g id="xtick_34">
     <g id="line2d_97">
      <path clip-path="url(#p2819464ddc)" d="M 442.252375 293.76 
L 442.252375 3.456 
" style="fill:none;stroke:#b0b0b0;stroke-linecap:square;stroke-width:0.8;"/>
     </g>
     <g id="line2d_98">
      <g>
       <use style="stroke:#000000;stroke-width:0.6;" x="442.252375" xlink:href="#m55b4c97298" y="293.76"/>
      </g>
     </g>
    </g>
    <g id="xtick_35">
     <g id="line2d_99">
      <path clip-path="url(#p2819464ddc)" d="M 447.233103 293.76 
L 447.233103 3.456 
" style="fill:none;stroke:#b0b0b0;stroke-linecap:square;stroke-width:0.8;"/>
     </g>
     <g id="line2d_100">
      <g>
       <use style="stroke:#000000;stroke-width:0.6;" x="447.233103" xlink:href="#m55b4c97298" y="293.76"/>
      </g>
     </g>
    </g>
    <g id="text_4">
     <!-- log10 of FEvals / DIM -->
     <defs>
      <path d="M 9.421875 75.984375 
L 18.40625 75.984375 
L 18.40625 0 
L 9.421875 0 
z
" id="DejaVuSans-108"/>
      <path d="M 30.609375 48.390625 
Q 23.390625 48.390625 19.1875 42.75 
Q 14.984375 37.109375 14.984375 27.296875 
Q 14.984375 17.484375 19.15625 11.84375 
Q 23.34375 6.203125 30.609375 6.203125 
Q 37.796875 6.203125 41.984375 11.859375 
Q 46.1875 17.53125 46.1875 27.296875 
Q 46.1875 37.015625 41.984375 42.703125 
Q 37.796875 48.390625 30.609375 48.390625 
z
M 30.609375 56 
Q 42.328125 56 49.015625 48.375 
Q 55.71875 40.765625 55.71875 27.296875 
Q 55.71875 13.875 49.015625 6.21875 
Q 42.328125 -1.421875 30.609375 -1.421875 
Q 18.84375 -1.421875 12.171875 6.21875 
Q 5.515625 13.875 5.515625 27.296875 
Q 5.515625 40.765625 12.171875 48.375 
Q 18.84375 56 30.609375 56 
z
" id="DejaVuSans-111"/>
      <path d="M 45.40625 27.984375 
Q 45.40625 37.75 41.375 43.109375 
Q 37.359375 48.484375 30.078125 48.484375 
Q 22.859375 48.484375 18.828125 43.109375 
Q 14.796875 37.75 14.796875 27.984375 
Q 14.796875 18.265625 18.828125 12.890625 
Q 22.859375 7.515625 30.078125 7.515625 
Q 37.359375 7.515625 41.375 12.890625 
Q 45.40625 18.265625 45.40625 27.984375 
z
M 54.390625 6.78125 
Q 54.390625 -7.171875 48.1875 -13.984375 
Q 42 -20.796875 29.203125 -20.796875 
Q 24.46875 -20.796875 20.265625 -20.09375 
Q 16.0625 -19.390625 12.109375 -17.921875 
L 12.109375 -9.1875 
Q 16.0625 -11.328125 19.921875 -12.34375 
Q 23.78125 -13.375 27.78125 -13.375 
Q 36.625 -13.375 41.015625 -8.765625 
Q 45.40625 -4.15625 45.40625 5.171875 
L 45.40625 9.625 
Q 42.625 4.78125 38.28125 2.390625 
Q 33.9375 0 27.875 0 
Q 17.828125 0 11.671875 7.65625 
Q 5.515625 15.328125 5.515625 27.984375 
Q 5.515625 40.671875 11.671875 48.328125 
Q 17.828125 56 27.875 56 
Q 33.9375 56 38.28125 53.609375 
Q 42.625 51.21875 45.40625 46.390625 
L 45.40625 54.6875 
L 54.390625 54.6875 
z
" id="DejaVuSans-103"/>
      <path d="M 12.40625 8.296875 
L 28.515625 8.296875 
L 28.515625 63.921875 
L 10.984375 60.40625 
L 10.984375 69.390625 
L 28.421875 72.90625 
L 38.28125 72.90625 
L 38.28125 8.296875 
L 54.390625 8.296875 
L 54.390625 0 
L 12.40625 0 
z
" id="DejaVuSans-49"/>
      <path id="DejaVuSans-32"/>
      <path d="M 37.109375 75.984375 
L 37.109375 68.5 
L 28.515625 68.5 
Q 23.6875 68.5 21.796875 66.546875 
Q 19.921875 64.59375 19.921875 59.515625 
L 19.921875 54.6875 
L 34.71875 54.6875 
L 34.71875 47.703125 
L 19.921875 47.703125 
L 19.921875 0 
L 10.890625 0 
L 10.890625 47.703125 
L 2.296875 47.703125 
L 2.296875 54.6875 
L 10.890625 54.6875 
L 10.890625 58.5 
Q 10.890625 67.625 15.140625 71.796875 
Q 19.390625 75.984375 28.609375 75.984375 
z
" id="DejaVuSans-102"/>
      <path d="M 9.8125 72.90625 
L 51.703125 72.90625 
L 51.703125 64.59375 
L 19.671875 64.59375 
L 19.671875 43.109375 
L 48.578125 43.109375 
L 48.578125 34.8125 
L 19.671875 34.8125 
L 19.671875 0 
L 9.8125 0 
z
" id="DejaVuSans-70"/>
      <path d="M 9.8125 72.90625 
L 55.90625 72.90625 
L 55.90625 64.59375 
L 19.671875 64.59375 
L 19.671875 43.015625 
L 54.390625 43.015625 
L 54.390625 34.71875 
L 19.671875 34.71875 
L 19.671875 8.296875 
L 56.78125 8.296875 
L 56.78125 0 
L 9.8125 0 
z
" id="DejaVuSans-69"/>
      <path d="M 2.984375 54.6875 
L 12.5 54.6875 
L 29.59375 8.796875 
L 46.6875 54.6875 
L 56.203125 54.6875 
L 35.6875 0 
L 23.484375 0 
z
" id="DejaVuSans-118"/>
      <path d="M 34.28125 27.484375 
Q 23.390625 27.484375 19.1875 25 
Q 14.984375 22.515625 14.984375 16.5 
Q 14.984375 11.71875 18.140625 8.90625 
Q 21.296875 6.109375 26.703125 6.109375 
Q 34.1875 6.109375 38.703125 11.40625 
Q 43.21875 16.703125 43.21875 25.484375 
L 43.21875 27.484375 
z
M 52.203125 31.203125 
L 52.203125 0 
L 43.21875 0 
L 43.21875 8.296875 
Q 40.140625 3.328125 35.546875 0.953125 
Q 30.953125 -1.421875 24.3125 -1.421875 
Q 15.921875 -1.421875 10.953125 3.296875 
Q 6 8.015625 6 15.921875 
Q 6 25.140625 12.171875 29.828125 
Q 18.359375 34.515625 30.609375 34.515625 
L 43.21875 34.515625 
L 43.21875 35.40625 
Q 43.21875 41.609375 39.140625 45 
Q 35.0625 48.390625 27.6875 48.390625 
Q 23 48.390625 18.546875 47.265625 
Q 14.109375 46.140625 10.015625 43.890625 
L 10.015625 52.203125 
Q 14.9375 54.109375 19.578125 55.046875 
Q 24.21875 56 28.609375 56 
Q 40.484375 56 46.34375 49.84375 
Q 52.203125 43.703125 52.203125 31.203125 
z
" id="DejaVuSans-97"/>
      <path d="M 44.28125 53.078125 
L 44.28125 44.578125 
Q 40.484375 46.53125 36.375 47.5 
Q 32.28125 48.484375 27.875 48.484375 
Q 21.1875 48.484375 17.84375 46.4375 
Q 14.5 44.390625 14.5 40.28125 
Q 14.5 37.15625 16.890625 35.375 
Q 19.28125 33.59375 26.515625 31.984375 
L 29.59375 31.296875 
Q 39.15625 29.25 43.1875 25.515625 
Q 47.21875 21.78125 47.21875 15.09375 
Q 47.21875 7.46875 41.1875 3.015625 
Q 35.15625 -1.421875 24.609375 -1.421875 
Q 20.21875 -1.421875 15.453125 -0.5625 
Q 10.6875 0.296875 5.421875 2 
L 5.421875 11.28125 
Q 10.40625 8.6875 15.234375 7.390625 
Q 20.0625 6.109375 24.8125 6.109375 
Q 31.15625 6.109375 34.5625 8.28125 
Q 37.984375 10.453125 37.984375 14.40625 
Q 37.984375 18.0625 35.515625 20.015625 
Q 33.0625 21.96875 24.703125 23.78125 
L 21.578125 24.515625 
Q 13.234375 26.265625 9.515625 29.90625 
Q 5.8125 33.546875 5.8125 39.890625 
Q 5.8125 47.609375 11.28125 51.796875 
Q 16.75 56 26.8125 56 
Q 31.78125 56 36.171875 55.265625 
Q 40.578125 54.546875 44.28125 53.078125 
z
" id="DejaVuSans-115"/>
      <path d="M 25.390625 72.90625 
L 33.6875 72.90625 
L 8.296875 -9.28125 
L 0 -9.28125 
z
" id="DejaVuSans-47"/>
      <path d="M 19.671875 64.796875 
L 19.671875 8.109375 
L 31.59375 8.109375 
Q 46.6875 8.109375 53.6875 14.9375 
Q 60.6875 21.78125 60.6875 36.53125 
Q 60.6875 51.171875 53.6875 57.984375 
Q 46.6875 64.796875 31.59375 64.796875 
z
M 9.8125 72.90625 
L 30.078125 72.90625 
Q 51.265625 72.90625 61.171875 64.09375 
Q 71.09375 55.28125 71.09375 36.53125 
Q 71.09375 17.671875 61.125 8.828125 
Q 51.171875 0 30.078125 0 
L 9.8125 0 
z
" id="DejaVuSans-68"/>
      <path d="M 9.8125 72.90625 
L 19.671875 72.90625 
L 19.671875 0 
L 9.8125 0 
z
" id="DejaVuSans-73"/>
      <path d="M 9.8125 72.90625 
L 24.515625 72.90625 
L 43.109375 23.296875 
L 61.8125 72.90625 
L 76.515625 72.90625 
L 76.515625 0 
L 66.890625 0 
L 66.890625 64.015625 
L 48.09375 14.015625 
L 38.1875 14.015625 
L 19.390625 64.015625 
L 19.390625 0 
L 9.8125 0 
z
" id="DejaVuSans-77"/>
     </defs>
     <g transform="translate(156.430563 339.313125)scale(0.2 -0.2)">
      <use xlink:href="#DejaVuSans-108"/>
      <use x="27.783203" xlink:href="#DejaVuSans-111"/>
      <use x="88.964844" xlink:href="#DejaVuSans-103"/>
      <use x="152.441406" xlink:href="#DejaVuSans-49"/>
      <use x="216.064453" xlink:href="#DejaVuSans-48"/>
      <use x="279.6875" xlink:href="#DejaVuSans-32"/>
      <use x="311.474609" xlink:href="#DejaVuSans-111"/>
      <use x="372.65625" xlink:href="#DejaVuSans-102"/>
      <use x="407.861328" xlink:href="#DejaVuSans-32"/>
      <use x="439.648438" xlink:href="#DejaVuSans-70"/>
      <use x="497.167969" xlink:href="#DejaVuSans-69"/>
      <use x="560.351562" xlink:href="#DejaVuSans-118"/>
      <use x="619.53125" xlink:href="#DejaVuSans-97"/>
      <use x="680.810547" xlink:href="#DejaVuSans-108"/>
      <use x="708.59375" xlink:href="#DejaVuSans-115"/>
      <use x="760.693359" xlink:href="#DejaVuSans-32"/>
      <use x="792.480469" xlink:href="#DejaVuSans-47"/>
      <use x="826.171875" xlink:href="#DejaVuSans-32"/>
      <use x="857.958984" xlink:href="#DejaVuSans-68"/>
      <use x="934.960938" xlink:href="#DejaVuSans-73"/>
      <use x="964.453125" xlink:href="#DejaVuSans-77"/>
     </g>
    </g>
   </g>
   <g id="matplotlib.axis_2">
    <g id="ytick_1">
     <g id="line2d_101">
      <path clip-path="url(#p2819464ddc)" d="M 62.208 293.76 
L 460.8 293.76 
" style="fill:none;stroke:#b0b0b0;stroke-linecap:square;stroke-width:0.8;"/>
     </g>
     <g id="line2d_102">
      <defs>
       <path d="M 0 0 
L -3.5 0 
" id="mb5b9c035f7" style="stroke:#000000;stroke-width:0.8;"/>
      </defs>
      <g>
       <use style="stroke:#000000;stroke-width:0.8;" x="62.208" xlink:href="#mb5b9c035f7" y="293.76"/>
      </g>
     </g>
     <g id="text_5">
      <!-- 0.0 -->
      <defs>
       <path d="M 10.6875 12.40625 
L 21 12.40625 
L 21 0 
L 10.6875 0 
z
" id="DejaVuSans-46"/>
      </defs>
      <g transform="translate(29.763 299.83875)scale(0.16 -0.16)">
       <use xlink:href="#DejaVuSans-48"/>
       <use x="63.623047" xlink:href="#DejaVuSans-46"/>
       <use x="95.410156" xlink:href="#DejaVuSans-48"/>
      </g>
     </g>
    </g>
    <g id="ytick_2">
     <g id="line2d_103">
      <path clip-path="url(#p2819464ddc)" d="M 62.208 236.274059 
L 460.8 236.274059 
" style="fill:none;stroke:#b0b0b0;stroke-linecap:square;stroke-width:0.8;"/>
     </g>
     <g id="line2d_104">
      <g>
       <use style="stroke:#000000;stroke-width:0.8;" x="62.208" xlink:href="#mb5b9c035f7" y="236.274059"/>
      </g>
     </g>
     <g id="text_6">
      <!-- 0.2 -->
      <g transform="translate(29.763 242.352809)scale(0.16 -0.16)">
       <use xlink:href="#DejaVuSans-48"/>
       <use x="63.623047" xlink:href="#DejaVuSans-46"/>
       <use x="95.410156" xlink:href="#DejaVuSans-50"/>
      </g>
     </g>
    </g>
    <g id="ytick_3">
     <g id="line2d_105">
      <path clip-path="url(#p2819464ddc)" d="M 62.208 178.788119 
L 460.8 178.788119 
" style="fill:none;stroke:#b0b0b0;stroke-linecap:square;stroke-width:0.8;"/>
     </g>
     <g id="line2d_106">
      <g>
       <use style="stroke:#000000;stroke-width:0.8;" x="62.208" xlink:href="#mb5b9c035f7" y="178.788119"/>
      </g>
     </g>
     <g id="text_7">
      <!-- 0.4 -->
      <g transform="translate(29.763 184.866869)scale(0.16 -0.16)">
       <use xlink:href="#DejaVuSans-48"/>
       <use x="63.623047" xlink:href="#DejaVuSans-46"/>
       <use x="95.410156" xlink:href="#DejaVuSans-52"/>
      </g>
     </g>
    </g>
    <g id="ytick_4">
     <g id="line2d_107">
      <path clip-path="url(#p2819464ddc)" d="M 62.208 121.302178 
L 460.8 121.302178 
" style="fill:none;stroke:#b0b0b0;stroke-linecap:square;stroke-width:0.8;"/>
     </g>
     <g id="line2d_108">
      <g>
       <use style="stroke:#000000;stroke-width:0.8;" x="62.208" xlink:href="#mb5b9c035f7" y="121.302178"/>
      </g>
     </g>
     <g id="text_8">
      <!-- 0.6 -->
      <defs>
       <path d="M 33.015625 40.375 
Q 26.375 40.375 22.484375 35.828125 
Q 18.609375 31.296875 18.609375 23.390625 
Q 18.609375 15.53125 22.484375 10.953125 
Q 26.375 6.390625 33.015625 6.390625 
Q 39.65625 6.390625 43.53125 10.953125 
Q 47.40625 15.53125 47.40625 23.390625 
Q 47.40625 31.296875 43.53125 35.828125 
Q 39.65625 40.375 33.015625 40.375 
z
M 52.59375 71.296875 
L 52.59375 62.3125 
Q 48.875 64.0625 45.09375 64.984375 
Q 41.3125 65.921875 37.59375 65.921875 
Q 27.828125 65.921875 22.671875 59.328125 
Q 17.53125 52.734375 16.796875 39.40625 
Q 19.671875 43.65625 24.015625 45.921875 
Q 28.375 48.1875 33.59375 48.1875 
Q 44.578125 48.1875 50.953125 41.515625 
Q 57.328125 34.859375 57.328125 23.390625 
Q 57.328125 12.15625 50.6875 5.359375 
Q 44.046875 -1.421875 33.015625 -1.421875 
Q 20.359375 -1.421875 13.671875 8.265625 
Q 6.984375 17.96875 6.984375 36.375 
Q 6.984375 53.65625 15.1875 63.9375 
Q 23.390625 74.21875 37.203125 74.21875 
Q 40.921875 74.21875 44.703125 73.484375 
Q 48.484375 72.75 52.59375 71.296875 
z
" id="DejaVuSans-54"/>
      </defs>
      <g transform="translate(29.763 127.380928)scale(0.16 -0.16)">
       <use xlink:href="#DejaVuSans-48"/>
       <use x="63.623047" xlink:href="#DejaVuSans-46"/>
       <use x="95.410156" xlink:href="#DejaVuSans-54"/>
      </g>
     </g>
    </g>
    <g id="ytick_5">
     <g id="line2d_109">
      <path clip-path="url(#p2819464ddc)" d="M 62.208 63.816238 
L 460.8 63.816238 
" style="fill:none;stroke:#b0b0b0;stroke-linecap:square;stroke-width:0.8;"/>
     </g>
     <g id="line2d_110">
      <g>
       <use style="stroke:#000000;stroke-width:0.8;" x="62.208" xlink:href="#mb5b9c035f7" y="63.816238"/>
      </g>
     </g>
     <g id="text_9">
      <!-- 0.8 -->
      <defs>
       <path d="M 31.78125 34.625 
Q 24.75 34.625 20.71875 30.859375 
Q 16.703125 27.09375 16.703125 20.515625 
Q 16.703125 13.921875 20.71875 10.15625 
Q 24.75 6.390625 31.78125 6.390625 
Q 38.8125 6.390625 42.859375 10.171875 
Q 46.921875 13.96875 46.921875 20.515625 
Q 46.921875 27.09375 42.890625 30.859375 
Q 38.875 34.625 31.78125 34.625 
z
M 21.921875 38.8125 
Q 15.578125 40.375 12.03125 44.71875 
Q 8.5 49.078125 8.5 55.328125 
Q 8.5 64.0625 14.71875 69.140625 
Q 20.953125 74.21875 31.78125 74.21875 
Q 42.671875 74.21875 48.875 69.140625 
Q 55.078125 64.0625 55.078125 55.328125 
Q 55.078125 49.078125 51.53125 44.71875 
Q 48 40.375 41.703125 38.8125 
Q 48.828125 37.15625 52.796875 32.3125 
Q 56.78125 27.484375 56.78125 20.515625 
Q 56.78125 9.90625 50.3125 4.234375 
Q 43.84375 -1.421875 31.78125 -1.421875 
Q 19.734375 -1.421875 13.25 4.234375 
Q 6.78125 9.90625 6.78125 20.515625 
Q 6.78125 27.484375 10.78125 32.3125 
Q 14.796875 37.15625 21.921875 38.8125 
z
M 18.3125 54.390625 
Q 18.3125 48.734375 21.84375 45.5625 
Q 25.390625 42.390625 31.78125 42.390625 
Q 38.140625 42.390625 41.71875 45.5625 
Q 45.3125 48.734375 45.3125 54.390625 
Q 45.3125 60.0625 41.71875 63.234375 
Q 38.140625 66.40625 31.78125 66.40625 
Q 25.390625 66.40625 21.84375 63.234375 
Q 18.3125 60.0625 18.3125 54.390625 
z
" id="DejaVuSans-56"/>
      </defs>
      <g transform="translate(29.763 69.894988)scale(0.16 -0.16)">
       <use xlink:href="#DejaVuSans-48"/>
       <use x="63.623047" xlink:href="#DejaVuSans-46"/>
       <use x="95.410156" xlink:href="#DejaVuSans-56"/>
      </g>
     </g>
    </g>
    <g id="ytick_6">
     <g id="line2d_111">
      <path clip-path="url(#p2819464ddc)" d="M 62.208 6.330297 
L 460.8 6.330297 
" style="fill:none;stroke:#b0b0b0;stroke-linecap:square;stroke-width:0.8;"/>
     </g>
     <g id="line2d_112">
      <g>
       <use style="stroke:#000000;stroke-width:0.8;" x="62.208" xlink:href="#mb5b9c035f7" y="6.330297"/>
      </g>
     </g>
     <g id="text_10">
      <!-- 1.0 -->
      <g transform="translate(29.763 12.409047)scale(0.16 -0.16)">
       <use xlink:href="#DejaVuSans-49"/>
       <use x="63.623047" xlink:href="#DejaVuSans-46"/>
       <use x="95.410156" xlink:href="#DejaVuSans-48"/>
      </g>
     </g>
    </g>
    <g id="text_11">
     <!-- proportion of trials -->
     <defs>
      <path d="M 18.109375 8.203125 
L 18.109375 -20.796875 
L 9.078125 -20.796875 
L 9.078125 54.6875 
L 18.109375 54.6875 
L 18.109375 46.390625 
Q 20.953125 51.265625 25.265625 53.625 
Q 29.59375 56 35.59375 56 
Q 45.5625 56 51.78125 48.09375 
Q 58.015625 40.1875 58.015625 27.296875 
Q 58.015625 14.40625 51.78125 6.484375 
Q 45.5625 -1.421875 35.59375 -1.421875 
Q 29.59375 -1.421875 25.265625 0.953125 
Q 20.953125 3.328125 18.109375 8.203125 
z
M 48.6875 27.296875 
Q 48.6875 37.203125 44.609375 42.84375 
Q 40.53125 48.484375 33.40625 48.484375 
Q 26.265625 48.484375 22.1875 42.84375 
Q 18.109375 37.203125 18.109375 27.296875 
Q 18.109375 17.390625 22.1875 11.75 
Q 26.265625 6.109375 33.40625 6.109375 
Q 40.53125 6.109375 44.609375 11.75 
Q 48.6875 17.390625 48.6875 27.296875 
z
" id="DejaVuSans-112"/>
      <path d="M 41.109375 46.296875 
Q 39.59375 47.171875 37.8125 47.578125 
Q 36.03125 48 33.890625 48 
Q 26.265625 48 22.1875 43.046875 
Q 18.109375 38.09375 18.109375 28.8125 
L 18.109375 0 
L 9.078125 0 
L 9.078125 54.6875 
L 18.109375 54.6875 
L 18.109375 46.1875 
Q 20.953125 51.171875 25.484375 53.578125 
Q 30.03125 56 36.53125 56 
Q 37.453125 56 38.578125 55.875 
Q 39.703125 55.765625 41.0625 55.515625 
z
" id="DejaVuSans-114"/>
      <path d="M 18.3125 70.21875 
L 18.3125 54.6875 
L 36.8125 54.6875 
L 36.8125 47.703125 
L 18.3125 47.703125 
L 18.3125 18.015625 
Q 18.3125 11.328125 20.140625 9.421875 
Q 21.96875 7.515625 27.59375 7.515625 
L 36.8125 7.515625 
L 36.8125 0 
L 27.59375 0 
Q 17.1875 0 13.234375 3.875 
Q 9.28125 7.765625 9.28125 18.015625 
L 9.28125 47.703125 
L 2.6875 47.703125 
L 2.6875 54.6875 
L 9.28125 54.6875 
L 9.28125 70.21875 
z
" id="DejaVuSans-116"/>
      <path d="M 9.421875 54.6875 
L 18.40625 54.6875 
L 18.40625 0 
L 9.421875 0 
z
M 9.421875 75.984375 
L 18.40625 75.984375 
L 18.40625 64.59375 
L 9.421875 64.59375 
z
" id="DejaVuSans-105"/>
      <path d="M 54.890625 33.015625 
L 54.890625 0 
L 45.90625 0 
L 45.90625 32.71875 
Q 45.90625 40.484375 42.875 44.328125 
Q 39.84375 48.1875 33.796875 48.1875 
Q 26.515625 48.1875 22.3125 43.546875 
Q 18.109375 38.921875 18.109375 30.90625 
L 18.109375 0 
L 9.078125 0 
L 9.078125 54.6875 
L 18.109375 54.6875 
L 18.109375 46.1875 
Q 21.34375 51.125 25.703125 53.5625 
Q 30.078125 56 35.796875 56 
Q 45.21875 56 50.046875 50.171875 
Q 54.890625 44.34375 54.890625 33.015625 
z
" id="DejaVuSans-110"/>
     </defs>
     <g transform="translate(21.603625 241.836125)rotate(-90)scale(0.2 -0.2)">
      <use xlink:href="#DejaVuSans-112"/>
      <use x="63.476562" xlink:href="#DejaVuSans-114"/>
      <use x="104.558594" xlink:href="#DejaVuSans-111"/>
      <use x="165.740234" xlink:href="#DejaVuSans-112"/>
      <use x="229.216797" xlink:href="#DejaVuSans-111"/>
      <use x="290.398438" xlink:href="#DejaVuSans-114"/>
      <use x="331.511719" xlink:href="#DejaVuSans-116"/>
      <use x="370.720703" xlink:href="#DejaVuSans-105"/>
      <use x="398.503906" xlink:href="#DejaVuSans-111"/>
      <use x="459.685547" xlink:href="#DejaVuSans-110"/>
      <use x="523.064453" xlink:href="#DejaVuSans-32"/>
      <use x="554.851562" xlink:href="#DejaVuSans-111"/>
      <use x="616.033203" xlink:href="#DejaVuSans-102"/>
      <use x="651.238281" xlink:href="#DejaVuSans-32"/>
      <use x="683.025391" xlink:href="#DejaVuSans-116"/>
      <use x="722.234375" xlink:href="#DejaVuSans-114"/>
      <use x="763.347656" xlink:href="#DejaVuSans-105"/>
      <use x="791.130859" xlink:href="#DejaVuSans-97"/>
      <use x="852.410156" xlink:href="#DejaVuSans-108"/>
      <use x="880.193359" xlink:href="#DejaVuSans-115"/>
     </g>
    </g>
   </g>
   <g id="line2d_113">
    <path clip-path="url(#p2819464ddc)" d="M -1 289.927604 
L 52.77186 289.927604 
L 52.77186 286.095208 
L 62.208 286.095208 
L 62.208 282.262812 
L 82.083189 282.262812 
L 82.083189 278.430416 
L 87.063917 278.430416 
L 87.063917 274.59802 
L 87.063917 274.59802 
L 87.063917 270.765624 
L 95.549741 270.765624 
L 95.549741 266.933228 
L 99.229218 266.933228 
L 99.229218 263.100832 
L 108.665358 263.100832 
L 108.665358 259.268436 
L 131.925338 259.268436 
L 131.925338 255.43604 
L 131.925338 255.43604 
L 131.925338 255.43604 
L 460.8 255.43604 
" style="fill:none;stroke:#000000;stroke-linecap:square;stroke-width:1.5;"/>
   </g>
   <g id="line2d_114">
    <path clip-path="url(#p2819464ddc)" style="fill:none;stroke:#000000;stroke-linecap:square;stroke-width:1.5;"/>
   </g>
   <g id="line2d_115"/>
   <g id="line2d_116"/>
   <g id="line2d_117"/>
   <g id="line2d_118">
    <path clip-path="url(#p2819464ddc)" d="M 257.785658 293.76 
L 257.785658 3.456 
" style="fill:none;stroke:#000000;stroke-linecap:square;stroke-width:1.5;"/>
   </g>
   <g id="patch_3">
    <path d="M 62.208 293.76 
L 62.208 3.456 
" style="fill:none;stroke:#000000;stroke-linecap:square;stroke-linejoin:miter;stroke-width:0.8;"/>
   </g>
   <g id="patch_4">
    <path d="M 460.8 293.76 
L 460.8 3.456 
" style="fill:none;stroke:#000000;stroke-linecap:square;stroke-linejoin:miter;stroke-width:0.8;"/>
   </g>
   <g id="patch_5">
    <path d="M 62.208 293.76 
L 460.8 293.76 
" style="fill:none;stroke:#000000;stroke-linecap:square;stroke-linejoin:miter;stroke-width:0.8;"/>
   </g>
   <g id="patch_6">
    <path d="M 62.208 3.456 
L 460.8 3.456 
" style="fill:none;stroke:#000000;stroke-linecap:square;stroke-linejoin:miter;stroke-width:0.8;"/>
   </g>
   <g id="text_12">
    <!-- {f10-f14}, 5-D -->
    <defs>
     <path d="M 51.125 -9.28125 
L 51.125 -16.3125 
L 48.09375 -16.3125 
Q 35.9375 -16.3125 31.8125 -12.6875 
Q 27.6875 -9.078125 27.6875 1.703125 
L 27.6875 13.375 
Q 27.6875 20.75 25.046875 23.578125 
Q 22.40625 26.421875 15.484375 26.421875 
L 12.5 26.421875 
L 12.5 33.40625 
L 15.484375 33.40625 
Q 22.46875 33.40625 25.078125 36.203125 
Q 27.6875 39.015625 27.6875 46.296875 
L 27.6875 58.015625 
Q 27.6875 68.796875 31.8125 72.390625 
Q 35.9375 75.984375 48.09375 75.984375 
L 51.125 75.984375 
L 51.125 69 
L 47.796875 69 
Q 40.921875 69 38.8125 66.84375 
Q 36.71875 64.703125 36.71875 57.8125 
L 36.71875 45.703125 
Q 36.71875 38.03125 34.5 34.5625 
Q 32.28125 31.109375 26.90625 29.890625 
Q 32.328125 28.5625 34.515625 25.09375 
Q 36.71875 21.625 36.71875 14.015625 
L 36.71875 1.90625 
Q 36.71875 -4.984375 38.8125 -7.125 
Q 40.921875 -9.28125 47.796875 -9.28125 
z
" id="DejaVuSans-123"/>
     <path d="M 4.890625 31.390625 
L 31.203125 31.390625 
L 31.203125 23.390625 
L 4.890625 23.390625 
z
" id="DejaVuSans-45"/>
     <path d="M 12.5 -9.28125 
L 15.921875 -9.28125 
Q 22.75 -9.28125 24.828125 -7.171875 
Q 26.90625 -5.078125 26.90625 1.90625 
L 26.90625 14.015625 
Q 26.90625 21.625 29.09375 25.09375 
Q 31.296875 28.5625 36.71875 29.890625 
Q 31.296875 31.109375 29.09375 34.5625 
Q 26.90625 38.03125 26.90625 45.703125 
L 26.90625 57.8125 
Q 26.90625 64.75 24.828125 66.875 
Q 22.75 69 15.921875 69 
L 12.5 69 
L 12.5 75.984375 
L 15.578125 75.984375 
Q 27.734375 75.984375 31.8125 72.390625 
Q 35.890625 68.796875 35.890625 58.015625 
L 35.890625 46.296875 
Q 35.890625 39.015625 38.515625 36.203125 
Q 41.15625 33.40625 48.09375 33.40625 
L 51.125 33.40625 
L 51.125 26.421875 
L 48.09375 26.421875 
Q 41.15625 26.421875 38.515625 23.578125 
Q 35.890625 20.75 35.890625 13.375 
L 35.890625 1.703125 
Q 35.890625 -9.078125 31.8125 -12.6875 
Q 27.734375 -16.3125 15.578125 -16.3125 
L 12.5 -16.3125 
z
" id="DejaVuSans-125"/>
     <path d="M 11.71875 12.40625 
L 22.015625 12.40625 
L 22.015625 4 
L 14.015625 -11.625 
L 7.71875 -11.625 
L 11.71875 4 
z
" id="DejaVuSans-44"/>
     <path d="M 10.796875 72.90625 
L 49.515625 72.90625 
L 49.515625 64.59375 
L 19.828125 64.59375 
L 19.828125 46.734375 
Q 21.96875 47.46875 24.109375 47.828125 
Q 26.265625 48.1875 28.421875 48.1875 
Q 40.625 48.1875 47.75 41.5 
Q 54.890625 34.8125 54.890625 23.390625 
Q 54.890625 11.625 47.5625 5.09375 
Q 40.234375 -1.421875 26.90625 -1.421875 
Q 22.3125 -1.421875 17.546875 -0.640625 
Q 12.796875 0.140625 7.71875 1.703125 
L 7.71875 11.625 
Q 12.109375 9.234375 16.796875 8.0625 
Q 21.484375 6.890625 26.703125 6.890625 
Q 35.15625 6.890625 40.078125 11.328125 
Q 45.015625 15.765625 45.015625 23.390625 
Q 45.015625 31 40.078125 35.4375 
Q 35.15625 39.890625 26.703125 39.890625 
Q 22.75 39.890625 18.8125 39.015625 
Q 14.890625 38.140625 10.796875 36.28125 
z
" id="DejaVuSans-53"/>
    </defs>
    <g transform="translate(188.654 24.458955)scale(0.2 -0.2)">
     <use xlink:href="#DejaVuSans-123"/>
     <use x="63.623047" xlink:href="#DejaVuSans-102"/>
     <use x="98.828125" xlink:href="#DejaVuSans-49"/>
     <use x="162.451172" xlink:href="#DejaVuSans-48"/>
     <use x="226.074219" xlink:href="#DejaVuSans-45"/>
     <use x="262.158203" xlink:href="#DejaVuSans-102"/>
     <use x="297.363281" xlink:href="#DejaVuSans-49"/>
     <use x="360.986328" xlink:href="#DejaVuSans-52"/>
     <use x="424.609375" xlink:href="#DejaVuSans-125"/>
     <use x="488.232422" xlink:href="#DejaVuSans-44"/>
     <use x="520.019531" xlink:href="#DejaVuSans-32"/>
     <use x="551.806641" xlink:href="#DejaVuSans-53"/>
     <use x="615.429688" xlink:href="#DejaVuSans-45"/>
     <use x="651.513672" xlink:href="#DejaVuSans-68"/>
    </g>
   </g>
   <g id="text_13">
    <!-- absolute targets -->
    <defs>
     <path d="M 48.6875 27.296875 
Q 48.6875 37.203125 44.609375 42.84375 
Q 40.53125 48.484375 33.40625 48.484375 
Q 26.265625 48.484375 22.1875 42.84375 
Q 18.109375 37.203125 18.109375 27.296875 
Q 18.109375 17.390625 22.1875 11.75 
Q 26.265625 6.109375 33.40625 6.109375 
Q 40.53125 6.109375 44.609375 11.75 
Q 48.6875 17.390625 48.6875 27.296875 
z
M 18.109375 46.390625 
Q 20.953125 51.265625 25.265625 53.625 
Q 29.59375 56 35.59375 56 
Q 45.5625 56 51.78125 48.09375 
Q 58.015625 40.1875 58.015625 27.296875 
Q 58.015625 14.40625 51.78125 6.484375 
Q 45.5625 -1.421875 35.59375 -1.421875 
Q 29.59375 -1.421875 25.265625 0.953125 
Q 20.953125 3.328125 18.109375 8.203125 
L 18.109375 0 
L 9.078125 0 
L 9.078125 75.984375 
L 18.109375 75.984375 
z
" id="DejaVuSans-98"/>
     <path d="M 8.5 21.578125 
L 8.5 54.6875 
L 17.484375 54.6875 
L 17.484375 21.921875 
Q 17.484375 14.15625 20.5 10.265625 
Q 23.53125 6.390625 29.59375 6.390625 
Q 36.859375 6.390625 41.078125 11.03125 
Q 45.3125 15.671875 45.3125 23.6875 
L 45.3125 54.6875 
L 54.296875 54.6875 
L 54.296875 0 
L 45.3125 0 
L 45.3125 8.40625 
Q 42.046875 3.421875 37.71875 1 
Q 33.40625 -1.421875 27.6875 -1.421875 
Q 18.265625 -1.421875 13.375 4.4375 
Q 8.5 10.296875 8.5 21.578125 
z
M 31.109375 56 
z
" id="DejaVuSans-117"/>
     <path d="M 56.203125 29.59375 
L 56.203125 25.203125 
L 14.890625 25.203125 
Q 15.484375 15.921875 20.484375 11.0625 
Q 25.484375 6.203125 34.421875 6.203125 
Q 39.59375 6.203125 44.453125 7.46875 
Q 49.3125 8.734375 54.109375 11.28125 
L 54.109375 2.78125 
Q 49.265625 0.734375 44.1875 -0.34375 
Q 39.109375 -1.421875 33.890625 -1.421875 
Q 20.796875 -1.421875 13.15625 6.1875 
Q 5.515625 13.8125 5.515625 26.8125 
Q 5.515625 40.234375 12.765625 48.109375 
Q 20.015625 56 32.328125 56 
Q 43.359375 56 49.78125 48.890625 
Q 56.203125 41.796875 56.203125 29.59375 
z
M 47.21875 32.234375 
Q 47.125 39.59375 43.09375 43.984375 
Q 39.0625 48.390625 32.421875 48.390625 
Q 24.90625 48.390625 20.390625 44.140625 
Q 15.875 39.890625 15.1875 32.171875 
z
" id="DejaVuSans-101"/>
    </defs>
    <g transform="translate(62.208 609.932673)scale(0.14 -0.14)">
     <use xlink:href="#DejaVuSans-97"/>
     <use x="61.279297" xlink:href="#DejaVuSans-98"/>
     <use x="124.755859" xlink:href="#DejaVuSans-115"/>
     <use x="176.855469" xlink:href="#DejaVuSans-111"/>
     <use x="238.037109" xlink:href="#DejaVuSans-108"/>
     <use x="265.820312" xlink:href="#DejaVuSans-117"/>
     <use x="329.199219" xlink:href="#DejaVuSans-116"/>
     <use x="368.408203" xlink:href="#DejaVuSans-101"/>
     <use x="429.931641" xlink:href="#DejaVuSans-32"/>
     <use x="461.71875" xlink:href="#DejaVuSans-116"/>
     <use x="500.927734" xlink:href="#DejaVuSans-97"/>
     <use x="562.207031" xlink:href="#DejaVuSans-114"/>
     <use x="603.304688" xlink:href="#DejaVuSans-103"/>
     <use x="666.78125" xlink:href="#DejaVuSans-101"/>
     <use x="728.304688" xlink:href="#DejaVuSans-116"/>
     <use x="767.513672" xlink:href="#DejaVuSans-115"/>
    </g>
   </g>
   <g id="text_14">
    <!-- v2.4 -->
    <g style="fill:#808080;" transform="translate(250.593063 288.777272)scale(0.1 -0.1)">
     <use xlink:href="#DejaVuSans-118"/>
     <use x="59.179688" xlink:href="#DejaVuSans-50"/>
     <use x="122.802734" xlink:href="#DejaVuSans-46"/>
     <use x="154.589844" xlink:href="#DejaVuSans-52"/>
    </g>
   </g>
   <g id="legend_1">
    <g id="patch_7">
     <path d="M 76.208 136.881 
L 205.429875 136.881 
Q 209.429875 136.881 209.429875 132.881 
L 209.429875 17.456 
Q 209.429875 13.456 205.429875 13.456 
L 76.208 13.456 
Q 72.208 13.456 72.208 17.456 
L 72.208 132.881 
Q 72.208 136.881 76.208 136.881 
z
" style="fill:#ffffff;opacity:0.2;stroke:#cccccc;stroke-linejoin:miter;"/>
    </g>
    <g id="line2d_119">
     <path d="M 80.208 29.652875 
L 120.208 29.652875 
" style="fill:none;stroke:#000000;stroke-linecap:square;stroke-width:1.5;"/>
    </g>
    <g id="line2d_120"/>
    <g id="text_15">
     <!-- 1: 1/5 -->
     <defs>
      <path d="M 11.71875 12.40625 
L 22.015625 12.40625 
L 22.015625 0 
L 11.71875 0 
z
M 11.71875 51.703125 
L 22.015625 51.703125 
L 22.015625 39.3125 
L 11.71875 39.3125 
z
" id="DejaVuSans-58"/>
     </defs>
     <g transform="translate(136.208 36.652875)scale(0.2 -0.2)">
      <use xlink:href="#DejaVuSans-49"/>
      <use x="63.623047" xlink:href="#DejaVuSans-58"/>
      <use x="97.314453" xlink:href="#DejaVuSans-32"/>
      <use x="129.101562" xlink:href="#DejaVuSans-49"/>
      <use x="192.724609" xlink:href="#DejaVuSans-47"/>
      <use x="226.416016" xlink:href="#DejaVuSans-53"/>
     </g>
    </g>
    <g id="line2d_121">
     <path d="M 80.208 59.009125 
L 120.208 59.009125 
" style="fill:none;stroke:#00bfbf;stroke-linecap:square;stroke-width:1.5;"/>
    </g>
    <g id="line2d_122"/>
    <g id="text_16">
     <!-- -1: 0/5 -->
     <g transform="translate(136.208 66.009125)scale(0.2 -0.2)">
      <use xlink:href="#DejaVuSans-45"/>
      <use x="36.083984" xlink:href="#DejaVuSans-49"/>
      <use x="99.707031" xlink:href="#DejaVuSans-58"/>
      <use x="133.398438" xlink:href="#DejaVuSans-32"/>
      <use x="165.185547" xlink:href="#DejaVuSans-48"/>
      <use x="228.808594" xlink:href="#DejaVuSans-47"/>
      <use x="262.5" xlink:href="#DejaVuSans-53"/>
     </g>
    </g>
    <g id="line2d_123">
     <path d="M 80.208 88.365375 
L 120.208 88.365375 
" style="fill:none;stroke:#bf00bf;stroke-linecap:square;stroke-width:1.5;"/>
    </g>
    <g id="line2d_124"/>
    <g id="text_17">
     <!-- -4: 0/5 -->
     <g transform="translate(136.208 95.365375)scale(0.2 -0.2)">
      <use xlink:href="#DejaVuSans-45"/>
      <use x="36.083984" xlink:href="#DejaVuSans-52"/>
      <use x="99.707031" xlink:href="#DejaVuSans-58"/>
      <use x="133.398438" xlink:href="#DejaVuSans-32"/>
      <use x="165.185547" xlink:href="#DejaVuSans-48"/>
      <use x="228.808594" xlink:href="#DejaVuSans-47"/>
      <use x="262.5" xlink:href="#DejaVuSans-53"/>
     </g>
    </g>
    <g id="line2d_125">
     <path d="M 80.208 117.721625 
L 120.208 117.721625 
" style="fill:none;stroke:#ff0000;stroke-linecap:square;stroke-width:3;"/>
    </g>
    <g id="line2d_126"/>
    <g id="text_18">
     <!-- -8: 0/5 -->
     <g transform="translate(136.208 124.721625)scale(0.2 -0.2)">
      <use xlink:href="#DejaVuSans-45"/>
      <use x="36.083984" xlink:href="#DejaVuSans-56"/>
      <use x="99.707031" xlink:href="#DejaVuSans-58"/>
      <use x="133.398438" xlink:href="#DejaVuSans-32"/>
      <use x="165.185547" xlink:href="#DejaVuSans-48"/>
      <use x="228.808594" xlink:href="#DejaVuSans-47"/>
      <use x="262.5" xlink:href="#DejaVuSans-53"/>
     </g>
    </g>
   </g>
  </g>
 </g>
 <defs>
  <clipPath id="p2819464ddc">
   <rect height="290.304" width="398.592" x="62.208" y="3.456"/>
  </clipPath>
 </defs>
</svg>
