<?xml version="1.0" encoding="utf-8" standalone="no"?>
<!DOCTYPE svg PUBLIC "-//W3C//DTD SVG 1.1//EN"
  "http://www.w3.org/Graphics/SVG/1.1/DTD/svg11.dtd">
<!-- Created with matplotlib (https://matplotlib.org/) -->
<svg height="345.6pt" version="1.1" viewBox="0 0 460.8 345.6" width="460.8pt" xmlns="http://www.w3.org/2000/svg" xmlns:xlink="http://www.w3.org/1999/xlink">
 <defs>
  <style type="text/css">
*{stroke-linecap:butt;stroke-linejoin:round;}
  </style>
 </defs>
 <g id="figure_1">
  <g id="patch_1">
   <path d="M 0 345.6 
L 460.8 345.6 
L 460.8 0 
L 0 0 
z
" style="fill:#ffffff;"/>
  </g>
  <g id="axes_1">
   <g id="patch_2">
    <path d="M 62.208 293.76 
L 460.8 293.76 
L 460.8 3.456 
L 62.208 3.456 
z
" style="fill:#ffffff;"/>
   </g>
   <g id="line2d_1">
    <path clip-path="url(#p2fa84b9f5c)" d="M 151.523003 293.76 
L 151.523003 289.927604 
L 151.523003 289.927604 
L 151.523003 286.095208 
L 151.523003 286.095208 
L 151.523003 282.262812 
L 151.523003 282.262812 
L 151.523003 278.430416 
L 151.523003 278.430416 
L 151.523003 274.59802 
L 151.523003 274.59802 
L 151.523003 270.765624 
L 151.523003 270.765624 
L 151.523003 266.933228 
L 151.523003 266.933228 
L 151.523003 263.100832 
L 151.523003 263.100832 
L 151.523003 259.268436 
L 151.523003 259.268436 
L 151.523003 255.43604 
L 151.523003 255.43604 
L 151.523003 251.603644 
L 151.523003 251.603644 
L 151.523003 247.771248 
L 151.523003 247.771248 
L 151.523003 243.938851 
L 151.523003 243.938851 
L 151.523003 240.106455 
L 151.523003 240.106455 
L 151.523003 236.274059 
L 155.153207 236.274059 
L 155.153207 232.441663 
L 156.822281 232.441663 
L 156.822281 228.609267 
L 156.822281 228.609267 
L 156.822281 224.776871 
L 158.407163 224.776871 
L 158.407163 220.944475 
L 158.407163 220.944475 
L 158.407163 217.112079 
L 158.407163 217.112079 
L 158.407163 213.279683 
L 158.407163 213.279683 
L 158.407163 209.447287 
L 159.915941 209.447287 
L 159.915941 205.614891 
L 159.915941 205.614891 
L 159.915941 201.782495 
L 159.915941 201.782495 
L 159.915941 197.950099 
L 161.355589 197.950099 
L 161.355589 194.117703 
L 161.355589 194.117703 
L 161.355589 190.285307 
L 161.355589 190.285307 
L 161.355589 186.452911 
L 161.355589 186.452911 
L 161.355589 182.620515 
L 162.732167 182.620515 
L 162.732167 178.788119 
L 256.105902 178.788119 
L 256.105902 174.955723 
L 256.653263 174.955723 
L 256.653263 171.123327 
L 257.057617 171.123327 
L 257.057617 167.290931 
L 257.257859 167.290931 
L 257.257859 163.458535 
L 257.456834 163.458535 
L 257.456834 159.626139 
L 258.175815 159.626139 
L 258.175815 155.793743 
L 278.996892 155.793743 
L 278.996892 151.961347 
L 279.262285 151.961347 
L 279.262285 148.12895 
L 279.525456 148.12895 
L 279.525456 144.296554 
L 291.260886 144.296554 
L 291.260886 140.464158 
L 292.62881 140.464158 
L 292.62881 136.631762 
L 292.666827 136.631762 
L 292.666827 132.799366 
L 299.815388 132.799366 
L 299.815388 128.96697 
L 299.815388 128.96697 
L 299.815388 128.96697 
L 460.8 128.96697 
" style="fill:none;stroke:#f5deb3;stroke-linecap:square;stroke-width:1.5;"/>
   </g>
   <g id="line2d_2">
    <path clip-path="url(#p2fa84b9f5c)" d="M 254.776675 293.76 
L 254.776675 282.262812 
L 254.776675 282.262812 
L 254.776675 270.765624 
L 254.780104 270.765624 
L 254.780104 259.268436 
L 254.780104 259.268436 
L 254.780104 247.771248 
L 254.780104 247.771248 
L 254.780104 236.274059 
L 317.675278 236.274059 
L 317.675278 224.776871 
L 320.968442 224.776871 
L 320.968442 213.279683 
L 323.37107 213.279683 
L 323.37107 201.782495 
L 327.954923 201.782495 
L 327.954923 190.285307 
L 327.954923 190.285307 
L 327.954923 190.285307 
L 460.8 190.285307 
" style="fill:none;stroke:#f5deb3;stroke-linecap:square;stroke-width:1.5;"/>
   </g>
   <g id="line2d_3">
    <path clip-path="url(#p2fa84b9f5c)" d="M 139.370498 293.76 
L 139.370498 289.927604 
L 139.370498 289.927604 
L 139.370498 286.095208 
L 139.370498 286.095208 
L 139.370498 282.262812 
L 139.370498 282.262812 
L 139.370498 278.430416 
L 139.505089 278.430416 
L 139.505089 274.59802 
L 139.639105 274.59802 
L 139.639105 270.765624 
L 139.639105 270.765624 
L 139.639105 266.933228 
L 139.639105 266.933228 
L 139.639105 263.100832 
L 139.639105 263.100832 
L 139.639105 259.268436 
L 139.639105 259.268436 
L 139.639105 255.43604 
L 139.639105 255.43604 
L 139.639105 251.603644 
L 139.639105 251.603644 
L 139.639105 247.771248 
L 139.639105 247.771248 
L 139.639105 243.938851 
L 139.639105 243.938851 
L 139.639105 240.106455 
L 139.772553 240.106455 
L 139.772553 236.274059 
L 139.905436 236.274059 
L 139.905436 232.441663 
L 140.169528 232.441663 
L 140.169528 228.609267 
L 141.457694 228.609267 
L 141.457694 224.776871 
L 141.95853 224.776871 
L 141.95853 220.944475 
L 142.936877 220.944475 
L 142.936877 217.112079 
L 142.936877 217.112079 
L 142.936877 213.279683 
L 143.296044 213.279683 
L 143.296044 209.447287 
L 143.41486 209.447287 
L 143.41486 205.614891 
L 143.533229 205.614891 
L 143.533229 201.782495 
L 144.118476 201.782495 
L 144.118476 197.950099 
L 144.234228 197.950099 
L 144.234228 194.117703 
L 144.57895 194.117703 
L 144.57895 190.285307 
L 145.590993 190.285307 
L 145.590993 186.452911 
L 147.313442 186.452911 
L 147.313442 182.620515 
L 148.646591 182.620515 
L 148.646591 178.788119 
L 148.646591 178.788119 
L 148.646591 178.788119 
L 460.8 178.788119 
" style="fill:none;stroke:#f5deb3;stroke-linecap:square;stroke-width:1.5;"/>
   </g>
   <g id="line2d_4">
    <path clip-path="url(#p2fa84b9f5c)" d="M 116.62845 293.76 
L 116.62845 289.927604 
L 117.179812 289.927604 
L 117.179812 286.095208 
L 117.989132 286.095208 
L 117.989132 282.262812 
L 119.03679 282.262812 
L 119.03679 278.430416 
L 120.050647 278.430416 
L 120.050647 274.59802 
L 123.585473 274.59802 
L 123.585473 270.765624 
L 123.585473 270.765624 
L 123.585473 266.933228 
L 123.807572 266.933228 
L 123.807572 263.100832 
L 125.319808 263.100832 
L 125.319808 259.268436 
L 125.319808 259.268436 
L 125.319808 255.43604 
L 127.162951 255.43604 
L 127.162951 251.603644 
L 129.278093 251.603644 
L 129.278093 247.771248 
L 129.647825 247.771248 
L 129.647825 243.938851 
L 130.374489 243.938851 
L 130.374489 240.106455 
L 142.936877 240.106455 
L 142.936877 236.274059 
L 200.038851 236.274059 
L 200.038851 232.441663 
L 201.454541 232.441663 
L 201.454541 228.609267 
L 201.659641 228.609267 
L 201.659641 224.776871 
L 201.900319 224.776871 
L 201.900319 220.944475 
L 202.248797 220.944475 
L 202.248797 217.112079 
L 203.059043 217.112079 
L 203.059043 213.279683 
L 203.165515 213.279683 
L 203.165515 209.447287 
L 203.218616 209.447287 
L 203.218616 205.614891 
L 203.271627 205.614891 
L 203.271627 201.782495 
L 203.46524 201.782495 
L 203.46524 197.950099 
L 203.570347 197.950099 
L 203.570347 194.117703 
L 203.605304 194.117703 
L 203.605304 190.285307 
L 204.398779 190.285307 
L 204.398779 186.452911 
L 204.534753 186.452911 
L 204.534753 182.620515 
L 204.687023 182.620515 
L 204.687023 178.788119 
L 273.317827 178.788119 
L 273.317827 174.955723 
L 273.319727 174.955723 
L 273.319727 171.123327 
L 273.693793 171.123327 
L 273.693793 167.290931 
L 274.335123 167.290931 
L 274.335123 163.458535 
L 274.659142 163.458535 
L 274.659142 159.626139 
L 274.972642 159.626139 
L 274.972642 155.793743 
L 275.001479 155.793743 
L 275.001479 151.961347 
L 275.082442 151.961347 
L 275.082442 148.12895 
L 275.103996 148.12895 
L 275.103996 144.296554 
L 275.150648 144.296554 
L 275.150648 140.464158 
L 275.20797 140.464158 
L 275.20797 136.631762 
L 275.634585 136.631762 
L 275.634585 132.799366 
L 275.954284 132.799366 
L 275.954284 128.96697 
L 276.229212 128.96697 
L 276.229212 125.134574 
L 276.97563 125.134574 
L 276.97563 121.302178 
L 276.97563 121.302178 
L 276.97563 121.302178 
L 460.8 121.302178 
" style="fill:none;stroke:#f5deb3;stroke-linecap:square;stroke-width:1.5;"/>
   </g>
   <g id="line2d_5">
    <path clip-path="url(#p2fa84b9f5c)" d="M 248.693818 293.76 
L 248.693818 289.927604 
L 248.789372 289.927604 
L 248.789372 286.095208 
L 249.074303 286.095208 
L 249.074303 282.262812 
L 249.3526 282.262812 
L 249.3526 278.430416 
L 249.377037 278.430416 
L 249.377037 274.59802 
L 249.600168 274.59802 
L 249.600168 270.765624 
L 249.837778 270.765624 
L 249.837778 266.933228 
L 250.594897 266.933228 
L 250.594897 263.100832 
L 251.018933 263.100832 
L 251.018933 259.268436 
L 251.410622 259.268436 
L 251.410622 255.43604 
L 251.710669 255.43604 
L 251.710669 251.603644 
L 252.973913 251.603644 
L 252.973913 247.771248 
L 253.377983 247.771248 
L 253.377983 243.938851 
L 254.13589 243.938851 
L 254.13589 240.106455 
L 264.154378 240.106455 
L 264.154378 236.274059 
L 264.154378 236.274059 
L 264.154378 236.274059 
L 460.8 236.274059 
" style="fill:none;stroke:#f5deb3;stroke-linecap:square;stroke-width:1.5;"/>
   </g>
   <g id="line2d_6"/>
   <g id="line2d_7">
    <path clip-path="url(#p2fa84b9f5c)" d="M 138.688761 293.76 
L 138.688761 289.927604 
L 145.145215 289.927604 
L 145.145215 286.095208 
L 145.701456 286.095208 
L 145.701456 282.262812 
L 146.139468 282.262812 
L 146.139468 278.430416 
L 146.248024 278.430416 
L 146.248024 274.59802 
L 146.571459 274.59802 
L 146.571459 270.765624 
L 147.103229 270.765624 
L 147.103229 266.933228 
L 147.103229 266.933228 
L 147.103229 263.100832 
L 147.313442 263.100832 
L 147.313442 259.268436 
L 150.117694 259.268436 
L 150.117694 255.43604 
L 151.061514 255.43604 
L 151.061514 251.603644 
L 151.887376 251.603644 
L 151.887376 247.771248 
L 152.69209 247.771248 
L 152.69209 243.938851 
L 157.130389 243.938851 
L 157.130389 240.106455 
L 157.130389 240.106455 
L 157.130389 236.274059 
L 215.777818 236.274059 
L 215.777818 232.441663 
L 216.166755 232.441663 
L 216.166755 228.609267 
L 216.953334 228.609267 
L 216.953334 224.776871 
L 217.146941 224.776871 
L 217.146941 220.944475 
L 217.237639 220.944475 
L 217.237639 217.112079 
L 217.384467 217.112079 
L 217.384467 213.279683 
L 217.463245 213.279683 
L 217.463245 209.447287 
L 217.664915 209.447287 
L 217.664915 205.614891 
L 217.676081 205.614891 
L 217.676081 201.782495 
L 218.141508 201.782495 
L 218.141508 197.950099 
L 218.448007 197.950099 
L 218.448007 194.117703 
L 218.740756 194.117703 
L 218.740756 190.285307 
L 219.508342 190.285307 
L 219.508342 186.452911 
L 219.791421 186.452911 
L 219.791421 182.620515 
L 219.937205 182.620515 
L 219.937205 178.788119 
L 280.408351 178.788119 
L 280.408351 174.955723 
L 280.690709 174.955723 
L 280.690709 171.123327 
L 281.760587 171.123327 
L 281.760587 167.290931 
L 281.973435 167.290931 
L 281.973435 163.458535 
L 282.292171 163.458535 
L 282.292171 159.626139 
L 282.465966 159.626139 
L 282.465966 155.793743 
L 282.572331 155.793743 
L 282.572331 151.961347 
L 282.900497 151.961347 
L 282.900497 148.12895 
L 283.686416 148.12895 
L 283.686416 144.296554 
L 283.958535 144.296554 
L 283.958535 140.464158 
L 285.439042 140.464158 
L 285.439042 136.631762 
L 324.201508 136.631762 
L 324.201508 132.799366 
L 324.228978 132.799366 
L 324.228978 128.96697 
L 325.979133 128.96697 
L 325.979133 125.134574 
L 326.913561 125.134574 
L 326.913561 121.302178 
L 461.8 121.302178 
" style="fill:none;stroke:#f5deb3;stroke-linecap:square;stroke-width:1.5;"/>
   </g>
   <g id="line2d_8">
    <path clip-path="url(#p2fa84b9f5c)" d="M 264.596465 293.76 
L 264.596465 289.927604 
L 265.574466 289.927604 
L 265.576897 282.262812 
L 265.74906 282.262812 
L 265.74906 278.430416 
L 266.821168 278.430416 
L 266.821168 274.59802 
L 267.303561 274.59802 
L 267.303561 270.765624 
L 268.177373 270.765624 
L 268.177373 266.933228 
L 268.440398 266.933228 
L 268.440398 263.100832 
L 268.705642 263.100832 
L 268.705642 259.268436 
L 269.214351 259.268436 
L 269.214351 255.43604 
L 270.694928 255.43604 
L 270.694928 251.603644 
L 271.266136 251.603644 
L 271.266136 247.771248 
L 272.04561 247.771248 
L 272.04561 243.938851 
L 272.28025 243.938851 
L 272.28025 240.106455 
L 274.666426 240.106455 
L 274.666426 236.274059 
L 348.046587 236.274059 
L 348.15534 228.609267 
L 348.288742 228.609267 
L 348.343446 213.279683 
L 348.521753 213.279683 
L 348.521753 209.447287 
L 348.732014 209.447287 
L 348.826046 197.950099 
L 348.949615 197.950099 
L 348.977009 186.452911 
L 349.207199 186.452911 
L 349.207199 182.620515 
L 349.325897 182.620515 
L 349.325897 178.788119 
L 358.237728 178.788119 
L 358.237728 174.955723 
L 360.233012 174.955723 
L 360.233012 171.123327 
L 361.126882 171.123327 
L 361.224044 159.626139 
L 361.320213 159.626139 
L 361.320213 155.793743 
L 361.573402 155.793743 
L 361.573402 151.961347 
L 361.924473 151.961347 
L 361.924473 148.12895 
L 362.091447 148.12895 
L 362.152948 140.464158 
L 362.403449 140.464158 
L 362.490626 132.799366 
L 362.764848 132.799366 
L 362.764848 128.96697 
L 363.335272 128.96697 
L 363.41288 121.302178 
L 363.561284 121.302178 
L 363.561284 117.469782 
L 391.009366 117.469782 
L 391.009366 113.637386 
L 391.197176 113.637386 
L 391.239259 102.140198 
L 391.475894 102.140198 
L 391.475894 98.307802 
L 391.664068 98.307802 
L 391.741148 86.810614 
L 391.861181 86.810614 
L 391.861181 82.978218 
L 392.065189 82.978218 
L 392.065189 79.145822 
L 392.179102 79.145822 
L 392.179102 75.313426 
L 392.47472 75.313426 
L 392.47472 71.48103 
L 407.067733 71.48103 
L 407.112574 59.983842 
L 407.310057 59.983842 
L 407.310057 56.151446 
L 407.640846 56.151446 
L 407.732964 48.486653 
L 407.751983 48.486653 
L 407.751983 44.654257 
L 416.930247 44.654257 
L 416.930247 40.821861 
L 418.077309 40.821861 
L 418.077309 36.989465 
L 418.468856 36.989465 
L 418.468856 33.157069 
L 418.468856 33.157069 
L 460.8 33.157069 
L 460.8 33.157069 
" style="fill:none;stroke:#f5deb3;stroke-linecap:square;stroke-width:1.5;"/>
   </g>
   <g id="line2d_9">
    <path clip-path="url(#p2fa84b9f5c)" d="M 135.499897 293.76 
L 135.499897 289.927604 
L 136.550056 289.927604 
L 136.550056 286.095208 
L 138.550621 286.095208 
L 138.550621 282.262812 
L 139.099575 282.262812 
L 139.099575 278.430416 
L 139.235329 278.430416 
L 139.235329 274.59802 
L 139.639105 274.59802 
L 139.639105 270.765624 
L 140.43142 270.765624 
L 140.43142 266.933228 
L 140.561552 266.933228 
L 140.561552 263.100832 
L 141.331227 263.100832 
L 141.331227 259.268436 
L 143.768637 259.268436 
L 143.768637 255.43604 
L 144.349556 255.43604 
L 144.349556 251.603644 
L 146.571459 251.603644 
L 146.571459 247.771248 
L 147.313442 247.771248 
L 147.313442 243.938851 
L 148.646591 243.938851 
L 148.646591 240.106455 
L 149.732084 240.106455 
L 149.732084 236.274059 
L 213.795399 236.274059 
L 213.795399 232.441663 
L 215.443994 232.441663 
L 215.443994 228.609267 
L 215.647096 228.609267 
L 215.647096 224.776871 
L 215.94341 224.776871 
L 215.94341 220.944475 
L 216.072908 220.944475 
L 216.072908 217.112079 
L 216.597186 217.112079 
L 216.597186 213.279683 
L 216.631829 213.279683 
L 216.631829 209.447287 
L 216.930478 209.447287 
L 216.930478 205.614891 
L 217.16964 205.614891 
L 217.16964 201.782495 
L 217.485717 201.782495 
L 217.485717 197.950099 
L 217.642571 197.950099 
L 217.642571 194.117703 
L 217.909657 194.117703 
L 217.909657 190.285307 
L 218.317017 190.285307 
L 218.317017 186.452911 
L 218.360741 186.452911 
L 218.360741 182.620515 
L 220.298734 182.620515 
L 220.298734 178.788119 
L 277.22838 178.788119 
L 277.22838 174.955723 
L 277.266956 174.955723 
L 277.266956 171.123327 
L 278.020514 171.123327 
L 278.020514 167.290931 
L 278.107128 167.290931 
L 278.107128 163.458535 
L 278.180481 163.458535 
L 278.180481 159.626139 
L 278.573655 159.626139 
L 278.573655 155.793743 
L 278.597765 155.793743 
L 278.597765 151.961347 
L 278.912699 151.961347 
L 278.912699 148.12895 
L 278.969911 148.12895 
L 278.969911 144.296554 
L 279.144083 144.296554 
L 279.144083 140.464158 
L 279.894549 140.464158 
L 279.894549 136.631762 
L 279.922289 136.631762 
L 279.922289 132.799366 
L 280.028395 132.799366 
L 280.028395 128.96697 
L 280.224288 128.96697 
L 280.224288 125.134574 
L 280.344583 125.134574 
L 280.344583 121.302178 
L 280.344583 121.302178 
L 280.344583 121.302178 
L 460.8 121.302178 
" style="fill:none;stroke:#f5deb3;stroke-linecap:square;stroke-width:1.5;"/>
   </g>
   <g id="line2d_10">
    <path clip-path="url(#p2fa84b9f5c)" d="M 159.349676 293.76 
L 159.349676 289.927604 
L 160.334042 289.927604 
L 160.334042 286.095208 
L 164.660035 286.095208 
L 164.660035 282.262812 
L 164.660035 282.262812 
L 164.660035 278.430416 
L 166.984705 278.430416 
L 166.984705 274.59802 
L 170.630184 274.59802 
L 170.630184 270.765624 
L 173.122641 270.765624 
L 173.122641 266.933228 
L 258.445443 266.933228 
L 258.445443 263.100832 
L 258.521622 263.100832 
L 258.521622 259.268436 
L 258.634029 259.268436 
L 258.634029 255.43604 
L 258.752079 255.43604 
L 258.752079 251.603644 
L 258.761141 251.603644 
L 258.761141 247.771248 
L 259.178191 247.771248 
L 259.178191 243.938851 
L 259.527942 243.938851 
L 259.527942 240.106455 
L 280.173901 240.106455 
L 280.173901 236.274059 
L 391.446268 236.274059 
L 391.446268 232.441663 
L 392.233678 232.441663 
L 392.233678 228.609267 
L 393.245788 228.609267 
L 393.245788 224.776871 
L 394.750264 224.776871 
L 394.750264 220.944475 
L 394.829492 220.944475 
L 394.829492 217.112079 
L 396.023258 217.112079 
L 396.023258 213.279683 
L 396.308523 213.279683 
L 396.308523 209.447287 
L 396.314898 209.447287 
L 396.314898 205.614891 
L 396.966023 205.614891 
L 396.966023 201.782495 
L 398.367696 201.782495 
L 398.367696 197.950099 
L 398.754546 197.950099 
L 398.754546 194.117703 
L 398.817439 194.117703 
L 398.817439 190.285307 
L 399.531481 190.285307 
L 399.531481 186.452911 
L 399.871634 186.452911 
L 399.871634 182.620515 
L 400.152879 182.620515 
L 400.152879 178.788119 
L 400.265085 178.788119 
L 400.265085 174.955723 
L 400.452362 174.955723 
L 400.452362 171.123327 
L 400.469256 171.123327 
L 400.469256 167.290931 
L 400.715915 167.290931 
L 400.715915 163.458535 
L 400.909418 163.458535 
L 400.909418 159.626139 
L 402.017215 159.626139 
L 402.017215 155.793743 
L 402.046699 155.793743 
L 402.046699 151.961347 
L 402.423399 151.961347 
L 402.423399 148.12895 
L 402.826621 148.12895 
L 402.826621 144.296554 
L 402.942108 144.296554 
L 402.942108 140.464158 
L 403.081383 140.464158 
L 403.081383 136.631762 
L 405.386547 136.631762 
L 405.386547 132.799366 
L 405.767662 132.799366 
L 405.767662 128.96697 
L 406.111582 128.96697 
L 406.111582 125.134574 
L 406.295195 125.134574 
L 406.295195 121.302178 
L 406.329124 121.302178 
L 406.329124 117.469782 
L 406.694326 117.469782 
L 406.694326 113.637386 
L 407.465802 113.637386 
L 407.465802 109.80499 
L 407.573953 109.80499 
L 407.573953 105.972594 
L 408.403138 105.972594 
L 408.403138 102.140198 
L 409.026694 102.140198 
L 409.026694 98.307802 
L 409.585177 98.307802 
L 409.585177 94.475406 
L 410.129825 94.475406 
L 410.129825 90.64301 
L 411.92941 90.64301 
L 411.92941 86.810614 
L 412.066762 86.810614 
L 412.066762 82.978218 
L 413.355132 82.978218 
L 413.355132 79.145822 
L 413.380518 79.145822 
L 413.380518 75.313426 
L 415.114112 75.313426 
L 415.114112 71.48103 
L 415.114112 71.48103 
L 415.114112 71.48103 
L 460.8 71.48103 
" style="fill:none;stroke:#f5deb3;stroke-linecap:square;stroke-width:1.5;"/>
   </g>
   <g id="line2d_11">
    <path clip-path="url(#p2fa84b9f5c)" d="M 111.504631 293.76 
L 111.504631 289.927604 
L 116.349099 289.927604 
L 116.349099 286.095208 
L 117.179812 286.095208 
L 117.179812 282.262812 
L 117.721668 282.262812 
L 117.721668 278.430416 
L 118.517326 278.430416 
L 118.517326 274.59802 
L 119.293337 274.59802 
L 119.293337 270.765624 
L 121.273635 270.765624 
L 121.273635 266.933228 
L 123.361794 266.933228 
L 123.361794 263.100832 
L 123.585473 263.100832 
L 123.585473 259.268436 
L 124.895114 259.268436 
L 124.895114 255.43604 
L 127.558263 255.43604 
L 127.558263 251.603644 
L 130.374489 251.603644 
L 130.374489 247.771248 
L 130.55356 247.771248 
L 130.55356 243.938851 
L 135.954269 243.938851 
L 135.954269 240.106455 
L 140.561552 240.106455 
L 140.561552 236.274059 
L 194.511917 236.274059 
L 194.511917 232.441663 
L 194.952108 232.441663 
L 194.952108 228.609267 
L 195.679824 228.609267 
L 195.679824 224.776871 
L 195.747192 224.776871 
L 195.747192 220.944475 
L 196.544532 220.944475 
L 196.544532 217.112079 
L 196.719005 217.112079 
L 196.719005 213.279683 
L 197.364785 213.279683 
L 197.364785 209.447287 
L 197.661667 209.447287 
L 197.661667 205.614891 
L 197.724921 205.614891 
L 197.724921 201.782495 
L 198.350559 201.782495 
L 198.350559 197.950099 
L 198.576874 197.950099 
L 198.576874 194.117703 
L 198.740449 194.117703 
L 198.740449 190.285307 
L 199.18594 190.285307 
L 199.18594 186.452911 
L 199.724187 186.452911 
L 199.724187 182.620515 
L 200.272799 182.620515 
L 200.272799 178.788119 
L 200.272799 178.788119 
L 200.272799 178.788119 
L 460.8 178.788119 
" style="fill:none;stroke:#f5deb3;stroke-linecap:square;stroke-width:1.5;"/>
   </g>
   <g id="line2d_12">
    <path clip-path="url(#p2fa84b9f5c)" d="M 86.26423 293.76 
L 86.26423 289.927604 
L 86.26423 289.927604 
L 86.26423 286.095208 
L 86.26423 286.095208 
L 86.26423 282.262812 
L 86.26423 282.262812 
L 86.26423 278.430416 
L 86.26423 278.430416 
L 86.26423 274.59802 
L 86.26423 274.59802 
L 86.26423 270.765624 
L 86.26423 270.765624 
L 86.26423 266.933228 
L 86.26423 266.933228 
L 86.26423 263.100832 
L 86.26423 263.100832 
L 86.26423 259.268436 
L 86.26423 259.268436 
L 86.26423 255.43604 
L 86.26423 255.43604 
L 86.26423 251.603644 
L 86.26423 251.603644 
L 86.26423 247.771248 
L 86.26423 247.771248 
L 86.26423 243.938851 
L 86.26423 243.938851 
L 86.26423 240.106455 
L 86.26423 240.106455 
L 86.26423 236.274059 
L 107.680082 236.274059 
L 107.680082 232.441663 
L 114.618744 232.441663 
L 114.618744 228.609267 
L 114.618744 228.609267 
L 114.618744 224.776871 
L 114.618744 224.776871 
L 114.618744 220.944475 
L 114.618744 220.944475 
L 114.618744 217.112079 
L 114.618744 217.112079 
L 114.618744 213.279683 
L 114.618744 213.279683 
L 114.618744 209.447287 
L 114.618744 209.447287 
L 114.618744 205.614891 
L 114.618744 205.614891 
L 114.618744 201.782495 
L 114.618744 201.782495 
L 114.618744 197.950099 
L 120.299081 197.950099 
L 120.299081 194.117703 
L 120.299081 194.117703 
L 120.299081 190.285307 
L 120.299081 190.285307 
L 120.299081 186.452911 
L 120.299081 186.452911 
L 120.299081 182.620515 
L 129.278093 182.620515 
L 129.278093 178.788119 
L 253.570961 178.788119 
L 253.570961 174.955723 
L 254.673648 174.955723 
L 254.673648 171.123327 
L 256.429606 171.123327 
L 256.429606 167.290931 
L 260.565838 167.290931 
L 260.565838 163.458535 
L 260.639897 163.458535 
L 260.639897 159.626139 
L 261.117076 159.626139 
L 261.117076 155.793743 
L 261.746827 155.793743 
L 261.746827 151.961347 
L 261.872918 151.961347 
L 261.872918 148.12895 
L 262.044791 148.12895 
L 262.044791 144.296554 
L 262.204904 144.296554 
L 262.204904 140.464158 
L 262.329174 140.464158 
L 262.329174 136.631762 
L 262.385743 136.631762 
L 262.385743 132.799366 
L 262.442211 132.799366 
L 262.442211 128.96697 
L 262.498577 128.96697 
L 262.498577 125.134574 
L 264.51609 125.134574 
L 264.51609 121.302178 
L 264.51609 121.302178 
L 264.51609 121.302178 
L 460.8 121.302178 
" style="fill:none;stroke:#f5deb3;stroke-linecap:square;stroke-width:1.5;"/>
   </g>
   <g id="line2d_13">
    <path clip-path="url(#p2fa84b9f5c)" d="M 204.619438 293.76 
L 204.619438 289.927604 
L 204.619438 289.927604 
L 204.619438 286.095208 
L 205.122815 286.095208 
L 205.122815 282.262812 
L 205.122815 282.262812 
L 205.122815 278.430416 
L 205.879332 278.430416 
L 205.879332 274.59802 
L 205.960476 274.59802 
L 205.960476 270.765624 
L 205.960476 270.765624 
L 205.960476 266.933228 
L 205.960476 266.933228 
L 205.960476 263.100832 
L 206.395066 263.100832 
L 206.395066 259.268436 
L 207.679251 259.268436 
L 207.679251 255.43604 
L 207.679251 255.43604 
L 207.679251 251.603644 
L 207.679251 251.603644 
L 207.679251 247.771248 
L 207.740572 247.771248 
L 207.740572 243.938851 
L 207.740572 243.938851 
L 207.740572 240.106455 
L 207.740572 240.106455 
L 207.740572 236.274059 
L 207.740572 236.274059 
L 207.740572 236.274059 
L 460.8 236.274059 
" style="fill:none;stroke:#f5deb3;stroke-linecap:square;stroke-width:1.5;"/>
   </g>
   <g id="line2d_14">
    <path clip-path="url(#p2fa84b9f5c)" d="M 127.754069 293.76 
L 127.754069 289.927604 
L 128.715209 289.927604 
L 128.715209 286.095208 
L 129.278093 286.095208 
L 129.278093 282.262812 
L 130.013257 282.262812 
L 130.013257 278.430416 
L 130.194392 278.430416 
L 130.194392 274.59802 
L 130.194392 274.59802 
L 130.194392 270.765624 
L 130.374489 270.765624 
L 130.374489 266.933228 
L 130.55356 266.933228 
L 130.55356 263.100832 
L 130.908669 263.100832 
L 130.908669 259.268436 
L 130.908669 259.268436 
L 130.908669 255.43604 
L 130.908669 255.43604 
L 130.908669 251.603644 
L 130.908669 251.603644 
L 130.908669 247.771248 
L 131.08473 247.771248 
L 131.08473 243.938851 
L 131.259811 243.938851 
L 131.259811 240.106455 
L 131.259811 240.106455 
L 131.259811 236.274059 
L 175.474651 236.274059 
L 175.474651 232.441663 
L 176.109558 232.441663 
L 176.109558 228.609267 
L 177.01815 228.609267 
L 177.01815 224.776871 
L 177.342141 224.776871 
L 177.342141 220.944475 
L 177.622919 220.944475 
L 177.622919 217.112079 
L 179.104856 217.112079 
L 179.104856 213.279683 
L 179.218928 213.279683 
L 179.218928 209.447287 
L 179.294746 209.447287 
L 179.294746 205.614891 
L 179.596205 205.614891 
L 179.596205 201.782495 
L 180.04304 201.782495 
L 180.04304 197.950099 
L 180.153763 197.950099 
L 180.153763 194.117703 
L 180.227362 194.117703 
L 180.227362 190.285307 
L 180.989922 190.285307 
L 180.989922 186.452911 
L 181.20444 186.452911 
L 181.20444 182.620515 
L 181.346644 182.620515 
L 181.346644 178.788119 
L 186.833112 178.788119 
L 186.833112 174.955723 
L 188.712057 174.955723 
L 188.712057 171.123327 
L 188.935736 171.123327 
L 188.935736 167.290931 
L 189.841946 167.290931 
L 189.841946 163.458535 
L 190.084626 163.458535 
L 190.084626 159.626139 
L 190.378711 159.626139 
L 190.378711 155.793743 
L 190.880284 155.793743 
L 190.880284 151.961347 
L 191.425497 151.961347 
L 191.425497 148.12895 
L 191.656295 148.12895 
L 191.656295 144.296554 
L 192.908525 144.296554 
L 192.908525 140.464158 
L 196.80588 140.464158 
L 196.80588 136.631762 
L 198.288552 136.631762 
L 198.288552 132.799366 
L 200.505018 132.799366 
L 200.505018 128.96697 
L 349.664927 128.96697 
L 349.664927 125.134574 
L 349.664927 125.134574 
L 349.664927 125.134574 
L 460.8 125.134574 
" style="fill:none;stroke:#f5deb3;stroke-linecap:square;stroke-width:1.5;"/>
   </g>
   <g id="line2d_15"/>
   <g id="line2d_16">
    <path clip-path="url(#p2fa84b9f5c)" d="M 211.230398 293.76 
L 211.230398 289.927604 
L 211.489731 289.927604 
L 211.489731 286.095208 
L 212.0822 286.095208 
L 212.0822 282.262812 
L 212.347855 282.262812 
L 212.347855 278.430416 
L 214.691946 278.430416 
L 214.691946 274.59802 
L 216.67796 274.59802 
L 216.67796 270.765624 
L 217.942883 270.765624 
L 217.942883 266.933228 
L 218.912958 266.933228 
L 218.912958 263.100832 
L 219.381706 263.100832 
L 219.381706 259.268436 
L 219.539921 259.268436 
L 219.539921 255.43604 
L 220.13398 255.43604 
L 220.13398 251.603644 
L 220.360295 251.603644 
L 220.360295 247.771248 
L 222.394301 247.771248 
L 222.394301 243.938851 
L 223.012679 243.938851 
L 223.012679 240.106455 
L 229.216186 240.106455 
L 229.216186 236.274059 
L 264.339548 236.274059 
L 264.339548 232.441663 
L 264.741624 232.441663 
L 264.741624 228.609267 
L 266.593648 228.609267 
L 266.593648 224.776871 
L 267.160544 224.776871 
L 267.160544 220.944475 
L 267.292051 220.944475 
L 267.292051 217.112079 
L 267.669658 217.112079 
L 267.669658 213.279683 
L 268.371511 213.279683 
L 268.371511 209.447287 
L 269.055854 209.447287 
L 269.055854 205.614891 
L 269.6082 205.614891 
L 269.6082 201.782495 
L 270.005623 201.782495 
L 270.005623 197.950099 
L 271.486505 197.950099 
L 271.486505 194.117703 
L 271.982213 194.117703 
L 271.982213 190.285307 
L 272.873759 190.285307 
L 272.873759 186.452911 
L 273.325428 186.452911 
L 273.420293 178.788119 
L 278.468966 178.788119 
L 278.468966 174.955723 
L 279.00958 174.955723 
L 279.00958 171.123327 
L 279.842087 171.123327 
L 279.842087 167.290931 
L 280.137205 167.290931 
L 280.137205 163.458535 
L 280.425031 163.458535 
L 280.425031 159.626139 
L 280.555131 159.626139 
L 280.659127 151.961347 
L 280.719256 151.961347 
L 280.719256 148.12895 
L 281.015216 148.12895 
L 281.015216 144.296554 
L 281.365845 144.296554 
L 281.365845 140.464158 
L 281.782372 140.464158 
L 281.865019 132.799366 
L 282.366365 132.799366 
L 282.366365 128.96697 
L 282.497204 128.96697 
L 282.497204 125.134574 
L 282.953694 125.134574 
L 282.953694 121.302178 
L 285.472626 121.302178 
L 285.472626 117.469782 
L 310.465622 117.469782 
L 310.465622 113.637386 
L 313.338232 113.637386 
L 313.338232 109.80499 
L 318.28239 109.80499 
L 318.28239 105.972594 
L 319.293542 105.972594 
L 319.293542 102.140198 
L 329.083975 102.140198 
L 329.083975 98.307802 
L 348.324931 98.307802 
L 348.324931 94.475406 
L 356.700418 94.475406 
L 356.700418 90.64301 
L 362.59399 90.64301 
L 362.59399 86.810614 
L 363.344266 86.810614 
L 363.344266 82.978218 
L 369.579044 82.978218 
L 369.579044 79.145822 
L 370.841103 79.145822 
L 370.841103 75.313426 
L 371.653867 75.313426 
L 371.653867 71.48103 
L 381.943262 71.48103 
L 381.943262 67.648634 
L 382.290001 67.648634 
L 382.290001 63.816238 
L 399.201491 63.816238 
L 399.201491 59.983842 
L 403.25758 59.983842 
L 403.25758 56.151446 
L 408.26166 56.151446 
L 408.26166 52.31905 
L 411.269665 52.31905 
L 411.269665 48.486653 
L 416.851303 48.486653 
L 416.851303 44.654257 
L 435.240775 44.654257 
L 435.240775 40.821861 
L 436.252491 40.821861 
L 436.252491 36.989465 
L 461.8 36.989465 
L 461.8 36.989465 
" style="fill:none;stroke:#f5deb3;stroke-linecap:square;stroke-width:1.5;"/>
   </g>
   <g id="line2d_17">
    <path clip-path="url(#p2fa84b9f5c)" d="M 226.495751 293.76 
L 226.495751 289.927604 
L 230.130707 289.927604 
L 230.130707 286.095208 
L 230.130707 286.095208 
L 230.130707 282.262812 
L 230.20573 282.262812 
L 230.20573 278.430416 
L 231.755459 278.430416 
L 231.755459 274.59802 
L 239.370063 274.59802 
L 239.370063 270.765624 
L 242.828092 270.765624 
L 242.828092 266.933228 
L 245.189292 266.933228 
L 245.189292 263.100832 
L 246.137735 263.100832 
L 246.137735 259.268436 
L 246.326729 259.268436 
L 246.326729 255.43604 
L 250.394513 255.43604 
L 250.394513 251.603644 
L 251.88031 251.603644 
L 251.88031 247.771248 
L 253.847633 247.771248 
L 253.847633 243.938851 
L 259.856346 243.938851 
L 259.856346 240.106455 
L 262.723036 240.106455 
L 262.723036 236.274059 
L 366.083145 236.274059 
L 366.083145 232.441663 
L 366.35711 232.441663 
L 366.35711 228.609267 
L 366.448917 228.609267 
L 366.448917 224.776871 
L 367.855005 224.776871 
L 367.855005 220.944475 
L 368.371086 220.944475 
L 368.371086 217.112079 
L 368.992729 217.112079 
L 368.992729 213.279683 
L 369.158215 213.279683 
L 369.158215 209.447287 
L 369.59814 209.447287 
L 369.59814 205.614891 
L 371.685622 205.614891 
L 371.685622 201.782495 
L 371.733029 201.782495 
L 371.733029 197.950099 
L 372.525599 197.950099 
L 372.525599 194.117703 
L 373.745301 194.117703 
L 373.745301 190.285307 
L 374.234666 190.285307 
L 374.234666 186.452911 
L 375.438134 186.452911 
L 375.438134 182.620515 
L 375.625158 182.620515 
L 375.625158 178.788119 
L 376.609148 178.788119 
L 376.609148 174.955723 
L 376.792035 174.955723 
L 376.792035 171.123327 
L 377.409138 171.123327 
L 377.409138 167.290931 
L 378.080587 167.290931 
L 378.080587 163.458535 
L 378.267264 163.458535 
L 378.267264 159.626139 
L 378.826358 159.626139 
L 378.826358 155.793743 
L 379.611774 155.793743 
L 379.611774 151.961347 
L 379.697786 151.961347 
L 379.697786 148.12895 
L 380.821632 148.12895 
L 380.821632 144.296554 
L 382.030784 144.296554 
L 382.030784 140.464158 
L 383.301928 140.464158 
L 383.301928 136.631762 
L 384.65486 136.631762 
L 384.65486 132.799366 
L 385.618794 132.799366 
L 385.618794 128.96697 
L 386.24079 128.96697 
L 386.24079 125.134574 
L 386.288231 125.134574 
L 386.288231 121.302178 
L 386.288231 121.302178 
L 386.288231 121.302178 
L 460.8 121.302178 
" style="fill:none;stroke:#f5deb3;stroke-linecap:square;stroke-width:1.5;"/>
   </g>
   <g id="line2d_18">
    <path clip-path="url(#p2fa84b9f5c)" d="M 86.26423 293.76 
L 86.26423 289.927604 
L 86.26423 289.927604 
L 86.26423 286.095208 
L 86.26423 286.095208 
L 86.26423 282.262812 
L 86.26423 282.262812 
L 86.26423 278.430416 
L 86.26423 278.430416 
L 86.26423 274.59802 
L 86.26423 274.59802 
L 86.26423 270.765624 
L 86.26423 270.765624 
L 86.26423 266.933228 
L 86.26423 266.933228 
L 86.26423 263.100832 
L 86.986718 263.100832 
L 86.986718 259.268436 
L 86.986718 259.268436 
L 86.986718 255.43604 
L 86.986718 255.43604 
L 86.986718 251.603644 
L 86.986718 251.603644 
L 86.986718 247.771248 
L 86.986718 247.771248 
L 86.986718 243.938851 
L 86.986718 243.938851 
L 86.986718 240.106455 
L 88.383696 240.106455 
L 88.383696 236.274059 
L 89.059568 236.274059 
L 89.059568 232.441663 
L 89.059568 232.441663 
L 89.059568 228.609267 
L 91.004116 228.609267 
L 91.004116 224.776871 
L 91.62645 224.776871 
L 91.62645 220.944475 
L 92.835323 220.944475 
L 92.835323 217.112079 
L 96.205711 217.112079 
L 96.205711 213.279683 
L 96.733905 213.279683 
L 96.733905 209.447287 
L 96.733905 209.447287 
L 96.733905 205.614891 
L 98.267226 205.614891 
L 98.267226 201.782495 
L 104.57367 201.782495 
L 104.57367 197.950099 
L 104.979183 197.950099 
L 104.979183 194.117703 
L 104.979183 194.117703 
L 104.979183 190.285307 
L 107.308162 190.285307 
L 107.308162 186.452911 
L 108.047651 186.452911 
L 108.047651 182.620515 
L 109.125248 182.620515 
L 109.125248 178.788119 
L 317.47447 178.788119 
L 317.47447 174.955723 
L 318.90697 174.955723 
L 318.90697 171.123327 
L 322.313275 171.123327 
L 322.313275 167.290931 
L 323.246355 167.290931 
L 323.246355 163.458535 
L 324.068334 163.458535 
L 324.068334 159.626139 
L 327.555505 159.626139 
L 327.555505 155.793743 
L 327.923838 155.793743 
L 327.923838 151.961347 
L 328.127835 151.961347 
L 328.127835 148.12895 
L 329.245993 148.12895 
L 329.245993 144.296554 
L 333.00826 144.296554 
L 333.00826 140.464158 
L 333.471906 140.464158 
L 333.471906 136.631762 
L 339.172438 136.631762 
L 339.172438 132.799366 
L 353.261618 132.799366 
L 353.261618 128.96697 
L 357.533722 128.96697 
L 357.533722 125.134574 
L 364.881878 125.134574 
L 364.881878 121.302178 
L 364.881878 121.302178 
L 364.881878 121.302178 
L 460.8 121.302178 
" style="fill:none;stroke:#f5deb3;stroke-linecap:square;stroke-width:1.5;"/>
   </g>
   <g id="line2d_19">
    <path clip-path="url(#p2fa84b9f5c)" d="M 255.558873 293.76 
L 255.558873 289.927604 
L 259.533837 289.927604 
L 259.533837 286.095208 
L 261.451555 286.095208 
L 261.451555 282.262812 
L 262.337262 282.262812 
L 262.337262 278.430416 
L 263.201312 278.430416 
L 263.201312 274.59802 
L 263.942508 274.59802 
L 263.942508 270.765624 
L 267.04009 270.765624 
L 267.04009 266.933228 
L 267.044731 266.933228 
L 267.044731 263.100832 
L 268.511349 263.100832 
L 268.511349 259.268436 
L 269.201354 259.268436 
L 269.201354 255.43604 
L 269.216516 255.43604 
L 269.216516 251.603644 
L 269.220847 251.603644 
L 269.220847 247.771248 
L 269.225178 247.771248 
L 269.225178 243.938851 
L 270.531284 243.938851 
L 270.531284 240.106455 
L 276.662787 240.106455 
L 276.662787 236.274059 
L 325.355021 236.274059 
L 325.355021 232.441663 
L 325.686765 232.441663 
L 325.686765 228.609267 
L 326.156512 228.609267 
L 326.156512 224.776871 
L 326.172074 224.776871 
L 326.172074 220.944475 
L 326.513191 220.944475 
L 326.513191 217.112079 
L 326.941521 217.112079 
L 326.941521 213.279683 
L 327.063081 213.279683 
L 327.063081 209.447287 
L 327.38553 209.447287 
L 327.38553 205.614891 
L 327.595068 205.614891 
L 327.595068 201.782495 
L 328.016334 201.782495 
L 328.016334 197.950099 
L 328.131822 197.950099 
L 328.131822 194.117703 
L 328.254499 194.117703 
L 328.254499 190.285307 
L 328.360873 190.285307 
L 328.360873 186.452911 
L 328.54928 186.452911 
L 328.54928 182.620515 
L 329.886466 182.620515 
L 329.886466 178.788119 
L 347.179785 178.788119 
L 347.179785 174.955723 
L 349.159254 174.955723 
L 349.159254 171.123327 
L 349.789751 171.123327 
L 349.789751 167.290931 
L 350.148581 167.290931 
L 350.148581 163.458535 
L 351.039031 163.458535 
L 351.039031 159.626139 
L 351.04432 159.626139 
L 351.04432 155.793743 
L 351.697364 155.793743 
L 351.697364 151.961347 
L 351.793426 151.961347 
L 351.793426 148.12895 
L 352.235916 148.12895 
L 352.235916 144.296554 
L 352.494043 144.296554 
L 352.494043 140.464158 
L 352.687625 140.464158 
L 352.687625 136.631762 
L 353.686845 136.631762 
L 353.686845 132.799366 
L 353.972521 132.799366 
L 353.972521 128.96697 
L 354.53003 128.96697 
L 354.53003 125.134574 
L 355.432951 125.134574 
L 355.432951 121.302178 
L 355.432951 121.302178 
L 355.432951 121.302178 
L 460.8 121.302178 
" style="fill:none;stroke:#f5deb3;stroke-linecap:square;stroke-width:1.5;"/>
   </g>
   <g id="line2d_20">
    <path clip-path="url(#p2fa84b9f5c)" d="M 126.357091 293.76 
L 126.357091 289.927604 
L 130.374489 289.927604 
L 130.374489 286.095208 
L 130.731616 286.095208 
L 130.731616 282.262812 
L 133.123943 282.262812 
L 133.123943 278.430416 
L 137.708781 278.430416 
L 137.708781 274.59802 
L 139.505089 274.59802 
L 139.505089 270.765624 
L 140.300747 270.765624 
L 140.300747 266.933228 
L 140.691148 266.933228 
L 140.691148 263.100832 
L 144.234228 263.100832 
L 144.234228 259.268436 
L 145.701456 259.268436 
L 145.701456 255.43604 
L 146.678535 255.43604 
L 146.678535 251.603644 
L 148.140512 251.603644 
L 148.140512 247.771248 
L 149.53749 247.771248 
L 149.53749 243.938851 
L 151.705718 243.938851 
L 151.705718 240.106455 
L 157.053645 240.106455 
L 157.053645 236.274059 
L 199.545793 236.274059 
L 199.545793 232.441663 
L 200.272799 232.441663 
L 200.272799 228.609267 
L 201.641051 228.609267 
L 201.641051 224.776871 
L 201.955599 224.776871 
L 201.955599 220.944475 
L 204.056249 220.944475 
L 204.056249 217.112079 
L 205.354994 217.112079 
L 205.354994 213.279683 
L 205.354994 213.279683 
L 205.354994 209.447287 
L 205.519791 209.447287 
L 205.519791 205.614891 
L 205.519791 205.614891 
L 205.519791 201.782495 
L 205.601867 201.782495 
L 205.601867 197.950099 
L 205.846816 197.950099 
L 205.846816 194.117703 
L 207.525424 194.117703 
L 207.525424 190.285307 
L 207.878107 190.285307 
L 207.878107 186.452911 
L 208.809564 186.452911 
L 208.809564 182.620515 
L 213.337348 182.620515 
L 213.337348 178.788119 
L 261.823638 178.788119 
L 261.823638 174.955723 
L 262.036628 174.955723 
L 262.036628 171.123327 
L 264.548767 171.123327 
L 264.548767 167.290931 
L 267.425304 167.290931 
L 267.425304 163.458535 
L 268.063008 163.458535 
L 268.063008 159.626139 
L 268.121363 159.626139 
L 268.121363 155.793743 
L 268.201985 155.793743 
L 268.201985 151.961347 
L 268.342578 151.961347 
L 268.342578 148.12895 
L 270.193021 148.12895 
L 270.193021 144.296554 
L 299.833378 144.296554 
L 299.833378 140.464158 
L 303.737368 140.464158 
L 303.737368 136.631762 
L 306.027853 136.631762 
L 306.027853 132.799366 
L 309.632894 132.799366 
L 309.632894 128.96697 
L 314.476934 128.96697 
L 314.476934 125.134574 
L 345.576457 125.134574 
L 345.576457 121.302178 
L 345.576457 121.302178 
L 345.576457 121.302178 
L 460.8 121.302178 
" style="fill:none;stroke:#f5deb3;stroke-linecap:square;stroke-width:1.5;"/>
   </g>
   <g id="line2d_21">
    <path clip-path="url(#p2fa84b9f5c)" d="M 244.273653 293.76 
L 244.369292 255.43604 
L 244.621335 255.43604 
L 244.621335 251.603644 
L 245.08212 251.603644 
L 245.08212 247.771248 
L 247.948583 247.771248 
L 247.948583 243.938851 
L 248.892907 243.938851 
L 248.963116 128.96697 
L 249.061968 128.96697 
L 249.172807 52.31905 
L 249.185098 52.31905 
L 249.185098 48.486653 
L 249.805665 48.486653 
L 249.805665 44.654257 
L 249.977889 44.654257 
L 249.977889 40.821861 
L 250.129306 40.821861 
L 250.129306 36.989465 
L 251.326552 36.989465 
L 251.326552 33.157069 
L 254.697718 33.157069 
L 254.697718 29.324673 
L 254.697718 29.324673 
L 460.8 29.324673 
L 460.8 29.324673 
" style="fill:none;stroke:#f5deb3;stroke-linecap:square;stroke-width:1.5;"/>
   </g>
   <g id="line2d_22">
    <path clip-path="url(#p2fa84b9f5c)" d="M 141.20425 293.76 
L 141.20425 289.927604 
L 143.533229 289.927604 
L 143.533229 286.095208 
L 146.678535 286.095208 
L 146.678535 282.262812 
L 148.546025 282.262812 
L 148.546025 278.430416 
L 150.781332 278.430416 
L 150.781332 274.59802 
L 152.868151 274.59802 
L 152.868151 270.765624 
L 152.955813 270.765624 
L 152.955813 266.933228 
L 153.390493 266.933228 
L 153.390493 263.100832 
L 154.158079 263.100832 
L 154.158079 259.268436 
L 154.409831 259.268436 
L 154.409831 255.43604 
L 156.667086 255.43604 
L 156.667086 251.603644 
L 156.822281 251.603644 
L 156.822281 247.771248 
L 157.359505 247.771248 
L 157.359505 243.938851 
L 160.055927 243.938851 
L 160.055927 240.106455 
L 170.530257 240.106455 
L 170.530257 236.274059 
L 202.157466 236.274059 
L 202.157466 232.441663 
L 207.771187 232.441663 
L 207.771187 228.609267 
L 207.771187 228.609267 
L 207.771187 224.776871 
L 208.272084 224.776871 
L 208.272084 220.944475 
L 208.750296 220.944475 
L 208.750296 217.112079 
L 209.235946 217.112079 
L 209.235946 213.279683 
L 211.134313 213.279683 
L 211.134313 209.447287 
L 211.298852 209.447287 
L 211.298852 205.614891 
L 211.476135 205.614891 
L 211.476135 201.782495 
L 211.935126 201.782495 
L 211.935126 197.950099 
L 212.950472 197.950099 
L 212.950472 194.117703 
L 215.396015 194.117703 
L 215.396015 190.285307 
L 215.62327 190.285307 
L 215.62327 186.452911 
L 217.044592 186.452911 
L 217.044592 182.620515 
L 218.945141 182.620515 
L 218.945141 178.788119 
L 229.014482 178.788119 
L 229.014482 174.955723 
L 230.4074 174.955723 
L 230.4074 171.123327 
L 233.347824 171.123327 
L 233.347824 167.290931 
L 233.577514 167.290931 
L 233.577514 163.458535 
L 233.818899 163.458535 
L 233.818899 159.626139 
L 235.318804 159.626139 
L 235.318804 155.793743 
L 235.521927 155.793743 
L 235.521927 151.961347 
L 235.930523 151.961347 
L 235.930523 148.12895 
L 236.030291 148.12895 
L 236.030291 144.296554 
L 236.092485 144.296554 
L 236.092485 140.464158 
L 236.210316 140.464158 
L 236.210316 136.631762 
L 236.567303 136.631762 
L 236.567303 132.799366 
L 238.078759 132.799366 
L 238.078759 128.96697 
L 239.792652 128.96697 
L 239.792652 125.134574 
L 241.979285 125.134574 
L 241.979285 121.302178 
L 241.979285 121.302178 
L 241.979285 121.302178 
L 460.8 121.302178 
" style="fill:none;stroke:#f5deb3;stroke-linecap:square;stroke-width:1.5;"/>
   </g>
   <g id="line2d_23">
    <path clip-path="url(#p2fa84b9f5c)" d="M 173.214667 293.76 
L 173.214667 289.927604 
L 178.566975 289.927604 
L 178.566975 286.095208 
L 179.708511 286.095208 
L 179.708511 282.262812 
L 180.264097 282.262812 
L 180.264097 278.430416 
L 181.20444 278.430416 
L 181.20444 274.59802 
L 182.700411 274.59802 
L 182.700411 270.765624 
L 183.900308 270.765624 
L 183.900308 266.933228 
L 190.906462 266.933228 
L 190.906462 263.100832 
L 280.603404 263.100832 
L 280.603404 259.268436 
L 282.186284 259.268436 
L 282.186284 255.43604 
L 282.250717 255.43604 
L 282.250717 251.603644 
L 282.722051 251.603644 
L 282.722051 247.771248 
L 283.52338 247.771248 
L 283.52338 243.938851 
L 283.637184 243.938851 
L 283.637184 240.106455 
L 284.483817 240.106455 
L 284.483817 236.274059 
L 284.50912 236.274059 
L 284.50912 232.441663 
L 284.714781 232.441663 
L 284.714781 228.609267 
L 284.824358 228.609267 
L 284.824358 224.776871 
L 285.179497 224.776871 
L 285.179497 220.944475 
L 285.420943 220.944475 
L 285.420943 217.112079 
L 287.083127 217.112079 
L 287.083127 213.279683 
L 288.217767 213.279683 
L 288.217767 209.447287 
L 294.821565 209.447287 
L 294.821565 205.614891 
L 295.761385 205.614891 
L 295.761385 201.782495 
L 296.458949 201.782495 
L 296.458949 197.950099 
L 296.810111 197.950099 
L 296.810111 194.117703 
L 297.464758 194.117703 
L 297.464758 190.285307 
L 298.83087 190.285307 
L 298.83087 186.452911 
L 298.868826 186.452911 
L 298.868826 182.620515 
L 299.725286 182.620515 
L 299.725286 178.788119 
L 299.725286 178.788119 
L 299.725286 178.788119 
L 460.8 178.788119 
" style="fill:none;stroke:#f5deb3;stroke-linecap:square;stroke-width:1.5;"/>
   </g>
   <g id="line2d_24">
    <path clip-path="url(#p2fa84b9f5c)" d="M 207.401818 293.76 
L 207.401818 289.927604 
L 211.462533 289.927604 
L 211.462533 286.095208 
L 217.976075 286.095208 
L 217.976075 282.262812 
L 218.009231 282.262812 
L 218.009231 278.430416 
L 218.020276 278.430416 
L 218.020276 274.59802 
L 219.843565 274.59802 
L 219.843565 270.765624 
L 220.999507 270.765624 
L 220.999507 266.933228 
L 221.059712 266.933228 
L 221.059712 263.100832 
L 223.702178 263.100832 
L 223.702178 259.268436 
L 223.858462 259.268436 
L 223.858462 255.43604 
L 226.216249 255.43604 
L 226.216249 251.603644 
L 226.275745 251.603644 
L 226.275745 247.771248 
L 228.551911 247.771248 
L 228.551911 243.938851 
L 230.718559 243.938851 
L 230.718559 240.106455 
L 230.748033 240.106455 
L 230.748033 236.274059 
L 280.734271 236.274059 
L 280.734271 232.441663 
L 282.146126 232.441663 
L 282.146126 228.609267 
L 282.890688 228.609267 
L 282.890688 224.776871 
L 284.808539 224.776871 
L 284.808539 220.944475 
L 285.582169 220.944475 
L 285.582169 217.112079 
L 286.030521 217.112079 
L 286.030521 213.279683 
L 286.778709 213.279683 
L 286.778709 209.447287 
L 287.064724 209.447287 
L 287.064724 205.614891 
L 287.702502 205.614891 
L 287.702502 201.782495 
L 288.598745 201.782495 
L 288.598745 197.950099 
L 288.725883 197.950099 
L 288.725883 194.117703 
L 288.747992 194.117703 
L 288.747992 190.285307 
L 288.837433 190.285307 
L 288.837433 186.452911 
L 290.123772 186.452911 
L 290.123772 182.620515 
L 293.017078 182.620515 
L 293.017078 178.788119 
L 293.764643 178.788119 
L 293.764643 174.955723 
L 294.715919 174.955723 
L 294.715919 171.123327 
L 295.592501 171.123327 
L 295.592501 167.290931 
L 296.131421 167.290931 
L 296.131421 163.458535 
L 297.359689 163.458535 
L 297.359689 159.626139 
L 297.792709 159.626139 
L 297.792709 155.793743 
L 298.095681 155.793743 
L 298.095681 151.961347 
L 298.573251 151.961347 
L 298.573251 148.12895 
L 299.500546 148.12895 
L 299.500546 144.296554 
L 300.021649 144.296554 
L 300.021649 140.464158 
L 300.459815 140.464158 
L 300.459815 136.631762 
L 301.363428 136.631762 
L 301.363428 132.799366 
L 304.43282 132.799366 
L 304.43282 128.96697 
L 305.319161 128.96697 
L 305.319161 125.134574 
L 306.03792 125.134574 
L 306.03792 121.302178 
L 306.03792 121.302178 
L 306.03792 121.302178 
L 460.8 121.302178 
" style="fill:none;stroke:#f5deb3;stroke-linecap:square;stroke-width:1.5;"/>
   </g>
   <g id="line2d_25">
    <path clip-path="url(#p2fa84b9f5c)" d="M 176.690785 293.76 
L 176.690785 289.927604 
L 178.605702 289.927604 
L 178.605702 286.095208 
L 178.990368 286.095208 
L 178.990368 282.262812 
L 179.596205 282.262812 
L 179.596205 278.430416 
L 186.713731 278.430416 
L 186.713731 274.59802 
L 187.510885 274.59802 
L 187.510885 270.765624 
L 187.685317 270.765624 
L 187.685317 266.933228 
L 189.923048 266.933228 
L 189.923048 263.100832 
L 194.207141 263.100832 
L 194.207141 259.268436 
L 197.108063 259.268436 
L 197.108063 255.43604 
L 197.76702 255.43604 
L 197.76702 251.603644 
L 200.811998 251.603644 
L 200.811998 247.771248 
L 201.304532 247.771248 
L 201.304532 243.938851 
L 203.289278 243.938851 
L 203.289278 240.106455 
L 246.020167 240.106455 
L 246.020167 236.274059 
L 359.011236 236.274059 
L 359.011236 232.441663 
L 359.032122 232.441663 
L 359.032122 228.609267 
L 359.656217 228.609267 
L 359.656217 224.776871 
L 359.741142 224.776871 
L 359.741142 220.944475 
L 359.784368 220.944475 
L 359.784368 217.112079 
L 359.791284 217.112079 
L 359.791284 213.279683 
L 359.878023 213.279683 
L 359.878023 209.447287 
L 359.901604 209.447287 
L 359.901604 205.614891 
L 360.152046 205.614891 
L 360.152046 201.782495 
L 360.352641 201.782495 
L 360.352641 197.950099 
L 360.363245 197.950099 
L 360.363245 194.117703 
L 360.370749 194.117703 
L 360.370749 190.285307 
L 360.420016 190.285307 
L 360.420016 186.452911 
L 360.745912 186.452911 
L 360.745912 182.620515 
L 361.231345 182.620515 
L 361.231345 178.788119 
L 370.314375 178.788119 
L 370.314375 174.955723 
L 370.430548 174.955723 
L 370.430548 171.123327 
L 370.671312 171.123327 
L 370.671312 167.290931 
L 370.701074 167.290931 
L 370.701074 163.458535 
L 370.708018 163.458535 
L 370.708018 159.626139 
L 370.726869 159.626139 
L 370.726869 155.793743 
L 370.78438 155.793743 
L 370.78438 151.961347 
L 370.821893 151.961347 
L 370.821893 148.12895 
L 371.180913 148.12895 
L 371.180913 144.296554 
L 371.205135 144.296554 
L 371.205135 140.464158 
L 371.294605 140.464158 
L 371.294605 136.631762 
L 371.331767 136.631762 
L 371.331767 132.799366 
L 371.405121 132.799366 
L 371.405121 128.96697 
L 371.636563 128.96697 
L 371.636563 125.134574 
L 371.685705 125.134574 
L 371.685705 121.302178 
L 371.685705 121.302178 
L 371.685705 121.302178 
L 460.8 121.302178 
" style="fill:none;stroke:#f5deb3;stroke-linecap:square;stroke-width:1.5;"/>
   </g>
   <g id="line2d_26">
    <path clip-path="url(#p2fa84b9f5c)" d="M 200.350396 293.76 
L 200.350396 289.927604 
L 200.85016 289.927604 
L 200.85016 286.095208 
L 202.629513 286.095208 
L 202.629513 282.262812 
L 203.059043 282.262812 
L 203.059043 278.430416 
L 203.130064 278.430416 
L 203.130064 274.59802 
L 203.289278 274.59802 
L 203.289278 270.765624 
L 203.306918 270.765624 
L 203.306918 266.933228 
L 203.779511 266.933228 
L 203.779511 263.100832 
L 203.779511 263.100832 
L 203.779511 259.268436 
L 204.381741 259.268436 
L 204.381741 255.43604 
L 204.989368 255.43604 
L 204.989368 251.603644 
L 205.305385 251.603644 
L 205.305385 247.771248 
L 206.02524 247.771248 
L 206.02524 243.938851 
L 206.170473 243.938851 
L 206.170473 240.106455 
L 214.021945 240.106455 
L 214.021945 236.274059 
L 245.824757 236.274059 
L 245.824757 232.441663 
L 249.012581 232.441663 
L 249.012581 228.609267 
L 252.791833 228.609267 
L 252.791833 224.776871 
L 253.028331 224.776871 
L 253.028331 220.944475 
L 253.3098 220.944475 
L 253.3098 217.112079 
L 253.524612 217.112079 
L 253.524612 213.279683 
L 253.776923 213.279683 
L 253.776923 209.447287 
L 253.981544 209.447287 
L 253.981544 205.614891 
L 255.861745 205.614891 
L 255.861745 201.782495 
L 255.898159 201.782495 
L 255.898159 197.950099 
L 256.135468 197.950099 
L 256.135468 194.117703 
L 257.035288 194.117703 
L 257.035288 190.285307 
L 257.060805 190.285307 
L 257.060805 186.452911 
L 259.341695 186.452911 
L 259.341695 182.620515 
L 259.53973 182.620515 
L 259.53973 178.788119 
L 277.858084 178.788119 
L 277.858084 174.955723 
L 279.408241 174.955723 
L 279.408241 171.123327 
L 279.478623 171.123327 
L 279.478623 167.290931 
L 279.719848 167.290931 
L 279.719848 163.458535 
L 279.747742 163.458535 
L 279.747742 159.626139 
L 280.746277 159.626139 
L 280.746277 155.793743 
L 281.095451 155.793743 
L 281.095451 151.961347 
L 281.209507 151.961347 
L 281.209507 148.12895 
L 281.219856 148.12895 
L 281.219856 144.296554 
L 281.290723 144.296554 
L 281.290723 140.464158 
L 282.754443 140.464158 
L 282.754443 136.631762 
L 283.809161 136.631762 
L 283.809161 132.799366 
L 284.117987 132.799366 
L 284.117987 128.96697 
L 291.859713 128.96697 
L 291.859713 125.134574 
L 346.540543 125.134574 
L 346.540543 121.302178 
L 368.704006 121.302178 
L 368.704006 117.469782 
L 378.835492 117.469782 
L 378.835492 113.637386 
L 391.308266 113.637386 
L 391.308266 109.80499 
L 391.468989 109.80499 
L 391.468989 105.972594 
L 395.662203 105.972594 
L 395.662203 102.140198 
L 404.712378 102.140198 
L 404.712378 98.307802 
L 404.942586 98.307802 
L 404.942586 94.475406 
L 407.5809 94.475406 
L 407.5809 90.64301 
L 410.1904 90.64301 
L 410.1904 86.810614 
L 410.927054 86.810614 
L 410.927054 82.978218 
L 412.691385 82.978218 
L 412.691385 79.145822 
L 414.441874 79.145822 
L 414.441874 75.313426 
L 414.581067 75.313426 
L 414.581067 71.48103 
L 416.674656 71.48103 
L 416.674656 67.648634 
L 416.674656 67.648634 
L 416.674656 67.648634 
L 460.8 67.648634 
" style="fill:none;stroke:#f5deb3;stroke-linecap:square;stroke-width:1.5;"/>
   </g>
   <g id="line2d_27">
    <path clip-path="url(#p2fa84b9f5c)" d="M 174.209556 293.76 
L 174.209556 289.927604 
L 174.209556 289.927604 
L 174.209556 286.095208 
L 176.401515 286.095208 
L 176.401515 282.262812 
L 177.301825 282.262812 
L 177.301825 278.430416 
L 178.489378 278.430416 
L 178.489378 274.59802 
L 184.611645 274.59802 
L 184.611645 270.765624 
L 187.743247 270.765624 
L 187.743247 266.933228 
L 187.772172 266.933228 
L 187.772172 263.100832 
L 187.945164 263.100832 
L 187.945164 259.268436 
L 189.268298 259.268436 
L 189.268298 255.43604 
L 191.476932 255.43604 
L 191.476932 251.603644 
L 194.558544 251.603644 
L 194.558544 247.771248 
L 196.914136 247.771248 
L 196.914136 243.938851 
L 197.150996 243.938851 
L 197.150996 240.106455 
L 199.645026 240.106455 
L 199.645026 236.274059 
L 207.679251 236.274059 
L 207.679251 232.441663 
L 210.14276 232.441663 
L 210.14276 228.609267 
L 210.270195 228.609267 
L 210.270195 224.776871 
L 210.411186 224.776871 
L 210.411186 220.944475 
L 210.495478 220.944475 
L 210.495478 217.112079 
L 210.579544 217.112079 
L 210.579544 213.279683 
L 210.579544 213.279683 
L 210.579544 209.447287 
L 210.677338 209.447287 
L 210.677338 205.614891 
L 210.885878 205.614891 
L 210.885878 201.782495 
L 210.982725 201.782495 
L 210.982725 197.950099 
L 211.120562 197.950099 
L 211.120562 194.117703 
L 211.814279 194.117703 
L 211.814279 190.285307 
L 211.841174 190.285307 
L 211.841174 186.452911 
L 212.108866 186.452911 
L 212.108866 182.620515 
L 212.676797 182.620515 
L 212.676797 178.788119 
L 367.211358 178.788119 
L 367.211358 174.955723 
L 369.556735 174.955723 
L 369.556735 171.123327 
L 369.688224 171.123327 
L 369.688224 167.290931 
L 372.588149 167.290931 
L 372.588149 163.458535 
L 373.920055 163.458535 
L 373.920055 159.626139 
L 374.540849 159.626139 
L 374.540849 155.793743 
L 377.035665 155.793743 
L 377.035665 151.961347 
L 378.955841 151.961347 
L 378.955841 148.12895 
L 380.86447 148.12895 
L 380.86447 144.296554 
L 392.01232 144.296554 
L 392.01232 140.464158 
L 393.903558 140.464158 
L 393.903558 136.631762 
L 395.002431 136.631762 
L 395.002431 132.799366 
L 397.451026 132.799366 
L 397.451026 128.96697 
L 400.781558 128.96697 
L 400.781558 125.134574 
L 400.781558 125.134574 
L 400.781558 125.134574 
L 460.8 125.134574 
" style="fill:none;stroke:#f5deb3;stroke-linecap:square;stroke-width:1.5;"/>
   </g>
   <g id="line2d_28">
    <path clip-path="url(#p2fa84b9f5c)" d="M 155.478035 293.76 
L 155.478035 289.927604 
L 155.55872 289.927604 
L 155.55872 286.095208 
L 155.639199 286.095208 
L 155.639199 282.262812 
L 155.719472 282.262812 
L 155.719472 278.430416 
L 158.773021 278.430416 
L 158.773021 274.59802 
L 158.773021 274.59802 
L 158.773021 270.765624 
L 158.773021 270.765624 
L 158.773021 266.933228 
L 158.773021 266.933228 
L 158.773021 263.100832 
L 158.845684 263.100832 
L 158.845684 259.268436 
L 161.755088 259.268436 
L 161.755088 255.43604 
L 161.755088 255.43604 
L 161.755088 251.603644 
L 161.952949 251.603644 
L 161.952949 247.771248 
L 164.780444 247.771248 
L 164.780444 243.938851 
L 167.040674 243.938851 
L 167.040674 240.106455 
L 171.660664 240.106455 
L 171.660664 236.274059 
L 264.377462 236.274059 
L 264.377462 232.441663 
L 264.478343 232.441663 
L 264.478343 228.609267 
L 264.553792 228.609267 
L 264.553792 224.776871 
L 264.624047 224.776871 
L 264.624047 220.944475 
L 264.666626 220.944475 
L 264.666626 217.112079 
L 265.094208 217.112079 
L 265.094208 213.279683 
L 265.296026 213.279683 
L 265.296026 209.447287 
L 265.345054 209.447287 
L 265.345054 205.614891 
L 265.357299 205.614891 
L 265.357299 201.782495 
L 265.746641 201.782495 
L 265.746641 197.950099 
L 265.799801 197.950099 
L 265.799801 194.117703 
L 266.209956 194.117703 
L 266.209956 190.285307 
L 266.567743 190.285307 
L 266.567743 186.452911 
L 266.73692 186.452911 
L 266.73692 182.620515 
L 266.895866 182.620515 
L 266.895866 178.788119 
L 277.68158 178.788119 
L 277.68158 174.955723 
L 278.966735 174.955723 
L 278.966735 171.123327 
L 279.058701 171.123327 
L 279.058701 167.290931 
L 279.553523 167.290931 
L 279.553523 163.458535 
L 279.581565 163.458535 
L 279.581565 159.626139 
L 279.963851 159.626139 
L 279.963851 155.793743 
L 280.195287 155.793743 
L 280.195287 151.961347 
L 280.251737 151.961347 
L 280.251737 148.12895 
L 280.280686 148.12895 
L 280.280686 144.296554 
L 280.484097 144.296554 
L 280.484097 140.464158 
L 280.491661 140.464158 
L 280.491661 136.631762 
L 280.690709 136.631762 
L 280.690709 132.799366 
L 280.831691 132.799366 
L 280.831691 128.96697 
L 281.293673 128.96697 
L 281.293673 125.134574 
L 283.35397 125.134574 
L 283.35397 121.302178 
L 283.35397 121.302178 
L 283.35397 121.302178 
L 460.8 121.302178 
" style="fill:none;stroke:#f5deb3;stroke-linecap:square;stroke-width:1.5;"/>
   </g>
   <g id="line2d_29">
    <path clip-path="url(#p2fa84b9f5c)" d="M 83.991421 293.76 
L 83.991421 289.927604 
L 83.991421 289.927604 
L 83.991421 286.095208 
L 83.991421 286.095208 
L 83.991421 282.262812 
L 83.991421 282.262812 
L 83.991421 278.430416 
L 83.991421 278.430416 
L 83.991421 274.59802 
L 83.991421 274.59802 
L 83.991421 270.765624 
L 84.767432 270.765624 
L 84.767432 266.933228 
L 84.767432 266.933228 
L 84.767432 263.100832 
L 84.767432 263.100832 
L 84.767432 259.268436 
L 84.767432 259.268436 
L 84.767432 255.43604 
L 84.767432 255.43604 
L 84.767432 251.603644 
L 84.767432 251.603644 
L 84.767432 247.771248 
L 84.767432 247.771248 
L 84.767432 243.938851 
L 84.767432 243.938851 
L 84.767432 240.106455 
L 84.767432 240.106455 
L 84.767432 236.274059 
L 99.729202 236.274059 
L 99.729202 232.441663 
L 99.729202 232.441663 
L 99.729202 228.609267 
L 99.729202 228.609267 
L 99.729202 224.776871 
L 152.247573 224.776871 
L 152.247573 220.944475 
L 152.247573 220.944475 
L 152.247573 217.112079 
L 152.247573 217.112079 
L 152.247573 213.279683 
L 152.69209 213.279683 
L 152.69209 209.447287 
L 152.69209 209.447287 
L 152.69209 205.614891 
L 152.69209 205.614891 
L 152.69209 201.782495 
L 153.043231 201.782495 
L 153.043231 197.950099 
L 153.043231 197.950099 
L 153.043231 194.117703 
L 153.043231 194.117703 
L 153.043231 190.285307 
L 153.217342 190.285307 
L 153.217342 186.452911 
L 153.217342 186.452911 
L 153.217342 182.620515 
L 153.217342 182.620515 
L 153.217342 178.788119 
L 153.217342 178.788119 
L 153.217342 178.788119 
L 460.8 178.788119 
" style="fill:none;stroke:#f5deb3;stroke-linecap:square;stroke-width:1.5;"/>
   </g>
   <g id="line2d_30">
    <path clip-path="url(#p2fa84b9f5c)" d="M 153.130407 293.76 
L 153.130407 289.927604 
L 153.130407 289.927604 
L 153.130407 286.095208 
L 153.562695 286.095208 
L 153.562695 282.262812 
L 154.326137 282.262812 
L 154.326137 278.430416 
L 154.659582 278.430416 
L 154.659582 274.59802 
L 154.659582 274.59802 
L 154.659582 270.765624 
L 155.153207 270.765624 
L 155.153207 266.933228 
L 155.316041 266.933228 
L 155.316041 263.100832 
L 155.397142 263.100832 
L 155.397142 259.268436 
L 155.478035 259.268436 
L 155.478035 255.43604 
L 155.719472 255.43604 
L 155.719472 251.603644 
L 156.196851 251.603644 
L 156.196851 247.771248 
L 156.589201 247.771248 
L 156.589201 243.938851 
L 156.667086 243.938851 
L 156.667086 240.106455 
L 157.359505 240.106455 
L 157.359505 236.274059 
L 157.511325 236.274059 
L 157.511325 232.441663 
L 157.73769 232.441663 
L 157.73769 228.609267 
L 158.259619 228.609267 
L 158.259619 224.776871 
L 158.480676 224.776871 
L 158.480676 220.944475 
L 158.773021 220.944475 
L 158.773021 217.112079 
L 159.27817 217.112079 
L 159.27817 213.279683 
L 159.492202 213.279683 
L 159.492202 209.447287 
L 160.195292 209.447287 
L 160.195292 205.614891 
L 160.950946 205.614891 
L 160.950946 201.782495 
L 161.153919 201.782495 
L 161.153919 197.950099 
L 161.288509 197.950099 
L 161.288509 194.117703 
L 161.82118 194.117703 
L 161.82118 190.285307 
L 162.214841 190.285307 
L 162.214841 186.452911 
L 162.344973 186.452911 
L 162.344973 182.620515 
L 169.30568 182.620515 
L 169.30568 178.788119 
L 171.708902 178.788119 
L 171.708902 174.955723 
L 171.708902 174.955723 
L 171.708902 171.123327 
L 171.708902 171.123327 
L 171.708902 167.290931 
L 171.708902 167.290931 
L 171.708902 163.458535 
L 171.708902 163.458535 
L 171.708902 159.626139 
L 171.708902 159.626139 
L 171.708902 155.793743 
L 171.708902 155.793743 
L 171.708902 151.961347 
L 171.708902 151.961347 
L 171.708902 148.12895 
L 171.708902 148.12895 
L 171.708902 144.296554 
L 171.708902 144.296554 
L 171.708902 140.464158 
L 171.708902 140.464158 
L 171.708902 136.631762 
L 171.708902 136.631762 
L 171.708902 132.799366 
L 171.708902 132.799366 
L 171.708902 128.96697 
L 171.708902 128.96697 
L 171.708902 125.134574 
L 171.708902 125.134574 
L 171.708902 121.302178 
L 171.708902 121.302178 
L 171.708902 121.302178 
L 460.8 121.302178 
" style="fill:none;stroke:#f5deb3;stroke-linecap:square;stroke-width:1.5;"/>
   </g>
   <g id="matplotlib.axis_1">
    <g id="xtick_1">
     <g id="line2d_31">
      <path clip-path="url(#p2fa84b9f5c)" d="M 134.570958 293.76 
L 134.570958 3.456 
" style="fill:none;stroke:#b0b0b0;stroke-linecap:square;stroke-width:0.8;"/>
     </g>
     <g id="line2d_32">
      <defs>
       <path d="M 0 0 
L 0 3.5 
" id="m2dfd7cdc40" style="stroke:#000000;stroke-width:0.8;"/>
      </defs>
      <g>
       <use style="stroke:#000000;stroke-width:0.8;" x="134.570958" xlink:href="#m2dfd7cdc40" y="293.76"/>
      </g>
     </g>
     <g id="text_1">
      <!-- 1 -->
      <defs>
       <path d="M 12.40625 8.296875 
L 28.515625 8.296875 
L 28.515625 63.921875 
L 10.984375 60.40625 
L 10.984375 69.390625 
L 28.421875 72.90625 
L 38.28125 72.90625 
L 38.28125 8.296875 
L 54.390625 8.296875 
L 54.390625 0 
L 12.40625 0 
z
" id="DejaVuSans-49"/>
      </defs>
      <g transform="translate(128.208458 315.956875)scale(0.2 -0.2)">
       <use xlink:href="#DejaVuSans-49"/>
      </g>
     </g>
    </g>
    <g id="xtick_2">
     <g id="line2d_33">
      <path clip-path="url(#p2fa84b9f5c)" d="M 279.296874 293.76 
L 279.296874 3.456 
" style="fill:none;stroke:#b0b0b0;stroke-linecap:square;stroke-width:0.8;"/>
     </g>
     <g id="line2d_34">
      <g>
       <use style="stroke:#000000;stroke-width:0.8;" x="279.296874" xlink:href="#m2dfd7cdc40" y="293.76"/>
      </g>
     </g>
     <g id="text_2">
      <!-- 3 -->
      <defs>
       <path d="M 40.578125 39.3125 
Q 47.65625 37.796875 51.625 33 
Q 55.609375 28.21875 55.609375 21.1875 
Q 55.609375 10.40625 48.1875 4.484375 
Q 40.765625 -1.421875 27.09375 -1.421875 
Q 22.515625 -1.421875 17.65625 -0.515625 
Q 12.796875 0.390625 7.625 2.203125 
L 7.625 11.71875 
Q 11.71875 9.328125 16.59375 8.109375 
Q 21.484375 6.890625 26.8125 6.890625 
Q 36.078125 6.890625 40.9375 10.546875 
Q 45.796875 14.203125 45.796875 21.1875 
Q 45.796875 27.640625 41.28125 31.265625 
Q 36.765625 34.90625 28.71875 34.90625 
L 20.21875 34.90625 
L 20.21875 43.015625 
L 29.109375 43.015625 
Q 36.375 43.015625 40.234375 45.921875 
Q 44.09375 48.828125 44.09375 54.296875 
Q 44.09375 59.90625 40.109375 62.90625 
Q 36.140625 65.921875 28.71875 65.921875 
Q 24.65625 65.921875 20.015625 65.03125 
Q 15.375 64.15625 9.8125 62.3125 
L 9.8125 71.09375 
Q 15.4375 72.65625 20.34375 73.4375 
Q 25.25 74.21875 29.59375 74.21875 
Q 40.828125 74.21875 47.359375 69.109375 
Q 53.90625 64.015625 53.90625 55.328125 
Q 53.90625 49.265625 50.4375 45.09375 
Q 46.96875 40.921875 40.578125 39.3125 
z
" id="DejaVuSans-51"/>
      </defs>
      <g transform="translate(272.934374 315.956875)scale(0.2 -0.2)">
       <use xlink:href="#DejaVuSans-51"/>
      </g>
     </g>
    </g>
    <g id="xtick_3">
     <g id="line2d_35">
      <path clip-path="url(#p2fa84b9f5c)" d="M 424.02279 293.76 
L 424.02279 3.456 
" style="fill:none;stroke:#b0b0b0;stroke-linecap:square;stroke-width:0.8;"/>
     </g>
     <g id="line2d_36">
      <g>
       <use style="stroke:#000000;stroke-width:0.8;" x="424.02279" xlink:href="#m2dfd7cdc40" y="293.76"/>
      </g>
     </g>
     <g id="text_3">
      <!-- 5 -->
      <defs>
       <path d="M 10.796875 72.90625 
L 49.515625 72.90625 
L 49.515625 64.59375 
L 19.828125 64.59375 
L 19.828125 46.734375 
Q 21.96875 47.46875 24.109375 47.828125 
Q 26.265625 48.1875 28.421875 48.1875 
Q 40.625 48.1875 47.75 41.5 
Q 54.890625 34.8125 54.890625 23.390625 
Q 54.890625 11.625 47.5625 5.09375 
Q 40.234375 -1.421875 26.90625 -1.421875 
Q 22.3125 -1.421875 17.546875 -0.640625 
Q 12.796875 0.140625 7.71875 1.703125 
L 7.71875 11.625 
Q 12.109375 9.234375 16.796875 8.0625 
Q 21.484375 6.890625 26.703125 6.890625 
Q 35.15625 6.890625 40.078125 11.328125 
Q 45.015625 15.765625 45.015625 23.390625 
Q 45.015625 31 40.078125 35.4375 
Q 35.15625 39.890625 26.703125 39.890625 
Q 22.75 39.890625 18.8125 39.015625 
Q 14.890625 38.140625 10.796875 36.28125 
z
" id="DejaVuSans-53"/>
      </defs>
      <g transform="translate(417.66029 315.956875)scale(0.2 -0.2)">
       <use xlink:href="#DejaVuSans-53"/>
      </g>
     </g>
    </g>
    <g id="text_4">
     <!-- log10 of FEvals / DIM -->
     <defs>
      <path d="M 9.421875 75.984375 
L 18.40625 75.984375 
L 18.40625 0 
L 9.421875 0 
z
" id="DejaVuSans-108"/>
      <path d="M 30.609375 48.390625 
Q 23.390625 48.390625 19.1875 42.75 
Q 14.984375 37.109375 14.984375 27.296875 
Q 14.984375 17.484375 19.15625 11.84375 
Q 23.34375 6.203125 30.609375 6.203125 
Q 37.796875 6.203125 41.984375 11.859375 
Q 46.1875 17.53125 46.1875 27.296875 
Q 46.1875 37.015625 41.984375 42.703125 
Q 37.796875 48.390625 30.609375 48.390625 
z
M 30.609375 56 
Q 42.328125 56 49.015625 48.375 
Q 55.71875 40.765625 55.71875 27.296875 
Q 55.71875 13.875 49.015625 6.21875 
Q 42.328125 -1.421875 30.609375 -1.421875 
Q 18.84375 -1.421875 12.171875 6.21875 
Q 5.515625 13.875 5.515625 27.296875 
Q 5.515625 40.765625 12.171875 48.375 
Q 18.84375 56 30.609375 56 
z
" id="DejaVuSans-111"/>
      <path d="M 45.40625 27.984375 
Q 45.40625 37.75 41.375 43.109375 
Q 37.359375 48.484375 30.078125 48.484375 
Q 22.859375 48.484375 18.828125 43.109375 
Q 14.796875 37.75 14.796875 27.984375 
Q 14.796875 18.265625 18.828125 12.890625 
Q 22.859375 7.515625 30.078125 7.515625 
Q 37.359375 7.515625 41.375 12.890625 
Q 45.40625 18.265625 45.40625 27.984375 
z
M 54.390625 6.78125 
Q 54.390625 -7.171875 48.1875 -13.984375 
Q 42 -20.796875 29.203125 -20.796875 
Q 24.46875 -20.796875 20.265625 -20.09375 
Q 16.0625 -19.390625 12.109375 -17.921875 
L 12.109375 -9.1875 
Q 16.0625 -11.328125 19.921875 -12.34375 
Q 23.78125 -13.375 27.78125 -13.375 
Q 36.625 -13.375 41.015625 -8.765625 
Q 45.40625 -4.15625 45.40625 5.171875 
L 45.40625 9.625 
Q 42.625 4.78125 38.28125 2.390625 
Q 33.9375 0 27.875 0 
Q 17.828125 0 11.671875 7.65625 
Q 5.515625 15.328125 5.515625 27.984375 
Q 5.515625 40.671875 11.671875 48.328125 
Q 17.828125 56 27.875 56 
Q 33.9375 56 38.28125 53.609375 
Q 42.625 51.21875 45.40625 46.390625 
L 45.40625 54.6875 
L 54.390625 54.6875 
z
" id="DejaVuSans-103"/>
      <path d="M 31.78125 66.40625 
Q 24.171875 66.40625 20.328125 58.90625 
Q 16.5 51.421875 16.5 36.375 
Q 16.5 21.390625 20.328125 13.890625 
Q 24.171875 6.390625 31.78125 6.390625 
Q 39.453125 6.390625 43.28125 13.890625 
Q 47.125 21.390625 47.125 36.375 
Q 47.125 51.421875 43.28125 58.90625 
Q 39.453125 66.40625 31.78125 66.40625 
z
M 31.78125 74.21875 
Q 44.046875 74.21875 50.515625 64.515625 
Q 56.984375 54.828125 56.984375 36.375 
Q 56.984375 17.96875 50.515625 8.265625 
Q 44.046875 -1.421875 31.78125 -1.421875 
Q 19.53125 -1.421875 13.0625 8.265625 
Q 6.59375 17.96875 6.59375 36.375 
Q 6.59375 54.828125 13.0625 64.515625 
Q 19.53125 74.21875 31.78125 74.21875 
z
" id="DejaVuSans-48"/>
      <path id="DejaVuSans-32"/>
      <path d="M 37.109375 75.984375 
L 37.109375 68.5 
L 28.515625 68.5 
Q 23.6875 68.5 21.796875 66.546875 
Q 19.921875 64.59375 19.921875 59.515625 
L 19.921875 54.6875 
L 34.71875 54.6875 
L 34.71875 47.703125 
L 19.921875 47.703125 
L 19.921875 0 
L 10.890625 0 
L 10.890625 47.703125 
L 2.296875 47.703125 
L 2.296875 54.6875 
L 10.890625 54.6875 
L 10.890625 58.5 
Q 10.890625 67.625 15.140625 71.796875 
Q 19.390625 75.984375 28.609375 75.984375 
z
" id="DejaVuSans-102"/>
      <path d="M 9.8125 72.90625 
L 51.703125 72.90625 
L 51.703125 64.59375 
L 19.671875 64.59375 
L 19.671875 43.109375 
L 48.578125 43.109375 
L 48.578125 34.8125 
L 19.671875 34.8125 
L 19.671875 0 
L 9.8125 0 
z
" id="DejaVuSans-70"/>
      <path d="M 9.8125 72.90625 
L 55.90625 72.90625 
L 55.90625 64.59375 
L 19.671875 64.59375 
L 19.671875 43.015625 
L 54.390625 43.015625 
L 54.390625 34.71875 
L 19.671875 34.71875 
L 19.671875 8.296875 
L 56.78125 8.296875 
L 56.78125 0 
L 9.8125 0 
z
" id="DejaVuSans-69"/>
      <path d="M 2.984375 54.6875 
L 12.5 54.6875 
L 29.59375 8.796875 
L 46.6875 54.6875 
L 56.203125 54.6875 
L 35.6875 0 
L 23.484375 0 
z
" id="DejaVuSans-118"/>
      <path d="M 34.28125 27.484375 
Q 23.390625 27.484375 19.1875 25 
Q 14.984375 22.515625 14.984375 16.5 
Q 14.984375 11.71875 18.140625 8.90625 
Q 21.296875 6.109375 26.703125 6.109375 
Q 34.1875 6.109375 38.703125 11.40625 
Q 43.21875 16.703125 43.21875 25.484375 
L 43.21875 27.484375 
z
M 52.203125 31.203125 
L 52.203125 0 
L 43.21875 0 
L 43.21875 8.296875 
Q 40.140625 3.328125 35.546875 0.953125 
Q 30.953125 -1.421875 24.3125 -1.421875 
Q 15.921875 -1.421875 10.953125 3.296875 
Q 6 8.015625 6 15.921875 
Q 6 25.140625 12.171875 29.828125 
Q 18.359375 34.515625 30.609375 34.515625 
L 43.21875 34.515625 
L 43.21875 35.40625 
Q 43.21875 41.609375 39.140625 45 
Q 35.0625 48.390625 27.6875 48.390625 
Q 23 48.390625 18.546875 47.265625 
Q 14.109375 46.140625 10.015625 43.890625 
L 10.015625 52.203125 
Q 14.9375 54.109375 19.578125 55.046875 
Q 24.21875 56 28.609375 56 
Q 40.484375 56 46.34375 49.84375 
Q 52.203125 43.703125 52.203125 31.203125 
z
" id="DejaVuSans-97"/>
      <path d="M 44.28125 53.078125 
L 44.28125 44.578125 
Q 40.484375 46.53125 36.375 47.5 
Q 32.28125 48.484375 27.875 48.484375 
Q 21.1875 48.484375 17.84375 46.4375 
Q 14.5 44.390625 14.5 40.28125 
Q 14.5 37.15625 16.890625 35.375 
Q 19.28125 33.59375 26.515625 31.984375 
L 29.59375 31.296875 
Q 39.15625 29.25 43.1875 25.515625 
Q 47.21875 21.78125 47.21875 15.09375 
Q 47.21875 7.46875 41.1875 3.015625 
Q 35.15625 -1.421875 24.609375 -1.421875 
Q 20.21875 -1.421875 15.453125 -0.5625 
Q 10.6875 0.296875 5.421875 2 
L 5.421875 11.28125 
Q 10.40625 8.6875 15.234375 7.390625 
Q 20.0625 6.109375 24.8125 6.109375 
Q 31.15625 6.109375 34.5625 8.28125 
Q 37.984375 10.453125 37.984375 14.40625 
Q 37.984375 18.0625 35.515625 20.015625 
Q 33.0625 21.96875 24.703125 23.78125 
L 21.578125 24.515625 
Q 13.234375 26.265625 9.515625 29.90625 
Q 5.8125 33.546875 5.8125 39.890625 
Q 5.8125 47.609375 11.28125 51.796875 
Q 16.75 56 26.8125 56 
Q 31.78125 56 36.171875 55.265625 
Q 40.578125 54.546875 44.28125 53.078125 
z
" id="DejaVuSans-115"/>
      <path d="M 25.390625 72.90625 
L 33.6875 72.90625 
L 8.296875 -9.28125 
L 0 -9.28125 
z
" id="DejaVuSans-47"/>
      <path d="M 19.671875 64.796875 
L 19.671875 8.109375 
L 31.59375 8.109375 
Q 46.6875 8.109375 53.6875 14.9375 
Q 60.6875 21.78125 60.6875 36.53125 
Q 60.6875 51.171875 53.6875 57.984375 
Q 46.6875 64.796875 31.59375 64.796875 
z
M 9.8125 72.90625 
L 30.078125 72.90625 
Q 51.265625 72.90625 61.171875 64.09375 
Q 71.09375 55.28125 71.09375 36.53125 
Q 71.09375 17.671875 61.125 8.828125 
Q 51.171875 0 30.078125 0 
L 9.8125 0 
z
" id="DejaVuSans-68"/>
      <path d="M 9.8125 72.90625 
L 19.671875 72.90625 
L 19.671875 0 
L 9.8125 0 
z
" id="DejaVuSans-73"/>
      <path d="M 9.8125 72.90625 
L 24.515625 72.90625 
L 43.109375 23.296875 
L 61.8125 72.90625 
L 76.515625 72.90625 
L 76.515625 0 
L 66.890625 0 
L 66.890625 64.015625 
L 48.09375 14.015625 
L 38.1875 14.015625 
L 19.390625 64.015625 
L 19.390625 0 
L 9.8125 0 
z
" id="DejaVuSans-77"/>
     </defs>
     <g transform="translate(156.430563 339.313125)scale(0.2 -0.2)">
      <use xlink:href="#DejaVuSans-108"/>
      <use x="27.783203" xlink:href="#DejaVuSans-111"/>
      <use x="88.964844" xlink:href="#DejaVuSans-103"/>
      <use x="152.441406" xlink:href="#DejaVuSans-49"/>
      <use x="216.064453" xlink:href="#DejaVuSans-48"/>
      <use x="279.6875" xlink:href="#DejaVuSans-32"/>
      <use x="311.474609" xlink:href="#DejaVuSans-111"/>
      <use x="372.65625" xlink:href="#DejaVuSans-102"/>
      <use x="407.861328" xlink:href="#DejaVuSans-32"/>
      <use x="439.648438" xlink:href="#DejaVuSans-70"/>
      <use x="497.167969" xlink:href="#DejaVuSans-69"/>
      <use x="560.351562" xlink:href="#DejaVuSans-118"/>
      <use x="619.53125" xlink:href="#DejaVuSans-97"/>
      <use x="680.810547" xlink:href="#DejaVuSans-108"/>
      <use x="708.59375" xlink:href="#DejaVuSans-115"/>
      <use x="760.693359" xlink:href="#DejaVuSans-32"/>
      <use x="792.480469" xlink:href="#DejaVuSans-47"/>
      <use x="826.171875" xlink:href="#DejaVuSans-32"/>
      <use x="857.958984" xlink:href="#DejaVuSans-68"/>
      <use x="934.960938" xlink:href="#DejaVuSans-73"/>
      <use x="964.453125" xlink:href="#DejaVuSans-77"/>
     </g>
    </g>
   </g>
   <g id="matplotlib.axis_2">
    <g id="ytick_1">
     <g id="line2d_37">
      <path clip-path="url(#p2fa84b9f5c)" d="M 62.208 293.76 
L 460.8 293.76 
" style="fill:none;stroke:#b0b0b0;stroke-linecap:square;stroke-width:0.8;"/>
     </g>
     <g id="line2d_38">
      <defs>
       <path d="M 0 0 
L -3.5 0 
" id="m2d0a51b3d9" style="stroke:#000000;stroke-width:0.8;"/>
      </defs>
      <g>
       <use style="stroke:#000000;stroke-width:0.8;" x="62.208" xlink:href="#m2d0a51b3d9" y="293.76"/>
      </g>
     </g>
     <g id="text_5">
      <!-- 0.0 -->
      <defs>
       <path d="M 10.6875 12.40625 
L 21 12.40625 
L 21 0 
L 10.6875 0 
z
" id="DejaVuSans-46"/>
      </defs>
      <g transform="translate(29.763 299.83875)scale(0.16 -0.16)">
       <use xlink:href="#DejaVuSans-48"/>
       <use x="63.623047" xlink:href="#DejaVuSans-46"/>
       <use x="95.410156" xlink:href="#DejaVuSans-48"/>
      </g>
     </g>
    </g>
    <g id="ytick_2">
     <g id="line2d_39">
      <path clip-path="url(#p2fa84b9f5c)" d="M 62.208 236.274059 
L 460.8 236.274059 
" style="fill:none;stroke:#b0b0b0;stroke-linecap:square;stroke-width:0.8;"/>
     </g>
     <g id="line2d_40">
      <g>
       <use style="stroke:#000000;stroke-width:0.8;" x="62.208" xlink:href="#m2d0a51b3d9" y="236.274059"/>
      </g>
     </g>
     <g id="text_6">
      <!-- 0.2 -->
      <defs>
       <path d="M 19.1875 8.296875 
L 53.609375 8.296875 
L 53.609375 0 
L 7.328125 0 
L 7.328125 8.296875 
Q 12.9375 14.109375 22.625 23.890625 
Q 32.328125 33.6875 34.8125 36.53125 
Q 39.546875 41.84375 41.421875 45.53125 
Q 43.3125 49.21875 43.3125 52.78125 
Q 43.3125 58.59375 39.234375 62.25 
Q 35.15625 65.921875 28.609375 65.921875 
Q 23.96875 65.921875 18.8125 64.3125 
Q 13.671875 62.703125 7.8125 59.421875 
L 7.8125 69.390625 
Q 13.765625 71.78125 18.9375 73 
Q 24.125 74.21875 28.421875 74.21875 
Q 39.75 74.21875 46.484375 68.546875 
Q 53.21875 62.890625 53.21875 53.421875 
Q 53.21875 48.921875 51.53125 44.890625 
Q 49.859375 40.875 45.40625 35.40625 
Q 44.1875 33.984375 37.640625 27.21875 
Q 31.109375 20.453125 19.1875 8.296875 
z
" id="DejaVuSans-50"/>
      </defs>
      <g transform="translate(29.763 242.352809)scale(0.16 -0.16)">
       <use xlink:href="#DejaVuSans-48"/>
       <use x="63.623047" xlink:href="#DejaVuSans-46"/>
       <use x="95.410156" xlink:href="#DejaVuSans-50"/>
      </g>
     </g>
    </g>
    <g id="ytick_3">
     <g id="line2d_41">
      <path clip-path="url(#p2fa84b9f5c)" d="M 62.208 178.788119 
L 460.8 178.788119 
" style="fill:none;stroke:#b0b0b0;stroke-linecap:square;stroke-width:0.8;"/>
     </g>
     <g id="line2d_42">
      <g>
       <use style="stroke:#000000;stroke-width:0.8;" x="62.208" xlink:href="#m2d0a51b3d9" y="178.788119"/>
      </g>
     </g>
     <g id="text_7">
      <!-- 0.4 -->
      <defs>
       <path d="M 37.796875 64.3125 
L 12.890625 25.390625 
L 37.796875 25.390625 
z
M 35.203125 72.90625 
L 47.609375 72.90625 
L 47.609375 25.390625 
L 58.015625 25.390625 
L 58.015625 17.1875 
L 47.609375 17.1875 
L 47.609375 0 
L 37.796875 0 
L 37.796875 17.1875 
L 4.890625 17.1875 
L 4.890625 26.703125 
z
" id="DejaVuSans-52"/>
      </defs>
      <g transform="translate(29.763 184.866869)scale(0.16 -0.16)">
       <use xlink:href="#DejaVuSans-48"/>
       <use x="63.623047" xlink:href="#DejaVuSans-46"/>
       <use x="95.410156" xlink:href="#DejaVuSans-52"/>
      </g>
     </g>
    </g>
    <g id="ytick_4">
     <g id="line2d_43">
      <path clip-path="url(#p2fa84b9f5c)" d="M 62.208 121.302178 
L 460.8 121.302178 
" style="fill:none;stroke:#b0b0b0;stroke-linecap:square;stroke-width:0.8;"/>
     </g>
     <g id="line2d_44">
      <g>
       <use style="stroke:#000000;stroke-width:0.8;" x="62.208" xlink:href="#m2d0a51b3d9" y="121.302178"/>
      </g>
     </g>
     <g id="text_8">
      <!-- 0.6 -->
      <defs>
       <path d="M 33.015625 40.375 
Q 26.375 40.375 22.484375 35.828125 
Q 18.609375 31.296875 18.609375 23.390625 
Q 18.609375 15.53125 22.484375 10.953125 
Q 26.375 6.390625 33.015625 6.390625 
Q 39.65625 6.390625 43.53125 10.953125 
Q 47.40625 15.53125 47.40625 23.390625 
Q 47.40625 31.296875 43.53125 35.828125 
Q 39.65625 40.375 33.015625 40.375 
z
M 52.59375 71.296875 
L 52.59375 62.3125 
Q 48.875 64.0625 45.09375 64.984375 
Q 41.3125 65.921875 37.59375 65.921875 
Q 27.828125 65.921875 22.671875 59.328125 
Q 17.53125 52.734375 16.796875 39.40625 
Q 19.671875 43.65625 24.015625 45.921875 
Q 28.375 48.1875 33.59375 48.1875 
Q 44.578125 48.1875 50.953125 41.515625 
Q 57.328125 34.859375 57.328125 23.390625 
Q 57.328125 12.15625 50.6875 5.359375 
Q 44.046875 -1.421875 33.015625 -1.421875 
Q 20.359375 -1.421875 13.671875 8.265625 
Q 6.984375 17.96875 6.984375 36.375 
Q 6.984375 53.65625 15.1875 63.9375 
Q 23.390625 74.21875 37.203125 74.21875 
Q 40.921875 74.21875 44.703125 73.484375 
Q 48.484375 72.75 52.59375 71.296875 
z
" id="DejaVuSans-54"/>
      </defs>
      <g transform="translate(29.763 127.380928)scale(0.16 -0.16)">
       <use xlink:href="#DejaVuSans-48"/>
       <use x="63.623047" xlink:href="#DejaVuSans-46"/>
       <use x="95.410156" xlink:href="#DejaVuSans-54"/>
      </g>
     </g>
    </g>
    <g id="ytick_5">
     <g id="line2d_45">
      <path clip-path="url(#p2fa84b9f5c)" d="M 62.208 63.816238 
L 460.8 63.816238 
" style="fill:none;stroke:#b0b0b0;stroke-linecap:square;stroke-width:0.8;"/>
     </g>
     <g id="line2d_46">
      <g>
       <use style="stroke:#000000;stroke-width:0.8;" x="62.208" xlink:href="#m2d0a51b3d9" y="63.816238"/>
      </g>
     </g>
     <g id="text_9">
      <!-- 0.8 -->
      <defs>
       <path d="M 31.78125 34.625 
Q 24.75 34.625 20.71875 30.859375 
Q 16.703125 27.09375 16.703125 20.515625 
Q 16.703125 13.921875 20.71875 10.15625 
Q 24.75 6.390625 31.78125 6.390625 
Q 38.8125 6.390625 42.859375 10.171875 
Q 46.921875 13.96875 46.921875 20.515625 
Q 46.921875 27.09375 42.890625 30.859375 
Q 38.875 34.625 31.78125 34.625 
z
M 21.921875 38.8125 
Q 15.578125 40.375 12.03125 44.71875 
Q 8.5 49.078125 8.5 55.328125 
Q 8.5 64.0625 14.71875 69.140625 
Q 20.953125 74.21875 31.78125 74.21875 
Q 42.671875 74.21875 48.875 69.140625 
Q 55.078125 64.0625 55.078125 55.328125 
Q 55.078125 49.078125 51.53125 44.71875 
Q 48 40.375 41.703125 38.8125 
Q 48.828125 37.15625 52.796875 32.3125 
Q 56.78125 27.484375 56.78125 20.515625 
Q 56.78125 9.90625 50.3125 4.234375 
Q 43.84375 -1.421875 31.78125 -1.421875 
Q 19.734375 -1.421875 13.25 4.234375 
Q 6.78125 9.90625 6.78125 20.515625 
Q 6.78125 27.484375 10.78125 32.3125 
Q 14.796875 37.15625 21.921875 38.8125 
z
M 18.3125 54.390625 
Q 18.3125 48.734375 21.84375 45.5625 
Q 25.390625 42.390625 31.78125 42.390625 
Q 38.140625 42.390625 41.71875 45.5625 
Q 45.3125 48.734375 45.3125 54.390625 
Q 45.3125 60.0625 41.71875 63.234375 
Q 38.140625 66.40625 31.78125 66.40625 
Q 25.390625 66.40625 21.84375 63.234375 
Q 18.3125 60.0625 18.3125 54.390625 
z
" id="DejaVuSans-56"/>
      </defs>
      <g transform="translate(29.763 69.894988)scale(0.16 -0.16)">
       <use xlink:href="#DejaVuSans-48"/>
       <use x="63.623047" xlink:href="#DejaVuSans-46"/>
       <use x="95.410156" xlink:href="#DejaVuSans-56"/>
      </g>
     </g>
    </g>
    <g id="ytick_6">
     <g id="line2d_47">
      <path clip-path="url(#p2fa84b9f5c)" d="M 62.208 6.330297 
L 460.8 6.330297 
" style="fill:none;stroke:#b0b0b0;stroke-linecap:square;stroke-width:0.8;"/>
     </g>
     <g id="line2d_48">
      <g>
       <use style="stroke:#000000;stroke-width:0.8;" x="62.208" xlink:href="#m2d0a51b3d9" y="6.330297"/>
      </g>
     </g>
     <g id="text_10">
      <!-- 1.0 -->
      <g transform="translate(29.763 12.409047)scale(0.16 -0.16)">
       <use xlink:href="#DejaVuSans-49"/>
       <use x="63.623047" xlink:href="#DejaVuSans-46"/>
       <use x="95.410156" xlink:href="#DejaVuSans-48"/>
      </g>
     </g>
    </g>
    <g id="text_11">
     <!-- proportion of trials -->
     <defs>
      <path d="M 18.109375 8.203125 
L 18.109375 -20.796875 
L 9.078125 -20.796875 
L 9.078125 54.6875 
L 18.109375 54.6875 
L 18.109375 46.390625 
Q 20.953125 51.265625 25.265625 53.625 
Q 29.59375 56 35.59375 56 
Q 45.5625 56 51.78125 48.09375 
Q 58.015625 40.1875 58.015625 27.296875 
Q 58.015625 14.40625 51.78125 6.484375 
Q 45.5625 -1.421875 35.59375 -1.421875 
Q 29.59375 -1.421875 25.265625 0.953125 
Q 20.953125 3.328125 18.109375 8.203125 
z
M 48.6875 27.296875 
Q 48.6875 37.203125 44.609375 42.84375 
Q 40.53125 48.484375 33.40625 48.484375 
Q 26.265625 48.484375 22.1875 42.84375 
Q 18.109375 37.203125 18.109375 27.296875 
Q 18.109375 17.390625 22.1875 11.75 
Q 26.265625 6.109375 33.40625 6.109375 
Q 40.53125 6.109375 44.609375 11.75 
Q 48.6875 17.390625 48.6875 27.296875 
z
" id="DejaVuSans-112"/>
      <path d="M 41.109375 46.296875 
Q 39.59375 47.171875 37.8125 47.578125 
Q 36.03125 48 33.890625 48 
Q 26.265625 48 22.1875 43.046875 
Q 18.109375 38.09375 18.109375 28.8125 
L 18.109375 0 
L 9.078125 0 
L 9.078125 54.6875 
L 18.109375 54.6875 
L 18.109375 46.1875 
Q 20.953125 51.171875 25.484375 53.578125 
Q 30.03125 56 36.53125 56 
Q 37.453125 56 38.578125 55.875 
Q 39.703125 55.765625 41.0625 55.515625 
z
" id="DejaVuSans-114"/>
      <path d="M 18.3125 70.21875 
L 18.3125 54.6875 
L 36.8125 54.6875 
L 36.8125 47.703125 
L 18.3125 47.703125 
L 18.3125 18.015625 
Q 18.3125 11.328125 20.140625 9.421875 
Q 21.96875 7.515625 27.59375 7.515625 
L 36.8125 7.515625 
L 36.8125 0 
L 27.59375 0 
Q 17.1875 0 13.234375 3.875 
Q 9.28125 7.765625 9.28125 18.015625 
L 9.28125 47.703125 
L 2.6875 47.703125 
L 2.6875 54.6875 
L 9.28125 54.6875 
L 9.28125 70.21875 
z
" id="DejaVuSans-116"/>
      <path d="M 9.421875 54.6875 
L 18.40625 54.6875 
L 18.40625 0 
L 9.421875 0 
z
M 9.421875 75.984375 
L 18.40625 75.984375 
L 18.40625 64.59375 
L 9.421875 64.59375 
z
" id="DejaVuSans-105"/>
      <path d="M 54.890625 33.015625 
L 54.890625 0 
L 45.90625 0 
L 45.90625 32.71875 
Q 45.90625 40.484375 42.875 44.328125 
Q 39.84375 48.1875 33.796875 48.1875 
Q 26.515625 48.1875 22.3125 43.546875 
Q 18.109375 38.921875 18.109375 30.90625 
L 18.109375 0 
L 9.078125 0 
L 9.078125 54.6875 
L 18.109375 54.6875 
L 18.109375 46.1875 
Q 21.34375 51.125 25.703125 53.5625 
Q 30.078125 56 35.796875 56 
Q 45.21875 56 50.046875 50.171875 
Q 54.890625 44.34375 54.890625 33.015625 
z
" id="DejaVuSans-110"/>
     </defs>
     <g transform="translate(21.603625 241.836125)rotate(-90)scale(0.2 -0.2)">
      <use xlink:href="#DejaVuSans-112"/>
      <use x="63.476562" xlink:href="#DejaVuSans-114"/>
      <use x="104.558594" xlink:href="#DejaVuSans-111"/>
      <use x="165.740234" xlink:href="#DejaVuSans-112"/>
      <use x="229.216797" xlink:href="#DejaVuSans-111"/>
      <use x="290.398438" xlink:href="#DejaVuSans-114"/>
      <use x="331.511719" xlink:href="#DejaVuSans-116"/>
      <use x="370.720703" xlink:href="#DejaVuSans-105"/>
      <use x="398.503906" xlink:href="#DejaVuSans-111"/>
      <use x="459.685547" xlink:href="#DejaVuSans-110"/>
      <use x="523.064453" xlink:href="#DejaVuSans-32"/>
      <use x="554.851562" xlink:href="#DejaVuSans-111"/>
      <use x="616.033203" xlink:href="#DejaVuSans-102"/>
      <use x="651.238281" xlink:href="#DejaVuSans-32"/>
      <use x="683.025391" xlink:href="#DejaVuSans-116"/>
      <use x="722.234375" xlink:href="#DejaVuSans-114"/>
      <use x="763.347656" xlink:href="#DejaVuSans-105"/>
      <use x="791.130859" xlink:href="#DejaVuSans-97"/>
      <use x="852.410156" xlink:href="#DejaVuSans-108"/>
      <use x="880.193359" xlink:href="#DejaVuSans-115"/>
     </g>
    </g>
   </g>
   <g id="line2d_49">
    <path clip-path="url(#p2fa84b9f5c)" d="M 293.375519 293.76 
L 293.375519 289.927604 
L 293.375519 289.927604 
L 293.375519 289.927604 
L 460.8 289.927604 
" style="fill:none;stroke:#000000;stroke-linecap:square;stroke-width:1.5;"/>
   </g>
   <g id="line2d_50">
    <path clip-path="url(#p2fa84b9f5c)" style="fill:none;stroke:#000000;stroke-linecap:square;stroke-width:1.5;"/>
   </g>
   <g id="line2d_51">
    <path clip-path="url(#p2fa84b9f5c)" d="M 345.276402 293.76 
L 345.276402 289.927604 
L 345.276402 289.927604 
L 345.276402 289.927604 
L 460.8 289.927604 
" style="fill:none;stroke:#00bfbf;stroke-linecap:square;stroke-width:1.5;"/>
   </g>
   <g id="line2d_52">
    <path clip-path="url(#p2fa84b9f5c)" style="fill:none;stroke:#00bfbf;stroke-linecap:square;stroke-width:1.5;"/>
   </g>
   <g id="line2d_53">
    <path clip-path="url(#p2fa84b9f5c)" d="M 414.471892 293.76 
L 414.471892 289.927604 
L 414.471892 289.927604 
L 414.471892 289.927604 
L 460.8 289.927604 
" style="fill:none;stroke:#bf00bf;stroke-linecap:square;stroke-width:1.5;"/>
   </g>
   <g id="line2d_54">
    <path clip-path="url(#p2fa84b9f5c)" style="fill:none;stroke:#bf00bf;stroke-linecap:square;stroke-width:1.5;"/>
   </g>
   <g id="line2d_55">
    <path clip-path="url(#p2fa84b9f5c)" d="M 460.8 293.76 
L 460.8 289.927604 
L 460.8 289.927604 
" style="fill:none;stroke:#ff0000;stroke-linecap:square;stroke-width:3;"/>
   </g>
   <g id="line2d_56">
    <path clip-path="url(#p2fa84b9f5c)" style="fill:none;stroke:#ff0000;stroke-linecap:square;stroke-width:3;"/>
   </g>
   <g id="line2d_57">
    <path clip-path="url(#p2fa84b9f5c)" d="M 460.8 293.76 
L 460.8 3.456 
" style="fill:none;stroke:#000000;stroke-linecap:square;stroke-width:1.5;"/>
   </g>
   <g id="patch_3">
    <path d="M 62.208 293.76 
L 62.208 3.456 
" style="fill:none;stroke:#000000;stroke-linecap:square;stroke-linejoin:miter;stroke-width:0.8;"/>
   </g>
   <g id="patch_4">
    <path d="M 460.8 293.76 
L 460.8 3.456 
" style="fill:none;stroke:#000000;stroke-linecap:square;stroke-linejoin:miter;stroke-width:0.8;"/>
   </g>
   <g id="patch_5">
    <path d="M 62.208 293.76 
L 460.8 293.76 
" style="fill:none;stroke:#000000;stroke-linecap:square;stroke-linejoin:miter;stroke-width:0.8;"/>
   </g>
   <g id="patch_6">
    <path d="M 62.208 3.456 
L 460.8 3.456 
" style="fill:none;stroke:#000000;stroke-linecap:square;stroke-linejoin:miter;stroke-width:0.8;"/>
   </g>
   <g id="text_12">
    <!-- {f1-f5}, 20-D -->
    <defs>
     <path d="M 51.125 -9.28125 
L 51.125 -16.3125 
L 48.09375 -16.3125 
Q 35.9375 -16.3125 31.8125 -12.6875 
Q 27.6875 -9.078125 27.6875 1.703125 
L 27.6875 13.375 
Q 27.6875 20.75 25.046875 23.578125 
Q 22.40625 26.421875 15.484375 26.421875 
L 12.5 26.421875 
L 12.5 33.40625 
L 15.484375 33.40625 
Q 22.46875 33.40625 25.078125 36.203125 
Q 27.6875 39.015625 27.6875 46.296875 
L 27.6875 58.015625 
Q 27.6875 68.796875 31.8125 72.390625 
Q 35.9375 75.984375 48.09375 75.984375 
L 51.125 75.984375 
L 51.125 69 
L 47.796875 69 
Q 40.921875 69 38.8125 66.84375 
Q 36.71875 64.703125 36.71875 57.8125 
L 36.71875 45.703125 
Q 36.71875 38.03125 34.5 34.5625 
Q 32.28125 31.109375 26.90625 29.890625 
Q 32.328125 28.5625 34.515625 25.09375 
Q 36.71875 21.625 36.71875 14.015625 
L 36.71875 1.90625 
Q 36.71875 -4.984375 38.8125 -7.125 
Q 40.921875 -9.28125 47.796875 -9.28125 
z
" id="DejaVuSans-123"/>
     <path d="M 4.890625 31.390625 
L 31.203125 31.390625 
L 31.203125 23.390625 
L 4.890625 23.390625 
z
" id="DejaVuSans-45"/>
     <path d="M 12.5 -9.28125 
L 15.921875 -9.28125 
Q 22.75 -9.28125 24.828125 -7.171875 
Q 26.90625 -5.078125 26.90625 1.90625 
L 26.90625 14.015625 
Q 26.90625 21.625 29.09375 25.09375 
Q 31.296875 28.5625 36.71875 29.890625 
Q 31.296875 31.109375 29.09375 34.5625 
Q 26.90625 38.03125 26.90625 45.703125 
L 26.90625 57.8125 
Q 26.90625 64.75 24.828125 66.875 
Q 22.75 69 15.921875 69 
L 12.5 69 
L 12.5 75.984375 
L 15.578125 75.984375 
Q 27.734375 75.984375 31.8125 72.390625 
Q 35.890625 68.796875 35.890625 58.015625 
L 35.890625 46.296875 
Q 35.890625 39.015625 38.515625 36.203125 
Q 41.15625 33.40625 48.09375 33.40625 
L 51.125 33.40625 
L 51.125 26.421875 
L 48.09375 26.421875 
Q 41.15625 26.421875 38.515625 23.578125 
Q 35.890625 20.75 35.890625 13.375 
L 35.890625 1.703125 
Q 35.890625 -9.078125 31.8125 -12.6875 
Q 27.734375 -16.3125 15.578125 -16.3125 
L 12.5 -16.3125 
z
" id="DejaVuSans-125"/>
     <path d="M 11.71875 12.40625 
L 22.015625 12.40625 
L 22.015625 4 
L 14.015625 -11.625 
L 7.71875 -11.625 
L 11.71875 4 
z
" id="DejaVuSans-44"/>
    </defs>
    <g transform="translate(195.0165 24.458955)scale(0.2 -0.2)">
     <use xlink:href="#DejaVuSans-123"/>
     <use x="63.623047" xlink:href="#DejaVuSans-102"/>
     <use x="98.828125" xlink:href="#DejaVuSans-49"/>
     <use x="162.451172" xlink:href="#DejaVuSans-45"/>
     <use x="198.535156" xlink:href="#DejaVuSans-102"/>
     <use x="233.740234" xlink:href="#DejaVuSans-53"/>
     <use x="297.363281" xlink:href="#DejaVuSans-125"/>
     <use x="360.986328" xlink:href="#DejaVuSans-44"/>
     <use x="392.773438" xlink:href="#DejaVuSans-32"/>
     <use x="424.560547" xlink:href="#DejaVuSans-50"/>
     <use x="488.183594" xlink:href="#DejaVuSans-48"/>
     <use x="551.806641" xlink:href="#DejaVuSans-45"/>
     <use x="587.890625" xlink:href="#DejaVuSans-68"/>
    </g>
   </g>
   <g id="text_13">
    <!-- absolute targets -->
    <defs>
     <path d="M 48.6875 27.296875 
Q 48.6875 37.203125 44.609375 42.84375 
Q 40.53125 48.484375 33.40625 48.484375 
Q 26.265625 48.484375 22.1875 42.84375 
Q 18.109375 37.203125 18.109375 27.296875 
Q 18.109375 17.390625 22.1875 11.75 
Q 26.265625 6.109375 33.40625 6.109375 
Q 40.53125 6.109375 44.609375 11.75 
Q 48.6875 17.390625 48.6875 27.296875 
z
M 18.109375 46.390625 
Q 20.953125 51.265625 25.265625 53.625 
Q 29.59375 56 35.59375 56 
Q 45.5625 56 51.78125 48.09375 
Q 58.015625 40.1875 58.015625 27.296875 
Q 58.015625 14.40625 51.78125 6.484375 
Q 45.5625 -1.421875 35.59375 -1.421875 
Q 29.59375 -1.421875 25.265625 0.953125 
Q 20.953125 3.328125 18.109375 8.203125 
L 18.109375 0 
L 9.078125 0 
L 9.078125 75.984375 
L 18.109375 75.984375 
z
" id="DejaVuSans-98"/>
     <path d="M 8.5 21.578125 
L 8.5 54.6875 
L 17.484375 54.6875 
L 17.484375 21.921875 
Q 17.484375 14.15625 20.5 10.265625 
Q 23.53125 6.390625 29.59375 6.390625 
Q 36.859375 6.390625 41.078125 11.03125 
Q 45.3125 15.671875 45.3125 23.6875 
L 45.3125 54.6875 
L 54.296875 54.6875 
L 54.296875 0 
L 45.3125 0 
L 45.3125 8.40625 
Q 42.046875 3.421875 37.71875 1 
Q 33.40625 -1.421875 27.6875 -1.421875 
Q 18.265625 -1.421875 13.375 4.4375 
Q 8.5 10.296875 8.5 21.578125 
z
M 31.109375 56 
z
" id="DejaVuSans-117"/>
     <path d="M 56.203125 29.59375 
L 56.203125 25.203125 
L 14.890625 25.203125 
Q 15.484375 15.921875 20.484375 11.0625 
Q 25.484375 6.203125 34.421875 6.203125 
Q 39.59375 6.203125 44.453125 7.46875 
Q 49.3125 8.734375 54.109375 11.28125 
L 54.109375 2.78125 
Q 49.265625 0.734375 44.1875 -0.34375 
Q 39.109375 -1.421875 33.890625 -1.421875 
Q 20.796875 -1.421875 13.15625 6.1875 
Q 5.515625 13.8125 5.515625 26.8125 
Q 5.515625 40.234375 12.765625 48.109375 
Q 20.015625 56 32.328125 56 
Q 43.359375 56 49.78125 48.890625 
Q 56.203125 41.796875 56.203125 29.59375 
z
M 47.21875 32.234375 
Q 47.125 39.59375 43.09375 43.984375 
Q 39.0625 48.390625 32.421875 48.390625 
Q 24.90625 48.390625 20.390625 44.140625 
Q 15.875 39.890625 15.1875 32.171875 
z
" id="DejaVuSans-101"/>
    </defs>
    <g transform="translate(62.208 609.166194)scale(0.14 -0.14)">
     <use xlink:href="#DejaVuSans-97"/>
     <use x="61.279297" xlink:href="#DejaVuSans-98"/>
     <use x="124.755859" xlink:href="#DejaVuSans-115"/>
     <use x="176.855469" xlink:href="#DejaVuSans-111"/>
     <use x="238.037109" xlink:href="#DejaVuSans-108"/>
     <use x="265.820312" xlink:href="#DejaVuSans-117"/>
     <use x="329.199219" xlink:href="#DejaVuSans-116"/>
     <use x="368.408203" xlink:href="#DejaVuSans-101"/>
     <use x="429.931641" xlink:href="#DejaVuSans-32"/>
     <use x="461.71875" xlink:href="#DejaVuSans-116"/>
     <use x="500.927734" xlink:href="#DejaVuSans-97"/>
     <use x="562.207031" xlink:href="#DejaVuSans-114"/>
     <use x="603.304688" xlink:href="#DejaVuSans-103"/>
     <use x="666.78125" xlink:href="#DejaVuSans-101"/>
     <use x="728.304688" xlink:href="#DejaVuSans-116"/>
     <use x="767.513672" xlink:href="#DejaVuSans-115"/>
    </g>
   </g>
   <g id="text_14">
    <!-- v2.4 -->
    <g style="fill:#808080;" transform="translate(250.593063 288.777272)scale(0.1 -0.1)">
     <use xlink:href="#DejaVuSans-118"/>
     <use x="59.179688" xlink:href="#DejaVuSans-50"/>
     <use x="122.802734" xlink:href="#DejaVuSans-46"/>
     <use x="154.589844" xlink:href="#DejaVuSans-52"/>
    </g>
   </g>
   <g id="legend_1">
    <g id="patch_7">
     <path d="M 76.208 136.881 
L 205.429875 136.881 
Q 209.429875 136.881 209.429875 132.881 
L 209.429875 17.456 
Q 209.429875 13.456 205.429875 13.456 
L 76.208 13.456 
Q 72.208 13.456 72.208 17.456 
L 72.208 132.881 
Q 72.208 136.881 76.208 136.881 
z
" style="fill:#ffffff;opacity:0.2;stroke:#cccccc;stroke-linejoin:miter;"/>
    </g>
    <g id="line2d_58">
     <path d="M 80.208 29.652875 
L 120.208 29.652875 
" style="fill:none;stroke:#000000;stroke-linecap:square;stroke-width:1.5;"/>
    </g>
    <g id="line2d_59"/>
    <g id="text_15">
     <!-- 1: 1/5 -->
     <defs>
      <path d="M 11.71875 12.40625 
L 22.015625 12.40625 
L 22.015625 0 
L 11.71875 0 
z
M 11.71875 51.703125 
L 22.015625 51.703125 
L 22.015625 39.3125 
L 11.71875 39.3125 
z
" id="DejaVuSans-58"/>
     </defs>
     <g transform="translate(136.208 36.652875)scale(0.2 -0.2)">
      <use xlink:href="#DejaVuSans-49"/>
      <use x="63.623047" xlink:href="#DejaVuSans-58"/>
      <use x="97.314453" xlink:href="#DejaVuSans-32"/>
      <use x="129.101562" xlink:href="#DejaVuSans-49"/>
      <use x="192.724609" xlink:href="#DejaVuSans-47"/>
      <use x="226.416016" xlink:href="#DejaVuSans-53"/>
     </g>
    </g>
    <g id="line2d_60">
     <path d="M 80.208 59.009125 
L 120.208 59.009125 
" style="fill:none;stroke:#00bfbf;stroke-linecap:square;stroke-width:1.5;"/>
    </g>
    <g id="line2d_61"/>
    <g id="text_16">
     <!-- -1: 1/5 -->
     <g transform="translate(136.208 66.009125)scale(0.2 -0.2)">
      <use xlink:href="#DejaVuSans-45"/>
      <use x="36.083984" xlink:href="#DejaVuSans-49"/>
      <use x="99.707031" xlink:href="#DejaVuSans-58"/>
      <use x="133.398438" xlink:href="#DejaVuSans-32"/>
      <use x="165.185547" xlink:href="#DejaVuSans-49"/>
      <use x="228.808594" xlink:href="#DejaVuSans-47"/>
      <use x="262.5" xlink:href="#DejaVuSans-53"/>
     </g>
    </g>
    <g id="line2d_62">
     <path d="M 80.208 88.365375 
L 120.208 88.365375 
" style="fill:none;stroke:#bf00bf;stroke-linecap:square;stroke-width:1.5;"/>
    </g>
    <g id="line2d_63"/>
    <g id="text_17">
     <!-- -4: 1/5 -->
     <g transform="translate(136.208 95.365375)scale(0.2 -0.2)">
      <use xlink:href="#DejaVuSans-45"/>
      <use x="36.083984" xlink:href="#DejaVuSans-52"/>
      <use x="99.707031" xlink:href="#DejaVuSans-58"/>
      <use x="133.398438" xlink:href="#DejaVuSans-32"/>
      <use x="165.185547" xlink:href="#DejaVuSans-49"/>
      <use x="228.808594" xlink:href="#DejaVuSans-47"/>
      <use x="262.5" xlink:href="#DejaVuSans-53"/>
     </g>
    </g>
    <g id="line2d_64">
     <path d="M 80.208 117.721625 
L 120.208 117.721625 
" style="fill:none;stroke:#ff0000;stroke-linecap:square;stroke-width:3;"/>
    </g>
    <g id="line2d_65"/>
    <g id="text_18">
     <!-- -8: 1/5 -->
     <g transform="translate(136.208 124.721625)scale(0.2 -0.2)">
      <use xlink:href="#DejaVuSans-45"/>
      <use x="36.083984" xlink:href="#DejaVuSans-56"/>
      <use x="99.707031" xlink:href="#DejaVuSans-58"/>
      <use x="133.398438" xlink:href="#DejaVuSans-32"/>
      <use x="165.185547" xlink:href="#DejaVuSans-49"/>
      <use x="228.808594" xlink:href="#DejaVuSans-47"/>
      <use x="262.5" xlink:href="#DejaVuSans-53"/>
     </g>
    </g>
   </g>
  </g>
 </g>
 <defs>
  <clipPath id="p2fa84b9f5c">
   <rect height="290.304" width="398.592" x="62.208" y="3.456"/>
  </clipPath>
 </defs>
</svg>
